<svg xmlns="http://www.w3.org/2000/svg" viewBox="0 0 256 256">
  <title>activities</title>
  <g id="Layer_2" data-name="Layer 2">
    <g id="Layer_1-2" data-name="Layer 1">
      <g id="activities">
        <path d="M128.82665,11.13c31.86749-.12171,59.37192,11.12882,82.05369,33.31394,19.39339,18.96876,30.67551,42.25561,34.08329,69.299,2.95143,23.42185-.7016,45.79076-11.41879,66.70629A117.02793,117.02793,0,0,1,176.855,234.82912a114.82439,114.82439,0,0,1-50.83519,10.33215,108.46229,108.46229,0,0,1-36.95691-6.96936c-22.42279-8.6085-41.35288-22.15021-55.43284-41.877C22.17681,180.26821,14.55222,162.64763,12.22947,142.886c-4.489-38.19244,6.669-71.16426,33.6933-98.35221C64.21816,26.12755,86.62431,15.25078,112.502,11.8736c1.8022-.23521,3.59623-.65424,5.40266-.71011C121.54222,11.051,125.18566,11.13,128.82665,11.13Zm88.67827,170.72865a19.22372,19.22372,0,0,0-2.5721-2.104c-5.50913-2.87013-11.10832-5.5728-16.55421-8.55624a5.566,5.566,0,0,0-6.344.23972c-.75716.4998-1.58873.88554-2.37561,1.3418-18.74905,10.87135-37.53887,21.6736-56.20636,32.68323-3.44337,2.03083-6.19407,2.05692-9.61812.0148-11.97618-7.14276-24.101-14.03646-36.17567-21.01385-7.47776-4.32107-14.99752-8.57063-22.43252-12.96386-2.2861-1.35078-4.1557-1.67418-6.65236-.16815-3.74841,2.26105-7.88419,3.86927-11.762,5.9306-2.33453,1.241-5.09489,1.95086-6.62857,4.35508,15.0705,26.23462,46.84289,49.63295,86.9015,49.7969C165.85042,231.57336,195.57883,214.153,217.50492,181.85866ZM128.6,47.65032c5.7345,3.28485,11.00966,6.28464,16.264,9.32042,15.7663,9.10927,31.555,18.18064,47.25191,27.408a5.61822,5.61822,0,0,0,6.26593.12755c5.35051-2.85356,10.85761-5.41222,16.27878-8.13514,2.77865-1.39564,3.13566-2.35957,1.45932-4.93505a86.241,86.241,0,0,0-5.89284-8.0733,106.03716,106.03716,0,0,0-43.13831-31.64826c-16.6677-6.59343-33.74071-8.38365-51.37031-6.33072a102.46,102.46,0,0,0-27.919,7.8028C68.61387,41.2583,53.563,54.225,42.049,71.43742a30.44826,30.44826,0,0,0-1.68612,3.43167c6.485,3.30876,12.73383,6.35449,18.82856,9.68232,2.193,1.19745,3.78867.94777,5.834-.24843,13.22946-7.73739,26.52773-15.35723,39.80925-23.0055C112.71326,56.76052,120.60248,52.242,128.6,47.65032Zm48.43663,80.35h.02737c0-8.18922-.07166-16.37945.04435-24.567a5.26514,5.26514,0,0,0-2.82075-5.22391c-1.32292-.73806-2.586-1.58331-3.91019-2.31894-5.9521-3.30665-11.93695-6.5547-17.87094-9.89332-6.86613-3.86307-13.71776-7.7536-20.51985-11.72775a5.76047,5.76047,0,0,0-6.68259.1159c-8.56264,5.16067-17.32222,9.99451-26.00387,14.95795-4.99955,2.85837-9.946,5.81431-15.00836,8.55627-2.777,1.50414-4.52427,3.29967-4.05644,6.74616a43.42,43.42,0,0,1,.0473,5.908q-.05459,20.47283-.11193,40.94568c-.006,2.27-.1089,4.3026,2.48018,5.76153,14.3934,8.1108,28.695,16.38576,42.97115,24.70211a5.04743,5.04743,0,0,0,5.81959.03c13.87682-8.10049,27.78406-16.15335,41.81834-23.976,2.97224-1.65669,3.943-3.54,3.84825-6.81748C176.885,143.47221,177.03663,135.734,177.03663,128.00027Zm46.97213,40.35055c.9835-2.196,1.96759-4.0484,2.6651-6.00312,8.42815-23.61976,7.89631-47.21841-.30985-70.7667-1.54677-4.43862-2.426-4.8-6.58537-2.76124-6.0921,2.98608-12.13746,6.06732-18.21624,9.08069a5.66977,5.66977,0,0,0-3.45441,5.7885c.1543,8.78727.04894,17.57891.06179,26.36885.01062,7.27417.10625,14.54882.03915,21.82214a5.36065,5.36065,0,0,0,3.54167,5.5851c6.31038,2.9419,12.442,6.26609,18.6614,9.40519C221.4504,167.39437,222.56724,167.76314,224.00876,168.35082ZM33.65611,87.73884c-11.70758,17.96067-11.44284,67.59929.01429,80.16523.31344,0,.664.10425.90252-.01515,7.44645-3.72765,14.87133-7.49856,22.32741-11.20674,1.668-.82953,1.85934-2.23993,1.86046-3.80044.00268-3.7897-.01282-7.57944-.01578-11.36915-.00961-12.28033-.10562-24.56166.03595-36.84027.03637-3.15437-.87988-5.09414-3.89083-6.31756-2.9344-1.19234-5.65483-2.90383-8.498-4.32992C42.21564,91.93,38.01352,89.88627,33.65611,87.73884Z"/>
        <path d="M128.9856,89.44389c10.23476,5.93429,20.5631,11.95582,30.93442,17.90244a4.07115,4.07115,0,0,1,2.3153,3.9979c-.07592,10.91486-.10119,21.83082-.01694,32.74546a5.161,5.161,0,0,1-3.0643,5.02451q-14.0472,7.92916-27.9697,16.07824a4.2644,4.2644,0,0,1-4.68178.22134q-2.75-1.59155-5.50721-3.17077c-7.34865-4.23051-14.60753-8.62989-22.08975-12.60935-3.01939-1.60591-3.99171-3.61511-3.95685-6.84848.1111-10.307.03431-20.61651-.0436-30.92452-.01467-1.94271.23451-3.42727,2.17918-4.52023,10.16748-5.71451,20.26438-11.55459,30.39267-17.339A11.09812,11.09812,0,0,1,128.9856,89.44389Zm-.50272,15.4552c-7.82657,7.82075-15.87531,15.00492-22.96713,23.02986,4.98469,6.19685,20.54021,21.262,23.67837,22.89324,7.54636-7.37331,15.19323-14.80087,22.84339-22.92289C144.25966,119.8713,136.78369,112.27646,128.48288,104.89909Z"/>
        <path d="M128,.73846A127.26154,127.26154,0,1,0,255.26154,128,127.40578,127.40578,0,0,0,128,.73846Zm0,252.70072A125.43918,125.43918,0,1,1,253.43918,128,125.58143,125.58143,0,0,1,128,253.43918Z"/>
      </g>
    </g>
  </g>
</svg>
