<svg xmlns="http://www.w3.org/2000/svg" viewBox="0 0 256 256">
  <title>allies</title>
  <g id="Layer_2" data-name="Layer 2">
    <g id="Layer_1-2" data-name="Layer 1">
      <g id="allies">
        <path d="M94.20373,222.35752c-7.74207-6.91981-14.51179-12.97059-21.71665-19.41025C65.5025,209.047,58.781,214.917,51.18043,221.55456V42.65722h43.0233Zm-21.01312-55.437-1.06865-.08509c-.98336,2.56376-1.96674,5.12752-2.97881,7.76608l-9.95722,1.0839,7.46333,5.799c-.72522,3.10321-1.39859,5.98462-2.33678,9.99914,3.473-2.42264,5.93951-4.14323,8.323-5.8059l7.36882,5.11509.75349-.585c-.75784-2.89452-1.51567-5.789-2.23971-8.55449,2.37014-1.98423,4.488-3.7573,7.39061-6.18727-4.0487-.24281-6.82335-.40919-9.70353-.58193C75.14589,172.08576,74.16826,169.50312,73.19061,166.9205Z"/>
        <path d="M161.9488,42.63911h42.85948V222.85075l-21.401-19.3877c-6.9108,6.204-13.82719,12.41313-21.45852,19.264Zm29.82047,148.76024c-1.14592-4.09591-1.95737-6.99621-2.75536-9.84848,2.48943-1.9,4.73482-3.61379,7.83886-5.98289l-9.85417-.56013c-1.06127-2.67913-2.10827-5.32227-3.56058-8.98859-1.47557,3.6742-2.53374,6.309-3.58545,8.92783l-9.8142.73742c3.20636,2.43565,5.40923,4.109,7.79,5.9175-.845,3.00957-1.64668,5.86511-2.713,9.6632,3.41894-2.28655,5.92607-3.9633,8.38746-5.60947Z"/>
        <path d="M148.56421,200.68913c-6.71125-6.09782-13.4225-12.19565-20.54078-18.66332-7.07726,6.27526-13.93257,12.35373-21.57685,19.13173V42.6029H149.5843V200.1361Zm-20.53288-56.00268c-1.41869,3.71451-2.39752,6.27733-3.37772,8.84378-3.11105.226-5.96174.43308-9.86793.71685l7.532,5.94777c-.75635,3.08451-1.419,5.78671-2.33646,9.5284l8.05638-5.553c2.42962,1.67406,4.80558,3.31114,8.16077,5.62291-1.01735-3.82373-1.74637-6.5638-2.559-9.61785l7.67053-5.8369c-3.89223-.35432-6.85309-.62386-9.82494-.89437C130.432,150.77393,129.46384,148.319,128.03133,144.68645Z"/>
        <path d="M127.72916,217.867c3.13794-5.53785,5.75146-10.15018,8.89531-15.69845,1.09568,1.948,1.9919,3.54138,3.23635,5.75388-3.4619,5.96817-7.60146,13.10459-12.13345,20.9176l-13.21946-22.97686c1.32226-1.14029,2.51487-2.16877,4.2834-3.69393Z"/>
        <path d="M127.70511,244.82776c-6.622-11.68428-12.74674-22.49112-18.87147-33.298l1.21036-.69926c5.66558,10.00017,11.33116,20.00034,17.67962,31.20588,6.13217-10.92063,11.73965-20.90684,17.3471-30.893q.7086.39513,1.41718.79023C140.68193,222.72966,134.43926,233.29057,127.70511,244.82776Z"/>
        <path d="M211.35855,83.43986c9.696-17.19278,21.13525-38.33591,31.14927-56.09279q-57.401,0-114.50769.09559-57.17847-.0388-114.50795-.09559c10.014,17.75688,21.45328,38.9,31.14927,56.09279V70.53149c-5.81418-9.28839-16.22239-27.243-21.80389-37.15385,0,0,63.97407-.34876,105.16257-.5863,41.188.23754,105.16231.5863,105.16231.5863-5.5815,9.91081-15.98971,27.86546-21.80389,37.15385Z"/>
        <path d="M211.35855,98.49963,256,18.79152s-58.943.13669-87.163.19105q-20.41869.03939-40.83685.07459-20.41869-.03664-40.83711-.07459C58.943,18.92821,0,18.79152,0,18.79152L44.64145,98.49963V95.27254S4.78155,23.173,3.98344,21.57675q62.20426-.30314,124.01669-.60429,61.858.30135,124.01643.60429c-.79811,1.59621-40.658,73.69579-40.658,73.69579Z"/>
      </g>
    </g>
  </g>
</svg>
