<svg xmlns="http://www.w3.org/2000/svg" viewBox="0 0 256 256">
  <title>enemies</title>
  <g id="Layer_2" data-name="Layer 2">
    <g id="Layer_1-2" data-name="Layer 1">
      <g id="enemies">
        <path d="M25.27433,127.38433c5.0375-7.17823,38.01634-36.84575,45.86429-41.32682a454.89323,454.89323,0,0,1,45.54712,41.00075,474.32576,474.32576,0,0,1-45.8637,41.0519C54.53005,155.62751,39.77786,141.81354,25.27433,127.38433Z"/>
        <path d="M86.009,71.92284c12.46222-16.45417,26.551-31.04986,41.282-45.67858,14.82485,14.58695,28.60334,29.29615,41.16451,45.595-12.4151,16.41335-26.3034,31.03641-41.07652,45.76579A421.73281,421.73281,0,0,1,86.009,71.92284Z"/>
        <path d="M168.33554,182.05293c-11.98738,16.36651-26.18224,30.53162-40.8325,45.221A399.53082,399.53082,0,0,1,86.224,182.21579c12.28435-16.70791,26.49946-31.1977,41.05742-45.89308C141.93268,150.91988,155.78482,165.59933,168.33554,182.05293Z"/>
        <path d="M207.38812,86.02C225.49055,97.54674,240.77969,112.24631,256,127.50937c-14.962,15.239-30.19645,29.60388-47.57686,41.60124,5.938-7.38716,12.79876-13.91789,19.39033-20.68195,6.62759-6.80106,13.51706-13.34694,20.48253-20.19216-3.8399-5.97885-9.08068-9.954-13.47045-14.671-4.44349-4.77478-9.14648-9.30882-13.7572-13.927Q214.24917,92.80841,207.38812,86.02Z"/>
        <path d="M128.19324,254.791c-15.40194-15.12252-29.9261-30.454-42.54223-47.5042.19326-.19577,28.3082,26.40064,42.48816,40.20193,14.20192-13.92555,42.59558-40.81879,42.84231-40.58681C158.53252,224.26447,143.862,239.6591,128.19324,254.791Z"/>
        <path d="M49.11512,169.70617C31.20356,157.967,15.75944,143.17612,0,127.66417c14.8293-15.062,30.02283-29.72593,47.47209-41.83691.28977.302-25.82114,27.94108-39.45954,41.75554Z"/>
        <path d="M85.0422,49.17211c4.60514-7.773,10.6075-14.47432,16.41482-21.31877C109.48468,18.392,127.69223.41241,128.30226,0c14.87952,15.0179,29.74728,30.03951,41.75128,47.57491-.19378.18968-27.82561-26.07519-41.14787-39.104-1.99659.10506-2.73512,1.13886-3.59489,1.991Q107.03669,28.57533,88.7331,46.65874A23.74262,23.74262,0,0,1,85.0422,49.17211Z"/>
        <path d="M138.65228,126.78334c5.0375,7.17823,38.01635,36.84575,45.8643,41.32682a454.89544,454.89544,0,0,0,45.54712-41.00075A474.32694,474.32694,0,0,0,184.2,86.05751C167.908,98.54016,153.15581,112.35413,138.65228,126.78334Z"/>
      </g>
    </g>
  </g>
</svg>
