<svg xmlns="http://www.w3.org/2000/svg" viewBox="0 0 256 257.55613">
  <title>guardian</title>
  <g id="Layer_2" data-name="Layer 2">
    <g id="Layer_1-2" data-name="Layer 1">
      <g id="guardian">
        <g>
          <path d="M67.41169,60.47044c-.581-.33255-1.05374-.0601-1.05374.609V84.78264c0,.66911.47278.94156,1.05374.605L87.93763,73.54c.577-.33656.577-.88146,0-1.202Z"/>
          <path d="M93.7232,72.322c-.577.33655-.577.88145,0,1.202l20.53,11.84759c.57695.33655,1.04973.0641,1.04973-.605V61.07945c0-.66911-.47278-.94156-1.04973-.609Z"/>
          <path d="M112.55835,59.2364c.581-.33255.581-.88145,0-1.202L92.03241,46.1708a2.32383,2.32383,0,0,0-2.10749,0L69.399,58.02239a.63371.63371,0,0,0,0,1.202L89.92492,71.076a2.3519,2.3519,0,0,0,2.10749,0Z"/>
          <path d="M69.399,86.62569a.63371.63371,0,0,0,0,1.202l20.52594,11.8516a2.32389,2.32389,0,0,0,2.10749,0l20.52594-11.8516c.581-.33255.581-.88146,0-1.202L92.03241,74.77409a2.3519,2.3519,0,0,0-2.10749,0Z"/>
        </g>
        <path d="M200.672,22.4505H127.53473V127.66493h73.18564C200.59665,80.97753,200.672,22.4505,200.672,22.4505ZM187.14959,83.951H176.106l11.04362,16.40722H176.09847l-11.97086-17.783-11.97086,17.783H141.1055L152.15287,83.951H141.1055l11.04375-16.41085H141.1055l11.97086-17.783h11.04737L153.08024,66.1644h11.04349L153.08024,82.57525H175.175L164.13136,66.1644H175.175L164.13136,49.75718h11.04738l11.97085,17.783H176.106Z"/>
        <path d="M215.19612,169.45952c-.43741-50.47942-.18765-100.99016-.28121-151.46933V7.9939H39.83011V181.78238c0,9.93365,4.62311,16.74331,11.4017,22.80315,21.11639,18.92985,45.95,31.79972,71.502,43.54489a10.6661,10.6661,0,0,0,10.21862-.39743l-.04827.02692-.0493.02705c24.98981-11.40171,49.29233-24.3337,70.28371-42.57637a33.01045,33.01045,0,0,0,12.10078-25.56014V179.634c0-.59555-.01553-9.66849-.04684-10.25653ZM209.1,176.07829a30.69921,30.69921,0,0,1-11.25391,23.771c-19.52178,16.96564-42.1233,28.9924-65.3636,39.59589l.04581-.02511.04478-.0251a9.91884,9.91884,0,0,1-9.50323.3696C99.3065,228.84171,76.21141,216.87266,56.573,199.268c-6.304-5.63588-10.60362-11.96878-10.60362-21.207V14.52933H208.79826s-.1452,105.12552.26141,152.07136l-.00311-.07623c.029.54677.04348,8.98455.04348,9.53843Z"/>
        <g>
          <polygon points="177.287 127.771 168.991 127.771 127.28 169.482 127.28 177.778 177.287 127.771"/>
          <polygon points="160.695 127.771 152.399 127.771 127.28 152.89 127.28 161.186 160.695 127.771"/>
          <polygon points="127.28 136.297 127.28 144.594 144.102 127.771 135.806 127.771 127.28 136.297"/>
          <path d="M200.90439,166.243l.00285.06859c-.01126-1.29684-.022-2.65113-.03236-4.05538L130.6278,232.50342a8.9018,8.9018,0,0,0,1.44152-.677l-.04025.02252-.04128.02265q7.30542-3.3332,14.487-6.91914l54.45884-54.45871C200.92717,168.48453,200.91733,166.48745,200.90439,166.243Z"/>
          <path d="M200.60545,179.11805l-35.78652,35.78652a183.74045,183.74045,0,0,0,25.996-18.66921A27.67835,27.67835,0,0,0,200.60545,179.11805Z"/>
          <polygon points="193.879 127.771 185.583 127.771 127.28 186.074 127.28 194.371 193.879 127.771"/>
          <path d="M200.82247,154.01254c-.01462-2.63988-.02808-5.39855-.04037-8.25583l-73.50245,73.50257v8.29607Z"/>
          <path d="M200.75013,137.49247q-.01379-4.05085-.02549-8.27059l-73.445,73.445v8.29607Z"/>
        </g>
        <path d="M54.126,127.66493v48.9609c0,8.31446,3.86967,14.014,9.54322,19.08631,17.67455,15.84429,38.46017,26.6164,59.84716,36.44691a8.79685,8.79685,0,0,0,3.97074.93241c.01618,0,.03145-.00323.04763-.00323V127.66493Zm36.70586,25.89454,4.37257,6.68942-4.37257,6.68633-4.37542-6.68633Zm-26.04465,24.855,16.25658-24.855,4.37555,6.68942L73.53517,178.41444Zm9.78508,0L85.93619,161.04l4.37567,6.68619-6.9885,10.68826Zm16.25957,0H84.35736l6.47448-9.89406,6.46852,9.89406Zm7.5055,0-6.99148-10.68826L95.72128,161.04l11.364,17.37445Zm9.785,0-11.884-18.16555,4.37554-6.68942,16.2597,24.855Z"/>
        <path d="M223.08338,170.53882l.0022.052c-.47675-55.02256-.20447-110.07928-.30644-165.10158V0H31.93663V184.02276c0,10.82763,5.0393,18.25018,12.42794,24.85536,23.01681,20.63355,50.0855,34.6618,77.93713,47.464a11.62678,11.62678,0,0,0,11.06342-.38876l-.03145.01437.05371-.02951.05267-.02937-.07493.04451c27.22825-12.42444,53.70553-26.51662,76.57778-46.39389a35.98142,35.98142,0,0,0,13.18992-27.86056v-.01786C223.13282,181.04214,223.11638,171.45285,223.08338,170.53882Zm-14.18354,37.82036c-24.29423,21.11289-52.15013,35.17569-76.19485,46.14749l.17884.39225-.21909-.37853-.043.02407-.05371.0295.11453.22207-.12514-.21249a10.016,10.016,0,0,1-5.08472,1.38238,9.86752,9.86752,0,0,1-4.451-1.04164l-.0277-.01411-.02821-.01294c-26.52529-12.19254-54.27779-26.3498-77.54139-47.20465-8.33943-7.45516-11.89761-14.534-11.89761-23.66982V1.59021H221.18892v3.902c.034,18.32951.02627,36.97116.0189,54.99926-.015,36.09077-.03041,73.40849.28755,110.10465l-.00116.00013c.03054.84428.0484,10.19713.0484,11.10263A34.44,34.44,0,0,1,208.89984,208.35918Z"/>
      </g>
    </g>
  </g>
</svg>
