<svg xmlns="http://www.w3.org/2000/svg" viewBox="0 0 256 256.09145">
  <title>inventory</title>
  <g id="Layer_2" data-name="Layer 2">
    <g id="Layer_1-2" data-name="Layer 1">
      <g id="inventory">
        <path d="M16.983,93.16005l-.02566-6.35788V63.824L128.05278,0c9.98568,5.76459,19.77613,11.42851,29.578,17.07256q36.60069,21.075,73.21428,42.12775a17.556,17.556,0,0,0,1.7814.78426l.98318.67354a.30638.30638,0,0,0,.47391.18331q2.33082,1.56291,4.66166,3.12578l.29738,1.04051-.07973,1.7357a26.80414,26.80414,0,0,0-.44052,3.48513q.04457,36.94544.1456,73.89085.04095,21.136.03405,42.272c-.00055,1.43472-.16954,2.8694-.28893,4.75535l-110.32086,63.41L17.78329,190.9108c-.09758-2.04695-.25248-3.86748-.26088-5.68872q-.16293-35.362-.298-70.72406a12.11052,12.11052,0,0,0-.20379-1.55762l.00185-2.43682q-.00744-1.15548-.01491-2.311l.0048-4.01184Zm3.156-27.5576v123.888q53.81507,30.91187,107.86107,61.95643,54.10328-31.0696,108.0244-62.03461V64.96689L128.07548,3.41327Q73.89845,34.62818,20.13908,65.60245Z"/>
        <path d="M27.47368,185.00722V69.363c33.41913-19.19465,66.85184-38.39707,100.5832-57.771Q178.19657,40.48622,228.484,69.46564V185.21542Q178.5343,213.94368,128.17046,242.9101ZM128.034,236.65232c31.86894-18.32459,63.45057-36.484,95.12215-54.69511V72.37553q-47.40531-27.02808-95.07124-54.20472Q80.38406,45.66254,33.08628,72.92193V182.04965Z"/>
        <path d="M128.21749,124.34273C106.89437,134.139,85.90916,143.77991,64.924,153.42087l-.67325-.6545c4.82877-9.3751,10.42058-18.33639,15.64034-27.49668,5.27761-9.26183,10.6873-18.44842,16.04544-27.66431Q103.8761,83.94943,111.825,70.299c5.32516-9.18126,10.62549-18.3769,16.233-28.07884,21.41524,36.9668,42.49716,73.35831,63.57911,109.74982l-.654.74863c-7.20916-2.14844-13.70347-6.05456-20.577-9.01531-7.12541-3.06917-14.12329-6.43461-21.1737-9.67752C142.30757,130.84059,135.38679,127.64657,128.21749,124.34273Zm-.18278-15.83306q11.90516,5.40576,23.69894,10.761l.6319-.77822c-8.00063-13.59761-15.66536-27.39258-24.38217-41.60444-8.47242,14.32822-16.30823,27.98982-24.139,41.65437l.67354.69057Z"/>
        <path d="M74.74155,179.11368,63.734,170.72608c2.43814-2.51358,48.10859-24.02762,64.52906-30.47524,21.14538,9.79486,42.69794,19.42029,64.963,30.014-1.38482.90977-2.06326,1.30533-2.687,1.77372-3.04007,2.28261-6.06554,4.58464-9.18874,6.94981-1.75529-.69859-3.35945-1.258-4.89764-1.9615-14.72065-6.73284-29.465-13.41579-44.11308-20.30349a8.79213,8.79213,0,0,0-8.20327-.07572c-14.54179,6.7878-29.1484,13.4368-43.7407,20.11612C78.72432,177.5288,77.00039,178.17886,74.74155,179.11368Z"/>
        <path d="M175.13025,184.23055l-11.78453,9.01853c-4.89468-2.22472-9.55363-4.326-14.19864-6.45766-5.85911-2.68869-11.73535-5.34277-17.54593-8.13317a7.47637,7.47637,0,0,0-7.11144-.03441c-8.28207,4.029-16.66234,7.85775-25.034,11.7-2.14063.98243-4.38889,1.73039-6.963,2.73212l-11.42335-8.85343c16.14282-7.44278,31.51248-14.52912,46.99723-21.6685C143.50447,169.651,158.88473,176.74131,175.13025,184.23055Z"/>
      </g>
    </g>
  </g>
</svg>
