<svg xmlns="http://www.w3.org/2000/svg" viewBox="0 0 256 256">
  <title>places</title>
  <g id="Layer_2" data-name="Layer 2">
    <g id="Layer_1-2" data-name="Layer 1">
      <g id="places">
        <path d="M127.99681,255.63748c-4.69938-8.13082-9.215-15.79985-13.59288-23.54672-10.59153-18.74227-21.06063-37.55415-31.74782-56.24141a18.476,18.476,0,0,0-5.51975-5.81764c-23.16016-15.79517-37.448-37.55331-40.77125-65.22387-4.44738-37.03075,9.07724-67.21693,39.83635-88.38608C125.196-17.2974,193.13109,4.3992,214.305,59.86971a92.4292,92.4292,0,0,1-35.45717,110.35771,18.09063,18.09063,0,0,0-5.48414,5.87013c-14.42875,25.21295-28.70045,50.51578-43.024,75.789C129.71487,252.98881,128.99867,254.03927,127.99681,255.63748Zm31.288-61.7688c3.9157-6.89374,7.752-13.83467,11.80094-20.64924a14.60406,14.60406,0,0,1,4.23413-4.68531c24.27585-16.02127,38.49782-38.22791,41.57763-67.2903,3.77514-35.62379-15.246-70.85283-47.06238-87.3686C111.06736-16.63087,40.144,24.95579,38.8514,91.16066c-.62968,32.25179,13.39315,57.61151,39.85633,76.15548a24.37919,24.37919,0,0,1,7.0721,7.75062c13.15274,23.45066,26.04764,47.04584,39.06115,70.57486.84753,1.53236,2.019,2.88561,3.5387,5.02421,3.29717-6.00169,6.15707-11.157,8.97013-16.33781q10.95987-20.18507,21.88668-40.38809Z"/>
        <path d="M127.86053,231.77215c-3.265-5.64688-6.10657-10.44038-8.83279-15.29859-8.98585-16.01292-17.82208-32.11143-26.98972-48.01924a22.36155,22.36155,0,0,0-7.00056-7.33108c-22.2615-14.37748-34.64808-34.91222-37.554-60.95853C43.24313,62.15784,69.08051,25.21352,106.366,15.11927,154.07674,2.20258,201.681,33.51488,207.76107,82.6319c4.20011,33.92966-9.19838,60.25186-37.56772,79.16046a19.04178,19.04178,0,0,0-5.76467,6.11105c-11.38975,19.79431-22.58215,39.70214-33.846,59.569C129.95052,228.58733,129.21348,229.64279,127.86053,231.77215Zm21.6463-104.61153c15.30191-8.79819,22.74889-27.94583,17.9152-44.98382-5.22677-18.42361-21.61617-30.62472-40.24464-29.96021-18.794.67042-35.10334,13.764-38.99389,31.3054-3.813,17.19168,4.22785,36.56187,18.40989,43.48682,7.0238-12.5486,14.0673-25.13245,21.43517-38.29577C135.44828,101.99483,142.402,114.44251,149.50683,127.16062Zm-51.743,19.44682c3.082-3.1168,3.34657-5.60359-.84892-7.47958a11.0393,11.0393,0,0,1-1.74787-1.27772c-20.622-14.826-28.95583-40.1118-21.1404-64.14862C81.66367,50.21334,103.65532,34.641,128.859,34.87479A56.69079,56.69079,0,0,1,163.5096,135.8513c-2.54882,2.02772-5.21574,3.907-7.94591,5.943,1.08119,1.84157,1.92655,3.2814,2.75145,4.68645,21.1767-10.20384,37.146-37.52692,32.05409-65.45483-5.57471-30.576-30.88159-52.13149-61.27085-52.51185-29.62849-.37083-56.11681,20.39973-62.64559,48.991C59.532,107.81327,75.90659,135.8012,97.76379,146.60744Z"/>
      </g>
    </g>
  </g>
</svg>
