<svg xmlns="http://www.w3.org/2000/svg" viewBox="0 0 126.7085 126.70862">
  <title>campaign_warmind</title>
  <g id="Layer_2" data-name="Layer 2">
    <g id="Layer_1-2" data-name="Layer 1">
      <path d="M63.35425,0,0,63.35425l63.35425,63.35437L126.7085,63.35425ZM56.78467,71.37964Q59.67553,74.272,62.572,77.16089a.70612.70612,0,0,1,.23462.52624l-.00073.03089.00012-.00147c-.00879,2.63672-.00537,5.27356-.00537,7.91028V85.927a.2481.2481,0,0,1-.03333.01563l-.00183.00073c-.01013.0033-.02575.0094-.03186.00464-.03442-.02832-.06762-.05737-.10058-.08924L47.93469,71.15771,62.80054,56.28992v4.81176c0,1.13855-.00684,2.27637.00476,3.41419l.0011.04126a.70251.70251,0,0,1-.227.51807l-.00061.00048Q59.67707,67.9585,56.79,70.855c-.07983.07971-.17188.14673-.27991.23731C56.62036,71.20776,56.70081,71.295,56.78467,71.37964ZM32.5376,51.55786a.78722.78722,0,0,1-.58277-.25708l-.00048-.00049q-2.62061-2.61382-5.25391-5.21344c-.2218-.22039-.43213-.45294-.67944-.71325H61.67358a1.87315,1.87315,0,0,1-.14306.18829l.001-.001-.002.00232.001-.00128q-2.91413,2.91752-5.82556,5.8363a.56118.56118,0,0,1-.45374.15357H46.59717q-7.01367,0-14.0282.00537Zm.91015,1.13184H54.2865c-1.96948,1.96875-3.9646,3.964-5.95984,5.95971l.05347.06775h-.30225c-2.772,0-5.54394-.00329-8.31592.00537l-.022.00037a.71125.71125,0,0,1-.532-.23828l-.00049-.00073c-1.43335-1.434-2.87756-2.85718-4.31226-4.2898C34.40454,53.70313,33.93115,53.19275,33.44775,52.6897Zm29.3617,35.21838c-.01013,2.70447-.006,5.40881-.006,8.11316l-.00293.31384L37.606,71.1377,62.80054,45.94092v.25146q0,4.09013.00476,8.18067l.00036.02246a.674.674,0,0,1-.22363.50244l-.00049.00049q-7.9779,7.96728-15.94641,15.93969c-.08716.08716-.18518.16431-.30017.265.11694.11829.209.21289.30151.30627q7.9618,7.95832,15.92408,15.91382a.74866.74866,0,0,1,.24939.55835l-.00061.02783Zm1.09118,8.38574v-.20288c0-2.72595.0033-5.45276-.00537-8.18078l-.00073-.03a.75019.75019,0,0,1,.24683-.55689l.00073-.00049q7.96362-7.951,15.91992-15.91186c.08728-.08716.18189-.16638.29553-.27051-.11023-.11694-.19665-.21362-.28869-.30554q-7.9455-7.947-15.89636-15.88831a.85854.85854,0,0,1-.27894-.63427l.00123-.044-.00025.00208c.01026-2.776.0061-5.5575.0061-8.32874v-.00012h0v.00012L89.07642,71.11743ZM69.8894,70.8385l.00147.00159-.00513-.0044.00366.00281q-2.88153-2.87531-5.7622-5.75281a.7119.7119,0,0,1-.23194-.52661l.00074-.03332-.00013.00158q.01082-4.11217.00476-8.21533v.00025q7.437,7.433,14.8064,14.80639l-14.8064,14.8064v-.26489c0-2.62464.0033-5.24927-.00476-7.87378l-.00109-.043a.78617.78617,0,0,1,.25073-.57666l.00049-.00049q2.8905-2.86852,5.76513-5.75293a3.51519,3.51519,0,0,1,.34851-.26221l.01331-.00818A4.73941,4.73941,0,0,1,69.8894,70.8385Zm23.21851-17.923q-2.83961,2.81726-5.68323,5.63659a.52842.52842,0,0,1-.3883.16956l-.02539-.00061.00122.00012q-4.22279-.007-8.4458,0c-.01233.001-.02662.00171-.04114.00171a.48573.48573,0,0,1-.34693-.145h-.00012q-2.874-2.88428-5.75561-5.759c-.02979-.03113-.05615-.06421-.12573-.14331H93.32373C93.23315,52.77612,93.17432,52.84985,93.10791,52.91553Zm7.42993-7.34918.00122-.00165q-2.95422,2.92383-5.90844,5.847a.45566.45566,0,0,1-.33179.1427l-.02588-.00073h.00122c-.52942-.00683-1.05884,0-1.58887,0q-10.57947,0-21.16186.0061l-.03382.00074A.81566.81566,0,0,1,70.882,51.29l-.00061-.00073q-2.79914-2.8179-5.6117-5.619a2.73507,2.73507,0,0,0-.2511-.19678l-.00915-.006a.63519.63519,0,0,1,.048-.094v.00006h35.63037a1.95873,1.95873,0,0,1-.14868.1911l.00049-.00049Z" style="fill: #63b7c9"/>
    </g>
  </g>
</svg>
