<svg xmlns="http://www.w3.org/2000/svg" viewBox="0 0 126.7085 126.70862">
  <title>campaign_forsaken</title>
  <g id="Layer_2" data-name="Layer 2">
    <g id="Layer_1-2" data-name="Layer 1">
      <g>
        <rect x="63.25317" y="99.59033" width="0.17676" height="1.38904" style="fill: #993d8a"/>
        <path d="M63.35425,0,0,63.35431l63.35425,63.35431L126.7085,63.35431Zm-6.478,43.1579V80.2702a14.95106,14.95106,0,0,1-2.92309,8.68286l.00622-.00781-.02869.04047c.00794-.01056.01465-.022.02247-.03266a15.26331,15.26331,0,0,1-5.37769,4.70038l-.08374.03974-2.52564-.73243c.79566-.947,1.50269-1.75524,2.18457-2.60125a14.53129,14.53129,0,0,0,2.77-6.79444l.00806-.075c.6062-3.64935.17688-7.33655.26538-11.01117a4.74689,4.74689,0,0,0-.49438-1.41534,4.25837,4.25837,0,0,0-2.76648-1.01422q-.11189,0-.22229.00567l.0105-.00042H41.57178l-3.4347-5.392h9.64734a3.42591,3.42591,0,0,0,.38843.02136,3.5328,3.5328,0,0,0,2.13806-.71722,3.61411,3.61411,0,0,0,.806-2.283,3.65328,3.65328,0,0,0-.02539-.4303,2.66411,2.66411,0,0,0-2.663-2.62732l-.05335.00061.00269-.00006H41.19287L37.834,53.32312a9.44647,9.44647,0,0,1,1.24036-.13806l.02234-.00086h9.24341a2.28774,2.28774,0,0,0,.42334.03846,2.34857,2.34857,0,0,0,2.096-1.28785l.00634-.01342a3.62274,3.62274,0,0,0-.30542-3.58863,2.28514,2.28514,0,0,0-1.85156-.94629,2.315,2.315,0,0,0-.26562.01526l.01074-.001H37.85925L32.884,39.49591H56.87622Zm9.62207,45.74945c0,2.52557-.35351,5.17724-.58081,7.76593,0,.2146-.22729.404-.46716.79553L65.324,95.96619h-.25244v2.9801l-.97241.40411.22742.73242-1.26282,2.134c-.26514-1.59107.2273-3.119-.40405-4.5459l-.08838.03784c.73242-.303,0-.90918.2146-1.42682l-1.54053,1.17438a29.10065,29.10065,0,0,1-.47461-5.30945q0-.57651.02149-1.1477l-.00159.05487-.68189-.74506c.12623-.89648.2146-1.84357.40418-2.75275a37.77442,37.77442,0,0,0,.31555-4.94787q0-1.28064-.08166-2.54114l.006.11444c0-1.26275-.22742-2.52551-.23987-3.88928,0-.74506.23987-1.47742.23987-2.22247V39.64734A19.34592,19.34592,0,0,1,63.24,39.49176q.21314,0,.42566.00446l-.02112-.00037h2.79065c0,.34094.06311.58081.06311.8208ZM75.8175,51.328a5.71155,5.71155,0,0,0,.56971,1.15027,2.66528,2.66528,0,0,0,1.80468.7q.09962,0,.19764-.00714l-.00867.00049H88.82373c-.8208,2.134-2.28564,3.61145-3.18213,5.455H78.58276c-.06518-.00562-.14111-.00879-.21777-.00879a2.691,2.691,0,0,0-2.542,1.80829l-.00562.01886A3.21062,3.21062,0,0,0,75.593,61.6355a3.26164,3.26164,0,0,0,1.05542,2.40625l.00232.00207a2.86158,2.86158,0,0,0,1.8042.63538q.08075,0,.16052-.0044l-.00757.00031h9.83691c-.84607,2.02039-2.2351,3.53571-3.11889,5.392H77.56006a3.21365,3.21365,0,0,0-1.97119,2.95959q0,.15756.01489.31134l-.001-.01306c.07569,2.52557-.0758,4.95.06311,7.425l-.00036.11017A16.34331,16.34331,0,0,0,77.603,88.6037l-.043-.08789A39.78038,39.78038,0,0,0,80.0697,92.002l-.05993-.07678c.22741.3031.53051.56824.93457,1.01026l-2.60132.78289a16.86523,16.86523,0,0,1-6.27149-6.07306l-.04223-.07653a12.47855,12.47855,0,0,1-1.89307-6.04438L70.135,81.495c0-1.26276-.2019-2.52552-.23987-3.78821,0-.59351.15149-1.187.18933-1.78052V70.55963c0-.202.06324-.39148.06324-.5935l-.2273-5.46772v-.90924c0-3.58624-.06323-7.17242,0-10.75866,0-1.42688-.10107-2.86646,0-4.29334,0-.69458.17676-1.389.2146-2.08362.00061-.04394.001-.096.001-.148a11.86544,11.86544,0,0,0-.08033-1.36712c-.011-.24421-.17187-.48761-.13525-.70746.2146-1.47736-.13892-3.00531.02515-4.73529l.00024.0003H93.82434l-4.912,7.867H83.50769c-1.66687,0-3.33362.08837-5.051,0C76.19629,47.17352,75.14832,48.954,75.8175,51.328Z" style="fill: #993d8a"/>
      </g>
    </g>
  </g>
</svg>
