<svg xmlns="http://www.w3.org/2000/svg" viewBox="0 0 126.7085 126.70862">
  <title>campaign_curse-of-osiris</title>
  <g id="Layer_2" data-name="Layer 2">
    <g id="Layer_1-2" data-name="Layer 1">
      <g>
        <circle cx="63.30092" cy="62.74225" r="7.17634" style="fill: #d3d024"/>
        <path d="M94.37932,62.86035a67.9059,67.9059,0,0,1-6.26379,9.11292c-1.18511,1.34318-2.24459,2.82471-3.5653,4.05152a32.42685,32.42685,0,0,1-12.59544,7.6225,54.32538,54.32538,0,0,1-7.67983,1.577c-6.24242-.14733-12.12262-1.6565-17.2196-5.38242A47.46115,47.46115,0,0,1,34.78013,66.7642c-2.45942-3.90425-2.42808-3.86972-.00835-7.74133A54.99426,54.99426,0,0,1,45.28107,47.35922,33.21774,33.21774,0,0,1,51.1116,43.6621,29.68938,29.68938,0,0,1,57.596,41.39992a19.99909,19.99909,0,0,1,7.124-.64247A26.12871,26.12871,0,0,1,73.723,42.82909a29.11632,29.11632,0,0,1,7.70467,4.54273c1.40129,1.28514,2.9725,2.39424,4.30594,3.74211a37.08168,37.08168,0,0,1,6.65156,8.97483A23.98441,23.98441,0,0,0,94.37932,62.86035Zm-19.1412,9.4844c-.0403.04031.38375.2354.34345.2757.14386.16863.28774.02769.43159.19631l.19523-.19521c-.16863-.14386-.18248-.5973-.40718-.67631-.65621-.75941-.87281-.88021-1.49262-1.66825A11.22423,11.22423,0,0,1,73.01,68.62885c1.47887-.08009,2.75471.77721,3.72666.80176a11.19373,11.19373,0,0,0,1.63389.06512c-1.32678-.82617-2.42217-1.91069-3.43751-2.642-.31114-.2241-.40285-.75285-.7556-1.46728H79.7328c-1.84928-1.4048-4.10739-.85635-5.55272-2.46522,1.41912-1.65452,3.82089-.67768,5.28993-2.52446H74.23492c.64037-2.092,2.76621-2.14211,3.80118-3.55019-.88-.22423-1.50242.23953-2.23721.48217-.7903.261-1.75338-.0013-3.426-.06529,1.60368-1.60327,2.76182-2.76177,4.39022-4.38983-2.36387.44245-3.35446,2.67187-5.63462,1.78866a11.91384,11.91384,0,0,1,.7561-1.83506,5.47556,5.47556,0,0,0,1.28967-3.17547c-1.55177,1.55177-2.79451,2.7945-4.50021,4.50018l.86318-6.60989c-1.2959,1.91666-1.45565,3.94348-3.84759,4.36479V46.8918c-.97583,1.6616-1.04394,3.62758-2.69622,5.41508-.38821-1.56729-.631-2.75248-.98859-3.902a8.43094,8.43094,0,0,0-.849-1.539l-.45532.172v6.07617L57.40816,48.126l-.30881.17329c.40227,1.52905.64977,3.21288,1.07865,4.843-.66729,0-.53455-.15479-.87426-.15479-1.00938-.84711-2.24572-1.62488-3.22853-2.33782.04029-.0403-.07419-.0806-.0339-.12089l-.43159-.50591-.19522.19521c.16865.14387.1825.44252.40718.52154-.01739.28436,1.43245,2.55366,1.93535,4.07918a5.21962,5.21962,0,0,1-2.03221-.61914,7.94084,7.94084,0,0,0-3.78908-1.15457c.909.909,1.52072,1.501,2.10954,2.1149a19.39377,19.39377,0,0,1,2.10038,2.25026,42.31531,42.31531,0,0,1-4.50365-.60063,8.9451,8.9451,0,0,0-1.70219.08579c.54263.35216,3.679,1.88233,5.18066,3.4228-2.20927.38789-4.10861-.05514-5.92462.50779a14.12179,14.12179,0,0,0,2.78107.90281,7.07743,7.07743,0,0,1,2.51838,1.2871c-1.83367.60531-3.65258,1.46423-5.3167,2.01357,1.86768.60336,3.78815.14974,6.12983.75382a23.41453,23.41453,0,0,1-4.98634,3.11085,5.208,5.208,0,0,0,2.53769-.30621A18.46712,18.46712,0,0,1,54.286,68.54c-1.50825,1.50825-2.402,2.4-3.59882,3.60782-.03717.0375-.1897.31336-.15731.36506.05155.08225-.01077.29366.204.48643,1.392-.82952,4.97634-2.21246,4.91126-2.23928-.08229,1.78961-2.062,4.81341-2.23068,4.95727l.19522.19522a1.78265,1.78265,0,0,0,.36675-.562l3.02126-2.51875,1.31987.20618c-.44034,1.69851-.831,3.20525-1.31668,5.07869,1.81475-1.42044,1.72088-3.73342,3.87361-4.6445v5.7387c1.87941-1.38427.8948-3.84557,2.65646-5.52842.39788,1.20453.66752,2.07791.97583,2.93742.28392.79158.6094,1.56821.91657,2.35143l.29075-.08083c0-1.51611.61914-2.56786.61914-3.83109.41822-.503.05679-1.27737.32272-1.59725l2.57249,4.37541c.86123-1.99487-1.35992-3.73491.24462-6.06011,1.31661,1.31711,2.55861,2.55959,3.69989,3.70129-.01454-1.15069-1.7553-4.29492-1.7553-5.01762C72.94373,70.974,74.599,72.29951,75.23812,72.34475Z" style="fill: #d3d024"/>
        <path d="M63.35425,0,0,63.35431l63.35425,63.35431L126.7085,63.35431Zm37.55639,72.75873a83.46467,83.46467,0,0,1-6.15771,7.34454A51.37565,51.37565,0,0,1,79.38232,90.83173,31.12566,31.12566,0,0,1,71.45,93.42157c-1.4707.23688-2.9248.70728-4.40283.83508-1.05933.09156-2.09229.15943-3.15161.27155A18.92668,18.92668,0,0,1,56.42,93.8006a65.79914,65.79914,0,0,1-6.59594-1.89643,42.89975,42.89975,0,0,1-14.34558-8.71649c-1.085-1.02234-2.54981-1.72442-3.40381-2.89264-2.05786-2.81561-4.765-5.05072-6.65149-8.04589-1.546-2.45459-3.67786-4.57727-4.88684-7.24933-.15918-.35181-.41565-3.12458.03332-3.833,1.81995-2.87189,3.47644-5.83673,5.58435-8.5437a70.83017,70.83017,0,0,1,6.23926-7.264A48.61273,48.61273,0,0,1,47.00671,35.1405a44.11108,44.11108,0,0,1,7.91443-2.60461c1.5918-.35108,3.168-1.01526,4.69422-1.223a15.64442,15.64442,0,0,1,4.70837.13318c2.21021.37237,4.46948.793,6.647.99511,3.30286.3067,6.1687,1.68616,9.11731,2.76935,2.48645.91351,4.6222,2.76453,6.94324,4.15015a41.28621,41.28621,0,0,1,9.72144,8.58349,67.33661,67.33661,0,0,1,9.05517,12.62653,4.32006,4.32006,0,0,1,.09766,4.64752A70.01662,70.01662,0,0,1,100.91064,72.75873Z" style="fill: #d3d024"/>
      </g>
    </g>
  </g>
</svg>
