<svg xmlns="http://www.w3.org/2000/svg" viewBox="0 0 643.47826 565.58873">
  <title>cross-save</title>
  <g id="Layer_2" data-name="Layer 2">
    <g id="Layer_1-2" data-name="Layer 1">
      <path d="M321.43951,160.92316c-13.85843,24.77424-25.46619,50.06127-41.491,72.93131a479.08341,479.08341,0,0,0,2.64383-165.30829c3.794-1.11389,67.29757-1.51154,77.83511-.5269.65436,2.54384,1.40567,5.22511,2.0322,7.93522q20.97481,90.72266,81.17666,161.75458c40.33988,47.40664,89.41458,82.93251,147.39365,105.88243a23.83762,23.83762,0,0,1,12.83691,11.06058c12.3321,22.09067,24.9812,44.00424,37.50391,65.98859.62207,1.09213,1.15454,2.23535,2.10748,4.09311-7.19989-1.57324-13.70135-2.81424-20.11078-4.422A431.40115,431.40115,0,0,1,440.4407,324.07021c-41.18561-36.32534-74.21662-79.04651-99.76239-127.61326-5.42356-10.311-10.93055-20.57827-16.42283-30.853C323.50362,164.19743,322.61327,162.86492,321.43951,160.92316ZM150.14126,470.31033c11.4115-7.77,23.123-15.17643,35.15722-21.93329,12.17424-6.83548,24.7367-13.04819,37.44019-18.85288,12.36-5.64776,25.11417-10.43283,37.94107-15.6976-27.76314-2.45737-55.19508.05261-83.23758.302,1.01924-1.853,1.74672-3.2998,2.58485-4.67935q9.33731-15.36918,18.71163-30.71591,64.103-105.165,66.54275-228.30284a435.08764,435.08764,0,0,0-4.49423-70.22964,428.59,428.59,0,0,0-18.06956-76.64c-.34053-1.01072-.88484-1.95279-1.563-3.42276-5.88982,10.34983-11.48688,20.17685-17.07588,30.00844q-11.72425,20.62409-23.44176,41.252a18.57949,18.57949,0,0,0-2.38071,11.95c1.58878,12.88236,3.39871,25.78,4.05831,38.72585a382.92759,382.92759,0,0,1-5.49376,89.05472,388.60568,388.60568,0,0,1-37.08559,109.2352A375.85127,375.85127,0,0,1,80.57834,424.434c-.71378.65918-1.33839,1.41492-2.19321,2.32685q19.094,34.37232,37.99648,68.39975C127.90368,486.62844,138.74874,478.06734,150.14126,470.31033ZM562.35107,563.746a408.309,408.309,0,0,0-45.49952-45.514,16.62715,16.62715,0,0,0-5.68017-2.86182A341.40334,341.40334,0,0,0,407.011,499.64233a326.5755,326.5755,0,0,0-36.32907,2.23639c1.42914.79559,2.09906,1.26309,2.83667,1.56552a371.28658,371.28658,0,0,1,96.85989,57.89242,18.34051,18.34051,0,0,0,12.41065,4.25171c25.13922-.132,50.27954-.07672,75.41943-.08624,1.5965-.00061,3.193-.00006,5.15088-.00006A13.76086,13.76086,0,0,0,562.35107,563.746ZM400.709,2.11213a435.69141,435.69141,0,0,0-15.89347,62.25768,13.91685,13.91685,0,0,0,.15662,5.42568,354.87522,354.87522,0,0,0,55.99469,126.42458c.92639,1.31728,1.92871,2.58118,3.41986,4.56865-.12949-1.56853-.17691-2.21486-.23694-2.86-1.18585-12.746-2.8417-25.46907-3.46112-38.24245a365.30426,365.30426,0,0,1,4.11441-75.6298,20.0415,20.0415,0,0,0-2.77878-13.79365c-8.882-15.42044-17.644-30.91-26.46127-46.36777C411.12765,16.11921,406.67132,8.3553,401.889,0A19.09447,19.09447,0,0,0,400.709,2.11213Zm-252.96383,285.9a365.972,365.972,0,0,1-96.79465,55.98636,20.57056,20.57056,0,0,0-10.981,9.56243C27.21963,376.157,14.3249,398.6715,1.4889,421.21914.97445,422.1228.53739,423.07052,0,424.12371a6.87454,6.87454,0,0,0,1.46882.15207,445.51585,445.51585,0,0,0,57.2195-15.5108,33.28131,33.28131,0,0,0,12.92894-8.01563,360.2965,360.2965,0,0,0,54.19548-67.62518,274.50127,274.50127,0,0,0,23.16735-45.9448C148.56736,287.45559,148.13164,287.703,147.74518,288.01208Zm276.70208,53.30853.25216.1272A.46649.46649,0,0,0,424.44726,341.32061Zm37.668,74.03455c-11.64627-.31527-23.2933-.614-34.93711-1.007-54.84423-1.851-108.31566,5.69566-160.26764,23.4939A431.40131,431.40131,0,0,0,92.724,549.12411c-4.57021,4.7727-8.86737,9.80694-13.799,15.28349,2.08588.09185,3.34278.19524,4.59965.19549,25.30078.00458,50.60266-.1357,75.90144.08713a23.8376,23.8376,0,0,0,15.96545-5.67689c48.64563-39.01121,103.809-64.05955,164.97-75.63653q91.42284-17.30511,180.72866,9.55767c2.66482.79746,5.36637,1.47222,7.90052,2.16318,6.07273-8.66782,37.16852-64.03851,38.07919-67.88636A479.08347,479.08347,0,0,1,424.754,343.06839c11.93613,25.246,28.15914,47.85107,42.82228,72.15767C465.30812,415.28448,463.70958,415.39831,462.11528,415.35516Z"/>
    </g>
  </g>
</svg>
