<svg xmlns="http://www.w3.org/2000/svg" viewBox="0 0 401.58546 381.53346">
  <title>grimoire</title>
  <g id="Layer_2" data-name="Layer 2">
    <g id="Layer_1-2" data-name="Layer 1">
      <g>
        <path d="M394.68491,78.2634,266.041,3.98443C256.8404-1.328,241.92276-1.32823,232.722,3.98432L6.9005,134.37363c-9.20082,5.31255-9.20055,13.92605.00009,19.23849l128.64387,74.279c9.20063,5.31245,24.118,5.3124,33.31882-.00015L394.68473,97.50163C403.88545,92.18913,403.88554,83.57584,394.68491,78.2634ZM263.35966,68.99308a21.85549,21.85549,0,0,1,19.48678,0q3.96963,2.29206,3.96962,5.62586t-3.96989,5.6256L266.06593,89.9335a18.6576,18.6576,0,0,1-9.65276,2.24012,19.37838,19.37838,0,0,1-9.6532-2.34416q-3.96963-2.29206-4.05986-5.57376t3.87931-5.57371Zm52.32517,33.54635q-6.49527,1.8755-17.32142.41677a116.68447,116.68447,0,0,0-22.01277-.625A99.42636,99.42636,0,0,0,246.038,108.7904q-4.69122,1.667-13.35179,5.83424a33.16681,33.16681,0,0,1-14.34456,3.17746,27.082,27.082,0,0,1-13.98329-3.48994q-6.13507-3.54239-6.04458-8.07416t5.503-8.28254a96.84422,96.84422,0,0,0,10.10434-7.70933q9.56307-8.23035,11.1867-17.50253a23.07463,23.07463,0,0,0-1.08245-12.71017q-2.526-6.2508.72182-10.00139,4.511-5.72985,15.60719-6.82394,11.09671-1.094,18.85528,3.3859a13.92133,13.92133,0,0,1,3.60845,2.917,12.99937,12.99937,0,0,1,2.075,3.07342q.63181,1.4067,1.44354,3.438a26.10639,26.10639,0,0,0,1.53377,3.28175,6.7469,6.7469,0,0,1,.72146,1.04173L241.70753,75.869q-5.95431,3.438-5.86386,8.38669.09019,4.94862,6.04458,8.38674a28.56959,28.56959,0,0,0,14.705,3.49,29.296,29.296,0,0,0,14.70547-3.59423l26.52349-15.31466a8.47493,8.47493,0,0,0,1.80418.41657q2.16571.417,7.21743,1.04194a71.99767,71.99767,0,0,1,8.57049,1.51061,24.20541,24.20541,0,0,1,6.22485,2.44819q7.75862,4.47983,5.864,10.887T315.68483,102.53943Z"/>
        <path d="M394.68485,153.09236l-12.78849-7.384L168.86327,268.71363c-9.20081,5.31257-24.11821,5.31257-33.31877.00013l-115.85563-66.895L6.90064,209.20263c-9.20082,5.31257-9.20082,13.92583-.00013,19.2384L135.54437,302.72c9.20069,5.31257,24.11822,5.31257,33.3189,0L394.68485,172.33075C403.88566,167.01819,403.88566,158.40479,394.68485,153.09236Z"/>
        <path d="M394.68485,227.92129l-12.78823-7.3839L168.86327,343.5427c-9.20068,5.31256-24.11821,5.31256-33.3189,0L19.68887,276.64779,6.90064,284.0317c-9.20082,5.31256-9.20082,13.92583-.00013,19.23839L135.54437,377.549c9.20069,5.31257,24.11822,5.31257,33.3189,0L394.68485,247.15969C403.88566,241.84725,403.88566,233.23386,394.68485,227.92129Z"/>
      </g>
    </g>
  </g>
</svg>
