<svg xmlns="http://www.w3.org/2000/svg" viewBox="0 0 369.54991 369.67951">
  <title>past</title>
  <g id="Layer_2" data-name="Layer 2">
    <g id="Layer_1-2" data-name="Layer 1">
      <g>
        <path d="M201.93243,184.83975,253.045,99.5291,312.67614,0H74.15158l59.6323,99.5291,51.11141,85.31065-51.11141,85.31066-59.6323,99.5291H312.67614L253.045,270.15041ZM130.94436,52.13429H255.88452l-31.2359,52.13429-31.23476,52.13429-31.23475-52.13429Zm62.4695,236.0258H152.52427l20.4448-34.124,20.44479-34.124,20.446,34.124,20.44364,34.124Z"/>
        <path d="M71.16742,246.84179c1.88145-24.71045,18.54021-98.4987,73.54874-129.06465l-10.93228-18.248-2.22742-3.71776C38.40414,128.0464,25.50364,225.11377,23.81659,246.84179H0l47.26521,81.85266,47.26522-81.85266Z"/>
        <path d="M256.78359,93.29,253.045,99.5291l-5.97179,9.96726c114.88381,26.38881,122.4686,145.50125,122.4767,151.17971v-.00462C369.54991,259.22854,369.50131,127.325,256.78359,93.29Z"/>
      </g>
    </g>
  </g>
</svg>
