<svg xmlns="http://www.w3.org/2000/svg" viewBox="0 0 369.5 369.5">
	<path d="M184.8,137.9l-43.4,25v50.1l43.4,25l43.4-25V163L184.8,137.9z M184.8,212.7L160.1,188l24.7-24.7l24.7,24.7L184.8,212.7z" />
	<path d="M184.8,0C82.9,0,0,82.9,0,184.8s82.9,184.8,184.8,184.8s184.8-82.9,184.8-184.8S286.7,0,184.8,0z M341.1,184.8
				c0,24.7-5.9,49-17.2,70.9l-44.5-25.7V146l46.9-27.1C336.1,139.5,341.1,162,341.1,184.8z M184.8,28.4c51.4,0,99.5,25.3,128.6,67.7
				l-47,27.2l-81.6-49.6l-85.9,49.6L53.8,99.7C82.5,55.3,131.8,28.5,184.8,28.4z M246.7,149.8v76.5l-61.9,38.3l-66.3-38.3v-76.5
				l66.3-38.3L246.7,149.8z M41.3,122.8L85.7,146v84.1l-42,21.7C24.2,211.2,23.3,164.1,41.3,122.8L41.3,122.8z M184.8,341.1
				c-50.9,0-98.7-24.9-127.9-66.7l41.9-21.7l85.9,49.6l81.6-49.6L310,278C281.5,316.2,236,341.1,184.8,341.1z"/>
</svg>
