<svg xmlns="http://www.w3.org/2000/svg" viewBox="0 0 369.54991 369.54991">
  <title>playlists</title>
  <g id="Layer_2" data-name="Layer 2">
    <g id="Layer_1-2" data-name="Layer 1">
      <g>
        <path d="M180.40158,137.91385l-43.386,25.04721V213.0635l43.386,25.0472,43.386-25.0472V162.96106Zm0,74.76324-24.66581-24.66582,24.66581-24.66581,24.66582,24.66581Z"/>
        <path d="M184.775,0C82.88906,0,0,82.88906,0,184.775s82.88906,184.775,184.775,184.775,184.775-82.88906,184.775-184.775S286.66085,0,184.775,0ZM341.123,184.775a155.19156,155.19156,0,0,1-17.202,70.94877l-44.46083-25.66954v-84.0881l46.9027-27.07893A155.161,155.161,0,0,1,341.123,184.775ZM184.775,28.42692A156.23164,156.23164,0,0,1,313.38582,96.08338L266.339,123.24559l-85.9374-49.61578L94.46419,123.24559l-40.711-23.50474A156.248,156.248,0,0,1,184.775,28.42692Zm61.88491,121.33117v76.50838l-66.25829,38.25419-66.25829-38.25419V149.75809l66.25829-38.25419ZM41.28224,122.83665,81.343,145.96609v84.0881l-37.62,21.71952a154.97979,154.97979,0,0,1-2.4408-128.93706ZM184.775,341.123A156.1765,156.1765,0,0,1,56.90722,274.45844L94.461,252.77683l85.94059,49.61791,85.9406-49.61791,43.66218,25.20775C281.47494,316.21421,236.03715,341.123,184.775,341.123Z"/>
      </g>
    </g>
  </g>
</svg>
