<svg xmlns="http://www.w3.org/2000/svg" viewBox="0 0 407.45533 320">
  <title>rank-valor</title>
  <g id="Layer_2" data-name="Layer 2">
    <g id="Layer_1-2" data-name="Layer 1">
      <g>
        <polyline points="343.728 162.748 343.728 20.389 63.728 20.389 63.728 154.983" style="fill: none;stroke: #fff;stroke-miterlimit: 10;stroke-width: 4.459239959716797px"/>
        <polyline points="343.728 188.201 343.728 300.389 63.728 300.389 63.728 187.1" style="fill: none;stroke: #fff;stroke-miterlimit: 10;stroke-width: 4.459239959716797px"/>
        <polyline points="325.529 91.377 204.357 240.666 83.178 91.377 72.428 91.377 204.357 257.893 336.279 91.377 325.529 91.377" style="fill: #fff"/>
        <rect x="305.35663" y="32.93597" width="28.55103" height="9.51202" style="fill: #fff"/>
        <rect x="305.35663" y="48.69397" width="28.55103" height="9.51202" style="fill: #fff"/>
        <polygon points="231.388 173.291 204.357 204.76 177.318 173.291 164.83 173.291 204.357 219.744 243.877 173.291 231.388 173.291" style="fill: #fff"/>
        <path d="M195.48578,173.291l8.871,8.836,8.551-8.836Z" style="fill: #fff"/>
        <path d="M372.54462,152.299a10.46269,10.46269,0,0,0-9.63293,6.378c-21.13642-.21234-69.762-1.22742-69.762-6.07294V127.576h4.11707v-8.238H280.04071v8.238h5.05811V152.303H71.37665c-17.227,0-44.19885,10.44891-44.19885,10.44891S54.1496,173.197,71.37665,173.197H285.09882v24.7229h-5.05811V206.162h17.22608v-8.24207h-4.11707V172.897c0-4.84655,48.63056-5.861,69.7652-6.07306a10.44605,10.44605,0,1,0,9.6297-14.525Z" style="fill: #fff"/>
      </g>
    </g>
  </g>
</svg>
