<svg xmlns="http://www.w3.org/2000/svg" viewBox="0 0 407.45533 320">
  <title>rank-infamy-colour</title>
  <g id="Layer_2" data-name="Layer 2">
    <g id="Layer_1-2" data-name="Layer 1">
      <g>
        <polygon points="344.042 20.416 63.413 20.416 63.413 300.416 343.413 300.416 343.413 218.754 344.042 218.752 344.042 20.416" style="fill: #428a62"/>
        <g>
          <path d="M189.4134,83.96686c0-1.37263,0-1.37263,1.37263-2.74526,8.23574-1.3726,17.8441-4.11786,26.07985-4.11786A81.01095,81.01095,0,0,1,236.08262,79.849c16.47147,2.74526,31.57034,10.981,45.29658,21.962,20.58936,17.8441,28.82511,41.17872,32.943,67.25857,1.37263,10.981-1.3726,23.33461-4.11786,34.3156-5.49052,15.09887-13.72624,27.4525-23.33462,39.80611-2.74526,2.74525-5.49049,5.4905-8.23575,4.11788-4.11786-9.60837-8.23575-19.21674-12.35361-27.45249,6.86312-10.981,12.35361-21.962,12.35361-35.68821V169.06958a45.22362,45.22362,0,0,0-10.981-30.19773c-8.23575-9.60838-17.84413-16.4715-28.82511-23.33462-12.35364-6.86312-24.70725-13.72624-37.06086-21.962-4.11786-2.74526-8.23574-6.86312-12.35361-9.60838Z" style="fill: #fff"/>
          <path d="M282.7518,92.20263h0a41.09647,41.09647,0,0,1-10.981-5.49049,105.80261,105.80261,0,0,0-49.41447-16.4715c-5.49049-1.37263-12.35361,0-19.21673,1.37263A46.27325,46.27325,0,0,0,179.805,78.47639c-6.86312-6.86312-10.981-13.72624-9.60837-23.33462,2.74525-1.37263,4.11788-2.74525,6.86312-2.74525,12.35363-2.74526,23.33462-1.37263,35.68824-1.37263,5.49049,0,12.35361,1.37263,17.8441,2.74525a112.32634,112.32634,0,0,1,38.43346,19.21674c5.49049,5.49049,10.981,10.981,13.72624,19.21673Z" style="fill: #fff"/>
          <path d="M176.87764,151.76192c4.11786,8.23575,10.981,15.09887,20.58935,21.962,12.35362,8.23575,26.07986,16.47148,38.43348,26.07985,17.84411,12.35362,31.57035,27.45249,37.06084,49.41448,4.11788,12.35361,1.37262,24.70725-4.11787,35.68823-10.981,19.21673-28.82511,28.82508-49.41447,31.57034-13.72624,1.37263-27.45248,1.37263-41.17873-4.11786-19.3902-8.781-14.47241-5.91228-30.19774-4.11786-3.04949.348-12.65439-5.48276-15.09887-10.981a75.43467,75.43467,0,0,0-9.60838-12.35362c-2.74523-2.74523-8.377-7.68313-5.49049-12.35361,1.61363-2.61088,7.01023-2.74523,9.75549-4.11786-6.45323-9.04883-11.78083-11.98584-17.56948-13.89547,4.86656.11669,10.98864,3.46533,12.414,4.85518,0,0-1.91248-3.10208-10.33362-7.97433,0,0,11.18738,4.04975,13.25337,8.26171a21.31067,21.31067,0,0,0,6.20648,7.38028c16.4715,0,26.07986,9.60835,35.68824,19.21673h4.11786c10.981,5.4905,21.962,6.86312,32.943,6.86312,17.8441,1.37263,32.943-4.11786,39.80609-24.70722v-9.60838c-5.49049-13.72624-15.09885-21.962-26.07985-28.82511s-23.33462-15.09887-34.3156-21.962c-15.09884-9.60838-28.82509-20.58936-38.43346-35.68823-1.37261-2.74526-2.74524-6.86313-4.11787-9.60838-4.11788-6.86312-1.37263-15.09887-2.74525-21.962-1.37263-9.60837,2.74525-16.47149,6.86312-24.70724,0-2.74524,2.74523-4.11787,5.49049-4.11787,9.60835,6.86312,17.8441,13.72624,26.07985,20.58936v19.21673ZM148.13939,286.8988c-2.032-1.63051-3.11366-1.61113-5.33684-1.00755-1.76107.47812-1.56982-1.07576-4.77479-1.62334,3.84333,3.84336,8.04467,10.38362,9.96635,12.3053-.498-2.028-.78491-3.60581-.36074-4.5783C148.08686,290.9552,149.6382,288.10148,148.13939,286.8988Z" style="fill: #fff"/>
          <path d="M218.05629,236.86463c0,1.37262,0,1.37262-1.37263,2.74525-8.23574,1.37261-17.84411,4.11787-26.07986,4.11787a81.01078,81.01078,0,0,1-19.21673-2.74526c-16.47147-2.74526-31.57034-10.981-45.29658-21.962-20.58936-17.84411-28.82511-41.17873-32.943-67.25858-1.37262-10.981,1.37261-23.3346,4.11787-34.3156,5.49051-15.09887,13.72624-27.45249,23.33462-39.80611,2.74525-2.74524,5.49049-5.4905,8.23575-4.11787,4.11786,9.60836,8.23575,19.21673,12.35361,27.45248-6.86312,10.981-12.35361,21.962-12.35361,35.68822v15.09887a45.22363,45.22363,0,0,0,10.981,30.19773c8.23575,9.60838,17.84413,16.4715,28.82511,23.33462,12.35364,6.86312,24.70725,13.72624,37.06086,21.962,4.11786,2.74526,8.23574,6.86312,12.35361,9.60838Z" style="fill: #fff"/>
          <path d="M124.71788,228.62885h0a41.09682,41.09682,0,0,1,10.981,5.49049,105.80261,105.80261,0,0,0,49.41447,16.4715c5.49049,1.37263,12.35361,0,19.21673-1.37263a46.27325,46.27325,0,0,0,23.33461-6.86312c6.86312,6.86312,10.981,13.72624,9.60836,23.33462-2.74524,1.37263-4.11787,2.74526-6.86312,2.74526-12.35362,2.74526-23.33462,1.37263-35.68823,1.37263-5.49049,0-12.35361-1.37263-17.8441-2.74526a112.32605,112.32605,0,0,1-38.43346-19.21673c-5.4905-5.49049-10.981-10.981-13.72625-19.21673Z" style="fill: #fff"/>
          <path d="M230.80292,169.06956c-4.11786-8.23575-10.981-15.09887-20.58934-21.962-12.35363-8.23575-26.07987-16.47147-38.43348-26.07985-17.84412-12.35361-31.57036-27.45248-37.06085-49.41447-4.11787-12.35361-1.37261-24.70725,4.11788-35.68823,10.981-19.21674,28.82511-28.82509,49.41447-31.57035C201.97784,2.982,215.70408,2.982,229.43032,8.47253c19.3902,8.781,14.47242,5.91228,30.19774,4.11787,3.04949-.348,12.6544,5.48275,15.09887,10.981A75.43571,75.43571,0,0,0,284.33531,35.925c2.74523,2.74523,8.377,7.68313,5.49049,12.35361-1.61362,2.61088-7.01022,2.74523-9.75548,4.11786,6.45323,9.04884,11.78083,11.98585,17.56947,13.89547-4.86655-.11668-10.98863-3.46533-12.414-4.85517,0,0,1.91247,3.10207,10.33361,7.97432,0,0-11.18738-4.04974-13.25336-8.2617a21.31068,21.31068,0,0,0-6.20648-7.38028c-16.4715,0-26.07986-9.60836-35.68824-19.21674h-4.11786c-10.981-5.49049-21.962-6.86312-32.943-6.86312-17.84411-1.37263-32.943,4.11786-39.8061,24.70722v9.60838c5.49049,13.72624,15.09886,21.962,26.07985,28.82511s23.33462,15.09887,34.31561,21.962c15.09884,9.60838,28.82508,20.58936,38.43346,35.68823,1.3726,2.74526,2.74523,6.86314,4.11786,9.60838,4.11789,6.86312,1.37263,15.09887,2.74526,21.962,1.37263,9.60837-2.74526,16.47149-6.86312,24.70724,0,2.74525-2.74523,4.11788-5.49049,4.11788-9.60835-6.86312-17.8441-13.72625-26.07985-20.58937V169.06956ZM259.54117,33.93269c2.032,1.63051,3.11366,1.61112,5.33685,1.00754,1.76107-.47812,1.56982,1.07577,4.77479,1.62335-3.84333-3.84337-8.04468-10.38362-9.96636-12.30531.498,2.028.78491,3.60581.36075,4.5783C259.59371,29.87629,258.04237,32.73,259.54117,33.93269Z" style="fill: #fff"/>
        </g>
        <g>
          <path d="M118.62531,298.53141H65.61921V22.3H132.806q1.51776-2.06772,3.162-4H61.61921V302.53141h59.82153C120.50568,301.14182,119.58979,299.81437,118.62531,298.53141Z" style="fill: #fff"/>
          <path d="M286.24006,18.3c.93481,1.38952,1.85095,2.71716,2.81543,4h52.79468V298.53141H274.87434q-1.51758,2.06772-3.162,4h74.13782V18.3Z" style="fill: #fff"/>
        </g>
      </g>
    </g>
  </g>
</svg>
