<svg xmlns="http://www.w3.org/2000/svg" viewBox="0 0 407.45533 320">
  <title>rank-glory</title>
  <g id="Layer_2" data-name="Layer 2">
    <g id="Layer_1-2" data-name="Layer 1">
      <g>
        <polyline points="90.611 152.294 90.611 20.273 370.841 20.273 370.841 147.591" style="fill: none;stroke: #fff;stroke-miterlimit: 10;stroke-width: 6.7174601554870605px"/>
        <polyline points="370.841 177.481 370.841 300.504 90.611 300.504 90.611 177.481" style="fill: none;stroke: #fff;stroke-miterlimit: 10;stroke-width: 6.7174601554870605px"/>
        <polyline points="230.724 40.992 241.107 50.227 241.107 161.255 343.302 225.324 346.693 241.098 330.783 242.18 232.595 181.871 230.724 180.484 228.857 181.871 130.673 242.18 114.759 241.098 118.15 225.324 220.345 161.255 220.345 50.227 230.724 40.992" style="fill: #fff"/>
        <path d="M327.39165,245.01151l-96.668-58.675-95.414,58.675m184.85192,3.184-89.43792-54.289-87.988,54.10505m168.97608,2.09-80.9881-49.16-80.066,49.238m154.52307,2.875-74.45709-45.199-73.29694,45.07394m140.05505,3.637-66.75811-40.523-65.42194,40.23m79.9259-203.87094-.09,106.14093,95.31714,58.59308m-88.83612-160.097.054,97.687,87.62891,54.48511M257.52464,60.40247l.226,90.777,79.42993,50.098m-73.281-136.726.35907,83.148,72.422,46.34809M270.27464,67.6015l.519,75.973,62.75806,41.17206m-117.355-132.344.09,106.14093-95.31311,58.59308m88.83209-160.097-.055,97.687-87.628,54.48511m81.777-148.80908-.231,90.777-79.421,50.098m73.277-136.726-.36,83.148-72.421,46.34809m66.402-126.446-.51606,75.973-62.754,41.17206" style="fill: none;stroke: #fff;stroke-linecap: round;stroke-linejoin: round;stroke-width: 2.231489896774292px"/>
        <path d="M350.08256,38.53949h-36.531v36.535h36.531Zm-8.921,8.926v18.683h-18.688v-18.683h18.688" style="fill: #fff"/>
        <line x1="317.41154" y1="71.25049" x2="90.61064" y2="300.50449" style="fill: none;stroke: #fff;stroke-miterlimit: 10;stroke-width: 2.9753201007843018px"/>
        <path d="M385.37272,145.37557h-71.61V106.14052c0-8.718-7.691-13.074-7.691-13.074,3.95288,4.35595,4.0509,10.586,4.0509,10.586v41.41H273.17265v-9.652h-1.968v9.551h-48.161s-3.543-4.153-6.035-4.153-6.418,4.153-6.418,4.153h-41.793s-5.816-5.53894-8.582-5.53894c-2.769,0-8.301,5.121-8.301,5.121H31.79362c-8.855,1.66-18.265,7.75-18.265,7.75s9.41,6.09,18.265,7.74993h120.121s5.583,5.1211,8.352,5.1211c2.766,0,8.531-5.535,8.531-5.535h41.793s3.899,4.152,6.387,4.152c2.492,0,6.066-4.152,6.066-4.152h48.161v9.546h1.968v-9.652h36.95v41.41406s-.098,6.227-4.0509,10.586c0,0,7.691-4.35895,7.691-13.078v-39.23h71.61s9.12781,2.281,9.12781,6.433v-26.707C394.50053,143.09053,385.37272,145.37557,385.37272,145.37557Z" style="fill: #f6f6f7"/>
      </g>
    </g>
  </g>
</svg>
