<svg xmlns="http://www.w3.org/2000/svg" viewBox="0 0 407.45533 320">
  <title>rank-valor-colour</title>
  <g id="Layer_2" data-name="Layer 2">
    <g id="Layer_1-2" data-name="Layer 1">
      <g>
        <polygon points="344.357 21.389 64.357 21.389 64.357 188.103 63.728 188.1 63.728 301.389 343.728 301.389 343.728 219.727 344.357 219.725 344.357 21.389" style="fill: #2b2726"/>
        <polyline points="343.728 163.748 343.728 21.389 63.728 21.389 63.728 155.983" style="fill: none;stroke: #fff;stroke-miterlimit: 10;stroke-width: 4.459239959716797px"/>
        <polyline points="343.728 189.201 343.728 301.389 63.728 301.389 63.728 188.1" style="fill: none;stroke: #fff;stroke-miterlimit: 10;stroke-width: 4.459239959716797px"/>
        <polyline points="325.529 92.377 204.357 241.666 83.178 92.377 72.428 92.377 204.357 258.893 336.279 92.377 325.529 92.377" style="fill: #7c312c"/>
        <rect x="305.35663" y="33.93597" width="28.55103" height="9.51202" style="fill: #fff"/>
        <rect x="305.35663" y="49.69397" width="28.55103" height="9.51202" style="fill: #fff"/>
        <polygon points="231.388 174.291 204.357 205.76 177.318 174.291 164.83 174.291 204.357 220.744 243.877 174.291 231.388 174.291" style="fill: #7c312c"/>
        <path d="M195.48578,174.291l8.871,8.836,8.551-8.836Z" style="fill: #7c312c"/>
        <path d="M372.54462,153.299a10.46269,10.46269,0,0,0-9.63293,6.378c-21.13642-.21234-69.762-1.22742-69.762-6.07294V128.576h4.11707v-8.238H280.04071v8.238h5.05811V153.303H71.37665c-17.227,0-44.19885,10.44891-44.19885,10.44891S54.1496,174.197,71.37665,174.197H285.09882v24.7229h-5.05811V207.162h17.22608v-8.24207h-4.11707V173.897c0-4.84655,48.63056-5.861,69.7652-6.07306a10.44605,10.44605,0,1,0,9.6297-14.525Z" style="fill: #fff"/>
      </g>
    </g>
  </g>
</svg>
