<svg xmlns="http://www.w3.org/2000/svg" viewBox="0 0 369.54991 206.22466">
  <title>story</title>
  <g id="Layer_2" data-name="Layer 2">
    <g id="Layer_1-2" data-name="Layer 1">
      <g>
        <path d="M298.63939,177.88685H71.04237c-2.47088-8.66818-5.0335-17.42235-7.4528-26.22239-4.9991-17.95551-10.02115-35.8193-14.57881-53.9468A28.54685,28.54685,0,0,1,48.254,91.1036V90.915a30.255,30.255,0,0,1,.73152-6.63013l-.03784.20123-.04014.20066c1.8804-9.20707,4.58634-18.25362,7.4528-29.23791l20.4952,33.73826c-1.674,2.74033-3.285,5.2399-4.76406,7.83117-4.80993,8.35859-1.8288,17.47968,7.18335,21.03409,15.06038,5.95078,30.73419,4.97046,46.37362,3.24484a101.93714,101.93714,0,0,0,18.39752-3.92763l-.72291.19549-.72236.18918c16.43056-4.79271,24.11267-18.546,18.91865-34.97083-2.35622-7.45279-6.43808-14.3323-10.1358-22.39853L184.87528,0,217.8224,59.5192c-3.93851,10.44538-8.6567,19.1021-10.31926,28.33783-2.75753,14.9056,4.58634,25.5459,19.09063,29.75386a117.44976,117.44976,0,0,0,34.09542,4.94235q.20465,0,.40932-.00057h.0006a124.593,124.593,0,0,0,23.04233-2.13839l-.76935.12039-.751.11466c15.47889-2.69448,23.06927-14.76227,12.26273-28.14865a27.28413,27.28413,0,0,1-1.772-2.945l-.074-.15651-.07453-.16626c6.43806-10.64031,12.88186-21.40673,19.32-32.20182h1.674c1.71988,15.34131,11.59195,28.91686,5.859,46.087-7.53307,22.71958-13.04814,46.12709-19.43462,69.23078-.5389,1.846-1.14659,3.64613-1.75427,5.538Z"/>
        <path d="M298.67953,189.55908V206.024H71.3061V189.55908Z"/>
        <path d="M0,206.024V189.50747H36.93149V206.024Z"/>
        <path d="M369.54991,206.22466h-36.748V189.59918h36.748Z"/>
      </g>
    </g>
  </g>
</svg>
