<svg xmlns="http://www.w3.org/2000/svg" viewBox="0 0 307.74 307.74"><polygon points="132.67 306.37 139.41 300.71 139.48 297.36 136.17 296.85 129.42 302.51 132.73 303.03 132.67 306.37"/><polygon points="119.45 303.95 126.67 298.89 127.03 295.56 123.78 294.76 116.56 299.81 119.81 300.62 119.45 303.95"/><polygon points="106.51 300.38 114.14 295.97 114.78 292.69 111.61 291.6 103.98 296.01 107.15 297.09 106.51 300.38"/><polygon points="93.92 295.69 101.9 291.97 102.83 288.75 99.77 287.4 91.79 291.12 94.85 292.47 93.92 295.69"/><polygon points="81.78 289.93 90.06 286.91 91.27 283.79 88.34 282.17 80.06 285.19 82.99 286.8 81.78 289.93"/><polygon points="70.2 283.12 78.71 280.84 80.19 277.84 77.41 275.97 68.9 278.25 71.68 280.12 70.2 283.12"/><polygon points="59.25 275.34 67.93 273.81 69.66 270.94 67.05 268.84 58.38 270.37 60.98 272.48 59.25 275.34"/><polygon points="49.03 266.63 57.8 265.86 59.78 263.16 57.36 260.84 48.59 261.61 51 263.93 49.03 266.63"/><polygon points="39.6 257.06 48.41 257.06 50.61 254.54 48.41 252.02 39.6 252.02 41.8 254.54 39.6 257.06"/><polygon points="31.04 246.71 39.81 247.48 42.23 245.16 40.26 242.46 31.48 241.69 33.45 244.39 31.04 246.71"/><polygon points="23.41 235.65 32.09 237.18 34.7 235.08 32.97 232.22 24.29 230.69 26.02 233.55 23.41 235.65"/><polygon points="16.78 223.97 25.29 226.25 28.07 224.39 26.6 221.38 18.09 219.1 19.56 222.11 16.78 223.97"/><polygon points="11.2 211.76 19.47 214.77 22.41 213.16 21.2 210.03 12.92 207.02 14.13 210.14 11.2 211.76"/><polygon points="6.69 199.1 14.68 202.83 17.74 201.47 16.81 198.26 8.82 194.53 9.75 197.75 6.69 199.1"/><polygon points="3.31 186.1 10.94 190.51 14.11 189.43 13.46 186.14 5.83 181.74 6.48 185.02 3.31 186.1"/><polygon points="1.07 172.86 8.29 177.91 11.54 177.11 11.18 173.78 3.97 168.73 4.32 172.06 1.07 172.86"/><polygon points="0 159.47 6.75 165.13 10.06 164.62 9.99 161.27 3.24 155.61 3.31 158.95 0 159.47"/><polygon points="0.1 146.04 6.33 152.27 9.67 152.04 9.89 148.7 3.66 142.47 3.44 145.81 0.1 146.04"/><polygon points="1.36 132.67 7.03 139.41 10.38 139.48 10.89 136.17 5.23 129.42 4.71 132.73 1.36 132.67"/><polygon points="3.79 119.45 8.85 126.67 12.18 127.03 12.98 123.78 7.92 116.56 7.12 119.81 3.79 119.45"/><polygon points="7.36 106.51 11.77 114.14 15.05 114.78 16.14 111.61 11.73 103.98 10.65 107.15 7.36 106.51"/><polygon points="12.05 93.92 15.77 101.9 18.99 102.83 20.34 99.77 16.62 91.79 15.27 94.85 12.05 93.92"/><polygon points="17.81 81.78 20.83 90.06 23.95 91.27 25.57 88.34 22.55 80.06 20.94 82.99 17.81 81.78"/><polygon points="24.61 70.2 26.89 78.71 29.9 80.19 31.77 77.41 29.49 68.9 27.62 71.68 24.61 70.2"/><polygon points="32.4 59.25 33.93 67.93 36.79 69.66 38.9 67.05 37.37 58.38 35.27 60.98 32.4 59.25"/><polygon points="41.11 49.03 41.88 57.8 44.58 59.78 46.9 57.36 46.13 48.59 43.81 51 41.11 49.03"/><polygon points="50.67 39.6 50.67 48.41 53.2 50.61 55.72 48.41 55.72 39.6 53.2 41.8 50.67 39.6"/><polygon points="61.03 31.04 60.26 39.81 62.58 42.23 65.28 40.26 66.05 31.48 63.35 33.45 61.03 31.04"/><polygon points="72.08 23.41 70.56 32.09 72.66 34.7 75.52 32.97 77.05 24.29 74.19 26.02 72.08 23.41"/><polygon points="83.77 16.78 81.49 25.29 83.35 28.07 86.36 26.6 88.64 18.09 85.63 19.56 83.77 16.78"/><polygon points="95.98 11.2 92.97 19.47 94.58 22.41 97.71 21.2 100.72 12.92 97.6 14.13 95.98 11.2"/><polygon points="108.64 6.69 104.91 14.68 106.27 17.74 109.48 16.81 113.21 8.82 109.99 9.75 108.64 6.69"/><polygon points="121.64 3.31 117.23 10.94 118.31 14.11 121.6 13.46 126 5.83 122.72 6.48 121.64 3.31"/><polygon points="134.88 1.07 129.83 8.29 130.63 11.54 133.96 11.18 139.01 3.97 135.68 4.32 134.88 1.07"/><polygon points="148.27 0 142.61 6.75 143.12 10.06 146.47 9.99 152.13 3.24 148.78 3.31 148.27 0"/><polygon points="161.7 0.1 155.47 6.33 155.7 9.67 159.04 9.89 165.27 3.66 161.93 3.44 161.7 0.1"/><polygon points="175.07 1.36 168.32 7.03 168.26 10.38 171.57 10.89 178.31 5.23 175.01 4.71 175.07 1.36"/><polygon points="188.28 3.79 181.07 8.85 180.71 12.18 183.96 12.98 191.18 7.92 187.93 7.12 188.28 3.79"/><polygon points="201.23 7.36 193.6 11.77 192.96 15.05 196.13 16.14 203.75 11.73 200.59 10.65 201.23 7.36"/><polygon points="213.82 12.05 205.84 15.77 204.91 18.99 207.97 20.34 215.95 16.62 212.89 15.27 213.82 12.05"/><polygon points="225.95 17.81 217.68 20.83 216.47 23.95 219.4 25.57 227.68 22.55 224.75 20.94 225.95 17.81"/><polygon points="237.54 24.61 229.03 26.89 227.55 29.9 230.33 31.77 238.84 29.49 236.06 27.62 237.54 24.61"/><polygon points="248.49 32.4 239.81 33.93 238.08 36.79 240.69 38.9 249.36 37.37 246.75 35.27 248.49 32.4"/><polygon points="258.71 41.11 249.94 41.88 247.96 44.58 250.38 46.9 259.15 46.13 256.74 43.81 258.71 41.11"/><polygon points="268.14 50.67 259.33 50.67 257.13 53.2 259.33 55.72 268.14 55.72 265.94 53.2 268.14 50.67"/><polygon points="276.7 61.03 267.92 60.26 265.51 62.58 267.48 65.28 276.26 66.05 274.29 63.35 276.7 61.03"/><polygon points="284.32 72.08 275.65 70.56 273.04 72.66 274.77 75.52 283.45 77.05 281.72 74.19 284.32 72.08"/><polygon points="290.96 83.77 282.45 81.49 279.67 83.35 281.14 86.36 289.65 88.64 288.18 85.63 290.96 83.77"/><polygon points="296.54 95.98 288.27 92.97 285.33 94.58 286.54 97.71 294.82 100.72 293.61 97.6 296.54 95.98"/><polygon points="301.05 108.64 293.06 104.91 290 106.27 290.93 109.48 298.92 113.21 297.99 109.99 301.05 108.64"/><polygon points="304.43 121.64 296.8 117.23 293.63 118.31 294.28 121.6 301.91 126 301.26 122.72 304.43 121.64"/><polygon points="306.67 134.88 299.45 129.83 296.2 130.63 296.56 133.96 303.77 139.01 303.42 135.68 306.67 134.88"/><polygon points="307.74 148.27 300.99 142.61 297.68 143.12 297.75 146.47 304.5 152.13 304.43 148.78 307.74 148.27"/><polygon points="307.64 161.7 301.41 155.47 298.07 155.7 297.85 159.04 304.08 165.27 304.3 161.93 307.64 161.7"/><polygon points="306.37 175.07 300.71 168.32 297.36 168.26 296.85 171.57 302.51 178.31 303.03 175.01 306.37 175.07"/><polygon points="303.95 188.28 298.89 181.07 295.56 180.71 294.76 183.96 299.81 191.18 300.62 187.93 303.95 188.28"/><polygon points="300.38 201.23 295.97 193.6 292.69 192.96 291.6 196.13 296.01 203.75 297.09 200.59 300.38 201.23"/><polygon points="295.69 213.82 291.97 205.84 288.75 204.91 287.4 207.97 291.12 215.95 292.47 212.89 295.69 213.82"/><polygon points="289.93 225.95 286.91 217.68 283.79 216.47 282.17 219.4 285.19 227.68 286.8 224.75 289.93 225.95"/><polygon points="283.12 237.54 280.84 229.03 277.84 227.55 275.97 230.33 278.25 238.84 280.12 236.06 283.12 237.54"/><polygon points="275.34 248.49 273.81 239.81 270.94 238.08 268.84 240.69 270.37 249.36 272.48 246.75 275.34 248.49"/><polygon points="266.63 258.71 265.86 249.94 263.16 247.96 260.84 250.38 261.61 259.15 263.93 256.74 266.63 258.71"/><polygon points="257.06 268.14 257.06 259.33 254.54 257.13 252.02 259.33 252.02 268.14 254.54 265.94 257.06 268.14"/><polygon points="246.71 276.7 247.48 267.92 245.16 265.51 242.46 267.48 241.69 276.26 244.39 274.29 246.71 276.7"/><polygon points="235.65 284.32 237.18 275.65 235.08 273.04 232.22 274.77 230.69 283.45 233.55 281.72 235.65 284.32"/><polygon points="223.97 290.96 226.25 282.45 224.39 279.67 221.38 281.14 219.1 289.65 222.11 288.18 223.97 290.96"/><polygon points="211.76 296.54 214.77 288.27 213.16 285.33 210.03 286.54 207.02 294.82 210.14 293.61 211.76 296.54"/><polygon points="199.1 301.05 202.83 293.06 201.47 290 198.26 290.93 194.53 298.92 197.75 297.99 199.1 301.05"/><polygon points="186.1 304.43 190.51 296.8 189.43 293.63 186.14 294.28 181.74 301.91 185.02 301.26 186.1 304.43"/><polygon points="172.86 306.67 177.91 299.45 177.11 296.2 173.78 296.56 168.73 303.77 172.06 303.42 172.86 306.67"/><polygon points="159.47 307.74 165.13 300.99 164.62 297.68 161.27 297.75 155.61 304.5 158.95 304.43 159.47 307.74"/><polygon points="146.04 307.64 152.27 301.41 152.04 298.07 148.7 297.85 142.47 304.08 145.81 304.3 146.04 307.64"/><polygon points="139.4 273.01 134.99 267.74 135.38 265.16 138 265.21 142.42 270.48 139.81 270.43 139.4 273.01"/><polygon points="129.07 271.29 125.14 265.66 125.76 263.13 128.36 263.4 132.29 269.04 129.7 268.76 129.07 271.29"/><polygon points="118.93 268.69 115.5 262.74 116.34 260.26 118.9 260.77 122.34 266.71 119.78 266.21 118.93 268.69"/><polygon points="109.06 265.2 106.16 258.98 107.21 256.59 109.72 257.31 112.62 263.54 110.12 262.81 109.06 265.2"/><polygon points="99.53 260.87 97.18 254.42 98.44 252.13 100.88 253.07 103.22 259.53 100.79 258.58 99.53 260.87"/><polygon points="90.41 255.73 88.63 249.09 90.09 246.92 92.43 248.07 94.21 254.71 91.87 253.56 90.41 255.73"/><polygon points="81.78 249.81 80.58 243.05 82.22 241.01 84.46 242.36 85.65 249.12 83.41 247.77 81.78 249.81"/><polygon points="73.69 243.16 73.08 236.32 74.89 234.44 77.01 235.97 77.6 242.82 75.5 241.28 73.69 243.16"/><polygon points="66.21 235.83 66.21 228.96 68.18 227.25 70.14 228.96 70.14 235.83 68.18 234.12 66.21 235.83"/><polygon points="59.4 227.88 60 221.04 62.11 219.5 63.92 221.38 63.32 228.22 61.51 226.34 59.4 227.88"/><polygon points="53.3 219.37 54.51 212.6 56.74 211.25 58.38 213.28 57.18 220.04 55.54 218.02 53.3 219.37"/><polygon points="47.98 210.35 49.76 203.71 52.1 202.56 53.56 204.73 51.78 211.37 50.33 209.2 47.98 210.35"/><polygon points="43.46 200.9 45.82 194.45 48.25 193.51 49.51 195.79 47.16 202.25 45.9 199.97 43.46 200.9"/><polygon points="39.79 191.11 42.69 184.88 45.2 184.15 46.25 186.54 43.35 192.77 42.29 190.38 39.79 191.11"/><polygon points="36.97 181.02 40.41 175.07 42.97 174.56 43.81 177.04 40.38 182.99 39.54 180.51 36.97 181.02"/><polygon points="35.05 170.73 38.99 165.1 41.59 164.82 42.21 167.36 38.27 172.99 37.65 170.45 35.05 170.73"/><polygon points="34.04 160.31 38.45 155.05 41.06 154.99 41.46 157.57 37.05 162.84 36.64 160.26 34.04 160.31"/><polygon points="33.93 149.84 38.79 144.98 41.39 145.16 41.57 147.76 36.71 152.62 36.53 150.02 33.93 149.84"/><polygon points="34.74 139.4 40 134.99 42.58 135.38 42.53 138 37.27 142.42 37.31 139.81 34.74 139.4"/><polygon points="36.45 129.07 42.08 125.14 44.62 125.76 44.34 128.36 38.71 132.29 38.98 129.7 36.45 129.07"/><polygon points="39.06 118.93 45.01 115.5 47.49 116.34 46.98 118.9 41.03 122.34 41.53 119.78 39.06 118.93"/><polygon points="42.54 109.06 48.77 106.16 51.16 107.21 50.43 109.72 44.2 112.62 44.93 110.12 42.54 109.06"/><polygon points="46.87 99.53 53.33 97.18 55.61 98.44 54.67 100.88 48.22 103.22 49.16 100.79 46.87 99.53"/><polygon points="52.02 90.41 58.66 88.63 60.82 90.09 59.67 92.43 53.03 94.21 54.19 91.87 52.02 90.41"/><polygon points="57.93 81.78 64.7 80.58 66.74 82.22 65.39 84.46 58.62 85.65 59.97 83.41 57.93 81.78"/><polygon points="64.58 73.69 71.42 73.08 73.31 74.89 71.77 77.01 64.93 77.6 66.46 75.5 64.58 73.69"/><polygon points="71.91 66.21 78.78 66.21 80.5 68.18 78.78 70.14 71.91 70.14 73.63 68.18 71.91 66.21"/><polygon points="79.86 59.4 86.71 60 88.25 62.11 86.36 63.92 79.52 63.32 81.4 61.51 79.86 59.4"/><polygon points="88.38 53.3 95.14 54.51 96.49 56.74 94.47 58.38 87.69 57.18 89.73 55.54 88.38 53.3"/><polygon points="97.39 47.98 104.03 49.76 105.18 52.1 103.01 53.56 96.38 51.78 98.55 50.33 97.39 47.98"/><polygon points="106.84 43.46 113.29 45.82 114.23 48.25 111.94 49.51 105.49 47.16 107.78 45.9 106.84 43.46"/><polygon points="116.64 39.79 122.86 42.69 123.59 45.2 121.2 46.25 114.97 43.35 117.37 42.29 116.64 39.79"/><polygon points="126.73 36.97 132.67 40.41 133.18 42.97 130.7 43.81 124.75 40.38 127.22 39.54 126.73 36.97"/><polygon points="137.01 35.05 142.65 38.99 142.92 41.59 140.38 42.21 134.76 38.27 137.29 37.65 137.01 35.05"/><polygon points="147.44 34.04 152.7 38.45 152.75 41.06 150.17 41.46 144.91 37.05 147.49 36.64 147.44 34.04"/><polygon points="157.9 33.93 162.76 38.79 162.58 41.39 159.98 41.57 155.12 36.71 157.73 36.53 157.9 33.93"/><polygon points="168.34 34.74 172.76 40 172.36 42.58 169.74 42.53 165.33 37.27 167.94 37.31 168.34 34.74"/><polygon points="178.67 36.45 182.61 42.08 181.98 44.62 179.39 44.34 175.44 38.71 178.04 38.98 178.67 36.45"/><polygon points="188.81 39.06 192.25 45.01 191.4 47.49 188.84 46.98 185.41 41.03 187.96 41.53 188.81 39.06"/><polygon points="198.68 42.54 201.58 48.77 200.53 51.16 198.02 50.43 195.12 44.2 197.63 44.93 198.68 42.54"/><polygon points="208.21 46.87 210.57 53.33 209.31 55.61 206.87 54.67 204.51 48.22 206.96 49.16 208.21 46.87"/><polygon points="217.33 52.02 219.11 58.66 217.66 60.82 215.31 59.67 213.53 53.03 215.88 54.19 217.33 52.02"/><polygon points="225.97 57.93 227.17 64.7 225.52 66.74 223.29 65.39 222.1 58.62 224.33 59.97 225.97 57.93"/><polygon points="234.05 64.58 234.66 71.42 232.84 73.31 230.74 71.77 230.14 64.93 232.24 66.46 234.05 64.58"/><polygon points="241.53 71.91 241.53 78.78 239.57 80.5 237.6 78.78 237.6 71.91 239.57 73.63 241.53 71.91"/><polygon points="248.34 79.86 247.74 86.71 245.64 88.25 243.83 86.36 244.43 79.52 246.24 81.4 248.34 79.86"/><polygon points="254.44 88.38 253.24 95.14 251 96.49 249.37 94.47 250.56 87.69 252.2 89.73 254.44 88.38"/><polygon points="259.76 97.39 257.98 104.03 255.64 105.18 254.19 103.01 255.96 96.38 257.42 98.55 259.76 97.39"/><polygon points="264.28 106.84 261.93 113.29 259.5 114.23 258.23 111.94 260.58 105.49 261.85 107.78 264.28 106.84"/><polygon points="267.96 116.64 265.05 122.86 262.55 123.59 261.49 121.2 264.4 114.97 265.45 117.37 267.96 116.64"/><polygon points="270.77 126.73 267.34 132.67 264.77 133.18 263.93 130.7 267.36 124.75 268.21 127.22 270.77 126.73"/><polygon points="272.69 137.01 268.75 142.65 266.15 142.92 265.53 140.38 269.47 134.76 270.1 137.29 272.69 137.01"/><polygon points="273.71 147.44 269.29 152.7 266.68 152.75 266.28 150.17 270.7 144.91 271.1 147.49 273.71 147.44"/><polygon points="273.81 157.9 268.95 162.76 266.35 162.58 266.17 159.98 271.03 155.12 271.2 157.73 273.81 157.9"/><polygon points="273.01 168.34 267.74 172.76 265.16 172.36 265.21 169.74 270.48 165.33 270.43 167.94 273.01 168.34"/><polygon points="271.29 178.67 265.66 182.61 263.13 181.98 263.4 179.39 269.04 175.44 268.76 178.04 271.29 178.67"/><polygon points="268.69 188.81 262.74 192.25 260.26 191.4 260.77 188.84 266.71 185.41 266.21 187.96 268.69 188.81"/><polygon points="265.2 198.68 258.98 201.58 256.59 200.53 257.31 198.02 263.54 195.12 262.81 197.63 265.2 198.68"/><polygon points="260.87 208.21 254.42 210.57 252.13 209.31 253.07 206.87 259.53 204.51 258.58 206.96 260.87 208.21"/><polygon points="255.73 217.33 249.09 219.11 246.92 217.66 248.07 215.31 254.71 213.53 253.56 215.88 255.73 217.33"/><polygon points="249.81 225.97 243.05 227.17 241.01 225.52 242.36 223.29 249.12 222.1 247.77 224.33 249.81 225.97"/><polygon points="243.16 234.05 236.32 234.66 234.44 232.84 235.97 230.74 242.82 230.14 241.28 232.24 243.16 234.05"/><polygon points="235.83 241.53 228.96 241.53 227.25 239.57 228.96 237.6 235.83 237.6 234.12 239.57 235.83 241.53"/><polygon points="227.88 248.34 221.04 247.74 219.5 245.64 221.38 243.83 228.22 244.43 226.34 246.24 227.88 248.34"/><polygon points="219.37 254.44 212.6 253.24 211.25 251 213.28 249.37 220.04 250.56 218.02 252.2 219.37 254.44"/><polygon points="210.35 259.76 203.71 257.98 202.56 255.64 204.73 254.19 211.37 255.96 209.2 257.42 210.35 259.76"/><polygon points="200.9 264.28 194.45 261.93 193.51 259.5 195.79 258.23 202.25 260.58 199.97 261.85 200.9 264.28"/><polygon points="191.11 267.96 184.88 265.05 184.15 262.55 186.54 261.49 192.77 264.4 190.38 265.45 191.11 267.96"/><polygon points="181.02 270.77 175.07 267.34 174.56 264.77 177.04 263.93 182.99 267.36 180.51 268.21 181.02 270.77"/><polygon points="170.73 272.69 165.1 268.75 164.82 266.15 167.36 265.53 172.99 269.47 170.45 270.1 170.73 272.69"/><polygon points="160.31 273.71 155.05 269.29 154.99 266.68 157.57 266.28 162.84 270.7 160.26 271.1 160.31 273.71"/><polygon points="149.84 273.81 144.98 268.95 145.16 266.35 147.76 266.17 152.62 271.03 150.02 271.2 149.84 273.81"/></svg>