<svg xmlns="http://www.w3.org/2000/svg" viewBox="0 0 304.81 304.81">
  <path d="M297.68,140.54c2.39,2,4.87,4.16,7.13,6.41l-3.53.8-.58,3.57c-2.31-2.24-4.6-4.37-6.92-6.41l.41-3.43Z"/>
  <path d="M296.25,128.74c1.33.91,2.59,1.85,3.84,2.82s2.51,2,3.78,3l-3.43,1.08c-.06,1.21-.18,2.41-.33,3.61-2.36-2.05-5-4-7.44-5.82.07-1.15.21-2.32.2-3.47Z"/>
  <path d="M293.86,117.1c2.67,1.62,5.42,3.33,8.09,5.16l-3.36,1.36,0,3.63c-2.64-1.84-5.15-3.59-7.88-5.2l-.11-3.47Z"/>
  <path d="M290.5,105.7q2.13,1,4.28,2.14c1.41.75,2.79,1.53,4.19,2.34l-3.22,1.63.32,3.6q-4.19-2.41-8.3-4.53c-.09-1.15-.28-2.28-.42-3.43Z"/>
  <path d="M286.25,94.6c3,1.12,5.82,2.42,8.8,3.77L292,100.26c.25,1.17.37,2.39.55,3.58-2.8-1.41-5.75-2.67-8.63-3.84-.21-1.13-.39-2.28-.64-3.41Z"/>
  <path d="M281.09,83.89c3,.92,6.06,1.9,9.09,3l-2.92,2.14.86,3.53c-3-1.14-5.87-2.23-8.91-3.12l-.95-3.34Z"/>
  <path d="M275,73.65c1.55.32,3.11.67,4.68,1s3.07.81,4.63,1.24l-2.72,2.37,1.18,3.42c-3.1-.88-6.15-1.68-9.14-2.38-.39-1.09-.84-2.15-1.25-3.23Z"/>
  <path d="M268.22,63.92l2.38.3,2.33.37c1.57.26,3.15.55,4.74.85L275.16,68c.52,1.08,1,2.21,1.42,3.33-3.06-.69-6.25-1.18-9.31-1.62-.48-1-.92-2.14-1.46-3.15Z"/>
  <path d="M260.63,54.77c3.12.17,6.31.41,9.56.74l-2.32,2.78,1.68,3.23c-3.18-.4-6.25-.73-9.41-.87l-1.72-3Z"/>
  <path d="M252.29,46.29c3.13-.09,6.4-.17,9.58,0l-2.07,3,2,3c-3.22-.11-6.35-.16-9.44-.11l-2-2.83Z"/>
  <path d="M243.31,38.51c3.17-.43,6.3-.63,9.54-.81L251,40.81c.76.94,1.5,1.89,2.19,2.88-1.56,0-3.16.13-4.74.26s-3.14.26-4.68.41L242.73,43l-1.12-1.32Z"/>
  <path d="M233.74,31.45c3.08-.6,6.21-1.11,9.45-1.58l-1.56,3.24L244,35.85c-1.58.19-3.15.39-4.69.61s-3.12.53-4.65.81l-2.38-2.52Z"/>
  <path d="M223.6,25.24c1.51-.43,3-.85,4.6-1.25l2.35-.59,2.34-.51-1.3,3.37,2.64,2.49c-3.16.68-6.18,1.33-9.19,2.18l-2.61-2.28Z"/>
  <path d="M213,19.86c1.47-.56,3-1.14,4.49-1.64s3-1,4.58-1.45l-1,3.46c.95.76,1.93,1.44,2.83,2.25-3,.87-6.08,1.91-9,2.93-.9-.74-1.84-1.39-2.78-2.06Z"/>
  <path d="M202,15.34c2.84-1.36,5.75-2.58,8.78-3.82L210.06,15c1,.66,2,1.38,3,2.07-1.49.56-3,1.12-4.4,1.72s-2.9,1.28-4.31,1.93l-2.92-1.88Z"/>
  <path d="M190.66,11.78q2-1.17,4.16-2.33c1.41-.77,2.85-1.54,4.28-2.21l-.43,3.59,3.15,1.78c-2.89,1.42-5.65,2.77-8.38,4.34l-3.08-1.57Z"/>
  <path d="M179.07,9.15c1.29-.89,2.62-1.84,4-2.69s2.69-1.68,4.08-2.52L187,7.55c1.1.5,2.22.93,3.3,1.49-2.76,1.59-5.44,3.34-8,5-1.05-.49-2.13-.9-3.2-1.32Z"/>
  <path d="M167.31,7.44q3.63-3,7.58-5.84l.16,3.59,3.4,1.28c-1.31.91-2.59,1.83-3.85,2.74s-2.5,1.95-3.71,2.93l-3.3-1.1Z"/>
  <path d="M155.44,6.76c2.26-2.17,4.62-4.44,7.08-6.45L163,3.89l3.49.94C164,6.91,161.65,9,159.39,11.08L156,10.32Z"/>
  <path d="M143.55,7c1-1.22,2.1-2.38,3.19-3.52S149,1.15,150.09,0l.74,3.52,1.78.3,1.78.39c-2.29,2.13-4.47,4.54-6.55,6.81-1.14-.18-2.29-.43-3.43-.55Z"/>
  <path d="M131.72,8.18c1.88-2.49,3.86-5.06,6-7.51l1,3.47,3.6.4q-1.58,1.82-3.07,3.62L137.75,10l-1.43,1.89-3.46-.24Z"/>
  <path d="M120,10.35c.84-1.34,1.69-2.7,2.58-4s1.81-2.61,2.75-3.92l1.29,3.37c1.22,0,2.42,0,3.62.06-1.89,2.58-3.67,5.21-5.36,7.79-1.16,0-2.3,0-3.46.05Z"/>
  <path d="M108.55,13.43c1.44-2.8,3-5.54,4.66-8.36l1.56,3.23c1.21-.09,2.43-.11,3.63-.17-.84,1.36-1.66,2.68-2.44,4s-1.54,2.77-2.26,4.14l-3.47.28Z"/>
  <path d="M97.38,17.49c.61-1.45,1.24-2.9,1.89-4.37s1.33-2.95,2.06-4.36l1.83,3.12,3.59-.51c-1.44,2.89-2.81,5.64-4,8.54l-3.41.62Z"/>
  <path d="M86.57,22.45c.48-1.51,1-3.05,1.51-4.55s1.12-3,1.72-4.48l2.07,3c1.18-.27,2.34-.6,3.53-.82-1.22,2.95-2.29,6-3.3,8.86-1.14.24-2.23.59-3.34.9Z"/>
  <path d="M76.19,28.24c.7-3.09,1.57-6.12,2.48-9.26L81,21.74c1.14-.39,2.32-.7,3.47-1-.48,1.52-1,3-1.39,4.52s-.81,3.06-1.18,4.57L78.59,30.9Z"/>
  <path d="M66.33,34.88c.49-3.08,1-6.29,1.71-9.43L70.58,28l3.36-1.35c-.35,1.56-.68,3.11-1,4.64l-.44,2.29-.38,2.33L69,37.36Z"/>
  <path d="M57.05,42.31c.11-1.57.23-3.17.37-4.77s.36-3.16.57-4.76l2.73,2.36c1.08-.56,2.14-1.13,3.22-1.66-.44,3.18-.78,6.33-1,9.39-1,.53-2,1.13-3,1.69Z"/>
  <path d="M48.39,50.45c0-1.61,0-3.18,0-4.76s.09-3.2.16-4.82L51.46,43c1-.67,2.07-1.26,3.11-1.87-.26,3.13-.29,6.34-.3,9.44-1,.63-2,1.22-2.91,1.9Z"/>
  <path d="M40.41,59.26c-.28-3.11-.5-6.32-.62-9.57l3.08,1.9,3-2.12c.07,3.21.16,6.29.47,9.44L43.55,61Z"/>
  <path d="M33.2,68.72c-.55-3.1-1.08-6.31-1.39-9.48L35,60.87l2.73-2.38c.35,3.2.75,6.31,1.23,9.36l-2.52,2.37Z"/>
  <path d="M26.76,78.71c-.88-3.09-1.51-6.15-2.15-9.34l3.33,1.36,1.25-1.31,1.3-1.26.42,2.32.51,2.34c.34,1.54.7,3.07,1.07,4.57-.81.83-1.61,1.67-2.35,2.55Z"/>
  <path d="M21.13,89.18q-1.51-4.43-2.9-9.13l3.44,1.09L24,78.38c.41,1.54.84,3.06,1.27,4.55s1,3,1.47,4.49l-2.15,2.72Z"/>
  <path d="M16.44,100.1c-1.26-2.86-2.59-5.86-3.65-8.86l3.52.81,2.09-3c1.11,3,2.22,5.93,3.46,8.78L20,100.77Z"/>
  <path d="M12.63,111.36c-1.59-2.78-3-5.6-4.36-8.53l3.57.51c.6-1,1.17-2.11,1.84-3.12.62,1.44,1.33,2.88,2,4.3s1.42,2.8,2.14,4.17L17,110.2l-.79,1.54Z"/>
  <path d="M9.73,122.89Q7.16,119,4.68,114.75l3.6.21,1.62-3.25q1.17,2.08,2.34,4.11c.81,1.34,1.68,2.68,2.52,4L13.34,123Z"/>
  <path d="M7.85,134.63c-1.94-2.47-3.94-5-5.71-7.7l3.62-.09,1.29-3.38c1.81,2.66,3.62,5.21,5.49,7.67l-1.09,3.28Z"/>
  <path d="M6.88,146.48l-1.64-1.75-1.55-1.79c-1-1.2-2.08-2.42-3.11-3.68l3.58-.37.48-1.75.56-1.73c1.89,2.49,4.07,4.91,6.12,7.2-.29,1.12-.66,2.23-.89,3.36Z"/>
  <path d="M6.88,158.37C4.59,156.24,2.23,154,0,151.68L3.56,151l.76-3.54c1.1,1.16,2.19,2.3,3.29,3.41l1.65,1.66L11,154.16l-.59,3.42Z"/>
  <path d="M7.85,170.22c-1.25-1-2.54-2-3.76-3s-2.41-2.06-3.62-3.13l3.48-1c.15-1.2.25-2.4.43-3.59,2.37,2.14,4.81,4.18,7.2,6.12-.16,1.16-.22,2.3-.3,3.45Z"/>
  <path d="M9.73,182c-2.61-1.72-5.21-3.55-7.84-5.49l3.37-1.22.22-3.63c1.25,1,2.51,1.93,3.76,2.85s2.6,1.81,3.9,2.67l-.07,3.47Z"/>
  <path d="M12.63,193.48C9.9,192,7,190.4,4.35,188.66l3.29-1.5-.15-3.62c2.73,1.72,5.36,3.36,8.09,4.87l.27,3.45Z"/>
  <path d="M16.44,204.74c-3-1.24-5.76-2.64-8.64-4.13l3.14-1.76c-.16-1.2-.35-2.39-.43-3.6,1.36.77,2.8,1.49,4.22,2.18s2.84,1.37,4.25,2l.22,1.72.31,1.71Z"/>
  <path d="M21.13,215.67c-2.94-1-5.92-2.18-8.95-3.42l3-2-.69-3.57c1.46.64,2.92,1.25,4.36,1.84s3,1.12,4.42,1.65l.79,3.38Z"/>
  <path d="M26.76,226.14c-1.52-.39-3.06-.81-4.6-1.24l-2.33-.68-2.28-.74,2.82-2.26-1-3.48c3.06,1,6,2,9,2.76l1.11,3.28Z"/>
  <path d="M33.2,236.13c-1.55-.27-3.16-.52-4.71-.85s-3.11-.68-4.68-1.05l2.62-2.48c-.44-1.13-.93-2.22-1.3-3.38,3.06.8,6.22,1.42,9.23,2,.41,1.08.88,2.13,1.36,3.18Z"/>
  <path d="M40.41,245.58c-3.15-.26-6.28-.68-9.51-1.13l2.4-2.68c-.53-1.09-1-2.2-1.53-3.29,1.57.26,3.11.51,4.66.73s3.15.37,4.7.52l1.57,3.1Z"/>
  <path d="M48.39,254.4c-3.12-.05-6.39-.1-9.58-.36L41,251.17,39.18,248q2.4.19,4.74.33c1.56.09,3.11.16,4.69.16l1.86,2.93Z"/>
  <path d="M57.05,262.53c-1.57.13-3.16.23-4.78.32s-3.17.09-4.79.1l2-3c-.7-1-1.42-1.95-2.09-3,3.2,0,6.37-.12,9.45-.28.65,1,1.39,1.83,2.09,2.75Z"/>
  <path d="M66.33,270c-1.58.28-3.13.48-4.71.67s-3.17.37-4.79.52L58.52,268c-.81-.89-1.53-1.88-2.29-2.82,3.14-.19,6.31-.6,9.39-1,.76.86,1.48,1.78,2.28,2.61Z"/>
  <path d="M76.19,276.61c-3,.71-6.19,1.4-9.38,2l1.44-3.32-2.52-2.62c3.17-.53,6.2-1,9.27-1.8l2.5,2.4Z"/>
  <path d="M86.57,282.4c-1.49.5-3,1-4.55,1.46s-3.07.85-4.63,1.26l1.15-3.42-2.74-2.35q4.68-1.2,9.09-2.55L87.6,279Z"/>
  <path d="M97.38,287.35l-2.2.95-2.21.85c-1.49.57-3,1.12-4.52,1.66l.87-3.49c-1-.68-2-1.41-2.91-2.16,3-.94,6-2.15,8.85-3.3.95.67,1.87,1.38,2.85,2Z"/>
  <path d="M108.55,291.41c-2.77,1.43-5.65,2.84-8.62,4.2l.59-3.58-3.07-1.93c2.93-1.27,5.75-2.52,8.55-4l3,1.73Z"/>
  <path d="M120,294.49c-2.66,1.7-5.42,3.39-8.24,4.88l.29-3.6-3.24-1.62q4.25-2.29,8.2-4.68l3.15,1.42Z"/>
  <path d="M131.72,296.66c-1.26,1-2.54,1.92-3.84,2.82s-2.63,1.81-4,2.71v-3.6c-1.13-.4-2.24-.89-3.35-1.39,2.68-1.63,5.29-3.53,7.79-5.35,1.08.4,2.15.88,3.25,1.23Z"/>
  <path d="M143.55,297.86c-2.35,2.06-4.8,4.18-7.34,6.17l-.3-3.61-3.46-1.11c2.55-2,5-3.83,7.33-6l3.33.93Z"/>
  <path d="M155.44,298.08c-1.09,1.15-2.2,2.33-3.34,3.44s-2.3,2.19-3.48,3.29l-.6-3.56c-1.18-.26-2.36-.49-3.53-.78,2.38-2.16,4.65-4.37,6.82-6.56,1.13.28,2.27.45,3.41.65Z"/>
  <path d="M167.31,297.41q-3,3.6-6.26,7.24l-.88-3.49-3.58-.58q1.64-1.72,3.21-3.45c1-1.2,2.06-2.41,3-3.61l3.45.41Z"/>
  <path d="M179.07,295.69c-1.78,2.59-3.64,5.27-5.65,7.74L172.27,300l-3.62-.22c2-2.53,3.89-5,5.68-7.53l3.46.06Z"/>
  <path d="M190.66,293.06c-1.53,2.83-3.23,5.43-5,8.18l-1.43-3.31-1.81.07-1.82,0,1.33-2,1.27-2c.84-1.34,1.65-2.69,2.44-4,1.15,0,2.32-.05,3.46-.17Z"/>
  <path d="M202,289.51c-1.34,2.82-2.77,5.69-4.31,8.57l-1.7-3.2-3.62.33c1.57-2.79,3.05-5.5,4.37-8.38l3.44-.45Z"/>
  <path d="M213,285c-1.09,3-2.25,6-3.59,8.89l-2-3-3.55.68q2-4.41,3.67-8.7l3.36-.78Z"/>
  <path d="M223.6,279.61c-.8,3.11-1.81,6.05-2.85,9.14l-2.2-2.85-1.73.5-1.77.43c1.13-2.92,2-6,2.94-9,1.11-.32,2.23-.62,3.32-1Z"/>
  <path d="M233.74,273.4q-.92,4.59-2.09,9.35l-2.43-2.68-3.43,1.2c.85-3.08,1.61-6.09,2.2-9.19l3.23-1.27Z"/>
  <path d="M243.31,266.34c-.36,3.11-.73,6.37-1.33,9.49l-2.63-2.47-3.29,1.51c.56-3.17,1.06-6.25,1.44-9.33l3.08-1.57Z"/>
  <path d="M252.29,258.55c0,3.2-.27,6.34-.56,9.56l-2.82-2.24c-1,.61-2.07,1.23-3.16,1.77.19-1.56.31-3.16.41-4.74s.19-3.14.26-4.69l1.51-.86,1.46-.93Z"/>
  <path d="M260.63,250.08c.17,3.14.21,6.31.22,9.57l-3-2-3.05,2c0-1.59.07-3.16.07-4.72s-.09-3.17-.15-4.72l2.84-2Z"/>
  <path d="M268.22,240.93c.2,1.55.4,3.13.57,4.72s.35,3.22.43,4.81l-3.15-1.77-2.85,2.25c-.22-3.21-.42-6.28-.85-9.4l2.63-2.26Z"/>
  <path d="M275,231.2c.35,1.54.69,3.11,1,4.68s.53,3.14.78,4.73l-3.28-1.5c-.89.84-1.72,1.69-2.64,2.49-.44-3.16-1-6.29-1.62-9.31.87-.78,1.62-1.64,2.44-2.46Z"/>
  <path d="M281.09,221c1,3,1.73,6.07,2.52,9.24L280.23,229c-.77.92-1.65,1.77-2.46,2.66-.36-1.56-.68-3.07-1.09-4.6s-.84-3-1.28-4.54c.75-.88,1.53-1.74,2.27-2.63Z"/>
  <path d="M286.25,210.25c1.13,2.91,2.29,5.94,3.28,9l-3.49-.95-2.22,2.86c-.48-1.53-1-3-1.48-4.51l-.77-2.2-.85-2.21,2-2.82Z"/>
  <path d="M290.5,199.15q1.06,2.11,2.1,4.3c.67,1.45,1.28,2.91,1.91,4.4L291,207.2,289,210.25c-1.23-3-2.52-5.86-3.83-8.64.62-1,1.16-2,1.75-3Z"/>
  <path d="M293.86,187.75c1.69,2.7,3.16,5.46,4.7,8.34l-3.58-.36c-.51,1.09-1.15,2.13-1.73,3.19-1.37-2.83-2.95-5.62-4.53-8.29.52-1,1.08-2.06,1.56-3.1Z"/>
  <path d="M296.25,176.1c1.81,2.54,3.69,5.21,5.39,7.94L298,184l-1.45,3.32q-1.26-2-2.54-4l-1.28-1.95-1.37-1.93,1.26-3.23Z"/>
  <path d="M297.68,164.3c1,1.2,2.08,2.42,3.08,3.66s1.95,2.51,2.92,3.8l-3.6.23c-.38,1.15-.72,2.3-1.14,3.44-1.89-2.58-3.87-5.07-5.83-7.45.4-1.09.67-2.2,1-3.32Z"/>
  <path d="M298.2,152.42q3.29,3.33,6.57,7l-3.56.52-.93,3.51c-1-1.21-2.07-2.39-3.11-3.55s-2.2-2.29-3.29-3.4l.76-3.39Z"/>
  <path d="M264.27,161.69c1.84-1.59,3.76-3.25,5.5-5l-2.71-.63-.45-2.79c-1.79,1.75-3.55,3.42-5.35,5l.32,2.68Z"/>
  <path d="M263.14,170.89c2.06-1.41,3.91-2.93,5.89-4.52l-2.65-.85-.08-1.41-.15-1.41c-1.82,1.61-3.85,3.11-5.76,4.55.06.9.15,1.8.14,2.7Z"/>
  <path d="M261.26,180c2.07-1.27,4.17-2.6,6.26-4l-2.59-1.06,0-2.83c-2,1.43-4,2.8-6.1,4.05l-.09,2.7Z"/>
  <path d="M258.59,188.86c2.2-1.08,4.45-2.22,6.57-3.49l-2.48-1.27.26-2.82q-3.24,1.89-6.41,3.54l-.36,2.67Z"/>
  <path d="M255.23,197.5c2.34-.87,4.53-1.88,6.83-2.93l-2.36-1.48c.2-.92.34-1.85.47-2.79-2.17,1.11-4.5,2.07-6.7,3-.16.88-.31,1.78-.53,2.65Z"/>
  <path d="M251.17,205.84c2.31-.72,4.67-1.5,7.05-2.36L256,201.81l.67-2.75c-2.3.9-4.57,1.73-6.91,2.42l-.75,2.6Z"/>
  <path d="M246.39,213.79c2.37-.52,4.87-1,7.23-1.76l-2.09-1.85.93-2.67c-2.4.69-4.73,1.32-7.09,1.84l-1,2.51Z"/>
  <path d="M241,221.33c1.21-.15,2.46-.3,3.68-.5s2.43-.42,3.66-.66l-1.92-2c.38-.86.81-1.7,1.14-2.58-2.4.52-4.86.89-7.22,1.24-.36.84-.78,1.63-1.19,2.43Z"/>
  <path d="M235,228.41c2.46-.08,4.89-.31,7.41-.55l-1.74-2.16c.47-.81.88-1.67,1.33-2.5-1.23.15-2.43.3-3.65.41l-3.65.24c-.45.78-.89,1.57-1.36,2.35Z"/>
  <path d="M228.45,235c2.42.07,4.93.13,7.44.06l-1.58-2.3,1.54-2.37c-2.49.07-4.86.16-7.32,0L227,232.61Z"/>
  <path d="M221.37,241c2.43.3,4.93.56,7.4.67l-1.37-2.43,1.75-2.21c-2.5-.13-4.93-.31-7.31-.55l-1.75,2.05Z"/>
  <path d="M213.83,246.35c2.43.55,4.82.91,7.32,1.28L220,245.11c.66-.67,1.3-1.37,1.91-2.08-2.41-.26-4.89-.73-7.23-1.16-.62.66-1.24,1.32-1.9,1.92Z"/>
  <path d="M205.88,251.13c2.33.67,4.72,1.29,7.19,1.87l-1-2.61,2.06-1.94c-1.21-.25-2.4-.52-3.58-.8s-2.37-.62-3.53-1l-2,1.78Z"/>
  <path d="M197.54,255.19c1.13.44,2.29.86,3.46,1.29s2.37.82,3.55,1.18l-.74-2.69,2.23-1.73c-2.38-.74-4.67-1.47-6.94-2.33l-2.2,1.57Z"/>
  <path d="M188.9,258.55c1.1.54,2.22,1.1,3.35,1.6s2.27,1,3.43,1.44l-.51-2.73c.79-.52,1.61-1,2.37-1.53-2.3-.89-4.56-1.91-6.73-2.9-.75.5-1.54.93-2.32,1.38Z"/>
  <path d="M180,261.22c2.1,1.26,4.25,2.41,6.5,3.58l-.28-2.76c.84-.43,1.66-.91,2.48-1.36-1.11-.55-2.2-1.08-3.27-1.65s-2.15-1.2-3.2-1.8l-2.41,1.22Z"/>
  <path d="M170.93,263.1c2,1.38,4.07,2.85,6.19,4.13l-.05-2.8,2.59-1.13c-2.13-1.31-4.17-2.55-6.16-4l-2.51,1Z"/>
  <path d="M161.73,264.22c.93.8,1.89,1.62,2.86,2.38s1.95,1.5,3,2.24l.18-2.77c.9-.3,1.8-.55,2.68-.9-2-1.43-3.95-3-5.81-4.48-.85.31-1.72.53-2.59.77Z"/>
  <path d="M152.46,264.64q2.59,2.53,5.43,5.06l.4-2.74,2.74-.72q-1.41-1.2-2.76-2.4c-.91-.84-1.79-1.69-2.66-2.54l-2.64.59Z"/>
  <path d="M143.2,264.22c1.58,1.85,3.24,3.77,5,5.51l.63-2.71,2.79-.45c-1.75-1.79-3.42-3.55-5-5.35l-2.68.32Z"/>
  <path d="M134,263.1c1.42,2,2.94,3.91,4.53,5.89l.85-2.65,1.4-.08,1.41-.16c-1.6-1.81-3.11-3.84-4.54-5.75-.9.06-1.81.15-2.7.14Z"/>
  <path d="M124.91,261.22q1.89,3.11,4,6.26l1.07-2.59,2.83,0c-1.44-2-2.8-4-4.06-6.1l-2.7-.09Z"/>
  <path d="M116,258.55c1.07,2.2,2.22,4.44,3.48,6.57l1.28-2.48,2.81.26c-1.26-2.16-2.43-4.3-3.53-6.41l-2.68-.36Z"/>
  <path d="M107.39,255.19c.86,2.34,1.87,4.53,2.93,6.83l1.47-2.36c.92.19,1.85.34,2.79.47-1.1-2.17-2.06-4.5-3-6.7-.89-.16-1.78-.31-2.65-.54Z"/>
  <path d="M99.05,251.13c.71,2.31,1.49,4.67,2.35,7.05l1.67-2.23,2.75.67c-.9-2.3-1.72-4.57-2.42-6.91l-2.6-.75Z"/>
  <path d="M91.1,246.35c.52,2.37,1.05,4.87,1.76,7.23l1.85-2.09,2.66.93c-.68-2.4-1.32-4.73-1.84-7.09l-2.51-1Z"/>
  <path d="M83.56,241c.15,1.21.3,2.46.5,3.67s.42,2.44.66,3.67l2-1.92c.86.38,1.69.81,2.58,1.14-.52-2.4-.9-4.86-1.25-7.22-.83-.36-1.62-.78-2.42-1.19Z"/>
  <path d="M76.47,235c.09,2.46.31,4.89.56,7.41l2.15-1.74c.82.47,1.67.88,2.5,1.32-.15-1.22-.3-2.42-.4-3.64s-.18-2.45-.25-3.65c-.77-.45-1.57-.89-2.34-1.36Z"/>
  <path d="M69.91,228.41c-.07,2.42-.12,4.93-.06,7.44l2.31-1.58,2.37,1.54c-.07-2.49-.16-4.86,0-7.32l-2.21-1.56Z"/>
  <path d="M63.93,221.33c-.3,2.43-.56,4.93-.67,7.4l2.42-1.37,2.21,1.75c.13-2.5.32-4.93.55-7.31l-2-1.75Z"/>
  <path d="M58.53,213.79c-.55,2.43-.91,4.82-1.27,7.32l2.52-1.17c.66.66,1.36,1.3,2.08,1.91.26-2.41.72-4.89,1.16-7.23-.66-.62-1.32-1.24-1.93-1.9Z"/>
  <path d="M53.75,205.84c-.66,2.33-1.28,4.72-1.87,7.19l2.62-1,1.94,2.06c.25-1.21.52-2.4.79-3.58s.63-2.37,1-3.53l-1.77-2Z"/>
  <path d="M49.7,197.5c-.44,1.13-.87,2.29-1.29,3.46s-.83,2.37-1.18,3.55l2.69-.74L51.65,206c.74-2.38,1.46-4.67,2.32-6.94l-1.56-2.2Z"/>
  <path d="M46.33,188.86c-.54,1.1-1.09,2.22-1.59,3.35s-1,2.27-1.45,3.43l2.74-.51c.51.79,1,1.61,1.53,2.37.88-2.3,1.91-4.56,2.9-6.73-.5-.75-.93-1.54-1.38-2.32Z"/>
  <path d="M43.67,180c-1.26,2.1-2.41,4.25-3.59,6.5l2.76-.28c.43.84.92,1.66,1.37,2.48.54-1.11,1.08-2.2,1.65-3.27s1.19-2.15,1.8-3.2l-1.23-2.41Z"/>
  <path d="M41.79,170.89c-1.39,2-2.85,4.07-4.13,6.19l2.79-.05,1.13,2.59c1.31-2.13,2.55-4.17,4-6.16l-1-2.51Z"/>
  <path d="M40.66,161.69c-.79.93-1.62,1.89-2.37,2.86s-1.5,1.95-2.25,3l2.78.18c.3.9.55,1.8.89,2.68,1.44-2,3-4,4.48-5.81-.3-.85-.53-1.72-.77-2.59Z"/>
  <path d="M40.25,152.42q-2.53,2.6-5.07,5.43l2.74.4.73,2.74q1.2-1.41,2.4-2.76c.84-.91,1.69-1.79,2.53-2.66L43,152.93Z"/>
  <path d="M40.66,143.16c-1.85,1.58-3.77,3.24-5.51,5l2.72.63.45,2.78c1.78-1.74,3.54-3.41,5.34-5l-.31-2.68Z"/>
  <path d="M41.79,134c-2.06,1.41-3.92,2.94-5.89,4.53l2.64.85.09,1.4.15,1.41c1.82-1.6,3.85-3.11,5.75-4.54-.05-.9-.14-1.81-.14-2.7Z"/>
  <path d="M43.67,124.87c-2.07,1.26-4.17,2.6-6.26,4L40,130l0,2.83c2-1.44,4-2.8,6.1-4.06l.09-2.7Z"/>
  <path d="M46.33,116c-2.19,1.07-4.44,2.22-6.57,3.48l2.48,1.28L42,123.56c2.15-1.26,4.29-2.43,6.41-3.53l.35-2.68Z"/>
  <path d="M49.7,107.35c-2.34.86-4.53,1.87-6.83,2.93l2.35,1.47c-.19.92-.34,1.85-.46,2.79,2.16-1.11,4.49-2.06,6.69-3,.17-.89.32-1.78.54-2.65Z"/>
  <path d="M53.75,99q-3.47,1.06-7,2.35L48.94,103l-.68,2.75c2.31-.9,4.57-1.72,6.92-2.42l.75-2.6Z"/>
  <path d="M58.53,91.06c-2.36.52-4.86,1-7.22,1.76l2.09,1.85-.94,2.66c2.41-.68,4.73-1.32,7.09-1.84l1-2.51Z"/>
  <path d="M63.93,83.52c-1.21.15-2.46.3-3.68.5s-2.43.42-3.66.66l1.92,2c-.39.86-.81,1.69-1.15,2.58,2.4-.52,4.87-.9,7.22-1.25.36-.83.78-1.62,1.19-2.43Z"/>
  <path d="M69.91,76.43c-2.46.09-4.88.31-7.41.56l1.75,2.15c-.47.82-.89,1.67-1.33,2.5,1.23-.15,2.42-.3,3.65-.4S69,81.06,70.22,81c.45-.77.89-1.57,1.35-2.34Z"/>
  <path d="M76.47,69.87c-2.42-.07-4.93-.12-7.43-.06l1.57,2.31-1.54,2.37c2.5-.07,4.87-.16,7.33,0L78,72.23Z"/>
  <path d="M83.56,63.89c-2.43-.3-4.93-.56-7.41-.67l1.38,2.42-1.75,2.21c2.49.13,4.93.32,7.3.55l1.76-2Z"/>
  <path d="M91.1,58.49c-2.43-.55-4.83-.91-7.32-1.27l1.16,2.52c-.66.66-1.29,1.36-1.91,2.08,2.42.26,4.89.72,7.24,1.15.62-.65,1.24-1.31,1.9-1.92Z"/>
  <path d="M99.05,53.71q-3.49-1-7.19-1.87l1,2.62L90.75,56.4c1.21.25,2.41.51,3.58.79s2.38.63,3.54,1l2-1.77Z"/>
  <path d="M107.39,49.66c-1.14-.44-2.29-.87-3.47-1.29s-2.36-.83-3.55-1.18l.75,2.69-2.24,1.73c2.39.74,4.68,1.46,7,2.32l2.2-1.56Z"/>
  <path d="M116,46.29c-1.1-.54-2.23-1.09-3.36-1.59s-2.26-1-3.43-1.45l.52,2.74c-.8.51-1.61,1-2.37,1.53,2.29.88,4.56,1.91,6.73,2.9.75-.5,1.53-.93,2.31-1.38Z"/>
  <path d="M124.91,43.63c-2.1-1.26-4.26-2.41-6.51-3.59l.29,2.76c-.84.43-1.66.92-2.48,1.37,1.11.54,2.19,1.08,3.27,1.65s2.15,1.19,3.19,1.8l2.42-1.23Z"/>
  <path d="M134,41.75c-2-1.39-4.06-2.85-6.19-4.13l.06,2.79-2.59,1.13c2.13,1.31,4.16,2.55,6.15,4l2.52-1Z"/>
  <path d="M143.2,40.62c-.94-.79-1.89-1.62-2.86-2.37s-2-1.5-3-2.25l-.18,2.78c-.89.3-1.79.55-2.67.89,2,1.44,3.95,3,5.81,4.48.85-.3,1.71-.53,2.58-.77Z"/>
  <path d="M152.46,40.21q-2.6-2.53-5.42-5.07l-.41,2.74-2.74.73c.94.8,1.87,1.6,2.77,2.4s1.79,1.69,2.65,2.53L152,43Z"/>
  <path d="M161.73,40.62c-1.58-1.85-3.25-3.77-5-5.51l-.63,2.72-2.79.45c1.75,1.78,3.42,3.54,5,5.34L161,43.3Z"/>
  <path d="M170.93,41.75c-1.41-2.06-2.93-3.92-4.52-5.89l-.85,2.64-1.41.09-1.41.15c1.61,1.82,3.11,3.85,4.55,5.75.9-.05,1.8-.14,2.7-.14Z"/>
  <path d="M180,43.63c-1.27-2.07-2.6-4.17-4-6.26L174.93,40l-2.83,0c1.43,2,2.8,4,4.05,6.1l2.7.09Z"/>
  <path d="M188.9,46.29c-1.08-2.19-2.22-4.44-3.49-6.57l-1.27,2.48L181.33,42q1.88,3.22,3.53,6.41l2.67.35Z"/>
  <path d="M197.54,49.66c-.87-2.34-1.88-4.53-2.93-6.83l-1.48,2.35c-.92-.19-1.85-.34-2.79-.46,1.11,2.16,2.07,4.49,3,6.69.88.17,1.78.32,2.65.54Z"/>
  <path d="M205.88,53.71c-.72-2.31-1.5-4.66-2.36-7.05l-1.67,2.24-2.75-.68c.9,2.31,1.73,4.57,2.42,6.92l2.6.75Z"/>
  <path d="M213.83,58.49c-.52-2.36-1.05-4.86-1.76-7.22l-1.85,2.09-2.67-.94c.69,2.41,1.32,4.73,1.84,7.09l2.52,1Z"/>
  <path d="M221.37,63.89c-.15-1.21-.3-2.46-.5-3.68s-.42-2.43-.66-3.66l-2,1.92c-.86-.39-1.7-.81-2.58-1.15.52,2.4.89,4.87,1.24,7.22.84.36,1.63.78,2.43,1.19Z"/>
  <path d="M228.45,69.87c-.08-2.46-.31-4.88-.55-7.41l-2.16,1.75c-.81-.47-1.67-.89-2.5-1.33.15,1.23.3,2.42.41,3.65s.17,2.44.24,3.65c.78.45,1.57.89,2.35,1.35Z"/>
  <path d="M235,76.43c.07-2.42.13-4.93.06-7.43l-2.3,1.57L230.4,69c.07,2.5.16,4.87,0,7.33l2.21,1.56Z"/>
  <path d="M241,83.52c.3-2.43.56-4.93.67-7.41l-2.43,1.38L237,75.73c-.14,2.5-.32,4.94-.56,7.31l2.05,1.76Z"/>
  <path d="M246.39,91.06c.55-2.43.91-4.83,1.28-7.32l-2.52,1.16c-.67-.66-1.37-1.29-2.08-1.91-.26,2.42-.73,4.89-1.16,7.24.66.62,1.32,1.24,1.93,1.9Z"/>
  <path d="M251.17,99q1-3.49,1.87-7.19l-2.61,1-1.94-2.06c-.25,1.21-.52,2.41-.79,3.58s-.63,2.38-1,3.54l1.78,2Z"/>
  <path d="M255.23,107.35c.44-1.14.87-2.29,1.29-3.47s.82-2.36,1.18-3.55l-2.69.75-1.73-2.24c-.74,2.39-1.47,4.68-2.33,7l1.57,2.2Z"/>
  <path d="M258.59,116c.54-1.1,1.1-2.23,1.6-3.36s1-2.26,1.44-3.43l-2.73.52c-.52-.8-1-1.61-1.53-2.38-.89,2.3-1.91,4.57-2.9,6.74.5.75.93,1.53,1.38,2.31Z"/>
  <path d="M261.26,124.87c1.26-2.1,2.41-4.26,3.59-6.51l-2.76.28c-.44-.83-.92-1.65-1.37-2.47-.55,1.11-1.08,2.19-1.65,3.27s-1.2,2.15-1.8,3.19l1.22,2.42Z"/>
  <path d="M263.14,134c1.38-2,2.85-4.06,4.13-6.19l-2.8.06-1.13-2.59c-1.31,2.13-2.55,4.16-4,6.15l1,2.52Z"/>
  <path d="M264.27,143.16c.79-.94,1.61-1.89,2.37-2.86s1.5-2,2.24-3l-2.77-.18c-.3-.89-.55-1.79-.9-2.67-1.43,2-3,4-4.47,5.8.3.86.52,1.72.76,2.59Z"/>
  <path d="M264.68,152.42q2.54-2.59,5.06-5.42l-2.74-.41-.72-2.74c-.8.94-1.6,1.87-2.4,2.77s-1.69,1.79-2.54,2.65l.59,2.65Z"/>
</svg>