<svg xmlns="http://www.w3.org/2000/svg" viewBox="0 0 906.99799 1024.30298">
  <title>tracking</title>
  <g class="Layer_2" data-name="Layer 2">
    <g class="Layer_1-2" data-name="Layer 1">
      <g>
        <path class="tabard" d="M906.997,718.947V0H0V718.947l453.499,305.356L906.998,718.947Z" style="fill: #b5fc73"/>
        <g class="pulse">
          <path d="M816.298,474.86c0,200.368-162.431,362.799-362.799,362.799S90.7,675.22808,90.7,474.86,253.131,112.061,453.499,112.061,816.298,274.492,816.298,474.86Z" style="fill: none;stroke: #b5fc73;stroke-miterlimit: 10;stroke-width: 40px"/>
          <path d="M816.298,474.86c0,200.368-162.431,362.799-362.799,362.799S90.7,675.22808,90.7,474.86,253.131,112.061,453.499,112.061,816.298,274.492,816.298,474.86Z" style="fill: none;stroke: #b5fc73;stroke-miterlimit: 10;stroke-width: 40px"/>
        </g>
        <g class="table">
          <path class="round" d="M816.298,474.86c0,200.368-162.431,362.799-362.799,362.799S90.7,675.22808,90.7,474.86,253.131,112.061,453.499,112.061,816.298,274.492,816.298,474.86Z" style="fill: #62883e"/>
          <path class="grid" d="M303.91806,250.49,434.966,381.538l-74.823,74.823-131.048-131.048ZM472.17,568.396,603.004,699.23l74.823-74.823L546.993,493.573ZM677.90292,325.51811l-74.823-74.823-130.834,130.834,74.823,74.823ZM229.171,624.31108l74.823,74.823,130.834-130.834-74.823-74.823Z" style="fill: #b5fc73"/>
        </g>
      </g>
    </g>
  </g>
</svg>
