<svg xmlns="http://www.w3.org/2000/svg" viewBox="0 0 370.58554 246.84234">
  <title>trials-of-osiris-device</title>
  <g id="Layer_2" data-name="Layer 2">
    <g id="Layer_1-2" data-name="Layer 1">
      <g>
        <path d="M143.88169,236.02375a211.80152,211.80152,0,0,1-23.49444-17.78918l-2.50813-2.196c-4.64284-4.0609-9.44365-8.25992-13.96067-12.61922-3.48286-3.3613-6.84015-6.95061-10.08709-10.42178q-2.18063-2.33152-4.3761-4.64746c-.749-.78485-1.51636-1.55484-2.28354-2.32483a70.2729,70.2729,0,0,1-4.93369-5.30614c-4.35771-5.38725-9.47836-11.80489-14.41728-18.55746-4.37866-5.98649-9.32209-13.23136-12.78644-21.57458-3.52731-8.495-4.63821-16.56587-3.39614-24.67379a51.01713,51.01713,0,0,1,8.23848-20.89983c4.73114-7.02467,9.03514-13.34707,13.7999-19.58518,5.40759-7.0802,11.08946-13.76482,15.93424-19.36984,2.73613-3.16546,5.74435-6.16382,8.65356-9.06352q1.04043-1.037,2.077-2.07588c2.84709-2.86146,5.44766-5.34414,7.95044-7.59028q1.495-1.3417,2.98057-2.69728c3.53073-3.20785,7.18154-6.52507,11.02236-9.49614,6.66914-5.15876,13.64826-10.13094,20.39767-14.93917L145.042,8.52153a9.37875,9.37875,0,0,0,3.46861-4.37269,22.45106,22.45106,0,0,0-3.13087.8969Q142.12455,6.34249,138.855,7.609c-6.25991,2.44224-12.733,4.96755-18.91091,7.82267-9.23891,4.2699-18.181,8.85574-26.57806,13.63036A183.28716,183.28716,0,0,0,67.58849,46.4844q-2.32933,1.90695-4.67731,3.79636c-5.40406,4.36758-10.99227,8.88375-16.09294,13.71343-6.15078,5.824-11.88965,12.32057-17.4395,18.60326l-.77413.87619C23.271,89.50933,18.27856,95.74111,14.09842,101.04091c-3.07375,3.8977-5.91865,8.05579-8.569,11.98052-1.38652,2.05323-2.68547,4.23312-3.94154,6.34115-.52653.88375-1.05317,1.7675-1.58785,2.64589v1.14487l1.49382,2.33433c1.1897,1.86225,2.37939,3.72426,3.58748,5.57457A247.848,247.848,0,0,0,27.63621,161.1318l2.438,2.74186c3.56531,4.01632,7.25206,8.16954,11.06474,12.05262,3.59235,3.659,7.52013,7.1338,11.31856,10.49437l1.26935,1.12369,1.66616,1.483a118.141,118.141,0,0,0,9.53779,7.92693c9.60929,6.89532,17.64754,12.60167,26.30049,18.03837,7.35363,4.62018,15.18227,8.64479,22.75331,12.53688a175.66141,175.66141,0,0,0,29.91927,11.90257c1.60745.4806,3.22294.93441,4.96571,1.424l.19293.05432A19.02612,19.02612,0,0,0,143.88169,236.02375Z"/>
        <path d="M367.50083,116.84556l-2.0212-2.95475c-3.19079-4.67061-6.49022-9.5-9.92169-14.09781-2.06954-2.773-4.40156-5.44693-6.65672-8.03265-.89118-1.02186-1.78235-2.04348-2.66111-3.07435-1.3937-1.63474-2.7656-3.2914-4.1375-4.94806-3.21735-3.88551-6.54419-7.90306-10.10475-11.54327-5.514-5.63742-11.51332-11.00787-17.315-16.20171l-1.71609-1.53681c-3.62183-3.24633-7.393-6.30461-11.20858-9.08983-4.34067-3.16838-10.087-7.27873-16.0441-10.96962-7.14658-4.42823-14.514-8.71348-21.89746-12.73711-9.65118-5.25961-20.032-9.435-30.071-13.473q-2.28987-.92114-4.57756-1.84593a54.36084,54.36084,0,0,0-5.89063-1.87394q-.61878-.17173-1.24438-.34736a8.36777,8.36777,0,0,0,2.97692,4.07649q4.22331,3.13245,8.48512,6.21522c5.29614,3.85531,10.77243,7.84167,16.03338,11.93643,5.42963,4.22629,10.52153,8.84623,15.6932,13.60332,2.51288,2.31167,4.87656,4.8416,7.16242,7.28847.80324.85963,1.60636,1.71951,2.41666,2.57086q1.40382,1.47543,2.81993,2.94038c2.76938,2.87656,5.63315,5.8508,8.29791,8.92492,4.02035,4.638,8.26577,9.60794,12.09209,14.89021,5.07314,7.00371,9.79319,14.01645,14.029,20.84356A45.86259,45.86259,0,0,1,319.037,127.7309a51.767,51.767,0,0,1-4.43822,15.04172c-3.40382,7.56958-7.99514,14.32264-13.84156,22.13313l-1.38688,1.85617c-3.86639,5.17825-7.86445,10.53285-12.22581,15.44632-5.3702,6.05006-11.4188,12.32934-19.03527,19.76056-5.42,5.28787-11.20322,10.36527-16.79619,15.27582l-1.12977.9919c-3.95482,3.4736-7.89624,6.697-11.71488,9.5809-2.12412,1.60429-4.34469,3.13721-6.49194,4.6197-2.25346,1.55581-4.58377,3.16449-6.78558,4.84526a25.68856,25.68856,0,0,0-3.51794,3.5099l-.01461.01656c.22848-.0643.4577-.12642.68777-.18464a172.68682,172.68682,0,0,0,30.34921-11.16644c4.98849-2.309,10.15968-4.95487,15.36971-7.86432,5.99769-3.34937,11.71513-6.75915,16.99374-10.1341,7.88868-5.04355,18.13106-11.89673,27.39055-20.19147l1.44559-1.29445c5.574-4.98922,11.33768-10.14823,16.6711-15.533,5.36825-5.41989,10.83869-11.46557,16.25943-17.969,5.06-6.07077,9.72122-12.46478,13.61343-17.919,2.50448-3.50941,4.87937-7.2154,7.17618-10.79935.98581-1.538,1.97163-3.0763,2.97047-4.60508v-1.14706c-.29353-.49937-.58109-1.00311-.86852-1.50661C369.01876,119.271,368.29664,118.00579,367.50083,116.84556Z"/>
        <path d="M249.83631,204.87825a.8007.8007,0,0,0-.75342-.38,1.54418,1.54418,0,0,0-.203.01388,10.71626,10.71626,0,0,0-3.80038,1.3702,109.91487,109.91487,0,0,1-21.42612,9.37191,137.68354,137.68354,0,0,1-17.55411,4.27915,158.98808,158.98808,0,0,1-17.20566,2.02034c-1.00908.07308-2.08246.11035-3.19055.11035-2.75733,0-5.482-.22849-7.54778-.4275-6.14165-.59168-11.47227-1.26131-16.29646-2.04689-9.807-1.59771-19.77371-4.94368-31.36595-10.53018-2.30132-1.10931-4.50143-2.29731-6.83077-3.55521q-1.14512-.6186-2.3107-1.243a3.05712,3.05712,0,0,0-.07076,3.23,84.51183,84.51183,0,0,0,18.96682,21.72463,91.57334,91.57334,0,0,0,26.32179,14.72457,49.36744,49.36744,0,0,0,17.07778,3.30187c.92211,0,1.85251-.03215,2.76512-.09573.75391-.05237,1.51075-.0933,2.26807-.13446a47.18282,47.18282,0,0,0,6.71226-.68376,67.65573,67.65573,0,0,0,18.01475-6.46368,129.89016,129.89016,0,0,0,13.9441-8.5208,86.66639,86.66639,0,0,0,9.05573-7.66434l.51617-.47865a38.91185,38.91185,0,0,0,4.80811-5.46812c2.67585-3.6183,5.35193-7.45558,7.954-11.40541A1.04378,1.04378,0,0,0,249.83631,204.87825Z"/>
        <path d="M231.353,19.08728A87.37735,87.37735,0,0,0,214.72966,8.065C206.97081,4.14348,200.33419,1.81621,193.844.74076A54.67628,54.67628,0,0,0,176.9915.57122a63.599,63.599,0,0,0-15.59162,4.81871A88.55771,88.55771,0,0,0,136.60527,21.1366a74.1658,74.1658,0,0,0-14.92,18.18429c-.95159,1.67079-1.06473,2.46246-.28476,3.77785.23251-.11108.4649-.22338.69558-.33908,1.65641-.82991,3.30211-1.68419,4.94793-2.53846,3.63584-1.88734,7.39554-3.83874,11.22734-5.49272a113.717,113.717,0,0,1,22.11742-6.83272,129.59393,129.59393,0,0,1,21.26047-2.58547c1.14817-.04507,2.32763-.06821,3.50564-.06821a122.0169,122.0169,0,0,1,19.19323,1.68419,123.58773,123.58773,0,0,1,20.18782,4.98216,126.739,126.739,0,0,1,22.84868,10.30875,1.50316,1.50316,0,0,0,.7393.13787,4.30263,4.30263,0,0,0,1.3769-.246,2.93342,2.93342,0,0,0-.03971-1.3741A78.44508,78.44508,0,0,0,231.353,19.08728Z"/>
        <g>
          <path d="M217.36061,128.04367c1.652,2.67785,3.37012,2.85116,6.85766,2.13742,3.224-.65983,6.5046-1.15689,9.65937.16507,4.21388,1.76573,6.07659,5.41878,7.20173,9.56318.17046.62774.21948,1.28842.40271,2.41261-1.5526-1.17549-2.78854-2.08528-3.99666-3.03063-4.08762-3.19851-8.55159-3.79856-13.513-2.35816-3.29474.95654-6.77331,1.40318-10.10026.1777a10.95751,10.95751,0,0,1-4.14513-2.74779c-1.63986-1.78355-1.23162-4.27112,1.05421-6.436,1.37169-1.29908,1.34467-2.45945,1.04184-4.14737-.30791-1.71614.14671-3.55921.157-5.34733a6.29665,6.29665,0,0,0-.48122-2.06085c-.10369-.29246-.45334-.502-.70188-.73815-3.49638-3.32152-1.99976-6.35908,1.21686-8.33995a12.08563,12.08563,0,0,1,10.55673-.92566c5.74124,1.93954,10.69376.43234,15.46879-2.67548,1.021-.66448,2.08725-1.25934,3.17158-1.90961.36855,5.12514-4.35631,10.80023-9.43837,11.73365-3.76366.69126-7.379.02585-11.13715-.72985-.465,1.09278-.92127,2.165-1.53219,3.60076l34.19166,5.54861C241.43463,124.32832,229.14606,124.32247,217.36061,128.04367Z"/>
          <path d="M155.59287,117.26632v9.46043l3.734,2.868v3.61807c-1.25771.95752-2.5572,2.01585-3.92625,2.97489-2.91343,2.04089-6.1136,1.90852-9.40479,1.19162a60.53567,60.53567,0,0,0-6.60933-1.20039c-4.30589-.44565-7.91223,1.23521-11.06289,4.05422a7.78783,7.78783,0,0,1-.767.67923c-.40505.27521-.84442.49992-1.5535.911,1.24742-4.82114,2.71268-9.08653,7.514-11.13529,3.08014-1.31435,6.18908-1.14843,9.42392-.57183,2.38283.42475,4.96722.82366,7.0917-1.25061-10.51834-4.298-21.65227-4.9595-32.63488-6.36715l-.026-.56206c2.26295-.52544,4.50589-1.17011,6.79264-1.55365,6.53008-1.09526,13.08436-2.04619,19.61461-3.14058a42.16626,42.16626,0,0,0,5.17179-1.38107,4.71489,4.71489,0,0,0,1.18845-.82316c-1.48207-2.10291-3.01188-2.38172-6.18229-1.787-3.65767.68611-7.29141,1.04179-10.90379-.71129a10.82358,10.82358,0,0,1-5.60388-6.41672c-.477-1.29761-.82457-2.64279-1.23084-3.9664l.36441-.273c1.37135.89071,2.80468,1.7,4.10237,2.68749,3.801,2.89253,7.99063,3.24457,12.50729,2.27335,3.30112-.70983,6.65036-1.86776,10.0333-.54223a15.45514,15.45514,0,0,1,4.19234,2.39689c1.73664,1.44027,1.87526,4.99552-.08637,6.32108-.845.571-1.59293,1.28548-2.385,1.93477Z"/>
          <path d="M177.65048,162.98933c-7.12884,4.0917-8.43471,10.83243-8.68012,18.57843-.721-.854-1.14843-1.29839-1.5052-1.79368-1.50668-2.0916-2.96341-4.15638-3.35047-6.85971a10.59565,10.59565,0,0,1,2.21994-8.47053c2.019-2.51781,4.3467-4.78554,6.45686-7.23376,1.32056-1.53214,2.40117-3.2736,3.745-4.78266a9.06858,9.06858,0,0,1,8.57853-3.36877,8.56182,8.56182,0,0,1,6.5473,4.17781c2.40073,3.86131,5.67579,6.90232,8.78523,10.1227a11.50469,11.50469,0,0,1,3.25649,7.54207c.21992,3.49282-1.9554,7.12483-4.82907,10.31989-.13319-7.76327-1.9245-14.503-9.17053-18.44034-3.44873,9.68536-3.94156,20.054-6.192,29.62013C181.60956,182.85372,179.64928,173.01815,177.65048,162.98933Z"/>
          <path d="M168.935,62.12353c.39275,7.5741,1.34281,14.63216,9.07071,18.57144,3.29254-9.22709,3.781-19.0831,5.60124-28.72551,2.276,9.5318,2.68083,19.44922,6.10189,28.70429,6.7054-4.781,8.14285-5.72793,8.93091-18.7427,2.53223,2.86325,4.57049,5.68868,5.02105,9.40362.60863,5.01841-1.9097,8.30022-5.579,11.38474a41.99553,41.99553,0,0,0-6.72246,8.00741c-3.33353,4.68434-10.95929,6.29459-14.90114.20256a53.37782,53.37782,0,0,0-8.63041-10.0107,12.37352,12.37352,0,0,1-3.94971-8.32261c-.24451-3.06434,1.21036-5.637,3.02084-7.99738C167.5487,63.75148,168.25465,62.94733,168.935,62.12353Z"/>
          <path d="M152.66426,68.58284c1.14075,3,2.11724,5.60429,3.121,8.198,1.10187,2.8473,3.50682,4.23666,6.0862,5.47008a53.92547,53.92547,0,0,1,7.432,3.835c2.70425,1.86059,4.57841,4.44871,4.14183,8.06772-.27977,2.31913-1.84451,4.117-3.67312,4.21987-3.01447.16961-4.64628-.8612-5.20629-3.597a3.8544,3.8544,0,0,0-2.59414-3.26217A18.53913,18.53913,0,0,1,150.72,80.11757C149.22059,75.95947,150.69921,72.46764,152.66426,68.58284Z"/>
          <path d="M232.50466,159.51316c-2.32826-2.16677-4.51185-4.45849-6.9671-6.40815a13.52935,13.52935,0,0,0-8.03263-2.58428c-3.8385-.18737-7.892-.00429-11.06377-2.7339a10.54847,10.54847,0,0,1-2.967-3.97108,3.97856,3.97856,0,0,1,2.23-5.209,58.197,58.197,0,0,1,5.67749-1.738c1.26645,2.50717,2.33007,4.61282,3.30754,6.54791,3.00993.33349,5.9523.47527,8.818,1.02021,4.28966.81571,8.42444,5.00359,8.66257,9.57628.07625,1.46387.22886,2.9236.33021,4.38636C232.5301,158.83372,232.50466,159.27182,232.50466,159.51316Z"/>
          <path d="M204.91436,90.00014c-.33486,1.7533-.57954,3.245-.90983,4.71743-.586,2.6123-1.74144,3.76-4.29329,3.9608a5.37459,5.37459,0,0,1-4.96869-2.66889c-1.41694-2.04312-.539-5.06836,1.1531-7.51521,2.11349-3.05608,5.45614-4.48675,8.69173-5.79233a14.81617,14.81617,0,0,0,8.68645-8.83334c.62472-1.61272,1.20036-3.24443,1.80685-4.89054,2.11355,2.40269,3.36489,9.02936,1.00809,13.33744C213.5521,86.95236,208.92873,88.16042,204.91436,90.00014Z"/>
          <path d="M152.82727,104.39683l2.84784-3.37039c-2.19415-.451-4.20434-.89113-6.22562-1.27258-2.3092-.43579-4.728-.5303-6.9218-1.28723-4.255-1.4681-6.562-4.76408-7.15745-9.16129a16.28326,16.28326,0,0,1,.34729-5.40363c.55672.70805,1.10455,1.42332,1.67162,2.123,3.29718,4.068,7.22006,6.8184,12.76484,6.93117a31.52877,31.52877,0,0,1,8.42334,1.35886,7.95854,7.95854,0,0,1,5.64352,5.55037c.66132,2.31879-.95609,5.26934-3.29091,5.70331A13.9447,13.9447,0,0,1,152.82727,104.39683Z"/>
          <path d="M204.10228,152.59668c2.40939,1.28851,4.76657,2.58842,7.15864,3.82058,6.02224,3.10208,7.7417,10.67129,4.80788,16.303-.35847.68811-.67905,1.39594-1.17842,2.42775-.84157-2.24952-1.58145-4.17117-2.2803-6.10762a13.42737,13.42737,0,0,0-6.78555-7.60682c-2.64113-1.36068-5.29014-2.73146-7.80231-4.31a8.60375,8.60375,0,0,1-3.941-7.40772,4.74849,4.74849,0,0,1,4.9015-4.58272c2.2078.15464,4.68363,1.20454,4.70565,4.47464A22.11163,22.11163,0,0,0,204.10228,152.59668Z"/>
          <path d="M152.579,174.57786c-4.30709-6.54361-2.93474-14.40061,4.095-18.3538a22.32028,22.32028,0,0,1,3.68056-1.64329,6.152,6.152,0,0,0,4.14307-5.05634c.27145-1.31305.52993-2.62877.82432-4.0928a43.3632,43.3632,0,0,1,4.41553.02584c3.03337.31156,4.525,3.20031,3.49267,6.54029-1.26178,4.08244-4.32107,6.37812-8.07356,7.80211a18.69155,18.69155,0,0,0-10.621,10.3681C153.874,171.62473,153.23712,173.09264,152.579,174.57786Z"/>
          <path d="M232.22282,83.84094c1.49218,8.00506-2.99507,14.81278-10.61526,15.57-2.35437.234-4.70638.49174-7.1324.74627-1.274,2.57825-2.78221,4.94768-5.83579,5.84874-1.53324.45245-2.76337.50808-3.50775-1.17807a4.58414,4.58414,0,0,0-.45544-.70053c-2.69143-3.92476-1.29625-5.88768,1.48518-8.30267,2.11-1.832,4.8775-2.40287,7.68178-2.61189,2.52923-.18852,5.07185-.37721,7.56654-.80879,4.14392-.71687,7.04184-3.322,9.37588-6.66166C231.21467,85.1283,231.68837,84.5454,232.22282,83.84094Z"/>
          <path d="M152.749,143.33605c1.35922-2.11819,2.62844-4.09609,4.141-6.45324,1.81848.605,3.91211.89194,5.51815,1.93192,2.39593,1.55146,2.84664,4.28024.84275,6.92776a10.8452,10.8452,0,0,1-8.86851,4.50142c-2.43607.02725-4.86939.24394-7.30571.31677-3.57124.10677-5.91159,2.2275-7.95353,4.81376-1.16046,1.46982-2.22486,3.01547-3.44525,4.68077-1.857-8.74817,2.76538-15.47114,11.17214-16.01858C148.85473,143.90609,150.84582,143.56749,152.749,143.33605Z"/>
        </g>
      </g>
    </g>
  </g>
</svg>
