<svg xmlns="http://www.w3.org/2000/svg" viewBox="0 0 173.1921 139.40117">
  <title>european-dead-zone-3_monochrome</title>
  <g id="Layer_2" data-name="Layer 2">
    <g id="Echo_Mesa" data-name="Echo Mesa">
      <g style="opacity: 0.3">
        <g>
          <polygon points="79.047 68.57 126.218 21.4 78.046 21.4 78.046 0 43.351 34.695 29.145 20.489 29.145 68.57 79.047 68.57" style="fill: #fff"/>
          <polygon points="116.11 40.898 129.906 54.734 143.702 68.57 116.11 68.57 88.518 68.57 102.314 54.734 116.11 40.898" style="fill: #fff"/>
        </g>
        <g>
          <path d="M23.09454,102.42872A8.24656,8.24656,0,0,1,22.402,105.792a7.36592,7.36592,0,0,1-2.09606,2.72792,10.21367,10.21367,0,0,1-3.48157,1.81245,16.05033,16.05033,0,0,1-4.81036.65428,14.42769,14.42769,0,0,1-4.75363-.729,9.73546,9.73546,0,0,1-3.55676-2.11146,9.259,9.259,0,0,1-2.24578-3.36329,12.06629,12.06629,0,0,1-.786-4.48453h5.83A6.31706,6.31706,0,0,0,8.20794,104.596a5.40606,5.40606,0,0,0,3.84389,1.38286,6.6499,6.6499,0,0,0,3.86279-.95283,2.9809,2.9809,0,0,0,1.35011-2.56,3.364,3.364,0,0,0-.99043-2.41045,10.00111,10.00111,0,0,0-3.41957-1.99933l-5.23181-2.093A10.09324,10.09324,0,0,1,2.87676,92.469,8.5631,8.5631,0,0,1,1.382,87.5175a8.03577,8.03577,0,0,1,.724-3.47542,7.22957,7.22957,0,0,1,2.06067-2.59732,9.61452,9.61452,0,0,1,3.27469-1.64449,15.23872,15.23872,0,0,1,4.36713-.57909,14.31617,14.31617,0,0,1,4.0921.56062,9.42446,9.42446,0,0,1,3.32614,1.73771,8.7456,8.7456,0,0,1,2.317,2.97107,11.64091,11.64091,0,0,1,1.065,4.26029H16.81623a4.94464,4.94464,0,0,0-1.68164-3.43848A5.28945,5.28945,0,0,0,11.77108,84.229a7.32147,7.32147,0,0,0-1.663.18687,4.73835,4.73835,0,0,0-1.4574.59756,3.30735,3.30735,0,0,0-1.04649,1.028,2.62207,2.62207,0,0,0-.39244,1.4387,2.85611,2.85611,0,0,0,.91744,2.07409,9.66693,9.66693,0,0,0,3.16543,1.81245l4.94468,1.98087a11.91869,11.91869,0,0,1,5.263,3.66228A8.9077,8.9077,0,0,1,23.09454,102.42872Z" style="fill: #fff"/>
          <path d="M43.31209,110.23917H37.70654a2.35877,2.35877,0,0,1-.4485-1.45762,6.373,6.373,0,0,1-2.13014,1.42024,7.32951,7.32951,0,0,1-2.9148.56062,9.28688,9.28688,0,0,1-2.84048-.43,7.11978,7.11978,0,0,1-2.37308-1.2703A6.04767,6.04767,0,0,1,25.374,106.988a6.34293,6.34293,0,0,1-.598-2.80311,6.10463,6.10463,0,0,1,.97175-3.58754,7.2586,7.2586,0,0,1,2.52257-2.22358,14.32387,14.32387,0,0,1,3.49433-1.30811q1.94238-.467,3.92391-.87809,1.45761-.26118,1.4574-1.53237v-.37374a2.29234,2.29234,0,0,0-.69144-1.83093,2.7903,2.7903,0,0,0-1.8872-.598,2.69222,2.69222,0,0,0-2.27943.84072,3.86622,3.86622,0,0,0-.63537,2.37308H26.00933v-.52325a7.27007,7.27007,0,0,1,.41112-2.33571A5.93371,5.93371,0,0,1,27.8031,89.9838a7.37917,7.37917,0,0,1,2.57864-1.663,10.78561,10.78561,0,0,1,4.036-.65384q4.33492,0,6.35327,1.79355,2.0179,1.794,2.018,5.7179l-.03738,11.8843q0,.78487.07475,1.62558A3.70115,3.70115,0,0,0,43.31209,110.23917ZM32.77351,84.34108H28.66272v-5.1199h4.11079Zm4.335,17.30277V99.73773a2.578,2.578,0,0,1-.50742.299,3.01366,3.01366,0,0,1-.69539.22425l-1.12762.26162a12.49267,12.49267,0,0,0-2.04835.65384,4.413,4.413,0,0,0-1.27822.80378,2.49762,2.49762,0,0,0-.65736.99021,3.67863,3.67863,0,0,0-.18819,1.21446,2.08281,2.08281,0,0,0,.71408,1.663,2.66181,2.66181,0,0,0,1.80454.6169,4.53167,4.53167,0,0,0,1.67219-.3179,3.52836,3.52836,0,0,0,1.37231-.95284,3.37825,3.37825,0,0,0,.73277-1.34549A8.82378,8.82378,0,0,0,37.10854,101.64385Zm3.10189-17.30277H36.09964v-5.1199h4.11079Z" style="fill: #fff"/>
          <path d="M64.87492,108.33305q0,4.70923-2.321,6.80177-2.32131,2.09277-6.90972,2.093a14.02126,14.02126,0,0,1-3.90522-.48587,8.19476,8.19476,0,0,1-2.7842-1.3644,6.11814,6.11814,0,0,1-1.719-2.05517,6.34159,6.34159,0,0,1-.67275-2.56h6.12881a2.585,2.585,0,0,0,.897,1.45762,3.11518,3.11518,0,0,0,2.05539.59756,4.0553,4.0553,0,0,0,1.86852-.35484,2.35036,2.35036,0,0,0,1.00912-.99021,4.225,4.225,0,0,0,.42981-1.55084,20.34574,20.34574,0,0,0,.09344-2.0367v-.85962a6.12329,6.12329,0,0,1-4.67141,1.90567,8.21658,8.21658,0,0,1-3.92391-.85962,7.33183,7.33183,0,0,1-2.61624-2.3168,9.77348,9.77348,0,0,1-1.45739-3.38219,17.8273,17.8273,0,0,1-.44828-4.05451,16.29861,16.29861,0,0,1,.44828-3.73748,10.39488,10.39488,0,0,1,1.45695-3.41913,8.12878,8.12878,0,0,1,2.63405-2.4852,7.62816,7.62816,0,0,1,3.97953-.97175,6.48819,6.48819,0,0,1,2.80223.61647,5.81234,5.81234,0,0,1,2.13014,1.663V88.30237h5.49585ZM59.08249,98.24318a12.30152,12.30152,0,0,0-.16818-1.94349,6.23209,6.23209,0,0,0-.61669-1.90611,4.43815,4.43815,0,0,0-1.17708-1.43871,2.88142,2.88142,0,0,0-1.84983-.57909,2.68938,2.68938,0,0,0-1.794.598A4.41637,4.41637,0,0,0,52.337,94.46833a7.54864,7.54864,0,0,0-.61668,1.92458,10.40758,10.40758,0,0,0-.18687,1.85027,13.736,13.736,0,0,0,.1495,1.943,6.62092,6.62092,0,0,0,.57931,1.94349,4.303,4.303,0,0,0,1.15839,1.49455,2.81984,2.81984,0,0,0,1.85006.598,2.89554,2.89554,0,0,0,1.86829-.598,4.21531,4.21531,0,0,0,1.17731-1.49455,7.08243,7.08243,0,0,0,.598-1.94349A12.29181,12.29181,0,0,0,59.08249,98.24318Z" style="fill: #fff"/>
          <path d="M87.67112,99.55086q0,.374-.0189.80378c-.01276.28668-.01847.50434-.01847.65384H73.73165a7.51268,7.51268,0,0,0,.22425,1.70033,6.56528,6.56528,0,0,0,.7099,1.794,4.50221,4.50221,0,0,0,1.252,1.40133,3.4695,3.4695,0,0,0,4.26029-.37374,4.92458,4.92458,0,0,0,1.13971-2.20512h6.05427a9.23084,9.23084,0,0,1-1.13993,3.21423A8.53708,8.53708,0,0,1,84.12074,108.95a9.3867,9.3867,0,0,1-2.85895,1.51346,10.62711,10.62711,0,0,1-3.34461.52324,10.14011,10.14011,0,0,1-4.46606-.91546,8.85686,8.85686,0,0,1-3.12036-2.46673,10.33063,10.33063,0,0,1-1.83114-3.64383,16.10639,16.10639,0,0,1-.598-4.44715,17.28451,17.28451,0,0,1,.57909-4.48454,11.855,11.855,0,0,1,1.7753-3.84916,8.87058,8.87058,0,0,1,3.06452-2.69055,9.22928,9.22928,0,0,1,4.44716-1.00912,9.83182,9.83182,0,0,1,4.3724.91547,8.655,8.655,0,0,1,3.10167,2.52257,10.84038,10.84038,0,0,1,1.83137,3.8307A18.462,18.462,0,0,1,87.67112,99.55086Zm-6.05427-3.02692a9.47484,9.47484,0,0,0-.37375-1.58821,4.55615,4.55615,0,0,0-.7475-1.42024,4.08236,4.08236,0,0,0-1.15839-1.00912,3.05794,3.05794,0,0,0-1.56952-.39221,3.26563,3.26563,0,0,0-1.60712.39221,3.69779,3.69779,0,0,0-1.17709,1.00912,5.12539,5.12539,0,0,0-.74749,1.42024,6.74381,6.74381,0,0,0-.35484,1.58821Z" style="fill: #fff"/>
          <path d="M116.82037,88.33974l-5.8674,21.89943h-5.30678l-2.84-13.15461-2.80289,13.15461H94.6967L88.79193,88.33974h5.79265l2.72792,13.192,2.84026-13.192h5.34393l2.84049,13.41623,2.72792-13.41623Z" style="fill: #fff"/>
          <path d="M137.71046,99.55086q0,.374-.01869.80378-.01912.43-.01869.65384H123.771a7.51268,7.51268,0,0,0,.22425,1.70033,6.56528,6.56528,0,0,0,.7099,1.794,4.50484,4.50484,0,0,0,1.25206,1.40133,3.46949,3.46949,0,0,0,4.26028-.37374,4.92475,4.92475,0,0,0,1.13993-2.20512h6.05406a9.23124,9.23124,0,0,1-1.13993,3.21423,8.53369,8.53369,0,0,1-2.11146,2.41046,9.38392,9.38392,0,0,1-2.85895,1.51346,10.627,10.627,0,0,1-3.3446.52324,10.13916,10.13916,0,0,1-4.46585-.91546,8.85753,8.85753,0,0,1-3.12057-2.46673,10.33065,10.33065,0,0,1-1.83115-3.64383,16.1064,16.1064,0,0,1-.59777-4.44715,17.28451,17.28451,0,0,1,.57909-4.48454,11.85461,11.85461,0,0,1,1.77508-3.84916,8.87244,8.87244,0,0,1,3.06451-2.69055,9.22988,9.22988,0,0,1,4.44716-1.00912,9.83221,9.83221,0,0,1,4.37263.91547,8.65879,8.65879,0,0,1,3.10167,2.52257,10.84022,10.84022,0,0,1,1.83114,3.8307A18.462,18.462,0,0,1,137.71046,99.55086Zm-6.05406-3.02692a9.49546,9.49546,0,0,0-.37375-1.58821,4.55634,4.55634,0,0,0-.74749-1.42024,4.08313,4.08313,0,0,0-1.15862-1.00912,3.05792,3.05792,0,0,0-1.56952-.39221,3.26481,3.26481,0,0,0-1.6069.39221,3.69538,3.69538,0,0,0-1.17708,1.00912,5.11984,5.11984,0,0,0-.7475,1.42024,6.74549,6.74549,0,0,0-.35506,1.58821Z" style="fill: #fff"/>
          <path d="M151.91134,92.6a3.25446,3.25446,0,0,0-.85962-.11212,3.98886,3.98886,0,0,0-2.3544.63537A4.14794,4.14794,0,0,0,147.33314,94.73a7.33892,7.33892,0,0,0-.63515,2.18621,17.04474,17.04474,0,0,0-.16818,2.3357v10.98731h-5.83V88.33974h5.49365v2.42893a5.73889,5.73889,0,0,1,1.99933-2.22358,5.12289,5.12289,0,0,1,2.859-.84072h.44849a2.12459,2.12459,0,0,1,.41113.03738Z" style="fill: #fff"/>
          <path d="M172.57739,110.23917h-6.57752l-5.45628-9.08119-.93415,1.12124v7.96h-5.82981V79.96823h5.82981V95.51482l5.71768-7.17508h6.39065l-7.10055,8.81957Z" style="fill: #fff"/>
        </g>
        <g>
          <path d="M14.80723,120.15448H8.827v18.672H5.95424v-18.672H0v-2.48125H14.80723Z" style="fill: #fff"/>
          <path d="M29.58807,125.74311a2.48154,2.48154,0,0,0-.65273-.07871,3.52807,3.52807,0,0,0-1.94547.49642,3.59743,3.59743,0,0,0-1.21446,1.29273,5.79421,5.79421,0,0,0-.62658,1.77552,10.55719,10.55719,0,0,0-.18292,1.94569v7.65172H22.35452V123.523h2.4808v2.66373a5.07017,5.07017,0,0,1,1.619-2.337,4.05445,4.05445,0,0,1,2.53313-.79674c.08706,0,.18687.0044.30032.01319a1.03645,1.03645,0,0,1,.30031.06508Z" style="fill: #fff"/>
          <path d="M53.01283,131.14882a12.19837,12.19837,0,0,1-.41794,3.27711,7.20865,7.20865,0,0,1-1.29273,2.59864,6.097,6.097,0,0,1-2.20665,1.72364,7.36321,7.36321,0,0,1-3.15993.62658,7.52682,7.52682,0,0,1-3.14673-.61339,5.99621,5.99621,0,0,1-2.21984-1.69769,7.22978,7.22978,0,0,1-1.3057-2.58546,12.82769,12.82769,0,0,1,0-6.59379,7.36068,7.36068,0,0,1,1.3057-2.6114,6.06262,6.06262,0,0,1,2.21984-1.72363,7.44342,7.44342,0,0,1,3.1729-.627,7.11506,7.11506,0,0,1,3.15992.653,6.16609,6.16609,0,0,1,2.19346,1.76277,7.47152,7.47152,0,0,1,1.27976,2.6114A11.89876,11.89876,0,0,1,53.01283,131.14882Zm-2.742-.02638a10.25638,10.25638,0,0,0-.22205-2.0499,7.39516,7.39516,0,0,0-.71826-2.01076,4.43648,4.43648,0,0,0-1.33186-1.528,3.77438,3.77438,0,0,0-4.12617.02638,4.81661,4.81661,0,0,0-1.34484,1.55391,7.11128,7.11128,0,0,0-.73122,2.01076,9.99589,9.99589,0,0,0-.222,1.99758,10.92153,10.92153,0,0,0,.20886,2.03714,6.82929,6.82929,0,0,0,.71825,2.024,4.8167,4.8167,0,0,0,1.34483,1.55391,3.79651,3.79651,0,0,0,4.1785,0,4.643,4.643,0,0,0,1.33187-1.56711,7.26562,7.26562,0,0,0,.70506-2.024A10.732,10.732,0,0,0,50.27084,131.12244Z" style="fill: #fff"/>
          <path d="M74.89686,134.93554a3.81772,3.81772,0,0,1-.41794,1.77553,4.19343,4.19343,0,0,1-1.20149,1.41012,5.94812,5.94812,0,0,1-1.88017.94053,8.29626,8.29626,0,0,1-2.45486.33945,7.08116,7.08116,0,0,1-4.25655-1.17533,4.59723,4.59723,0,0,1-1.90633-3.212h2.76793a2.65868,2.65868,0,0,0,1.03154,1.8019,3.75625,3.75625,0,0,0,2.36341.67891,4.03585,4.03585,0,0,0,2.29833-.61383,1.99553,1.99553,0,0,0,.91392-1.76277,2.266,2.266,0,0,0-.30031-1.214,2.81046,2.81046,0,0,0-.75739-.80993,4.77363,4.77363,0,0,0-1.01836-.54831q-.56193-.22161-1.08387-.40453-.44454-.157-.83565-.30032-.39178-.14378-.86182-.30032a9.24307,9.24307,0,0,1-1.606-.70528,5.93735,5.93735,0,0,1-1.30592-.97922,4.225,4.225,0,0,1-.87456-1.25359,3.82115,3.82115,0,0,1,.0521-3.147,3.60272,3.60272,0,0,1,1.08365-1.30548,5.64558,5.64558,0,0,1,1.776-.875,8.19051,8.19051,0,0,1,2.41573-.32626,6.94877,6.94877,0,0,1,2.324.3522,5.8445,5.8445,0,0,1,1.69748.91415,4.447,4.447,0,0,1,1.123,1.30592,5.81655,5.81655,0,0,1,.60063,1.52753h-2.742a2.63773,2.63773,0,0,0-.94008-1.56667,3.096,3.096,0,0,0-2.03715-.627,3.42985,3.42985,0,0,0-2.15454.60063,1.79992,1.79992,0,0,0-.77036,1.46245,1.74151,1.74151,0,0,0,.875,1.51478,10.40842,10.40842,0,0,0,2.18048,1.04474l1.80191.62657a7.38019,7.38019,0,0,1,3.13376,1.90656A4.3276,4.3276,0,0,1,74.89686,134.93554Z" style="fill: #fff"/>
          <path d="M91.19205,138.82648a6.23128,6.23128,0,0,1-.83566.14378,7.95032,7.95032,0,0,1-.888.06508,3.3885,3.3885,0,0,1-2.71583-.97922,5.00679,5.00679,0,0,1-.83587-3.25117v-9.27114H83.88v-1.98438h2.03671v-3.369l2.61161-1.01835v4.38736h2.66373v1.98438H88.52832v8.64412a7.37475,7.37475,0,0,0,.09124,1.2536,1.6897,1.6897,0,0,0,.37881.84863,1.53705,1.53705,0,0,0,.80971.45729,4.29268,4.29268,0,0,0,1.384.05188Z" style="fill: #fff"/>
          <path d="M104.22331,138.82648h-2.61139a2.69532,2.69532,0,0,1-.30032-.86182,6.36241,6.36241,0,0,1-.09146-1.149V117.67323h2.6114v19.06422a7.00908,7.00908,0,0,0,.09146,1.20127A2.71458,2.71458,0,0,0,104.22331,138.82648Z" style="fill: #fff"/>
          <path d="M126.8909,138.82648h-2.58546a2.78678,2.78678,0,0,1-.28734-.86182,6.04447,6.04447,0,0,1-.07827-.99241,4.91538,4.91538,0,0,1-2.16752,1.76277,7.68461,7.68461,0,0,1-2.742.45685,5.7143,5.7143,0,0,1-1.86742-.30032,4.568,4.568,0,0,1-1.51456-.84862,4.05115,4.05115,0,0,1-1.01857-1.33186,3.96878,3.96878,0,0,1-.37858-1.74958,4.7658,4.7658,0,0,1,.58744-2.3766A4.1638,4.1638,0,0,1,116.5493,130.94a10.85023,10.85023,0,0,1,1.25337-.57469,11.08741,11.08741,0,0,1,1.6977-.496q.67867-.157,1.25337-.27437.57414-.1174,1.17511-.248.60086-.157.99241-.26118a1.60568,1.60568,0,0,0,.61382-.28757.98417.98417,0,0,0,.31329-.45685,2.43329,2.43329,0,0,0,.09146-.74441v-.26075a2.2241,2.2241,0,0,0-.24821-1.09706,1.89213,1.89213,0,0,0-.6789-.70528,2.94414,2.94414,0,0,0-.97922-.3654,6.296,6.296,0,0,0-1.17533-.10465,4.44277,4.44277,0,0,0-2.03693.405,2.10382,2.10382,0,0,0-.99219,1.65812h-2.716a4.18835,4.18835,0,0,1,.61382-1.93249,3.99291,3.99291,0,0,1,1.27954-1.25316,5.561,5.561,0,0,1,1.74958-.67934,9.57193,9.57193,0,0,1,1.99779-.20886,11.01279,11.01279,0,0,1,2.44189.248,4.43592,4.43592,0,0,1,1.81488.83588,3.74628,3.74628,0,0,1,1.12278,1.5671,6.61027,6.61027,0,0,1,.39178,2.44168v8.80066a5.63825,5.63825,0,0,0,.07848,1.01835A3.54634,3.54634,0,0,0,126.8909,138.82648Zm-2.97723-5.84981v-2.42849a2.29442,2.29442,0,0,1-.50918.222,4.72139,4.72139,0,0,1-.63977.16973q-.23512.05211-.66615.14334-.43068.09168-.77036.16973-.7575.157-1.52753.379a5.77687,5.77687,0,0,0-1.39737.60064,3.13036,3.13036,0,0,0-1.01836.97922,2.71974,2.71974,0,0,0-.39177,1.51433,2.13049,2.13049,0,0,0,.82268,1.80235,3.11842,3.11842,0,0,0,1.94569.62658,4.114,4.114,0,0,0,1.64515-.32626,4.1941,4.1941,0,0,0,1.31889-.8882,4.00956,4.00956,0,0,0,.87457-1.31868A4.2567,4.2567,0,0,0,123.91367,132.97667Z" style="fill: #fff"/>
          <path d="M149.84561,138.82648H147.208q0-2.58546.013-5.14453.01318-2.55908.01319-5.14453a4.73433,4.73433,0,0,0-.18292-1.33186,3.11769,3.11769,0,0,0-.5615-1.09706,2.66622,2.66622,0,0,0-.966-.74442,3.35391,3.35391,0,0,0-1.42332-.27393,3.7234,3.7234,0,0,0-2.75518,1.03154,4.69186,4.69186,0,0,0-1.03155,3.4077v9.29709h-2.6114V123.523h2.507v1.46246a5.0046,5.0046,0,0,1,1.81971-1.41013,6.77611,6.77611,0,0,1,2.86731-.52237,5.72323,5.72323,0,0,1,2.0688.35264,4.42471,4.42471,0,0,1,1.55809.99241,4.3577,4.3577,0,0,1,.98164,1.50159,5.07494,5.07494,0,0,1,.34077,1.88017Z" style="fill: #fff"/>
          <path d="M173.1921,138.82648h-2.48081v-1.82785a5.80429,5.80429,0,0,1-1.78893,1.6058,4.85221,4.85221,0,0,1-2.4419.58744,5.32976,5.32976,0,0,1-2.63734-.63977,6.09627,6.09627,0,0,1-1.95865-1.73639,7.88149,7.88149,0,0,1-1.22744-2.59864,11.97631,11.97631,0,0,1-.41771-3.22523,11.41535,11.41535,0,0,1,.41771-3.17289,7.48532,7.48532,0,0,1,1.22744-2.50675,5.58386,5.58386,0,0,1,4.596-2.23282,5.0531,5.0531,0,0,1,2.36341.54831,4.69373,4.69373,0,0,1,1.73683,1.54072v-7.49518h2.6114Zm-2.40254-7.73a10.35968,10.35968,0,0,0-.20886-1.998,7.068,7.068,0,0,0-.6789-1.94525,4.58885,4.58885,0,0,0-1.21446-1.47564,2.8387,2.8387,0,0,0-1.8151-.58744,2.88327,2.88327,0,0,0-1.81488.57425,4.34762,4.34762,0,0,0-1.20126,1.4497,7.124,7.124,0,0,0-.66594,1.9325,10.42156,10.42156,0,0,0-.20885,2.02395,11.66812,11.66812,0,0,0,.19566,2.07584,6.91944,6.91944,0,0,0,.66615,1.98482,4.40542,4.40542,0,0,0,1.21424,1.47565,2.92349,2.92349,0,0,0,1.84126.57425,2.8815,2.8815,0,0,0,1.81488-.57425,4.27584,4.27584,0,0,0,1.20127-1.47565,7.53186,7.53186,0,0,0,.66593-1.97163A10.7951,10.7951,0,0,0,170.78956,131.09649Z" style="fill: #fff"/>
        </g>
      </g>
    </g>
  </g>
</svg>
