<svg xmlns="http://www.w3.org/2000/svg" viewBox="0 0 158.42187 64.14089">
  <title>european-dead-zone-2_monochrome</title>
  <g id="Layer_2" data-name="Layer 2">
    <g id="European_Dead_Zone" data-name="European Dead Zone">
      <g>
        <g style="opacity: 0.2">
          <path d="M13.28932,47.37047,5.7426,60.2532v.10149h7.6229v3.78614H0v-2.4901L7.80081,48.38685v-.10174H.71154V44.49923H13.28932Z" style="fill: #fff"/>
          <path d="M15.62693,44.49923H26.40059v3.73526H20.099V52.173h5.97127v3.65884H20.099v4.57373h6.68269v3.73527H15.62693Z" style="fill: #fff"/>
          <path d="M29.37345,44.77863q1.04163-.17754,2.41391-.29206t2.89668-.11439q.66048,0,1.48648.05087a12.10169,12.10169,0,0,1,1.68972.22854,8.71421,8.71421,0,0,1,1.68972.53375,4.66069,4.66069,0,0,1,1.46105.99082,4.85483,4.85483,0,0,1,1.02917,1.57545,5.92026,5.92026,0,0,1,.3938,2.28687,5.11757,5.11757,0,0,1-.2541,1.62632,5.19486,5.19486,0,0,1-1.72781,2.46453,5.28856,5.28856,0,0,1-1.27048.737v.10174a3.16192,3.16192,0,0,1,1.57532,1.334,8.62934,8.62934,0,0,1,.91478,2.3504q.203.78759.3938,1.63872.19056.85162.38114,1.61366.19058.76229.35584,1.35932a4.38211,4.38211,0,0,0,.31762.87668H38.49548a11.726,11.726,0,0,1-.53363-1.65163q-.33051-1.21974-.66067-2.973A7.673,7.673,0,0,0,36.92,58.04252a3.07507,3.07507,0,0,0-.5335-.92756,1.66,1.66,0,0,0-.7242-.48263,3.10157,3.10157,0,0,0-.97829-.1397h-.86391v7.6482H29.37345Zm4.44668,3.1v5.31071H34.989a2.97185,2.97185,0,0,0,2.19791-.77519,2.69968,2.69968,0,0,0,.77494-1.99456,2.87138,2.87138,0,0,0-.27953-1.35931,2.27989,2.27989,0,0,0-1.56266-1.207,4.08351,4.08351,0,0,0-.85125-.10174A5.74655,5.74655,0,0,0,33.82013,47.87866Z" style="fill: #fff"/>
          <path d="M59.76328,44.49923l-5.641,19.6416H48.96418L43.50111,44.52454h4.92944l1.85486,8.182q.38114,1.67718.737,3.36678.35547,1.69022.63525,3.46851h.07618q.27933-1.75348.62258-3.45586.343-1.70211.72408-3.37943l1.855-8.20726Z" style="fill: #fff"/>
          <path d="M61.41478,44.77863q1.04163-.17754,2.41391-.29206t2.89668-.11439q.66049,0,1.48649.05087a12.10175,12.10175,0,0,1,1.68971.22854,8.714,8.714,0,0,1,1.68972.53375,4.66058,4.66058,0,0,1,1.46105.99082,4.85483,4.85483,0,0,1,1.02917,1.57545,5.92026,5.92026,0,0,1,.3938,2.28687,5.11757,5.11757,0,0,1-.2541,1.62632,5.19475,5.19475,0,0,1-1.7278,2.46453,5.28881,5.28881,0,0,1-1.27049.737v.10174a3.1619,3.1619,0,0,1,1.57533,1.334,8.62935,8.62935,0,0,1,.91477,2.3504q.203.78759.3938,1.63872.19057.85162.38114,1.61366.19057.76229.35584,1.35932a4.38274,4.38274,0,0,0,.31762.87668h-4.6246a11.72324,11.72324,0,0,1-.53363-1.65163q-.33053-1.21974-.66068-2.973a7.67377,7.67377,0,0,0-.38114-1.47371,3.07528,3.07528,0,0,0-.53351-.92756,1.66,1.66,0,0,0-.7242-.48263,3.10157,3.10157,0,0,0-.97829-.1397h-.8639v7.6482H61.41478Zm4.44669,3.1v5.31071h1.16886a2.97185,2.97185,0,0,0,2.19791-.77519,2.69969,2.69969,0,0,0,.775-1.99456,2.87138,2.87138,0,0,0-.27953-1.35931,2.27993,2.27993,0,0,0-1.56267-1.207,4.08343,4.08343,0,0,0-.85125-.10174A5.74646,5.74646,0,0,0,65.86147,47.87866Z" style="fill: #fff"/>
          <path d="M77.19407,44.49923H87.96773v3.73526H81.66619V52.173h5.97126v3.65884H81.66619v4.57373h6.68268v3.73527H77.19407Z" style="fill: #fff"/>
          <path d="M90.94058,44.49923H95.4127v19.6416H90.94058Z" style="fill: #fff"/>
          <path d="M109.74334,64.14083H98.76645V44.49923h4.47213V60.35469h6.50476Z" style="fill: #fff"/>
          <path d="M115.63855,44.49923h5.66631l5.031,19.6416h-4.62448L120.568,59.56709h-4.523l-1.06713,4.57374h-4.523Zm.94009,11.68843h3.45573l-.8639-3.93849q-.1018-.43177-.20335-.96552-.1018-.53375-.21588-1.07991-.11446-.54641-.216-1.07991-.1018-.53374-.20335-.99107h-.05075q-.10179.45744-.20335.99107-.1018.53338-.21588,1.09257-.11445.55905-.216,1.07991-.10179.52109-.17792.95286Z" style="fill: #fff"/>
        </g>
        <g>
          <path d="M62.65592,0H75.88607a0,0,0,0,1,0,0V30.83417a0,0,0,0,1,0,0h-13.904A15.08016,15.08016,0,0,1,46.90195,15.754v0A15.754,15.754,0,0,1,62.65592,0Z" style="fill: #fff;opacity: 0.2"/>
          <path d="M83.81272,15.41708a13.51258,13.51258,0,0,1,13.491-13.49719V0H77.87818v30.8341h19.4255V28.91428A13.51259,13.51259,0,0,1,83.81272,15.41708Z" style="fill: #fff;opacity: 0.4"/>
          <path d="M97.3101,3.54593l-.00642.00015v23.742l.00642.00015a11.87115,11.87115,0,1,0,0-23.7423Z" style="fill: #fff;opacity: 0.2"/>
        </g>
        <g>
          <rect x="129.86356" y="44.50399" width="7.35409" height="19.6369" style="fill: #fff;opacity: 0.2"/>
          <path d="M142.26578,54.32244a8.60556,8.60556,0,0,1,8.59179-8.59576V44.504H138.48633V64.14087h12.37124V62.9182A8.60556,8.60556,0,0,1,142.26578,54.32244Z" style="fill: #fff;opacity: 0.4"/>
          <path d="M150.86165,46.76223l-.00408.0001V61.88254l.00408.0001a7.56021,7.56021,0,1,0,0-15.12041Z" style="fill: #fff;opacity: 0.2"/>
          <g style="opacity: 0.4">
            <path d="M135.68153,46.04366q.04651.25124.07295.52879t.0263.58735a2.94718,2.94718,0,0,1-.18412,1.12209,1.85208,1.85208,0,0,1-.48784.7072,1.74256,1.74256,0,0,1-.68959.36824,2.97159,2.97159,0,0,1-.78313.10521,3.85788,3.85788,0,0,1-.47345-.03225,2.45809,2.45809,0,0,1-.52011-.12556,2.17535,2.17535,0,0,1-.50844-.263,1.78529,1.78529,0,0,1-.43846-.4412,2.20226,2.20226,0,0,1-.30671-.66328,3.35085,3.35085,0,0,1-.11389-.92929q0-.26314.0057-.49975a4.51384,4.51384,0,0,1,.03524-.46452Zm-4.07349.36228a2.08812,2.08812,0,0,0-.02928.298q-.00558.16935-.00571.36229a1.989,1.989,0,0,0,.53773,1.51093,2.10081,2.10081,0,0,0,1.5077.51117,1.8657,1.8657,0,0,0,1.37917-.48487,1.96858,1.96858,0,0,0,.48511-1.44939,3.941,3.941,0,0,0-.02034-.42953q-.02085-.18424-.04963-.31862Z" style="fill: #fff"/>
            <path d="M131.31,49.667l4.43576,1.54865v.3742L131.31,53.1385v-.3799l1.51961-.52606V50.55536L131.31,50.03525Zm1.81167.9819V52.139l1.43178-.50248q.23374-.07593.43251-.13152t.39156-.10223v-.01762q-.19875-.04691-.39454-.10223t-.406-.12556Z" style="fill: #fff"/>
            <path d="M131.31,53.45985l4.43576.31563V54.202l-2.46031.89405q-.42693.15224-.77445.266t-.6809.20744v.02333q.32121.08189.66626.19876.34467.11687.78313.28065l2.46627.92333v.44417l-4.43576.29206v-.35633l2.0747-.12853q.24529-.01788.51142-.03226.26575-.01452.52581-.02631t.494-.01761c.15558-.00373.296-.00571.4206-.00571v-.01762q-.36812-.11688-.77147-.25707-.40311-.14033-.8881-.32135l-2.36106-.88263v-.25708l2.3025-.82407q.5144-.18127.92929-.31564.41464-.13437.78884-.23375v-.01762q-.39753-.01154-.929-.035-.53189-.02346-1.0814-.05832L131.31,53.81047Z" style="fill: #fff"/>
            <path d="M131.31,58.28718l4.43576.31564v.42655l-2.46031.89405q-.42693.15223-.77445.266t-.6809.20745v.02332q.32121.08188.66626.19876.34467.11688.78313.28065l2.46627.92333v.44418l-4.43576.29206v-.35633l2.0747-.12854q.24529-.01787.51142-.03226.26575-.0145.52581-.0263t.494-.01762c.15558-.00372.296-.00571.4206-.00571v-.01761q-.36812-.11688-.77147-.25708-.40311-.14033-.8881-.32134l-2.36106-.88264v-.25707l2.3025-.82408q.5144-.18126.92929-.31563.41464-.13437.78884-.23375V58.8656q-.39753-.01154-.929-.035-.53189-.02345-1.0814-.05831L131.31,58.63781Z" style="fill: #fff"/>
          </g>
        </g>
      </g>
    </g>
  </g>
</svg>
