<svg xmlns="http://www.w3.org/2000/svg" viewBox="0 0 228.75451 264.61805">
  <title>clovis-bray</title>
  <g id="Layer_2" data-name="Layer 2">
    <g id="Layer_1-2" data-name="Layer 1">
      <g>
        <path d="M111.09426.11437V36.828C87.0331,37.5357,67.27521,47.01434,52.59262,66.15033c-11.28,14.66116-15.96215,31.48109-14.6969,49.90226,2.49476,36.18467,33.10376,67.83017,73.04843,68.02317v36.95668c-38.53646-1.34388-69.91748-16.71271-91.14791-48.94438C-5.72318,133.3872-6.4809,92.77058,17.0084,52.8259,40.076,13.60321,81.40025-.94357,111.09426.12152Z"/>
        <path d="M123.01762,105.6947V0H228.69087C230.73528,54.17693,183.2706,106.56679,123.01762,105.6947Z"/>
        <path d="M123.06765,220.65359V115.02322H228.698C230.18486,170.18661,182.77737,221.30408,123.06765,220.65359Z"/>
      </g>
      <g>
        <path d="M22.08727,247.78211H16.90709a4.85422,4.85422,0,0,0-5.1455-4.65625c-3.78077,0-6.09082,3.2207-6.09082,8.47168,0,5.28516,2.27539,8.4707,5.98535,8.4707,2.94043,0,4.86572-1.71582,5.251-4.76074h5.28516c-.48975,5.916-4.44531,9.31055-10.53613,9.31055C4.65563,264.61805.35,259.68348.35,251.59754c0-8.05078,4.34082-13.02149,11.41163-13.02149C17.92223,238.57605,21.84264,242.35633,22.08727,247.78211Z"/>
        <path d="M44.06627,259.64832v4.41016H27.15953V239.13563H32.305v20.51269Z"/>
        <path d="M69.02233,251.59754c0,8.08594-4.48047,13.02051-11.79639,13.02051s-11.79639-4.93457-11.79639-13.02051S49.91,238.57605,57.22594,238.57605,69.02233,243.5116,69.02233,251.59754Zm-18.272,0c0,5.25,2.45019,8.4707,6.47558,8.4707s6.47559-3.2207,6.47559-8.4707c0-5.251-2.4502-8.47168-6.47559-8.47168S50.75036,246.34656,50.75036,251.59754Z"/>
        <path d="M78.33043,264.05848l-7.73584-24.92285h5.25049l2.97559,9.69628c1.0498,3.36036,1.96,6.791,2.69531,10.18653h.06982c.73487-3.39551,1.68018-6.82617,2.69532-10.18653l2.97509-9.69628H92.5067l-7.73535,24.92285Z"/>
        <path d="M95.58434,264.05848V239.13563h5.14551v24.92285Z"/>
        <path d="M124.286,246.76648h-5.21582c0-2.58984-1.50488-4.0957-4.34033-4.0957-2.27539,0-3.81543,1.12012-3.81543,2.73047,0,1.92578,1.50537,2.55566,5.42529,3.53516,4.69092,1.15527,8.751,2.38086,8.751,7.80664,0,4.72558-3.92041,7.875-9.731,7.875-6.19531,0-10.08105-3.08008-10.08105-8.75h5.3208c0,3.00976,1.645,4.585,4.83056,4.585,2.625,0,4.30518-1.22461,4.30518-3.18555,0-2.20508-1.60986-2.625-5.14551-3.53516-4.69043-1.19042-8.96094-2.31054-8.96094-7.7705,0-4.376,3.74561-7.38575,9.20606-7.38575C121.0653,238.57605,124.286,241.411,124.286,246.76648Z"/>
        <path d="M147.62926,239.13563c6.1958,0,9.06592,2.59082,9.06592,6.40625,0,2.87011-1.43506,4.72558-4.34033,5.81054v.06934c3.39551.73535,4.93554,2.59082,4.93554,5.81054,0,4.166-3.29052,6.82618-8.89111,6.82618h-9.731V239.13563Zm-3.81543,10.25585h3.64063c3.01025,0,4.30517-.94433,4.30517-3.08007,0-2.06543-1.2251-2.97461-4.06006-2.97461h-3.88574Zm0,10.43165h3.81543c3.18555,0,4.4458-1.01563,4.4458-3.11524,0-2.24023-1.29541-3.25586-4.58545-3.25586h-3.67578Z"/>
        <path d="M171.28991,239.13563c6.26562,0,9.10058,2.59082,9.10058,7.03613a6.02031,6.02031,0,0,1-4.55029,6.09082v.06933c1.75.63086,2.59033,1.68067,3.74512,4.83106l2.48535,6.89551h-5.60059l-1.99512-5.916c-.91015-2.66016-1.92529-3.60449-4.37548-3.60449H167.264v9.52051h-5.14551V239.13563ZM167.264,250.44227h3.64062c3.11524,0,4.30518-1.40039,4.30518-3.67579,0-2.415-1.645-3.46484-4.58545-3.46484H167.264Z"/>
        <path d="M190.71325,257.96766l-1.96,6.09082h-5.39062l8.646-24.92285h6.93066l8.646,24.92285h-5.39063l-1.92529-6.09082Zm7.63086-6.05567c-1.01514-3.21972-1.99512-6.51074-2.835-9.73047h-.07031c-.83984,3.21973-1.78515,6.51075-2.80029,9.73047l-.5249,1.64551h6.75586Z"/>
        <path d="M218.78405,264.05848h-5.14551v-9.69629l-8.50586-15.22656h5.77588l2.38037,4.69042c1.0498,2.06543,2.02978,4.20118,2.90527,6.33594h.06983c.875-2.13476,1.855-4.27051,2.90527-6.33594l2.38037-4.69042h5.74024l-8.50586,15.22656Z"/>
      </g>
    </g>
  </g>
</svg>
