<svg xmlns="http://www.w3.org/2000/svg" viewBox="0 0 123.58353 121.70317">
  <title>superintendent</title>
  <path class="outline" d="M61.79175,0C27.665,0,0,27.24414,0,60.85156s27.665,60.85157,61.79175,60.85157S123.5835,94.459,123.5835,60.85156,95.91846,0,61.79175,0Zm-.13428,116.86725c-31.53,0-57.09033-25.0188-57.09033-55.8811S30.12744,5.105,61.65747,5.105c31.53027,0,57.09058,25.01886,57.09058,55.88111S93.18774,116.86725,61.65747,116.86725Z" style="fill: #fff"/>
  <ellipse class="olive" cx="61.65756" cy="60.98619" rx="57.09047" ry="55.8811" style="fill: #5e7e4d"/>
  <ellipse class="eye left full" cx="37.47813" cy="60.85138" rx="16.92561" ry="16.38842" style="fill: #fff"/>
  <ellipse class="eye right full" cx="86.1054" cy="60.85179" rx="16.92561" ry="16.38842" style="fill: #fff"/>
  <path class="eye left half" d="M37.47813,60.85138h16.9256A16.66351,16.66351,0,0,1,37.47813,77.2398,16.66351,16.66351,0,0,1,20.55252,60.85138Z" style="fill: #fff"/>
  <path class="eye right half" d="M86.1054,60.85179H103.031a16.93441,16.93441,0,0,1-33.85121,0Z" style="fill: #fff"/>
</svg>
