<svg xmlns="http://www.w3.org/2000/svg" viewBox="0 0 126.7085 126.70862">
  <title>campaign_shadowkeep</title>
  <g id="Layer_2" data-name="Layer 2">
    <g id="Layer_1-2" data-name="Layer 1">
      <path d="M63.35425,0,0,63.35431l63.35425,63.35431L126.7085,63.35431ZM89.0835,43.94183h0a13.62882,13.62882,0,0,1,.37719,3.2251,13.97492,13.97492,0,0,1-.60595,4.08362l.026-.099a6.69084,6.69084,0,0,1-2.69007,3.80273l-.02307.01478q-5.983,3.94409-11.98352,7.86108a5.34217,5.34217,0,0,1-.58313.27966l-.03833.01386c0-2.40833-.06787-4.71295.02722-7.01087a4.36814,4.36814,0,0,1,1.67554-3.11114,23.11867,23.11867,0,0,1,2.32886-1.79218l.08288-.05255c3.56141-2.31171,7.14563-4.58813,10.72425-6.873.19482-.12445.41479-.20947.68213-.342ZM63.38892,54.462c.3518-.5658.57214-.92994.80188-1.288,2.31506-3.608,4.6809-7.18457,6.9309-10.83264a7.96,7.96,0,0,1,6.87781-3.82208c1.47424-.075,2.95532-.01312,4.63379-.01312-.24365.49029-.34717.74993-.49267.98327Q78.852,44.76065,75.551,50.02417c-.28138.44867-.60645.86969-.89393,1.31476a6.3796,6.3796,0,0,1-6.08789,3.139c-1.63183-.08576-3.27185-.01581-5.18029-.01581ZM44.01062,38.93872v.00006a13.632,13.632,0,0,1,3.225-.3772,13.9732,13.9732,0,0,1,4.08374.606l-.099-.026A6.68959,6.68959,0,0,1,55.023,41.83173l.01489.023q3.9441,5.98287,7.86109,11.98346a5.3341,5.3341,0,0,1,.27954.58319l.01391.03833c-2.40832,0-4.71289.06787-7.01074-.02716a4.36809,4.36809,0,0,1-3.11121-1.67548,23.12549,23.12549,0,0,1-1.79223-2.329l-.05261-.08289c-2.31165-3.56134-4.58814-7.14556-6.873-10.72424-.12427-.19488-.20935-.41485-.34192-.68219H44.0105Zm-6.818,5.079c.49023.24378.74987.34717.98315.49274Q43.447,47.79916,48.71045,51.1c.44873.28143.86963.6065,1.31482.894a6.37976,6.37976,0,0,1,3.139,6.08789c-.08582,1.63184-.01587,3.27185-.01587,5.1803l-.00012-.00006c-.5658-.35181-.92981-.57215-1.288-.80188-3.60791-2.315-7.18457-4.68091-10.83252-6.93091a7.96,7.96,0,0,1-3.82214-6.87781C37.13062,47.17737,37.19263,45.69623,37.19263,44.01776Zm.43945,38.62964-.00012-.00006h.00012a13.6283,13.6283,0,0,1-.37732-3.225,13.97513,13.97513,0,0,1,.60608-4.08368l-.026.099A6.68994,6.68994,0,0,1,40.5249,71.635l.02307-.01483q5.98279-3.944,11.98352-7.861a5.3123,5.3123,0,0,1,.58313-.27966l.03833-.01391c0,2.40838.06788,4.713-.02722,7.01086a4.36824,4.36824,0,0,1-1.67541,3.11114,23.11934,23.11934,0,0,1-2.329,1.79224l-.08289.05255c-3.56128,2.31165-7.14563,4.58808-10.72424,6.873-.19483.12439-.4148.20941-.68213.342Zm25.6864-10.40076c-.35181.5658-.57214.92993-.80188,1.288-2.31494,3.608-4.68091,7.18451-6.93091,10.83258a7.95986,7.95986,0,0,1-6.8778,3.82208c-1.47425.075-2.95533.01312-4.63379.01312.24377-.49029.34716-.74994.49279-.98327q3.28858-5.27115,6.58936-10.53467c.28149-.44861.60657-.86963.894-1.3147a6.37973,6.37973,0,0,1,6.08789-3.139c1.63184.0857,3.272.01581,5.18042.01581Zm-5.77283-8.93029a5.84327,5.84327,0,1,1,5.84327,5.8432A5.8433,5.8433,0,0,1,57.54565,63.31635ZM82.66748,87.76013v-.00006a13.63172,13.63172,0,0,1-3.2251.3772,13.973,13.973,0,0,1-4.08362-.606l.099.026A6.69017,6.69017,0,0,1,71.655,84.86713l-.01477-.023q-3.9439-5.98289-7.861-11.98352a5.32252,5.32252,0,0,1-.27979-.58313l-.01391-.03833c2.40844,0,4.713-.06788,7.011.02722a4.36824,4.36824,0,0,1,3.11109,1.67547,23.16106,23.16106,0,0,1,1.79223,2.32892l.05249.08289c2.31177,3.56134,4.58814,7.14557,6.87305,10.72424.12451.19483.20947.41486.342.68219h0Zm5.86523-5.655q-5.27124-3.28857-10.53466-6.58947c-.44861-.2815-.86963-.60651-1.3147-.894a6.37943,6.37943,0,0,1-3.13892-6.08789c.0857-1.63183.01575-3.27191.01575-5.18036l.00012.00006c.56568.35187.92993.57215,1.28784.80188,3.60816,2.315,7.18457,4.681,10.83277,6.93091a7.96,7.96,0,0,1,3.822,6.87781c.07495,1.47418.01318,2.95538.01318,4.63379C89.02576,82.35406,88.76611,82.25067,88.53271,82.1051Z" style="fill: #80222d"/>
    </g>
  </g>
</svg>
