<svg xmlns="http://www.w3.org/2000/svg" viewBox="0 0 126.70844 126.70862">
  <title>campaign_red-war</title>
  <g id="Layer_2" data-name="Layer 2">
    <g id="Layer_1-2" data-name="Layer 1">
      <g>
        <path d="M33.17505,71.58325A.31319.31319,0,0,0,33.376,71.483l.00024-.00024C33.27563,71.48273,33.17517,71.48279,33.17505,71.58325Z" style="fill: #802f22"/>
        <polygon points="75.753 92.583 75.753 92.583 75.753 92.583 75.753 92.583" style="fill: #802f22"/>
        <path d="M50.96,63.54h-.10669C50.85327,63.64063,50.85327,63.54,50.96,63.54Z" style="fill: #802f22"/>
        <path d="M63.35425,0,0,63.35431l63.35425,63.35431,63.35419-63.35431ZM38.76843,80.52637l-.00012.00006c0-.10065-.10059-.10065-.20117-.10065,0,0-.10645,0,0-.10065a.10067.10067,0,0,1,.10058-.10058S38.869,80.42572,38.76843,80.52637ZM52.07349,94.25165c-.10071,0-.302.10064-.40247,0s0-.20716.10059-.20716a.21924.21924,0,0,0,.20117-.2005l.00012-.00073c0-.10065-.10071-.20123-.30188-.20123s-.30774-.20715-.30774-.40839c0-.10064,0-.10064-.10058-.20123l.59179.30188a.52591.52591,0,0,1,.20117.40808v.00031c.10657,0,.10657.10064.10657.30181h.0177C52.17993,94.14514,52.17993,94.14514,52.07349,94.25165ZM51.446,86.52789c0-.20721-.10058-.20721,0-.3078-.10058,0-.10058-.10058,0,0,.10645,0,.10645.10065.10645.20124A.10653.10653,0,0,1,51.446,86.52789Zm.10645,3.65772s0,.10064-.10645,0c0,0-.10058,0,0-.20716C51.55249,89.97845,51.55249,90.085,51.55249,90.18561ZM51.446,85.91235a.10059.10059,0,0,0-.10058-.10058c0-.10065,0-.10065.10058-.10065a.10062.10062,0,0,1,0,.20123Zm0,.71613c.10645.10065.10645.10065-.10058,0,.10058.10065,0,.10065,0,0C51.446,86.52789,51.446,86.62848,51.446,86.62848Zm-.10058.40259v.20715c-.10059,0-.10059,0-.10059-.10065v-.1065s-.1007-.10065,0-.10065Zm-.10059.40832a.10061.10061,0,0,1,.10059.10065C51.24487,87.64063,51.14429,87.54,51.24487,87.43939Zm.10059,3.25525v-.00006c.10058-.10657.10058-.20715.207-.20715.10669,0,.10071.10058.10071.20715l-.10071.10065c-.207-.10065-.10645,0-.10645.10058.10645,0,.10645,0,.10645.10065,0,0,0,.10065-.10645,0-.10058,0-.10058-.10065-.10058-.20117C51.24475,90.89587,51.24475,90.79529,51.34546,90.69464Zm32.8717-29.78082.006-.00171c-.10065,0-.10065,0-.10065-.10065v-.00018a.10063.10063,0,0,0-.10065-.10065l-.00586.00019h0c-.10064-.10065-.10064-.10065-.20123-.10065s-.10065.10065-.10065.20123v1.21924c-.10058.40839.10065.81677,0,1.21924a2.72265,2.72265,0,0,1,.03772.45868,2.82527,2.82527,0,0,1-.04.47534l.00226-.01666v.30182c.00256.04016.004.08709.004.13439a2.27531,2.27531,0,0,1-.1073.68732l.00275-.00494-.00452.01611.00177-.01117c-.09265.099.00275.19794.00275.29694.10058.10064.10058.10064,0,.20117s-.10065.20721-.20722.3078v.10059h.10657c.10065,0,.10065-.10059.20117,0s0,.10064,0,.20721v.20117c0,.20123.10065.30188.10065.509a.841.841,0,0,0-.03864.25451.8599.8599,0,0,0,.04029.26062l-.00171-.006c-.10065-.10657-.10065-.10657-.20118-.10657a.10068.10068,0,0,0-.10064-.10058l-.10657.10058c.10657.10657-.10059.30774.10657.40839.10064,0,0,.10065-.10657.20123s-.10059-.10065-.10059-.10065c-.10064.10065.20716.20716,0,.30774.10059.10065.10059.20124.30774.20124v.10064h-.10064c-.10657,0-.10657,0-.10657.10065s.10657.10651.20721.10651a.21917.21917,0,0,1,.20111.2005l.00007.00079V69.855s0,.10651-.10065.10651c-.20117,0-.20117.10064-.30774.20123h.10657c.10064-.10065.20117,0,.20117.10065v.30774c-.10059,0-.10059-.10657-.10059-.10657s-.10064-.10059-.10064,0v.10657c.10064.10064.10064.10064,0,.20123,0,0-.10657.10059,0,.10059s.10064,0,.10064-.10059a.10062.10062,0,0,1,.10059-.10065c.10065,0,0,.10065,0,.10065v1.31989a.1006.1006,0,0,1-.10059.10058c-.10064,0-.10064,0-.10064-.10058,0,0-.10657-.10065-.10657,0-.10059,0,0,.10058,0,.20117s0,.10656.10657,0,.20117.10656.20117.10656c0,.10059,0,.20118-.10059.20118-.10065.10064-.10065,0-.20721-.10065,0,0,0-.10059-.10059,0v.10065c0,.10064,0,.20123.20715.10064.10065,0,.10065,0,.10065.10065,0,.30774.10059.509.10059.81677v2.36743a1.8884,1.8884,0,0,1-.20191.71l.00074.00018-.005.0105.00427-.01068a.10188.10188,0,0,1-.10583-.10041h-.13019v.10059c.10065.10065.10065.10065,0,.20123,0,0-.10065,0,0,.10065.10065.20715,0,.30774,0,.509,0,.10059,0,.20716.20715.10059.10065,0,.10065,0,.10065.10657.10065.30181.10065.59185.20123.81079v.10064c-.20123.10065-.10064.20124-.10064.30774s-.10065.10065,0,.20124V79.236c-.20124.10065-.10065.3078,0,.40839,0,.10065-.10065.10065-.10065.20123s0,.10065-.10065.10065-.1065,0-.1065.1065V80.254c.1065,0,.1065.10064.20715.20123,0,0,.10065.10059,0,.10059H83.483V80.5556a.1006.1006,0,0,0-.10064-.10058l-.00617.00018h.00031c-.10065.10059,0,.20715,0,.30774.1065.20117,0,.30182,0,.509v.10065c.1065.10065.1065,0,.1065,0h.20124c.10064.10065,0,.10065,0,.20123-.20124.10065,0,.30774,0,.509v.10059h-.10065c-.20716-.10059-.20716,0-.20716.10065v.91736c0,.10064,0,.10064-.10064.20123-.10065,0-.20124.10058-.10065.20715v.10065c-.10065.20117,0,.30182,0,.509a.10063.10063,0,0,0,.10065.10065.10065.10065,0,0,1,0,.20129c-.20124.10065-.20124.10065,0,.20124,0,0,.10064.1065,0,.1065-.10065.10065,0,.20123-.10065.20123s-.20117,0-.20117.10059-.10065.20123-.20722.3078a.10068.10068,0,0,0-.10064.10059h.10064c.10657-.10059.20722-.10059.10657.10064a.10063.10063,0,0,0,.10065.10065.10061.10061,0,0,1,.10058-.10065v.10065c-.10058.10065,0,.509.10065.509s.10065.10065.20123.10065c.20716.10059.40839.30774.59186.40833V86.806h-.10064c-.20124-.10065-.40241,0-.59186-.20123l-.40241-.39063a.21312.21312,0,0,0-.408-.00146l-.00042.00152c-.10065.10065-.20716.10065-.30774.20118h-.10065c0,.10656,0,.10656-.10065.20721,0-.10065-.10064-.20721-.10064-.30774a.10063.10063,0,0,0-.10065-.10065h-.10651c-.10064.20118-.30188.20118-.50305.10065l-.10657-.10065h-.10058c-.10065,0,0,.10065,0,.10065.10058.10059.10058.10059.10058.20715.10657,0,.10657.10065,0,.20118a.142.142,0,0,1-.20092.00036l-.00031-.00036c-.10065-.10059-.20123,0-.20123.10064a.31311.31311,0,0,0-.10053.19989l-.00012.00135c0,.1065-.10651.20715-.20715.1065-.10071,0-.10071,0-.10071.10065.10071.30188-.20117.4024-.30176.509s-.30786.10065-.30786.30182l-.10059.10065c-.10058.10064-.20117.20715-.20117.30774a.22519.22519,0,0,1-.2063.20117l-.00085.00006c-.10071,0-.2013,0-.10071.20123l.00024.00592a.10061.10061,0,0,1-.10058.10065h-.00025L78.6,89.26233c0,.10065,0,.10065-.10071.10065h-.00012a.10075.10075,0,0,0-.10071.10064l.00024.006v0a.51967.51967,0,0,1-.20007.40149l-.0011.00086c0,.10065-.10669.10065-.10669,0-.10059-.10065-.20117,0-.30176,0s-.10058.10065-.20117.10065,0,.1065,0,.1065c.07983.0799.14575.106.17529.15973.0116-.01642.01209-.03882.02661-.05316v-.00006h.10059c.10059.10064.20117.10064.10059.20123h0c-.10059,0-.10059.10065-.20118.10065h-.10058v-.10065c.00415-.03113.02881-.05347.04089-.082a.13332.13332,0,0,1-.142-.02417l-.00036-.00037c-.10657,0-.10657,0-.10657-.10064V90.079h-.10058c0,.10065-.20118.20123-.10059.30188v.10065c-.10071.20715-.10071.509-.30188.59186a1.2528,1.2528,0,0,1-.50256.50573l-.00647.00318c-.10071.10064-.30774.20123-.30774.40838a2.12522,2.12522,0,0,1-.4076.59052V92.624c-.02075,0-.01892-.01849-.03112-.02624-.06372.02185-.08545.08545-.1709.08545v-.30774c0-.10065,0-.10065.10058-.10065.20728-.10065.30787-.20117.10071-.4024a.10663.10663,0,0,1,.10657-.10657.1006.1006,0,0,0,.10059-.10059v-.10064c.10058-.10065,0-.20124-.10059-.30188a.533.533,0,0,0-.40772-.20716h-.00073c.30188,0,.20117-.30182.20117-.4024v-.10657c.20728-.20117.20728-.503.40845-.7102.10059-.10065.10059-.30188.20117-.40247a.33975.33975,0,0,1-.00317-.04846.35954.35954,0,0,1,.10962-.25916l.00024-.00012v-.20117c0-.10657-.10657-.30774-.10657-.40839V87.9248c0-.10064.10657-.20123.10657-.40838v-.59186a.55567.55567,0,0,1-.0039-.06677.58884.58884,0,0,1,.10571-.33759l-.00122.00189v-.30773c0-.20118-.10071-.40833-.10071-.59186,0-.10059-.10657-.20117-.10657-.30774,0-.30182.10657-.50305.10657-.71021V84.0127a2.13166,2.13166,0,0,0,.03772-.40546,2.20618,2.20618,0,0,0-.04-.41919l.00232.01385a3.3521,3.3521,0,0,0,.03772-.509,3.49387,3.49387,0,0,0-.04016-.5282l.00244.01923c.00281-.06531.00427-.14185.00427-.21881a5.55045,5.55045,0,0,0-.11706-1.137l.00622.03588c0-.20123-.10058-.30774,0-.509v-.20117c-.10058-.20722,0-.30774,0-.509V79.337a1.00983,1.00983,0,0,0,.31153-.73041c0-.03034-.00147-.06055-.00391-.09027l.00024.00384c0-.10064,0-.20123-.1007-.10064v-.509s.1007.10059.1007,0v-.10064c-.1007,0-.1007-.20722-.1007-.30774a.10063.10063,0,0,1,.1007-.10065A.10083.10083,0,0,0,76.65,77.303a.0965.0965,0,0,0-.00354-.02643l.00025.00073v-.81079c0-.10656,0-.10656-.20117-.10656-.10071,0-.20728-.20118-.20728-.30182s-.10058-.30774,0-.40839a.44391.44391,0,0,0-.001-.51044l.001.00141c0-.20124,0-.40241.20715-.509-.20715,0-.20715-.10058-.20715-.30181v-.30774c0-.10065.10645-.10065.10645-.10065a.10064.10064,0,0,0,.1007-.10065c0-.10065,0-.10065-.1007-.20123-.10645,0-.10645,0-.10645.10065a.10068.10068,0,0,1-.10058.10064c-.10071,0,0-.10064,0-.10064,0-.20118.10058-.30774.207-.509v-.10064a.36043.36043,0,0,1-.10974-.25928.32875.32875,0,0,1,.00354-.05035l-.00025.002a2.09526,2.09526,0,0,0,.1311-.7356l-.001-.06048.00012.00293v-.509c.00281-.07586.00452-.16479.00452-.25427a7.33509,7.33509,0,0,0-.1178-1.31128l.00671.04444v-.10651a4.52409,4.52409,0,0,0,.03992-.60962,4.70287,4.70287,0,0,0-.0426-.63373l.00268.02411v-.728c0-.10064,0-.20123-.10058-.10064-.10071,0-.10071,0-.10071-.10065v-.20715a.22091.22091,0,0,0-.03223.00488.33811.33811,0,0,1-.06848.12122v.08105a.10054.10054,0,0,1-.10058.10065c-.10645,0-.10645-.10065,0-.10065a.32224.32224,0,0,0,.10058-.08105V67.624c0-.087.01367-.09869.06848-.10162a1.0234,1.0234,0,0,0,.03211-.30676c0-.10059.1007-.30774.1007-.40833V66.683c.10071-.20123,0-.40838,0-.59185v-.509c.10071-.20123,0-.40838,0-.59185,0-.10065-.1007-.10065,0-.20124v-.10064c-.1007,0-.1007-.10651,0-.20716a.36566.36566,0,0,0,.10352-.25549.347.347,0,0,0-.00305-.04633c-.20093,0-.10059-.10064-.10059-.20721v-.10065c-.10058-.10058-.10058-.10058,0-.10058v-.10065s0-.10065-.10058,0H75.96s-.10071-.10065,0-.10065.10059,0,.10059-.10064,0-.10651-.10059-.20716l-.10071-.13025c.10071-.10058.10071.10065.2013.10065v-2.113c0-.1065,0-.1065-.10071-.1065a2.167,2.167,0,0,0-.40833-.03772,2.24634,2.24634,0,0,0-.41088.03882c-.10108.10321-.3-.00116-.39991-.00116-.30786-.10065-.59192,0-.91748-.20124-.10058.10065.10071.10065,0,.20124h-.7279a.61721.61721,0,0,1-.06275.00317.6236.6236,0,0,1-.347-.105l.00146.00116-.0022-.0014.00074.00024a.84558.84558,0,0,0-.77832-.30011l.00451-.00055H54.7478c-.02441-.00232-.05273-.0036-.08142-.0036a.9253.9253,0,0,0-.43262.10663l.005-.00238a.5864.5864,0,0,1-.33643.10492.60134.60134,0,0,1-.07483-.00464l.00293.0003c-.30188,0-.59191.10059-.91149.10059v-.10059c-.10059,0-.10059.10059-.20118.10059a2.52954,2.52954,0,0,1-.7207.10242c-.03381,0-.06738-.00068-.10095-.002l.00476.00019h-.23071a2.16846,2.16846,0,0,0-.40845-.03772,2.24472,2.24472,0,0,0-.41016.03875.10362.10362,0,0,0-.09887.10547v2.01227c.10058,0,.10058-.10059.20727-.10059.10059.10059-.10669.10059-.10669.10059a.14227.14227,0,0,0-.00024.201l.00024.0003a.10681.10681,0,0,0,.10669.10657h.10059A.10069.10069,0,0,1,50.96,63.54c.10645,0,0,.10065,0,.10065a.1341.1341,0,0,0-.01172.18951l.01172.01172s.10059.10064,0,.10064c-.10669.10651-.20727.20716-.10669.30774s.20728.20118,0,.20118v.10064c.10669,0,.10669.10657,0,.10657-.10644,0-.10058.10065-.10058.20117v.40839a.58714.58714,0,0,1,.10449.33569.6023.6023,0,0,1-.00415.06952l.00024-.00275v.30774c0,.10065-.10058.20118,0,.20118.10657.20721,0,.40838,0,.59185,0,.10065.10657.20722.10657.40839a.10061.10061,0,0,0,.10058.10065.10071.10071,0,0,1,.10071.10064v.10065h-.10071a.10061.10061,0,0,0-.10058-.10065c-.10657,0,0,.10065,0,.10065.10058.10651.10058.20715-.10657.20715a.10061.10061,0,0,0-.10058.10065v1.72827a1.15717,1.15717,0,0,1,.03088.26862,1.17894,1.17894,0,0,1-.13464.54877l.00317-.00654v.8523c0,.20123.10059.30188,0,.50305a3.33468,3.33468,0,0,0-.038.509,3.44547,3.44547,0,0,0,.0404.5282l-.00244-.01916v.10064c-.10059.20716,0,.509-.10059.71613a7.46879,7.46879,0,0,0-.105,1.26587q0,.13458.00464.26813l-.00049-.01294a10.83709,10.83709,0,0,0-.10473,1.5249q0,.1603.00451.31958l-.00036-.01563v3.3559c-.00269.06024-.00415.13086-.00415.2019a5.011,5.011,0,0,0,.11059,1.05018l-.00586-.03284v.81079c0,.20721-.10058.40839.10059.59186,0,0,.10071.10657,0,.10657s0,.10064,0,.20123.10071.30182,0,.40832v.10065c.20117.30188.10071.509.10071.81085v.10059c.10058,0,.10058.10065.10058.20721.10071.10059.10071.30182.20716.50305v.10651s-.10645,0-.10645.10065c0,0,.10645,0,.10645.10064h.1007a.10061.10061,0,0,1,.10059-.10064v.20123a.10069.10069,0,0,1-.10059.10065c-.1007,0-.20715.10058-.20715.30774l.00025.02276a.78276.78276,0,0,1-.103.38953l.002-.00379v.10059a.10067.10067,0,0,1-.10058-.10059.3545.3545,0,0,0-.10059-.20721v-.20117a.1007.1007,0,0,0-.10059-.10065l-.1007.10065c0,.20117-.10657.30182,0,.509v.10065c-.10657.10064.1007.20123,0,.30188h.20129v.1065c-.10071.10065-.10071.10065.10059.10065.10058,0,.10058.10065.20117,0,0,0,.10656,0,.10656.10065v.10065s-.10656,0-.10656.10058l-.10059.10065c.10059.10657.10059,0,.20715,0,0,.10657,0,.10657-.10656.10657a.10062.10062,0,0,0,0,.20123h.20715c0,.10065,0,.10065-.10059.20123,0,.10065-.10656,0-.10656,0s-.10059-.10065-.10059,0a.148.148,0,0,0,0,.20715c.10059,0,.10059,0,0,.10065.10059.10065.10059.20123.20715.30188v.10059H50.853s-.10059-.10059-.10059,0v.20721h-.10058s0-.10065-.10071,0a.34768.34768,0,0,0-.10047.19934l-.00012.00183s0,.10065.10071,0c.20117-.10064.10059.10065.20117.10065,0,.10657-.10071.10657-.10071,0h-.20129a.10064.10064,0,0,0-.10071.10065l.00012.00616V89.458c.10071.10064.10071.20123.2013.30188.20117.10064.20117.30774.20117.509V90.47a2.7942,2.7942,0,0,1,.10461.7663q0,.07974-.00439.15838l.00037-.00726c0,.10065.10656.10065.20715.10065v-.10065s-.10059-.10065,0-.10065h.20117a.10072.10072,0,0,0,.10071.10065v.10065h-.2013c0,.10065,0,.20117-.20117.20117,0,0-.10644,0-.10644.10065a.34607.34607,0,0,1,.04834-.00324.35964.35964,0,0,1,.25927.10974v.10077h-.20117c-.10644,0-.20715,0-.10644.20117,0,.10065.10644.20124-.10071.20124-.10071,0-.10071.30774,0,.30774.20715,0,.20715.20123.20715.30774.10059,0,0-.10651.10059-.10651h.10071c0,.10651,0,.10651-.10071.20715,0,.10065-.10059,0-.10059,0a.79275.79275,0,0,1-.40637-.40332l-.002-.00506c-.10071-.10065-.2013-.20124-.2013-.30774s-.10644-.20124-.207-.30188l-.302-.30774a1.02491,1.02491,0,0,0-.41553-.48273l-.00464-.00256v-.10657c0-.20117-.10058-.4024-.10058-.7102,0-.10065,0-.20124-.10059-.20124v.40839l.10059.10065a.10059.10059,0,0,1-.20117,0c0-.10065-.10669-.20716-.20728-.10065h-.08288a.35515.35515,0,0,0-.10071-.20715s-.10059-.20124.10071-.10065a.10072.10072,0,0,0,.1007-.10065c0-.20123-.20129-.30774-.40844-.20123-.10059.10065-.10059,0-.20118,0-.10058-.10651-.10058-.20716-.20117-.30774-.10071-.20117-.30786-.30182-.30786-.509,0-.10065-.10058-.10065-.20117-.10065s-.20117,0-.10059-.20123a.26737.26737,0,0,1-.03833.00268.27227.27227,0,0,1-.27221-.27228.269.269,0,0,1,.00293-.03967l-.00025.00147c0-.10065-.10058-.10065-.10058-.20124-.10059-.10058-.20118-.20715-.20118-.30774-.10058,0-.20727-.10064-.30774-.10064a.55723.55723,0,0,1-.30212-.49475l.00024-.01441c0-.10058,0-.20093-.10058-.1004-.10657,0-.10657,0-.20728-.10065,0-.10064-.10058-.20123-.20117-.30774a.19537.19537,0,0,0-.27417-.03357.19216.19216,0,0,0-.0332.03321l-.00037.00042c0,.10651-.10071.10651-.10071,0s-.10058-.10064,0-.20123l.2013-.20117s.10657-.10065,0-.10065c0,0-.10071-.1065-.10071,0-.10059.20124-.30176.10065-.50891.10065-.10071,0-.20129,0-.20129.20117,0,.10065-.10059.10065-.20118,0l-.40844-.40832a.18945.18945,0,0,0-.30152.10522l-.00024.00128v.00019a.10065.10065,0,0,1-.10059.10064l-.00586-.00018s-.10058.10065,0,.10065h.10645s0-.10065.10071,0v.0769c-.10071.10065-.10071.10065-.20716.10065a.36728.36728,0,0,1-.10058-.30188v.00006l.00012-.00189-.00012.00183c.00024-.00025.10046-.10059,0-.10059,0-.10657.10058-.30774,0-.40838,0,0,0-.20716.10058-.20716s.10657-.10064.10657-.20123-.10657-.10065-.20715-.20123H43.5437c0-.10065-.10071-.20716,0-.30774s.10059-.10065,0-.20117c-.10071,0-.20129-.10065,0-.20124V84.6701a.34587.34587,0,0,0,.00281-.04632.36539.36539,0,0,0-.10364-.25555l.00012.00012a3.57789,3.57789,0,0,1-.30774-1.418v-.00238s.10645-.20716-.10058-.10651c-.10071,0-.10071,0,0-.10065s0-.20123.10058-.30188c0-.1065,0-.20715-.10058-.20715s-.10071-.10065,0-.20123c.10058,0,.10058-.10059.207,0s.10071.10064.10071,0v-.78717a.10072.10072,0,0,0-.10071.10064s-.10645.10065-.10645,0v-.10064l.20716-.20716c.10071-.10064.10071-.10064,0-.20123a.10063.10063,0,0,0-.10071-.10058c-.10645,0-.207-.20722-.207-.30781s.10058-.20117.10058-.30181a6.58034,6.58034,0,0,1-.10058-1.11609V79.0061c-.2013-.20721,0-.30774,0-.509a4.45262,4.45262,0,0,1,.10766-.54047l-.00708.03144c0-.10065,0-.10065.10645-.10065.20117,0,.30188-.10059.20117-.20117.00244-.02515.00391-.05438.00391-.08386a.91287.91287,0,0,0-.10694-.43012l.00245.005v-.20716s.10058-.10064,0-.10064h-.20716a.57939.57939,0,0,0,.00379-.06678.588.588,0,0,0-.10572-.33758l.00135.00189a3.83839,3.83839,0,0,1-.148-1.06726,3.98241,3.98241,0,0,1,.02527-.44812l-.00171.018v-.509a2.70286,2.70286,0,0,0,.03784-.45575,2.796,2.796,0,0,0-.04016-.47217l.00232.01642a4.226,4.226,0,0,1,.10144-.509h-.00086l.00684-.02972c-.00269.00976-.00342.02-.006.02972h.09973c.10657,0,.10657,0,.10657-.10065,0,0,.1007-.1065,0-.1065a.10662.10662,0,0,0-.10657.1065s-.10059.10065-.10059,0v-.33728c0-.10064.10059-.20123.20716-.10064h.1007v-.20716h-.1007a.14212.14212,0,0,1-.20081.00635l-.00623-.00629-.00012-.00006c0-.10064-.10058-.10064,0-.20123v-.08289c-.10058-.40838,0-.71026-.10058-1.11865V70.791h.10058s.10071.10058.10071,0v-.10065a.10064.10064,0,0,0-.10071-.10065c-.10058,0,0-.10657,0-.10657l.10071-.10058s0-.10065-.10071,0a.10059.10059,0,0,0-.10058.10058v-.4024c0-.10065.10058-.20715.20117-.10065h.10657v-.1065c0-.10065-.10657-.10065-.10657-.10065-.10059,0-.10059,0-.10059-.10065v-.82861c0-.10651,0-.20715.20716-.20715a.10065.10065,0,1,0,.00036-.2013H43.2179s-.10657,0-.10657-.10058l.10657-.10065a.38984.38984,0,0,0,.10314-.26434.38356.38356,0,0,0-.00268-.04432c0-.09918-.00024-.09973-.10046-.09973,0,0-.10657,0,0-.10064v-.20716c.1007,0,0,.10651.1007.10651v-.509c-.20727.10064-.1007-.10065-.1007-.10065,0-.20715-.10657-.30774,0-.509a.65194.65194,0,0,0-.00171-.59546l.00171.0036a.21928.21928,0,0,1,.20056-.20715l.00073-.00007c-.10059-.10058-.10059-.20117-.20117-.30181v-.10065a.19534.19534,0,0,0,.03344-.27417.19041.19041,0,0,0-.0332-.03327l-.00036-.0003a1.61947,1.61947,0,0,1-.1106-.59424q0-.06115.00452-.1214l-.00037.00537V62.94849a8.01539,8.01539,0,0,0,.04-.81379,8.3879,8.3879,0,0,0-.04285-.84887l.00293.035v-.509c0-.10065-.10071-.20117,0-.40839V60.3028c-.20129-.10059-.10071-.20118-.10071-.30182v-.30774a.328.328,0,0,1-.00293-.04633c0-.02038.01893-.03473.0221-.05462l-.00024.00012v-.10065a.1658.1658,0,0,1,.05834-.04248c.012-.0177.00831-.04248.02344-.058v.00012c.10645-.10059.207-.20715.10645-.30774v-.68652c0-.10065,0-.10065-.10645-.10065l-.20129-.23078V57.8645c.20129-.10065.20129-.30182.20129-.509v-.592a.10053.10053,0,0,1,.10059-.10059l.00586.00018c.20129,0,0-.10064,0-.10064-.10645,0-.10645-.40839,0-.40839h.10058a.36632.36632,0,0,1-.10351-.25549.37591.37591,0,0,1,.00317-.04828l-.00024.00189V53.07043c0-.10064,0-.10064.10071-.10064H43.52c.10059,0,.20117-.10065.10059-.30774,0-.10065,0-.20123.10058-.20123H48.829c.0404.00262.08777.00415.13538.00415a2.22884,2.22884,0,0,0,.69128-.1092l-.01575.0044h1.11865c.40833,0,.81666-.10065,1.21924-.10065a.34242.34242,0,0,0,.04615.00293.36576.36576,0,0,0,.26147-.10943v-.00007a.142.142,0,0,1,.20093-.0003l.00049.0003c.10058,0,0,.10651,0,.20716.30761-.10065.7102.10064,1.01782-.10065h.10071c.1007.10065.20129,0,.40832,0,.10071,0,0-.20715.10071-.10651.10071,0,0,.10651.10071.10651H56.251a.10644.10644,0,0,1-.10645-.10651c0-.10064.10645,0,.10645,0,.1007,0,.1007-.10064.20117-.10064h.071v.10064c-.10058.20716-.10058.20716.10059.20716.30786,0,.509.10064.81689-.10065h.10059c.10059,0,.10059.10065.20117,0,0-.10651.10071.10065.10071,0,0,0,0-.10651.10059-.10651h.10656c.10059.10651.30176.20716.40235.10651H69.25415c.20117,0,.30188.10065.40247-.10651.1007.20716.30774.10651.40832.10651H74.1311c.10059,0,.10059,0,.10059-.10651s.10059-.10064.20117-.10064a.10067.10067,0,0,1,.10071.10064v.10651c.10657,0,.30774-.10651.40832,0s.30787,0,.509.10065h7.422c.10065,0,.20118.20123.20118.30188-.10059.20715,0,.20715.10064.20715s.10065.10065.10065.20123v3.25525c0,.10065-.10065.20124-.10065.30182s.20124.10065.10065.20123v.509c0,.10064.10065.30774.10065.40838v.00019a.10069.10069,0,0,0,.10064.10064l.00586-.00018h0c.20124,0,.20124.20117.10065.20117-.20715.20722-.10065.40839-.10065.59186v.40839a.37854.37854,0,0,0,.10077.20727l.10047.10047v-.20716c0-.10064,0-.10064.10064-.20123h.20118c.20721.10065.3078.30774.509.509l.10065.10065c.1065.10065.1065.10065.20715,0,0-.10065.10065-.10065.20123,0s.10065.10065,0,.20123-.10064.10651,0,.20716.10065,0,.20124,0l.1065-.10065c0-.10651.10065-.10651.20123,0s0,.10065,0,.10065c-.10064.10064,0,.10064,0,.20123,0,0,.10059.10059,0,.10059H85.412a2.11953,2.11953,0,0,0-.50855.30828l.03.03461c-.10058,0-.10058.10065-.20117.10065-.20715,0-.20715.10064,0,.20123a.83931.83931,0,0,0-.25458-.03863A.85734.85734,0,0,0,84.21716,60.91382Zm-.3313,15.95489-.00036.0008c-.00025.02618-.008.03759-.02045.04278-.05163.10834.00891.27613-.07977.36481a.10071.10071,0,0,1-.10065.10065c-.10065,0-.10065-.10065-.10065-.20124s0-.10058.10065-.20715c.07355-.07782.14618-.04279.18042-.05707a.13846.13846,0,0,1,.02045-.04278l.0003-.0008Zm-.20117-8.943v.00006c-.10064.10065-.10064,0-.10064-.10065a.1006.1006,0,0,1,.10064-.10058C83.78534,67.72449,83.68469,67.82507,83.68469,67.92566ZM43.13037,77.277v-.20117c.10657-.10657.10657,0,.10657,0a.34856.34856,0,0,0,.10058.20111l.00013.00006c0,.10065,0,.10065-.10071.10065S43.13037,77.37769,43.13037,77.277ZM48.83,50.95117h.00012a.10057.10057,0,0,1,.10058-.10065h.30774c-.1007,0-.1007.10065-.20715.10065a.13617.13617,0,0,1-.19238.009l-.00879-.00885ZM84.749,86.73212a.36344.36344,0,0,0-.04821.00317l.00189-.00018c-.10651,0-.10651-.10065,0-.10065,0-.10065.10064-.10065.20123,0,.10065,0,.10065.10065.10065.20123A.36557.36557,0,0,0,84.749,86.73212Zm.86512.29889a.13614.13614,0,0,1-.19226.009l-.00886-.00885-.1007-.10071c-.10657,0-.10657,0-.10657-.10065s.10657,0,.10657,0h.10058c.10065,0,.10065-.10064.20124,0S85.61414,86.93042,85.61414,87.031Zm.6925-27.03028a.10066.10066,0,0,1-.10065-.10064v.00006l-.00018-.006a.10074.10074,0,0,1,.10065-.10065h.00018c.10651,0,.10651,0,.10651.10657a.09793.09793,0,0,1-.09479.101Zm7.83026,8.9668c.10065.10065.10065.10065.20123,0-.10064.10065-.10064.30182-.30773.20123-.10065,0-.10065,0-.10065.10059,0,0,.10065.10657,0,.10657a.50989.50989,0,0,0-.09955.50665l-.0011-.00354v.81677a.56793.56793,0,0,0-.00378.06671.58928.58928,0,0,0,.10565.33765l-.00128-.002c0,.1065.10064.20715,0,.30773a.10062.10062,0,0,0,.10064.10065c.10651,0,.10651.10065,0,.10065-.20123.20715-.10064.509-.10064.81677,0,.10065,0,.10065.10064.10065s.20716.10058.10651.30182c-.10651.40838-.40839.59185-.59186,1.018l-.1065.10059c0,.10065,0,.10065.1065.10065s.10065-.10065.20124,0c0,.10656,0,.20715-.10065.20715h-.10065c0,.10065.10065,0,.10065.10065.10065,0,.20123,0,.20123.10064s-.10065.20124-.20123.10065c0,.20715-.20715.30774-.30774.40839s-.20123.30181-.40241.509c-.10656.10058-.10656.10058-.20715,0q-.1539-.31376-.30188,0l-.30774.30182c-.10064.10064-.10064.10064-.20123,0h-.10065c-.1065.20715-.30774.20715-.40832.30774-.10065,0-.10065.10064-.20124.20123v.10065h.10065c.10065-.10065.20117-.10065.30182-.20124h.10065v.10065c-.10065.10065-.20124.30774-.40241.40839,0,0-.10064.10058-.10064,0v-.20124s-.10657,0-.10657.10065v.15387c0,.10065,0,.10065-.10059.20123s-.20123.30774-.509.20716v.10064c0,.10065,0,.10065-.10065.10065a.10067.10067,0,0,0-.10065.10065.10071.10071,0,0,1-.10064.10065c-.10059,0,0-.10065,0-.10065s0-.10065-.10059,0-.20721,0-.20721.10065-.10059.1065-.10059.20715c-.20123.10065-.30188.30182-.509.509-.10065.10065-.20123.20123-.30188.20123s-.10059,0-.10059.10065l-.59186.91736a3.77735,3.77735,0,0,0-.39868.686l-.0097.02423h-.10065a.10062.10062,0,0,0-.10065-.10064s-.1065.10064,0,.10064c0,.10065,0,.10065-.1065.20124-.20123.10064-.10065.40838-.30188.509-.10065.10065-.10065.20123-.20123.20123l-.10651.10651a.21918.21918,0,0,1-.2005.20117l-.00079.00006a.10063.10063,0,0,1-.10065.10065c0,.10065,0,.10065-.10059.20123,0,0,0,.10651-.10064.10651a.10662.10662,0,0,1-.10657-.10651c0-.10065,0-.10065.10657-.10065.10064-.10064.10064-.10064.10064-.20123-.10064-.20123-.10064-.40839-.20721-.509v-.10059a.5148.5148,0,0,0,.20721-.40814v-.00024c0-.20124.10059-.40247.10059-.71027v-.10065a1.43465,1.43465,0,0,0,.20062-.58508l.00061-.00678c0-.10058.10065-.10058.10065-.20715s.1065-.10065,0-.20117c-.10065,0-.10065-.10065-.10065-.20123V77.2774c-.00445-.05011-.00708-.10833-.00708-.16717a1.974,1.974,0,0,1,.11194-.65747l-.00427.01385c.1065-.509.1065-.91735.20715-1.42645V72.90948c.00256-.06494.004-.14123.004-.21783a5.95423,5.95423,0,0,0-.10919-1.12976c-.00843-.18463-.10193-.289-.10193-.48724,0-.30188-.10065-.50306-.10065-.71027v-.10059a.3137.3137,0,0,0-.00037-.40881l.00037.00043v-.10065c.10065-.10065,0-.30188.10065-.509-.20123-.10065,0-.30188,0-.40241v-.59186c-.10065,0-.10065-.10656-.10065-.20721s0-.10059.10065-.10059a.1835.1835,0,0,0,.00061-.30145l-.00061-.00043c-.10065-.1065-.20123-.20715,0-.30773v-.82862a.36413.36413,0,0,0,.003-.04748.37768.37768,0,0,0-.10376-.26044l.00018.00018v-.69836c.10065-.10065,0-.20123,0-.30774v-.40247a4.08185,4.08185,0,0,0,.09784-.48486l.00287-.02405a.38273.38273,0,0,0,.00244-.04345.38922.38922,0,0,0-.10333-.26459l.00024.00024v-.59186a.30774.30774,0,0,1,.00031-.40289l-.00031.00043v-.10065a.19523.19523,0,0,1-.00036-.30743l.00042-.00031a1.48768,1.48768,0,0,0,.10791-.56158,1.51631,1.51631,0,0,0-.00763-.15186c-.09973-.59051.00013-1.11651-.10034-1.725V57.76379c0-.20123-.10064-.40838-.10064-.59185v-.10065c-.20118,0-.10065-.10065-.10065-.20715a2.17569,2.17569,0,0,0,.07465-.57233,2.26231,2.26231,0,0,0-.01612-.26648c-.00146-.19989-.09991-.4054-.09991-.58759v-.40838c0-.10059-.10065-.20117,0-.30182v-.10065c0-.1065-.10065-.20715,0-.30774s-.20124-.20123-.10065-.30182,0-.20721.10065-.3078c0-.10058,0-.10058-.20124-.10058a.52155.52155,0,0,0,.12323-.54218l.0011.0036V50.70294c0-.10065,0-.20123-.20715-.20123s-.30188-.10059-.509-.10059c-.40241,0-.71021-.20721-1.01209-.20721s-.509-.20117-.7102-.20117c-.10657,0-.20716-.10065-.10657.10064,0,.10059,0,.10059-.10059,0a5.20724,5.20724,0,0,1-1.2561-.21063l.0368.0094c-.20117-.10065-.509,0-.7102,0H72.303c-1.42627-.10065-2.84668,0-4.27319,0H65.59131c-.02429.00165-.05274.00256-.08154.00256a1.3093,1.3093,0,0,1-.51343-.1054l.00317.00219-.00854-.00329.00537.0011a.35337.35337,0,0,0-.25318-.10724.35935.35935,0,0,0-.04724.00311l.00183-.00018H61.73853a.34618.34618,0,0,0-.04639-.00293.36562.36562,0,0,0-.26135.10943l-.00013.00006c.20728.40241.10059.40241-.10058.40241H51.46362c-.30175,0-.59179.10065-.91137.10065H43.45c-.03467-.00263-.07519-.00409-.116-.00409a1.64645,1.64645,0,0,0-.60546.11444l.01123-.00385a4.891,4.891,0,0,1-1.01954.10456c-.07031,0-.14013-.00141-.20983-.00434l.01.00031h-.82862c.10071.20123-.10071.20123-.20129.30188-.10059,0-.20117.10064-.10059.20715v2.63965c0,.10065.10059.20123.10059.30774-.10059,0-.10059,0-.10059.10065s-.10058.20123.10059.30188v.10064c-.10059,0-.10059,0-.10059.10651V55.787c.10059.30188-.10058.509,0,.81079,0,.20123.10059.40838.10059.59186v.10064c-.20117,0-.10059.10065-.10059.20716,0,.30188-.10058.59185-.10058.91156v1.62762c.00268.06525.00439.14185.00439.21881a5.55075,5.55075,0,0,1-.11719,1.137l.00623-.03589v.20117c0,.20721-.10071.40838,0,.59186-.00159.02368-.00256.0512-.00256.079a1.2549,1.2549,0,0,0,.11059.51544c.09631.09979-.00146.19946-.00146.29925,0,0-.10657.10065,0,.10065a.31364.31364,0,0,1-.00049.40881l.00049-.00042c0,.10064-.10657.20117,0,.30182s0,.20715,0,.30774a2.54682,2.54682,0,0,0-.03992.45574,2.635,2.635,0,0,0,.04224.47175l-.00245-.01606V66.192a3.15922,3.15922,0,0,0-.04016.509,3.26575,3.26575,0,0,0,.04273.52777l-.00257-.0188v.71027c0,.10058.10071.20715,0,.30774s0,.30181,0,.4024-.10656.30774.10071.40839v.10064c-.20727,0-.10071.10651-.10071.10651v.20123c0,.10065,0,.20124.2013.10065h.20117v.10065c-.10059.10058-.10059.20715-.20117.10058-.10071,0-.10071.10657-.10071.20722s0,.20117.10071.20117.10058,0,.10058-.10065.10059-.10058.20118,0v.10065c-.10059,0-.10059.20123-.30176.20123-.509,0-.509.10651-.509.10651,0,.10064-.10071.30188-.10071.40246v.30774a2.15089,2.15089,0,0,0-.03772.40546,2.20536,2.20536,0,0,0,.04.41919l-.00232-.01386v1.62763c0,.10065.10071.20123.10071.30188,0,.20715.10058.40838,0,.59186v.81671c-.10071.30188,0,.59186-.10071.91156a.37344.37344,0,0,0,.10071.30786v.59173c0,.40833.10058.8108.10058,1.31989v.30774c0,.10059,0,.10059-.10058.10059s-.10071.10064,0,.20123.10058.30774.20117.40838a8.03535,8.03535,0,0,0,.31384.82392c.08386.10406-.006.29822-.006.39532-.10071.40839-.10071.71027-.2013,1.11866,0,.10058,0,.10058.10071.10058s.20117,0,.10059.20123v.55042h-.10059c-.10071,0-.10071-.10059-.10071-.20117-.10656-.20716-.10656-.30774-.20715-.509,0-.10064-.20117-.10064-.30176-.20715a1.71269,1.71269,0,0,1-.416-.49445l-.0044-.00866-.10058-.10657a.10053.10053,0,0,1-.10059-.10065c0-.10058-.10071-.30182-.10071-.4024v-.10651c.10071-.10064,0-.20123-.10656-.30188a1.35033,1.35033,0,0,0-.18311-.15106V80.124c0,.10059-.10059,0-.10059,0h-.213c0-.09692.09949-.09961.19666-.09973l-.00171-.00073c-.10071,0-.10071-.10651-.10071-.10651-.10657-.10064-.20715-.10064-.40832-.10064h-.08875a.36632.36632,0,0,1-.10364-.2555.37387.37387,0,0,1,.00318-.04821l-.00013.00189c-.10656-.20722-.30774-.30774-.40832-.509,0-.10064-.10071-.10064-.2013-.10064a.10654.10654,0,0,1-.10656-.10651.10054.10054,0,0,0-.10059-.10065c-.10058,0-.20117-.10064-.20117-.30188,0-.10058,0-.30774-.20117-.30774,0,0-.10669,0-.10669-.10058,0-.20123-.20117-.30188-.40235-.40839-.10058,0,0-.10064,0-.10064v-.10065h-.10058s-.10657.10065-.10657,0v-.6333s-.10071-.10059-.10071,0c-.10058,0,0,.10064,0,.10064v.10065c-.10058,0-.10058,0-.10058-.10065-.10059-.10064-.10059-.30181-.30774-.4024,0,0-.10071-.10657,0-.10657,0,0,.10657-.10058.10657,0,.10058.10657.20117.10657.30175.20722H36.016v-.10065l.00012-.006a.10069.10069,0,0,0-.10058-.10065h-.00025a.52612.52612,0,0,0-.39965-.18353l-.00867.00012h0c-.10071-.20117-.2013-.10058-.30188,0,0,0-.10059.10065-.10059,0-.10058-.10058-.10058-.10058-.20727,0-.10645.10065-.20118.10065-.20118,0a.10057.10057,0,0,0-.07031-.09448l-.00073-.00018-.13013.09466c0,.10065-.1007.20123-.1007.30774a.10654.10654,0,0,1-.10657-.10651c0-.10064,0-.10064-.20117-.20123-.10059,0-.10059-.10058,0-.20117a.1006.1006,0,0,0,.10058.10059V75.845a.46835.46835,0,0,0-.43262-.29034.47662.47662,0,0,0-.0791.00659l.00281-.00043c.10657,0,.10657-.10064.20715-.10064v-.10059c0-.10657-.10058,0-.10058,0H33.6781v-.10657c0-.10065,0-.10065-.10071-.20117s-.30176-.10065-.40234-.30188c0-.10651,0-.20715.10058-.20715h.20118a.10065.10065,0,1,0,0-.2013c-.10059,0-.10059,0-.10059-.10064,0,0-.10059-.10065,0-.10065h.10059c.1007,0,.20129,0,.20129-.10651s-.10071-.20123.10657-.20123c-.10657-.10059,0-.20117.10058-.30182s.10059-.10651.20118,0c0,0,.1007.10065.1007,0s0-.10651-.1007-.10651a.10068.10068,0,0,1-.10059-.10064c0-.10065-.10059-.10065-.10059,0-.10058.10064-.10058,0-.20727,0,0,0,.10669,0,.10669-.10065.10058,0,.10058-.10065,0-.10065-.10669-.10064-.10669-.20123,0-.20123,0,0,.10058-.10651,0-.10651H33.678c-.10059.10651-.20117.20716-.30176.20716V72.921s.10059-.10651,0-.10651H33.376a.10061.10061,0,0,0-.10059.10065l.00024.00586h0v0a.10072.10072,0,0,1-.1007.10065c-.10657,0,0-.10065-.10657-.10065,0-.10651-.10059-.10651-.10059-.20715s0-.10065.10059-.10065.10657-.10065,0-.10065c-.20117-.10064-.10059-.20715-.20117-.30774l.10058-.10064s.10071-.10059,0-.10059l.001-.01361a.10058.10058,0,0,0-.10059-.10065l-.019.00183c-.20068.10035-.20093-.00012-.30151-.1007V71.6839h.219c.10059,0,.30176.20709.40833-.10053a.36565.36565,0,0,1-.06482.00562.37192.37192,0,0,1-.26074-.10632l.00012.00006c-.10071-.10065-.10071-.10065-.20117-.10065.10058-.20123,0-.40839.10058-.59186V69.642c0-.10065-.10058-.20124,0-.30188,0,0-.10058-.10651-.10058,0-.20716,0-.20716-.10651-.20716-.20716H32.666c-.30774-.08288-.30774-.29-.20716-.49719v-.17755a.35479.35479,0,0,1,.1095.25641.35917.35917,0,0,1-.00317.04718l.00024-.00183v.10657l.10059.10064v-2.2846c0-.10065,0-.10065-.10059-.10065s-.10657,0-.10657-.10065,0-.20715.10657-.20715a.10062.10062,0,0,0,.10059-.10065c0-.10065,0-.10065-.10059-.10065s-.10657,0-.10657-.10064V65.262c0-.20715.10657-.30774,0-.509v-.10065c.20716,0,.10657-.1065.10657-.1065,0-.20124-.10657-.40241,0-.59186v-.10065c0-.10065-.10657-.10065,0-.20123.10059,0,0-.10065,0-.10065-.10657-.10058-.20728-.20715,0-.20715.10059,0,0-.10065,0-.10065a.3426.3426,0,0,1-.10632-.19922l-.00025-.002v-.10065c.10657,0,.10657-.10064.20716-.20715V62.634c-.10059,0-.10059-.10064,0-.20123s0-.20715.10058-.20715a.10053.10053,0,0,0-.10058-.10065c-.10059,0-.10059-.10065,0-.10065,0,0,.10058-.10064,0-.10064-.20716-.20118,0-.40839-.20716-.59186v-.213s.10657-.10656,0-.10656c-.10071-.10065,0-.10065,0-.10065.10657,0,.10657-.10065,0-.20117v-.10065c.10657-.10065,0-.20715,0-.40839a.10072.10072,0,0,0-.10071.10065h-.10058a.21928.21928,0,0,1,.20044-.20117l.00085-.00006c.10657,0,.10657,0,.10657-.10065v-.30774h-.10657c-.10071,0,0,.10065,0,.10065-.20129,0-.20129-.21307-.20129-.30188v-.59186c0-.10058,0-.20715.20129-.10058.10657.10058.20716-.10657.10657-.10657V56.74487h-.20728v-.12426a.10064.10064,0,0,0,.10071-.10065c.10657-.10065.10657-.10065,0-.20117,0,0-.10071,0,0-.10657,0-.10065,0-.20117.10657-.20117s.10059-.10065.10059-.20124,0-.20715-.20716-.30773V55.437c.20716-.10065.10657-.20123.10657-.30774a2.07022,2.07022,0,0,1-.111-.67541q0-.07142.00476-.14179l-.00049.00641V53.28864c-.00269-.05469-.00415-.11878-.00415-.18323a4.01941,4.01941,0,0,1,.11645-.96295l-.00561.02752V50.24054c0-.10065,0-.20123.10059-.20123s.10058,0,0-.10065V49.838s-.10059-.1065,0-.1065.10058,0,.10058.1065a.09736.09736,0,0,0,.083.09326V49.838a1.5131,1.5131,0,0,1-.19263-.74395,1.54308,1.54308,0,0,1,.00977-.1745l-.00073.007v-.10064c-.10059-.20716,0-.40839,0-.59186V47.09174c0-.10065.1007-.10065,0-.20124V46.784c.18359-.10065.1007-.10065,0-.22492s0-.20123,0-.30188.20129,0,.1007-.1065c0-.077-.1007-.077-.1007-.18348a.10065.10065,0,1,0,0-.20129c0-.10651,0-.10651.1007-.10651s.08289.00592.08289-.09466,0,0-.10059,0a.10057.10057,0,0,1-.10058-.10065V43.63525c0-.20123,0-.20123.20117-.20123.10059,0,.10059-.10065.10059-.20715,0,.1065.10058.1065.20715,0,.3197-.10065.52087-.219.82861-.30182h.30188c.03467.00238.07532.00378.11621.00378a1.77293,1.77293,0,0,0,.61219-.10833l-.01233.004c.20117-.10064.40234,0,.59179,0a2.12112,2.12112,0,0,0,.40247.03748,2.18887,2.18887,0,0,0,.41614-.03974l-.01368.00226h.10059c.20728.20117.40845.10065.59192,0a2.49619,2.49619,0,0,0,.75671-.41229l-.00512.00385H66.20081c.10656,0,.20715.10064.30773.10064.28882.024.62525.03772.96473.03772.33191,0,.66064-.014.986-.03967a2.16919,2.16919,0,0,1,.38721-.03577,2.24884,2.24884,0,0,1,.42224.03986l-.01392-.0022c.20117,0,.30188.10065.50305,0h2.8468a4.79125,4.79125,0,0,1,.60962-.03772,4.99478,4.99478,0,0,1,.63416.04029l-.02466-.00257h3.65772c.509,0,.94116-.10065,1.42651-.10065H88.6618a1.918,1.918,0,0,1,.72693.2063l-.01086-.005h.20123a5.37985,5.37985,0,0,0,1.101.1109q.11546,0,.2298-.00476l-.01092.00036h1.018a1.0849,1.0849,0,0,0,.46192.10163l.04931-.0011-.00232.00012h.59186c.10065,0,.20123.20117.20123.40241v1.93536c0,.10065,0,.20123-.10064.10065H93.0177a.1007.1007,0,0,0,.10065.10064c.10064,0,.20123-.10064.20123.10065a.38185.38185,0,0,1,.00244.0434.38951.38951,0,0,1-.10333.26465l.00024-.00025c-.10064.10065-.10064.10065,0,.10065s.10065.30182,0,.30182c-.10064.10656-.20123.20715,0,.20715,0,0,.10065.10065,0,.10065s-.10064.10064,0,.10064.10065.10065.10065.20124v.40838a1.10481,1.10481,0,0,0-.07562.40546,1.12,1.12,0,0,0,.07831.413l-.00263-.00757v.1065c-.10065.20124,0,.50312-.10065.71027,0,.10065-.10064.20117-.10064.30182,0,0,0,.10657-.10065.10657l-.10059.10058v.10065h.10059V49.3291a.10069.10069,0,0,1,.10065-.10058c.10064,0,0,.10058,0,.10058-.10065.10065-.10065.20123.10064.20123a.10063.10063,0,0,1,.10065.10065v2.036c.10065.30188,0,.50305.10065.81079a4.53628,4.53628,0,0,1,.04.60962,4.71277,4.71277,0,0,1-.04267.63373l.00269-.02411c.0025.03485.00384.07538.00384.11627a1.737,1.737,0,0,1-.10669.59632l.0022-.00238-.00391.01208.00171-.0097c-.09985.1-.19665.20556.10285.30536.1065,0,0,.10064,0,.10064.40838.9115.40838,1.01795.40838,1.31989.10065,0,0-.10065.10065-.10065s.10059.10065.10059.20123c0,0,0,.10651-.10059,0s-.10065,0-.10065.10651c0,.20123-.10064.50305,0,.71021v.10064a.65176.65176,0,0,0,.00171.59546l-.00171-.0036V57.846a2.13726,2.13726,0,0,0-.03772.40545,2.2111,2.2111,0,0,0,.03882.407c.00171.10382.10041.10492.20008.10492.10656-.10657.10656,0,.20721.10064v.81079c0,.10065-.10065.10065-.20721.10065v-.10065c0-.10064,0-.10064-.10059-.10064a.10063.10063,0,0,0-.10065.10064v.30774c0,.10065,0,.10065.10065,0,.10059,0,.30774.10065.30774.20124s0,.10064-.10065,0l-.10656-.10065c-.10059.10065-.10059.20117,0,.40839v.10064s-.10059.10059,0,.10059c.10656.10064.10656,0,.20721,0h.10065c0,.20123.10058.40838-.10065.59186a.14215.14215,0,0,0-.00037.201l.00037.00031c0,.10065,0,.10065-.10065.10065a.10661.10661,0,0,0-.10656.1065v.10065c.10656,0,.10656,0,.10656-.10065,0,0,0-.1065.10065-.1065s0,.1065,0,.1065v.10065c0,.10065.10065.30188-.20721.10065a.10061.10061,0,0,0-.10059.10064c0,.10065.10059.30774.20715.30774-.10656.10065-.10656.20124-.20715.20124-.10065.10058,0,.10058,0,.20117s0,.10657.10059.10657h.10656c0,.10064,0,.10064-.10656.10064H93.9292l-.10065.10059c0,.10065.10065,0,.10065,0,.10059,0,.20715.20123.20715.30188v.81677a1.83347,1.83347,0,0,1,.20246.84351q0,.03579-.00135.07135l.00013-.00342.00054.03595v.20715c.10065.10065,0,.20123,0,.30188s.10065.20117,0,.30774c.10065.20117-.10064.30182-.10064.509,0,.10059-.10065.20118-.20716.10059-.10064,0-.10064,0-.10064.10065v2.03009a.10069.10069,0,0,0,.10064.10064l.006.00019a.10069.10069,0,0,0,.10058-.10065v-.00018a.358.358,0,0,1-.00287-.04639.36576.36576,0,0,1,.10364-.25555l-.00012.00012a.10067.10067,0,0,1,.10065-.10065c.10064,0,0,.10065,0,.10065v.12427a.28415.28415,0,0,1-.17157.51062l-.031-.00171Zm-53.439-9.06744a.10068.10068,0,0,1-.10071.10064c-.10059,0-.10059,0-.10059-.10064s0-.10657.10059-.10657S40.69788,59.79352,40.69788,59.90009ZM33.47717,73.19324c0,.10064.2013.10064.10071.30774a.14209.14209,0,0,1-.20093.00036l-.00049-.00036C33.27588,73.29382,33.37646,73.19324,33.47717,73.19324Zm60.571-16.572c-.20124,0-.20124,0-.20124-.10065C93.94757,56.52057,94.04816,56.52057,94.04816,56.62122Z" style="fill: #802f22"/>
      </g>
    </g>
  </g>
</svg>
