<svg xmlns="http://www.w3.org/2000/svg" viewBox="0 0 119.99927 58.96729">
  <title>doc</title>
  <g id="Layer_2" data-name="Layer 2">
    <g id="Layer_1-2" data-name="Layer 1">
      <g>
        <path d="M119.99927,15.019v-15H103.967V0A29.41438,29.41438,0,0,0,81.98328,9.86414a29.42892,29.42892,0,0,0-43.96729,0A29.41376,29.41376,0,0,0,16.03247,0H0V15H16.03247a14.48365,14.48365,0,0,1,0,28.96729H0v15H16.03247A29.41333,29.41333,0,0,0,38.016,49.10291a29.42844,29.42844,0,0,0,43.96729,0A29.414,29.414,0,0,0,103.967,58.96729h16.03223v-15H103.967A14.48365,14.48365,0,1,1,103.967,15v.019ZM59.99976,43.96729A14.48365,14.48365,0,1,1,74.48315,29.4834,14.50044,14.50044,0,0,1,59.99976,43.96729Z" style="fill: #fff"/>
        <path d="M59.99908,31.2808a1.55128,1.55128,0,0,0,1.53869-1.5215V27.07056h0a1.53947,1.53947,0,1,0-3.0787,0h0V29.7593A1.55421,1.55421,0,0,0,59.99908,31.2808Zm4.91482-6.97566c-.95441,0-1.60875.67021-2.42436,1.07338-.05552.02909-.11633.05553-.17713.082v4.29485a2.31347,2.31347,0,1,1-4.62665-.0423V25.46048c-.05948-.02644-.12029-.0542-.17713-.082-.81429-.40317-1.46863-1.07338-2.42436-1.07338a2.43737,2.43737,0,0,0-2.24194,3.24A2.835,2.835,0,0,0,54.147,28.97806a7.64321,7.64321,0,0,1,1.82687,1.65633A7.83922,7.83922,0,0,1,57.48352,33.959a18.74769,18.74769,0,0,1,.234,1.86916,2.28278,2.28278,0,0,0,4.56452,0c.04891-.53272.119-1.29546.234-1.86917a7.88,7.88,0,0,1,1.50961-3.32457,7.699,7.699,0,0,1,1.82687-1.65634,2.85118,2.85118,0,0,0,1.30471-1.43294A2.4377,2.4377,0,0,0,64.9139,24.30514Z" style="fill: #fff"/>
      </g>
    </g>
  </g>
</svg>
