<svg xmlns="http://www.w3.org/2000/svg" viewBox="0 0 46.42 55.7"><g id="Layer_2" data-name="Layer 2"><g id="Layer_1-2" data-name="Layer 1"><path d="M45.78,27.33a2.19,2.19,0,0,0-1.6-.65H40v-10a16.06,16.06,0,0,0-4.91-11.8A16.09,16.09,0,0,0,23.25,0,16.24,16.24,0,0,0,11.41,4.91a16,16,0,0,0-4.95,11.8v10H2.24a2.16,2.16,0,0,0-1.59.65A2.16,2.16,0,0,0,0,28.92V53.46a2.16,2.16,0,0,0,.65,1.59,2.13,2.13,0,0,0,1.59.65H44.18a2.2,2.2,0,0,0,2.24-2.24V28.92A2.16,2.16,0,0,0,45.78,27.33Zm-13.36-.65H14V16.75a8.8,8.8,0,0,1,2.69-6.46A8.17,8.17,0,0,1,23.27,7.6a8.06,8.06,0,0,1,6.45,2.69,8.81,8.81,0,0,1,2.7,6.46Z" style="fill:#fff"/></g></g></svg>