<svg xmlns="http://www.w3.org/2000/svg" viewBox="0 0 31.98758 21.97729">
  <title>roster-admin</title>
  <g id="Layer_2" data-name="Layer 2">
    <g id="Layer_1-2" data-name="Layer 1">
      <g>
        <g id="Layer_1-2-2" data-name="Layer 1-2">
          <path d="M31.98758,16.32529l-1.85665.30774a4.59791,4.59791,0,0,1-.56418,1.37453l1.09758,1.5284-1.11808,1.11809-1.5284-1.09758a4.59788,4.59788,0,0,1-1.37453.56417l-.30774,1.85665H24.7559l-.30774-1.85665a4.61493,4.61493,0,0,1-1.36427-.56417l-1.52841,1.09758L20.4374,19.536l1.09758-1.5284a4.5216,4.5216,0,0,1-.57443-1.37453l-1.85665-.30774V14.74561l1.85665-.30774A4.53037,4.53037,0,0,1,21.535,13.0736L20.4374,11.5452l1.11808-1.11809,1.52841,1.09758a4.89934,4.89934,0,0,1,1.36427-.57443l.30774-1.85665h1.57968l.30774,1.85665a5.2354,5.2354,0,0,1,1.37452.57443l1.52841-1.09758,1.11808,1.11809-1.09758,1.5284a4.61507,4.61507,0,0,1,.56418,1.36427l1.85665.30774Zm-6.44184,2.12335a2.90858,2.90858,0,0,0,2.05667-4.96986,2.90858,2.90858,0,1,0-4.11334,4.11334,2.80469,2.80469,0,0,0,2.05667.85651Z"/>
        </g>
        <path d="M17.82227,19.74908l1.03271-1.4375-1.751-.29V13.103a8.62942,8.62942,0,0,0-2.33172,1.63214l.00555-.01514a8.47389,8.47389,0,0,0-6.06122-2.42444A8.40758,8.40758,0,0,0,2.54,14.83551,8.40765,8.40765,0,0,0,0,21.01215H19.08533Z"/>
        <path d="M8.74548,10.44836a5.03405,5.03405,0,0,0,3.69446-1.52972,5.03406,5.03406,0,0,0,1.52973-3.69446,5.034,5.034,0,0,0-1.52973-3.69446A5.03386,5.03386,0,0,0,8.74548,0,5.03374,5.03374,0,0,0,5.051,1.52972,5.03375,5.03375,0,0,0,3.5213,5.22418,5.03383,5.03383,0,0,0,5.051,8.91864,5.03393,5.03393,0,0,0,8.74548,10.44836Z"/>
        <path d="M19.05072,10.10364l2.29205-2.29206L22.771,8.837l.28906-1.74317h2.68976A5.09653,5.09653,0,0,0,26.092,5.25305a5.25907,5.25907,0,0,0-.69269-2.65539,5.0306,5.0306,0,0,0-1.905-1.905A5.25917,5.25917,0,0,0,20.839,0a5.0002,5.0002,0,0,0-3.66553,1.52972,5.03383,5.03383,0,0,0-1.52978,3.69446,5.03391,5.03391,0,0,0,1.52978,3.69446A4.99789,4.99789,0,0,0,19.05072,10.10364Z"/>
      </g>
    </g>
  </g>
</svg>
