<svg xmlns="http://www.w3.org/2000/svg" viewBox="0 0 29.55558 21.01217">
  <title>roster</title>
  <g id="Layer_2" data-name="Layer 2">
    <g id="Layer_1-2" data-name="Layer 1">
      <path d="M12.46876,21.01217H0a8.40771,8.40771,0,0,1,2.53993-6.17666,8.40774,8.40774,0,0,1,6.17666-2.53993,8.47371,8.47371,0,0,1,6.0612,2.42448ZM8.74545,0A5.03382,5.03382,0,0,1,12.4399,1.52973a5.03382,5.03382,0,0,1,1.52973,3.69445A5.03382,5.03382,0,0,1,12.4399,8.91863a5.03382,5.03382,0,0,1-3.69445,1.52973A5.03382,5.03382,0,0,1,5.051,8.91863,5.03382,5.03382,0,0,1,3.52127,5.22418,5.03382,5.03382,0,0,1,5.051,1.52973,5.03382,5.03382,0,0,1,8.74545,0ZM20.839,0a5.259,5.259,0,0,1,2.65539.69271,5.03085,5.03085,0,0,1,1.90495,1.905A5.25907,5.25907,0,0,1,26.092,5.253,5.00043,5.00043,0,0,1,24.5623,8.91863a5.22608,5.22608,0,0,1-7.38889,0,5.03382,5.03382,0,0,1-1.52973-3.69445,5.03382,5.03382,0,0,1,1.52973-3.69445A5.00041,5.00041,0,0,1,20.839,0Zm8.71659,21.01217H12.12241A8.67225,8.67225,0,0,1,20.839,12.29558a8.67225,8.67225,0,0,1,8.71659,8.71659Z"/>
    </g>
  </g>
</svg>
