<svg xmlns="http://www.w3.org/2000/svg" viewBox="0 0 22.98302 24.52155">
  <title>seal-title</title>
  <g id="Layer_2" data-name="Layer 2">
    <g id="Layer_2-2" data-name="Layer 2">
      <g>
        <path d="M11.49981,3.56192A8.7002,8.7002,0,1,0,20.2,12.26211,8.71028,8.71028,0,0,0,11.49981,3.56192Zm7.29981,8.70019a7.29981,7.29981,0,1,1-7.29981-7.2998A7.30774,7.30774,0,0,1,18.79962,12.26211Z" style="opacity: 0.5"/>
        <circle cx="11.5002" cy="12.26264" r="1.5"/>
        <circle cx="11.5002" cy="8.26312" r="1.5"/>
        <circle cx="11.5002" cy="16.26312" r="1.5"/>
        <circle cx="7.49975" cy="10.26312" r="1.5"/>
        <circle cx="7.49975" cy="14.26312" r="1.5"/>
        <circle cx="15.49975" cy="10.26312" r="1.5"/>
        <circle cx="15.49975" cy="14.26312" r="1.5"/>
        <path d="M2.49377,16.66779c-.068-.1457-.20331-.42229-.29351-.67609a10.33846,10.33846,0,0,1,.24218-8.0528C5.6853,2.29211,9.12909,0,9.12909,0,5.84259.40448,3.62067,3.6236,3.62067,3.6236A21.04481,21.04481,0,0,0,3.29346.41711,30.91435,30.91435,0,0,1,1.08877,7.364,11.38466,11.38466,0,0,0,0,12.26257a11.24957,11.24957,0,0,0,.81593,4.26677c-.00006,0,.176.419.27284.6234a30.92282,30.92282,0,0,1,2.20469,6.95163A21.04322,21.04322,0,0,0,3.62067,20.898s2.22192,3.21912,5.50842,3.6236C9.12909,24.52155,5.72681,22.25024,2.49377,16.66779Z" style="opacity: 0.5"/>
        <path d="M20.48925,16.66779c.068-.1457.20331-.42229.29352-.67609a10.33852,10.33852,0,0,0-.24219-8.0528C17.29772,2.29211,13.85393,0,13.85393,0c3.2865.40448,5.50843,3.6236,5.50843,3.6236a21.04407,21.04407,0,0,1,.3272-3.20649A30.91435,30.91435,0,0,0,21.89425,7.364,11.38466,11.38466,0,0,1,22.983,12.26257a11.24957,11.24957,0,0,1-.81593,4.26677c.00006,0-.176.419-.27284.6234a30.92282,30.92282,0,0,0-2.20469,6.95163,21.04248,21.04248,0,0,1-.3272-3.20642s-2.22193,3.21912-5.50843,3.6236C13.85393,24.52155,17.25622,22.25024,20.48925,16.66779Z" style="opacity: 0.5"/>
      </g>
    </g>
  </g>
</svg>
