<svg xmlns="http://www.w3.org/2000/svg" viewBox="0 0 46.32455 55.12485">
  <title>seasons</title>
  <g id="Layer_2" data-name="Layer 2">
    <g id="Layer_1-2" data-name="Layer 1">
      <g>
        <g>
          <path d="M2.54454,25.549l-.0031-.0352c-.00828-.1087-.0145-.21739-.02071-.32609l-.00828-.15218-2.44516.17081-.0352.00311.03623.51346,2.441-.17081Z"/>
          <path d="M6.28889,35.8824c-.08489-.12009-.16977-.24328-.25259-.36543l-.01967-.03L3.9752,36.89483l.293.42444L6.3096,35.91242Z"/>
          <path d="M3.15428,29.10282c-.03209-.12112-.06418-.24224-.09317-.36336l-.00828-.0352-2.37166.60249L.647,29.31607l.12733.499,2.40789-.61181Z"/>
          <path d="M8.71749,38.74164l-.12008-.118c-.07454-.07247-.148-.14493-.2205-.21947l-.02485-.02588L6.6243,40.09776l-.02485.02485.36336.36646,1.73087-1.72155Z"/>
          <path d="M11.57881,41.09778l-.029-.01967c-.08282-.05694-.1646-.11594-.24534-.175l-.14493-.10456-1.41927,2.028.42236.29607L11.5581,41.1278Z"/>
          <path d="M14.8304,42.9156l-.03209-.01449c-.13562-.06108-.26916-.12423-.4027-.18737l-.03209-.01553-1.02175,2.20707-.01449.03209.46687.21636,1.02175-2.206Z"/>
          <path d="M4.44,32.695l-.01449-.03209c-.04348-.09421-.08593-.19048-.12733-.28675l-.06729-.15322L2,33.23226l-.03209.0145.21325.47,2.22674-1.00829Z"/>
        </g>
        <g>
          <path d="M43.8121,25.549l.0031-.0352c.00828-.1087.0145-.21739.02071-.32609l.00828-.15218,2.44516.17081.0352.00311-.03624.51346-2.441-.17081Z"/>
          <path d="M40.06775,35.8824c.08488-.12009.16977-.24328.25259-.36543l.01967-.03,2.04143,1.40685-.293.42443L40.047,35.91138Z"/>
          <path d="M43.20236,29.10282c.03209-.12112.06418-.24224.09316-.36336l.00828-.0352,2.37167.60353.03416.00931-.12733.499-2.4079-.61181Z"/>
          <path d="M37.63915,38.74164l.12008-.118c.07454-.07247.148-.14493.2205-.21947l.02485-.02588,1.72776,1.71948.02484.02485-.36336.36646L37.663,38.76752Z"/>
          <path d="M34.77783,41.09778l.029-.01967c.08281-.05694.1646-.11594.24534-.175l.14493-.10456,1.41927,2.028-.42236.29606L34.79853,41.1278Z"/>
          <path d="M31.52624,42.9156l.03209-.01449c.13561-.06108.26916-.12423.4027-.18737l.03209-.01553,1.02175,2.20707.0145.03209-.46688.21636-1.02175-2.206Z"/>
          <path d="M41.91559,32.695l.0145-.03209c.04348-.09421.08592-.19048.12733-.28675l.06729-.15322,2.23087,1.00933.03209.0145-.21325.47-2.22674-1.00829Z"/>
        </g>
        <path d="M7.76613,5.92243H4.84892V9.05186A23.48654,23.48654,0,0,0,0,21.376H2.51142A21.13232,21.13232,0,0,1,21.19382,2.51866V0A23.50458,23.50458,0,0,0,7.76613,5.92243Z"/>
        <path d="M40.40937,7.88V4.9483H37.31306A23.47475,23.47475,0,0,0,25.03859,0V2.5197A21.13234,21.13234,0,0,1,43.721,21.37706h2.51141A23.511,23.511,0,0,0,40.40937,7.88Z"/>
        <path d="M23.29323,49.81424a1.21485,1.21485,0,0,0,1.205-1.19153V46.5171h0a1.20559,1.20559,0,1,0-2.411,0h0v2.10561A1.21714,1.21714,0,0,0,23.29323,49.81424Zm3.8489-5.4628c-.74742,0-1.25985.52485-1.89857.84059-.04348.02277-.0911.04348-.13872.06418V48.6196a1.81173,1.81173,0,1,1-3.62323-.03313V45.25621c-.04658-.02071-.0942-.04244-.13871-.06418-.63769-.31574-1.15012-.84059-1.89858-.84059a1.90875,1.90875,0,0,0-1.75571,2.5373,2.22015,2.22015,0,0,0,1.02175,1.12216A5.98546,5.98546,0,0,1,20.141,49.308a6.139,6.139,0,0,1,1.18221,2.60355,14.67989,14.67989,0,0,1,.18323,1.46378,1.7877,1.7877,0,0,0,3.57458,0c.0383-.41719.09316-1.0145.18323-1.46379A6.171,6.171,0,0,1,26.44648,49.308a6.02925,6.02925,0,0,1,1.43065-1.29711,2.23285,2.23285,0,0,0,1.02176-1.12217A1.909,1.909,0,0,0,27.14213,44.35144Z"/>
        <path d="M30.35749,23.92884a7.69419,7.69419,0,1,0-7.69574,7.69471A7.69488,7.69488,0,0,0,30.35749,23.92884ZM22.66175,41.722a17.79317,17.79317,0,1,0-.001-35.58633M7.13569,23.92884a15.5271,15.5271,0,1,1,15.52606,15.5271A15.54376,15.54376,0,0,1,7.13569,23.92884Z"/>
      </g>
    </g>
  </g>
</svg>
