<svg xmlns="http://www.w3.org/2000/svg" viewBox="0 0 70.46 70.49"><path d="M70.46,39.56l-10.13,1.7a26.41,26.41,0,0,1-3.1,7.51l6,8.35-6.11,6.11-8.35-6a25.89,25.89,0,0,1-7.54,3.1L39.56,70.49H30.93l-1.7-10.16a25.94,25.94,0,0,1-7.45-3.1l-8.36,6L7.29,57.12l6-8.35a24.94,24.94,0,0,1-3.15-7.51L0,39.56V30.93l10.16-1.7a25.61,25.61,0,0,1,3.15-7.45l-6-8.36,6.13-6.13,8.36,6a28.35,28.35,0,0,1,7.45-3.15L30.93,0h8.63l1.67,10.16a29.82,29.82,0,0,1,7.54,3.15l8.35-6,6.11,6.13-6,8.36a25.94,25.94,0,0,1,3.1,7.45l10.13,1.7v8.63ZM35.23,51.18a15.5,15.5,0,0,0,8-2.15A16.13,16.13,0,0,0,49,43.2a15.85,15.85,0,0,0,0-15.94,16,16,0,0,0-5.83-5.81,15.59,15.59,0,0,0-8-2.14,15.38,15.38,0,0,0-6.16,1.28,15.73,15.73,0,0,0-8.48,8.48,15.38,15.38,0,0,0-1.28,6.16,15.59,15.59,0,0,0,2.14,8A16,16,0,0,0,27.26,49a15.52,15.52,0,0,0,8,2.15Z"/></svg>