<svg xmlns="http://www.w3.org/2000/svg" viewBox="0 0 88.18 90.92"><path d="M38.15,65.05H50a5.07,5.07,0,0,0,3.9-1.77l7.26-9.22a4.73,4.73,0,0,0,1.07-4.25L59.07,36V24.81a4.74,4.74,0,0,1,1.77-3.9l8.68-6.73c1.19-1.06,2.31-.95,3.37.35L83,27.3q1.61,1.77-.35,3.36L69.7,40.94a1.06,1.06,0,0,0-.53,1.16,1.2,1.2,0,0,0,1.06.79l16,3.73a2.16,2.16,0,0,1,1.59,1.06,2.44,2.44,0,0,1,.35,1.77q-3.72,16.13-3.89,16.84c-.24.94-1.13,1.24-2.66.89L65.45,63.63c-.59-.24-1-.18-1.24.18a1.47,1.47,0,0,0,0,1.42L71.3,80.11a2.1,2.1,0,0,1-1.07,3.19q-14.88,7.1-15.59,7.45c-.83.47-1.6-.06-2.31-1.6L45.06,74.44c-.23-.59-.56-.88-1-.88s-.8.29-1.15.88L35.85,89.15c-.71,1.54-1.48,2.07-2.31,1.6L18,83.3a2.22,2.22,0,0,1-1.24-3.19L24,65.23a1.47,1.47,0,0,0,0-1.42c-.23-.36-.71-.42-1.42-.18L6.6,67.18c-1.53.35-2.42,0-2.66-.89L0,49.45A2.44,2.44,0,0,1,.4,47.68a2.08,2.08,0,0,1,1.42-1.06L18,42.89A1.2,1.2,0,0,0,19,42.1c.12-.42-.12-.8-.71-1.16L5.54,30.66q-1.95-1.59-.36-3.36L15.29,14.53c1.06-1.3,2.18-1.41,3.36-.35l8.51,6.73a4.57,4.57,0,0,1,1.95,3.9V36L25.92,49.81A4.73,4.73,0,0,0,27,54.06l7.26,9.22A4.74,4.74,0,0,0,38.15,65.05ZM33.54,2.48A2.4,2.4,0,0,1,34.25.71,2.24,2.24,0,0,1,35.85,0h16.3a2.44,2.44,0,0,1,1.78.71,2.4,2.4,0,0,1,.71,1.77V53.17a2.22,2.22,0,0,1-.71,1.6,2.44,2.44,0,0,1-1.78.71H35.85a2.43,2.43,0,0,1-2.31-2.31V2.48Z" style="fill: #fff" /></svg>