<svg xmlns="http://www.w3.org/2000/svg" viewBox="0 0 35.88575 39.60215">
  <title>titan</title>
  <g id="Layer_2" data-name="Layer 2">
    <g id="Layer_1-2" data-name="Layer 1">
      <g>
        <path d="M.77259,10.66954C.34664,10.42572,0,10.62547,0,11.11605V28.49491c0,.49058.34664.69034.77259.44357L15.82193,20.252c.423-.24675.423-.64627,0-.88128Z"/>
        <path d="M20.06383,19.359c-.423.24675-.423.64627,0,.88128L35.1161,28.92674c.423.24675.76965.047.76965-.44358V11.11605c0-.49058-.34663-.69033-.76965-.44651Z"/>
        <path d="M33.8735,9.76476c.426-.24382.426-.64627,0-.88128L18.82416.18523a1.70386,1.70386,0,0,0-1.54518,0L2.22964,8.87466a.46463.46463,0,0,0,0,.88128L17.279,18.44537a1.72438,1.72438,0,0,0,1.54518,0Z"/>
        <path d="M2.22964,29.84621a.46463.46463,0,0,0,0,.88128L17.279,39.41692a1.70386,1.70386,0,0,0,1.54518,0L33.8735,30.72749c.426-.24382.426-.64627,0-.88128L18.82416,21.15678a1.72438,1.72438,0,0,0-1.54518,0Z"/>
      </g>
    </g>
  </g>
</svg>
