<svg xmlns="http://www.w3.org/2000/svg" viewBox="0 0 45.1501 45.15052">
  <title>trait-career</title>
  <g id="Layer_2" data-name="Layer 2">
    <g id="Layer_1-2" data-name="Layer 1">
      <g>
        <path d="M21.38541,35.24161a25.09651,25.09651,0,0,1-3.62072-.41742H7.86118c3.20026,2.56079,8.01251,4.21216,13.52423,4.405Z"/>
        <path d="M23.25339,39.24765c5.72663-.104,10.73621-1.78338,14.03553-4.42346H27.38541a25.10885,25.10885,0,0,1-4.132.42987Z"/>
        <path d="M21.38541,27.32211a11.18435,11.18435,0,0,1-5.55615-1.94335H7.86118C10.147,29.8143,15.302,33.00034,21.38541,33.3364Z"/>
        <path d="M29.32108,25.37876a11.31417,11.31417,0,0,1-6.06769,1.9707v6.003c6.304-.18079,11.68622-3.41467,14.03553-7.97369Z"/>
        <path d="M29.99,13.90286a7.8263,7.8263,0,0,1-6.73664,4.17438v7.01288c7.033-.23968,12.82221-4.98706,14.03553-11.18726Z"/>
        <path d="M21.38541,18.04361a7.73867,7.73867,0,0,1-6.22534-4.14075H7.86118c1.18384,6.0495,6.7229,10.71955,13.52423,11.16608Z"/>
      </g>
    </g>
  </g>
</svg>
