<svg xmlns="http://www.w3.org/2000/svg" viewBox="0 0 45.1501 45.15052">
  <title>trait-weekly</title>
  <g id="Layer_2" data-name="Layer 2">
    <g id="Layer_1-2" data-name="Layer 1">
      <g>
        <path d="M15.32977,22.64941a6.2102,6.2102,0,0,1-6.03016-6.04219h0A6.14074,6.14074,0,0,1,3.26944,22.6489v.00084a6.22976,6.22976,0,0,1,4.49371,2.13895,6.19267,6.19267,0,0,1,1.53366,3.65349,6.1538,6.1538,0,0,1,6.033-5.79277Z"/>
        <path d="M28.60519,22.64941A6.2102,6.2102,0,0,1,22.575,16.60722h0a6.14072,6.14072,0,0,1-6.03014,6.04168v.00084a6.27405,6.27405,0,0,1,6.02737,5.79244,6.15379,6.15379,0,0,1,6.03295-5.79277Z"/>
        <path d="M41.88065,22.64941a6.21018,6.21018,0,0,1-6.03015-6.04219h0a6.14074,6.14074,0,0,1-6.03015,6.04168v.00084a6.274,6.274,0,0,1,6.02737,5.79244,6.15379,6.15379,0,0,1,6.03295-5.79277Z"/>
        <path d="M21.96748,30.05024a6.2102,6.2102,0,0,1-6.03016-6.04219h0a6.14072,6.14072,0,0,1-6.03014,6.04168v.00084A6.27405,6.27405,0,0,1,15.93453,35.843a6.15379,6.15379,0,0,1,6.03295-5.79277Z"/>
        <path d="M35.2429,30.05024a6.21018,6.21018,0,0,1-6.03015-6.04219h0a6.14071,6.14071,0,0,1-6.03014,6.04168v.00084A6.274,6.274,0,0,1,29.21,35.843a6.15379,6.15379,0,0,1,6.03295-5.79277Z"/>
        <path d="M21.96748,15.3497a6.2102,6.2102,0,0,1-6.03016-6.04219h0a6.14072,6.14072,0,0,1-6.03014,6.04168V15.35a6.274,6.274,0,0,1,6.02737,5.79243,6.1538,6.1538,0,0,1,6.03295-5.79277Z"/>
        <path d="M35.2429,15.3497a6.21018,6.21018,0,0,1-6.03015-6.04219h0a6.14071,6.14071,0,0,1-6.03014,6.04168V15.35A6.274,6.274,0,0,1,29.21,21.14247,6.15381,6.15381,0,0,1,35.2429,15.3497Z"/>
      </g>
    </g>
  </g>
</svg>
