<svg xmlns="http://www.w3.org/2000/svg" viewBox="0 0 39.59286 36.66353">
  <title>tricorn</title>
  <g id="Layer_2" data-name="Layer 2">
    <g id="Layer_1-2" data-name="Layer 1">
      <path d="M19.79643,18.60079a4.05464,4.05464,0,0,0,2.92078-1.19138A3.86548,3.86548,0,0,0,23.947,14.52706V7.37882A3.99017,3.99017,0,0,0,22.71721,4.458a4.08334,4.08334,0,0,0-5.84157,0,3.99016,3.99016,0,0,0-1.2298,2.92078v7.14824a3.86547,3.86547,0,0,0,1.2298,2.88235A4.05467,4.05467,0,0,0,19.79643,18.60079ZM6.49917,0a6.13627,6.13627,0,0,0-5.2651,2.76706A5.953,5.953,0,0,0,.427,8.60863,7.73345,7.73345,0,0,0,3.9627,12.45177a20.43242,20.43242,0,0,1,4.91922,4.458A19.77663,19.77663,0,0,1,12.95564,25.749a38.77727,38.77727,0,0,1,.69177,4.99608,6.72066,6.72066,0,0,0,1.88314,4.22745,5.70289,5.70289,0,0,0,4.26588,1.691,5.70289,5.70289,0,0,0,4.26588-1.691,6.72071,6.72071,0,0,0,1.88314-4.22745,38.77766,38.77766,0,0,1,.69176-4.99608,19.77665,19.77665,0,0,1,4.07373-8.83922,20.43256,20.43256,0,0,1,4.91921-4.458,7.73352,7.73352,0,0,0,3.53569-3.84314,5.95294,5.95294,0,0,0-.80706-5.84157A6.13627,6.13627,0,0,0,33.09368,0a6.04361,6.04361,0,0,0-2.229.42275A13.712,13.712,0,0,0,28.48192,1.691q-1.30666.84549-1.92157,1.15294a1.708,1.708,0,0,1-.538.23059V14.37333a6.13932,6.13932,0,0,1-1.80627,4.458,5.94786,5.94786,0,0,1-4.41961,1.84471,6.04871,6.04871,0,0,1-4.38118-1.80628,5.86007,5.86007,0,0,1-1.8447-4.34274V3.07451a4.21831,4.21831,0,0,0-.538-.23059Q12.4176,2.53648,11.49525,1.96T9.91956.99922A8.28393,8.28393,0,0,0,8.34388.30745,5.80312,5.80312,0,0,0,6.49917,0Z"/>
    </g>
  </g>
</svg>
