<svg xmlns="http://www.w3.org/2000/svg" viewBox="0 0 53.55182 29.48924">
  <title>warlock</title>
  <g id="Layer_2" data-name="Layer 2">
    <g id="Layer_1-2" data-name="Layer 1">
      <g>
        <path d="M51.42371,25.80306l2.12811,3.68613H45.03839l4.25726-7.37231L51.42376,25.803Z"/>
        <path d="M47.16755,18.43075l2.1281,3.68613H40.78223l4.25616-7.37231L47.1676,18.4307Z"/>
        <path d="M49.2956,22.11693l-4.25726,7.37231-4.25616-7.37231Z"/>
        <path d="M42.91029,11.05849l2.12811,3.68613H36.526l4.25616-7.37231,2.12811,3.68613Z"/>
        <path d="M45.0384,14.74462l-4.25617,7.37231-4.25616-7.37231H45.0384Z"/>
        <path d="M42.19691,25.84976l2.10091,3.63948H35.893l4.20187-7.27786,2.102,3.63839Z"/>
        <path d="M38.65413,3.68618l2.1281,3.68613H32.26986L36.526,0l2.12811,3.68613Z"/>
        <path d="M40.78218,7.37231,36.526,14.74462,32.26985,7.37231h8.51233Z"/>
        <path d="M37.994,18.5719l2.10091,3.63948H31.69114L35.893,14.93247,37.99393,18.572Z"/>
        <path d="M40.0949,22.21138,35.893,29.48924l-4.20188-7.27786Z"/>
        <path d="M33.79205,11.293,35.893,14.93247H27.48921l4.20188-7.27891L33.792,11.293Z"/>
        <path d="M35.893,14.93247l-4.20188,7.27891-4.20188-7.27891Z"/>
        <path d="M32.95928,25.928l2.05646,3.56129H26.79115l4.11178-7.12254,2.05646,3.5613Z"/>
        <path d="M28.84756,18.80535l2.05537,3.5613H22.67938l4.11178-7.12254,2.05646,3.5613Z"/>
        <path d="M30.90287,22.36665,26.7911,29.48919l-4.11177-7.12254Z"/>
        <path d="M24.73469,25.928l2.05646,3.56129H18.56761l4.11177-7.12254,2.05537,3.5613Z"/>
        <path d="M24.00071,11.293l2.10091,3.63948H17.69677l4.203-7.27891L24.00066,11.293Z"/>
        <path d="M26.10162,14.93247l-4.20188,7.27891-4.203-7.27891Z"/>
        <path d="M19.79773,18.5719l2.102,3.63948H13.49489l4.20188-7.27891L19.79768,18.572Z"/>
        <path d="M21.89974,22.21138l-4.203,7.27786-4.20188-7.27786h8.40485Z"/>
        <path d="M19.15391,3.68618,21.282,7.37231H12.76859L17.02585,0,19.154,3.68613Z"/>
        <path d="M21.282,7.37231,17.0258,14.74462,12.76854,7.37231Z"/>
        <path d="M15.59585,25.84976l2.10092,3.63948H9.293l4.20188-7.27786,2.10091,3.63839Z"/>
        <path d="M14.89769,11.05849l2.12811,3.68613H8.51238l4.25616-7.37231,2.1292,3.68613Z"/>
        <path d="M17.0258,14.74462l-4.25726,7.37231L8.51238,14.74462Z"/>
        <path d="M10.64049,18.43075l2.1281,3.68613H4.25622l4.25616-7.37231,2.12811,3.68613Z"/>
        <path d="M12.76854,22.11693,8.51238,29.48924,4.25621,22.11693h8.51233Z"/>
        <path d="M6.38427,25.80306l2.12811,3.68613H0l4.25616-7.37231L6.38427,25.803Z"/>
        <path d="M28.91973,3.68618l2.12811,3.68613H22.53441L26.79168,0l2.1281,3.68613Z"/>
        <path d="M31.04779,7.37231l-4.25617,7.37231L22.53436,7.37231h8.51343Z"/>
      </g>
    </g>
  </g>
</svg>
