<svg xmlns="http://www.w3.org/2000/svg" viewBox="0 0 49.1314 23.445">
  <title>warlock</title>
  <g id="Layer_2" data-name="Layer 2">
    <g id="Layer_1-2" data-name="Layer 1">
      <g>
        <polygon points="17.485 23.445 24.077 13.363 19.949 7.056 9.23 23.445 17.485 23.445"/>
        <polygon points="0 23.445 8.252 23.445 19.462 6.31 15.334 0 0 23.445"/>
        <polygon points="24.567 12.617 28.692 6.31 24.567 0 20.44 6.31 24.567 12.617"/>
        <polygon points="33.794 0 29.667 6.31 40.877 23.445 49.131 23.445 33.794 0"/>
        <polygon points="39.899 23.445 29.179 7.056 25.052 13.363 31.647 23.445 39.899 23.445"/>
        <polygon points="30.669 23.445 24.567 14.112 18.46 23.445 24.567 23.445 30.669 23.445"/>
      </g>
    </g>
  </g>
</svg>
