<svg xmlns="http://www.w3.org/2000/svg" viewBox="0 0 236.56 236.56"><path d="M129.82,189.38a14.77,14.77,0,0,0,2.1-3.55c.57-1.88.28-3.93.28-5.89V145.69c-9.24-.11-18.28,0-27.62-.05V177c0,3-.27,6.12.57,9a11.89,11.89,0,0,0,1.53,3.34l0,0L95.4,204.21l-11.23-14.4c2.14-4.4,1.6-9.17,1.61-13.88,0-8,0-16,0-24.06V146H59.07c0,.06-.18.19-.3.35s-.28.31-.28.46c0,12.79,0,25.58,0,38.94l2.12,3.64-11.34,15L38.18,189.84c2.19-4.37,1.66-9,1.66-13.48q0-55.28,0-110.54a26.58,26.58,0,0,0-1-7.83c-1.82-5.75-6.88-7.8-12-9.54-1.59-.54-3.23-.91-5-1.4V32.19h193V46.72L211,48.27a73.79,73.79,0,0,0-7.85,3.27c-4.16,2.3-6.16,6.09-6.3,10.83,0,1.52,0,3.05,0,4.58q0,55,0,110c0,2.6.09,5.19.12,8a12.18,12.18,0,0,0,1.6,5.86l0-.06c-2.89,3.86-7.25,8.54-11.06,13.65-3.84-5-7.49-8.92-11.33-13.93a23.3,23.3,0,0,0,1.63-4.43l0-.17c.57-2.32.29-4.78.29-7.17V145.78c-9-.28-17.87-.1-27.27-.14v6.19c0,9.35-.08,18.71,0,28.06a47.18,47.18,0,0,0,.16,5.45,17,17,0,0,0,1.46,4.75c-3,4-7,9-10.85,14.11-3.86-4.94-7.84-9.67-11.87-14.82ZM104.55,47.59V81h27.6l0-33.41ZM85.51,81V47.64H58.59V81Zm92.64,0-.38-33.36H151.14V81Zm-73.61,46.14h27.58l-.12-27-27.46.18Zm-46,0,27-.06V100.34s-26.87.34-27,0Zm92.63,0c4.91,0,26.94.08,26.94.08V99.73c-9.08,0-17.88,0-26.94,0Z" style="fill:#fff"/></svg>