<svg xmlns="http://www.w3.org/2000/svg" viewBox="0 0 204.4 204.4"><g class="dungeon"><g class="outer" style="opacity:0.1"><circle cx="102.2" cy="102.4" r="91.03" style="fill:none;stroke:#fff;stroke-miterlimit:10"/><polygon points="120.8 8.89 121.44 11.21 122.08 13.54 119.96 13.12 117.84 12.7 119.33 10.79 120.8 8.89" style="fill:#fff"/><polygon points="138.69 14.31 138.86 16.72 139.03 19.13 137.04 18.3 135.04 17.48 136.87 15.89 138.69 14.31" style="fill:#fff"/><polygon points="155.18 23.12 154.87 25.52 154.57 27.91 152.78 26.71 150.98 25.51 153.08 24.32 155.18 23.12" style="fill:#fff"/><polygon points="169.62 34.98 168.86 37.27 168.1 39.56 166.57 38.03 165.05 36.51 167.34 35.74 169.62 34.98" style="fill:#fff"/><polygon points="181.48 49.43 180.29 51.53 179.09 53.62 177.89 51.83 176.69 50.03 179.09 49.73 181.48 49.43" style="fill:#fff"/><polygon points="190.29 65.92 188.71 67.74 187.13 69.56 186.31 67.57 185.48 65.57 187.89 65.75 190.29 65.92" style="fill:#fff"/><polygon points="195.72 83.8 193.81 85.28 191.91 86.76 191.49 84.64 191.06 82.53 193.39 83.17 195.72 83.8" style="fill:#fff"/><polygon points="197.55 102.4 195.39 103.48 193.24 104.56 193.24 102.4 193.24 100.25 195.39 101.33 197.55 102.4" style="fill:#fff"/><polygon points="195.72 121.01 193.39 121.64 191.06 122.28 191.49 120.16 191.91 118.05 193.81 119.53 195.72 121.01" style="fill:#fff"/><polygon points="190.29 138.89 187.89 139.06 185.48 139.24 186.31 137.24 187.13 135.25 188.71 137.07 190.29 138.89" style="fill:#fff"/><polygon points="181.48 155.38 179.09 155.08 176.69 154.77 177.89 152.98 179.09 151.19 180.29 153.28 181.48 155.38" style="fill:#fff"/><polygon points="169.62 169.83 167.34 169.06 165.05 168.3 166.57 166.77 168.1 165.25 168.86 167.54 169.62 169.83" style="fill:#fff"/><polygon points="155.18 181.69 153.08 180.49 150.98 179.29 152.78 178.1 154.57 176.9 154.87 179.29 155.18 181.69" style="fill:#fff"/><polygon points="138.69 190.5 136.87 188.91 135.04 187.33 137.04 186.51 139.03 185.68 138.86 188.09 138.69 190.5" style="fill:#fff"/><polygon points="120.8 195.92 119.33 194.01 117.84 192.11 119.96 191.69 122.08 191.27 121.44 193.59 120.8 195.92" style="fill:#fff"/><polygon points="102.2 197.75 101.12 195.6 100.04 193.44 102.2 193.44 104.36 193.44 103.28 195.6 102.2 197.75" style="fill:#fff"/><polygon points="83.6 195.92 82.96 193.59 82.33 191.27 84.44 191.69 86.56 192.11 85.08 194.01 83.6 195.92" style="fill:#fff"/><polygon points="65.71 190.5 65.54 188.09 65.37 185.68 67.36 186.51 69.36 187.33 67.54 188.91 65.71 190.5" style="fill:#fff"/><polygon points="49.23 181.69 49.53 179.29 49.83 176.9 51.63 178.1 53.42 179.29 51.33 180.49 49.23 181.69" style="fill:#fff"/><polygon points="34.78 169.83 35.54 167.54 36.31 165.25 37.83 166.77 39.36 168.3 37.07 169.06 34.78 169.83" style="fill:#fff"/><polygon points="22.92 155.38 24.12 153.28 25.31 151.19 26.51 152.98 27.71 154.77 25.32 155.08 22.92 155.38" style="fill:#fff"/><polygon points="14.11 138.89 15.69 137.07 17.27 135.25 18.1 137.24 18.93 139.24 16.52 139.06 14.11 138.89" style="fill:#fff"/><polygon points="8.69 121.01 10.59 119.53 12.5 118.05 12.92 120.16 13.34 122.28 11.01 121.64 8.69 121.01" style="fill:#fff"/><polygon points="6.85 102.4 9.01 101.33 11.17 100.25 11.17 102.4 11.17 104.56 9.01 103.48 6.85 102.4" style="fill:#fff"/><polygon points="8.69 83.8 11.01 83.17 13.34 82.53 12.92 84.64 12.5 86.76 10.59 85.28 8.69 83.8" style="fill:#fff"/><polygon points="14.11 65.92 16.52 65.75 18.93 65.57 18.1 67.57 17.27 69.56 15.69 67.74 14.11 65.92" style="fill:#fff"/><polygon points="22.92 49.43 25.32 49.73 27.71 50.03 26.51 51.83 25.31 53.62 24.12 51.53 22.92 49.43" style="fill:#fff"/><polygon points="34.78 34.98 37.07 35.74 39.36 36.51 37.83 38.03 36.31 39.56 35.54 37.27 34.78 34.98" style="fill:#fff"/><polygon points="49.23 23.12 51.33 24.32 53.42 25.51 51.63 26.71 49.83 27.91 49.53 25.52 49.23 23.12" style="fill:#fff"/><polygon points="65.71 14.31 67.54 15.89 69.36 17.48 67.36 18.3 65.37 19.13 65.54 16.72 65.71 14.31" style="fill:#fff"/><polygon points="83.6 8.89 85.08 10.79 86.56 12.7 84.44 13.12 82.33 13.54 82.96 11.21 83.6 8.89" style="fill:#fff"/><polygon points="102.2 7.05 103.28 9.21 104.36 11.37 102.2 11.37 100.04 11.37 101.12 9.21 102.2 7.05" style="fill:#fff"/></g><g class="inner" style="opacity:0.4"><circle cx="102.2" cy="102.4" r="82.01" style="fill:none;stroke:#fff;stroke-miterlimit:10"/><polygon points="119.04 17.73 119.68 20.06 120.32 22.39 118.2 21.97 116.08 21.55 117.56 19.64 119.04 17.73" style="fill:#fff"/><polygon points="135.24 22.65 135.41 25.05 135.58 27.46 133.59 26.64 131.59 25.81 133.42 24.23 135.24 22.65" style="fill:#fff"/><polygon points="150.16 30.63 149.86 33.02 149.56 35.41 147.76 34.21 145.97 33.02 148.07 31.82 150.16 30.63" style="fill:#fff"/><polygon points="163.25 41.36 162.48 43.65 161.72 45.94 160.19 44.41 158.67 42.89 160.96 42.12 163.25 41.36" style="fill:#fff"/><polygon points="173.98 54.44 172.79 56.54 171.59 58.64 170.39 56.84 169.19 55.05 171.59 54.74 173.98 54.44" style="fill:#fff"/><polygon points="181.96 69.37 180.38 71.19 178.8 73.01 177.97 71.02 177.15 69.03 179.55 69.2 181.96 69.37" style="fill:#fff"/><polygon points="186.87 85.56 184.97 87.04 183.06 88.52 182.64 86.41 182.22 84.29 184.54 84.92 186.87 85.56" style="fill:#fff"/><polygon points="188.53 102.4 186.37 103.48 184.21 104.56 184.21 102.4 184.21 100.25 186.37 101.33 188.53 102.4" style="fill:#fff"/><polygon points="186.87 119.25 184.54 119.88 182.22 120.52 182.64 118.4 183.06 116.29 184.97 117.77 186.87 119.25" style="fill:#fff"/><polygon points="181.96 135.44 179.55 135.61 177.15 135.78 177.97 133.79 178.8 131.79 180.38 133.62 181.96 135.44" style="fill:#fff"/><polygon points="173.98 150.37 171.59 150.06 169.19 149.76 170.39 147.97 171.59 146.17 172.79 148.27 173.98 150.37" style="fill:#fff"/><polygon points="163.25 163.45 160.96 162.69 158.67 161.92 160.19 160.4 161.72 158.87 162.48 161.16 163.25 163.45" style="fill:#fff"/><polygon points="150.16 174.18 148.07 172.99 145.97 171.79 147.76 170.59 149.56 169.4 149.86 171.79 150.16 174.18" style="fill:#fff"/><polygon points="135.24 182.16 133.42 180.58 131.59 179 133.59 178.17 135.58 177.35 135.41 179.75 135.24 182.16" style="fill:#fff"/><polygon points="119.04 187.07 117.56 185.17 116.08 183.26 118.2 182.84 120.32 182.42 119.68 184.75 119.04 187.07" style="fill:#fff"/><polygon points="102.2 188.73 101.12 186.57 100.04 184.42 102.2 184.42 104.36 184.42 103.28 186.57 102.2 188.73" style="fill:#fff"/><polygon points="85.36 187.07 84.72 184.75 84.09 182.42 86.2 182.84 88.32 183.26 86.84 185.17 85.36 187.07" style="fill:#fff"/><polygon points="69.17 182.16 69 179.75 68.82 177.35 70.82 178.17 72.81 179 70.99 180.58 69.17 182.16" style="fill:#fff"/><polygon points="54.24 174.18 54.54 171.79 54.84 169.4 56.64 170.59 58.43 171.79 56.34 172.99 54.24 174.18" style="fill:#fff"/><polygon points="41.16 163.45 41.92 161.16 42.69 158.87 44.21 160.4 45.74 161.92 43.45 162.69 41.16 163.45" style="fill:#fff"/><polygon points="30.42 150.37 31.62 148.27 32.81 146.17 34.01 147.97 35.21 149.76 32.82 150.06 30.42 150.37" style="fill:#fff"/><polygon points="22.45 135.44 24.03 133.62 25.61 131.79 26.43 133.79 27.26 135.78 24.85 135.61 22.45 135.44" style="fill:#fff"/><polygon points="17.53 119.25 19.44 117.77 21.34 116.29 21.77 118.4 22.19 120.52 19.86 119.88 17.53 119.25" style="fill:#fff"/><polygon points="15.87 102.4 18.03 101.33 20.19 100.25 20.19 102.4 20.19 104.56 18.03 103.48 15.87 102.4" style="fill:#fff"/><polygon points="17.53 85.56 19.86 84.92 22.19 84.29 21.77 86.41 21.34 88.52 19.44 87.04 17.53 85.56" style="fill:#fff"/><polygon points="22.45 69.37 24.85 69.2 27.26 69.03 26.43 71.02 25.61 73.01 24.03 71.19 22.45 69.37" style="fill:#fff"/><polygon points="30.42 54.44 32.82 54.74 35.21 55.05 34.01 56.84 32.81 58.64 31.62 56.54 30.42 54.44" style="fill:#fff"/><polygon points="41.16 41.36 43.45 42.12 45.74 42.89 44.21 44.41 42.69 45.94 41.92 43.65 41.16 41.36" style="fill:#fff"/><polygon points="54.24 30.63 56.34 31.82 58.43 33.02 56.64 34.21 54.84 35.41 54.54 33.02 54.24 30.63" style="fill:#fff"/><polygon points="69.17 22.65 70.99 24.23 72.81 25.81 70.82 26.64 68.82 27.46 69 25.05 69.17 22.65" style="fill:#fff"/><polygon points="85.36 17.73 86.84 19.64 88.32 21.55 86.2 21.97 84.09 22.39 84.72 20.06 85.36 17.73" style="fill:#fff"/><polygon points="102.2 16.08 103.28 18.23 104.36 20.39 102.2 20.39 100.04 20.39 101.12 18.23 102.2 16.08" style="fill:#fff"/></g><circle cx="102.2" cy="102.4" r="58.16" style="fill:#9e826d;stroke:#fff;stroke-miterlimit:10"/><polygon points="126.96 42.63 127.22 46.28 127.48 49.93 124.46 48.68 121.44 47.42 124.2 45.03 126.96 42.63" style="fill:#fff"/><polygon points="161.97 77.65 159.58 80.41 157.18 83.17 155.93 80.15 154.68 77.13 158.33 77.39 161.97 77.65" style="fill:#fff"/><polygon points="161.97 127.16 158.33 127.42 154.68 127.68 155.93 124.66 157.18 121.64 159.58 124.4 161.97 127.16" style="fill:#fff"/><polygon points="126.96 162.18 124.2 159.78 121.44 157.38 124.46 156.13 127.48 154.88 127.22 158.53 126.96 162.18" style="fill:#fff"/><polygon points="77.44 162.18 77.19 158.53 76.93 154.88 79.95 156.13 82.97 157.38 80.21 159.78 77.44 162.18" style="fill:#fff"/><polygon points="42.43 127.16 44.83 124.4 47.22 121.64 48.47 124.66 49.73 127.68 46.08 127.42 42.43 127.16" style="fill:#fff"/><polygon points="42.43 77.65 46.08 77.39 49.73 77.13 48.47 80.15 47.22 83.17 44.83 80.41 42.43 77.65" style="fill:#fff"/><polygon points="77.44 42.63 80.21 45.03 82.97 47.42 79.95 48.68 76.93 49.93 77.19 46.28 77.44 42.63" style="fill:#fff"/><polygon points="152.57 52.03 149.68 58.39 146.79 64.75 143.32 61.28 139.86 57.81 146.22 54.92 152.57 52.03" style="fill:#fff"/><polygon points="173.44 102.4 166.9 104.86 160.36 107.31 160.36 102.4 160.36 97.5 166.9 99.95 173.44 102.4" style="fill:#fff"/><polygon points="152.57 152.78 146.22 149.88 139.86 147 143.32 143.53 146.79 140.06 149.68 146.42 152.57 152.78" style="fill:#fff"/><polygon points="102.2 173.64 99.75 167.1 97.3 160.56 102.2 160.56 107.11 160.56 104.66 167.1 102.2 173.64" style="fill:#fff"/><polygon points="51.83 152.78 54.72 146.42 57.61 140.06 61.08 143.53 64.55 147 58.19 149.88 51.83 152.78" style="fill:#fff"/><polygon points="30.97 102.4 37.51 99.95 44.05 97.5 44.05 102.4 44.05 107.31 37.51 104.86 30.97 102.4" style="fill:#fff"/><polygon points="51.83 52.03 58.19 54.92 64.55 57.81 61.08 61.28 57.61 64.75 54.72 58.39 51.83 52.03" style="fill:#fff"/><polygon points="102.2 31.17 104.66 37.71 107.11 44.25 102.2 44.25 97.3 44.25 99.75 37.71 102.2 31.17" style="fill:#fff"/><path d="M106.75,134.59a5.61,5.61,0,0,0,.83-1.4,7.82,7.82,0,0,0,.11-2.32V117.36c-3.64,0-7.21,0-10.89,0V129.7a12.91,12.91,0,0,0,.22,3.57,4.57,4.57,0,0,0,.61,1.32h0c-1.41,1.86-2.84,3.76-4.44,5.86l-4.43-5.68c.85-1.73.64-3.62.64-5.47q0-4.75,0-9.49v-2.33H78.85a.81.81,0,0,0-.12.13c0,.06-.11.12-.11.19,0,5,0,10.08,0,15.35l.84,1.44L75,140.5l-4.36-5.73c.86-1.72.65-3.53.65-5.31q0-21.81,0-43.61a10.7,10.7,0,0,0-.39-3.09c-.71-2.27-2.71-3.07-4.74-3.76-.63-.21-1.27-.36-2-.55V72.59h76.13v5.73l-1.48.61a27.32,27.32,0,0,0-3.1,1.29,4.72,4.72,0,0,0-2.48,4.27c0,.6,0,1.2,0,1.81q0,21.67,0,43.37c0,1,0,2.05,0,3.16a4.79,4.79,0,0,0,.63,2.32v0c-1.14,1.52-2.86,3.37-4.37,5.39-1.51-2-2.95-3.52-4.46-5.5a9.22,9.22,0,0,0,.64-1.75v-.06a11.64,11.64,0,0,0,.11-2.83v-13c-3.56-.12-7-.05-10.75-.06v2.44c0,3.69,0,7.38,0,11.07a19.77,19.77,0,0,0,.06,2.15,6.81,6.81,0,0,0,.57,1.87c-1.19,1.57-2.75,3.57-4.27,5.57-1.53-1.95-3.1-3.81-4.69-5.85Zm-10-55.93V91.84h10.88V78.66ZM89.27,91.83V78.68H78.66V91.83Zm36.55,0-.15-13.16h-10.5V91.84Zm-29,18.2h10.88l0-10.67-10.83.08Zm-18.16,0,10.64,0V99.47s-10.6.13-10.64,0Zm36.54,0,10.63,0V99.23c-3.59,0-7.06,0-10.63,0Z" style="fill:#fff;opacity:0.8"/></g></svg>