<svg xmlns="http://www.w3.org/2000/svg" viewBox="0 0 500 500" class="victory trials">
  <title>standing-victory-trials</title>
  <g class="Layer_2" data-name="Layer 2">
    <g class="trials_win" data-name="trials win">
      <g>
        <g>
          <polygon class="hexagon hexagon2" points="214.045 114.784 115.125 213.704 151.333 348.832 286.46 385.039 385.38 286.119 349.173 150.992 214.045 114.784" style="fill: none;stroke: #c69f63;stroke-miterlimit: 10;stroke-width: 0.5px"/>
          <polygon class="hexagon hexagon1" points="115.125 286.119 214.045 385.039 349.173 348.832 385.38 213.704 286.46 114.784 151.333 150.992 115.125 286.119" style="fill: none;stroke: #c69f63;stroke-miterlimit: 10;stroke-width: 0.5px"/>
        </g>
        <g class="circles">
          <circle cx="250.25275" cy="249.91165" r="121.107" style="fill: none;stroke: #c69f63;stroke-miterlimit: 10;stroke-dasharray: 200,40"/>
          <circle cx="250.25275" cy="249.91165" r="113.84058" style="fill: none;stroke: #c69f63;stroke-miterlimit: 10;stroke-width: 0.9px;stroke-dasharray: 200,40"/>
          <circle cx="250.25275" cy="249.91165" r="107.01015" style="fill: none;stroke: #c69f63;stroke-miterlimit: 10;stroke-width: 0.8px;stroke-dasharray: 200,40"/>
          <circle cx="250.25275" cy="249.91165" r="100.58954" style="fill: none;stroke: #c69f63;stroke-miterlimit: 10;stroke-width: 0.7000000000000001px;stroke-dasharray: 200,40"/>
          <circle cx="250.25275" cy="249.91165" r="94.55416" style="fill: none;stroke: #c69f63;stroke-miterlimit: 10;stroke-width: 0.6000000000000001px;stroke-dasharray: 200,40"/>
          <circle cx="250.25275" cy="249.91165" r="88.88091" style="fill: none;stroke: #c69f63;stroke-miterlimit: 10;stroke-width: 0.5px;stroke-dasharray: 200,40"/>
        </g>
        <g>
          <path d="M289.43477,292.05142a50.97167,50.97167,0,0,0,14.64944-3.48946,50.29785,50.29785,0,0,0,22.02834-17.132c.14232-.19382.296-.38526.44468-.57041a40.59157,40.59157,0,0,0,2.23147-3.39626c.0505-.1031.10272-.20973.163-.30893a46.46693,46.46693,0,0,0,2.94649-5.75576,29.43573,29.43573,0,0,0,2.17773-15.36222c-.53763-4.50516-2.21985-8.90054-5.45445-14.25169-.02411-.03993-.04631-.08319-.0687-.127-.091-.17838-1.05239-1.65024-1.30125-2.01559a51.82216,51.82216,0,0,0-8.58351-9.73653,50.20146,50.20146,0,0,0-16.33194-9.63333,51.10079,51.10079,0,0,0-19.31965-2.96974,52.88068,52.88068,0,0,0-14.35409,2.60954,16.26,16.26,0,0,0-1.71328.6333c-.197.09034-.43824.24576-.4684.473a.74442.74442,0,0,0,.34709.60482,1.99144,1.99144,0,0,0,1.84669.41937,43.416,43.416,0,0,1,10.32215-1.12558,41.03179,41.03179,0,0,1,9.78956,1.03934,48.96072,48.96072,0,0,1,22.11976,11.23946,3.92612,3.92612,0,0,0,2.57381,1.01132c1.147.04651,2.31052.12988,3.43571.2105q.49821.03573.99646.07061a.93757.93757,0,0,1,.66784.25319.64948.64948,0,0,1,.131.49875c-.03164.34324-.06118.68686-.09077,1.03048-.09,1.04658-.1831,2.1287-.33656,3.18624a3.817,3.817,0,0,0,.61958,2.877,41.31263,41.31263,0,0,1,3.09471,5.25453,26.71106,26.71106,0,0,1,1.40287,20.99924,35.37475,35.37475,0,0,1-4.51459,8.60209,3.48564,3.48564,0,0,0-.66432,2.34835c.14608,1.55229.28949,2.99556.43834,4.41216a1.07407,1.07407,0,0,1-.11235.8215c-.14913.17581-.40856.22384-.8063.24728l-.46888.02773c-1.387.08176-2.82123.16638-4.22968.2712a3.32208,3.32208,0,0,0-2.00535.87038,49.22892,49.22892,0,0,1-13.10363,8.39332,47.671,47.671,0,0,1-16.50085,3.957,44.55442,44.55442,0,0,1-12.79208-1.0887,2.329,2.329,0,0,0-.53868-.06689,1.926,1.926,0,0,0-1.24778.47016c-.26558.21479-.398.43758-.37293.6274.031.23413.286.39336.49452.48579.56159.2489,1.16159.44586,1.74182.63626l.04073.01343A51.5475,51.5475,0,0,0,289.43477,292.05142Z" style="fill: #c69f63"/>
          <path d="M250.264,161.57024a13.79778,13.79778,0,0,1,1.72982.1072c.49494.06242.98845.14866,1.46567.232.429.07489.83441.1457,1.24121.20077a3.05307,3.05307,0,0,0,1.72286-.80654c.10753-.08147.21473-.16266.32327-.24042a118.83084,118.83084,0,0,1,14.66107-8.91283,120.72609,120.72609,0,0,1,17.32869-7.27565c.63-.20878.98478-.44558,1.11657-.74537a1.68008,1.68008,0,0,0-.20593-1.323c-1.06163-2.36131-2.12379-4.75549-3.11348-6.99092a1.71471,1.71471,0,0,0-2.47189-1.028c-2.89627,1.11443-5.88245,2.4182-9.1292,3.98554a134.747,134.747,0,0,0-23.66491,14.58722c-.9076.7-1.09565.69934-2.0114-.00782a134.81093,134.81093,0,0,0-32.79687-18.56913,1.70722,1.70722,0,0,0-2.46336,1.0442c-1.105,2.49557-2.1329,4.80256-3.14241,7.05276a1.5715,1.5715,0,0,0-.172,1.249,1.51594,1.51594,0,0,0,1.00046.70268c3.75322,1.256,7.487,2.69883,11.09752,4.28837a122.21725,122.21725,0,0,1,14.45858,7.60659c2.54355,1.55629,4.97475,3.17948,7.226,4.82467a2.4538,2.4538,0,0,0,2.12485.44015A17.26611,17.26611,0,0,1,250.264,161.57024Z" style="fill: #c69f63"/>
          <path d="M288.86546,354.67027c-3.7709-1.2646-7.50463-2.7074-11.09743-4.28828a122.33221,122.33221,0,0,1-14.45963-7.6043c-2.49471-1.52542-4.94521-3.16108-7.28346-4.86145a2.27658,2.27658,0,0,0-1.99553-.42128,16.27973,16.27973,0,0,1-7.4415.01238,2.49163,2.49163,0,0,0-2.17925.47646c-2.90652,2.10068-5.91046,4.06587-8.92833,5.841a121.70292,121.70292,0,0,1-11.70109,6.10252A126.10773,126.10773,0,0,1,211.747,354.64c-.59595.1983-.93519.4309-1.0675.73193a1.568,1.568,0,0,0,.17367,1.24354c.945,2.10765,1.89815,4.25379,2.8199,6.32922l.34928.78625a1.68611,1.68611,0,0,0,2.37127,1.00694c1.3071-.51791,2.66543-1.07917,4.03728-1.66817a134.19625,134.19625,0,0,0,28.82453-16.92489c.46092-.35439.73793-.53125,1.01375-.53125.274,0,.54673.17439.99746.52239a133.24783,133.24783,0,0,0,13.03159,8.85881,134.63356,134.63356,0,0,0,19.76261,9.71633l.04564.018a1.94083,1.94083,0,0,0,.75523.18915,1.75331,1.75331,0,0,0,1.64634-1.17179c1.05392-2.38637,2.11941-4.78084,3.167-7.1167a1.59655,1.59655,0,0,0,.1771-1.26442A1.4956,1.4956,0,0,0,288.86546,354.67027Z" style="fill: #c69f63"/>
          <path d="M310.84967,274.03554A45.15517,45.15517,0,0,0,320.395,260.293a24.47479,24.47479,0,0,0,1.07273-18.26649,41.55109,41.55109,0,0,0-9.04438-14.91883,44.749,44.749,0,0,0-14.42118-10.53707,46.65376,46.65376,0,0,0-19.25408-4.28828c-1.66078-.01848-3.3541.12626-4.99177.26605l-.23751.02021a29.36412,29.36412,0,0,0-3.22007.49656.80186.80186,0,0,0-.63678.44834.50358.50358,0,0,0,.113.499,3.4637,3.4637,0,0,0,2.90018,1.54981c.33166-.01306.66775-.00963.99278-.00629.14951.00162.29907.00314.44854.00314a29.74373,29.74373,0,0,1,4.23777.30179,43.14791,43.14791,0,0,1,11.60728,3.1406,46.03519,46.03519,0,0,1,13.30523,8.69081,2.25454,2.25454,0,0,0,1.50469.62806c.8143.036,1.63976.09967,2.43806.16133.45111.03487.91756.07089,1.37624.10138a.78311.78311,0,0,1,.58161.23909.72929.72929,0,0,1,.1284.57575c-.04417.38268-.08438.77281-.12321,1.15016-.06437.62453-.13088,1.27032-.21755,1.90391a3.39163,3.39163,0,0,0,.52281,2.43887,40.19126,40.19126,0,0,1,2.99114,5.39413,22.07892,22.07892,0,0,1,1.29609,15.41768,32.64284,32.64284,0,0,1-4.23348,8.81593,3.39552,3.39552,0,0,0-.60353,2.29431c.04531.39613.08758.79254.12979,1.18895.0698.655.14193,1.33226.22755,1.99567a.84314.84314,0,0,1-.13107.68238.79666.79666,0,0,1-.60872.23766c-.39436.01705-.79572.04316-1.18389.06841-.46026.03-.93623.061-1.406.07729a4.05162,4.05162,0,0,0-3.31583,1.30243,6.753,6.753,0,0,1-1.11977,1.0016c-.13178.10139-.2681.20631-.39765.31132a46.69852,46.69852,0,0,1-13.22165,7.64833,42.76881,42.76881,0,0,1-15.05276,2.59705l-.02263-.00009a3.77563,3.77563,0,0,0-2.99385,1.48234.61691.61691,0,0,0-.17.529.6302.6302,0,0,0,.38217.419,2.83,2.83,0,0,0,.7506.19277,47.65747,47.65747,0,0,0,16.97678-.26863A45.43355,45.43355,0,0,0,310.84967,274.03554Z" style="fill: #c69f63"/>
          <path d="M279.752,376.43575c.63745-.81864,1.21191-1.70494,1.76746-2.56209q.18825-.29044.37749-.5806a26.6295,26.6295,0,0,0,2.357-4.50707,1.15629,1.15629,0,0,0-.58575-1.55524,5.771,5.771,0,0,0-.63421-.28625l-.09838-.03984A139.81769,139.81769,0,0,1,257.725,353.50677c-2.26921-1.52532-4.514-3.1345-6.67207-4.78284a1.42148,1.42148,0,0,0-.78353-.39774,1.45054,1.45054,0,0,0-.79177.39936q-.65466.4947-1.3133.984a136.84547,136.84547,0,0,1-19.3206,12.02665c-3.81049,1.94756-7.638,3.703-11.37625,5.21756-.709.2872-1.07.55307-1.20719.88887a1.91676,1.91676,0,0,0,.23093,1.44833,29.36791,29.36791,0,0,0,2.22543,4.11885l.15375.2408a25.0552,25.0552,0,0,0,2.27507,3.18576,1.301,1.301,0,0,0,1.7381.36763,158.655,158.655,0,0,0,16.75151-8.90359,1.22424,1.22424,0,0,0,.6364-1.40545,10.35194,10.35194,0,0,1-.15837-2.27163,9.75141,9.75141,0,0,1,3.36257-7.04381,10.23866,10.23866,0,0,1,14.87953,1.37743,10.0237,10.0237,0,0,1,1.93721,7.803c-.14117.88868-.02511,1.14406.73045,1.60708a155.78249,155.78249,0,0,0,16.25919,8.66622C278.46861,377.579,278.9533,377.46165,279.752,376.43575Z" style="fill: #c69f63"/>
          <path d="M220.80769,123.03148c-.65579.84532-1.24936,1.759-1.82339,2.64261q-.14337.22068-.28711.44129a28.87611,28.87611,0,0,0-2.35621,4.4334,1.22749,1.22749,0,0,0,.66846,1.78795c.18425.09157.37421.17019.55293.24289a139.66433,139.66433,0,0,1,24.30331,12.7827c2.55665,1.68855,5.10849,3.50117,7.58467,5.38765.73241.55811.90007.55878,1.62981.00352.45177-.34352.91493-.68838,1.31358-.98454a137.02268,137.02268,0,0,1,19.3237-12.02171c3.78743-1.9344,7.59387-3.6806,11.31364-5.19.73717-.29912,1.10976-.569,1.24588-.90231a1.97983,1.97983,0,0,0-.24656-1.476,29.02069,29.02069,0,0,0-2.19193-4.05939l-.15837-.24842a25.59888,25.59888,0,0,0-2.2644-3.18377,1.31313,1.31313,0,0,0-1.79209-.38249,167.42538,167.42538,0,0,0-16.17857,8.534c-.94338.56164-1.45762,1.13386-1.10671,2.24953a1.94335,1.94335,0,0,1,.05961.56374c.00124.09987.00257.203.00938.31675a2.9971,2.9971,0,0,1-.0061,1.156c-.01419.11111-.02849.22317-.03983.335a10.7778,10.7778,0,0,1-.28944,1.63224,9.816,9.816,0,0,1-4.04253,5.61825,10.22247,10.22247,0,0,1-13.84809-2.16815,10.00856,10.00856,0,0,1-1.93293-7.835,1.219,1.219,0,0,0-.703-1.55877,156.69439,156.69439,0,0,0-16.3197-8.698A1.60849,1.60849,0,0,0,220.80769,123.03148Z" style="fill: #c69f63"/>
          <path d="M274.69947,282.597a29.82342,29.82342,0,0,0,3.98821-.35962,43.64341,43.64341,0,0,0,10.90208-3.11735,41.98265,41.98265,0,0,0,12.947-8.89225,40.54193,40.54193,0,0,0,6.51093-8.696c2.4476-4.33469,3.55035-7.98423,3.4705-11.4855l0-.00343a20.76847,20.76847,0,0,0-1.69265-8.52625,40.942,40.942,0,0,0-11.13321-14.851,41.76147,41.76147,0,0,0-10.71165-6.53828,42.605,42.605,0,0,0-11.82307-3.0434c-.17647-.01925-.3531-.04079-.53-.06232a13.6022,13.6022,0,0,0-1.63557-.13236c-.15384,0-.3075.00533-.46068.01734a.98418.98418,0,0,0-.82746.51457.59854.59854,0,0,0,.06913.62416,5.23843,5.23843,0,0,0,2.94726,2.34739,39.3862,39.3862,0,0,1,5.47565,1.60146,44.02852,44.02852,0,0,1,4.13328,1.83683,41.2168,41.2168,0,0,1,10.38347,7.559,1.8089,1.8089,0,0,0,1.163.58518c.75623.06117,1.38648.11054,2.03822.14179.5525.02649.90036.05355,1.083.26739.17314.20268.16161.5038.09691,1.09594a3.1628,3.1628,0,0,1-.06422.35172,4.286,4.286,0,0,0,.79553,3.91435,16.04082,16.04082,0,0,1,1.811,3.072q.13914.28215.27925.56288a18.17387,18.17387,0,0,1,1.47191,12.785,25.69809,25.69809,0,0,1-3.986,8.24847,2.89966,2.89966,0,0,0-.50142,2.2199c.07366.4532.1173.91651.15951,1.36456.01706.18058.03407.36125.053.54154a.75036.75036,0,0,1-.14165.60043.819.819,0,0,1-.62716.22879c-.41871.01087-.84561.04126-1.25841.07071-.32332.02306-.6576.04688-.98774.06127a1.95417,1.95417,0,0,0-1.36861.58842,35.98029,35.98029,0,0,1-3.002,2.71455,38.89837,38.89837,0,0,1-16.06217,8.04579,5.78308,5.78308,0,0,0-3.64893,2.24257l-.05217.07157c-.25138.34324-.3977.56974-.2458.88839A.94183.94183,0,0,0,274.69947,282.597Z" style="fill: #c69f63"/>
          <path d="M276.36944,119.81751a1.21666,1.21666,0,0,0-.47254-1.01571c-.53325-.52171-1.12148-1.00941-1.69041-1.4811l-.1-.0829a35.547,35.547,0,0,0-7.79464-4.9313c-1.66629-.77671-3.4815.68885-3.78758.864-.03778.02163-.07551.04326-.11339.06451-3.99817,2.24334-7.85969,4.60007-11.47726,7.00464a1.0199,1.0199,0,0,1-1.31106.01629c-2.46055-1.6411-5.11721-3.372-7.87178-4.91234-.46183-.25823-.916-.548-1.35518-.82826a38.05125,38.05125,0,0,0-4.69008-2.3939,3.00614,3.00614,0,0,1-.38068-.07347,4.49628,4.49628,0,0,0-1.39435.36554,38.33915,38.33915,0,0,0-5.38369,3.18528,37.04178,37.04178,0,0,0-3.84565,3.13812,1.28,1.28,0,0,0-.53916,1.05687c.04812.32085.32923.61225.813.843q.27693.13193.5543.26319c.40518.192.82417.3905,1.2343.5909,4.66835,2.2804,9.23993,4.8017,13.58772,7.49405.76.47074,1.05248.40785,1.56472-.337a9.35092,9.35092,0,0,1,.95439-1.11872l.03659-.0385a10.2386,10.2386,0,0,1,15.6904,1.136c.54811.77347.82064.83017,1.62051.33637a155.29544,155.29544,0,0,1,15.37832-8.34614A1.20644,1.20644,0,0,0,276.36944,119.81751Z" style="fill: #c69f63"/>
          <path d="M225.00944,378.84442c-.49575.23346-.78629.52314-.84022.83779a1.27575,1.27575,0,0,0,.50542,1.05783c.163.16123.34371.31407.51843.462.09934.084.19868.16809.29592.25433a35.32009,35.32009,0,0,0,8.59938,5.67676,2.17756,2.17756,0,0,0,2.4877.03321c.61494-.3875,1.5504-.90674,1.597-.933,3.98868-2.23809,7.84949-4.596,11.47511-7.00807a.98523.98523,0,0,1,1.25284.01144c2.44669,1.62766,5.36535,3.52509,8.46168,5.25786.39656.22184.78625.47188,1.16312.71373a33.01583,33.01583,0,0,0,4.30243,2.16758,3.165,3.165,0,0,1,.3774.07366,4.51585,4.51585,0,0,0,1.32821-.33218,34.47,34.47,0,0,0,3.34319-1.82482,37.47071,37.47071,0,0,0,5.94915-4.52365,1.2929,1.2929,0,0,0,.54821-1.06259c-.05-.32637-.34953-.627-.86615-.86962-.63788-.2995-1.2029-.56956-1.72738-.82579a155.4198,155.4198,0,0,1-13.64608-7.5297c-.692-.42909-1.008-.36372-1.47043.3037a10.27562,10.27562,0,0,1-1.02872,1.21372,10.239,10.239,0,0,1-15.692-1.11939c-.32465-.45854-.54749-.66989-.83365-.66989a1.63437,1.63437,0,0,0-.78381.31875c-2.89032,1.78775-5.96545,3.54634-9.14,5.227C229.13682,376.84,227.05862,377.87941,225.00944,378.84442Z" style="fill: #c69f63"/>
          <path d="M250.9327,198.31115q.00028.49527-.00024.99045-.00064,1.04272.00219,2.08535a.859.859,0,0,0,.50061.86648c.30993.14112.54635.01381.82765-.2368q.47027-.41923.93761-.8419c.84185-.75851,1.71238-1.54285,2.59949-2.27935A78.77565,78.77565,0,0,1,304.5782,180.5801c.51-.01106.86253-.05013,1.107-.47465.27267-.47359.14956-.81448-.1225-1.32854-.07624-.144-.818-1.948-.818-1.948-.46793-1.03334-.939-2.08573-1.39454-3.10363q-.324-.72382-.64845-1.44756a1.85162,1.85162,0,0,0-1.82158-1.33388,3.59408,3.59408,0,0,0-.47026.03345,89.47716,89.47716,0,0,0-36.45561,13.19835A89.66418,89.66418,0,0,0,251.96927,193.29a2.90906,2.90906,0,0,0-1.04362,2.41839c.02187.59918.01662,1.20781.01153,1.79632C250.93489,197.77352,250.93255,198.04243,250.9327,198.31115Z" style="fill: #c69f63"/>
          <path d="M302.70655,327.20593l1.3153-2.92991c.08352-.1861.17767-.37154.26876-.55088a5.14013,5.14013,0,0,0,.50162-1.2342,5.63734,5.63734,0,0,1,.71868-1.69694c.29235-.4979.4756-.89088.16895-1.41393-.25548-.43586-.61625-.46654-1.1798-.46159a59.21388,59.21388,0,0,1-6.89291-.44939,79.0865,79.0865,0,0,1-37.66232-14.635,90.29,90.29,0,0,1-7.64218-6.31892.974.974,0,0,0-.61568-.33162.60431.60431,0,0,0-.26205.06509.909.909,0,0,0-.49384.9429q.00122.92624.00066,1.85245l.0001,1.08727c.0001.26863.00224.53725.00438.80588.00486.611.00987,1.24278-.01,1.86484a2.85563,2.85563,0,0,0,1.00384,2.3675c1.913,1.72048,3.94561,3.402,6.04135,4.99791a89.52847,89.52847,0,0,0,36.13514,16.29283c2.06057.41547,4.16335.77052,6.24984,1.05544A1.93712,1.93712,0,0,0,302.70655,327.20593Z" style="fill: #c69f63"/>
          <path d="M304.95674,182.57349c-.16205.00778-.32451-.00267-.48631-.00267-2.49224,0-4.92249.20182-6.99316.40289a72.111,72.111,0,0,0-14.66736,2.99375,73.60857,73.60857,0,0,0-28.92053,17.10061.90148.90148,0,0,0,.37754,1.67836c.177.05765.361.11053.53883.1618a7.83387,7.83387,0,0,1,1.16178.40184,2.24567,2.24567,0,0,0,2.56838-.37373,58.67973,58.67973,0,0,1,6.46524-4.372,68.8555,68.8555,0,0,1,15.81685-6.85713,67.898,67.898,0,0,1,17.03858-2.60992,54.372,54.372,0,0,1,7.86435.27615c1.01318.11912,2.026.24138,3.07994.36859.49428.05975.99765.12054,1.51432.18258a.7156.7156,0,0,0,.60729-.29664.81518.81518,0,0,0,.00428-.77834c-.89883-2.08391-1.9738-4.551-3.13168-7.0479a1.76115,1.76115,0,0,0-.61534-.74365C306.9834,182.89755,306.70053,182.4897,304.95674,182.57349Z" style="fill: #c69f63"/>
          <path d="M306.93077,316.6603c.0795-.056.18908-.16583.34874-.302a3.23011,3.23011,0,0,0,.78314-1.23335l.01072-.0243q.50092-1.13076,1.00666-2.25944c.59175-1.32444,1.20371-2.69406,1.79156-4.04671a.95994.95994,0,0,0,.028-.93709,1.02983,1.02983,0,0,0-.96292-.27234c-.08276.0081-.16556.02353-.25323.03992-.04727.00886-.09453.01763-.14194.02535a57.2497,57.2497,0,0,1-7.07477.72554,67.8247,67.8247,0,0,1-32.93571-6.98053,66.75511,66.75511,0,0,1-11.201-6.98005,1.99206,1.99206,0,0,0-2.15662-.30722c-.52.21755-1.0674.3845-1.59674.54592l-.22722.06947c-.5344.16409-.7882.38116-.876.74918-.1032.43243.166.7223.50156,1.03q.51215.46968,1.02976.93346.49827.44912.99412.90079a65.83528,65.83528,0,0,0,8.76052,6.709,73.57858,73.57858,0,0,0,19.20406,8.83613,76.46672,76.46672,0,0,0,19.67818,3.04387c.13674-.00029.27748-.00114.41813-.00191.16176-.00095.326-.0019.49118-.0019.198,0,.39717.00571.59485.00572A4.004,4.004,0,0,0,306.93077,316.6603Z" style="fill: #c69f63"/>
          <path d="M291.48067,147.32864a1.32514,1.32514,0,0,0-.947-.44224c-.05313-.00438-.10577-.00639-.15809-.00639a3.91341,3.91341,0,0,0-1.23649.27292l-.1437.04793a121.31483,121.31483,0,0,0-20.03109,8.632,117.588,117.588,0,0,0-10.40609,6.39107c-.25.17247-.54478.43738-.52944.71954.01234.22717.22732.45987.62163.67294.1225.06613.24661.12941.37068.19277.19835.10111.40342.20574.6001.32152a18.215,18.215,0,0,1,4.769,4.01765c.0405.0486.08056.09815.12078.148a1.42362,1.42362,0,0,0,1.00532.6963,1.19849,1.19849,0,0,0,.64006-.22041l.0437-.02459q.60861-.34147,1.21476-.68752c.79049-.44939,1.60785-.914,2.42244-1.35313a103.46709,103.46709,0,0,1,19.69967-8.13279c.97887-.28949,1.981-.55716,2.9501-.816.58881-.15733,1.19767-.3199,1.79443-.48561a1.46316,1.46316,0,0,0,1.00422-.70591,1.38971,1.38971,0,0,0-.07423-1.16779c-.89583-2.05466-1.80581-4.08826-2.57781-5.80664C292.59986,149.51728,291.67191,147.56077,291.48067,147.32864Z" style="fill: #c69f63"/>
          <path d="M264.45823,331.26856a18.2319,18.2319,0,0,1-5.77658,4.60083c-.41389.209-.64092.44081-.65655.67047-.01558.22946.17738.48941.55812.75184a118.26227,118.26227,0,0,0,28.37218,14.31688c.21164.07423.4229.15018.633.22574a16.50074,16.50074,0,0,0,2.5303.76928,2.00942,2.00942,0,0,0,1.40407-.3722c.10506-.102.86257-1.75221.93361-1.91478.44939-1.02818.91451-2.06971,1.36428-3.07694.44515-.99683.90545-2.02769,1.35017-3.04473a1.53079,1.53079,0,0,0,.09844-1.29624,1.51194,1.51194,0,0,0-1.07946-.69763c-1.73457-.4168-3.61776-.94566-5.92651-1.66435a104.90518,104.90518,0,0,1-21.73832-9.59807C265.42477,330.29535,265.25091,330.32308,264.45823,331.26856Z" style="fill: #c69f63"/>
          <path d="M302.30833,208.64258a53.60265,53.60265,0,0,1,16.10667,8.90493,52.4788,52.4788,0,0,1,4.74554,4.34431c.41818.42986.7193.50285,1.07383.25948.35219-.24147.39093-.54888.13812-1.09642-.09572-.20745-.18906-.41594-.28187-.62472q-.66594-1.49712-1.33888-2.99118c-1.046-2.32958-2.12761-4.73844-3.1446-7.12833a8.20573,8.20573,0,0,0-4.40315-4.46905,58.50518,58.50518,0,0,0-21.4139-5.05165,54.13016,54.13016,0,0,0-11.18915.74127,55.73032,55.73032,0,0,0-13.82856,4.25521,54.49943,54.49943,0,0,0-5.004,2.63089c-.2924.17152-.44391.33342-.45029.48093-.00667.15437.14222.34066.44253.55373a1.65,1.65,0,0,0,1.72171.19487,52.21837,52.21837,0,0,1,22.22178-3.80391,53.7719,53.7719,0,0,1,8.40627,1.0906c1.47553.31,2.99256.69877,4.509,1.1555C300.88606,208.16956,301.27085,208.28324,302.30833,208.64258Z" style="fill: #c69f63"/>
          <path d="M294.49643,268.021a35.92543,35.92543,0,0,0,7.8785-11.167,15.93589,15.93589,0,0,0,.75437-12.25117,33.74426,33.74426,0,0,0-7.52745-12.025,37.79142,37.79142,0,0,0-9.61132-7.296,28.70467,28.70467,0,0,0-7.64566-2.95258.6288.6288,0,0,0-.75485.21907c-.13841.19153-.05855.33352.09444.568.01644.02525.03287.0505.04879.07566a8.27866,8.27866,0,0,0,2.37207,2.43316,50.0011,50.0011,0,0,1,8.9612,7.71512,76.18864,76.18864,0,0,1,6.05459,8.02788c.10628.19109.20421.38678.30679.57994.28859.54315.58694,1.10489.85724,1.67006a14.13971,14.13971,0,0,1,1.296,7.91753,18.08883,18.08883,0,0,1-2.42778,6.53876c-.0201.03631-.04088.07242-.06165.10854-.19511.339-.67251,1.18227-.76585,1.31635l-.04617.06575a3.54366,3.54366,0,0,0-.72864,2.6972c.12445.9066.18224,1.43432-.07566,1.73773-.26753.31474-.81.32846-1.79476.35353a2.21248,2.21248,0,0,0-1.673.81264,54.18045,54.18045,0,0,1-10.01636,8.78486,8.02142,8.02142,0,0,0-2.33133,2.46946c-.14223.23013-.189.36773-.07.52734a.53.53,0,0,0,.55854.259c.19735-.03954.41247-.08929.6577-.15218A35.42487,35.42487,0,0,0,294.49643,268.021Z" style="fill: #c69f63"/>
          <path d="M315.93987,293.27991a7.21692,7.21692,0,0,0,3.52972-3.793c.48541-1.1169.989-2.24781,1.476-3.34147q.24363-.547.48689-1.09441.91472-2.05929,1.83082-4.1179l1.08346-2.43611c.01234-.02773.02353-.05594.03478-.08414.01424-.03574.02854-.07147.04455-.10644a.68137.68137,0,0,0-.19854-.96692c-.32437-.2206-.63478-.16371-.977.17867-1.16265,1.16341-2.52631,2.50777-3.99783,3.74045A53.45923,53.45923,0,0,1,302.1682,290.898c-.83.28416-1.56043.505-1.75754.56317a51.84948,51.84948,0,0,1-17.64043,2.1976,55.93065,55.93065,0,0,1-6.25409-.67571,50.61306,50.61306,0,0,1-11.10891-3.15994,1.67767,1.67767,0,0,0-.64926-.14056,1.58171,1.58171,0,0,0-.84218.25958c-.39717.2448-.59728.45558-.59476.62653.00253.17362.21441.383.62964.62235a57.4389,57.4389,0,0,0,6.45514,3.23045,55.43911,55.43911,0,0,0,20.05591,4.29924,54.49205,54.49205,0,0,0,9.90253-.66732A56.39967,56.39967,0,0,0,315.93987,293.27991Z" style="fill: #c69f63"/>
          <path d="M316.46264,203.22149c-1.28257-2.85682-2.43921-5.44911-3.536-7.92487a2.16878,2.16878,0,0,0-1.63028-1.31491,70.68188,70.68188,0,0,0-9.8607-1.23783c-.15628-.00915-1.23668-.05222-1.72257-.05222h-.01282c-2.1692.005-4.49549.03926-6.81.25309a64.48018,64.48018,0,0,0-9.2,1.52437,63.54818,63.54818,0,0,0-19.68685,8.49165c-1.3709.88926-2.71579,1.84636-3.9974,2.84453-.38674.30121-.569.55049-.55717.76185.01234.22079.24195.46521.70187.74717a1.91268,1.91268,0,0,0,2.20407.02545,58.20889,58.20889,0,0,1,12.30358-5.47094,59.41456,59.41456,0,0,1,15.53193-2.68987,54.89518,54.89518,0,0,1,8.00209.27568,60.09413,60.09413,0,0,1,17.35142,4.55433c.38254.16485.62854.14322.84914-.0749A.557.557,0,0,0,316.46264,203.22149Z" style="fill: #c69f63"/>
          <path d="M301.45967,306.74765l.04416-.00267a72.76793,72.76793,0,0,0,9.5268-1.17189,2.24,2.24,0,0,0,1.83292-1.25231q1.07345-2.38832,2.13928-4.78017.74313-1.66406,1.48749-3.32755a.51409.51409,0,0,0-.0587-.60815.57229.57229,0,0,0-.64545-.20211h-.00005a3.86743,3.86743,0,0,0-.39836.15513l-.09467.04069a59.66931,59.66931,0,0,1-20.44256,4.70394,57.17371,57.17371,0,0,1-15.09907-1.31883,58.78814,58.78814,0,0,1-17.27628-6.76079,2.41606,2.41606,0,0,0-1.22915-.3905,2.10076,2.10076,0,0,0-1.15264.38126c-.42362.27329-.634.5099-.64331.72335-.00915.21069.17262.45749.55564.75461a60.50513,60.50513,0,0,0,10.26535,6.43509,63.56818,63.56818,0,0,0,29.42672,6.67874C300.214,306.7973,301.34851,306.75432,301.45967,306.74765Z" style="fill: #c69f63"/>
          <path d="M299.69021,168.82569a1.13952,1.13952,0,0,0,.85509-.51762,1.0472,1.0472,0,0,0-.01853-.93376c-1.007-2.33262-2.06557-4.70279-3.14612-7.04485a1.64275,1.64275,0,0,0-1.60327-1.02981c-.07614.01172-.15266.022-.22913.0323-.16985.02278-.33028.04431-.48817.08148-2.87.67637-5.76572,1.50026-8.85248,2.51863a103.18991,103.18991,0,0,0-13.78572,5.72946c-1.39454.698-2.7855,1.4649-4.13062,2.20655q-.45969.25343-.91961.50628c-.69633.382-.884.8033-.60833,1.3659a19.61308,19.61308,0,0,1,1.783,6.18342.99111.99111,0,0,0,.40656.80931,1.07,1.07,0,0,0,.91093-.14256,91.633,91.633,0,0,1,19.45372-7.61888C292.27182,170.18463,295.47083,169.52283,299.69021,168.82569Z" style="fill: #c69f63"/>
          <path d="M297.48156,338.9833c1.1098-2.45011,2.0922-4.65381,3.00328-6.737a1.19781,1.19781,0,0,0,.05794-1.04468,1.23339,1.23339,0,0,0-.92737-.54335h0q-.52914-.09418-1.05834-.18734c-2.1217-.37449-4.31558-.76175-6.4551-1.25822a91.59223,91.59223,0,0,1-22.18237-8.27725,1.10422,1.10422,0,0,0-.97483-.16714c-.20892.10806-.34305.38069-.3986.81026a19.77984,19.77984,0,0,1-1.60446,5.8116c-.4623,1.00484-.36506,1.29719.6121,1.83978,2.02893,1.12653,4.06168,2.19312,6.04173,3.17023a102.764,102.764,0,0,0,18.82518,7.0217c.21526.05774.43038.11682.6434.17524a20.124,20.124,0,0,0,2.35121.55468A1.85654,1.85654,0,0,0,297.48156,338.9833Z" style="fill: #c69f63"/>
          <path d="M260.40875,387.8292c-2.92919-1.6471-5.99808-3.52738-9.382-5.74833a1.37865,1.37865,0,0,0-.75885-.26481,1.3972,1.3972,0,0,0-.772.27225c-2.45283,1.621-4.97208,3.18738-7.48771,4.65572q-.35328.20612-.70821.40918c-.44615.25661-.9075.5219-1.35408.79291a.79862.79862,0,0,0-.46516.81045.78632.78632,0,0,0,.60934.63711c.07756.02545.15508.05146.2326.07738.30326.10167.61682.20669.92871.2792a31.24229,31.24229,0,0,0,8.67575,1.01885c.22784.00019.44215.001.65165.00191a28.57859,28.57859,0,0,0,3.83317-.14666,35.29584,35.29584,0,0,0,5.85529-1.168c.51928-.16094.747-.36677.786-.71029C261.09532,388.37588,260.9086,388.11021,260.40875,387.8292Z" style="fill: #c69f63"/>
          <path d="M260.44258,110.10261q-.122-.04-.24385-.08109c-.29959-.10025-.60943-.204-.9176-.27549a34.4954,34.4954,0,0,0-7.59816-1.04763q-.46026,0-.892.02278c-.386.00267-.74651.00267-1.092.00267a27.267,27.267,0,0,0-3.57841.14808,35.77988,35.77988,0,0,0-5.8552,1.16931c-.51895.16095-.74622.367-.78443.71116-.04107.36963.14627.63521.64655.91641h.00005c2.92509,1.64462,5.994,3.5249,9.382,5.74832a1.22442,1.22442,0,0,0,1.53066-.00972c2.39518-1.58573,4.90157-3.14345,7.66243-4.76235.24685-.14474.49541-.28663.744-.42852.37716-.21536.76719-.438,1.14349-.66694a.79691.79691,0,0,0,.46335-.81093A.788.788,0,0,0,260.44258,110.10261Z" style="fill: #c69f63"/>
          <g>
            <path d="M240.63243,274.81471a45.66273,45.66273,0,0,1-5.06526-3.83525l-.54074-.47344c-1.001-.87551-2.036-1.78079-3.00984-2.72063-.75089-.72468-1.4747-1.49851-2.17472-2.24688q-.47013-.50266-.94347-1.002c-.16149-.1692-.32692-.33521-.49232-.50122a15.14934,15.14934,0,0,1-1.06367-1.144c-.9395-1.16146-2.04348-2.54507-3.10829-4.00088a22.7663,22.7663,0,0,1-2.75668-4.65136,9.7218,9.7218,0,0,1-.73219-5.31953,10.999,10.999,0,0,1,1.77617-4.50589c1.02-1.51448,1.94793-2.87755,2.97518-4.22245,1.16585-1.52645,2.39083-2.96762,3.43533-4.176.5899-.68246,1.23845-1.32888,1.86566-1.954q.22431-.22358.44779-.44755c.61381-.61692,1.17448-1.15217,1.71406-1.63643q.32232-.28926.6426-.58151c.7612-.6916,1.5483-1.40677,2.37636-2.04732,1.43783-1.1122,2.94249-2.18417,4.39762-3.2208l.50658-.361a2.022,2.022,0,0,0,.74781-.94273,4.84109,4.84109,0,0,0-.675.19337c-.46787.18638-.93726.3695-1.40671.55263-1.3496.52653-2.74516,1.071-4.07709,1.68652-1.99186.92057-3.91972,1.90925-5.73008,2.93863a39.51573,39.51573,0,0,0-5.55748,3.75616q-.50219.41114-1.0084.81847c-1.16509.94163-2.36987,1.91529-3.46955,2.95654-1.32607,1.25562-2.56334,2.65625-3.75986,4.01076l-.1669.1889c-1.1499,1.30126-2.22623,2.6448-3.12745,3.78741-.66268.84032-1.276,1.73678-1.84743,2.58293-.29893.44266-.579.91264-.84978,1.36712-.11351.19053-.227.38106-.34233.57043v.24683l.32206.50327c.25649.40149.513.80293.77344,1.20185a53.4354,53.4354,0,0,0,4.86271,6.48283l.52562.59112c.76866.8659,1.5635,1.76131,2.38549,2.59848.77449.78886,1.6213,1.538,2.44022,2.26253l.27367.24226.35921.31972a25.46958,25.46958,0,0,0,2.0563,1.709c2.0717,1.48659,3.8047,2.71685,5.67023,3.889,1.5854.99609,3.27321,1.86377,4.90549,2.70289a37.87168,37.87168,0,0,0,6.45042,2.56612c.34656.10362.69485.20146,1.07058.307l.0416.01171A4.10186,4.10186,0,0,0,240.63243,274.81471Z" style="fill: #c69f63"/>
            <path d="M288.84346,249.12056l-.43575-.637c-.68792-1.00695-1.39926-2.04815-2.13906-3.03941-.44619-.59785-.949-1.17432-1.43516-1.73179-.19213-.22031-.38426-.44056-.57372-.66281-.30047-.35244-.59625-.70961-.892-1.06678-.69364-.83769-1.41089-1.70385-2.17853-2.48866-1.18879-1.2154-2.4822-2.37323-3.733-3.493l-.37-.33133c-.78085-.69989-1.59389-1.35923-2.41651-1.95971-.93582-.68309-2.17469-1.56926-3.459-2.365-1.54076-.9547-3.12913-1.87858-4.721-2.746a61.32823,61.32823,0,0,0-6.48314-2.9047q-.49368-.1986-.98689-.398a11.72025,11.72025,0,0,0-1.27-.404q-.13341-.037-.26828-.07488a1.804,1.804,0,0,0,.64181.87886q.91051.67535,1.82934,1.34c1.14182.83118,2.32247,1.69062,3.4567,2.57343,1.1706.91116,2.26839,1.9072,3.38337,2.9328.54176.49838,1.05136,1.04382,1.54418,1.57135.17317.18533.34632.37072.521.55426q.30266.31809.608.63393c.59706.62017,1.21447,1.2614,1.789,1.92416.86677.99992,1.78205,2.07142,2.607,3.21025,1.09374,1.51,2.11136,3.02187,3.02457,4.49375a9.88778,9.88778,0,0,1,1.5086,6.53719,11.1609,11.1609,0,0,1-.95686,3.24291,25.23361,25.23361,0,0,1-2.98416,4.77178l-.299.40018c-.83358,1.1164-1.69553,2.27082-2.63582,3.33014-1.15779,1.30436-2.46183,2.65813-4.1039,4.26026-1.16852,1.14-2.41535,2.2347-3.62116,3.29338l-.24357.21385c-.85264.74889-1.70239,1.44384-2.52567,2.06559-.45794.34588-.93669.67636-1.39962.996-.48583.33543-.98824.68225-1.46293,1.04461a5.53774,5.53774,0,0,0-.75845.75672l-.00315.00357c.04926-.01387.09868-.02726.14828-.03981a37.23029,37.23029,0,0,0,6.54312-2.40742c1.07549-.49781,2.19036-1.06825,3.31362-1.69551,1.29307-.7221,2.52572-1.45723,3.66375-2.18485a46.00538,46.00538,0,0,0,5.90525-4.35317l.31166-.27907c1.20172-1.07565,2.44434-2.1879,3.5942-3.34884,1.15736-1.1685,2.33676-2.47191,3.50544-3.874,1.09091-1.30882,2.09584-2.68733,2.935-3.86323.54-.75661,1.052-1.5556,1.54714-2.32828.21254-.33159.42507-.66324.64042-.99283v-.2473c-.06328-.10766-.12528-.21627-.18725-.32482C289.17072,249.64347,289.015,249.3707,288.84346,249.12056Z" style="fill: #c69f63"/>
            <path d="M263.47566,268.09991a.17264.17264,0,0,0-.16244-.08192.33188.33188,0,0,0-.04377.003,2.31033,2.31033,0,0,0-.81934.29541,23.69737,23.69737,0,0,1-4.61935,2.02053,29.68386,29.68386,0,0,1-3.78457.92256,34.27677,34.27677,0,0,1-3.70944.43557c-.21755.01576-.449.02379-.68787.02379-.59446,0-1.18189-.04926-1.62726-.09216-1.3241-.12757-2.47335-.27194-3.51342-.4413a24.50437,24.50437,0,0,1-6.76232-2.27025c-.49616-.23916-.97049-.49529-1.47268-.76648q-.24688-.13337-.49817-.268a.65909.65909,0,0,0-.01526.69637,18.22055,18.22055,0,0,0,4.08914,4.68371,19.74283,19.74283,0,0,0,5.67483,3.17453,10.64325,10.64325,0,0,0,3.68187.71187c.19881,0,.39939-.00694.59615-.02064.16254-.0113.32571-.02012.489-.029a10.17222,10.17222,0,0,0,1.44713-.14742,14.586,14.586,0,0,0,3.88388-1.39353,28.00325,28.00325,0,0,0,3.00627-1.837,18.685,18.685,0,0,0,1.95236-1.65239l.11128-.10319a8.38959,8.38959,0,0,0,1.03661-1.1789c.57689-.78008,1.15384-1.60738,1.71483-2.45894A.22506.22506,0,0,0,263.47566,268.09991Z" style="fill: #c69f63"/>
            <path d="M259.49076,228.04442a18.83856,18.83856,0,0,0-3.5839-2.37633A15.5467,15.5467,0,0,0,251.404,224.089a11.78732,11.78732,0,0,0-3.6333-.03655,13.71169,13.71169,0,0,0-3.36146,1.03888,19.09251,19.09251,0,0,0-5.34558,3.3949,15.98949,15.98949,0,0,0-3.21668,3.92043c-.20516.36021-.22955.53089-.06139.81448.05013-.02395.10023-.04816.15-.0731.35711-.17893.71192-.3631,1.06675-.54728.78386-.4069,1.59443-.82761,2.42055-1.1842a24.5168,24.5168,0,0,1,4.76839-1.4731,27.93989,27.93989,0,0,1,4.58364-.55741c.24754-.00972.50182-.01471.75579-.01471a26.30617,26.30617,0,0,1,4.138.36311,26.64454,26.64454,0,0,1,4.35238,1.07412,27.32469,27.32469,0,0,1,4.926,2.22251.324.324,0,0,0,.15939.02973.92739.92739,0,0,0,.29685-.05305.63238.63238,0,0,0-.00856-.29624A16.91229,16.91229,0,0,0,259.49076,228.04442Z" style="fill: #c69f63"/>
            <g>
              <path d="M256.47408,251.53481c.35616.57733.72658.61469,1.47847.46081a3.46312,3.46312,0,0,1,2.08251.03559,2.79971,2.79971,0,0,1,1.55265,2.06177c.03675.13534.04732.27778.08682.52015-.33473-.25343-.60119-.44958-.86166-.65339a3.05561,3.05561,0,0,0-2.91332-.50841,3.44878,3.44878,0,0,1-2.17756.03832,2.36248,2.36248,0,0,1-.89367-.59241c-.35354-.38453-.26553-.92083.22728-1.38756a.834.834,0,0,0,.22462-.89415,6.52165,6.52165,0,0,1,.03384-1.15286,1.35731,1.35731,0,0,0-.10375-.4443c-.02235-.06306-.09773-.10824-.15132-.15914-.7538-.71611-.43113-1.371.26235-1.798a2.60557,2.60557,0,0,1,2.276-.19957,3.65447,3.65447,0,0,0,3.335-.57682c.22011-.14326.45-.2715.68377-.4117a2.64834,2.64834,0,0,1-2.03486,2.52971,6.25683,6.25683,0,0,1-2.4011-.15735l-.33034.7763,7.37153,1.19625C261.6643,250.7338,259.015,250.73254,256.47408,251.53481Z" style="fill: #c69f63"/>
              <path d="M243.1573,249.21127v2.03962l.805.61833v.78c-.27115.20643-.55132.4346-.84648.64137a2.43285,2.43285,0,0,1-2.02761.2569,13.05422,13.05422,0,0,0-1.42494-.2588,3.02106,3.02106,0,0,0-2.3851.87407,1.67769,1.67769,0,0,1-.16537.14644c-.08732.05933-.18205.10778-.33492.19642a3.065,3.065,0,0,1,1.62-2.40071,3.45375,3.45375,0,0,1,2.03175-.12328,1.588,1.588,0,0,0,1.52893-.26963,27.27379,27.27379,0,0,0-7.0359-1.37272l-.0056-.12118c.48788-.11328.97145-.25227,1.46445-.33495,1.40786-.23614,2.82092-.44115,4.2288-.67709a9.09076,9.09076,0,0,0,1.115-.29776,1.01657,1.01657,0,0,0,.25623-.17746c-.31953-.45338-.64935-.51349-1.33287-.38527a3.61936,3.61936,0,0,1-2.3508-.15335,2.33353,2.33353,0,0,1-1.20816-1.38341c-.10284-.27976-.17777-.56977-.26536-.85514l.07856-.05886c.29566.192.60468.36651.88445.57941a3.11432,3.11432,0,0,0,2.6965.49012,3.64462,3.64462,0,0,1,2.16312-.1169,3.33188,3.33188,0,0,1,.90385.51676.92583.92583,0,0,1-.01862,1.36279c-.18217.1231-.34343.27714-.51419.41712Z" style="fill: #c69f63"/>
              <path d="M247.9128,259.0689c-1.53694.88215-1.81848,2.33541-1.87139,4.0054-.15544-.18412-.24759-.27992-.32451-.3867a3.33767,3.33767,0,0,1-.72234-1.47892,2.28438,2.28438,0,0,1,.4786-1.8262c.43529-.54283.93713-1.03173,1.39206-1.55956.28471-.33032.51768-.70577.8074-1.03111a1.95512,1.95512,0,0,1,1.84948-.72629,1.84588,1.84588,0,0,1,1.41156.90071,13.55283,13.55283,0,0,0,1.894,2.1824,2.48035,2.48035,0,0,1,.70208,1.626,3.29058,3.29058,0,0,1-1.04112,2.22491c-.02872-1.67372-.41491-3.12677-1.97712-3.97564-.74352,2.08811-.84977,4.32353-1.335,6.38594Z" style="fill: #c69f63"/>
              <path d="M246.03378,237.3228c.08468,1.63293.2895,3.15461,1.9556,4.0039a40.436,40.436,0,0,0,1.20759-6.19306c.49069,2.055.578,4.19314,1.31554,6.18848,1.44564-1.03075,1.75555-1.23491,1.92545-4.04082a3.73956,3.73956,0,0,1,1.08251,2.02737,2.65119,2.65119,0,0,1-1.2028,2.45448,9.05412,9.05412,0,0,0-1.44933,1.72636,1.91551,1.91551,0,0,1-3.2126.04367,11.50791,11.50791,0,0,0-1.86067-2.15825,2.66762,2.66762,0,0,1-.85153-1.79431,2.50669,2.50669,0,0,1,.65127-1.72419C245.73491,237.67377,245.88711,237.5004,246.03378,237.3228Z" style="fill: #c69f63"/>
              <path d="M242.52591,238.71539c.24594.64679.45646,1.20825.67286,1.76744a2.2879,2.2879,0,0,0,1.31215,1.17932,11.62558,11.62558,0,0,1,1.6023.82681,1.78828,1.78828,0,0,1,.89295,1.73936.95832.95832,0,0,1-.7919.90978c-.64991.03656-1.00171-.18567-1.12245-.77551a.831.831,0,0,0-.55928-.7033,3.99694,3.99694,0,0,1-2.42581-2.45708A2.97953,2.97953,0,0,1,242.52591,238.71539Z" style="fill: #c69f63"/>
              <path d="M259.73905,258.31945c-.502-.46714-.97273-.96122-1.50207-1.38156a2.91681,2.91681,0,0,0-1.73179-.55715,3.658,3.658,0,0,1-2.38528-.58942,2.27407,2.27407,0,0,1-.63967-.85614.85776.85776,0,0,1,.48078-1.123,12.54569,12.54569,0,0,1,1.224-.3747l.71309,1.41169c.64892.0719,1.28328.10247,1.90111.22a2.39223,2.39223,0,0,1,1.8676,2.0646c.01644.3156.04934.63031.07119.94567C259.74453,258.173,259.73905,258.26742,259.73905,258.31945Z" style="fill: #c69f63"/>
              <path d="M253.79074,243.33284c-.0722.378-.125.6996-.19616,1.017a.91479.91479,0,0,1-.92561.85393,1.15875,1.15875,0,0,1-1.07122-.5754,1.49259,1.49259,0,0,1,.2486-1.62024,3.85527,3.85527,0,0,1,1.87389-1.24879A3.19426,3.19426,0,0,0,255.593,239.855c.13469-.34769.25879-.69948.38955-1.05437a2.96144,2.96144,0,0,1,.21734,2.87547A4.33208,4.33208,0,0,1,253.79074,243.33284Z" style="fill: #c69f63"/>
              <path d="M242.56105,246.43668l.614-.72663c-.47305-.09724-.90643-.19213-1.34221-.27436a10.58992,10.58992,0,0,1-1.4923-.27752,2.26176,2.26176,0,0,1-1.5431-1.97513,3.51026,3.51026,0,0,1,.07487-1.165c.12.15265.23813.30686.36039.4577a3.51731,3.51731,0,0,0,2.752,1.49432,6.797,6.797,0,0,1,1.816.293,1.71581,1.71581,0,0,1,1.21671,1.19662,1.02374,1.02374,0,0,1-.7095,1.2296A3.00631,3.00631,0,0,1,242.56105,246.43668Z" style="fill: #c69f63"/>
              <path d="M253.61566,256.8283c.51945.2778,1.02764.558,1.54336.8237a2.60722,2.60722,0,0,1,1.03655,3.51484c-.07728.14835-.1464.301-.25406.52341-.18144-.485-.34095-.89928-.49162-1.31677a2.8949,2.8949,0,0,0-1.46293-1.64c-.56941-.29335-1.14052-.58888-1.68213-.92921a1.85491,1.85491,0,0,1-.84965-1.59706,1.02374,1.02374,0,0,1,1.05673-.988.95491.95491,0,0,1,1.01452.9647A4.76634,4.76634,0,0,0,253.61566,256.8283Z" style="fill: #c69f63"/>
              <path d="M242.50753,261.56732a2.65547,2.65547,0,0,1,.88285-3.957,4.8124,4.8124,0,0,1,.79351-.35428,1.32635,1.32635,0,0,0,.89322-1.09012c.05852-.28309.11425-.56675.17772-.88238a9.34707,9.34707,0,0,1,.952.00557c.654.06717.97556.69.753,1.41005a2.63424,2.63424,0,0,1-1.74061,1.68209,4.02982,4.02982,0,0,0-2.28984,2.2353C242.78673,260.93064,242.64941,261.24711,242.50753,261.56732Z" style="fill: #c69f63"/>
              <path d="M259.67829,242.005a2.66549,2.66549,0,0,1-2.2886,3.3568c-.50758.05044-1.01466.106-1.5377.16089a2.10571,2.10571,0,0,1-1.25816,1.261c-.33056.09755-.59577.10954-.75625-.254a.988.988,0,0,0-.09819-.151c-.58026-.84616-.27947-1.26935.32019-1.79a2.75864,2.75864,0,0,1,1.65615-.56311c.54529-.04065,1.09346-.08133,1.6313-.17437a3.11238,3.11238,0,0,0,2.02139-1.43622C259.46093,242.2825,259.56306,242.15683,259.67829,242.005Z" style="fill: #c69f63"/>
              <path d="M242.54418,254.83176l.89278-1.39128a5.12845,5.12845,0,0,1,1.18968.41651.958.958,0,0,1,.18169,1.49359,2.33817,2.33817,0,0,1-1.912.97048c-.5252.00587-1.04981.05259-1.57507.06829a2.25,2.25,0,0,0-1.71473,1.03782c-.25019.31688-.47967.65012-.74278,1.00915a2.61942,2.61942,0,0,1,2.40865-3.45352C241.70459,254.95466,242.13386,254.88166,242.54418,254.83176Z" style="fill: #c69f63"/>
            </g>
          </g>
          <path d="M211.07074,292.05142a50.97181,50.97181,0,0,1-14.64945-3.48946A50.29788,50.29788,0,0,1,174.393,271.43c-.14232-.19382-.296-.38526-.44468-.57041a40.59157,40.59157,0,0,1-2.23147-3.39626c-.0505-.1031-.10272-.20973-.163-.30893a46.46829,46.46829,0,0,1-2.94648-5.75576,29.43573,29.43573,0,0,1-2.17773-15.36222c.53763-4.50516,2.21985-8.90054,5.45445-14.25169.0241-.03993.04631-.08319.0687-.127.091-.17838,1.05239-1.65024,1.30124-2.01559a51.82222,51.82222,0,0,1,8.58352-9.73653,50.20146,50.20146,0,0,1,16.33194-9.63333,51.10075,51.10075,0,0,1,19.31965-2.96974,52.88068,52.88068,0,0,1,14.35409,2.60954,16.26,16.26,0,0,1,1.71328.6333c.197.09034.43824.24576.4684.473a.74441.74441,0,0,1-.3471.60482,1.99143,1.99143,0,0,1-1.84668.41937,43.416,43.416,0,0,0-10.32215-1.12558,41.03179,41.03179,0,0,0-9.78956,1.03934,48.96081,48.96081,0,0,0-22.11977,11.23946,3.92608,3.92608,0,0,1-2.5738,1.01132c-1.147.04651-2.31052.12988-3.43571.2105q-.49821.03573-.99646.07061a.93761.93761,0,0,0-.66785.25319.64951.64951,0,0,0-.131.49875c.03164.34324.06118.68686.09076,1.03048.09,1.04658.18311,2.1287.33657,3.18624a3.817,3.817,0,0,1-.61958,2.877,41.31263,41.31263,0,0,0-3.09471,5.25453,26.71106,26.71106,0,0,0-1.40287,20.99924,35.37475,35.37475,0,0,0,4.51459,8.60209,3.48564,3.48564,0,0,1,.66432,2.34835c-.14608,1.55229-.28949,2.99556-.43834,4.41216a1.07407,1.07407,0,0,0,.11235.8215c.14913.17581.40856.22384.8063.24728l.46888.02773c1.387.08176,2.82123.16638,4.22968.2712a3.322,3.322,0,0,1,2.00534.87038,49.229,49.229,0,0,0,13.10364,8.39332,47.671,47.671,0,0,0,16.50085,3.957,44.55442,44.55442,0,0,0,12.79208-1.0887,2.32891,2.32891,0,0,1,.53868-.06689,1.92608,1.92608,0,0,1,1.24778.47016c.26558.21479.398.43758.37292.6274-.031.23413-.286.39336-.49451.48579-.56159.2489-1.16159.44586-1.74182.63626l-.04074.01343A51.54743,51.54743,0,0,1,211.07074,292.05142Z" style="fill: #c69f63"/>
          <path d="M189.65583,274.03554a45.15514,45.15514,0,0,1-9.54528-13.74256,24.47484,24.47484,0,0,1-1.07274-18.26649,41.55126,41.55126,0,0,1,9.04439-14.91883,44.74883,44.74883,0,0,1,14.42118-10.53707,46.65376,46.65376,0,0,1,19.25408-4.28828c1.66078-.01848,3.3541.12626,4.99176.26605l.23752.02021a29.36412,29.36412,0,0,1,3.22007.49656.80186.80186,0,0,1,.63678.44834.50358.50358,0,0,1-.113.499,3.4637,3.4637,0,0,1-2.90018,1.54981c-.33166-.01306-.66775-.00963-.99279-.00629-.14951.00162-.29907.00314-.44853.00314a29.74352,29.74352,0,0,0-4.23777.30179,43.148,43.148,0,0,0-11.60729,3.1406,46.03528,46.03528,0,0,0-13.30522,8.69081,2.25454,2.25454,0,0,1-1.50469.62806c-.81431.036-1.63976.09967-2.43806.16133-.45111.03487-.91756.07089-1.37624.10138a.78311.78311,0,0,0-.58161.23909.72925.72925,0,0,0-.1284.57575c.04417.38268.08438.77281.12321,1.15016.06437.62453.13088,1.27032.21755,1.90391a3.39159,3.39159,0,0,1-.52282,2.43887,40.19233,40.19233,0,0,0-2.99113,5.39413,22.07892,22.07892,0,0,0-1.2961,15.41768,32.64315,32.64315,0,0,0,4.23349,8.81593,3.39558,3.39558,0,0,1,.60353,2.29431c-.04532.39613-.08758.79254-.12979,1.18895-.0698.655-.14194,1.33226-.22756,1.99567a.84317.84317,0,0,0,.13108.68238.79666.79666,0,0,0,.60872.23766c.39436.01705.79572.04316,1.18389.06841.46025.03.93623.061,1.406.07729a4.05162,4.05162,0,0,1,3.31583,1.30243,6.75223,6.75223,0,0,0,1.11977,1.0016c.13178.10139.2681.20631.39764.31132a46.6987,46.6987,0,0,0,13.22166,7.64833,42.76881,42.76881,0,0,0,15.05276,2.59705l.02263-.00009a3.77563,3.77563,0,0,1,2.99385,1.48234.61691.61691,0,0,1,.17.529.6302.6302,0,0,1-.38217.419,2.83014,2.83014,0,0,1-.7506.19277,47.65747,47.65747,0,0,1-16.97678-.26863A45.43362,45.43362,0,0,1,189.65583,274.03554Z" style="fill: #c69f63"/>
          <path d="M225.806,282.597a29.82327,29.82327,0,0,1-3.98821-.35962,43.64341,43.64341,0,0,1-10.90208-3.11735,41.98241,41.98241,0,0,1-12.947-8.89225,40.54229,40.54229,0,0,1-6.51094-8.696c-2.44759-4.33469-3.55034-7.98423-3.47049-11.4855l0-.00343a20.76847,20.76847,0,0,1,1.69265-8.52625,40.942,40.942,0,0,1,11.13321-14.851,41.76159,41.76159,0,0,1,10.71164-6.53828,42.60515,42.60515,0,0,1,11.82307-3.0434c.17648-.01925.3531-.04079.53-.06232a13.60253,13.60253,0,0,1,1.63558-.13236c.15384,0,.3075.00533.46068.01734a.98419.98419,0,0,1,.82746.51457.59852.59852,0,0,1-.06914.62416,5.2384,5.2384,0,0,1-2.94725,2.34739,39.3862,39.3862,0,0,0-5.47565,1.60146,44.02852,44.02852,0,0,0-4.13328,1.83683,41.2168,41.2168,0,0,0-10.38347,7.559,1.80892,1.80892,0,0,1-1.163.58518c-.75623.06117-1.38648.11054-2.03823.14179-.55249.02649-.90035.05355-1.083.26739-.17315.20268-.16162.5038-.09691,1.09594a3.1628,3.1628,0,0,0,.06422.35172,4.286,4.286,0,0,1-.79553,3.91435,16.04082,16.04082,0,0,0-1.811,3.072q-.13914.28215-.27925.56288a18.17387,18.17387,0,0,0-1.47191,12.785,25.69788,25.69788,0,0,0,3.986,8.24847,2.89966,2.89966,0,0,1,.50142,2.2199c-.07366.4532-.1173.91651-.15952,1.36456-.017.18058-.03406.36125-.053.54154a.75036.75036,0,0,0,.14165.60043.819.819,0,0,0,.62716.22879c.41871.01087.84561.04126,1.25841.07071.32332.02306.6576.04688.98774.06127a1.95417,1.95417,0,0,1,1.36861.58842,35.98029,35.98029,0,0,0,3.002,2.71455,38.89831,38.89831,0,0,0,16.06217,8.04579,5.78308,5.78308,0,0,1,3.64893,2.24257l.05217.07157c.25138.34324.3977.56974.2458.88839A.94183.94183,0,0,1,225.806,282.597Z" style="fill: #c69f63"/>
          <path d="M249.57281,198.31115q-.00029.49527.00024.99045.00064,1.04272-.00219,2.08535a.859.859,0,0,1-.50061.86648c-.30994.14112-.54635.01381-.82765-.2368q-.47027-.41923-.93762-.8419c-.84184-.75851-1.71237-1.54285-2.59948-2.27935a78.77565,78.77565,0,0,0-48.77819-18.31528c-.51-.01106-.86253-.05013-1.107-.47465-.27267-.47359-.14956-.81448.1225-1.32854.07623-.144.818-1.948.818-1.948.46793-1.03334.939-2.08573,1.39453-3.10363q.324-.72382.64846-1.44756a1.8516,1.8516,0,0,1,1.82158-1.33388,3.5942,3.5942,0,0,1,.47026.03345,89.47716,89.47716,0,0,1,36.45561,13.19835A89.66418,89.66418,0,0,1,248.53624,193.29a2.90906,2.90906,0,0,1,1.04362,2.41839c-.02187.59918-.01663,1.20781-.01153,1.79632C249.57062,197.77352,249.573,198.04243,249.57281,198.31115Z" style="fill: #c69f63"/>
          <path d="M197.799,327.20593l-1.3153-2.92991c-.08352-.1861-.17767-.37154-.26877-.55088a5.14009,5.14009,0,0,1-.50161-1.2342,5.63759,5.63759,0,0,0-.71868-1.69694c-.29235-.4979-.4756-.89088-.16895-1.41393.25547-.43586.61624-.46654,1.17979-.46159a59.21391,59.21391,0,0,0,6.89292-.44939,79.0865,79.0865,0,0,0,37.66232-14.635,90.29157,90.29157,0,0,0,7.64218-6.31892.974.974,0,0,1,.61568-.33162.60434.60434,0,0,1,.262.06509.909.909,0,0,1,.49384.9429q-.00122.92624-.00067,1.85245l-.00009,1.08727c-.0001.26863-.00224.53725-.00438.80588-.00486.611-.00987,1.24278.01005,1.86484a2.85563,2.85563,0,0,1-1.00384,2.3675c-1.913,1.72048-3.94562,3.402-6.04135,4.99791A89.52847,89.52847,0,0,1,206.399,327.46026c-2.06057.41547-4.16335.77052-6.24984,1.05544A1.93712,1.93712,0,0,1,197.799,327.20593Z" style="fill: #c69f63"/>
          <path d="M195.54876,182.57349c.16206.00778.32452-.00267.48632-.00267,2.49224,0,4.92249.20182,6.99316.40289a72.11078,72.11078,0,0,1,14.66735,2.99375,73.60854,73.60854,0,0,1,28.92054,17.10061.90148.90148,0,0,1-.37755,1.67836c-.177.05765-.361.11053-.53882.1618a7.83387,7.83387,0,0,0-1.16178.40184,2.24567,2.24567,0,0,1-2.56838-.37373,58.67973,58.67973,0,0,0-6.46524-4.372,68.8555,68.8555,0,0,0-15.81685-6.85713,67.898,67.898,0,0,0-17.03858-2.60992,54.372,54.372,0,0,0-7.86435.27615c-1.01318.11912-2.026.24138-3.07994.36859-.49428.05975-.99765.12054-1.51432.18258a.71557.71557,0,0,1-.60729-.29664.81521.81521,0,0,1-.00429-.77834c.89884-2.08391,1.97381-4.551,3.13169-7.0479a1.76108,1.76108,0,0,1,.61534-.74365C193.52211,182.89755,193.805,182.4897,195.54876,182.57349Z" style="fill: #c69f63"/>
          <path d="M193.57473,316.6603c-.07949-.056-.18907-.16583-.34873-.302a3.23025,3.23025,0,0,1-.78315-1.23335l-.01072-.0243q-.50091-1.13076-1.00665-2.25944c-.59176-1.32444-1.20371-2.69406-1.79156-4.04671a.95994.95994,0,0,1-.028-.93709,1.02982,1.02982,0,0,1,.96291-.27234c.08276.0081.16557.02353.25324.03992.04726.00886.09453.01763.14194.02535a57.24951,57.24951,0,0,0,7.07477.72554,67.8247,67.8247,0,0,0,32.93571-6.98053,66.75511,66.75511,0,0,0,11.201-6.98005,1.99206,1.99206,0,0,1,2.15662-.30722c.52.21755,1.0674.3845,1.59674.54592l.22722.06947c.53439.16409.7882.38116.876.74918.1032.43243-.166.7223-.50156,1.03q-.51215.46968-1.02976.93346-.49828.44912-.99412.90079a65.83593,65.83593,0,0,1-8.76052,6.709,73.57873,73.57873,0,0,1-19.20406,8.83613,76.46672,76.46672,0,0,1-19.67818,3.04387c-.13674-.00029-.27748-.00114-.41813-.00191-.16176-.00095-.326-.0019-.49118-.0019-.198,0-.39717.00571-.59485.00572A4.00405,4.00405,0,0,1,193.57473,316.6603Z" style="fill: #c69f63"/>
          <path d="M209.02484,147.32864a1.32514,1.32514,0,0,1,.947-.44224c.05312-.00438.10577-.00639.15809-.00639a3.91341,3.91341,0,0,1,1.23649.27292l.1437.04793a121.31483,121.31483,0,0,1,20.03109,8.632,117.588,117.588,0,0,1,10.40609,6.39107c.25.17247.54478.43738.52944.71954-.01234.22717-.22732.45987-.62163.67294-.1225.06613-.24661.12941-.37068.19277-.19835.10111-.40342.20574-.6001.32152a18.215,18.215,0,0,0-4.769,4.01765c-.0405.0486-.08057.09815-.12078.148a1.42362,1.42362,0,0,1-1.00532.6963,1.19855,1.19855,0,0,1-.64007-.22041l-.04369-.02459q-.60862-.34147-1.21477-.68752c-.79048-.44939-1.60784-.914-2.42243-1.35313a103.46709,103.46709,0,0,0-19.69967-8.13279c-.97887-.28949-1.981-.55716-2.95011-.816-.5888-.15733-1.19766-.3199-1.79442-.48561a1.46313,1.46313,0,0,1-1.00422-.70591,1.38967,1.38967,0,0,1,.07423-1.16779c.89583-2.05466,1.80581-4.08826,2.57781-5.80664C207.90565,149.51728,208.83359,147.56077,209.02484,147.32864Z" style="fill: #c69f63"/>
          <path d="M236.04728,331.26856a18.232,18.232,0,0,0,5.77657,4.60083c.4139.209.64093.44081.65656.67047.01558.22946-.17739.48941-.55812.75184a118.26278,118.26278,0,0,1-28.37218,14.31688c-.21164.07423-.4229.15018-.633.22574a16.50051,16.50051,0,0,1-2.53031.76928,2.00939,2.00939,0,0,1-1.40406-.3722c-.10506-.102-.86257-1.75221-.93361-1.91478-.44939-1.02818-.91451-2.06971-1.36428-3.07694-.44515-.99683-.90545-2.02769-1.35018-3.04473a1.53082,1.53082,0,0,1-.09843-1.29624,1.51192,1.51192,0,0,1,1.07945-.69763c1.73458-.4168,3.61777-.94566,5.92652-1.66435a104.90565,104.90565,0,0,0,21.73832-9.59807C235.08074,330.29535,235.2546,330.32308,236.04728,331.26856Z" style="fill: #c69f63"/>
          <path d="M198.19718,208.64258a53.60282,53.60282,0,0,0-16.10668,8.90493,52.48007,52.48007,0,0,0-4.74553,4.34431c-.41818.42986-.7193.50285-1.07383.25948-.35219-.24147-.39093-.54888-.13812-1.09642.09572-.20745.18905-.41594.28187-.62472q.66594-1.49712,1.33888-2.99118c1.046-2.32958,2.12761-4.73844,3.1446-7.12833a8.20573,8.20573,0,0,1,4.40315-4.46905,58.50513,58.50513,0,0,1,21.4139-5.05165,54.1302,54.1302,0,0,1,11.18915.74127,55.73044,55.73044,0,0,1,13.82856,4.25521,54.49806,54.49806,0,0,1,5.004,2.63089c.2924.17152.44392.33342.4503.48093.00667.15437-.14222.34066-.44253.55373a1.65,1.65,0,0,1-1.72171.19487,52.21837,52.21837,0,0,0-22.22178-3.80391,53.7719,53.7719,0,0,0-8.40627,1.0906c-1.47553.31-2.99256.69877-4.509,1.1555C199.61945,208.16956,199.23466,208.28324,198.19718,208.64258Z" style="fill: #c69f63"/>
          <path d="M206.00908,268.021a35.92545,35.92545,0,0,1-7.87851-11.167,15.936,15.936,0,0,1-.75437-12.25117,33.74429,33.74429,0,0,1,7.52746-12.025,37.79124,37.79124,0,0,1,9.61132-7.296,28.70467,28.70467,0,0,1,7.64566-2.95258.62878.62878,0,0,1,.75484.21907c.13841.19153.05856.33352-.09443.568-.01644.02525-.03288.0505-.04879.07566a8.27866,8.27866,0,0,1-2.37207,2.43316,50.0011,50.0011,0,0,0-8.9612,7.71512,76.18864,76.18864,0,0,0-6.05459,8.02788c-.10628.19109-.20421.38678-.30679.57994-.28859.54315-.58694,1.10489-.85724,1.67006a14.13971,14.13971,0,0,0-1.29605,7.91753,18.089,18.089,0,0,0,2.42777,6.53876c.02011.03631.04088.07242.06166.10854.19511.339.67251,1.18227.76585,1.31635l.04617.06575a3.5437,3.5437,0,0,1,.72864,2.6972c-.12445.9066-.18224,1.43432.07566,1.73773.26753.31474.81.32846,1.79476.35353a2.21248,2.21248,0,0,1,1.673.81264,54.18072,54.18072,0,0,0,10.01635,8.78486,8.02133,8.02133,0,0,1,2.33134,2.46946c.14222.23013.189.36773.07.52734a.53.53,0,0,1-.55855.259c-.19734-.03954-.41246-.08929-.65769-.15218A35.42487,35.42487,0,0,1,206.00908,268.021Z" style="fill: #c69f63"/>
          <path d="M184.56564,293.27991a7.21688,7.21688,0,0,1-3.52972-3.793c-.48541-1.1169-.989-2.24781-1.476-3.34147q-.24363-.547-.48689-1.09441-.91472-2.05929-1.83082-4.1179l-1.08346-2.43611c-.01234-.02773-.02353-.05594-.03478-.08414-.01424-.03574-.02854-.07147-.04455-.10644a.68137.68137,0,0,1,.19854-.96692c.32437-.2206.63478-.16371.977.17867,1.16264,1.16341,2.5263,2.50777,3.99783,3.74045a53.45912,53.45912,0,0,0,17.08451,9.63934c.83.28416,1.56043.505,1.75754.56317a51.84948,51.84948,0,0,0,17.64043,2.1976,55.93047,55.93047,0,0,0,6.25408-.67571,50.61291,50.61291,0,0,0,11.10891-3.15994,1.67775,1.67775,0,0,1,.64927-.14056,1.58171,1.58171,0,0,1,.84218.25958c.39717.2448.59728.45558.59476.62653-.00253.17362-.21441.383-.62964.62235a57.4389,57.4389,0,0,1-6.45514,3.23045,55.43916,55.43916,0,0,1-20.05591,4.29924,54.49205,54.49205,0,0,1-9.90253-.66732A56.39967,56.39967,0,0,1,184.56564,293.27991Z" style="fill: #c69f63"/>
          <path d="M184.04287,203.22149c1.28257-2.85682,2.43921-5.44911,3.536-7.92487a2.16876,2.16876,0,0,1,1.63028-1.31491,70.68188,70.68188,0,0,1,9.8607-1.23783c.15627-.00915,1.23668-.05222,1.72257-.05222h.01282c2.1692.005,4.49549.03926,6.81.25309a64.48018,64.48018,0,0,1,9.2,1.52437,63.54839,63.54839,0,0,1,19.68685,8.49165c1.3709.88926,2.71579,1.84636,3.9974,2.84453.38674.30121.569.55049.55717.76185-.01234.22079-.242.46521-.70187.74717a1.9127,1.9127,0,0,1-2.20408.02545,58.20858,58.20858,0,0,0-12.30357-5.47094,59.41456,59.41456,0,0,0-15.53193-2.68987,54.89536,54.89536,0,0,0-8.0021.27568,60.09417,60.09417,0,0,0-17.35141,4.55433c-.38255.16485-.62854.14322-.84914-.0749A.557.557,0,0,1,184.04287,203.22149Z" style="fill: #c69f63"/>
          <path d="M199.04584,306.74765l-.04417-.00267a72.76756,72.76756,0,0,1-9.52679-1.17189,2.24,2.24,0,0,1-1.83292-1.25231q-1.07346-2.38832-2.13928-4.78017-.74313-1.66406-1.48749-3.32755a.51409.51409,0,0,1,.0587-.60815.57228.57228,0,0,1,.64545-.20211h.00005a3.86743,3.86743,0,0,1,.39836.15513l.09467.04069a59.66931,59.66931,0,0,0,20.44256,4.70394,57.17375,57.17375,0,0,0,15.09907-1.31883,58.78825,58.78825,0,0,0,17.27628-6.76079,2.41606,2.41606,0,0,1,1.22915-.3905,2.10078,2.10078,0,0,1,1.15264.38126c.42362.27329.634.5099.64331.72335.00915.21069-.17262.45749-.55564.75461a60.50513,60.50513,0,0,1-10.26535,6.43509,63.5682,63.5682,0,0,1-29.42672,6.67874C200.29153,306.7973,199.157,306.75432,199.04584,306.74765Z" style="fill: #c69f63"/>
          <path d="M200.8153,168.82569a1.13952,1.13952,0,0,1-.85509-.51762,1.0472,1.0472,0,0,1,.01853-.93376c1.007-2.33262,2.06557-4.70279,3.14612-7.04485a1.64275,1.64275,0,0,1,1.60327-1.02981c.07614.01172.15266.022.22913.0323.16985.02278.33028.04431.48817.08148,2.87.67637,5.76572,1.50026,8.85247,2.51863a103.18948,103.18948,0,0,1,13.78573,5.72946c1.39453.698,2.78549,1.4649,4.13062,2.20655q.45969.25343.9196.50628c.69634.382.884.8033.60834,1.3659a19.61282,19.61282,0,0,0-1.783,6.18342.99111.99111,0,0,1-.40656.80931,1.07,1.07,0,0,1-.91094-.14256,91.63256,91.63256,0,0,0-19.45372-7.61888C208.23369,170.18463,205.03468,169.52283,200.8153,168.82569Z" style="fill: #c69f63"/>
          <path d="M203.024,338.9833c-1.10981-2.45011-2.09221-4.65381-3.00328-6.737a1.19781,1.19781,0,0,1-.05794-1.04468,1.23337,1.23337,0,0,1,.92737-.54335h0q.52915-.09418,1.05835-.18734c2.1217-.37449,4.31558-.76175,6.4551-1.25822a91.59223,91.59223,0,0,0,22.18237-8.27725,1.10422,1.10422,0,0,1,.97483-.16714c.20892.10806.343.38069.3986.81026a19.77984,19.77984,0,0,0,1.60446,5.8116c.4623,1.00484.36506,1.29719-.6121,1.83978-2.02893,1.12653-4.06168,2.19312-6.04173,3.17023a102.764,102.764,0,0,1-18.82518,7.0217c-.21526.05774-.43038.11682-.6434.17524a20.12443,20.12443,0,0,1-2.35121.55468A1.85654,1.85654,0,0,1,203.024,338.9833Z" style="fill: #c69f63"/>
        </g>
      </g>
    </g>
  </g>
</svg>
