<svg xmlns="http://www.w3.org/2000/svg" xmlns:xlink="http://www.w3.org/1999/xlink" viewBox="0 0 500 500" class="victory iron-banner">
  <defs>
    <radialGradient id="radial-gradient" cx="305.07645" cy="211.59487" r="76.181" gradientTransform="translate(0.8514 0.53804)" gradientUnits="userSpaceOnUse">
      <stop offset="0" stop-color="#426b4b"/>
      <stop offset="1" stop-color="#426b4b" stop-opacity="0"/>
    </radialGradient>
    <radialGradient id="radial-gradient-2" cx="217.72611" cy="280.92608" r="118.07935" gradientTransform="translate(-2.85492 0.48084) scale(1.02493 0.99716)" xlink:href="#radial-gradient"/>
    <radialGradient id="radial-gradient-3" cx="329.87048" cy="269.19363" r="79.87048" gradientTransform="translate(0.3771 0.2939)" xlink:href="#radial-gradient"/>
    <radialGradient id="radial-gradient-4" cx="191.36441" cy="195.50873" r="47.49536" gradientTransform="translate(0.63159 0.64708)" xlink:href="#radial-gradient"/>
  </defs>
  <title>standing-victory-iron-banner</title>
  <g class="Layer_2" data-name="Layer 2">
    <g class="iron_banner_win" data-name="iron banner win">
      <g>
        <g style="opacity: 0.2">
          <rect x="134.08302" y="133.15698" width="66" height="66" style="fill: none;stroke: #fff;stroke-miterlimit: 10;stroke-width: 0.5px"/>
          <rect x="300.84302" y="133.15698" width="66" height="66" style="fill: none;stroke: #fff;stroke-miterlimit: 10;stroke-width: 0.5px"/>
          <rect x="206.46302" y="133.15698" width="88" height="66" style="fill: none;stroke: #fff;stroke-miterlimit: 10;stroke-width: 0.5px"/>
          <rect x="123.08302" y="216.53698" width="88" height="66" transform="translate(-82.45396 416.62) rotate(-90)" style="fill: none;stroke: #fff;stroke-miterlimit: 10;stroke-width: 0.5px"/>
          <rect x="289.84302" y="216.53698" width="88" height="66" transform="translate(84.30604 583.38) rotate(-90)" style="fill: none;stroke: #fff;stroke-miterlimit: 10;stroke-width: 0.5px"/>
          <rect x="134.08302" y="299.91698" width="66" height="66" style="fill: none;stroke: #fff;stroke-miterlimit: 10;stroke-width: 0.5px"/>
          <rect x="300.84302" y="299.91698" width="66" height="66" style="fill: none;stroke: #fff;stroke-miterlimit: 10;stroke-width: 0.5px"/>
          <rect x="206.46302" y="299.91698" width="88" height="66" style="fill: none;stroke: #fff;stroke-miterlimit: 10;stroke-width: 0.5px"/>
          <rect x="206.46302" y="205.53698" width="88" height="88" transform="translate(0.92604 500) rotate(-90)" style="fill: none;stroke: #fff;stroke-miterlimit: 10;stroke-width: 0.5px"/>
        </g>
        <g class="gradients">
          <circle cx="304.80255" cy="211.35243" r="75.9" style="fill: url(#radial-gradient)"/>
          <circle cx="220.29994" cy="280.60917" r="119.35" style="fill: url(#radial-gradient-2)"/>
          <circle cx="329.75" cy="269.08149" r="79.75" style="fill: url(#radial-gradient-3)"/>
          <circle cx="191.20888" cy="195.35165" r="47.3" style="fill: url(#radial-gradient-4)"/>
        </g>
        <circle cx="250.46302" cy="249.53698" r="92.88339" style="fill: #426b4b"/>
        <g>
          <g class="dots dots6" style="opacity: 0.1">
            <circle cx="250.00001" cy="249.99998" r="126.991" transform="translate(-103.55337 250) rotate(-45)" style="fill: none;stroke: #fff;stroke-linecap: round;stroke-miterlimit: 10;stroke-dasharray: 0,2.9997761249542236"/>
          </g>
          <g class="dots dots5" style="opacity: 0.2">
            <circle cx="249.99995" cy="250.00004" r="118.57251" style="fill: none;stroke: #fff;stroke-linecap: round;stroke-miterlimit: 10;stroke-dasharray: 0,3.0042033195495605"/>
          </g>
          <g class="dots dots4" style="opacity: 0.30000000000000004">
            <circle cx="250.00001" cy="249.99998" r="111.83011" transform="translate(-103.55337 250) rotate(-45)" style="fill: none;stroke: #fff;stroke-linecap: round;stroke-miterlimit: 10;stroke-dasharray: 0,3.002897262573242"/>
          </g>
          <g class="dots dots3" style="opacity: 0.4">
            <circle cx="249.99995" cy="250.00004" r="106.34839" style="fill: none;stroke: #fff;stroke-linecap: round;stroke-miterlimit: 10;stroke-dasharray: 0,2.9965603351593018"/>
          </g>
          <g class="dots dots2" style="opacity: 0.5">
            <circle cx="249.99995" cy="250.00001" r="102.13647" transform="translate(-103.55341 249.99997) rotate(-45)" style="fill: none;stroke: #fff;stroke-linecap: round;stroke-miterlimit: 10;stroke-dasharray: 0,2.9989173412323"/>
          </g>
          <g class="dots dots1" style="opacity: 0.6000000000000001">
            <circle cx="249.99995" cy="250.00001" r="99.07245" transform="translate(-103.55341 249.99997) rotate(-45)" style="fill: none;stroke: #fff;stroke-linecap: round;stroke-miterlimit: 10;stroke-dasharray: 0,2.992861747741699"/>
          </g>
        </g>
        <path d="M250.66026,360.87507l-.00048-.04584ZM230.53094,235.17091c3.14893.68248,5.61491.04867,7.21-1.82976A6.18944,6.18944,0,0,0,238.873,231.347a6.52783,6.52783,0,0,0-2.59886-.588c-3.53092,0-5.38019,3.611-5.74318,4.412m31.91474-3.82395a6.16849,6.16849,0,0,0,1.13161,1.99277,6.1,6.1,0,0,0,4.89076,2.09745h.00093a11.04886,11.04886,0,0,0,2.32013-.26627c-.36579-.79913-2.21364-4.412-5.74454-4.412a6.52622,6.52622,0,0,0-2.59889.588m-42.60329.74957a13.60068,13.60068,0,0,0,3.3994.47279,7.35368,7.35368,0,0,0,7.30073-5.11305,12.89971,12.89971,0,0,0-2.58221-.275,8.91725,8.91725,0,0,0-8.11792,4.91529m50.93375-4.64026a7.36223,7.36223,0,0,0,7.30073,5.11305h.00093a13.60226,13.60226,0,0,0,3.39847-.47279,8.91813,8.91813,0,0,0-8.117-4.91529,12.8875,12.8875,0,0,0-2.58312.275m-56.45374-2.89285a7.07681,7.07681,0,0,0,3.82536,1.23252,6.73275,6.73275,0,0,0,4.64445-2.071,6.47072,6.47072,0,0,0-3.41978-.98531,8.89588,8.89588,0,0,0-5.05,1.82383m64.20451-.83852a6.7292,6.7292,0,0,0,4.644,2.071,7.05862,7.05862,0,0,0,3.82491-1.23252,8.8926,8.8926,0,0,0-5.04958-1.82383,6.46333,6.46333,0,0,0-3.41932.98531m-50.89532,46.29857c.914.06065,1.75711,1.69785,1.75711,1.69785l-.02221.00045c-1.20616,0-1.7349-1.6983-1.7349-1.6983m-2.81465-.51116c1.65433-.12548,1.73306,1.85017,1.73306,1.85017a13.43385,13.43385,0,0,1-1.73306-1.85017m-13.06842-5.294a9.71379,9.71379,0,0,1-5.02225,3.18409,30.47867,30.47867,0,0,0,5.02225-3.18409m23.11157-.23523c-.01021-.018.21206.075.54589.16809a3.00906,3.00906,0,0,0,1.91684.01667,1.97882,1.97882,0,0,1-1.27048.66716,1.41368,1.41368,0,0,1-1.19225-.85192m-17.72815-5.68758a1.38854,1.38854,0,0,1,1.32419-.557A3.15949,3.15949,0,0,0,216.756,258.876H216.755a2.34792,2.34792,0,0,1,.37691-.58057m-22.492-.70056h.14537a5.68958,5.68958,0,0,1,2.38312.37179,3.90711,3.90711,0,0,0,2.64424.5093,17.56594,17.56594,0,0,0,3.47766-.47177,7.36439,7.36439,0,0,1-3.94762,1.24315,6.48627,6.48627,0,0,1-1.81174-.26157,4.09486,4.09486,0,0,0-1.39414-.19816,8.75531,8.75531,0,0,0-3.517.826,4.30237,4.30237,0,0,1,1.71916-1.11632l.72046-.2102-.70935-.244a2.35447,2.35447,0,0,0-.69867-.08285,7.13077,7.13077,0,0,0-3.15354.88758,7.1005,7.1005,0,0,1,4.14207-1.25293m41.24159-.74589s1.05983.10372,1.23854.626c0,0-.77553-.35788-1.23854-.626m-3.25355-1.82242s1.92565-.11807,2.359.68757a12.53372,12.53372,0,0,0-2.359-.68757m-6.56318-3.37535s2.32432-.86582,2.8378.88069c0,0-.38383-.80054-2.8378-.88069m-9.243-.588c4.25457,2.16781,6.01168,1.11767,6.01168,1.11767a1.97943,1.97943,0,0,1-1.615.6987c-1.93444,0-4.39672-1.81637-4.39672-1.81637m2.76785-3.51937a1.8493,1.8493,0,0,1,1.34042-.1097,2.56361,2.56361,0,0,1,1.82378,2.41412,1.09723,1.09723,0,0,0,.55979.83338,1.33141,1.33141,0,0,1-1.00288-.43752c-.48895-.70519-.895-.55609-1.9525-.75934a1.867,1.867,0,0,1-1.465-1.31447c-.094-.28475-.89363-.4616-.89363-.4616.16438.01017.31255.0143.44588.0143a2.97944,2.97944,0,0,0,1.1441-.17917m-1.44227-.54728a5.99622,5.99622,0,0,0-3.58787.86724s2.48082-1.87933,3.58787-.86724m4.801-.82784s2.74284.27921,2.59516,2.235c0,0-.36116-1.38027-2.59516-2.235m1.95527-1.11677s2.75909,2.13587,2.69146,3.7286a12.91026,12.91026,0,0,0-2.69146-3.7286m-21.46647-.7876a17.358,17.358,0,0,0,6.35572,1.527,4.23464,4.23464,0,0,1-1.20707.16345,11.71925,11.71925,0,0,1-5.14865-1.69044m.62412-1.52841a10.48225,10.48225,0,0,0,7.6202,1.80716,6.0585,6.0585,0,0,1-2.39745.45792h-.00187a7.43112,7.43112,0,0,1-5.22088-2.26508m12.07389-.43056a8.847,8.847,0,0,1,1.92288-.26808,3.6502,3.6502,0,0,1,1.07927.16114c.11067.03052.21622.06014.325.08331l1.2145.25976a3.96513,3.96513,0,0,1,.31761.39123,19.59576,19.59576,0,0,0-3.62859-.41485,7.68456,7.68456,0,0,0-1.152.07687,6.63409,6.63409,0,0,1-.951.06669,7.537,7.537,0,0,1-3.00634-.61906,10.22277,10.22277,0,0,0,2.6313.39355,5.60642,5.60642,0,0,0,1.24733-.13056m-18.65648-.84362c.07548-.23195-.04954-.49127-.42413-.83988a2.11333,2.11333,0,0,1,1.39183.5102.51606.51606,0,0,1,.03843.50981c-.17086.50048-.74221.72368-1.85715.72368-.60792,0-1.30382-.06573-2.04279-.1352-.64172-.06064-1.30521-.1227-1.9525-.14446a7.76625,7.76625,0,0,0-6.07654,2.2206,8.89218,8.89218,0,0,1,6.81364-2.86419,14.16432,14.16432,0,0,1,2.83641.307,3.26294,3.26294,0,0,0,.54867.05047c.15187,0,.61208,0,.72413-.338m22.15451.382a8.98807,8.98807,0,0,0-4.18652-.95518,7.95616,7.95616,0,0,1-4.92086-1.62884,11.22643,11.22643,0,0,0,4.63193,1.276,7.63058,7.63058,0,0,1,5.30886,1.79506Zm-15.4029-13.7046c.85147.71492,2.634,2.32386,3.01416,3.56707a12.16335,12.16335,0,0,1-3.01416-3.56707m-3.08549.11575a11.61687,11.61687,0,0,1,.7144-3.8712c.0676,1.40429.17363,3.92586.17363,5.66678,0,1.71452,1.276,3.31979,2.20531,4.26062-2.03538-1.115-3.09334-3.7212-3.09334-6.0562m-1.27328-1.082c-.56582,6.196-.17874,3.90314-1.54878,6.58256-1.37,2.68084-3.33921,3.74759-4.04576,3.74759,0,0-5.726-.55372-8.02627-2.23631a8.73551,8.73551,0,0,0,1.57608,2.23631s-4.17217.72464-4.81206,4.25831c-.63847,3.53417-.64774,6.70068-1.264,7.47483a2.65581,2.65581,0,0,0,1.20661-.33386c.30837-.28288,5.69362-4.64393,7.54936-3.92721,0,0-6.06959,2.12847-8.62078,6.04828,0,0,1.41311.06342.14862,4.425,0,0,5.1672-3.48783,8.65457-3.61935.76675-.02871,1.67889-.02543,2.65677-.02311,3.46931.01062,7.77345.02034,9.40139-1.3775,0,0-.39126,2.41-11.1465,2.216,0,0-5.21393.09773-8.34156,3.5842a9.1041,9.1041,0,0,1-1.11677,1.12366,3.12449,3.12449,0,0,1-.67321.4408,1.2893,1.2893,0,0,1-.1639.063s-.29865.05652-.41766-.0282a1.46256,1.46256,0,0,0,.68943.80331,1.09122,1.09122,0,0,0,.7297.04166,2.12054,2.12054,0,0,0,.6283-.28475c1.53812-.99316,2.6697-1.69785,3.87586-1.62375a23.38751,23.38751,0,0,0,5.50564-.64037,10.59027,10.59027,0,0,1,4.03-.1574,11.84688,11.84688,0,0,0-3.72677.55513,13.09074,13.09074,0,0,1-4.8662.91675,7.86809,7.86809,0,0,0-4.66668,1.60945c-.9399.85842-.1764,1.16352.27087,1.36354.44678.19912.59865.92834.59865,1.78585a2.59677,2.59677,0,0,0,2.40952,2.83361c2.022.06155,3.88926-.31165,4.41616-.97926.53061-.67094,3.50083-3.82728,6.81364-2.87854a7.52239,7.52239,0,0,0-5.49034,2.69056,5.48687,5.48687,0,0,1-7.07849,1.758,7.27358,7.27358,0,0,1,1.49412,3.60912,2.471,2.471,0,0,1-1.22094,2.27989,2.21122,2.21122,0,0,1-.38153.17685s.18476.03567.47923.11112c1.09733.27875,3.74295,1.10891,4.34348,2.75121,0,0,3.26932-4.46573,5.37507-4.90235,0,0-7.86327,5.63947-3.99113,10.9608,0,0,2.38727-4.55458,5.57831-5.24452a6.31024,6.31024,0,0,1-1.25985,2.44148,25.58137,25.58137,0,0,0,3.71289-3.36331c1.371-1.63856,2.86-2.11406,4.28979-3.6332,1.42929-1.51913,1.28113-1.81778,3.09753-2.20488,1.81775-.38615,3.216-.47641,3.78322-1.22,0,0-.77415,1.4733-4.01382,2.11367a3.22822,3.22822,0,0,0-2.54469,2.27893,52.0588,52.0588,0,0,1,8.67263-.61121c5.40514,0,5.66906-.16758,6.54184.42831.87416.595,4.56806,2.40254,5.52092,2.99752a4.44165,4.44165,0,0,0,2.48311.87419,3.61876,3.61876,0,0,0,3.3545-2.10485,9.27682,9.27682,0,0,0,1.35339-3.53231c.03933-.35375-.15374-.25095-.6311-.14819a4.01483,4.01483,0,0,1-1.30614.07409s-.087-.01848-.244-.05555a3.91759,3.91759,0,0,0,.19214-2.04048,7.09114,7.09114,0,0,1-2.39236,1.47562c-.37967-.10648-.79128-.22642-1.22235-.357a5.27552,5.27552,0,0,0,.62137-1.76873,6.87755,6.87755,0,0,1-3.11606.92975c-.13288-.05047-.26576-.09953-.39773-.14955a5.20353,5.20353,0,0,0,.50839-2.11965c-.80933.66857-3.01464.7547-3.5073.76584-.09953-.05511-.19816-.11118-.29585-.16487a6.9175,6.9175,0,0,0,.82137-1.98028,4.50714,4.50714,0,0,1-2.679.67462,3.36591,3.36591,0,0,1-1.22651-2.04839c-.33937-3.20308,1.3006-4.34206,2.64611-4.56249a4.45209,4.45209,0,0,1-.04538,1.98079,10.1114,10.1114,0,0,0,1.93814-1.74092c.40793.119.91539.27921,1.49554.47782a5.27379,5.27379,0,0,1-.06528,2.23077,8.0245,8.0245,0,0,0,2.18954-1.4543c.42551.16577.86724.34584,1.31682.53665a2.24106,2.24106,0,0,1-.63016,1.87656,4.9841,4.9841,0,0,0,2.48542-1.039c.276.13243.55237.269.8251.40932a2.41755,2.41755,0,0,1,.08611,1.88024,3.75553,3.75553,0,0,0,1.75759-.85978,20.74478,20.74478,0,0,1,1.93489,1.30753s.11022.06206.28246.1639c-.13474.48664-.44775,1.41961-.89363,1.63766a9.29919,9.29919,0,0,0,2.904-.06528c.21158.4959-.04352.60284.55.62369.61394.0199,1.21864.29538,2.43726-1.11818,1.21865-1.4131,1.26913-1.68626,1.95346-1.64924.6848.038.9163-.48059.81767-.81072a.78494.78494,0,0,1-.03148-.65608c.0875-.39541.3218-.60194.68155-.54869.35929.05279,1.10518.20974,1.1927-.15832a1.81659,1.81659,0,0,0-.96538-2.37619c-1.52468-.95473-6.515-3.7897-8.62075-5.65655l-2.73871-2.21415a9.97365,9.97365,0,0,1-2.50442-3.60358c-.99129-2.36275-2.87806-3.37717-4.02956-4.21015-1.152-.83389-3.48506-2.76924-5.24172-3.842-1.7585-1.07234-4.82686-3.842-6.10661-3.842-1.28161,0-1.966-1.60895-2.59241-2.88917-.6246-1.28164-4.58516-8.518-5.03243-10.42511-.44633-1.90669-1.67377-2.39751-2.34562-2.39751s-2.03259,1.05664-2.59931,7.25215m72.0576,44.54839s.84455-1.6372,1.758-1.69785c0,0-.52922,1.69785-1.7358,1.6983l-.02224-.00045m4.57315-2.209a13.52419,13.52419,0,0,1-1.733,1.85017s.07732-1.97565,1.733-1.85017m13.06751-5.294a30.50044,30.50044,0,0,0,5.02363,3.18409,9.70634,9.70634,0,0,1-5.02363-3.18409m-23.65791-.06714c.33383-.09309.55514-.18612.54541-.16809-1.0663,1.803-2.46089.18476-2.46089.18476a1.98241,1.98241,0,0,0,.81075.15368,4.24749,4.24749,0,0,0,1.10473-.17035m18.65092-5.2751a3.16114,3.16114,0,0,0-1.70017-1.13757,1.386,1.386,0,0,1,1.32281.557,2.39651,2.39651,0,0,1,.37829.58057h-.00093m19.58759-.90934a5.68007,5.68007,0,0,1,2.38125-.37179h.15187a7.09474,7.09474,0,0,1,4.12263,1.245,7.12258,7.12258,0,0,0-3.13873-.87967,2.34407,2.34407,0,0,0-.69867.08285l-.7098.244.72042.2102a4.29385,4.29385,0,0,1,1.71732,1.11632,8.73974,8.73974,0,0,0-3.51425-.826,4.09557,4.09557,0,0,0-1.3756.19166,6.49524,6.49524,0,0,1-1.83166.26807,7.33923,7.33923,0,0,1-3.94111-1.2427,17.43678,17.43678,0,0,0,3.4707.47132c.18242.00373.35.0065.50469.0065a3.33763,3.33763,0,0,0,2.14094-.5158M265.43673,256.849c-.463.26808-1.24041.626-1.24041.626.1801-.52224,1.24041-.626,1.24041-.626m3.25356-1.82242a12.52767,12.52767,0,0,0-2.35812.68757c.43246-.80564,2.35812-.68757,2.35812-.68757m6.56314-3.37535c-2.453.08015-2.83683.88069-2.83683.88069.51207-1.74651,2.83683-.88069,2.83683-.88069m9.2426-.588s-4.31988,3.18686-6.01126,1.11767a2.8586,2.8586,0,0,0,1.3645.25417,10.48557,10.48557,0,0,0,4.64676-1.37184m-5.93162-1.21495a2.563,2.563,0,0,1,1.8238-2.41412,1.84833,1.84833,0,0,1,1.33994.1097,3.52752,3.52752,0,0,0,1.59137.16487s-.80009.17685-.89547.4616a1.86448,1.86448,0,0,1-1.4631,1.31447c-1.05844.20325-1.464.05415-1.95249.75934a1.33194,1.33194,0,0,1-1.00337.43752,1.09713,1.09713,0,0,0,.55932-.83338m8.19343-1.98446a5.99192,5.99192,0,0,0-3.58649-.86724c1.10753-1.01209,3.58649.86724,3.58649.86724m-8.387-1.69508c-2.235.85469-2.59564,2.235-2.59564,2.235-.14817-1.95575,2.59564-2.235,2.59564-2.235m-1.95482-1.11677a12.88729,12.88729,0,0,0-2.69333,3.7286c-.06621-1.59273,2.69333-3.7286,2.69333-3.7286m15.10982.73939a17.36131,17.36131,0,0,0,6.3562-1.527,11.7308,11.7308,0,0,1-5.14959,1.69044,4.23146,4.23146,0,0,1-1.20661-.16345m5.7316-3.0554c-3.79484,3.63094-7.62069,1.80716-7.62069,1.80716a11.41038,11.41038,0,0,0,1.5173.10185,10.26521,10.26521,0,0,0,6.10339-1.909m-16.616-.19443,1.21353-.25976c.11067-.02317.21576-.05279.3255-.08331a3.6461,3.6461,0,0,1,1.07975-.16114,8.81813,8.81813,0,0,1,1.92195.26808,5.619,5.619,0,0,0,1.24643.13056,10.22871,10.22871,0,0,0,2.63359-.39355,7.53525,7.53525,0,0,1-3.00634.61906,6.60261,6.60261,0,0,1-.9501-.06669,7.703,7.703,0,0,0-1.15334-.07687,19.64845,19.64845,0,0,0-3.63.41485,4.34547,4.34547,0,0,1,.319-.39123m22.19246-.89962a.5175.5175,0,0,1,.038-.50981,2.11669,2.11669,0,0,1,1.39228-.5102c-.375.34861-.50006.60793-.42367.83988.10973.33663.56766.338.72139.338h.00184a3.4764,3.4764,0,0,0,.55513-.05047,14.06189,14.06189,0,0,1,2.83084-.307,8.89483,8.89483,0,0,1,6.79282,2.84752,7.70784,7.70784,0,0,0-5.59223-2.21179q-.22988,0-.46394.00786c-.64636.02176-1.31077.08382-1.953.14446-.7371.06947-1.43345.1352-2.04279.1352-1.11445,0-1.68719-.2232-1.85667-.72368m-12.04238-2.38219a7.952,7.952,0,0,1-4.919,1.62884,8.99441,8.99441,0,0,0-4.18746.95518l-.83293.48709a7.63949,7.63949,0,0,1,4.8514-1.81451c.15695,0,.31068.0065.457.01945q.12919.0111.26668.01113a12.33451,12.33451,0,0,0,4.36434-1.28718m6.29739-11.12058a12.15841,12.15841,0,0,1-3.01513,3.56707c.37967-1.24321,2.16273-2.85215,3.01513-3.56707m2.196,1.91133c0-1.74137.107-4.26339.17549-5.66864a11.653,11.653,0,0,1,.71348,3.87306c0,2.335-1.058,4.94123-3.09335,6.0562.92834-.94083,2.20438-2.5461,2.20438-4.26062m-2.78176-7.73223c-.4482,1.90709-4.4083,9.14347-5.03522,10.42511-.625,1.28022-1.30894,2.88917-2.59052,2.88917-1.28023,0-4.34859,2.76969-6.10709,3.842-1.75714,1.0728-4.08885,3.00815-5.24126,3.842-1.152.833-3.03782,1.8474-4.0305,4.21015a9.97018,9.97018,0,0,1-2.50258,3.60358l-2.74052,2.21415c-2.1044,1.86685-7.09517,4.70182-8.61984,5.65655a1.81614,1.81614,0,0,0-.96539,2.37619c.087.36806.83248.21111,1.19178.15832.36022-.05325.595.15328.68247.54869a.79391.79391,0,0,1-.03055.65608c-.09953.33013.131.8487.81674.81072.68479-.037.73433.23614,1.95391,1.64924,1.21865,1.41356,1.82239,1.13808,2.43682,1.11818.59357-.02085.33753-.12779.55-.62369a9.29879,9.29879,0,0,0,2.904.06528c-.44774-.21805-.75795-1.151-.89363-1.63766.17179-.10184.28153-.1639.28153-.1639a21.03662,21.03662,0,0,1,1.934-1.30753,3.76425,3.76425,0,0,0,1.75942.85978,2.41769,2.41769,0,0,1,.08473-1.88024c.27412-.14034.551-.27689.82555-.40932a4.99369,4.99369,0,0,0,2.48636,1.039,2.24259,2.24259,0,0,1-.63017-1.87656c.44959-.19081.89038-.37088,1.31728-.53665a8.01822,8.01822,0,0,0,2.18912,1.4543,5.31652,5.31652,0,0,1-.06763-2.23077c.582-.19861,1.0904-.35884,1.49786-.47782a10.11448,10.11448,0,0,0,1.93769,1.74092,4.45884,4.45884,0,0,1-.04539-1.98079c1.34644.22043,2.98455,1.35941,2.64656,4.56249a3.36821,3.36821,0,0,1-1.2265,2.04839,4.51242,4.51242,0,0,1-2.67991-.67462,6.93113,6.93113,0,0,0,.8223,1.98028c-.09676.05369-.19632.10976-.29723.16487-.49034-.01114-2.698-.09727-3.50546-.76584a5.1953,5.1953,0,0,0,.50839,2.11965c-.13336.05-.26485.09908-.39818.14955a6.87741,6.87741,0,0,1-3.11652-.92975,5.26943,5.26943,0,0,0,.62183,1.76873c-.43153.13056-.84362.2505-1.22235.357a7.08547,7.08547,0,0,1-2.39191-1.47562,3.91582,3.91582,0,0,0,.19168,2.04048c-.156.03707-.244.05555-.244.05555a4.017,4.017,0,0,1-1.30662-.07409c-.47737-.10276-.67044-.20556-.63014.14819a9.25492,9.25492,0,0,0,1.352,3.53231,3.62067,3.62067,0,0,0,3.35543,2.10485,4.43434,4.43434,0,0,0,2.48217-.87419c.95334-.595,4.64769-2.40254,5.52092-2.99752.87371-.59589,1.13763-.42831,6.5428-.42831a52.04181,52.04181,0,0,1,8.67215.61121,3.2279,3.2279,0,0,0-2.54423-2.27893c-3.23968-.64037-4.01383-2.11367-4.01383-2.11367.56672.74363,1.96547.83389,3.78371,1.22,1.81592.3871,1.6682.68575,3.09708,2.20488,1.43023,1.51914,2.91878,1.99464,4.28975,3.6332a25.53114,25.53114,0,0,0,3.71289,3.36331,6.31039,6.31039,0,0,1-1.25985-2.44148c3.18966.68994,5.57787,5.24452,5.57787,5.24452,3.87261-5.32133-3.99114-10.9608-3.99114-10.9608,2.10621.43662,5.37553,4.90235,5.37553,4.90235.56534-1.5474,2.95123-2.37569,4.14114-2.698.4107-.112.68109-.16436.68109-.16436a2.29689,2.29689,0,0,1-.532-.26994,2.494,2.494,0,0,1-1.07049-2.1868,7.27355,7.27355,0,0,1,1.49413-3.60912,5.48673,5.48673,0,0,1-7.07846-1.758,7.52114,7.52114,0,0,0-5.4899-2.69056c3.31236-.94874,6.28349,2.2076,6.81271,2.87854.52829.66761,2.39606,1.04081,4.41709.97926a2.59563,2.59563,0,0,0,2.40859-2.83361c0-.85751.1528-1.58673.59865-1.78585.2542-.11253.607-.2588.69732-.52134.00647-.03933.01249-.07963.019-.12038.00418-.18477-.1125-.41859-.4454-.72182a7.86547,7.86547,0,0,0-4.66759-1.60945,13.08187,13.08187,0,0,1-4.86437-.91675,11.85261,11.85261,0,0,0-3.72769-.55513,10.59233,10.59233,0,0,1,4.0305.1574,23.39658,23.39658,0,0,0,5.50608.64037c1.20568-.0741,2.33729.63059,3.87587,1.62375a2.31481,2.31481,0,0,0,.45328.22874,1.25227,1.25227,0,0,0,.71258.07963,1.37008,1.37008,0,0,0,.88108-.86859c-.11807.08472-.41669.0282-.41669.0282a1.65811,1.65811,0,0,1-.33847-.15136,4.11891,4.11891,0,0,1-.6658-.49449,9.42447,9.42447,0,0,1-.9501-.98157c-3.12808-3.48647-8.34156-3.5842-8.34156-3.5842-10.75524.194-11.146-2.216-11.146-2.216,1.627,1.39784,5.93159,1.38767,9.40091,1.3775.97787-.00283,1.89-.0056,2.65676.02311,3.21328.12039,7.85216,3.09106,8.55917,3.55543.05974.04126.09585.06392.09585.06392-.02871-.0949-.05279-.18476-.07825-.27644-1.1038-4.00594.1727-4.14436.22272-4.14763l.00232-.00091-.00232-.00367c-2.55073-3.918-8.61707-6.04461-8.61707-6.04461,1.8548-.71672,7.24053,3.64433,7.5489,3.92721a2.30135,2.30135,0,0,0,1.08575.32505c.07316.006.11993.00881.11993.00881a1.08612,1.08612,0,0,1-.12225-.2042c-.49726-1.027-.54725-3.98837-1.14037-7.27063-.63989-3.53367-4.812-4.25831-4.812-4.25831a8.72109,8.72109,0,0,0,1.57469-2.23631c-2.29792,1.68259-8.02627,2.23631-8.02627,2.23631-.7061,0-2.67479-1.06675-4.04486-3.74759-1.37049-2.67942-.98248-.38659-1.5492-6.58256-.56582-6.19551-1.92752-7.25215-2.59889-7.25215-.67227,0-1.89925.49082-2.34421,2.39751m-58.366-4.66112a5.02216,5.02216,0,0,0,1.077.12548,3.33918,3.33918,0,0,0,3.15263-2.06828,2.63812,2.63812,0,0,0-1.00845-.206c-1.62932,0-2.86184,1.61867-3.22114,2.14882m20.81365-1.9428a3.34415,3.34415,0,0,0,3.154,2.06828,5.02258,5.02258,0,0,0,1.07695-.12548c-.36023-.53015-1.5923-2.14882-3.2221-2.14882a2.64368,2.64368,0,0,0-1.00887.206m-29.67935-2.68729a5.02178,5.02178,0,0,0,3.16977,1.19132,6.377,6.377,0,0,0,3.92676-1.608,5.17912,5.17912,0,0,0-7.09653.41672m35.679-.41672a6.38851,6.38851,0,0,0,3.92537,1.608h.00094a5.026,5.026,0,0,0,3.17208-1.19132,5.18146,5.18146,0,0,0-7.09839-.41672m-52.1223-7.61975c.22964.02131.67922.05189,1.26307.05189,6.3525,0,8.65872-3.124,9.48335-5.10282a13.65983,13.65983,0,0,0-2.35718-.20144c-5.363,0-7.52435,2.81649-8.38924,5.25237m64.91521-5.05093c.82372,1.97886,3.13133,5.10282,9.48428,5.10282.58339,0,1.032-.03058,1.2631-.05189-.86444-2.43588-3.02623-5.25237-8.39159-5.25237a13.66014,13.66014,0,0,0-2.35579.20144m-71.41356-1.871a8.29768,8.29768,0,0,0,2.88222.5093,10.86407,10.86407,0,0,0,5.52833-1.665,8.989,8.989,0,0,0-3.60081-.8149,6.77126,6.77126,0,0,0-4.80974,1.97056m80.24778-1.15566a10.868,10.868,0,0,0,5.52881,1.665,8.31079,8.31079,0,0,0,2.88128-.50839,6.77757,6.77757,0,0,0-4.80974-1.97147,8.99209,8.99209,0,0,0-3.60035.8149M234.047,184.64326c1.13763,1.80523,2.53406,2.722,4.15414,2.722a5.84688,5.84688,0,0,0,3.23179-1.14039,4.42361,4.42361,0,0,0-3.98511-2.61782,7.031,7.031,0,0,0-3.40082,1.03623m25.83869,1.58159a5.85693,5.85693,0,0,0,3.23134,1.14039h.00139c1.61869,0,3.01512-.91675,4.15272-2.722a7.02853,7.02853,0,0,0-3.40033-1.03623,4.42414,4.42414,0,0,0-3.98512,2.61782M224.8012,315.32334c-.31346-.1227-.62692-.25049-.939-.37551A70.3973,70.3973,0,0,1,203.97,302.62948c-.11714-.10371-.23427-.207-.34912-.31069-.13426-.11807-.26714-.23472-.4-.35279-.08938-.08105-.17874-.16346-.2681-.245q-1.22583-1.11671-2.40949-2.29792c-.35514-.35415-.70146-.714-1.04827-1.0737-.113-.1162-.225-.23614-.33705-.35234a70.86344,70.86344,0,0,1-12.42486-79.175c.10281-.21483.20881-.42876.31346-.64173.10049-.20375.19771-.40886.301-.613a28.70323,28.70323,0,0,1,2.27847-1.841q.64657-.46874,1.33254-.89267a13.06311,13.06311,0,0,1,4.95327-1.9562,50.35911,50.35911,0,0,1,6.78908-.53157,15.56474,15.56474,0,0,1,6.09553.94411c2.45024,1.089,12.84155,5.41486,14.82508,5.64038,2.13726.24213,9.89034,3.41977,11.07007,3.993,1.37191.66625,9.744,8.13363,10.959,13.06655.23566.45882,1.93953,4.66762,1.93953,30.23309q0,3.33505.01159,6.56086c.06019,24.11857.1079,43.16863-7.94477,44.05576-.81583.08981-1.60247.14627-2.347.16944q-.37158.01112-.72831.01063c-3.33276,0-5.90291-.725-7.87579-2.26689a11.54679,11.54679,0,0,1-3.46748-4.838c-.04583-.12406-1.02789-2.83406-.29633-4.2717.36718-.72367,1.7423-3.10355,4.08651-3.55915-.03148-.019-.07036-.044-.12267-.07037a.51267.51267,0,0,0-.22735-.03289c-1.20475,0-4.4949,1.3242-5.13755,3.7754a.25121.25121,0,0,1-.49172-.02872c-.02592-.18244-.60143-4.51529,1.91779-6.84515a4.63957,4.63957,0,0,1,3.19475-1.08252,6.93181,6.93181,0,0,1,1.47423.163.15019.15019,0,0,0,.075-.02041s.02594-.04674-.01713-.19166a5.30528,5.30528,0,0,0-3.2605-1.0455,2.659,2.659,0,0,0-1.18253.23106.25035.25035,0,0,1-.29354-.05138.2472.2472,0,0,1-.03889-.29447c.10881-.20047,2.7572-4.89816,7.5623-4.89816a9.95371,9.95371,0,0,1,5.8807,2.2423,1.27645,1.27645,0,0,0,.60143.2093.40058.40058,0,0,0,.31439-.13475.33191.33191,0,0,0,.05788-.25049,3.24192,3.24192,0,0,0-1.04731-1.67377l-.02595-.02176a8.07854,8.07854,0,0,0-5.0968-1.65846,14.74531,14.74531,0,0,0-6.076,1.49455.25112.25112,0,0,1-.34311-.15232c-.01065-.03052-1.07186-3.21976-3.65083-3.48969-.28983-.031-.5306-.04906-.72042-.05325.1125.06251.23012.12406.31716.1699a2.78746,2.78746,0,0,1,.58107.35608c.03242.031.09493.07731.17456.13751a3.35862,3.35862,0,0,1,1.44968,4.15736,24.95033,24.95033,0,0,1-2.11409,3.743,22.16076,22.16076,0,0,0-2.704,5.14171.19635.19635,0,0,1-.03286.07133,1.17341,1.17341,0,0,1-.87326.513c-.44495,0-.84822-.34172-1.19779-1.01634-.78989-1.52094-4.35136-3.34336-5.20006-3.60313a9.61783,9.61783,0,0,1-3.12161-1.97982,4.895,4.895,0,0,1-1.64551-4.99171c.082-.31345.11343-.81444-.05048-.89589-.30792,0-1.1515.86074-1.1515,2.50116a6.52944,6.52944,0,0,0,2.20808,4.33144.25075.25075,0,0,1-.14215.45284h-.03148c-.43523,0-4.34209-.13107-7.379-4.6653-2.80815-4.1967-2.72758-4.94864-2.27567-6.25249.0375-.10462.07406-.2111.11066-.32685a.16547.16547,0,0,0,.006-.11852.22847.22847,0,0,0-.14263-.07642.63523.63523,0,0,0-.363.21438,2.4942,2.4942,0,0,0-.60284,1.764,10.70032,10.70032,0,0,0,1.88354,4.65558c.30419.49539.60838.94777.87739,1.34737.78989,1.17,1.31032,1.94557.75934,2.353a4.41474,4.41474,0,0,1-.67971.35562c-.14955.06714-.313.14124-.47411.22455a3.77749,3.77749,0,0,0-.62876.376c-.2315.1829-.376.38479-.32736.60561.02965.12412.07871.16159.21483.16159a1.95427,1.95427,0,0,0,.67182-.18426c.21207-.08754.43617-.19358.64868-.29774l.04262-.0208a5.71768,5.71768,0,0,1,.839-.35607,1.133,1.133,0,0,1,.31346-.04262,6.631,6.631,0,0,1,3.1915,1.6502.7298.7298,0,0,1,.26533.5834c-.01761.5-.54915,1.01255-1.14828,1.49087-.17086.138-.34678.27175-.519.40237-.02131.01526-.038.02916-.05836.04442-.11714.09026-.23012.17736-.3301.25558-.207.16482-.31394.32505-.2843.42368.03519.12824.26714.25507.43662.27592a2.18472,2.18472,0,0,0,.79359-.41067,4.60728,4.60728,0,0,0,.56257-.46024,2.19133,2.19133,0,0,0,.35559-.41994,2.42425,2.42425,0,0,1,2.21085-1.08342,6.92607,6.92607,0,0,1,2.779.72136l.68016.30741c2.82482,1.277,4.69166,2.1192,4.95465,3.9657.16854,1.18572,2.003,4.07258,4.65693,6.83537.49034.50981,1.00891,1.01447,1.54972,1.50292a24.84919,24.84919,0,0,0,3.34616,2.57944c.00508.00373.02639.01944.05649.03985-.34494-.1278-.68988-.25655-1.03253-.38988m39.05991,1.67931q-1.0522-.03891-2.20068-.16294c-8.05173-.88713-8.00313-19.93719-7.94339-44.054q.00972-3.22323.01111-6.56266c0-25.56547,1.70387-29.77427,1.93956-30.23309,1.21492-4.93292,9.58844-12.4003,10.95941-13.06655,1.17883-.57323,8.93237-3.75087,11.07053-3.993,1.98308-.22552,12.37438-4.55142,14.82462-5.64038a15.56413,15.56413,0,0,1,6.096-.94411,50.34684,50.34684,0,0,1,6.78818.53157,12.61725,12.61725,0,0,1,4.65832,1.76358q.65285.38754,1.31772.85424a27.5205,27.5205,0,0,1,2.24745,1.77008c.10558.20331.20836.407.31021.61166.10326.20556.20327.41344.30283.62a70.84875,70.84875,0,0,1-12.022,79.23659c-.2102.225-.42364.451-.6385.6732-.3264.34217-.65467.68157-.99082,1.01628q-1.10844,1.10783-2.26135,2.16137c-.07082.06342-.13935.13011-.2102.19488-.2241.20375-.45328.40468-.6797.60335-.0787.07268-.15879.14305-.23891.21251a70.36652,70.36652,0,0,1-19.54964,12.19982c-.29862.12406-.59958.24078-.89962.3593-.34446.138-.68849.27361-1.03527.40327a25.35051,25.35051,0,0,0,3.34986-2.62619c.53476-.49262,1.04454-.9978,1.52609-1.50619,2.57015-2.71277,4.33653-5.51027,4.50089-6.6696.26346-1.8465,2.1294-2.6887,4.95513-3.9657l.6797-.30741a6.92413,6.92413,0,0,1,2.77851-.72136,2.41931,2.41931,0,0,1,2.21088,1.08342,2.32234,2.32234,0,0,0,.26946.33567,4.43062,4.43062,0,0,0,.54821.47132,2.47559,2.47559,0,0,0,.89547.48386c.16851-.02085.40095-.14768.438-.27592.02778-.09863-.07919-.25886-.28661-.42368-.11669-.09308-.24957-.19307-.38846-.3l-.04075-.03058c-.19121-.14588-.38708-.29543-.57458-.4482-.557-.45606-1.03485-.94128-1.05149-1.41446a.72554.72554,0,0,1,.26389-.5834,6.64454,6.64454,0,0,1,3.19245-1.6502,1.13893,1.13893,0,0,1,.31391.04262,4.8881,4.8881,0,0,1,.71444.29633c.05462.02594.11066.05234.16667.08054.16948.0815.34633.16668.519.24168a2.28635,2.28635,0,0,0,.80238.24032c.13475,0,.18383-.03747.213-.16159.05881-.25281-.14122-.48245-.43523-.6857a5.11379,5.11379,0,0,0-.64452-.35929c-.11991-.05652-.238-.11163-.34865-.16114a4.38113,4.38113,0,0,1-.68015-.35562c-.55237-.4074-.03055-1.183.75795-2.353.27085-.3996.57413-.852.87877-1.34737a10.69341,10.69341,0,0,0,1.88213-4.65558,2.49821,2.49821,0,0,0-.60142-1.76494.6045.6045,0,0,0-.34542-.21625c-.09445.02222-.14769.05-.163.08105a.17118.17118,0,0,0,0,.09535c.063.19539.12548.34958.18381.49681.47182,1.183.59453,1.98491-2.07241,5.96819-3.16143,4.72267-7.48826,4.801-7.67022,4.801h-.00139a.25083.25083,0,0,1-.14862-.45284,6.53767,6.53767,0,0,0,2.20856-4.33144c0-1.64229-.84547-2.503-1.139-2.503-.17688.08331-.14585.5843-.06251.89917a4.89471,4.89471,0,0,1-1.64738,4.99029,9.59442,9.59442,0,0,1-3.12206,1.97982c-.84638.25977-4.40924,2.08032-5.19867,3.60313-.35051.67462-.75378,1.01634-1.19689,1.01634a1.17725,1.17725,0,0,1-.87461-.513.21151.21151,0,0,1-.03242-.07133,22.21761,22.21761,0,0,0-2.70444-5.14171,25.11464,25.11464,0,0,1-2.1127-3.743,3.35381,3.35381,0,0,1,1.44922-4.15736c.07964-.0602.14167-.10648.17408-.13751a2.80052,2.80052,0,0,1,.58108-.35608c.087-.04584.2042-.10739.31623-.1699-.18844.00419-.42967.02222-.72043.05325-2.57942.26993-3.63972,3.45917-3.6499,3.48969a.25149.25149,0,0,1-.3431.15232,14.747,14.747,0,0,0-6.07606-1.49455,8.07856,8.07856,0,0,0-5.0968,1.65846l-.02453.02176a3.239,3.239,0,0,0-1.04917,1.67377.33172.33172,0,0,0,.05832.25049.40088.40088,0,0,0,.31485.13475,1.28557,1.28557,0,0,0,.60654-.21393,9.94847,9.94847,0,0,1,5.87513-2.23767c4.80694,0,7.45211,4.69769,7.56185,4.89816a.25218.25218,0,0,1-.03889.29447.24887.24887,0,0,1-.29263.05138,2.6644,2.6644,0,0,0-1.1816-.23106,5.30013,5.30013,0,0,0-3.26234,1.04737c-.04307.14305-.01715.18979-.01715.18979a.14389.14389,0,0,0,.08288.01622,7.092,7.092,0,0,1,1.46728-.15882,4.63365,4.63365,0,0,1,3.2017,1.09038c2.51184,2.322,1.93537,6.65485,1.90946,6.83729a.25091.25091,0,0,1-.49124.02872c-.64176-2.4512-3.9342-3.7754-5.13665-3.7754a.52272.52272,0,0,0-.22871.03289c-.05233.0264-.09167.05138-.12315.07037,2.3368.438,3.71933,2.83316,4.08834,3.55915.73111,1.43764-.25094,4.14764-.29308,4.26108a11.6551,11.6551,0,0,1-3.34571,4.74165c-1.98813,1.615-4.59581,2.37383-8.00216,2.37383-.28475,0-.57738-.0074-.87509-.01713M194.96815,208.716a.63626.63626,0,0,1-.15463-.2982,2.06923,2.06923,0,0,1,.00508-.70191,5.5718,5.5718,0,0,1,.695-1.85436,1.043,1.043,0,0,1,.06251-.11711c.301-.526,1.2182-2.13033,2.48082-2.328.112-.01848.21389-.03934.31809-.05788.03888-.00644.08147-.01384.11945-.02125a4.59335,4.59335,0,0,1,.85147-.11162c.03425,0,.06667.00373.10046.006.81214.03889,1.45341.58012,2.32014,1.95112.98389,1.55152,1.277,2.67711.8964,3.4369a2.02079,2.02079,0,0,1-1.80575.93207c-.41855.03283-.895.04906-1.376.04906-.9362,0-3.79343-.06851-4.513-.88482m105.49335.83576a2.02452,2.02452,0,0,1-1.80713-.93207c-.37919-.75979-.08611-1.88538.89824-3.4369.80518-1.27328,1.415-1.83073,2.15021-1.93586a1.97212,1.97212,0,0,1,.269-.0213,4.15047,4.15047,0,0,1,.75239.09218c.0338.0074.06669.01294.09911.01944.13841.02589.28426.05415.43845.07913,1.26262.19771,2.147,1.7442,2.47988,2.328.03844.06528.06483.11344.07964.13475a5.42361,5.42361,0,0,1,.70794,2.11683,1.71782,1.71782,0,0,1-.02315.4218.72037.72037,0,0,1-.26392.40191c-.86167.71814-3.50961.78111-4.4046.78111-.48152,0-.95843-.01623-1.37606-.04906m-59.32395.43288c-.37642-.16159-.89267-.35234-1.489-.57322-2.084-.7681-4.937-1.82191-6.46915-3.29939-.38105-.36625-.71119-.67507-1.00613-.95055a10.82563,10.82563,0,0,1-2.68683-3.29153c-.37366-.69407-.6584-1.24779-.8862-1.68723a8.41172,8.41172,0,0,0-.78294-1.37139.249.249,0,0,1,.09583-.39959,2.50761,2.50761,0,0,1,.84593-.131,3.33236,3.33236,0,0,1,1.026.16481c.19863.057,5.04494,1.48579,7.75539,4.49168,2.75212,3.04934,4.26755,4.72962,4.68057,5.72555.04674.11253.094.22037.13983.32459.21805.4954.37642.85237.20787,1.10982a.44394.44394,0,0,1-.40374.19262,2.91142,2.91142,0,0,1-1.02742-.30515m17.6124.11253c-.16854-.25745-.01065-.61442.207-1.10891.04584-.10462.09352-.213.13983-.3255.413-.99452,1.92656-2.67248,4.67361-5.71956,2.71738-3.01188,7.5651-4.44069,7.77021-4.50044a3.339,3.339,0,0,1,1.01863-.162,2.51056,2.51056,0,0,1,.8459.131.25058.25058,0,0,1,.09631.39959,8.55514,8.55514,0,0,0-.78481,1.37235c-.22593.43984-.51161.9922-.88433,1.68627a10.81232,10.81232,0,0,1-2.68731,3.29063c-.29447.27638-.62553.5852-1.00379.95145-1.53349,1.47748-4.387,2.53129-6.47057,3.29939-.59634.22088-1.11307.41163-1.48994.57322a2.90484,2.90484,0,0,1-1.027.30515.444.444,0,0,1-.40375-.19262m-13.02676-1.74877c-.05971-.09631-.11112-.17877-.14955-.23942a8.44075,8.44075,0,0,0-.57828-.70559,8.03674,8.03674,0,0,1-1.2182-1.64557,12.5828,12.5828,0,0,0-2.35254-3.21049c-1.17327-1.18114-2.9466-3.42859-3.0216-3.52258a.42041.42041,0,0,1-.02871-.04629c-.72461-1.483.14353-1.95485.18151-1.97474a1.13488,1.13488,0,0,1,.494-.10462c1.35475,0,3.79343,1.9761,5.36626,3.886a21.2633,21.2633,0,0,1,3.28828,6.5062c.38015,1.16679.55378,2.53728-.09769,2.88363a.41289.41289,0,0,1-.19584.04816c-.43894,0-.932-.6593-1.68768-1.8747m7.98784,1.82654c-.65055-.34771-.47644-1.71684-.09631-2.88363a21.274,21.274,0,0,1,3.28828-6.5062c1.57238-1.90991,4.00919-3.886,5.36581-3.886a1.12612,1.12612,0,0,1,.48477.10044c.04677.02407.91445.4959.19123,1.97892a.41613.41613,0,0,1-.02823.04629c-.07594.094-1.84882,2.34144-3.02346,3.52258a12.60072,12.60072,0,0,0-2.3521,3.20913,8.00561,8.00561,0,0,1-1.21817,1.64693,8.32714,8.32714,0,0,0-.57782.70559c-.04075.06206-.09075.14446-.15.24032-.75654,1.2145-1.24871,1.8738-1.68719,1.8738a.41664.41664,0,0,1-.19677-.04816m-41.0615,1.3372-.1199-.06714c-2.57108-1.452-7.91931-4.468-9.31854-9.10786a9.32388,9.32388,0,0,1-.43059-2.54192,5.83846,5.83846,0,0,1,.07084-1.06031,3.97241,3.97241,0,0,1,1.64786-2.75719c.02685-.02086.0537-.04584.09445-.08473a12.01917,12.01917,0,0,1,3.80917-2.65721,7.7825,7.7825,0,0,1,1.57887-.39129,14.10455,14.10455,0,0,1,1.45061-.14859c.275-.0139.5542-.02317.83711-.02317a5.95852,5.95852,0,0,1,2.53544.40327c.51625.419,2.66832,1.37885,6.24737,2.1734a8.699,8.699,0,0,1,5.87791,4.05919,17.93787,17.93787,0,0,1,1.82841,4.4486,1.39561,1.39561,0,0,1-.15371,1.18437,1.58088,1.58088,0,0,1-1.22187.53615c-.24818.01808-.47.01944-.61581.01944l-.45422-.00322c-.16484,0-.47457,0-.55607.08472a.35742.35742,0,0,0-.04909.22224c.00371.19216,1.16355.56813,3.83048.56813.15,0,.28153-.00186.38846-.00373l.08566-.00186a2.544,2.544,0,0,1,1.65342.50376c1.03527,1.0728,5.45748,3.26333,9.25368,4.95886a9.17391,9.17391,0,0,1,3.05494,2.49235c.28382.30283.594.63432.94547.99689,1.73583,1.78534,2.33912,5.70611,2.64237,8.49756.08614.80105.21207,1.57006.32273,2.24745.23984,1.4807.39911,2.45719.0676,2.891a.56742.56742,0,0,1-.40237.22506q-.04581.00415-.09305.00413c-.9061,0-2.1326-1.31306-5.357-5.26673-2.15391-2.641-6.40619-4.06749-9.22036-5.013a18.09958,18.09958,0,0,1-2.68683-1.03108c-1.61776-.92416-3.36284-2.06874-4.02632-3.549a26.8279,26.8279,0,0,0-2.6887-3.87261c-.28568-.36625-.53292-.68428-.70146-.914-.70053-.9519-2.00391-2.27288-2.62944-2.27288a.20929.20929,0,0,0-.17964.08054c-.4954.59821.05928,2.15346,1.16447,3.26559.25.25146.5496.507.838.75335.79314.6783,1.54322,1.31816,1.55757,2.03307a1.15962,1.15962,0,0,1-.41949.88154,1.67868,1.67868,0,0,1-1.15752.32137c-2.37894,0-7.37434-1.9965-9.30093-3.08456m61.28617-6.03443a1.57862,1.57862,0,0,1-1.22187-.53615,1.39806,1.39806,0,0,1-.15325-1.18578,17.90511,17.90511,0,0,1,1.828-4.44719,8.699,8.699,0,0,1,5.876-4.05919c3.58091-.79455,5.73343-1.75437,6.2483-2.1734a5.96819,5.96819,0,0,1,2.53683-.40327c.21438,0,.42737.00509.63711.01345.49356.0199.97047.06065,1.4182.12316a8.31418,8.31418,0,0,1,1.81035.42644,12.04924,12.04924,0,0,1,3.812,2.65857c.03843.03753.06482.06251.07593.07178a4.03713,4.03713,0,0,1,1.69228,2.966,6.419,6.419,0,0,1,.03982,1.03713,9.61712,9.61712,0,0,1-.42828,2.36784c-1.39875,4.63981-6.74743,7.65587-9.31757,9.10786l-.12087.06714c-1.92656,1.0871-6.922,3.08456-9.30045,3.08456a1.67415,1.67415,0,0,1-1.15707-.32137,1.15839,1.15839,0,0,1-.42087-.88154c.01529-.71491.76443-1.35477,1.55757-2.03307.28893-.24631.58848-.50189.83849-.75335,1.10615-1.11213,1.66129-2.66738,1.16541-3.26559a.21271.21271,0,0,0-.18058-.08054c-.62553,0-1.9289,1.321-2.62941,2.27288-.1704.2297-.41533.54773-.70053.914a26.98912,26.98912,0,0,0-2.68963,3.87261c-.66348,1.48025-2.40858,2.62483-4.02586,3.549a17.88323,17.88323,0,0,1-2.68638,1.03108c-2.81462.94552-7.06645,2.372-9.22223,5.013-3.22345,3.95367-4.45,5.26673-5.357,5.26673-.03057,0-.06112-.00136-.09077-.00413a.5694.5694,0,0,1-.4042-.22506c-.33058-.43384-.17269-1.41033.069-2.891.11066-.67739.2343-1.4464.32179-2.24745.30374-2.79145.907-6.71222,2.641-8.49756.3528-.36257.6621-.69316.94546-.99689a9.21341,9.21341,0,0,1,3.0563-2.49235c3.79575-1.69553,8.218-3.88561,9.24167-4.94682a2.52784,2.52784,0,0,1,1.66592-.5158l.08565.00186c.10649.00187.238.00373.38846.00373,2.66694,0,3.82723-.376,3.83048-.569a.35.35,0,0,0-.04815-.22133c-.08428-.08472-.39171-.08472-.557-.08472l-.45422.00322c-.14585,0-.36853-.00136-.61581-.01944m-43.8372-10.44822a30.877,30.877,0,0,1-5.83715-1.84791c-1.04132-.44589-2.053-.79868-3.02948-1.13808-1.95018-.67971-3.63367-1.26587-4.47359-2.27752a1.92972,1.92972,0,0,1-.20327-.30051,1.3617,1.3617,0,0,1-.17221-.72645,1.33317,1.33317,0,0,1,.05694-.3329c.33058-1.08066,1.90943-1.859,2.61969-2.06783.07825-.02266.16854-.05041.2681-.0824a10.93359,10.93359,0,0,1,3.17021-.58521h.03612a5.90672,5.90672,0,0,1,1.4057.16295,4.87168,4.87168,0,0,1,1.00749.36161,8.19886,8.19886,0,0,1,4.43331,4.21942c.13381.28616.27641.57689.41766.86718.85655,1.76872,1.364,2.88041,1.00794,3.44758a.68687.68687,0,0,1-.63014.30515H230.136l-.0375-.00508m40.41327-.30007c-.35466-.56717.15187-1.67886,1.00981-3.44758.14031-.28887.28014-.581.41534-.86718a8.20928,8.20928,0,0,1,4.4347-4.22032,4.90281,4.90281,0,0,1,.88942-.332,5.9625,5.9625,0,0,1,1.38069-.18985c.04863,0,.09492-.00181.14262-.00181a10.83494,10.83494,0,0,1,3.20447.58521c.10188.032.19169.05974.26994.0824.71257.20884,2.28958.98853,2.62064,2.06783a1.35486,1.35486,0,0,1,.05556.43707,1.42776,1.42776,0,0,1-.21946.70191,2.05973,2.05973,0,0,1-.15512.22088c-.83988,1.01165-2.52431,1.59781-4.47359,2.27752-.97694.3394-1.98771.69219-3.02948,1.13808a30.86452,30.86452,0,0,1-5.8376,1.84791l-.03705.00508h-.04027a.6878.6878,0,0,1-.63062-.30515m-32.35831-.15463-.24075-.14447c-.17041-.1023-.37828-.2176-.61536-.34635a13.54281,13.54281,0,0,1-6.67519-7.01409,4.92908,4.92908,0,0,1-.25835-3.55729,3.89715,3.89715,0,0,1,.15927-.38337,4.06278,4.06278,0,0,1,.29308-.49822,5.78275,5.78275,0,0,1,2.00484-1.74278q.56047-.14439,1.12511-.27966.97228-.234,1.95111-.438a71.63927,71.63927,0,0,1,29.903.119c.595.13011,1.1853.26672,1.77565.41163.35328.08614.70147.17685,1.05194.26853a5.68373,5.68373,0,0,1,1.91642,1.72752,3.73941,3.73941,0,0,1,.26762.46623,3.58936,3.58936,0,0,1,.16619.41485,4.95844,4.95844,0,0,1-.28149,3.49156,13.54322,13.54322,0,0,1-6.67568,7.01409c-.23566.12875-.44354.24405-.61485.34635l-.23939.14447c-1.24131.75007-1.81405,1.09269-2.56785,1.02973a.528.528,0,0,1-.40791-.24355c-.26668-.40468-.15-1.32052.3667-2.88221a2.04589,2.04589,0,0,0,.13845-1.24276c-.01159-.01848-.01851-.02221-.03473-.02357a8.28468,8.28468,0,0,0-1.78351,3.01137,31.94852,31.94852,0,0,1-2.66507,4.43193c-.54544.82739-1.06031,1.60759-1.36775,2.12011-.01757.02826-1.74462,2.87159-2.18355,2.87346a.06911.06911,0,0,0-.03934-.00741.08418.08418,0,0,1-.02455-.00141c-.46948-.11711-.57552-1.07692-.36947-7.20348.0375-1.11768.07036-2.08309.07036-2.70351,0-1.80806,1.17327-3.9726,2.02985-5.55238.27827-.51167.51718-.95382.67829-1.30893.18013-.39773.42413-.82836.68389-1.283.59309-1.04827,1.33254-2.353.79913-2.68316-.57783-.35884-1.66589,1.133-2.15993,2.02708-2.21319,3.74386-3.34062,4.03189-3.66934,4.00685-.32781.02639-1.4571-.26435-3.6675-3.99945-.49819-.90148-1.58441-2.39146-2.16363-2.03448-.5334.33013.207,1.63489.79913,2.68129.25932.45651.50331.88714.68341,1.28487.15975.35511.40005.79726.67832,1.30893.857,1.58114,2.0303,3.74432,2.0303,5.55238,0,.62042.03287,1.58583.06992,2.70215.20649,6.12792.10046,7.08773-.369,7.20484a.27673.27673,0,0,1-.06438.00882c-.43893,0-2.16549-2.8452-2.18307-2.87346-.30837-.51252-.8223-1.29272-1.36726-2.1187a32.20093,32.20093,0,0,1-2.666-4.43334,7.97079,7.97079,0,0,0-1.80713-3.01092c.00509.00277-.00186.00786-.01065.02312a2.03069,2.03069,0,0,0,.13844,1.24276c.5158,1.56169.63387,2.47753.36625,2.88221a.52646.52646,0,0,1-.40745.24355c-.05881.00508-.11623.0074-.17272.0074a4.9349,4.9349,0,0,1-2.39375-1.03713m-39.43723,2.97253a73.32948,73.32948,0,1,0,51.85143-21.47667,72.85049,72.85049,0,0,0-51.85143,21.47667m-.80982,104.51223a74.47693,74.47693,0,1,1,52.66125,21.81189,73.98691,73.98691,0,0,1-52.66125-21.81189M197.398,196.2282a75.19506,75.19506,0,1,0,53.16964-22.023,74.699,74.699,0,0,0-53.16964,22.023m-25.2863,53.16916a78.45594,78.45594,0,1,1,78.45549,78.45639,78.54457,78.54457,0,0,1-78.45549-78.45639m-1.2302,0a79.68638,79.68638,0,1,0,79.68569-79.68614,79.77611,79.77611,0,0,0-79.68569,79.68614M234.93879,158.786c-1.04686.96168-2.11966,2.00532-3.23086,3.19941-10.43347,11.21406-26.35169,10.33484-32.13422,13.42584-3.0318,1.62053-9.66624,8.86155-6.35481,11.954,3.962,3.69944,7.61466-9.23932,27.437-15.8923,19.73485-6.62331,30.00438-6.51129,30.00438-6.51129s10.04869-.33567,30.00343,6.51129c19.77651,6.78676,23.475,19.59174,27.43653,15.8923,3.31236-3.09241-3.323-10.33343-6.35434-11.954-5.78252-3.091-21.93-2.0039-32.13466-13.42584-1.03019-1.15289-2.03494-2.19048-3.01049-3.12673a92.17216,92.17216,0,0,1,74.54582,74.726c-1.06907-1.19415-2.27011-2.4308-3.6462-3.71012-11.21361-10.43341-10.33481-26.35166-13.42587-32.13373-1.621-3.03273-8.86152-9.66718-11.954-6.35575-3.69944,3.96242,9.23935,7.61512,15.89233,27.437,6.62334,19.73479,6.51174,30.00345,6.51174,30.00345s.33522,10.05-6.51174,30.00391c-6.78634,19.77741-19.59177,23.47594-15.89233,27.4374,3.09244,3.31194,10.333-3.32347,11.954-6.35433,3.09106-5.78253,2.0039-21.93,13.42587-32.13464,1.46776-1.31126,2.74612-2.58035,3.86753-3.80225a92.18194,92.18194,0,0,1-76.56363,76.28213,54.949,54.949,0,0,0,4.807-4.59075c10.43389-11.21361,26.35169-10.33529,32.13421-13.42635,3.03177-1.62053,9.6667-8.86149,6.35479-11.95351-3.96242-3.69893-7.61464,9.23938-27.43653,15.89236-19.73482,6.62377-30.00343,6.51174-30.00343,6.51174s-10.04961.33522-30.00438-6.51174c-19.777-6.78631-23.47546-19.59129-27.437-15.89236-3.31236,3.092,3.323,10.333,6.35433,11.95351,5.78253,3.09106,21.93,2.00441,32.1347,13.42635a53.24138,53.24138,0,0,0,4.60691,4.58793,92.18519,92.18519,0,0,1-76.63029-76.74277,56.09471,56.09471,0,0,0,4.13422,4.26571c11.21409,10.43341,10.33481,26.35166,13.42587,32.13418,1.621,3.03132,8.86152,9.66628,11.954,6.35479,3.699-3.962-9.23935-7.61557-15.89231-27.4374-6.62382-19.7344-6.51177-30.00391-6.51177-30.00391s-.33521-10.04823,6.51177-30.00345c6.78632-19.777,19.59129-23.475,15.89231-27.437-3.09244-3.31188-10.333,3.323-11.954,6.35529-3.09106,5.782-2.0039,21.929-13.42587,32.13419-1.45663,1.302-2.72665,2.56136-3.84159,3.774A92.16932,92.16932,0,0,1,234.93879,158.786m15.62842-8.43691s-5.51723.01848-13.56526,6.63444a93.60859,93.60859,0,0,0-78.83653,78.75594c-6.36405,7.83735-5.983,13.17908-5.983,13.17908s.01527,4.35371,4.64861,10.96312c-.23105,6.61964-.30235,11.83962-.30235,11.83962-.2917,3.72351-7.592-6.15476-9.92366-9.20275a.20586.20586,0,0,0-.36532.16622,42.27349,42.27349,0,0,0,17.43369,26.10535c1.16631.78992-6.94655,1.31911-8.59486.176a.2428.2428,0,0,0-.351.31667c1.33485,2.28589,6.52983,7.32439,9.35,8.16008,3.22162.95473,10.71078,7.16093,8.08505,7.87675-2.22891.60742-8.14988-2.33081-9.49954-3.30408a.15857.15857,0,0,0-.23569.19494c1.9076,4.3597,22.37214,11.99194,18.806,13.37311-3.18644,1.233-9.39769-1.5349-10.63949-2.59284a.08651.08651,0,0,0-.12963.10971,23.76822,23.76822,0,0,0,5.01855,6.66038c3.52858,3.22162,12.94063,2.50535,14.37272,4.8287,1.1705,1.89838-2.91881,1.852-4.45369,1.7724a.20707.20707,0,0,0-.138.37043c2.341,1.69412,10.889,2.18262,13.9398,2.93411,3.33274.82043,6.6451,4.53468,16.4609,7.87669,8.03644,2.73589,11.57754,11.55159,12.59662,14.65791a.4399.4399,0,0,0,.83527-.00785c1.22326-3.549-1.12836-10.29036-1.90853-12.34983a92.85217,92.85217,0,0,0,11.27426,2.1794c4.6852,3.59109,8.39158,4.75,10.46215,5.11763-1.06723,2.13073-2.64054,4.24671-4.68471,4.24671,0,0,5.56212,2.48822,6.32749,8.17953v1.30843c0-.26531.02636-.51394.04628-.7672.01852.23891.04352.47318.04629.72136l-.00692-1.22648c.74682-5.71769,6.33441-8.21564,6.33441-8.21564-2.05483,0-3.65823-2.13819-4.74816-4.27915,1.92382-.387,5.60751-1.57142,10.34038-5.0801a93.23083,93.23083,0,0,0,10.84646-2.06043c-.8251,2.20207-3.06,8.74947-1.8613,12.22577a.4399.4399,0,0,0,.83527.00785c1.01908-3.10632,4.5597-11.922,12.59662-14.65791,9.8158-3.342,13.12768-7.05626,16.4609-7.87669,3.05076-.75149,11.59836-1.24,13.93887-2.93411a.20707.20707,0,0,0-.138-.37043c-1.534.07964-5.62464.126-4.4537-1.7724,1.43255-2.32335,10.8446-1.60708,14.37366-4.8287a23.7782,23.7782,0,0,0,5.01761-6.66038.08648.08648,0,0,0-.12963-.10971c-1.24086,1.05794-7.45259,3.82582-10.639,2.59284-3.56608-1.38117,16.89844-9.01341,18.80559-13.37311a.15849.15849,0,0,0-.23569-.19494c-1.34966.97327-7.27015,3.9115-9.49954,3.30408-2.62525-.71582,4.86343-6.922,8.08553-7.87675,2.82019-.83569,8.01468-5.87419,9.35-8.16008a.243.243,0,0,0-.35141-.31667c-1.64879,1.14316-9.76069.614-8.59486-.176a42.2634,42.2634,0,0,0,17.43323-26.10535.20527.20527,0,0,0-.36438-.16622c-2.33172,3.048-9.63245,12.92626-9.92321,9.20275,0,0-.06345-4.63749-.26485-10.71358,5.62-7.34055,5.269-12.27437,5.269-12.27437s-.00232-5.25791-6.16728-13.00127a93.62065,93.62065,0,0,0-78.37167-78.68885c-7.44519-6.37-12.824-6.69832-13.85231-6.69832-.11759,0-.17823.00419-.17823.00419" style="fill: #fff"/>
        <rect x="124.23023" y="124.23023" width="251.53955" height="251.53955" transform="translate(250 -103.55339) rotate(45)" style="fill: none;stroke: #fff;stroke-linecap: round;stroke-miterlimit: 10;stroke-width: 0.5px;opacity: 0.2"/>
        <circle cx="250" cy="250" r="142.82697" style="fill: none;stroke: #fff;stroke-linecap: round;stroke-miterlimit: 10;stroke-width: 0.5px;opacity: 0.2"/>
      </g>
    </g>
  </g>
</svg>
