<svg xmlns="http://www.w3.org/2000/svg" viewBox="0 0 204.40449 204.40449">
  <g class="Layer_2" data-name="Layer 2">
    <g class="base1">
      <rect class="orange" x="55.21411" y="54.78736" width="93.97648" height="93.97648" transform="translate(101.90059 -42.45859) rotate(45)" style="fill: #cc3c1d;opacity: 0.8"/>
      <g class="orange-border" style="opacity: 0.2">
        <path d="M102.20234,36.7384l65.03724,65.0372-65.03724,65.03721L37.16514,101.7756l65.0372-65.0372m0-1.4142-66.4514,66.4514,66.4514,66.4514,66.45142-66.4514L102.20234,35.3242Z" style="fill: #fff"/>
      </g>
      <rect class="square" x="45.66131" y="45.66111" width="113.08208" height="113.08208" transform="translate(102.20221 -42.33365) rotate(45)" style="fill: none;stroke: #fff;stroke-miterlimit: 10;stroke-width: 0.75px;opacity: 0.15"/>
      <polygon class="polygon inner ani" points="129.91 34.893 74.494 34.893 35.309 74.078 35.309 129.494 74.494 168.679 129.91 168.679 169.096 129.494 169.096 74.078 129.91 34.893" style="fill: none;stroke: #fff;stroke-miterlimit: 10;stroke-width: 0.75px;opacity: 0.4"/>
      <polygon class="polygon inner" points="129.91 34.893 74.494 34.893 35.309 74.078 35.309 129.494 74.494 168.679 129.91 168.679 169.096 129.494 169.096 74.078 129.91 34.893" style="fill: none;stroke: #fff;stroke-miterlimit: 10;stroke-width: 0.75px;opacity: 0.4"/>
      <polygon class="polygon outer" points="135.7 21.241 68.704 21.241 21.331 68.614 21.331 135.61 68.704 182.984 135.7 182.984 183.074 135.61 183.074 68.614 135.7 21.241" style="fill: none;stroke: #fff;stroke-miterlimit: 10;stroke-width: 0.75px;opacity: 0.15"/>
    </g>
    <g class="crimson-doubles">
      <path d="M161.68341,74.67927a.11107.11107,0,0,0-.11128-.11087l-1.89726.0041a.11119.11119,0,0,0-.102.06751l-.5817.93536a.1101.1101,0,0,1-.102.06752c-.69137-.00263-5.361-.02311-6.69741-.02385a.10682.10682,0,0,1-.1-.07066,29.99875,29.99875,0,0,1-2.14946-11.67584s.02227-8.46889.0159-9.28856c-.00035-.04636,1.65754-.00676,1.65754-.00676l.011-4.347a8.40117,8.40117,0,0,0-1.5116-.71886l-1.66713-1.56744-1.66714,1.56744a8.40132,8.40132,0,0,0-1.51159.71886l.011,4.347s1.65789-.0396,1.65754.00676c-.00637.81967.0159,9.28856.0159,9.28856a29.9985,29.9985,0,0,1-2.14945,11.67584.10684.10684,0,0,1-.1.07066c-1.33637.00074-6.006.02122-6.6974.02385a.11013.11013,0,0,1-.102-.06752l-.58169-.93536a.1112.1112,0,0,0-.102-.06751l-1.89727-.0041a.11107.11107,0,0,0-.11128.11087L135.20483,78.86a.111.111,0,0,0,.111.11118h1.90245a.11108.11108,0,0,0,.103-.06965l.66587-.94153a.11056.11056,0,0,1,.10477-.06964c.69907.01418,5.29352.06485,5.88194.07045a.104.104,0,0,1,.08572.047l.74018,1.049a.09957.09957,0,0,1,.02031.06034c-.00176,1.54044-.06892,59.37234-.0886,60.41369-.01975,1.05071,1.125,11.10164,2.41516,13.67847a26.41264,26.41264,0,0,0,1.30143,2.398,26.40969,26.40969,0,0,0,1.30142-2.398c1.29015-2.57683,2.43491-12.62776,2.41516-13.67847-.01968-1.04135-.08684-58.87325-.08859-60.41369a.09951.09951,0,0,1,.02031-.06034l.74018-1.049a.104.104,0,0,1,.08572-.047c.58842-.0056,5.18287-.05627,5.88194-.07045a.11054.11054,0,0,1,.10476.06964l.66588.94153a.11108.11108,0,0,0,.103.06965h1.90245a.111.111,0,0,0,.111-.11118Z" style="fill: #fff"/>
      <path d="M69.17465,74.67927a.11107.11107,0,0,0-.11128-.11087l-1.89727.0041a.11117.11117,0,0,0-.102.06751l-.5817.93536a.11013.11013,0,0,1-.102.06752c-.69136-.00263-5.361-.02311-6.6974-.02385a.10684.10684,0,0,1-.1-.07066,29.999,29.999,0,0,1-2.14945-11.67584s.02227-8.46889.0159-9.28856c-.00035-.04636,1.65754-.00676,1.65754-.00676l.011-4.347a8.40117,8.40117,0,0,0-1.5116-.71886l-1.66713-1.56744-1.66714,1.56744a8.401,8.401,0,0,0-1.51159.71886l.011,4.347s1.65789-.0396,1.65754.00676c-.00637.81967.0159,9.28856.0159,9.28856a29.9985,29.9985,0,0,1-2.14945,11.67584.10684.10684,0,0,1-.1.07066c-1.33637.00074-6.006.02122-6.6974.02385a.11013.11013,0,0,1-.102-.06752L44.8145,74.64a.1112.1112,0,0,0-.102-.06751l-1.89727-.0041a.11107.11107,0,0,0-.11128.11087L42.69607,78.86a.111.111,0,0,0,.111.11118h1.90245a.11106.11106,0,0,0,.103-.06965l.66588-.94153a.11056.11056,0,0,1,.10477-.06964c.69907.01418,5.29352.06485,5.88193.07045a.104.104,0,0,1,.08572.047l.74018,1.049a.09951.09951,0,0,1,.02031.06034c-.00175,1.54044-.06891,59.37234-.08859,60.41369-.01975,1.05071,1.125,11.10164,2.41516,13.67847a26.41014,26.41014,0,0,0,1.30143,2.398,26.41219,26.41219,0,0,0,1.30142-2.398c1.29015-2.57683,2.43491-12.62776,2.41516-13.67847-.01968-1.04135-.08684-58.87325-.08859-60.41369a.09951.09951,0,0,1,.02031-.06034l.74018-1.049a.104.104,0,0,1,.08572-.047c.58841-.0056,5.18286-.05627,5.88193-.07045a.11056.11056,0,0,1,.10477.06964l.66588.94153a.11106.11106,0,0,0,.103.06965h1.90244a.111.111,0,0,0,.111-.11118Z" style="fill: #fff"/>
      <g class="petals" style="opacity: 0.4">
        <path d="M79.5599,129.80893a5.58314,5.58314,0,0,1,1.49006-5.5632,13.40355,13.40355,0,0,1,7.53934-3.322C89.25225,124.69458,83.815,130.09525,79.5599,129.80893Z" style="fill: #fff"/>
        <path d="M36.42426,120.76788c.68-3.54537,4.50808-6.551,8.39827-6.64932C43.82147,117.428,40.12125,121.68017,36.42426,120.76788Z" style="fill: #fff"/>
        <path d="M185.78788,82.91463c-3.86488,1.52174-9.109,1.418-10.64187-1.72366C178.134,79.29383,183.10916,80.07765,185.78788,82.91463Z" style="fill: #fff"/>
        <path d="M96.68248,24.23013a7.40059,7.40059,0,0,1-8.25207,2.63661C89.98193,24.46788,94.43062,22.48813,96.68248,24.23013Z" style="fill: #fff"/>
        <path d="M80.41064,101.60083a7.21512,7.21512,0,0,1-8.26939,2.60422C74.0495,101.48783,78.055,100.19841,80.41064,101.60083Z" style="fill: #fff"/>
        <path d="M97.3425,173.09578c.01208,3.48077-2.239,6.71166-4.61043,6.68875C92.38309,177.17614,94.3695,174.25507,97.3425,173.09578Z" style="fill: #fff"/>
        <path d="M133.79527,166.21143c3.25511-.32938,7.02442,1.042,7.37818,3.48588C138.688,170.5602,135.156,168.92311,133.79527,166.21143Z" style="fill: #fff"/>
        <path d="M79.49549,59.12123c3.69374-.29824,6.62049,1.10244,7.33359,3.46019C84.33554,63.45993,80.6637,61.76109,79.49549,59.12123Z" style="fill: #fff"/>
        <path d="M44.46639,87.99009a5.4129,5.4129,0,0,1,5.0254-4.946C50.37585,85.384,47.83313,87.92714,44.46639,87.99009Z" style="fill: #fff"/>
        <path d="M28.64336,104.33664c.65338,2.519-1.58582,4.74389-5.00712,4.975C23.422,106.95119,25.91849,104.47071,28.64336,104.33664Z" style="fill: #fff"/>
        <path d="M170.13774,104.17674a5.38216,5.38216,0,0,1,5.01929-4.94946C176.11319,101.48765,173.54945,104.058,170.13774,104.17674Z" style="fill: #fff"/>
        <path d="M101.87829,111.93871a4.08039,4.08039,0,0,1,4.50725,3.10953C104.58463,115.96375,102.49783,114.52409,101.87829,111.93871Z" style="fill: #fff"/>
        <path d="M121.39882,40.34436a4.09442,4.09442,0,0,1-5.31635,1.32775C116.61421,39.73243,118.802,39.1674,121.39882,40.34436Z" style="fill: #fff"/>
        <path d="M30.98686,88.88544a3.72777,3.72777,0,0,1,4.51589-1.40985C34.14178,89.09752,32.35939,89.654,30.98686,88.88544Z" style="fill: #fff"/>
        <path d="M170.14031,158.14428c-1.23375,1.599-3.09615,2.19592-4.50528,1.444A3.715,3.715,0,0,1,170.14031,158.14428Z" style="fill: #fff"/>
        <path d="M33.64569,158.1451c-1.22476,1.58767-3.09056,2.187-4.49467,1.44379A3.724,3.724,0,0,1,33.64569,158.1451Z" style="fill: #fff"/>
        <path d="M65.58468,145.96868c-1.54213,1.67375-3.08,2.16484-4.53205,1.496A3.68806,3.68806,0,0,1,65.58468,145.96868Z" style="fill: #fff"/>
        <path d="M174.91647,115.31142c.89162-1.42548,2.39843-1.93971,4.47616-1.52757A3.55166,3.55166,0,0,1,174.91647,115.31142Z" style="fill: #fff"/>
        <path d="M60.01288,88.96558a3.92843,3.92843,0,0,1,4.55729-1.451A3.68321,3.68321,0,0,1,60.01288,88.96558Z" style="fill: #fff"/>
        <path d="M171.18352,137.57795a3.74291,3.74291,0,0,1,4.03579,1.87274A3.28918,3.28918,0,0,1,171.18352,137.57795Z" style="fill: #fff"/>
        <path d="M24.6161,143.676a3.49073,3.49073,0,0,1,4.04344,1.85863A3.53378,3.53378,0,0,1,24.6161,143.676Z" style="fill: #fff"/>
        <path d="M46.63574,154.43019c-2.173-.74318-3.14656-1.80133-3.06226-3.26693A3.56439,3.56439,0,0,1,46.63574,154.43019Z" style="fill: #fff"/>
        <path d="M34.98545,76.01007c-1.86578.31234-3.3775-.3416-4.01416-1.73646C32.29989,73.65207,34.03745,74.40371,34.98545,76.01007Z" style="fill: #fff"/>
        <path d="M144.16385,78.29223c-2.20358.17569-3.61949-.52353-3.98155-1.91578A3.65,3.65,0,0,1,144.16385,78.29223Z" style="fill: #fff"/>
        <path d="M167.65254,70.6478a3.36248,3.36248,0,0,1-2.41662,3.62541C165.22109,72.408,166.20775,70.92784,167.65254,70.6478Z" style="fill: #fff"/>
        <path d="M154.37059,149.64509c-.54043,1.124-1.3219,1.32343-2.842.72512A1.94692,1.94692,0,0,1,154.37059,149.64509Z" style="fill: #fff"/>
        <path d="M107.22672,158.14894a3.09238,3.09238,0,0,1,1.78988-2.825A2.33335,2.33335,0,0,1,107.22672,158.14894Z" style="fill: #fff"/>
      </g>
      <g>
        <path d="M125.36794,98.02967c-1.94555-.968-9.49415-4.64233-11.459-5.50675a3.11157,3.11157,0,0,1-1.68068-1.65178l-.00723-.01927c-1.11242-2.72328-4.62066-9.93719-5.17687-11.19409v-.04334A3.09818,3.09818,0,0,1,107.55949,77.9l-.00722.012c.81626-1.40377,6.00517-12.62194,6.59269-13.88365.18059.25042,7.20669,14.40616,7.40654,14.75048.25041.84756-.27209,1.5338-.57548,2.285-.58751,1.46156-1.14132,2.93517-1.74569,4.50268,2.16706-.65735,4.19688-1.66624,6.3182-2.41989,2.1189,1.00407,14.34836,6.884,15.18148,7.50285-5.06852,2.57159-10.26947,4.77718-15.36448,7.38487Z" style="fill: #fff"/>
        <path d="M78.87,83.11546l6.07019,2.41988c.08427-1.09316-1.6277-4.71216-2.09964-5.85829A3.56889,3.56889,0,0,1,83.363,77.876l-.00963.01444c1.11243-2.10205,6.7179-13.60916,6.87441-13.85235,1.22559,2.55473,6.66492,14.26169,7.03814,14.92866a1.11944,1.11944,0,0,1,.13243.53454,1.138,1.138,0,0,1-.23837.69828l.00241-.00241c-.50324.7657-5.00833,10.37783-5.22263,10.99183a1.78838,1.78838,0,0,1-1.08594,1.04982c-3.19762,1.53621-11.1363,5.25633-11.86106,5.71142-1.09316-.51528-2.19355-1.02575-3.28671-1.54825-2.1454-1.02815-11.74308-5.7066-12.01276-5.91849Z" style="fill: #fff"/>
        <path d="M112.82064,112.97037c.63808-.27209,1.0739-.43823,1.49046-.64049,1.80107-.88368,3.56361-1.85163,5.4008-2.64382,1.88535-.81626,3.672-1.81551,5.66326-2.7016,1.098.53936,15.07313,7.291,15.33077,7.47877l-15.12851,7.35839-6.05092-2.34524c-.20948,1.07149,1.55787,4.6327,1.95758,5.5236a2.69524,2.69524,0,0,1-.38044,2.03945c-1.7794,3.44082-6.78773,13.70307-6.91294,13.8668-1.26412-2.56676-6.88645-14.34114-7.07185-14.91421a1.75625,1.75625,0,0,1-.04575-.40211,1.81466,1.81466,0,0,1,.20949-.84516l-.00482.00963c.992-2.521,2.34524-4.86866,3.45526-7.3343.69346-1.529,1.42545-3.0387,2.08519-4.4497Z" style="fill: #fff"/>
        <path d="M79.07223,106.94593c1.6855.8572,3.306,1.6879,4.93368,2.50416,1.87572.93906,3.80681,1.7794,5.70661,2.66067a5.29444,5.29444,0,0,1,2.99054,3.13743,38.58063,38.58063,0,0,0,1.9311,4.04519c.88368,1.79384,1.62289,3.66474,2.49693,5.46822a1.54723,1.54723,0,0,1-.00481,1.46878l.00481-.00722c-.82107,2.03945-6.37116,14.11481-6.95868,14.79864l-7.20669-14.789c-.43582-1.05223,1.54343-5.05889,1.99611-6.18095a2.21255,2.21255,0,0,0,.02167-.29375,2.15224,2.15224,0,0,0-.02167-.3058l.00241.012-6.15206,2.35006-15.12851-7.37284a84.20593,84.20593,0,0,1,7.7003-3.78273c2.55714-1.20151,5.04444-2.43192,7.69067-3.7129Z" style="fill: #fff"/>
        <path d="M94.33318,107.91389l-10.987-5.2756,10.89311-5.34542,4.43285,1.81551a34.51859,34.51859,0,0,1-1.59159-4.72419L102.17072,83.768c.19263.378,3.2819,6.9948,4.94091,10.02147.50564.90776.05538,1.57233-.16374,2.28986a29.70294,29.70294,0,0,1-1.18225,3.22171l.077-.195s2.887-1.21115,3.8959-1.57232a1.10656,1.10656,0,0,1,1.057.02889l-.00482-.00241c2.574,1.32191,5.17688,2.59325,7.775,3.867.5851.28412,2.20318,1.02333,2.49934,1.21114l-10.987,5.26356-4.221-1.72884a26.19014,26.19014,0,0,0,1.51213,3.98258,2.96786,2.96786,0,0,1-.48638,1.76014c-1.293,2.41989-4.05482,8.81755-4.68568,9.46044-.2167-.32987-4.07889-8.20835-4.84218-9.6651a2.39588,2.39588,0,0,1-.19263-1.81311l-.00481.01685L98.66971,106.12Z" style="fill: #fff"/>
      </g>
    </g>
  </g>
</svg>
