<svg xmlns="http://www.w3.org/2000/svg" viewBox="0 0 204.40449 204.40449">
  <g class="Layer_2" data-name="Layer 2">
    <g class="iron-banner-3">
      <g class="circles" style="opacity: 0.2">
        <circle cx="118.72698" cy="72.42752" r="49.38895" style="fill: none;stroke: #fff;stroke-miterlimit: 10"/>
        <circle cx="68.70225" cy="102.20225" r="49.38895" style="fill: none;stroke: #fff;stroke-miterlimit: 10"/>
        <circle cx="118.72698" cy="131.97698" r="49.38895" style="fill: none;stroke: #fff;stroke-miterlimit: 10"/>
      </g>
      <g>
        <g class="dots dots6" style="opacity: 0.1">
          <circle cx="102.25304" cy="102.11231" r="79.26315" style="fill: none;stroke: #fff;stroke-linecap: round;stroke-miterlimit: 10;stroke-dasharray: 0,3.000270366668701"/>
        </g>
        <g class="dots dots5" style="opacity: 0.2">
          <circle cx="102.25304" cy="102.11232" r="74.00856" transform="translate(-42.25509 102.21182) rotate(-45)" style="fill: none;stroke: #fff;stroke-linecap: round;stroke-miterlimit: 10;stroke-dasharray: 0,3.0001800060272217"/>
        </g>
        <g class="dots dots4" style="opacity: 0.3">
          <circle cx="102.25304" cy="102.11232" r="69.80029" style="fill: none;stroke: #fff;stroke-linecap: round;stroke-miterlimit: 10;stroke-dasharray: 0,3.0040109157562256"/>
        </g>
        <g class="dots dots3" style="opacity: 0.4">
          <circle cx="102.25304" cy="102.11232" r="66.37871" style="fill: none;stroke: #fff;stroke-linecap: round;stroke-miterlimit: 10;stroke-dasharray: 0,3.0003037452697754"/>
        </g>
        <g class="dots dots2" style="opacity: 0.5">
          <circle cx="102.25304" cy="102.11231" r="63.74985" style="fill: none;stroke: #fff;stroke-linecap: round;stroke-miterlimit: 10;stroke-dasharray: 0,2.9888880252838135"/>
        </g>
        <g class="dots dots1" style="opacity: 0.6">
          <circle cx="102.25304" cy="102.11232" r="61.83735" style="fill: none;stroke: #fff;stroke-linecap: round;stroke-miterlimit: 10;stroke-dasharray: 0,3.0114803314208984"/>
        </g>
      </g>
      <circle cx="102.20227" cy="102.20224" r="58.04511" style="fill: #426b4b"/>
      <path d="M102.31305,171.59952l-.0003-.02852ZM89.78622,93.37165c1.95964.42471,3.49426.03028,4.4869-1.1387a3.85171,3.85171,0,0,0,.7045-1.241,4.06222,4.06222,0,0,0-1.61731-.36594c-2.19736,0-3.34819,2.24717-3.57409,2.74565m19.8611-2.37971a3.83877,3.83877,0,0,0,.70422,1.24013,3.79614,3.79614,0,0,0,3.04361,1.30528h.00058a6.8761,6.8761,0,0,0,1.44385-.1657c-.22764-.49732-1.37759-2.74565-3.57493-2.74565a4.0612,4.0612,0,0,0-1.61733.36594m-26.51277.46646a8.46394,8.46394,0,0,0,2.11551.29423,4.57632,4.57632,0,0,0,4.54337-3.18194,8.02784,8.02784,0,0,0-1.607-.17116,5.54938,5.54938,0,0,0-5.05192,3.05887m31.697-2.88771a4.58164,4.58164,0,0,0,4.54337,3.18194h.00058a8.46492,8.46492,0,0,0,2.11493-.29423,5.54993,5.54993,0,0,0-5.05136-3.05887,8.02032,8.02032,0,0,0-1.60752.17116M79.69937,86.77042a4.404,4.404,0,0,0,2.38059.767,4.18985,4.18985,0,0,0,2.89032-1.28885,4.02688,4.02688,0,0,0-2.12819-.61317,5.536,5.536,0,0,0-3.14272,1.135m39.95558-.52183a4.18763,4.18763,0,0,0,2.89,1.28885,4.39272,4.39272,0,0,0,2.38031-.767,5.534,5.534,0,0,0-3.14244-1.135,4.02224,4.02224,0,0,0-2.1279.61317M87.98191,115.061c.56878.03774,1.09348,1.0566,1.09348,1.0566l-.01382.00028c-.75062,0-1.07966-1.05688-1.07966-1.05688m-1.75161-.31811c1.02952-.07808,1.07852,1.15139,1.07852,1.15139a8.3592,8.3592,0,0,1-1.07852-1.15139m-8.1327-3.29456a6.04509,6.04509,0,0,1-3.12543,1.98151,18.968,18.968,0,0,0,3.12543-1.98151m14.38273-.14639c-.00635-.01122.132.04667.33972.1046a1.87255,1.87255,0,0,0,1.19288.01038,1.23147,1.23147,0,0,1-.79064.41518.87975.87975,0,0,1-.742-.53016m-11.03254-3.53948a.86412.86412,0,0,1,.82407-.34663,1.9662,1.9662,0,0,0-1.058.70793h-.00058a1.46063,1.46063,0,0,1,.23455-.3613m-13.99719-.436h.09046a3.54075,3.54075,0,0,1,1.48306.23137,2.43154,2.43154,0,0,0,1.64556.31695,10.93193,10.93193,0,0,0,2.1642-.2936,4.58286,4.58286,0,0,1-2.45666.77364,4.03627,4.03627,0,0,1-1.12748-.16278,2.54833,2.54833,0,0,0-.8676-.12332,5.44854,5.44854,0,0,0-2.1887.514,2.67739,2.67739,0,0,1,1.06986-.6947l.44835-.13081-.44144-.15185a1.46491,1.46491,0,0,0-.43479-.05156,4.43768,4.43768,0,0,0-1.9625.55236,4.41873,4.41873,0,0,1,2.57768-.77972m25.66536-.46418s.65955.06454.77076.38954c0,0-.48262-.22271-.77076-.38954m-2.02475-1.13412s1.19837-.07348,1.46806.42788a7.79915,7.79915,0,0,0-1.46806-.42788m-4.08437-2.10054s1.44646-.53882,1.766.54806c0,0-.23886-.49819-1.766-.54806m-5.7521-.36591c2.6477,1.34907,3.74118.69555,3.74118.69555a1.23185,1.23185,0,0,1-1.005.43481,5.95161,5.95161,0,0,1-2.73616-1.13036m1.72248-2.19016a1.15083,1.15083,0,0,1,.83417-.06827,1.59537,1.59537,0,0,1,1.135,1.50235.68282.68282,0,0,0,.34837.51863.82859.82859,0,0,1-.62411-.27228c-.30428-.43885-.557-.34607-1.21508-.47255a1.16187,1.16187,0,0,1-.91167-.818c-.05849-.17721-.55612-.28726-.55612-.28726.1023.00633.19451.0089.27748.0089a1.85413,1.85413,0,0,0,.712-.1115m-.89754-.34058a3.73154,3.73154,0,0,0-2.2328.53969s1.54386-1.16954,2.2328-.53969m2.98771-.51518s1.70692.17375,1.615,1.39085c0,0-.22476-.859-1.615-1.39085m1.2168-.695s1.717,1.32919,1.67494,2.32037a8.03431,8.03431,0,0,0-1.67494-2.32037m-13.359-.49014a10.80219,10.80219,0,0,0,3.95527.95027,2.63511,2.63511,0,0,1-.75117.10172,7.29309,7.29309,0,0,1-3.2041-1.052m.3884-.95115a6.52328,6.52328,0,0,0,4.74218,1.12462,3.7702,3.7702,0,0,1-1.492.285h-.00116a4.62452,4.62452,0,0,1-3.249-1.4096m7.51379-.26795a5.506,5.506,0,0,1,1.19665-.16683,2.27183,2.27183,0,0,1,.67165.10028c.06887.019.13455.03743.20226.05185l.7558.16165a2.46746,2.46746,0,0,1,.19766.24347,12.19422,12.19422,0,0,0-2.25814-.25817,4.78247,4.78247,0,0,0-.7169.04784,4.129,4.129,0,0,1-.59182.0415,4.69036,4.69036,0,0,1-1.8709-.38525,6.362,6.362,0,0,0,1.63751.24491,3.489,3.489,0,0,0,.77623-.08125m-11.61025-.525c.047-.14435-.03083-.30572-.26394-.52267a1.31511,1.31511,0,0,1,.86616.31751.32115.32115,0,0,1,.02391.31726c-.10632.31146-.46189.45036-1.15573.45036-.37832,0-.81139-.04091-1.27127-.08414-.39935-.03774-.81225-.07636-1.21507-.0899a4.83311,4.83311,0,0,0-3.78154,1.38192,5.53377,5.53377,0,0,1,4.24025-1.78243,8.81514,8.81514,0,0,1,1.76515.191,2.03046,2.03046,0,0,0,.34144.03141c.09451,0,.38091,0,.45064-.21034m13.78714.23771a5.59322,5.59322,0,0,0-2.60535-.59443,4.95123,4.95123,0,0,1-3.06233-1.01366,6.98623,6.98623,0,0,0,2.88253.79411,4.74864,4.74864,0,0,1,3.30379,1.1171Zm-9.5855-8.52862a6.534,6.534,0,0,1,1.87577,2.21985,7.56963,7.56963,0,0,1-1.87577-2.21985m-1.92015.072a7.22917,7.22917,0,0,1,.44459-2.40912c.04206.87392.108,2.44313.108,3.52653a4.17456,4.17456,0,0,0,1.3724,2.65146,4.32708,4.32708,0,0,1-1.925-3.76887m-.79238-.67336c-.35212,3.85586-.11124,2.429-.96383,4.09645A3.96529,3.96529,0,0,1,67.2247,94.823s-3.56341-.34459-4.99489-1.3917a5.43638,5.43638,0,0,0,.98082,1.3917s-2.59641.451-2.99462,2.65c-.39734,2.19938-.4031,4.17-.78661,4.65172a1.65275,1.65275,0,0,0,.75089-.20777c.1919-.176,3.54324-2.89,4.6981-2.444,0,0-3.77721,1.32459-5.36486,3.764,0,0,.8794.03947.09249,2.75374,0,0,3.21563-2.17053,5.38589-2.25238.47716-.01787,1.0448-.01583,1.65335-.01438,2.159.00661,4.83755.01266,5.85065-.85724,0,0-.24349,1.49978-6.93666,1.379a7.90745,7.90745,0,0,0-5.1911,2.2305,5.6657,5.6657,0,0,1-.695.69928,1.94476,1.94476,0,0,1-.41894.27432.80419.80419,0,0,1-.102.03918s-.18585.03517-.25991-.01755a.9102.9102,0,0,0,.429.49992.67917.67917,0,0,0,.45411.02592,1.31989,1.31989,0,0,0,.391-.1772,4.31155,4.31155,0,0,1,2.412-1.01049,14.55419,14.55419,0,0,0,3.42625-.39852,6.5906,6.5906,0,0,1,2.50795-.09795,7.37244,7.37244,0,0,0-2.31923.34547,8.14666,8.14666,0,0,1-3.02832.57051,4.89639,4.89639,0,0,0-2.90416,1.00159c-.58491.53421-.10978.72407.16857.84855.278.12391.37255.57772.37255,1.11137a1.616,1.616,0,0,0,1.49948,1.7634,4.04014,4.04014,0,0,0,2.74826-.60941c.3302-.41754,2.17862-2.38178,4.24025-1.79137a4.68131,4.68131,0,0,0-3.41674,1.67439,3.41459,3.41459,0,0,1-4.40507,1.09406,4.52644,4.52644,0,0,1,.92982,2.246,1.53773,1.53773,0,0,1-.75981,1.41882,1.377,1.377,0,0,1-.23744.11006s.115.02219.29824.06915c.68288.17347,2.3293.69009,2.703,1.71212,0,0,2.03455-2.7791,3.345-3.05081,0,0-4.89345,3.50954-2.48375,6.82109,0,0,1.48564-2.83439,3.47148-3.26375a3.927,3.927,0,0,1-.784,1.51937,15.91978,15.91978,0,0,0,2.31059-2.09305c.85318-1.0197,1.77983-1.31561,2.66961-2.261.88947-.94538.79727-1.13124,1.92765-1.37214,1.13122-.2403,2.0014-.29647,2.35436-.75924,0,0-.48176.91685-2.49787,1.31537a2.009,2.009,0,0,0-1.5836,1.41821,32.39747,32.39747,0,0,1,5.39712-.38036c3.36372,0,3.528-.10429,4.0711.26654.544.37027,2.84279,1.49514,3.43577,1.86541a2.76405,2.76405,0,0,0,1.54528.544,2.252,2.252,0,0,0,2.08756-1.30988,5.773,5.773,0,0,0,.84224-2.19822c.02448-.22015-.09567-.15617-.39274-.09222a2.4985,2.4985,0,0,1-.81284.04611s-.05416-.0115-.15184-.03457a2.438,2.438,0,0,0,.11957-1.26982,4.41323,4.41323,0,0,1-1.48881.9183c-.23627-.06627-.49242-.14091-.76069-.22216a3.283,3.283,0,0,0,.3867-1.10071,4.28,4.28,0,0,1-1.93919.5786c-.08269-.03141-.16538-.06194-.24751-.09307a3.23825,3.23825,0,0,0,.31638-1.3191,4.67857,4.67857,0,0,1-2.18265.4766c-.06194-.03429-.12332-.06918-.18411-.1026a4.30514,4.30514,0,0,0,.51115-1.23236,2.80494,2.80494,0,0,1-1.66717.41983,2.09469,2.09469,0,0,1-.76328-1.27475c-.2112-1.99333.80939-2.70214,1.64672-2.83932a2.77065,2.77065,0,0,1-.02824,1.23268,6.29239,6.29239,0,0,0,1.20614-1.0834c.25386.074.56966.17375.9307.29735a3.28193,3.28193,0,0,1-.04063,1.38825,4.99379,4.99379,0,0,0,1.36259-.905c.2648.10316.5397.21522.81948.334a1.39464,1.39464,0,0,1-.39216,1.16782,3.10167,3.10167,0,0,0,1.54672-.64659c.17174.08241.34375.16739.51348.25472A1.50444,1.50444,0,0,1,88.872,111.008a2.33714,2.33714,0,0,0,1.09378-.535,12.91192,12.91192,0,0,1,1.20412.81369s.06859.03862.17578.102c-.08385.30284-.27864.88345-.55612,1.01915a5.78716,5.78716,0,0,0,1.80721-.04063c.13167.30861-.02708.37516.34231.38814.38206.01238.75838.18381,1.51675-.69587.75839-.8794.7898-1.04939,1.21567-1.02635.42616.02363.57023-.29908.50885-.50453a.48848.48848,0,0,1-.01959-.40829c.05445-.24607.20026-.37459.42414-.34146.22359.03286.68777.13053.74224-.09852a1.1305,1.1305,0,0,0-.60078-1.47875,49.48512,49.48512,0,0,1-5.36483-3.52016l-1.70436-1.37791a6.20677,6.20677,0,0,1-1.55854-2.24257,6.04672,6.04672,0,0,0-2.50767-2.62c-.71688-.51894-2.16881-1.72334-3.262-2.391-1.09434-.66734-3.00384-2.391-3.80025-2.391-.79756,0-1.22344-1.00127-1.6133-1.798a64.39536,64.39536,0,0,1-3.13176-6.48772c-.27777-1.18657-1.04162-1.492-1.45973-1.492s-1.26491.65756-1.61759,4.51313M115.549,116.1176s.52558-1.01886,1.09406-1.0566c0,0-.32934,1.0566-1.08022,1.05688l-.01384-.00028m2.846-1.37471a8.41529,8.41529,0,0,1-1.0785,1.15139s.04812-1.22947,1.0785-1.15139m8.13214-3.29456a18.98144,18.98144,0,0,0,3.1263,1.98151,6.04043,6.04043,0,0,1-3.1263-1.98151m-14.72273-.04179c.20775-.05793.34547-.11582.33943-.1046-.66358,1.122-1.53146.115-1.53146.115a1.2337,1.2337,0,0,0,.50454.09563,2.643,2.643,0,0,0,.68749-.106m11.60679-3.28278a1.9672,1.9672,0,0,0-1.058-.70793.86254.86254,0,0,1,.82321.34663,1.49111,1.49111,0,0,1,.23541.3613h-.00058m12.1897-.5659a3.53485,3.53485,0,0,1,1.4819-.23137h.09451a4.41525,4.41525,0,0,1,2.56558.77479,4.43265,4.43265,0,0,0-1.95329-.54743,1.45859,1.45859,0,0,0-.43479.05156l-.44172.15185.44833.13081a2.67222,2.67222,0,0,1,1.06872.6947,5.43888,5.43888,0,0,0-2.187-.514,2.549,2.549,0,0,0-.85606.11927,4.0417,4.0417,0,0,1-1.13987.16683,4.5674,4.5674,0,0,1-2.45263-.77335,10.85256,10.85256,0,0,0,2.15988.29331c.11352.00232.21783.004.31408.004a2.077,2.077,0,0,0,1.33234-.321m-24.09212-.69555c-.28813.16683-.77192.38954-.77192.38954.11208-.325.77192-.38954.77192-.38954m2.02475-1.13412a7.79569,7.79569,0,0,0-1.4675.42788c.26913-.50136,1.4675-.42788,1.4675-.42788m4.08436-2.10054c-1.52655.04987-1.76541.54806-1.76541.54806.31866-1.08688,1.76541-.54806,1.76541-.54806m5.75183-.36591s-2.68834,1.98324-3.74091.69555a1.779,1.779,0,0,0,.84915.15817,6.52538,6.52538,0,0,0,2.89176-.85372m-3.69136-.75608a1.595,1.595,0,0,1,1.135-1.50235,1.15022,1.15022,0,0,1,.83387.06827,2.19542,2.19542,0,0,0,.99033.1026s-.49791.11-.55726.28726a1.16032,1.16032,0,0,1-.91051.818c-.65869.12648-.91109.0337-1.21508.47255a.82889.82889,0,0,1-.62441.27228.68277.68277,0,0,0,.34807-.51863m5.09892-1.235a3.72884,3.72884,0,0,0-2.23193-.53969c.68923-.62985,2.23193.53969,2.23193.53969m-5.21935-1.05487c-1.39085.53188-1.61531,1.39085-1.61531,1.39085-.0922-1.2171,1.61531-1.39085,1.61531-1.39085m-1.21651-.695a8.02,8.02,0,0,0-1.67611,2.32037c-.04121-.99118,1.67611-2.32037,1.67611-2.32037m9.4031.46013A10.80425,10.80425,0,0,0,131.7,99.03069a7.30026,7.30026,0,0,1-3.20468,1.052,2.63318,2.63318,0,0,1-.75089-.10172m3.56687-1.90142a4.32841,4.32841,0,0,1-4.74248,1.12462,7.09956,7.09956,0,0,0,.94424.06339,6.38821,6.38821,0,0,0,3.79824-1.188m-10.34043-.121.7552-.16165c.06887-.01442.13428-.03285.20257-.05185a2.26915,2.26915,0,0,1,.67194-.10028,5.48792,5.48792,0,0,1,1.19607.16683,3.49675,3.49675,0,0,0,.77567.08125,6.36562,6.36562,0,0,0,1.63893-.24491,4.68926,4.68926,0,0,1-1.8709.38525,4.10943,4.10943,0,0,1-.59126-.0415,4.79392,4.79392,0,0,0-.71774-.04784,12.22678,12.22678,0,0,0-2.259.25817,2.70437,2.70437,0,0,1,.19853-.24347m13.81076-.55985a.322.322,0,0,1,.02363-.31726,1.3172,1.3172,0,0,1,.86644-.31751c-.23339.21695-.31119.37832-.26366.52267.06829.2095.35327.21034.44894.21034h.00114a2.16357,2.16357,0,0,0,.34547-.03141,8.75135,8.75135,0,0,1,1.76168-.191,5.53543,5.53543,0,0,1,4.22729,1.772,4.79675,4.79675,0,0,0-3.48014-1.37643q-.14306,0-.28872.00489c-.40224.01354-.81572.05216-1.21537.0899-.45871.04323-.89206.08414-1.27126.08414-.69355,0-1.05-.1389-1.15544-.45036m-7.49419-1.48248a4.94865,4.94865,0,0,1-3.06119,1.01366,5.597,5.597,0,0,0-2.60592.59443l-.51835.30312a4.7541,4.7541,0,0,1,3.0191-1.1292c.09768,0,.19335.004.2844.0121q.0804.00691.166.00693a7.6759,7.6759,0,0,0,2.716-.801m3.919-6.92053a7.5664,7.5664,0,0,1-1.87637,2.21985,6.526,6.526,0,0,1,1.87637-2.21985m1.36663,1.18945c0-1.08368.06657-2.65318.10922-3.52769a7.25219,7.25219,0,0,1,.444,2.41028,4.32708,4.32708,0,0,1-1.925,3.76887,4.17669,4.17669,0,0,0,1.37182-2.65146m-1.73113-4.81189a64.21066,64.21066,0,0,1-3.13351,6.48772c-.389.79671-.81457,1.798-1.61212,1.798-.79671,0-2.70621,1.72363-3.80055,2.391-1.0935.66762-2.54457,1.872-3.26173,2.391a6.05059,6.05059,0,0,0-2.50825,2.62,6.20451,6.20451,0,0,1-1.5574,2.24257l-1.70548,1.37791a49.40143,49.40143,0,0,1-5.36427,3.52016,1.13023,1.13023,0,0,0-.60078,1.47875c.05417.22905.51807.13138.74167.09852.22417-.03313.37026.09539.42471.34146a.494.494,0,0,1-.019.40829c-.06194.20545.08155.52816.50827.50453.42616-.023.457.147,1.216,1.02635.75839.87968,1.13411.70825,1.51648.69587.36938-.013.21-.07953.3423-.38814a5.787,5.787,0,0,0,1.80722.04063c-.27865-.1357-.47169-.71631-.55613-1.01915.10691-.06338.1752-.102.1752-.102a13.0929,13.0929,0,0,1,1.20356-.81369,2.34257,2.34257,0,0,0,1.09492.535,1.50453,1.50453,0,0,1,.05272-1.17011c.17059-.08733.34289-.17231.51376-.25472a3.10765,3.10765,0,0,0,1.5473.64659,1.39562,1.39562,0,0,1-.39216-1.16782c.27978-.11875.5541-.23081.81976-.334a4.99,4.99,0,0,0,1.36233.905,3.30866,3.30866,0,0,1-.04209-1.38825c.3622-.1236.67858-.22331.93215-.29735a6.29458,6.29458,0,0,0,1.20585,1.0834,2.77477,2.77477,0,0,1-.02824-1.23268c.83791.13718,1.85734.846,1.647,2.83932a2.09609,2.09609,0,0,1-.76327,1.27475,2.80821,2.80821,0,0,1-1.66776-.41983,4.31327,4.31327,0,0,0,.51174,1.23236c-.06022.03342-.12218.06831-.185.1026a4.67506,4.67506,0,0,1-2.18151-.4766,3.23324,3.23324,0,0,0,.31638,1.3191c-.083.03113-.16482.06166-.24779.09307a4.27992,4.27992,0,0,1-1.93947-.5786,3.27927,3.27927,0,0,0,.387,1.10071c-.26855.08125-.525.15589-.76069.22216a4.4097,4.4097,0,0,1-1.48853-.9183,2.43689,2.43689,0,0,0,.11929,1.26982c-.09709.02307-.15184.03457-.15184.03457a2.49978,2.49978,0,0,1-.81313-.04611c-.29708-.06395-.41723-.12793-.39215.09222a5.75956,5.75956,0,0,0,.84136,2.19822,2.2532,2.2532,0,0,0,2.08814,1.30988,2.75953,2.75953,0,0,0,1.5447-.544c.59328-.37027,2.89234-1.49514,3.43577-1.86541.54372-.37083.708-.26654,4.0717-.26654a32.387,32.387,0,0,1,5.39682.38036,2.00878,2.00878,0,0,0-1.58332-1.41821c-2.0161-.39852-2.49787-1.31537-2.49787-1.31537.35268.46277,1.22315.51894,2.35467.75924,1.13007.2409,1.03815.42676,1.92736,1.37214.89006.94539,1.81641,1.2413,2.66959,2.261a15.88836,15.88836,0,0,0,2.3106,2.09305,3.92692,3.92692,0,0,1-.784-1.51937c1.985.42936,3.4712,3.26375,3.4712,3.26375,2.41-3.31155-2.48375-6.82109-2.48375-6.82109,1.31073.27171,3.34528,3.05081,3.34528,3.05081.35182-.963,1.83661-1.47843,2.57711-1.679.25558-.06971.42385-.10228.42385-.10228a1.43037,1.43037,0,0,1-.33107-.168,1.55206,1.55206,0,0,1-.66618-1.36089,4.52644,4.52644,0,0,1,.92982-2.246,3.41451,3.41451,0,0,1-4.40505-1.09406,4.68051,4.68051,0,0,0-3.41645-1.67439c2.06134-.59041,3.91032,1.37383,4.23966,1.79137a4.04447,4.04447,0,0,0,2.74884.60941,1.61531,1.61531,0,0,0,1.4989-1.7634c0-.53365.09509-.98746.37256-1.11137.15819-.07.37776-.16106.43394-.32444l.01181-.07492c.0026-.115-.07-.26049-.27719-.44919a4.89471,4.89471,0,0,0-2.90472-1.00159,8.14112,8.14112,0,0,1-3.02718-.57051,7.376,7.376,0,0,0-2.31981-.34547,6.59189,6.59189,0,0,1,2.50825.09795,14.55987,14.55987,0,0,0,3.42654.39852,4.31312,4.31312,0,0,1,2.412,1.01049,1.441,1.441,0,0,0,.28209.14234.77938.77938,0,0,0,.44345.04956.85261.85261,0,0,0,.54831-.54054c-.07347.05272-.25931.01755-.25931.01755a1.03249,1.03249,0,0,1-.21064-.09419,2.5641,2.5641,0,0,1-.41434-.30773,5.86574,5.86574,0,0,1-.59126-.61086,7.9079,7.9079,0,0,0-5.1911-2.2305c-6.69317.12075-6.93635-1.379-6.93635-1.379,1.01251.8699,3.69133.86357,5.85035.85724.60854-.00176,1.17619-.00349,1.65335.01438,1.99968.07492,4.88653,1.92362,5.32651,2.2126.03718.02568.05966.03978.05966.03978-.01787-.059-.03286-.115-.0487-.172-.68691-2.493.10747-2.5791.1386-2.58114l.00144-.00057-.00144-.00228c-1.58737-2.43824-5.36255-3.76167-5.36255-3.76167,1.15427-.446,4.50591,2.26793,4.69781,2.444a1.43207,1.43207,0,0,0,.67568.20229c.04553.00376.07464.00548.07464.00548a.67507.67507,0,0,1-.07608-.12708,41.82848,41.82848,0,0,1-.70968-4.52464c-.39821-2.19906-2.99462-2.65-2.99462-2.65a5.42745,5.42745,0,0,0,.98-1.3917c-1.43,1.04711-4.99489,1.3917-4.99489,1.3917a3.96547,3.96547,0,0,1-2.51718-2.33219c-.85288-1.66746-.61142-.24059-.9641-4.09645-.35212-3.85557-1.19953-4.51313-1.61733-4.51313-.41837,0-1.18194.30544-1.45884,1.492m-36.32216-2.9007a3.12569,3.12569,0,0,0,.67021.07809,2.078,2.078,0,0,0,1.96194-1.28713,1.6418,1.6418,0,0,0-.62758-.12821,2.79457,2.79457,0,0,0-2.00457,1.33725m12.95269-1.209a2.08113,2.08113,0,0,0,1.9628,1.28713,3.126,3.126,0,0,0,.67021-.07809,2.79648,2.79648,0,0,0-2.00517-1.33725,1.64526,1.64526,0,0,0-.62784.12821m-18.47-1.67234a3.1252,3.1252,0,0,0,1.9726.74138,3.96851,3.96851,0,0,0,2.44369-1.00072,3.22306,3.22306,0,0,0-4.41629.25934m22.20367-.25934a3.97572,3.97572,0,0,0,2.44283,1.00072h.00058a3.12781,3.12781,0,0,0,1.974-.74138,3.22452,3.22452,0,0,0-4.41745-.25934m-32.43661-4.7419c.14291.01326.42269.03229.786.03229,3.95327,0,5.38848-1.94409,5.90165-3.17557a8.50112,8.50112,0,0,0-1.46691-.12536c-3.33751,0-4.68253,1.75275-5.22077,3.26864m40.39786-3.14328c.51262,1.23148,1.94868,3.17557,5.90223,3.17557.36306,0,.64227-.019.786-.03229-.53795-1.51589-1.88327-3.26864-5.22223-3.26864a8.50148,8.50148,0,0,0-1.466.12536m-44.4419-1.16438a5.16372,5.16372,0,0,0,1.79366.317,6.76088,6.76088,0,0,0,3.44037-1.03613A5.59385,5.59385,0,0,0,77.7187,69.056a4.21392,4.21392,0,0,0-2.99319,1.22631m49.93959-.71918a6.76341,6.76341,0,0,0,3.44067,1.03613,5.172,5.172,0,0,0,1.79308-.31638,4.21782,4.21782,0,0,0-2.99319-1.22688,5.59586,5.59586,0,0,0-2.24056.50713M91.97434,61.92741a3.07119,3.07119,0,0,0,2.58519,1.69394,3.63866,3.63866,0,0,0,2.01121-.70969,2.75292,2.75292,0,0,0-2.48-1.62912,4.37558,4.37558,0,0,0-2.11639.64487m16.07987.98425a3.645,3.645,0,0,0,2.01092.70969h.00086a3.071,3.071,0,0,0,2.58431-1.69394,4.374,4.374,0,0,0-2.11609-.64487,2.75321,2.75321,0,0,0-2.48,1.62912m-21.8337,80.34023c-.19507-.07636-.39014-.15588-.58434-.23369a43.80931,43.80931,0,0,1-12.37929-7.66591c-.0729-.06455-.1458-.12881-.21727-.19335-.08355-.07348-.16624-.14608-.24894-.21955-.05562-.05044-.11123-.10172-.16684-.15244q-.76285-.695-1.49947-1.43c-.221-.22039-.43653-.44431-.65235-.66818-.0703-.07232-.14-.147-.20976-.21927a44.09955,44.09955,0,0,1-7.7322-49.272c.064-.13369.12995-.26682.19507-.39935.06254-.1268.123-.25444.1873-.38149A17.86515,17.86515,0,0,1,64.33035,81.271q.40238-.2917.82926-.55552a8.12924,8.12924,0,0,1,3.08251-1.21738,31.33851,31.33851,0,0,1,4.225-.33081,9.68625,9.68625,0,0,1,3.79336.58754c1.52482.67768,7.99151,3.36976,9.2259,3.5101a45.10627,45.10627,0,0,1,6.8891,2.48492c.85376.41462,6.06387,5.06169,6.82,8.13154.14666.28553,1.207,2.90474,1.207,18.81457q0,2.07547.00721,4.08294c.03746,15.0094.06715,26.86459-4.94416,27.41667-.50771.05589-.99725.091-1.46057.10544q-.23124.00692-.45324.00662a7.67039,7.67039,0,0,1-4.90124-1.41073,7.18575,7.18575,0,0,1-2.15787-3.01075c-.02853-.07721-.63968-1.76369-.18441-2.65835a4.11173,4.11173,0,0,1,2.5431-2.21493c-.01959-.01181-.04379-.02736-.07634-.04379a.31919.31919,0,0,0-.14149-.02047c-.74973,0-2.79725.82407-3.19718,2.3495a.15633.15633,0,0,1-.306-.01787c-.01613-.11354-.37428-2.80995,1.19348-4.25985a2.88721,2.88721,0,0,1,1.98814-.67368,4.31444,4.31444,0,0,1,.91744.10144.09351.09351,0,0,0,.04668-.01269s.01614-.02909-.01066-.11928a3.30155,3.30155,0,0,0-2.02907-.65063,1.65483,1.65483,0,0,0-.73591.14379.15578.15578,0,0,1-.18267-.032.15385.15385,0,0,1-.0242-.18326c.06771-.12476,1.71585-3.04821,4.70615-3.04821a6.19434,6.19434,0,0,1,3.65966,1.39543.79439.79439,0,0,0,.37428.13024.24927.24927,0,0,0,.19565-.08385.20655.20655,0,0,0,.036-.15589,2.01754,2.01754,0,0,0-.65176-1.04161l-.01615-.01355a5.02746,5.02746,0,0,0-3.17182-1.03208,9.17636,9.17636,0,0,0-3.78124.93008.15627.15627,0,0,1-.21352-.09479c-.00663-.019-.667-2.00371-2.272-2.1717-.18037-.01931-.33021-.03053-.44834-.03313.07.0389.14321.07721.19738.10573a1.73511,1.73511,0,0,1,.36161.22159c.02017.01931.05907.04812.10863.08558a2.09011,2.09011,0,0,1,.90216,2.58719,15.52652,15.52652,0,0,1-1.31563,2.32931,13.7909,13.7909,0,0,0-1.68274,3.19977.12228.12228,0,0,1-.02045.04439.73023.73023,0,0,1-.54345.31927c-.2769,0-.52786-.21266-.7454-.63248-.49157-.94651-2.70793-2.08064-3.23609-2.24229a5.98543,5.98543,0,0,1-1.94263-1.23208,3.0462,3.0462,0,0,1-1.024-3.10643c.051-.19507.07059-.50684-.03141-.55753-.19163,0-.7166.53566-.7166,1.55652a4.06341,4.06341,0,0,0,1.37412,2.69553.156.156,0,0,1-.08846.28181H76.2878a5.83841,5.83841,0,0,1-4.59207-2.9033c-1.74756-2.61168-1.69742-3.07962-1.41619-3.891.02334-.0651.04609-.13137.06887-.20341a.10293.10293,0,0,0,.00374-.07375.14214.14214,0,0,0-.08875-.04756.39531.39531,0,0,0-.2259.13341,1.55218,1.55218,0,0,0-.37516,1.09779,6.65893,6.65893,0,0,0,1.17216,2.89725c.1893.30829.37861.58982.546.83849.49156.72812.81544,1.21077.47255,1.4643a2.747,2.747,0,0,1-.423.22131c-.09307.04178-.19477.0879-.29505.13974a2.35087,2.35087,0,0,0-.39128.234c-.14407.11382-.234.23946-.20373.37688.01845.07724.049.10056.1337.10056a1.21616,1.21616,0,0,0,.41808-.11466c.132-.05448.27143-.12047.40369-.18529l.02652-.013a3.55826,3.55826,0,0,1,.52211-.22159.705.705,0,0,1,.19507-.02652,4.12657,4.12657,0,0,1,1.98612,1.02695.45416.45416,0,0,1,.16512.36306c-.011.31118-.34174.63013-.7146.9278-.10632.08585-.2158.16911-.323.25039-.01326.0095-.02364.01815-.03632.02765-.07289.05617-.1432.11037-.20543.15905-.1288.10257-.19536.20228-.17692.26366.0219.07981.16625.15874.27172.17172a1.35965,1.35965,0,0,0,.49386-.25557,2.86723,2.86723,0,0,0,.3501-.28642,1.36411,1.36411,0,0,0,.22129-.26133,1.50865,1.50865,0,0,1,1.37585-.67424,4.31013,4.31013,0,0,1,1.72941.44892l.42328.1913c1.75793.79471,2.9197,1.31882,3.08336,2.46793a11.59219,11.59219,0,0,0,2.89809,4.25377c.30515.31726.62786.63132.96442.93529a15.46434,15.46434,0,0,0,2.08237,1.60523l.03516.0248c-.21466-.07953-.42933-.15965-.64256-.24263m24.30765,1.04507q-.6548-.02423-1.36952-.1014c-5.01073-.55208-4.98048-12.40727-4.9433-27.41555q.006-2.00586.00691-4.08406c0-15.90983,1.06035-18.529,1.207-18.81457.75606-3.06985,5.96706-7.71692,6.82023-8.13154a45.0664,45.0664,0,0,1,6.88939-2.48492c1.2341-.14034,7.70079-2.83242,9.22562-3.5101a9.68575,9.68575,0,0,1,3.79363-.58754,31.33087,31.33087,0,0,1,4.2244.33081,7.85183,7.85183,0,0,1,2.899,1.09751q.40627.24116.82.5316a17.12565,17.12565,0,0,1,1.39863,1.10156c.0657.12651.12966.25328.193.38064.06426.12792.1265.25729.18845.38581a44.09039,44.09039,0,0,1-7.48152,49.31031c-.13081.14-.26364.28064-.39735.41894-.20313.21294-.40741.42416-.6166.63245q-.68982.68941-1.40728,1.34506c-.04407.03946-.08672.081-.13081.12128-.13946.12679-.28209.25184-.423.37547-.049.04523-.09882.089-.14868.13225a43.79017,43.79017,0,0,1-12.16608,7.59216c-.18584.07721-.37313.14984-.55985.2236-.21436.08585-.42846.17027-.64427.251a15.77569,15.77569,0,0,0,2.08468-1.63432c.33279-.30657.65-.621.94971-.93733a11.36411,11.36411,0,0,0,2.801-4.15061c.164-1.14911,1.32517-1.67322,3.08367-2.46793l.423-.1913a4.30893,4.30893,0,0,1,1.72911-.44892,1.50558,1.50558,0,0,1,1.37587.67424,1.44581,1.44581,0,0,0,.16769.20889,2.7582,2.7582,0,0,0,.34116.29331,1.54075,1.54075,0,0,0,.55727.30112c.10486-.013.24951-.09191.27257-.17172.01729-.06138-.04928-.16109-.17836-.26366-.07262-.05793-.15531-.12015-.24175-.1867l-.02536-.019c-.119-.09079-.24088-.18385-.35757-.27893-.34663-.28381-.644-.58577-.65436-.88024a.45151.45151,0,0,1,.16422-.36306,4.13509,4.13509,0,0,1,1.98672-1.02695.70881.70881,0,0,1,.19536.02652,3.04279,3.04279,0,0,1,.4446.18441c.034.01615.06887.03257.10373.05013.10546.05072.21552.10372.323.1504a1.42275,1.42275,0,0,0,.49934.14955c.08385,0,.1144-.02332.13255-.10056.03659-.15733-.08788-.30024-.27085-.42672a3.18161,3.18161,0,0,0-.4011-.22359c-.07462-.03518-.1481-.06947-.217-.10028a2.72653,2.72653,0,0,1-.42327-.22131c-.34375-.25353-.019-.73618.47169-1.4643.16855-.24867.35729-.5302.54687-.83849a6.65461,6.65461,0,0,0,1.17128-2.89725,1.55472,1.55472,0,0,0-.37427-1.09835.37621.37621,0,0,0-.215-.13457c-.05878.01382-.09191.03113-.10143.05044a.10654.10654,0,0,0,0,.05933c.03919.1216.07809.21755.11439.30918.29362.73621.37,1.23524-1.2897,3.71411a6.18766,6.18766,0,0,1-4.77331,2.98771h-.00086a.15609.15609,0,0,1-.09249-.28181,4.06855,4.06855,0,0,0,1.37443-2.69553c0-1.022-.52616-1.55768-.70883-1.55768-.11008.05185-.09077.36362-.0389.55957a3.04609,3.04609,0,0,1-1.02519,3.10555,5.97092,5.97092,0,0,1-1.94292,1.23208c-.52671.16165-2.74394,1.29462-3.23522,2.24229-.21813.41982-.46909.63248-.74485.63248a.7326.7326,0,0,1-.54428-.31927.13154.13154,0,0,1-.02018-.04439,13.82694,13.82694,0,0,0-1.683-3.19977,15.62893,15.62893,0,0,1-1.31478-2.32931,2.08713,2.08713,0,0,1,.90188-2.58719c.04956-.03746.08816-.06627.10833-.08558a1.743,1.743,0,0,1,.36162-.22159c.05416-.02852.12708-.06683.19679-.10573-.11727.0026-.26739.01382-.44833.03313-1.60522.168-2.26507,2.15271-2.2714,2.1717a.1565.1565,0,0,1-.21352.09479,9.17735,9.17735,0,0,0-3.78124-.93008,5.02746,5.02746,0,0,0-3.17182,1.03208l-.01527.01355a2.01568,2.01568,0,0,0-.65292,1.04161.20651.20651,0,0,0,.0363.15589.24947.24947,0,0,0,.19593.08385.8.8,0,0,0,.37746-.13313,6.19116,6.19116,0,0,1,3.6562-1.39254c2.99144,0,4.63758,2.92345,4.70587,3.04821a.15694.15694,0,0,1-.0242.18326.15487.15487,0,0,1-.18211.032,1.65811,1.65811,0,0,0-.73533-.14379,3.29834,3.29834,0,0,0-2.03021.65179c-.0268.089-.01067.11812-.01067.11812a.08963.08963,0,0,0,.05158.01009,4.41372,4.41372,0,0,1,.91311-.09884,2.88362,2.88362,0,0,1,1.99247.67856c1.56317,1.445,1.20442,4.14143,1.18829,4.255a.15614.15614,0,0,1-.30571.01787c-.39937-1.52543-2.44831-2.3495-3.19662-2.3495a.3254.3254,0,0,0-.14233.02047c-.03257.01643-.057.032-.07664.04379a4.096,4.096,0,0,1,2.54425,2.21493c.455.89466-.15617,2.58114-.18239,2.65174a7.25318,7.25318,0,0,1-2.08209,2.95081,7.58735,7.58735,0,0,1-4.97989,1.47728c-.1772,0-.35931-.00461-.54459-.01066M67.65488,76.90829a.39606.39606,0,0,1-.09623-.18557,1.28782,1.28782,0,0,1,.00317-.43682,3.46754,3.46754,0,0,1,.43248-1.154.65078.65078,0,0,1,.03891-.07288c.18729-.32732.7581-1.32574,1.54385-1.44878.06973-.0115.13311-.02448.198-.036.0242-.004.0507-.00862.07433-.01323a2.85892,2.85892,0,0,1,.52989-.06947c.02131,0,.04148.00232.06252.00377.5054.0242.90448.361,1.44386,1.21421.61229.96554.79468,1.666.55784,2.13884a1.25755,1.25755,0,0,1-1.12374.58c-.26048.02044-.557.03053-.85635.03053-.58261,0-2.36071-.04263-2.80849-.55063m65.65035.5201a1.25987,1.25987,0,0,1-1.12461-.58c-.236-.47283-.05359-1.1733.559-2.13884.50107-.79238.88056-1.13929,1.33811-1.20472a1.22665,1.22665,0,0,1,.1674-.01326,2.58313,2.58313,0,0,1,.46823.05737c.021.00461.0415.00806.06168.0121.08613.01611.1769.0337.27285.04924.78575.123,1.33611,1.08545,1.54328,1.44878.02391.04063.04034.0706.04955.08386a3.375,3.375,0,0,1,.44057,1.31734,1.06855,1.06855,0,0,1-.01441.2625.44829.44829,0,0,1-.16424.25011,5.9043,5.9043,0,0,1-2.74106.48609c-.29966,0-.59645-.01009-.85634-.03053m-36.91833.2694c-.23425-.10056-.55552-.21927-.92665-.35673a12.49277,12.49277,0,0,1-4.02587-2.05327c-.23714-.22792-.44258-.42011-.62613-.59154a6.73674,6.73674,0,0,1-1.67206-2.04838c-.23253-.43193-.40974-.77652-.5515-1.05a5.235,5.235,0,0,0-.48724-.85344.155.155,0,0,1,.05964-.24867,1.56033,1.56033,0,0,1,.52643-.08154,2.07371,2.07371,0,0,1,.63852.10257A11.86471,11.86471,0,0,1,94.14836,73.312a20.10719,20.10719,0,0,1,2.91279,3.56312c.02909.07.0585.13714.087.202.1357.3083.23426.53045.12937.69066a.27627.27627,0,0,1-.25126.11988,1.8119,1.8119,0,0,1-.63938-.1899m10.9605.07c-.10488-.16021-.00663-.38236.12881-.69009.02852-.06511.05819-.13253.087-.20256a20.165,20.165,0,0,1,2.90846-3.55939,11.89059,11.89059,0,0,1,4.83554-2.80069,2.07776,2.07776,0,0,1,.63391-.10085,1.56224,1.56224,0,0,1,.52642.08154.15593.15593,0,0,1,.05993.24867,5.32413,5.32413,0,0,0-.4884.854c-.1406.27372-.31838.61746-.55033,1.04939a6.72855,6.72855,0,0,1-1.67236,2.04782c-.18326.172-.38928.36418-.62468.5921a12.509,12.509,0,0,1-4.02674,2.05327c-.37112.13746-.69269.25617-.92722.35673a1.80773,1.80773,0,0,1-.6391.1899.27627.27627,0,0,1-.25126-.11988m-8.10678-1.08829c-.03716-.05993-.06915-.11125-.09306-.149a5.25325,5.25325,0,0,0-.35988-.4391,5.0012,5.0012,0,0,1-.7581-1.02407,7.83054,7.83054,0,0,0-1.464-1.99794c-.73014-.735-1.83372-2.13367-1.8804-2.19217a.26054.26054,0,0,1-.01786-.0288c-.45094-.92291.08932-1.21654.113-1.22892a.70627.70627,0,0,1,.30744-.0651c.84309,0,2.36072,1.22975,3.33952,2.41833a13.23248,13.23248,0,0,1,2.04636,4.04892c.23657.72611.34462,1.579-.0608,1.79453a.25693.25693,0,0,1-.12188.03c-.27315,0-.58-.41029-1.05027-1.16666m4.971,1.13669c-.40484-.21638-.29649-1.06842-.05993-1.79453a13.23912,13.23912,0,0,1,2.04635-4.04892c.97852-1.18858,2.495-2.41833,3.33924-2.41833a.7008.7008,0,0,1,.30168.0625c.0291.015.56908.30861.119,1.23152a.25855.25855,0,0,1-.01757.0288c-.04726.0585-1.15055,1.45712-1.88155,2.19217a7.84172,7.84172,0,0,0-1.46375,1.9971,4.98241,4.98241,0,0,1-.75809,1.02491,5.18038,5.18038,0,0,0-.35959.4391c-.02536.03862-.05647.0899-.09337.14956-.47081.7558-.7771,1.16609-1.05,1.16609a.25933.25933,0,0,1-.12246-.03m-25.55328.83216-.07462-.04178c-1.6-.9036-4.92832-2.78054-5.79908-5.668a5.80235,5.80235,0,0,1-.268-1.58188,3.63363,3.63363,0,0,1,.04409-.65984A2.47211,2.47211,0,0,1,73.58622,68.981c.01671-.013.03342-.02852.05878-.05272a7.47967,7.47967,0,0,1,2.37051-1.65363,4.84355,4.84355,0,0,1,.98256-.24351,8.77833,8.77833,0,0,1,.90274-.09247c.17115-.00865.34489-.01442.52095-.01442a3.7082,3.7082,0,0,1,1.57785.251,12.3939,12.3939,0,0,0,3.88784,1.35255,5.41351,5.41351,0,0,1,3.65792,2.5261,11.163,11.163,0,0,1,1.13786,2.76845.8685.8685,0,0,1-.09566.737.9838.9838,0,0,1-.76039.33365c-.15444.01126-.29246.0121-.38323.0121l-.28267-.002c-.10258,0-.29533,0-.34605.05272a.2224.2224,0,0,0-.03055.1383c.00231.11959.7241.35356,2.38378.35356.09336,0,.17519-.00116.24174-.00232l.05331-.00116a1.58318,1.58318,0,0,1,1.02895.3135c.64427.66762,3.39629,2.03083,5.75873,3.086a5.709,5.709,0,0,1,1.90114,1.551c.17662.18846.36969.39475.58838.62038,1.08024,1.111,1.45567,3.551,1.6444,5.28818.0536.49851.132.97707.20083,1.39863.14926.92146.24838,1.52915.04207,1.79914a.35317.35317,0,0,1-.2504.14006q-.02852.00258-.05791.00256c-.56388,0-1.32715-.81714-3.33376-3.27757-1.34042-1.64354-3.98669-2.53127-5.738-3.11968a11.264,11.264,0,0,1-1.67207-.64167,5.81026,5.81026,0,0,1-2.50564-2.20859,16.695,16.695,0,0,0-1.67323-2.41c-.17778-.22793-.33164-.42585-.43653-.56879-.436-.59239-1.24706-1.41445-1.63634-1.41445a.13026.13026,0,0,0-.1118.05012c-.30829.37227.0369,1.34013.72467,2.03223.15561.15649.342.31554.52153.46883.49359.42211.96037.8203.9693,1.26521a.72165.72165,0,0,1-.261.5486,1.04469,1.04469,0,0,1-.72035.2,17.08646,17.08646,0,0,1-5.78813-1.91958M116.79776,74.893a.98238.98238,0,0,1-.76039-.33365.87.87,0,0,1-.09537-.73793,11.14257,11.14257,0,0,1,1.13757-2.76757,5.41349,5.41349,0,0,1,3.65676-2.5261,12.37708,12.37708,0,0,0,3.88843-1.35255,3.71414,3.71414,0,0,1,1.57871-.251c.13341,0,.266.00317.39649.00837.30715.01239.60394.03774.88256.07665a5.1738,5.1738,0,0,1,1.12662.26538,7.49825,7.49825,0,0,1,2.37225,1.65447c.02392.02336.04034.0389.04725.04467a2.51234,2.51234,0,0,1,1.05314,1.84582,3.99529,3.99529,0,0,1,.02478.64543,5.98518,5.98518,0,0,1-.26652,1.47354c-.87047,2.88744-4.199,4.76438-5.79849,5.668l-.07522.04178A17.09963,17.09963,0,0,1,120.1785,80.568a1.04189,1.04189,0,0,1-.72007-.2.72089.72089,0,0,1-.26191-.5486c.00951-.44491.47571-.8431.9693-1.26521.1798-.15329.36622-.31234.52181-.46883.68837-.6921,1.03385-1.66.72525-2.03223a.13235.13235,0,0,0-.11237-.05012c-.38928,0-1.20039.82206-1.63633,1.41445-.106.14294-.25847.34086-.436.56879a16.79437,16.79437,0,0,0-1.67381,2.41,5.81116,5.81116,0,0,1-2.50536,2.20859,11.128,11.128,0,0,1-1.67178.64167c-1.75159.58841-4.39758,1.47614-5.73915,3.11968-2.006,2.46043-2.76929,3.27757-3.33375,3.27757-.019,0-.038-.00084-.05649-.00256a.35442.35442,0,0,1-.25154-.14006c-.20573-.27-.10747-.87768.04293-1.79914.06887-.42156.14581-.90012.20026-1.39863.189-1.73717.56446-4.17713,1.64355-5.28818.21955-.22563.412-.43136.58838-.62038a5.73348,5.73348,0,0,1,1.902-1.551c2.36216-1.05516,5.11417-2.41809,5.75125-3.0785a1.57316,1.57316,0,0,1,1.03673-.321l.0533.00116c.06627.00116.1481.00232.24175.00232,1.65968,0,2.38175-.234,2.38377-.35412a.21777.21777,0,0,0-.03-.13774c-.05244-.05272-.24377-.05272-.34663-.05272l-.28267.002c-.09076,0-.22935-.00084-.38323-.0121M89.51711,68.39093a19.21452,19.21452,0,0,1-3.63256-1.15c-.648-.27748-1.27761-.497-1.8853-.70825a6.53162,6.53162,0,0,1-2.784-1.41734,1.19987,1.19987,0,0,1-.1265-.187.8474.8474,0,0,1-.10717-.45208.82972.82972,0,0,1,.03543-.20717c.20573-.67251,1.18828-1.15688,1.63028-1.28685.0487-.0141.10489-.03137.16684-.05128a6.80426,6.80426,0,0,1,1.97288-.36418h.02248a3.6757,3.6757,0,0,1,.87479.1014,3.03148,3.03148,0,0,1,.627.225A5.1023,5.1023,0,0,1,89.0702,65.519c.08327.17809.172.359.25991.53967.533,1.10071.84885,1.79253.62726,2.14549a.42744.42744,0,0,1-.39214.1899h-.02478l-.02334-.00317M114.667,68.2042c-.22071-.353.09451-1.04478.62842-2.14549.08732-.17977.17434-.36158.25847-.53967a5.10877,5.10877,0,0,1,2.75979-2.62637,3.0512,3.0512,0,0,1,.5535-.20661,3.71084,3.71084,0,0,1,.85923-.11815c.03027,0,.05907-.00112.08876-.00112a6.74287,6.74287,0,0,1,1.9942.36418c.0634.01991.11929.03718.168.05128.44345.13,1.42485.61518,1.63088,1.28685a.84318.84318,0,0,1,.03457.272.88846.88846,0,0,1-.13658.43682,1.28084,1.28084,0,0,1-.09653.13745,6.53493,6.53493,0,0,1-2.784,1.41734c-.608.21121-1.237.43077-1.8853.70825a19.20654,19.20654,0,0,1-3.63284,1.15l-.02306.00317h-.02506a.428.428,0,0,1-.39244-.1899M94.52985,68.108,94.38,68.01806c-.10605-.06366-.23542-.13541-.383-.21554a8.42794,8.42794,0,0,1-4.15409-4.365,3.06746,3.06746,0,0,1-.16078-2.21376,2.42638,2.42638,0,0,1,.09912-.23858,2.52736,2.52736,0,0,1,.18239-.31005,3.59887,3.59887,0,0,1,1.24765-1.08457q.34879-.08985.70017-.174.60507-.14562,1.21421-.27256a44.58261,44.58261,0,0,1,18.60913.074c.37027.081.73764.166,1.105.25617.21985.0536.43654.11005.65465.1671a3.53726,3.53726,0,0,1,1.19261,1.07507,2.32712,2.32712,0,0,1,.16655.29014,2.23493,2.23493,0,0,1,.10342.25818,3.08568,3.08568,0,0,1-.17518,2.17285,8.42816,8.42816,0,0,1-4.15439,4.365c-.14665.08013-.276.15188-.38263.21554l-.149.08991c-.77249.46678-1.12892.68-1.598.64081a.32856.32856,0,0,1-.25384-.15156c-.166-.25184-.09335-.82178.2282-1.79365a1.27316,1.27316,0,0,0,.08616-.77339c-.00721-.0115-.01152-.01382-.02161-.01467a5.15559,5.15559,0,0,0-1.10991,1.874,19.88156,19.88156,0,0,1-1.65852,2.75807c-.33944.5149-.65985,1.00043-.85117,1.31938-.01094.01758-1.08571,1.787-1.35887,1.7882a.043.043,0,0,0-.02448-.00461.05276.05276,0,0,1-.01528-.00088c-.29216-.07287-.35815-.67019-.22993-4.48285.02334-.69555.0438-1.29634.0438-1.68244a8.31377,8.31377,0,0,1,1.2632-3.45534c.17318-.31842.32186-.59358.42212-.81457.11209-.24752.26394-.5155.42559-.79843.36909-.65236.82926-1.46433.49732-1.66978-.3596-.22331-1.03672.70508-1.34416,1.26149-1.37731,2.32987-2.07893,2.50911-2.2835,2.49353-.204.01642-.90678-.16451-2.28235-2.48893-.31-.561-.986-1.48824-1.34646-1.26609-.332.20545.12878,1.01742.49731,1.66862.16137.28409.31322.55207.4253.79959.09941.221.249.49615.42213.81457a8.31447,8.31447,0,0,1,1.26349,3.45534c0,.3861.02045.98689.04351,1.6816.1285,3.8135.06252,4.41082-.22965,4.48369a.172.172,0,0,1-.04006.00549c-.27316,0-1.34763-1.77062-1.35856-1.7882-.19191-.319-.51174-.80448-.85088-1.3185a20.04016,20.04016,0,0,1-1.6591-2.75895,4.96019,4.96019,0,0,0-1.12461-1.87374l-.00663.01438a1.26378,1.26378,0,0,0,.08616.77339c.321.97187.39447,1.54181.22792,1.79365a.3276.3276,0,0,1-.25356.15156c-.0366.00317-.07234.00461-.10749.00461a3.0711,3.0711,0,0,1-1.48967-.64542M69.98737,69.95783a45.6342,45.6342,0,1,0,32.26805-13.36531,45.33612,45.33612,0,0,0-32.268,13.36531m-.504,65.03977a46.34829,46.34829,0,1,1,32.772,13.57392,46.04336,46.04336,0,0,1-32.772-13.57392M69.167,69.13692A46.79521,46.79521,0,1,0,102.25542,55.4316,46.4865,46.4865,0,0,0,69.167,69.13692M53.43093,102.225a48.82449,48.82449,0,1,1,48.82421,48.82477A48.87965,48.87965,0,0,1,53.43093,102.225m-.76558,0a49.59022,49.59022,0,1,0,49.58979-49.59007A49.64606,49.64606,0,0,0,52.66535,102.225m39.864-56.389c-.65147.59847-1.31909,1.24794-2.01062,1.991-6.49293,6.97871-16.39911,6.43156-19.99768,8.35514-1.88674,1.00848-6.01547,5.51469-3.95471,7.43916,2.46561,2.30222,4.73874-5.74979,17.07451-9.89006,12.28134-4.1218,18.67225-4.05209,18.67225-4.05209s6.25347-.20889,18.67165,4.05209c12.30727,4.22352,14.60893,12.19228,17.07423,9.89006,2.06134-1.92447-2.068-6.43068-3.95441-7.43916-3.59857-1.92358-13.6474-1.24706-19.998-8.35514-.6411-.71746-1.26638-1.36317-1.87348-1.94581a57.36033,57.36033,0,0,1,46.39116,46.50327c-.6653-.74314-1.41273-1.51272-2.26909-2.30887-6.97843-6.49289-6.43154-16.3991-8.35516-19.99738-1.00877-1.88732-5.51468-6.01605-7.43916-3.95529-2.30222,2.46588,5.74981,4.739,9.89008,17.07452,4.12182,12.28131,4.05237,18.67167,4.05237,18.67167s.20861,6.25432-4.05237,18.672c-4.22326,12.30782-12.1923,14.60948-9.89008,17.07477,1.92448,2.06108,6.43039-2.06825,7.43916-3.95441,1.92362-3.59857,1.24707-13.6474,8.35516-19.998.91341-.816,1.70895-1.60579,2.40682-2.3662A57.3664,57.3664,0,0,1,111.1151,158.769a34.19438,34.19438,0,0,0,2.99146-2.8569c6.49319-6.97842,16.39911-6.43183,19.99768-8.35545,1.88672-1.00849,6.01575-5.51466,3.95469-7.43888-2.46588-2.30191-4.73872,5.74983-17.07423,9.89009-12.28132,4.12209-18.67165,4.05237-18.67165,4.05237s-6.25405.20862-18.67225-4.05237c-12.30754-4.22324-14.60919-12.192-17.07451-9.89009-2.06134,1.92422,2.068,6.43039,3.95441,7.43888,3.59857,1.92362,13.6474,1.24738,19.998,8.35545a33.13452,33.13452,0,0,0,2.867,2.85515,57.36844,57.36844,0,0,1-47.68836-47.75836,34.90636,34.90636,0,0,0,2.57279,2.65462c6.97872,6.4929,6.43153,16.3991,8.35515,19.99766,1.00877,1.88645,5.51468,6.01549,7.43916,3.9547,2.30194-2.4656-5.74981-4.7393-9.89006-17.07477-4.12212-12.28106-4.05238-18.672-4.05238-18.672s-.20862-6.25318,4.05238-18.67167C58.39757,70.89,66.36633,68.58857,64.06439,66.123c-1.92448-2.061-6.43039,2.068-7.43916,3.955-1.92362,3.59825-1.24706,13.6468-8.35515,19.99766-.90648.81025-1.69684,1.594-2.39069,2.34862A57.35857,57.35857,0,0,1,92.5293,45.836m9.72584-5.25044s-3.43346.0115-8.44189,4.12873A58.25426,58.25426,0,0,0,44.7519,93.72549c-3.96045,4.87732-3.72331,8.20157-3.72331,8.20157s.0095,2.70939,2.89291,6.82254c-.14379,4.11951-.18816,7.368-.18816,7.368-.18153,2.31721-4.72461-3.83022-6.17567-5.727a.12811.12811,0,0,0-.22734.10345,26.30749,26.30749,0,0,0,10.84928,16.24581c.72582.49158-4.32295.82091-5.34873.1095a.1511.1511,0,0,0-.2184.19707c.8307,1.42254,4.06362,4.55809,5.81867,5.07816,2.00487.59415,6.66551,4.45637,5.03147,4.90184-1.38709.378-5.07181-1.45051-5.91173-2.05619a.09868.09868,0,0,0-.14667.12131c1.18713,2.71312,13.92257,7.4628,11.70332,8.32232-1.983.7673-5.84834-.9552-6.62113-1.61357a.05383.05383,0,0,0-.08067.06827,14.791,14.791,0,0,0,3.12313,4.14488c2.19589,2.00487,8.05317,1.55912,8.94439,3.005.72842,1.1814-1.81643,1.15256-2.77161,1.103a.12886.12886,0,0,0-.08586.23052c1.45682,1.05428,6.77645,1.35828,8.675,1.826,2.074.51057,4.13536,2.822,10.2439,4.9018,5.00122,1.70259,7.2049,7.18876,7.83909,9.12187a.27377.27377,0,0,0,.51981-.00488c.76125-2.2086-.7022-6.40388-1.18771-7.68552a57.782,57.782,0,0,0,7.01616,1.35628,15.39143,15.39143,0,0,0,6.51078,3.18479c-.66415,1.326-1.64325,2.64281-2.91538,2.64281,0,0,3.46141,1.54846,3.93771,5.09025v.81426c0-.1651.01641-.31983.02881-.47744.01152.14868.02708.29447.0288.44892l-.00431-.76326c.46476-3.55822,3.942-5.11273,3.942-5.11273-1.27876,0-2.27658-1.33064-2.95486-2.663a16.68754,16.68754,0,0,0,6.435-3.16143,58.02156,58.02156,0,0,0,6.74993-1.28224c-.51347,1.37038-1.9043,5.445-1.15832,7.60831a.27377.27377,0,0,0,.51981.00488c.63419-1.93311,2.83758-7.41928,7.83909-9.12187,6.10854-2.07979,8.16958-4.39123,10.2439-4.9018,1.89854-.46767,7.21787-.77167,8.67441-1.826a.12886.12886,0,0,0-.08586-.23052c-.9546.04956-3.50031.0784-2.77161-1.103.8915-1.44586,6.74878-1.00011,8.945-3.005a14.79728,14.79728,0,0,0,3.12255-4.14488.05382.05382,0,0,0-.08067-.06827c-.77221.65837-4.63788,2.38087-6.62085,1.61357-2.21923-.85952,10.51619-5.6092,11.703-8.32232a.09863.09863,0,0,0-.14667-.12131c-.83992.60568-4.52434,2.43419-5.91173,2.05619-1.63374-.44547,3.0266-4.30769,5.03177-4.90184,1.75505-.52007,4.98767-3.65562,5.81866-5.07816a.15121.15121,0,0,0-.21869-.19707c-1.02608.71141-6.07425.38208-5.34873-.1095a26.30127,26.30127,0,0,0,10.849-16.24581.12774.12774,0,0,0-.22676-.10345c-1.45107,1.89682-5.99444,8.04425-6.17539,5.727,0,0-.03948-2.886-.16482-6.66725,3.49743-4.56815,3.279-7.63855,3.279-7.63855s-.00144-3.27209-3.838-8.09092a58.26176,58.26176,0,0,0-48.77205-48.96944c-4.63327-3.96419-7.98057-4.16847-8.62053-4.16847-.07318,0-.11092.0026-.11092.0026" style="fill: #fff"/>
    </g>
  </g>
</svg>
