<svg xmlns="http://www.w3.org/2000/svg" viewBox="0 0 204.40449 204.40449">
  <title>iron-banner_1</title>
  <g class="Layer_2" data-name="Layer 2">
    <g class="iron-banner-2">
      <g class='circles' style="opacity: 0.5">
        <circle cx="118.72698" cy="72.42752" r="49.38895" style="fill: none;stroke: #fff;stroke-miterlimit: 10"/>
        <circle cx="68.70225" cy="102.20225" r="49.38895" style="fill: none;stroke: #fff;stroke-miterlimit: 10"/>
        <circle cx="118.72698" cy="131.97698" r="49.38895" style="fill: none;stroke: #fff;stroke-miterlimit: 10"/>
      </g>
      <g>
        <g class="dots dots6" style="opacity: 0.1">
          <circle cx="102.25304" cy="102.11231" r="79.26315" style="fill: none;stroke: #fff;stroke-linecap: round;stroke-miterlimit: 10;stroke-dasharray: 0,3.000270366668701"/>
        </g>
        <g class="dots dots5" style="opacity: 0.2">
          <circle cx="102.25304" cy="102.11232" r="74.00856" transform="translate(-42.25509 102.21182) rotate(-45)" style="fill: none;stroke: #fff;stroke-linecap: round;stroke-miterlimit: 10;stroke-dasharray: 0,3.0001800060272217"/>
        </g>
        <g class="dots dots4" style="opacity: 0.3">
          <circle cx="102.25304" cy="102.11232" r="69.80029" style="fill: none;stroke: #fff;stroke-linecap: round;stroke-miterlimit: 10;stroke-dasharray: 0,3.0040109157562256"/>
        </g>
        <g class="dots dots3" style="opacity: 0.4">
          <circle cx="102.25304" cy="102.11232" r="66.37871" style="fill: none;stroke: #fff;stroke-linecap: round;stroke-miterlimit: 10;stroke-dasharray: 0,3.0003037452697754"/>
        </g>
        <g class="dots dots2" style="opacity: 0.5">
          <circle cx="102.25304" cy="102.11231" r="63.74985" style="fill: none;stroke: #fff;stroke-linecap: round;stroke-miterlimit: 10;stroke-dasharray: 0,2.9888880252838135"/>
        </g>
        <g class="dots dots1" style="opacity: 0.6">
          <circle cx="102.25304" cy="102.11232" r="61.83735" style="fill: none;stroke: #fff;stroke-linecap: round;stroke-miterlimit: 10;stroke-dasharray: 0,3.0114803314208984"/>
        </g>
      </g>
      <circle cx="102.20227" cy="102.20224" r="58.04511" style="fill: #68784a"/>
      <path d="M147.16234,97.343a3.62915,3.62915,0,0,0-3.325-2.38864,4.03658,4.03658,0,0,0-2.427.87207,5.98585,5.98585,0,0,0-1.71789,2.471c-.33849.75345.17888,1.2219.67915,1.67495.10426.09443.20621.1868.29771.27928a2.25555,2.25555,0,0,0,1.61815.667,2.10511,2.10511,0,0,0,1.67639-.73928.9318.9318,0,0,0,.15446-.86029c-.06286-.196-.17176-.22248-.27-.22248a1.80715,1.80715,0,0,0-.60582.18829,2.35207,2.35207,0,0,1-.55351.18835,2.03806,2.03806,0,0,1-.27655.01962.95773.95773,0,0,1-1.02844-.66174,1.46237,1.46237,0,0,1,.3457-1.60641,2.90942,2.90942,0,0,1,1.89439-.96095,2.19293,2.19293,0,0,1,1.32734.52663,2.96075,2.96075,0,0,1,.78418,3.981,4.85887,4.85887,0,0,1-3.68081,2.50706,8.86307,8.86307,0,0,1-1.02989.06009,10.51617,10.51617,0,0,1-4.21362-.94385c-.522-.22841-.81163-.49929-.88551-.8281a1.49359,1.49359,0,0,1,.51221-1.23626,1.52871,1.52871,0,0,1,.15622-.14891,1.25,1.25,0,0,0,.14113-.13485c.105-.12429.22624-.24287.34349-.35754.415-.40584.80694-.78922.55423-1.44237a3.21973,3.21973,0,0,0-2.15323-1.94639.93727.93727,0,0,0-.28263-.04629.52427.52427,0,0,0-.49687.2887.58224.58224,0,0,0-.06554.47911.66358.66358,0,0,0,.43189.33169,2.28662,2.28662,0,0,1,.72517.43071.93046.93046,0,0,1,.3058,1.03524,1.12616,1.12616,0,0,1-.97794.8004,3.70114,3.70114,0,0,1-.57.04366,5.078,5.078,0,0,1-4.17217-2.4757,6.80761,6.80761,0,0,1-.87588-4.1851,3.93732,3.93732,0,0,1,2.306-3.30283,2.34028,2.34028,0,0,1,1.11037-.28669,4.7155,4.7155,0,0,1,2.38591.9613l.03558.0223a1.66283,1.66283,0,0,1,.66493,2.07867,2.30489,2.30489,0,0,1-1.96627,1.4832,1.09248,1.09248,0,0,1-.21873-.02127.86248.86248,0,0,1-.68614-.442.79.79,0,0,1,.17614-.74057c.39389-.56278.53492-.95873.09-1.317a.248.248,0,0,0-.159-.04619,2.12934,2.12934,0,0,0-1.51018,1.285,2.02944,2.02944,0,0,0,.50342,1.663,2.41088,2.41088,0,0,0,1.76484.974,1.42724,1.42724,0,0,0,.24056-.02018,3.92468,3.92468,0,0,0,3.18842-3.19157,3.99623,3.99623,0,0,0-2.77486-3.75583,6.09734,6.09734,0,0,0-1.80856-.304,3.8,3.8,0,0,0-3.0926,1.5454,3.62642,3.62642,0,0,1-.47.45593c-.04732.04063-.09459.08125-.141.12234a.66351.66351,0,0,1-.42144.1951.38047.38047,0,0,1-.262-.10432.9459.9459,0,0,1-.29992-.59347,5.90054,5.90054,0,0,1,.26017-1.381c.60737-1.5385,5.00811-9.78883,8.82325-11.71268a6.81739,6.81739,0,0,1,3.0337-.77007,5.348,5.348,0,0,1,.76019.05376,3.31959,3.31959,0,0,1,2.61941,1.63514,3.72748,3.72748,0,0,1-.15509,3.40982,5.84863,5.84863,0,0,1-3.83054,3.05888,4.32668,4.32668,0,0,1-1.11268.16744,1.53775,1.53775,0,0,1-1.54164-.88083,2.62961,2.62961,0,0,1,1.26169-3.22137.83307.83307,0,0,1,.38854-.09742,1.40454,1.40454,0,0,1,.37551.06436,1.15439,1.15439,0,0,0,.29519.05376.49159.49159,0,0,0,.26522-.07806.5864.5864,0,0,0,.30579-.564.99157.99157,0,0,0-.59362-.788,1.9893,1.9893,0,0,0-.79329-.17944,1.20625,1.20625,0,0,0-.854.31949,25.86987,25.86987,0,0,0-2.36866,2.5343,1.70088,1.70088,0,0,0,.02518,2.00957c.5291,1.01527,1.63648,2.111,2.503,2.111.02981,0,.05921-.00129.08841-.00407.16713-.01565.323-.02363.4633-.02363a1.26808,1.26808,0,0,1,1.13117.4096c.28164.42288.09216,1.09667-.30477,2.04669-.75,1.795.09351,3.19465,1.02175,4.47437a2.362,2.362,0,0,0,2.00247.96074,4.46173,4.46173,0,0,0,1.8393-.446,3.55142,3.55142,0,0,0,1.97317-3.21556A2.516,2.516,0,0,0,144.51,87.67039a.58394.58394,0,0,0-.28417-.081.4429.4429,0,0,0-.34163.16188.51283.51283,0,0,0-.03635.6412,1.25483,1.25483,0,0,0,.13068.17032c.04068.04742.0813.09505.11693.14592.86445,1.2341.88109,1.72082.08089,2.36727a2.31215,2.31215,0,0,1-1.45586.54342,2.11947,2.11947,0,0,1-1.49-.63079,2.5599,2.5599,0,0,1-.60592-2.94277c.179-.29843.34642-.61293.50825-.917a8.58341,8.58341,0,0,1,1.48062-2.19422,19.21645,19.21645,0,0,0,1.74508-2.0745l.09036-.11827a6.01353,6.01353,0,0,0,1.293-4.14216,4.61594,4.61594,0,0,0-3.63833-4.40918,6.73858,6.73858,0,0,0-1.61687-.20153,8.62919,8.62919,0,0,0-4.875,1.76305,17.84933,17.84933,0,0,0-2.94024,2.52652c-.41856.44049-.71107.62014-1.0095.62014-.35636,0-.694-.25894-1.15676-.70623a2.69843,2.69843,0,0,0-1.8945-.83567,2.04192,2.04192,0,0,0-1.46893.589c-.02472.0261-.05247.06333-.04459.09253.03383.12594.45079.24941.62884.30213l.07749.02317c1.54926.47185,1.65481.69053,1.76659,2.18923a9.37017,9.37017,0,0,1-1.41158,4.93308c-.26769.52251-.52029,1.06459-.76461,1.5888-.37371.8019-.76014,1.63108-1.211,2.41361a5.94838,5.94838,0,0,1-2.641,2.58893,4.24414,4.24414,0,0,1-1.80918.42984A3.49572,3.49572,0,0,1,118.74,90.78441a1.4174,1.4174,0,0,1-.01643-1.84532c.115-.10993.22738-.23109.34132-.35389a2.351,2.351,0,0,1,1.67083-.99534,1.72749,1.72749,0,0,1,.27655.023.78946.78946,0,0,1,.65134.4825,1.36147,1.36147,0,0,1-.34982,1.27817,1.49423,1.49423,0,0,1-.31733.26543c-.16368.11364-.31836.221-.33185.35074a.472.472,0,0,0,.17157.33123.65108.65108,0,0,0,.49321.20426,1.47311,1.47311,0,0,0,.73316-.23814,9.82043,9.82043,0,0,0,1.44216-1.11875.74485.74485,0,0,0,.166-.8451,5.183,5.183,0,0,0-3.13832-2.16l-.05653-.00052a3.28845,3.28845,0,0,0-2.72106,1.48119,3.52589,3.52589,0,0,0-.27562,3.35108,1.82585,1.82585,0,0,0,.19417.32922c.0417.06091.08341.12193.1212.18464.623,1.03308.90482,1.50045.758,1.85717-.14644.35579-.67173.48848-1.82262.77913l-.16317.04119A11.79617,11.79617,0,0,0,110.432,97.9736a23.09848,23.09848,0,0,0-4.52179,7.20994c-.0242.06575-.04577.13814-.06791.21229-.10272.34389-.23052.77187-.69449.77187a.95214.95214,0,0,1-.25976-.04011,1.09343,1.09343,0,0,1-.71395-1.46132,8.2577,8.2577,0,0,1,1.16026-2.66014c.26115-.374.5136-.76513.75771-1.14337.37968-.58816.77224-1.1964,1.20892-1.75841a11.78638,11.78638,0,0,0,2.01179-5.23553,6.1221,6.1221,0,0,1,1.74229-3.166l.07461-.07857.07332.07975c.2.21765.39121.45589.57606.6863.61844.7708,1.20253,1.49881,2.09144,1.49881a2.19151,2.19151,0,0,0,.90606-.2194,1.82559,1.82559,0,0,0,1.07988-.94606,1.23753,1.23753,0,0,0-.11791-.95956c-.03161-.00211-.06323-.0054-.09422-.00875a1.15778,1.15778,0,0,0-.11858-.00891.13744.13744,0,0,0-.0708.01241,2.82915,2.82915,0,0,0-.40192.336,1.42457,1.42457,0,0,1-.93314.51922,1.026,1.026,0,0,1-.51994-.15648,2.40772,2.40772,0,0,1-.95487-1.83734,5.26141,5.26141,0,0,1,1.42357-4.25276c1.73329-2.16481,3.74713-4.30671,6.72074-5.3125a4.53351,4.53351,0,0,1,1.46976-.25663,4.58925,4.58925,0,0,1,2.33468.6862c1.087.62189,1.579,1.3638,1.462,2.20508a3.32485,3.32485,0,0,1-1.6525,2.04464l-.20271.14731a.64713.64713,0,0,1-.38787.134.7054.7054,0,0,1-.49651-.22413,1.15341,1.15341,0,0,1-.31146-.82305A1.6428,1.6428,0,0,1,123.356,82.956l.04515-.058c.104-.13212.278-.35332.245-.50352a.24086.24086,0,0,0-.144-.15241.74592.74592,0,0,0-.34138-.08562c-.59047-.00005-1.149.75087-1.34788,1.47692-.20307.7418.49419,1.79893,1.52259,2.30831a2.2866,2.2866,0,0,0,1.00836.27578,1.74641,1.74641,0,0,0,1.15341-.47839,4.65735,4.65735,0,0,0,1.47836-4.95239,3.04485,3.04485,0,0,0-2.79432-2.25322l-.38323-.04238a16.99839,16.99839,0,0,0-1.868-.14015,4.46772,4.46772,0,0,0-3.013.97515,2.61611,2.61611,0,0,1-.4946.2677c-.04356.01972-.07636.03419-.08913.0416-.15854.10612-.31723.21656-.4737.33015q-.11979.08688-.23819.176l-.11091.08408-.03342.02554c-.31835.24936-.62528.49878-.93087.75035-.42005.416-.82316.869-1.213,1.30706a19.49378,19.49378,0,0,1-1.81469,1.86473,13.52652,13.52652,0,0,0-2.18675,2.61427,19.84,19.84,0,0,1-1.39454,1.833,10.50493,10.50493,0,0,0-2.13376,3.8963c-.014.04742-.0449.18464-.09067.38658a22.97708,22.97708,0,0,1-1.51219,4.86867.722.722,0,0,1-.2836.27645,4.49865,4.49865,0,0,1-1.5591.88752l-.21147.08032.081-.21121a5.101,5.101,0,0,0,.08-.81734c.13037-2.07476.47679-7.58607,3.9052-16.885.15164-.41129.37392-.61982.66077-.61982a1.38626,1.38626,0,0,1,.89632.52266c1.12365,1.14523,1.68772,1.72005,2.20086,1.72005.52107,0,1.0597-.60283,2.13284-1.80392a10.7639,10.7639,0,0,0,.77774-.94725.45028.45028,0,0,0,.05237-.36995.74688.74688,0,0,0-.34055-.46237l-.08949-.04671a1.48968,1.48968,0,0,0-.61947-.23067c-.20379,0-.47174.117-.91362.98448l-.01911.03748c-.27557.54167-.49326.96949-1.13616.96949q-.03468,0-.071-.0017a1.17764,1.17764,0,0,1-1.21525-1.10727,2.97958,2.97958,0,0,1,.93978-2.85992,10.79313,10.79313,0,0,1,3.53654-1.66208,2.03194,2.03194,0,0,1,.62513-.10024,2.09249,2.09249,0,0,1,1.55044.7278.94022.94022,0,0,1,.1919,1.23507l-.04726.07579c-.16312.26311-.348.56134-.72235.56134a.9194.9194,0,0,1-.3-.05608,2.01946,2.01946,0,0,0-.64146-.13073.44993.44993,0,0,0-.45758.23711.95183.95183,0,0,0,.35358.91038c.29282.2644.44383.345.64644.345a2.29414,2.29414,0,0,0,.46938-.07352,2.64311,2.64311,0,0,0,.9888-.45074c.01612-.01143,1.69832-1.36936,1.77648-2.48359a.47574.47574,0,0,1,.54141-.43678,1.23076,1.23076,0,0,1,.43565.08645,11.275,11.275,0,0,0,4.11837.77692,14.49785,14.49785,0,0,0,6.29652-1.57449,9.13217,9.13217,0,0,0,5.28784-6.27875,11.22094,11.22094,0,0,0-.32309-5.38387,5.58071,5.58071,0,0,0-5.0962-3.8911q-.08736-.0054-.17574-.00535a5.5127,5.5127,0,0,0-4.535,3.4626,7.56882,7.56882,0,0,0-.3731,3.14357c.35049,1.21613.84185,2.55083,2.24406,2.99518a2.23515,2.23515,0,0,0,.68259.11261,3.10042,3.10042,0,0,0,1.8307-.82583c.112-.08295.2247-.16647.33973-.24772a2.1264,2.1264,0,0,0,.8247-2.44486.641.641,0,0,0-.60561-.564c-.14005,0-.3371.046-.441.4441a.61485.61485,0,0,0-.01225.06874.52879.52879,0,0,1-.03723.149c-.521,1.14059-1.12313,1.71891-1.78951,1.71891a1.34283,1.34283,0,0,1-.57467-.13819,1.98523,1.98523,0,0,1-.89246-1.22478,2.729,2.729,0,0,1,.08084-2.0692,4.36074,4.36074,0,0,1,3.278-2.37921,3.13224,3.13224,0,0,1,.4115-.0276,3.25356,3.25356,0,0,1,2.779,1.73009,5.3232,5.3232,0,0,1,.84478,3.38645,9.14514,9.14514,0,0,1-7.8364,7.74548,18.44084,18.44084,0,0,1-2.08017.106c-.82357,0-1.66007-.03954-2.469-.07785-.40986-.01936-.81966-.03872-1.22936-.05329a2.91942,2.91942,0,0,1-1.41889-.41145,4.504,4.504,0,0,0-2.31506-.76827,3.12383,3.12383,0,0,0-1.11958.21033,1.17786,1.17786,0,0,1-.41022.0778.79979.79979,0,0,1-.77146-.50274.96518.96518,0,0,1,.40414-1.21123,9.93576,9.93576,0,0,0,2.13881-2.19741c.16616-.21059.33226-.42108.50243-.62765a4.20073,4.20073,0,0,1,1.72855-1.16207,2.34728,2.34728,0,0,1,3.13044,1.35222,1.39687,1.39687,0,0,1-.51087,1.7547c-.06689.05015-.13316.10468-.19947.15925a1.39707,1.39707,0,0,1-.834.42469.9649.9649,0,0,1-.67981-.34385,1.816,1.816,0,0,0-.63342-.34451l-.05113-.01993a.4069.4069,0,0,0-.14736-.02832.28662.28662,0,0,0-.26728.14891.72516.72516,0,0,0-.06637.49291,1.91418,1.91418,0,0,0,1.8706,1.28831,2.13264,2.13264,0,0,0,.68533-.113,3.14166,3.14166,0,0,0,1.92415-1.71336,3.21981,3.21981,0,0,0-.075-2.63841,3.93951,3.93951,0,0,0-3.26741-2.58373,1.4496,1.4496,0,0,1-1.02474-.48251,1.57984,1.57984,0,0,1-.24622-1.20088l.012-.10123a35.666,35.666,0,0,1,.547-3.56748,6.12677,6.12677,0,0,0-1.25953-4.90147,2.82164,2.82164,0,0,0-2.39461-1.21963c-.34338-.00927-.687-.01127-1.03056-.01127l-.388.00056-.23011.00042c-2.46865.0035-3.10243.44744-3.989,2.79406-.03435.09088-.07281.18057-.11122.27027a3.36435,3.36435,0,0,0-.18062.4875c-.01658.06477-.03182.13083-.04717.19694-.11168.48313-.23824,1.03066-.92032,1.11547a1.11684,1.11684,0,0,1-.13814.0089c-.523,0-.69032-.40213-.83794-.75694a2.09394,2.09394,0,0,0-.1814-.36959A2.6199,2.6199,0,0,0,106.0424,56.5a2.97015,2.97015,0,0,0-2.24133,1.32286,2.548,2.548,0,0,0-.34709.8296c-.16842.57534-.34256,1.17025-1.03632,1.17025-.03914,0-.07976-.002-.12239-.00608a.69351.69351,0,0,1-.10293.00608c-.69392,0-.86806-.59491-1.03643-1.17025a2.54918,2.54918,0,0,0-.347-.8296A2.97075,2.97075,0,0,0,98.56755,56.5a2.61945,2.61945,0,0,0-2.11786,1.33249,2.09167,2.09167,0,0,0-.18145.36954c-.14762.35486-.315.757-.83793.757a1.11748,1.11748,0,0,1-.13815-.0089c-.682-.08481-.80864-.63234-.92032-1.11547-.01529-.06611-.03058-.13217-.04716-.19694a3.369,3.369,0,0,0-.18052-.48735c-.03847-.08974-.07693-.17949-.11127-.27042-.88665-2.34662-1.52043-2.79056-3.98908-2.79406l-.23-.00042-.388-.00056c-.34359,0-.68717.002-1.03056.01127a2.82146,2.82146,0,0,0-2.39455,1.21963A6.12666,6.12666,0,0,0,84.741,60.2173a35.6631,35.6631,0,0,1,.547,3.56748l.01205.10128a1.57982,1.57982,0,0,1-.24632,1.20089,1.44958,1.44958,0,0,1-1.02469.48245,3.93952,3.93952,0,0,0-3.26741,2.58373,3.21981,3.21981,0,0,0-.075,2.63841,3.14168,3.14168,0,0,0,1.92416,1.71336,2.13262,2.13262,0,0,0,.68532.113,1.91431,1.91431,0,0,0,1.87066-1.28831.72557.72557,0,0,0-.06637-.49291.28663.28663,0,0,0-.26728-.14891.408.408,0,0,0-.14742.02827l-.05113.02a1.8161,1.8161,0,0,0-.63342.34451.96491.96491,0,0,1-.67986.34385,1.397,1.397,0,0,1-.83392-.42463c-.06637-.05458-.13264-.10911-.19952-.15931a1.39686,1.39686,0,0,1-.51088-1.7547,2.34729,2.34729,0,0,1,3.13045-1.35222A4.2016,4.2016,0,0,1,86.636,68.89561c.17012.20657.33623.417.50238.6276a9.93711,9.93711,0,0,0,2.13882,2.19746.96522.96522,0,0,1,.40413,1.21123.79978.79978,0,0,1-.77146.50274,1.17733,1.17733,0,0,1-.41016-.0778,3.12462,3.12462,0,0,0-1.11964-.21033,4.50366,4.50366,0,0,0-2.31506.76827,2.91939,2.91939,0,0,1-1.41889.41145c-.4097.01457-.8196.03393-1.22951.05334-.80895.03826-1.64539.0778-2.4688.0778a18.44088,18.44088,0,0,1-2.08022-.106,9.14514,9.14514,0,0,1-7.83641-7.74548,5.323,5.323,0,0,1,.84484-3.38645,3.25349,3.25349,0,0,1,2.779-1.73009,3.131,3.131,0,0,1,.41145.0276,4.36076,4.36076,0,0,1,3.278,2.37921,2.729,2.729,0,0,1,.08084,2.06925,1.98512,1.98512,0,0,1-.89247,1.22473,1.34277,1.34277,0,0,1-.57467.13819c-.66637,0-1.26844-.57832-1.78951-1.71891a.5292.5292,0,0,1-.03722-.149.61757.61757,0,0,0-.01226-.06874c-.10385-.39806-.3009-.44415-.44013-.44415a.64129.64129,0,0,0-.60649.564,2.12644,2.12644,0,0,0,.82475,2.44491c.11493.0812.22764.16466.33958.24756a3.10091,3.10091,0,0,0,1.83085.82594,2.23672,2.23672,0,0,0,.68254-.11255c1.40221-.44441,1.89357-1.77911,2.24406-2.99524a7.56889,7.56889,0,0,0-.37309-3.14357,5.51317,5.51317,0,0,0-4.535-3.4626c-.059,0-.1174.00175-.17573.00535a5.5807,5.5807,0,0,0-5.0962,3.8911,11.22243,11.22243,0,0,0-.3231,5.38387,9.13218,9.13218,0,0,0,5.28785,6.27875,14.498,14.498,0,0,0,6.29651,1.57449,11.27533,11.27533,0,0,0,4.11837-.77692,1.23111,1.23111,0,0,1,.4357-.08645.47569.47569,0,0,1,.54136.43678c.07816,1.11413,1.76037,2.47216,1.77721,2.4841a2.64166,2.64166,0,0,0,.98807.45023,2.29414,2.29414,0,0,0,.46938.07352c.20261,0,.35363-.08063.6465-.345a.95173.95173,0,0,0,.35347-.91028.44986.44986,0,0,0-.45753-.23721,2.01718,2.01718,0,0,0-.64145.13073.91941.91941,0,0,1-.3.05608c-.37433,0-.55917-.29818-.72229-.56129l-.04732-.07584a.9403.9403,0,0,1,.1919-1.23513,2.0926,2.0926,0,0,1,1.5505-.72774,2.03192,2.03192,0,0,1,.62508.10024,10.79354,10.79354,0,0,1,3.53659,1.66208,2.97974,2.97974,0,0,1,.93973,2.85992,1.17765,1.17765,0,0,1-1.21525,1.10727c-.02425.00114-.048.0017-.07106.0017-.64289,0-.86049-.42772-1.13606-.96923l-.0192-.03774c-.44183-.86744-.70978-.98443-.91363-.98448a1.48834,1.48834,0,0,0-.61926.23057l-.08969.04681a.74681.74681,0,0,0-.34055.46237.4503.4503,0,0,0,.05241.36995,10.761,10.761,0,0,0,.7777.94725c1.07314,1.20109,1.61182,1.80392,2.13284,1.80392.51314,0,1.07715-.57477,2.20075-1.71994a1.38653,1.38653,0,0,1,.89643-.52277c.28679,0,.50912.20853.66076.61982,3.42841,9.299,3.77483,14.81027,3.90525,16.885a5.09669,5.09669,0,0,0,.08.81734l.081.21116-.21141-.08027a4.49836,4.49836,0,0,1-1.55915-.88752.722.722,0,0,1-.2836-.27645,22.97192,22.97192,0,0,1-1.51209-4.86836c-.04588-.2021-.07682-.33947-.09083-.38694a10.50462,10.50462,0,0,0-2.13371-3.89625,19.83121,19.83121,0,0,1-1.39448-1.833,13.529,13.529,0,0,0-2.1868-2.61427,19.49806,19.49806,0,0,1-1.81464-1.86473c-.38988-.438-.793-.891-1.21535-1.3103-.30327-.24833-.61015-.49775-.92171-.74186L87.0997,80.226l-.11121-.08429q-.11856-.0892-.23829-.17614-.23472-.17039-.47582-.33154c-.0106-.006-.0434-.02044-.087-.04021a2.61354,2.61354,0,0,1-.49466-.2677,4.468,4.468,0,0,0-3.01294-.97515,16.97548,16.97548,0,0,0-1.86762.1401l-.3836.04243a3.04492,3.04492,0,0,0-2.79432,2.25317,4.65749,4.65749,0,0,0,1.47831,4.95244,1.74663,1.74663,0,0,0,1.15346.47839,2.2866,2.2866,0,0,0,1.00836-.27578c1.0284-.50938,1.72567-1.56651,1.5226-2.30831-.19886-.72595-.75736-1.47687-1.34789-1.47692a.74458.74458,0,0,0-.34132.08562.24111.24111,0,0,0-.144.15241c-.0329.15015.14108.37134.245.50352l.04516.058a1.64293,1.64293,0,0,1,.3512,1.01239,1.15332,1.15332,0,0,1-.31151.82305.7053.7053,0,0,1-.49646.22413.647.647,0,0,1-.38786-.134l-.20277-.14731a3.32492,3.32492,0,0,1-1.65244-2.04464c-.11694-.84128.375-1.58319,1.462-2.205a4.58888,4.58888,0,0,1,2.33468-.68625,4.5337,4.5337,0,0,1,1.46976.25663c2.97361,1.00579,4.98746,3.14769,6.72079,5.3125a5.26165,5.26165,0,0,1,1.42352,4.25276,2.40756,2.40756,0,0,1-.95486,1.83734,1.026,1.026,0,0,1-.51994.15648,1.42432,1.42432,0,0,1-.93309-.51922,2.83364,2.83364,0,0,0-.402-.33607.13777.13777,0,0,0-.07074-.01236,1.15769,1.15769,0,0,0-.11853.00891c-.031.00335-.06267.00664-.09428.00875a1.23728,1.23728,0,0,0-.11786.95956,1.82534,1.82534,0,0,0,1.07983.94606,2.19154,2.19154,0,0,0,.90611.2194c.88891,0,1.473-.728,2.09129-1.4986.1849-.23052.37608-.46881.57622-.68651l.07327-.07975.0746.07857a6.1225,6.1225,0,0,1,1.7423,3.166A11.78589,11.78589,0,0,0,97.309,99.10435c.43668.562.82923,1.1702,1.20886,1.75836.24416.37824.49661.76941.75777,1.14342a8.25852,8.25852,0,0,1,1.16031,2.66014,1.09342,1.09342,0,0,1-.714,1.46132.95221.95221,0,0,1-.25977.04011c-.464,0-.59181-.428-.69448-.77182-.02214-.0742-.04367-.14659-.06792-.21234A23.09792,23.09792,0,0,0,94.178,97.9736a11.79617,11.79617,0,0,0-6.13484-3.78735L87.88,94.14506c-1.15088-.29065-1.67618-.42334-1.82261-.77913-.1468-.35672.135-.824.75251-1.84806.0433-.07177.085-.13279.12672-.19375a1.82285,1.82285,0,0,0,.19416-.32922,3.52578,3.52578,0,0,0-.27552-3.35067,3.2891,3.2891,0,0,0-2.72115-1.4816l-.05659.00052a5.18309,5.18309,0,0,0-3.13827,2.16.74478.74478,0,0,0,.16611.8451A9.81616,9.81616,0,0,0,82.54744,90.287a1.47338,1.47338,0,0,0,.73315.23814.65108.65108,0,0,0,.49322-.20426.47181.47181,0,0,0,.17156-.33123c-.01349-.12975-.16816-.2371-.33185-.35074a1.49578,1.49578,0,0,1-.31738-.26543,1.36155,1.36155,0,0,1-.34976-1.27817.78935.78935,0,0,1,.65139-.4825,1.72727,1.72727,0,0,1,.27654-.023,2.35058,2.35058,0,0,1,1.67073.99529c.114.1228.2264.244.34137.354A1.41732,1.41732,0,0,1,85.87,90.78441a3.49572,3.49572,0,0,1-2.99271,1.72268,4.24427,4.24427,0,0,1-1.80918-.42984,5.9483,5.9483,0,0,1-2.641-2.58893c-.45094-.78258-.83737-1.61182-1.21113-2.41381-.24426-.52416-.49687-1.06614-.76451-1.5886a9.3703,9.3703,0,0,1-1.41158-4.93308c.11178-1.4987.21734-1.71738,1.7666-2.18923l.07754-.02317c.178-.05272.595-.17619.62884-.30213.00782-.0292-.01993-.06643-.04464-.09253a2.04221,2.04221,0,0,0-1.469-.589,2.698,2.698,0,0,0-1.89445.83567c-.46273.44729-.80034.70623-1.15675.70623-.29843,0-.59089-.17965-1.0095-.62014A17.85038,17.85038,0,0,0,68.9983,75.752a8.63,8.63,0,0,0-4.875-1.76305,6.74011,6.74011,0,0,0-1.61686.20153,4.616,4.616,0,0,0-3.63834,4.40918A6.01358,6.01358,0,0,0,60.161,82.74174l.09052.11847a19.214,19.214,0,0,0,1.745,2.07435,8.585,8.585,0,0,1,1.48068,2.19427c.16183.30409.32917.61859.50819.917a2.55971,2.55971,0,0,1-.60592,2.94277,2.11947,2.11947,0,0,1-1.49005.63079,2.31191,2.31191,0,0,1-1.45581-.54342c-.80024-.64639-.78361-1.13317.08089-2.36732.03558-.05082.07621-.0984.11688-.14582a1.26047,1.26047,0,0,0,.13074-.17043.51288.51288,0,0,0-.03636-.64114.44308.44308,0,0,0-.34168-.16188.58394.58394,0,0,0-.28417.081,2.516,2.516,0,0,0-1.52928,1.93924,3.55153,3.55153,0,0,0,1.97317,3.21556,4.46194,4.46194,0,0,0,1.83935.446,2.362,2.362,0,0,0,2.00242-.96074c.92825-1.27972,1.7718-2.67935,1.02175-4.47437-.39693-.95-.58631-1.62371-.30461-2.04664a1.26775,1.26775,0,0,1,1.131-.40965c.14036,0,.29622.008.46331.02363q.04371.00409.0884.00407c.86651,0,1.97389-1.09574,2.503-2.111a1.701,1.701,0,0,0,.02518-2.00962A25.87424,25.87424,0,0,0,66.945,78.75261a1.20644,1.20644,0,0,0-.854-.31949,1.9899,1.9899,0,0,0-.7933.17944.99161.99161,0,0,0-.59362.788.58659.58659,0,0,0,.30585.56406.49162.49162,0,0,0,.26517.078,1.15471,1.15471,0,0,0,.29518-.05376,1.40462,1.40462,0,0,1,.37552-.06436.833.833,0,0,1,.38853.09742,2.62955,2.62955,0,0,1,1.2617,3.22137,1.53776,1.53776,0,0,1-1.54164.88083,4.32645,4.32645,0,0,1-1.11269-.16744,5.84852,5.84852,0,0,1-3.83054-3.05888A3.72769,3.72769,0,0,1,60.956,77.488a3.31959,3.31959,0,0,1,2.61942-1.63514,5.34785,5.34785,0,0,1,.76018-.05376,6.81739,6.81739,0,0,1,3.0337.77007c3.8153,1.9239,8.21594,10.17418,8.82325,11.71268a5.899,5.899,0,0,1,.26018,1.38109.946.946,0,0,1-.29988.59342.38064.38064,0,0,1-.262.10432.66364.66364,0,0,1-.42144-.1951c-.04639-.04109-.0936-.08166-.14092-.12228a3.63514,3.63514,0,0,1-.47005-.456,3.8,3.8,0,0,0-3.0926-1.5454,6.096,6.096,0,0,0-1.80861.304,3.99612,3.99612,0,0,0-2.77475,3.75583,3.92454,3.92454,0,0,0,3.18842,3.19157,1.42616,1.42616,0,0,0,.24055.02018,2.41106,2.41106,0,0,0,1.76485-.974,2.02947,2.02947,0,0,0,.50336-1.6631,2.12981,2.12981,0,0,0-1.51018-1.285.24811.24811,0,0,0-.159.04619c-.44487.35831-.30389.75426.09006,1.317a.79008.79008,0,0,1,.17609.74057.86267.86267,0,0,1-.68615.442,1.09173,1.09173,0,0,1-.21872.02127,2.3049,2.3049,0,0,1-1.96628-1.4832,1.66282,1.66282,0,0,1,.66494-2.07867l.03532-.02214a4.71639,4.71639,0,0,1,2.38616-.96146,2.34028,2.34028,0,0,1,1.11037.28669,3.93731,3.93731,0,0,1,2.306,3.30283,6.80785,6.80785,0,0,1-.87583,4.18505,5.07812,5.07812,0,0,1-4.17218,2.47575,3.70237,3.70237,0,0,1-.57009-.04366,1.12615,1.12615,0,0,1-.97793-.8004.9305.9305,0,0,1,.30579-1.03524,2.28721,2.28721,0,0,1,.72518-.43071.66348.66348,0,0,0,.43189-.33169.58225.58225,0,0,0-.06555-.47911.52431.52431,0,0,0-.49687-.2887.9361.9361,0,0,0-.28262.04629,3.21963,3.21963,0,0,0-2.15318,1.94639c-.25276.65315.13917,1.03648.55418,1.44237.11724.11467.2385.23325.34348.35754a1.25983,1.25983,0,0,0,.14113.13485,1.52224,1.52224,0,0,1,.15627.149,1.49358,1.49358,0,0,1,.51217,1.23621c-.07389.32881-.36352.59969-.88551.8281a10.5164,10.5164,0,0,1-4.21363.94385,8.86242,8.86242,0,0,1-1.02989-.06009,4.85887,4.85887,0,0,1-3.68081-2.50706,2.96076,2.96076,0,0,1,.78418-3.981,2.193,2.193,0,0,1,1.32735-.52663,2.90932,2.90932,0,0,1,1.89439.96095,1.46246,1.46246,0,0,1,.3457,1.60641.95777.95777,0,0,1-1.0284.66174,2.03653,2.03653,0,0,1-.2766-.01962,2.35283,2.35283,0,0,1-.55351-.18835,1.80813,1.80813,0,0,0-.60587-.18829c-.09819,0-.20709.02641-.26991.22248a.93131.93131,0,0,0,.15447.86018,2.105,2.105,0,0,0,1.67633.73939,2.25577,2.25577,0,0,0,1.61821-.667c.09144-.09248.19339-.1849.29766-.27928.50027-.453,1.01763-.9215.67919-1.67495a5.98642,5.98642,0,0,0-1.71788-2.471,4.03759,4.03759,0,0,0-2.427-.87207A3.62881,3.62881,0,0,0,57.44761,97.343a4.9875,4.9875,0,0,0,1.66037,6.059,6.46451,6.46451,0,0,0,3.46616,1.55487,3.40972,3.40972,0,0,1,2.637,1.58839,1.98815,1.98815,0,0,1,.1367,2.24679c-.36325.63043-1.04044.641-1.63787.65041l-.10463.00175-.045.00041a1.72692,1.72692,0,0,1-1.65167-1.12483,2.04165,2.04165,0,0,1-.10231-.2938c-.08645-.29472-.15411-.4737-.36475-.4737a.55833.55833,0,0,0-.13006.0174c-.41995.10226-.42891.41279-.39374.912.00484.06858.00958.13629.01194.20153.04882,1.3294,1.04143,1.85747,2.00139,2.36809.16322.08687.32459.17275.47916.26141a1.17986,1.17986,0,0,0,.59156.16456,2.62467,2.62467,0,0,0,1.64843-.95589c.06966-.07049.13639-.14433.20313-.21811a4.01807,4.01807,0,0,1,.3753-.37948c1.447-1.22467,1.72978-2.439.91687-3.93733a1.40113,1.40113,0,0,1-.20266-1.14332,1.15185,1.15185,0,0,1,.71786-.63708,8.99851,8.99851,0,0,0,2.22655-1.4367,14.54346,14.54346,0,0,1,1.28909-.95075l.05607-.03527.05478.03728a1.90463,1.90463,0,0,1,.76282,1.44,4.52741,4.52741,0,0,0,.10658.49574,2.52678,2.52678,0,0,0,2.23613,1.70095,1.30851,1.30851,0,0,0,.64083-.15442l.08733-.048c.50269-.27536,1.07241-.58744.90121-1.16963-.09072-.30847-.2386-.35013-.37129-.35013a1.65638,1.65638,0,0,0-.47591.11271,2.13541,2.13541,0,0,1-.45481.11755c-.08717.00835-.17274.01277-.25621.01277a1.23462,1.23462,0,0,1-1.31869-.91352.958.958,0,0,1,.11014-.7625,1.77772,1.77772,0,0,1,1.11917-.79726,3.43018,3.43018,0,0,1,.80575-.11894c.67843,0,1.07819.35764,1.71769,1.15928a2.57925,2.57925,0,0,1,.28911,3.15541,5.10525,5.10525,0,0,1-3.58412,2.37314,13.31458,13.31458,0,0,0-2.96079,1.05728c-.28339.12759-.56633.255-.852.37629a7.23117,7.23117,0,0,0-3.14682,2.78526,2.79887,2.79887,0,0,0-.017,3.20989,3.4624,3.4624,0,0,0,2.763,1.76,3.21822,3.21822,0,0,0,.3976-.02548,4.27758,4.27758,0,0,0,2.97675-2.191c.22877-.329-.076-.70669-.17481-.81462-.07667-.08372-.15653-.16553-.23649-.24745a4.19755,4.19755,0,0,1-.58692-.696.85912.85912,0,0,0-1.26885-.38457c-.16585.09737-.25812.19684-.27424.29565-.02543.156.13259.33757.28541.51314.05684.06534.11322.13022.16157.19448a1.20306,1.20306,0,0,1-.23736,1.77272,1.12746,1.12746,0,0,1-.77584.31589,1.87634,1.87634,0,0,1-.86564-.25776,2.034,2.034,0,0,1-1.0855-1.20242,2.17533,2.17533,0,0,1,.29277-1.67927,5.33542,5.33542,0,0,1,3.60579-2.62436,13.9971,13.9971,0,0,0,6.10478-3.09414,4.1766,4.1766,0,0,0,.84983-1.16624,6.04536,6.04536,0,0,1,.53064-.83361c.032-.04.06421-.08212.09691-.12491.20616-.26991.43982-.5758.79309-.5758a.7733.7733,0,0,1,.40187.12723,3.16251,3.16251,0,0,1,1.60281,2.1523c.08841.54275-.05782,1.24733-1.25654,1.52176a.67573.67573,0,0,0-.43509.2645.43815.43815,0,0,0-.04376.34261.62331.62331,0,0,0,.68866.49785,1.39375,1.39375,0,0,0,.16333-.01,2.71491,2.71491,0,0,0,1.89856-1.53139,2.22336,2.22336,0,0,0,.1487-2.03789c-.48245-.88732-.78423-1.675.415-2.32855a1.5607,1.5607,0,0,0,.63414-1.16114,2.59184,2.59184,0,0,0-.80555-2.33483,1.27809,1.27809,0,0,0-.99308-.40548,3.31852,3.31852,0,0,0-.64428.07523.72683.72683,0,0,0-.56056.82589c.00978.27134.11945.32587.29318.32587a1.91391,1.91391,0,0,0,.28417-.0312l.05221-.00819a1.88521,1.88521,0,0,1,.285-.02343.84812.84812,0,0,1,.64938.2385,1.00541,1.00541,0,0,1,.20781.78243,1.08378,1.08378,0,0,1-1.194,1.16562q-.05523,0-.11348-.00283A3.85272,3.85272,0,0,1,78.624,100.545a3.80665,3.80665,0,0,1,1.23914-3.408,5.92659,5.92659,0,0,1,3.834-1.35489,6.22213,6.22213,0,0,1,5.9052,3.90006,1.63434,1.63434,0,0,1-.10179,1.351,1.43719,1.43719,0,0,1-.98113.70489,1.59418,1.59418,0,0,1-.31146.03424c-.765,0-.78408-.73475-.798-1.27127-.00124-.04788.00082-.098.00293-.14844.01051-.25045.00551-.37242-.22088-.4079a.75165.75165,0,0,0-.11632-.00927.77206.77206,0,0,0-.64882.40522c-.44.70093-.21955,1.56754.62071,2.44028a1.61681,1.61681,0,0,0,1.1203.64506,1.45859,1.45859,0,0,0,.86595-.35733c1.34448-1.02382,2.47354-2.10066,1.53479-4.00783a.76282.76282,0,0,1,.65263-1.05146.834.834,0,0,1,.58507.29143,43.6145,43.6145,0,0,1,4.11425,5.11376.85117.85117,0,0,1,.01714,1.07994.55164.55164,0,0,1-.435.21877,1.25508,1.25508,0,0,1-.49265-.14272c-.04129-.01828-.08228-.03641-.1228-.05288a5.90627,5.90627,0,0,0-2.2282-.49306c-1.43387-.00011-2.68738.73825-3.94495,2.32355-.43081.54306-1.21026,1.8721-.87,2.514.95121,1.79471,2.00077,2.70467,3.11952,2.70467a4.08372,4.08372,0,0,0,2.79186-1.61135.61412.61412,0,0,0,.0952-.723,3.88181,3.88181,0,0,0-2.6154-1.70636.292.292,0,0,0-.23515.07765c-.19612.28731.06822.52807.52689.8904a3.8184,3.8184,0,0,1,.50676.45012.42482.42482,0,0,1,.09041.33267,1.62853,1.62853,0,0,1-.63589.96131.76113.76113,0,0,1-.46541.16023,1.3758,1.3758,0,0,1-.6067-.18078,2.38911,2.38911,0,0,1-1.11093-2.56591,4.19933,4.19933,0,0,1,2.70391-1.827.64376.64376,0,0,1,.19257.02678,6.86814,6.86814,0,0,1,4.2079,2.847,13.76012,13.76012,0,0,1,1.91582,6.9698c.00422.11822.01019.254.01683.40578.12811,2.92439.518,11.82353-6.14895,14.18354a4.38955,4.38955,0,0,1-1.46852.25112,4.27716,4.27716,0,0,1-4.069-2.7416,1.95168,1.95168,0,0,1,.502-2.16229,2.251,2.251,0,0,1,1.64688-.9145,2.00064,2.00064,0,0,1,.40424.0433,1.03324,1.03324,0,0,1,.90632.87753c.0933.62081-.48477.7503-.67477.79283a.94261.94261,0,0,0-.646.41223.835.835,0,0,0-.03151.6829c.13515.41516.45846.50022.90224.50022.07981,0,.16-.00248.23907-.0049.05653-.00175.1125-.00345.16734-.00427a1.66827,1.66827,0,0,0,1.43109-.87774,2.41174,2.41174,0,0,0-.048-2.78788,3.50626,3.50626,0,0,0-2.47689-1.20392,1.53509,1.53509,0,0,0-.50835.078c-2.19793.77224-4.21718,2.63126-3.2929,5.53268a4.84419,4.84419,0,0,0,4.0293,3.40122c.18628.01483.37525.01607.55289.01607l.07527-.00006.07549,0a3.44426,3.44426,0,0,1,1.36544.19484c.285.11791.579.28648.59882.64253.02415.43483-.39173.60191-.56931.67322a6.44215,6.44215,0,0,1-2.42659.50877,5.43579,5.43579,0,0,1-2.44291-.59274,9.34949,9.34949,0,0,1-3.17127-2.64763,19.90731,19.90731,0,0,0-6.25059-5.42172l-.17584-.08527a8.3704,8.3704,0,0,0-3.53891-.80369c-.09314-.00345-.18556-.0052-.2767-.0052a5.5,5.5,0,0,0-5.033,3.00362A3.44562,3.44562,0,0,0,68.389,131.487a3.90024,3.90024,0,0,0,2.76039,1.5765,4.48121,4.48121,0,0,0,3.04868-1.72608,2.20261,2.20261,0,0,0,.51428-1.66969,1.33764,1.33764,0,0,0-.60552-1.00564,2.70158,2.70158,0,0,0-1.40215-.46649,1.15254,1.15254,0,0,0-1.11665.65685c-.0467.1005-.02358.144-.016.15827.05957.112.33468.15586.43822.17239l.07755.01215c.46047.07162,1.09116.16976,1.07581.82677a1.41889,1.41889,0,0,1-1.14079,1.22734,2.12083,2.12083,0,0,1-.59218.089,2.08377,2.08377,0,0,1-1.6681-.95528,1.72145,1.72145,0,0,1-.04737-2.18376,3.898,3.898,0,0,1,3.36467-1.84739,5.2453,5.2453,0,0,1,1.21994.15117,7.62924,7.62924,0,0,1,5.124,3.22725,2.50147,2.50147,0,0,1,.31707,2.14725,2.25269,2.25269,0,0,1-1.40272,1.36782,2.10083,2.10083,0,0,1-.7208.1437,1.20317,1.20317,0,0,1-1.05625-.57971,1.02278,1.02278,0,0,1-.198-.87094,1.235,1.235,0,0,1,.8142-.69619.64689.64689,0,0,0,.41737-.36722.63971.63971,0,0,0-.541-.69763.86355.86355,0,0,0-.50764.22017,3.27429,3.27429,0,0,0-1.22081,1.65486,2.00843,2.00843,0,0,0,.53781,1.56193,2.86683,2.86683,0,0,0,2.16419,1.06964,2.70549,2.70549,0,0,0,1.20115-.29071,6.06173,6.06173,0,0,0,1.57984-1.23837c.56-.55933.86837-.86744,1.19635-.86744.32382,0,.60336.297,1.155.915a8.05386,8.05386,0,0,0,6.06636,2.39837,9.73163,9.73163,0,0,0,4.09922-.874,3.14806,3.14806,0,0,0,.8249-.6447,4.76947,4.76947,0,0,1,.59764-.51984,1.35506,1.35506,0,0,1,.71225-.28473.661.661,0,0,1,.531.27572c.31836.40028-.00108.841-.15462,1.05275l-.3975.54759c-.66076.90946-1.344,1.84985-1.98615,2.79417a9.94633,9.94633,0,0,1-1.63216,1.87761,1.022,1.022,0,0,1-.65211.31511c-.25713,0-.47576-.173-.64984-.51417-.05932-.11626-.11307-.23459-.16678-.35276A3.12611,3.12611,0,0,0,89.8342,138.4a3.216,3.216,0,0,0-2.30224-1.20125,2.50351,2.50351,0,0,0-1.2117.32819,3.27254,3.27254,0,0,0-.88994,2.15473c.08326.64928.47386,1.3209.98334,1.3209a.88673.88673,0,0,0,.51484-.19607c.22826-.16651.12342-.4168-.04963-.75221-.02508-.04865-.04923-.0954-.06992-.13938a1.19187,1.19187,0,0,1-.13166-.94091.7503.7503,0,0,1,.4581-.41109.81233.81233,0,0,1,.29235-.05757c.43648,0,.72168.3939.95086.71045l.02739.0378a1.55867,1.55867,0,0,1,.01055,2.0071,6.2057,6.2057,0,0,1-4.97211,2.21949,5.438,5.438,0,0,1-3.337-1.02144,4.60706,4.60706,0,0,1-1.02721-1.19053,8.411,8.411,0,0,0-.50665-.69959,1.34383,1.34383,0,0,1,.01714-1.16741,5.23857,5.23857,0,0,1,2.02008-2.08172,1.23519,1.23519,0,0,1,.65592-.1971,1.80155,1.80155,0,0,1,1.28806.7294.92709.92709,0,0,1,.24339.90724.80831.80831,0,0,1-.68167.48014c-.14072.02276-.29761.03393-.44935.04474-.61745.04392-1.02643.10447-1.08312.52895a.57817.57817,0,0,0,.182.39214,1.69131,1.69131,0,0,0,2.51983.0017,2.27971,2.27971,0,0,0,.66427-2.63414,3.34493,3.34493,0,0,0-2.7624-1.95947,1.432,1.432,0,0,0-.63327.13475c-.11034.05391-.22264.10385-.33494.15379-.138.06138-.276.1227-.41011.19165-2.20029,1.1325-2.94189,1.97343-2.71961,4.4393a5.046,5.046,0,0,0,1.51008,2.65782c.10493.119.20626.234.30049.345a6.82922,6.82922,0,0,0,5.05784,2.13135,5.56967,5.56967,0,0,0,2.77373-.67709l.22634-.13011c3.18616-1.83168,6.48075-3.72566,8.929-6.64252l.08007-.09789c.18309-.22665.3906-.48353.69088-.48353a.65672.65672,0,0,1,.36274.12342c.64058.42705.29478,1.11927.14711,1.41482a1.30008,1.30008,0,0,1-.15653.22758c-.0312.039-.06256.07806-.09042.119-.39945.5875-.788,1.199-1.16376,1.79039a23.777,23.777,0,0,1-3.81334,4.96784,9.04091,9.04091,0,0,0-2.0123,3.03292,2.51015,2.51015,0,0,0,.02713,2.6448,3.89725,3.89725,0,0,0,3.20485,1.86319,4.57906,4.57906,0,0,0,1.50163-.27444c.64912-.2264,1.24861-.43544,1.36266-1.21849a1.59812,1.59812,0,0,0-.963-1.74137,2.11331,2.11331,0,0,1-.29169-.21878.85859.85859,0,0,0-.48755-.2697.51193.51193,0,0,0-.33432.16008c-.27032.24427-.16559.42674.04279.72821a2.43594,2.43594,0,0,1,.14391.22553.88714.88714,0,0,1,.137.68238.56931.56931,0,0,1-.30852.33293,1.0585,1.0585,0,0,1-.47869.11936,1.33555,1.33555,0,0,1-.93979-.46423c-.08387-.08516-.18412-.17095-.29024-.26177-.40569-.34714-.91059-.77919-.54378-1.34974.20338-.31635.38663-.6602.56386-.99277a5.75848,5.75848,0,0,1,1.81608-2.32149,4.37675,4.37675,0,0,1,2.33452-.789,2.17766,2.17766,0,0,1,1.42347.47756,1.01127,1.01127,0,0,1,.41949,1.18621,1.04469,1.04469,0,0,1-.77265.74541.96773.96773,0,0,1-.18485.01848,1.28118,1.28118,0,0,1-.82084-.39451c-.04825-.04-.0969-.08042-.147-.1195-.05309-.0414-.10731-.089-.16266-.13763a.91447.91447,0,0,0-.49949-.29432c-.12677,0-.25127.09165-.38056.28031-.27655.40347-.08012.60294.26321.895.059.0501.1176.1.17162.15127.07646.0725.15143.1485.2266.22475a3.01749,3.01749,0,0,0,.68028.569,2.35618,2.35618,0,0,0,1.09667.30822,1.62514,1.62514,0,0,0,.94745-.30534,2.83509,2.83509,0,0,0,.36217-4.58372,3.59488,3.59488,0,0,0-2.286-1.11356l-.12167.0244-.14623.0293.02672-.14669.02461-.13516a10.71833,10.71833,0,0,1,.84062-1.32714,27.31751,27.31751,0,0,0,2.2456-3.69245,1.307,1.307,0,0,1,1.16092-.919l.03116-.00041c.55953,0,.72491.41264.87078.77672.0329.08207.06555.16384.10272.2404a1.57248,1.57248,0,0,1,.09861.304c.07054.28083.12331.43972.388.43972h.03522c.2647,0,.31748-.15884.388-.43972a1.57439,1.57439,0,0,1,.09865-.304c.03713-.07651.06977-.15823.10262-.24025.14592-.36413.31136-.77687.87089-.77687l.0311.00041a1.30711,1.30711,0,0,1,1.16093.919,27.31118,27.31118,0,0,0,2.24565,3.69245,11.60987,11.60987,0,0,1,.83706,1.31334l.02811.149.02673.14669-.14623-.0293-.12167-.0244a3.59481,3.59481,0,0,0-2.286,1.11356,2.83509,2.83509,0,0,0,.36217,4.58372,1.62514,1.62514,0,0,0,.94746.30534,2.35624,2.35624,0,0,0,1.09667-.30822,3.01657,3.01657,0,0,0,.68027-.569c.07518-.07625.15015-.15225.22661-.22475.054-.05123.11266-.10117.17161-.15127.34338-.292.53982-.49152.26322-.895-.12929-.1886-.2538-.28031-.38061-.28031a.91388.91388,0,0,0-.49935.29426c-.0554.04866-.10962.09629-.16275.13769-.05.039-.09871.07945-.147.11945a1.28126,1.28126,0,0,1-.82085.39456.96845.96845,0,0,1-.18489-.01848,1.04467,1.04467,0,0,1-.77265-.74541,1.01115,1.01115,0,0,1,.41948-1.18616,2.17742,2.17742,0,0,1,1.42347-.47761,4.37675,4.37675,0,0,1,2.33453.789,5.75854,5.75854,0,0,1,1.81607,2.32149c.17723.33252.36048.67642.56386.99277.36681.57055-.13809,1.0026-.54377,1.34974-.10612.09082-.20637.17661-.29025.26177a1.33544,1.33544,0,0,1-.93978.46423,1.05853,1.05853,0,0,1-.47865-.11936.56934.56934,0,0,1-.30852-.33293.88694.88694,0,0,1,.137-.68238,2.43685,2.43685,0,0,1,.144-.22553c.20832-.30147.31305-.48394.04273-.72821a.51171.51171,0,0,0-.33437-.16008.85869.85869,0,0,0-.4875.26965,2.1067,2.1067,0,0,1-.29169.21883,1.598,1.598,0,0,0-.9629,1.74137c.11405.78305.71349.99209,1.34815,1.21344a4.6078,4.6078,0,0,0,1.5161.27949,3.89717,3.89717,0,0,0,3.20484-1.86324,2.50994,2.50994,0,0,0,.02714-2.64475,9.04041,9.04041,0,0,0-2.0123-3.03292,23.78031,23.78031,0,0,1-3.8134-4.96784c-.37572-.59141-.76426-1.20289-1.16371-1.79039-.02781-.04093-.05916-.08-.09036-.119a1.29651,1.29651,0,0,1-.15658-.22758c-.14767-.29555-.49348-.98777.1471-1.41482a.65672.65672,0,0,1,.36274-.12342c.30034,0,.50779.25688.69083.48348l.08012.09794c2.44826,2.91691,5.74291,4.81089,8.92911,6.64257l.2262.13006a5.56964,5.56964,0,0,0,2.77372.67709,6.82921,6.82921,0,0,0,5.05784-2.13135c.09423-.111.19556-.226.3005-.345a5.046,5.046,0,0,0,1.51012-2.65782c.22228-2.46587-.51937-3.3068-2.71966-4.4393-.13408-.06895-.27207-.13027-.41011-.19165-.1123-.04994-.2246-.09988-.335-.15379a1.43233,1.43233,0,0,0-.63321-.13475,3.3445,3.3445,0,0,0-2.7624,1.95906,2.27989,2.27989,0,0,0,.66426,2.63455,1.69137,1.69137,0,0,0,2.51983-.00164.578.578,0,0,0,.182-.3922c-.05664-.42448-.46557-.485-1.08308-.52895-.15174-.01081-.30863-.022-.44935-.04474a.80822.80822,0,0,1-.68161-.48014.92692.92692,0,0,1,.24334-.90719,1.80142,1.80142,0,0,1,1.2881-.72945,1.2351,1.2351,0,0,1,.65587.1971,5.23913,5.23913,0,0,1,2.02008,2.08172,1.344,1.344,0,0,1,.0172,1.16741,8.41038,8.41038,0,0,0-.50671.69964,4.60751,4.60751,0,0,1-1.02721,1.19048,5.4379,5.4379,0,0,1-3.337,1.02144,6.20573,6.20573,0,0,1-4.97216-2.21949,1.55862,1.55862,0,0,1,.01061-2.0071l.02734-.0378c.22923-.3165.51443-.71045.95085-.71045a.81238.81238,0,0,1,.29236.05757.75016.75016,0,0,1,.4581.41109,1.1917,1.1917,0,0,1-.13166.94091c-.02075.044-.04485.09073-.06992.13944-.17306.3354-.27789.58564-.04964.75215a.887.887,0,0,0,.51484.19607c.50949,0,.90009-.67162.98334-1.3209a3.27249,3.27249,0,0,0-.88994-2.15473,2.50356,2.50356,0,0,0-1.21169-.32819A3.21563,3.21563,0,0,0,114.77575,138.4a3.129,3.129,0,0,0-.51747.87356c-.05365.11822-.10746.23649-.16677.35281-.17409.34117-.39271.51417-.6498.51417a1.022,1.022,0,0,1-.65216-.31511,9.9499,9.9499,0,0,1-1.63216-1.87761c-.64217-.94437-1.32549-1.88487-1.9863-2.79438l-.39734-.54738c-.15354-.21177-.473-.65247-.15462-1.0527a.66093.66093,0,0,1,.531-.27577,1.35469,1.35469,0,0,1,.7122.28473,4.76568,4.76568,0,0,1,.59769.51984,3.14892,3.14892,0,0,0,.82491.6447,9.73162,9.73162,0,0,0,4.09926.874,8.05372,8.05372,0,0,0,6.06631-2.39837c.55161-.618.83114-.915,1.155-.915.32794,0,.63636.30811,1.19635.86744a6.05913,6.05913,0,0,0,1.57985,1.23837,2.70508,2.70508,0,0,0,1.20109.29071,2.86685,2.86685,0,0,0,2.16425-1.06954,2.00851,2.00851,0,0,0,.53775-1.562,3.27465,3.27465,0,0,0-1.22081-1.65486.86375.86375,0,0,0-.50763-.22017.63972.63972,0,0,0-.541.69763.6465.6465,0,0,0,.41732.36717,1.23517,1.23517,0,0,1,.8142.69624,1.02255,1.02255,0,0,1-.198.87094,1.20317,1.20317,0,0,1-1.05625.57971,2.10083,2.10083,0,0,1-.7208-.1437,2.25254,2.25254,0,0,1-1.40267-1.36782,2.50151,2.50151,0,0,1,.317-2.14725,7.62937,7.62937,0,0,1,5.124-3.22725,5.24515,5.24515,0,0,1,1.21993-.15117,3.898,3.898,0,0,1,3.36467,1.84739,1.72131,1.72131,0,0,1-.04737,2.18376,2.0837,2.0837,0,0,1-1.6681.95528,2.12022,2.12022,0,0,1-.59217-.089,1.41878,1.41878,0,0,1-1.14075-1.22734c-.01539-.657.6153-.75509,1.07577-.82677l.07754-.01215c.1036-.01653.37865-.06034.43822-.17239.00762-.01426.03074-.05777-.016-.15827a1.15254,1.15254,0,0,0-1.11659-.65685,2.70091,2.70091,0,0,0-1.40221.46649,1.33768,1.33768,0,0,0-.60551,1.00569,2.20268,2.20268,0,0,0,.51427,1.66964,4.48134,4.48134,0,0,0,3.04868,1.72608,3.9004,3.9004,0,0,0,2.76044-1.5765,3.44578,3.44578,0,0,0,.40018-3.87174,5.50044,5.50044,0,0,0-5.033-3.00357c-.092,0-.18366.00175-.27665.0052a8.37062,8.37062,0,0,0-3.53891.80369l-.24406.12219a19.94311,19.94311,0,0,0-6.18236,5.3848,9.349,9.349,0,0,1-3.17128,2.64763,5.4357,5.4357,0,0,1-2.44285.59274,6.44216,6.44216,0,0,1-2.42664-.50877c-.17759-.07131-.59347-.23844-.56932-.67322.01983-.356.31383-.52462.59882-.64253a3.44428,3.44428,0,0,1,1.36545-.19484l.07548,0,.07528.00006c.17769,0,.36675-.00124.55289-.01607a4.84412,4.84412,0,0,0,4.02929-3.40122c.92428-2.90142-1.095-4.76044-3.29289-5.53268a1.53629,1.53629,0,0,0-.50836-.078,3.5056,3.5056,0,0,0-2.47689,1.20392,2.41174,2.41174,0,0,0-.04793,2.78788,1.66813,1.66813,0,0,0,1.431.87774c.05483.00082.1108.00252.16734.00427.07909.00242.15931.0049.23906.0049.44379,0,.76709-.08506.90225-.50022a.83523.83523,0,0,0-.03146-.6829.94288.94288,0,0,0-.646-.41223c-.19-.04253-.76806-.172-.67476-.79283a1.03322,1.03322,0,0,1,.90631-.87753,2.00072,2.00072,0,0,1,.40424-.0433,2.25122,2.25122,0,0,1,1.64694.9145,1.95176,1.95176,0,0,1,.502,2.16229,4.27722,4.27722,0,0,1-4.069,2.7416,4.38965,4.38965,0,0,1-1.46853-.25112c-6.667-2.36-6.27705-11.25915-6.1489-14.18349.00664-.15179.01257-.28761.01684-.40583a13.75931,13.75931,0,0,1,1.91576-6.9698,6.86823,6.86823,0,0,1,4.20791-2.847.64418.64418,0,0,1,.19257-.02678,4.19936,4.19936,0,0,1,2.70391,1.82705,2.38912,2.38912,0,0,1-1.11094,2.56591,1.37576,1.37576,0,0,1-.6067.18078.76113.76113,0,0,1-.46541-.16023,1.62858,1.62858,0,0,1-.63589-.96131.42483.42483,0,0,1,.09042-.33267,3.81071,3.81071,0,0,1,.50681-.45007c.45866-.36238.723-.60314.52683-.89045a.29224.29224,0,0,0-.23515-.07765,3.88093,3.88093,0,0,0-2.61534,1.7062.61409.61409,0,0,0,.09515.72317,4.08371,4.08371,0,0,0,2.7918,1.61135c1.11876,0,2.16836-.91,3.11963-2.70467.34024-.642-.43926-1.971-.87-2.514-1.25747-1.5852-2.511-2.3235-3.945-2.32355a5.90491,5.90491,0,0,0-2.22814.49306c-.04053.01647-.08151.0346-.12281.05288a1.2555,1.2555,0,0,1-.4927.14272.55174.55174,0,0,1-.435-.21877.85122.85122,0,0,1,.01715-1.07994,43.60776,43.60776,0,0,1,4.1143-5.11376.834.834,0,0,1,.585-.29143.76281.76281,0,0,1,.65262,1.05146c-.93875,1.90717.19031,2.98406,1.5348,4.00783a1.45854,1.45854,0,0,0,.86594.35733,1.61684,1.61684,0,0,0,1.12031-.64506c.8403-.87274,1.06073-1.73935.6207-2.44033a.77221.77221,0,0,0-.64882-.40517.75143.75143,0,0,0-.11631.00927c-.2264.03548-.23139.15745-.22084.4079.00211.05041.00412.10056.00283.14844-.01385.53652-.0329,1.27127-.79787,1.27127a1.59337,1.59337,0,0,1-.31146-.03424,1.43726,1.43726,0,0,1-.98118-.70489,1.63434,1.63434,0,0,1-.1018-1.351,6.22214,6.22214,0,0,1,5.9052-3.90006,5.92652,5.92652,0,0,1,3.834,1.35489,3.80687,3.80687,0,0,1,1.23919,3.408,3.8529,3.8529,0,0,1-3.03359,2.33664q-.05824.00285-.11354.00283a1.08366,1.08366,0,0,1-1.19388-1.16562,1.00543,1.00543,0,0,1,.20781-.78243.848.848,0,0,1,.64933-.2385,1.88637,1.88637,0,0,1,.285.02343l.052.00819a1.91738,1.91738,0,0,0,.28433.0312c.17372,0,.28339-.05453.29318-.32587a.72684.72684,0,0,0-.56057-.82589,3.31668,3.31668,0,0,0-.64428-.07523,1.278,1.278,0,0,0-.993.40548,2.59173,2.59173,0,0,0-.8056,2.33483,1.5607,1.5607,0,0,0,.63414,1.16114c1.19923.65355.89746,1.44123.41505,2.32855a2.22321,2.22321,0,0,0,.14865,2.03789,2.7148,2.7148,0,0,0,1.89857,1.53139,1.39436,1.39436,0,0,0,.16332.01.62341.62341,0,0,0,.68872-.49785.43837.43837,0,0,0-.04382-.34261.67573.67573,0,0,0-.43508-.2645c-1.19867-.27443-1.34495-.979-1.25655-1.52176a3.16222,3.16222,0,0,1,1.60281-2.1523.77333.77333,0,0,1,.40193-.12723c.35327,0,.58687.30584.793.57575.03269.04279.06487.085.0969.125a6.05352,6.05352,0,0,1,.5307.83367,4.17782,4.17782,0,0,0,.84978,1.16618,13.99707,13.99707,0,0,0,6.10477,3.09414,5.33555,5.33555,0,0,1,3.60579,2.62436,2.17559,2.17559,0,0,1,.29282,1.67927,2.03411,2.03411,0,0,1-1.08555,1.20242,1.87666,1.87666,0,0,1-.86563.25776,1.12743,1.12743,0,0,1-.77584-.31589,1.2031,1.2031,0,0,1-.23737-1.77272c.0484-.06426.10473-.12914.16157-.19448.15288-.17557.3109-.35712.28541-.51314-.01612-.09881-.10839-.19828-.27423-.29565a.85909.85909,0,0,0-1.26885.38463,4.20011,4.20011,0,0,1-.58693.696c-.07991.08192-.15982.16373-.23644.24745-.09886.10793-.40362.48565-.17485.81462a4.27758,4.27758,0,0,0,2.97674,2.191,3.21847,3.21847,0,0,0,.3976.02548,3.46238,3.46238,0,0,0,2.763-1.76,2.799,2.799,0,0,0-.01694-3.20989,7.23155,7.23155,0,0,0-3.14687-2.78526c-.28561-.12131-.56859-.2487-.852-.37629a13.31422,13.31422,0,0,0-2.96079-1.05728,5.10511,5.10511,0,0,1-3.58411-2.37314,2.5793,2.5793,0,0,1,.28911-3.15541c.6395-.80164,1.03926-1.15928,1.71768-1.15928a3.431,3.431,0,0,1,.80581.11894,1.77774,1.77774,0,0,1,1.11912.79726.9582.9582,0,0,1,.11018.7625,1.23471,1.23471,0,0,1-1.31874.91352c-.08346,0-.169-.00442-.25621-.01277a2.13624,2.13624,0,0,1-.4548-.11755,1.65652,1.65652,0,0,0-.47592-.11271c-.13269,0-.28051.04161-.37129.35013-.17125.58219.39853.89427.90117,1.16963l.08737.04794a1.30814,1.30814,0,0,0,.64084.15447,2.5268,2.5268,0,0,0,2.23613-1.70095,4.53553,4.53553,0,0,0,.10658-.49579,1.90476,1.90476,0,0,1,.76281-1.44l.05479-.03728.05607.03527a14.53453,14.53453,0,0,1,1.28908.95075,8.9987,8.9987,0,0,0,2.22655,1.4367,1.15182,1.15182,0,0,1,.71787.63713,1.40088,1.40088,0,0,1-.20267,1.14327c-.81291,1.49834-.53013,2.71266.91687,3.93733a4.01826,4.01826,0,0,1,.37531.37948c.06673.07378.13346.14762.20312.21811a2.62472,2.62472,0,0,0,1.64843.95589,1.17983,1.17983,0,0,0,.59156-.16456c.15457-.08866.316-.17454.47921-.26141.95992-.51062,1.95253-1.03869,2.00134-2.36809.00237-.06524.00716-.133.01194-.20158.03517-.49919.02616-.80967-.39368-.91188a.55606.55606,0,0,0-.13012-.01745c-.215-.00005-.2786.17995-.36469.4736a2.043,2.043,0,0,1-.10231.2939,1.727,1.727,0,0,1-1.65168,1.12483l-.04505-.00041-.10462-.00175c-.59743-.00937-1.27457-.02-1.63788-.65046a1.98808,1.98808,0,0,1,.13671-2.24674,3.40969,3.40969,0,0,1,2.637-1.58839,6.4645,6.4645,0,0,0,3.4662-1.55487A4.98758,4.98758,0,0,0,147.16234,97.343ZM76.04723,99.85764a1.63808,1.63808,0,0,1-.924-.35919.73807.73807,0,0,1-.35533-.55788.54031.54031,0,0,1,.2281-.447,4.44112,4.44112,0,0,1,2.01678-.9161h.00005a.50087.50087,0,0,1,.3921.14628.54855.54855,0,0,1,.10421.44317C77.106,99.32735,76.64306,99.85764,76.04723,99.85764ZM79.64,94.48721a1.22689,1.22689,0,0,1-1.146.80328q-.039,0-.07868-.00242c-.5913-.03594-1.32842-.18659-1.48212-.70025-.03707-.12383-.087-.27-.14159-.43009-.2576-.75463-.6103-1.78807-.28391-2.35708a.78305.78305,0,0,1,.55351-.37643,1.38241,1.38241,0,0,1,.27361-.0293H77.335c.59774,0,.8623.451,1.14245.92861a3.01118,3.01118,0,0,0,.61432.8178C79.335,93.346,79.9046,93.82516,79.64,94.48721ZM105.20163,58.891a2.92354,2.92354,0,0,1,.54486-.32459,1.55167,1.55167,0,0,1,.5998-.13027,1.10988,1.10988,0,0,1,.97572.57086,1.94813,1.94813,0,0,1,.07255,2.20374c-.173.28031-.34766.41089-.5496.41089a.93453.93453,0,0,1-.4493-.16776,1.62451,1.62451,0,0,0-.277-.13809.79226.79226,0,0,0-.257-.0449.52827.52827,0,0,0-.43848.20421.41456.41456,0,0,0-.043.38869,1.691,1.691,0,0,0,1.42862,1.17571,3.62159,3.62159,0,0,0,.4304.0314.9183.9183,0,0,0,.99148-.65942,2.27242,2.27242,0,0,1,.43864-.733,1.25609,1.25609,0,0,1,.88278-.52c.33345,0,.62657.23932.8712.71132a2.03848,2.03848,0,0,1,.14494.41763,1.976,1.976,0,0,0,.121.361,2.74651,2.74651,0,0,0,2.51778,1.64534l.06292.00072a2.80524,2.80524,0,0,0,2.47241-1.664,3.203,3.203,0,0,0,.005-2.65669.54339.54339,0,0,0-.45115-.328.60511.60511,0,0,0-.30847.10009c-.14412.08728-.08671.30255.0173.621a1.98133,1.98133,0,0,1,.1139.46984,1.767,1.767,0,0,1-1.50483,1.85156,1.41247,1.41247,0,0,1-.37371.05293c-.59676,0-1.09749-.43874-1.44813-1.26885a4.75951,4.75951,0,0,1,.37123-4.31635,3.15846,3.15846,0,0,1,2.70587-1.45591q.09367,0,.18984.00469a3.62274,3.62274,0,0,1,2.832,1.06711c.77476.97176.61437,2.60855.32562,4.23258a8.99219,8.99219,0,0,1-.39673,1.37023,6.67678,6.67678,0,0,0-.41279,1.57691A11.52321,11.52321,0,0,1,115.56322,68.68q-.15322.2663-.30574.53384a1.692,1.692,0,0,1-1.0855.99014,2.204,2.204,0,0,1-.47169.07342c-.33,0-.52334-.18428-.59089-.56339-.02549-.14284-.04083-.28793-.05612-.43293a4.11868,4.11868,0,0,0-.08877-.58069A2.69937,2.69937,0,0,0,110.40575,66.48a2.81383,2.81383,0,0,0-1.73627.63877,3.115,3.115,0,0,0-1.38207,3.417,1.44177,1.44177,0,0,0,1.242,1.0787,1.02678,1.02678,0,0,0,.52653-.15051.183.183,0,0,0,.09865-.117c.035-.14525-.11878-.38839-.25446-.60289a2.10891,2.10891,0,0,1-.2644-.509,1.33161,1.33161,0,0,1,.74511-1.65389,1.6059,1.6059,0,0,1,.71173-.17928,1.489,1.489,0,0,1,1.0874.51129,2.32289,2.32289,0,0,1,.65,1.74986,4.69521,4.69521,0,0,1-2.82516,3.62669,3.30578,3.30578,0,0,1-.86713.11333,4.61124,4.61124,0,0,1-3.16654-1.40972,3.87305,3.87305,0,0,1-1.21576-2.72589c.007-.86054.4045-1.35567,1.11917-1.39418.66725-.03594,2.28-1.69966,2.394-2.1194a2.08758,2.08758,0,0,0-.46654-1.6855,1.36265,1.36265,0,0,0-.87352-.61468.31939.31939,0,0,0-.29925.21692c-.04.08553.094.29339.22351.4944.34256.53153.86018,1.33481-.23309,2.05134a.95062.95062,0,0,1-.52349.16909c-.38628,0-.77373-.27454-1.15156-.816A5.90067,5.90067,0,0,1,105.20163,58.891ZM95.60522,74.28977A4.69524,4.69524,0,0,1,92.78005,70.663a2.32278,2.32278,0,0,1,.65-1.74981,1.48916,1.48916,0,0,1,1.0874-.51129,1.60578,1.60578,0,0,1,.71174.17928,1.33161,1.33161,0,0,1,.7451,1.65389,2.10642,2.10642,0,0,1-.2644.509c-.13572.2145-.28947.45764-.25446.60284a.183.183,0,0,0,.09866.11708,1.02674,1.02674,0,0,0,.52652.15051,1.44173,1.44173,0,0,0,1.242-1.0787,3.115,3.115,0,0,0-1.38213-3.417A2.81458,2.81458,0,0,0,94.20414,66.48a2.69907,2.69907,0,0,0-2.55871,2.22037,4.10894,4.10894,0,0,0-.08871.58059c-.01529.145-.03069.29014-.05618.43308-.06755.37906-.26084.56334-.59089.56334A2.203,2.203,0,0,1,90.438,70.204a1.69209,1.69209,0,0,1-1.0855-.99014q-.15183-.26776-.30564-.53364a11.52505,11.52505,0,0,1-1.84429-4.72856,6.67419,6.67419,0,0,0-.41274-1.57691,8.99155,8.99155,0,0,1-.39672-1.37018c-.2887-1.62408-.44914-3.26087.32561-4.23263a3.62269,3.62269,0,0,1,2.832-1.06711c.06394-.00314.12753-.00469.18984-.00469A3.15869,3.15869,0,0,1,92.44656,57.156a4.75954,4.75954,0,0,1,.371,4.3164c-.35059.83011-.85138,1.26885-1.44814,1.26885a1.41247,1.41247,0,0,1-.37371-.05293,1.767,1.767,0,0,1-1.50482-1.85156,1.98323,1.98323,0,0,1,.11389-.46984c.104-.31846.16142-.53373.01735-.621a.60509.60509,0,0,0-.30852-.10009.54324.54324,0,0,0-.4512.32773,3.20281,3.20281,0,0,0,.0051,2.65694,2.80525,2.80525,0,0,0,2.47246,1.664l.06287-.00072a2.74663,2.74663,0,0,0,2.51782-1.64534,1.97845,1.97845,0,0,0,.121-.361,2.04207,2.04207,0,0,1,.14494-.41763c.24463-.472.53776-.71132.87125-.71132a1.256,1.256,0,0,1,.88274.52009,2.27165,2.27165,0,0,1,.43863.733.91831.91831,0,0,0,.99148.65942,3.6232,3.6232,0,0,0,.4304-.0314,1.691,1.691,0,0,0,1.42862-1.17571.41464.41464,0,0,0-.04294-.38864.52862.52862,0,0,0-.43854-.20426.79219.79219,0,0,0-.257.0449,1.62488,1.62488,0,0,0-.277.13809.93508.93508,0,0,1-.44935.16776c-.20194,0-.37659-.13058-.54959-.41089a1.94809,1.94809,0,0,1,.07255-2.20374,1.10986,1.10986,0,0,1,.97572-.57086,1.55252,1.55252,0,0,1,.5998.13022,2.92633,2.92633,0,0,1,.54486.32464,5.90068,5.90068,0,0,1,1.257,7.67849c-.37782.54141-.76528.816-1.1516.816a.95.95,0,0,1-.52339-.16914c-1.09338-.71653-.5757-1.51981-.23315-2.05134.1295-.201.26342-.40882.22352-.49435a.31945.31945,0,0,0-.29931-.21692,1.36281,1.36281,0,0,0-.87351.61458,2.08755,2.08755,0,0,0-.4665,1.6856c.1141.41974,1.7268,2.08346,2.394,2.1194.71467.03851,1.11217.53364,1.11917,1.39418a3.873,3.873,0,0,1-1.21577,2.72579,4.61133,4.61133,0,0,1-3.16653,1.40982A3.30578,3.30578,0,0,1,95.60522,74.28977Zm7.564,16.99579a12.05966,12.05966,0,0,1-.2284,1.84352.74689.74689,0,0,1-.4788.47658.33067.33067,0,0,1-.08923.01117l-.0414-.00133-.0277-.001-.02513.001-.04145.00133a.33131.33131,0,0,1-.08912-.01112.74694.74694,0,0,1-.4789-.47669,12.05792,12.05792,0,0,1-.22841-1.84346c-.11189-3.25593-3.01516-11.89629-3.97986-12.98709a1.17219,1.17219,0,0,1-.32021-1.08477.89468.89468,0,0,1,.62646-.60531c1.87823-.57,2.87583-2.00093,3.932-3.51584q.18505-.26553.37191-.52988l.05288-.07435.07939.0449a.10569.10569,0,0,0,.20349,0l.0794-.04485.05288.0743q.18752.2636.37185.52977c1.05615,1.515,2.0537,2.946,3.932,3.516a.89473.89473,0,0,1,.62642.60531,1.17213,1.17213,0,0,1-.32021,1.08477C106.1844,79.38927,103.28113,88.02963,103.16924,91.28556Zm23.02533,4.00251c-.02641.0016-.05272.00242-.07867.00242a1.22692,1.22692,0,0,1-1.146-.80328c-.26455-.66205.305-1.14126.54826-1.34588a3.01349,3.01349,0,0,0,.61442-.81775c.28015-.47756.54481-.92866,1.14249-.92866a1.38375,1.38375,0,0,1,.27362.0293.78307.78307,0,0,1,.55351.37643c.32639.569-.02631,1.60245-.28386,2.357-.05468.16013-.10458.30631-.14165.43014C127.523,95.10148,126.78587,95.25213,126.19457,95.28807Zm3.29217,4.21038a1.63818,1.63818,0,0,1-.924.35919c-.59584,0-1.05878-.53029-1.45689-1.66871a.56081.56081,0,0,1,.09922-.46511.5008.5008,0,0,1,.39214-.14633,4.44128,4.44128,0,0,1,2.01678.9161.54017.54017,0,0,1,.2281.447A.73793.73793,0,0,1,129.48674,99.49845Z" style="fill: #fff"/>
      <g>
        <path class="leaf leaf7" data-name="leaf leaf7" d="M83.36639,86.266A3.464,3.464,0,0,1,87.457,88.45512C85.34005,88.90122,84.31046,88.35356,83.36639,86.266Z" style="fill: #fff"/>
        <path class="leaf leaf6" data-name="leaf leaf6" d="M93.92346,66.87012c-.07325-.00235-.14659-.0028-.21982.001-.037.00193-.07362.00592-.11054.00925l-.00141,0-.00762.00121-.051.00763c-.05521.00862-.11023.01848-.16523.02836a2.20828,2.20828,0,0,1-.398.13839,1.58719,1.58719,0,0,0-.82922,2.11234,2.1841,2.1841,0,0,0,2.043-1.453,3.20633,3.20633,0,0,0-.03023-.67248c-.00792-.05563-.02146-.11-.03289-.16491C94.05509,66.87527,93.98952,66.87226,93.92346,66.87012Z" style="fill: #fff"/>
        <path class="leaf leaf5" data-name="leaf leaf5" d="M131.47411,73.72141c-1.1159,1.90737-1.7562,2.13974-3.59978,1.40013C129.19359,73.17491,129.2,73.17222,131.47411,73.72141Z" style="fill: #fff"/>
        <path class="leaf leaf4" data-name="leaf leaf4" d="M73.82205,60.14091c-1.26043,1.55769-1.89751,1.79787-3.591,1.42134C71.69035,59.95447,71.69677,59.95179,73.82205,60.14091Z" style="fill: #fff"/>
        <path class="leaf leaf3" data-name="leaf leaf3" d="M143.63821,83.34731c-1.26043,1.55769-1.89751,1.79787-3.591,1.42134C141.5065,83.16087,141.51293,83.15819,143.63821,83.34731Z" style="fill: #fff"/>
        <path class="leaf leaf2" data-name="leaf leaf2" d="M125.73933,102.79675c-1.26043,1.55769-1.89751,1.79787-3.591,1.42134C123.60762,102.61031,123.61405,102.60763,125.73933,102.79675Z" style="fill: #fff"/>
        <path class="leaf leaf1" data-name="leaf leaf1" d="M66.76733,105.22974c-1.97322.34857-2.61158.11183-3.64258-1.28344C65.28092,103.69042,65.28753,103.69261,66.76733,105.22974Z" style="fill: #fff"/>
      </g>
    </g>
  </g>
</svg>
