<svg xmlns="http://www.w3.org/2000/svg" viewBox="0 0 204.40449 204.40449">
  <title>iron-banner_2</title>
  <g class="Layer_2" data-name="Layer 2">
    <g class="iron-banner-2">
      <g style="opacity: 0.25">
        <polygon class="triangle" points="102.253 23.686 33.459 142.841 171.047 142.841 102.253 23.686" style="fill: none;stroke: #fff;stroke-miterlimit: 10"/>
        <polygon class="triangle" points="102.253 23.686 33.459 142.841 171.047 142.841 102.253 23.686" style="fill: none;stroke: #fff;stroke-miterlimit: 10"/>
        <polygon class="triangle" points="141.972 34.328 22.816 103.123 141.972 171.917 141.972 34.328" style="fill: none;stroke: #fff;stroke-miterlimit: 10"/>
        <polygon class="triangle" points="171.047 63.404 33.459 63.404 102.253 182.56 171.047 63.404" style="fill: none;stroke: #fff;stroke-miterlimit: 10"/>
        <polygon class="triangle" points="181.69 103.123 62.535 34.328 62.535 171.917 181.69 103.123" style="fill: none;stroke: #fff;stroke-miterlimit: 10"/>
      </g>
      <g>
        <circle cx="102.20252" cy="102.20232" r="56.54517" style="fill: #68784a"/>
        <path d="M102.20227,47.1569a55.04533,55.04533,0,1,1-55.04491,55.04534A55.10747,55.10747,0,0,1,102.20227,47.1569m0-3a58.04533,58.04533,0,1,0,58.04491,58.04534A58.11075,58.11075,0,0,0,102.20227,44.1569Z" style="fill: #fff"/>
      </g>
      <g>
        <g class="dots dots6" style="opacity: 0.1">
          <circle cx="102.25304" cy="102.11231" r="79.26315" style="fill: none;stroke: #fff;stroke-linecap: round;stroke-miterlimit: 10;stroke-dasharray: 0,3.000270366668701"/>
        </g>
        <g class="dots dots5" style="opacity: 0.2">
          <circle cx="102.25304" cy="102.11232" r="74.00856" transform="translate(-42.25509 102.21182) rotate(-45)" style="fill: none;stroke: #fff;stroke-linecap: round;stroke-miterlimit: 10;stroke-dasharray: 0,3.0001800060272217"/>
        </g>
        <g class="dots dots4" style="opacity: 0.3">
          <circle cx="102.25304" cy="102.11232" r="69.80029" style="fill: none;stroke: #fff;stroke-linecap: round;stroke-miterlimit: 10;stroke-dasharray: 0,3.0040109157562256"/>
        </g>
        <g class="dots dots3" style="opacity: 0.4">
          <circle cx="102.25304" cy="102.11232" r="66.37871" style="fill: none;stroke: #fff;stroke-linecap: round;stroke-miterlimit: 10;stroke-dasharray: 0,3.0003037452697754"/>
        </g>
        <g class="dots dots2" style="opacity: 0.5">
          <circle cx="102.25304" cy="102.11231" r="63.74985" style="fill: none;stroke: #fff;stroke-linecap: round;stroke-miterlimit: 10;stroke-dasharray: 0,2.9888880252838135"/>
        </g>
        <g class="dots dots1" style="opacity: 0.6">
          <circle cx="102.25304" cy="102.11232" r="61.83735" style="fill: none;stroke: #fff;stroke-linecap: round;stroke-miterlimit: 10;stroke-dasharray: 0,3.0114803314208984"/>
        </g>
      </g>
      <path d="M142.717,97.99793a3.26949,3.26949,0,0,0-2.99547-2.15192,3.63654,3.63654,0,0,0-2.18644.78565,5.39248,5.39248,0,0,0-1.54764,2.22614c-.30495.67878.16114,1.10081.61184,1.509.09393.08508.18578.16829.26821.2516a2.032,2.032,0,0,0,1.45779.6009,1.89651,1.89651,0,0,0,1.51026-.666.83947.83947,0,0,0,.13916-.775c-.05664-.1766-.15475-.20044-.24325-.20044a1.62761,1.62761,0,0,0-.54579.16964,2.11953,2.11953,0,0,1-.49865.16968,1.836,1.836,0,0,1-.24915.01767.86283.86283,0,0,1-.92653-.59616,1.31747,1.31747,0,0,1,.31144-1.44722,2.62114,2.62114,0,0,1,1.70666-.86571,1.9756,1.9756,0,0,1,1.19581.47444,2.66734,2.66734,0,0,1,.70647,3.58644,4.37735,4.37735,0,0,1-3.316,2.25861,7.98478,7.98478,0,0,1-.92783.05413,9.474,9.474,0,0,1-3.79605-.85031c-.47027-.20577-.7312-.44981-.79776-.746a1.34557,1.34557,0,0,1,.46145-1.11374,1.37636,1.37636,0,0,1,.14074-.13415,1.1272,1.1272,0,0,0,.12715-.12149c.09458-.112.20382-.21881.30944-.32211.37388-.36562.727-.711.49931-1.29943a2.90068,2.90068,0,0,0-1.93985-1.75351.84413.84413,0,0,0-.25462-.0417.47231.47231,0,0,0-.44763.26009.52458.52458,0,0,0-.059.43163.59784.59784,0,0,0,.38909.29882,2.06025,2.06025,0,0,1,.65332.388.83827.83827,0,0,1,.27549.93265,1.01456,1.01456,0,0,1-.881.72109,3.33517,3.33517,0,0,1-.51354.03933,4.57482,4.57482,0,0,1-3.75872-2.23036,6.133,6.133,0,0,1-.78908-3.77036,3.54714,3.54714,0,0,1,2.07747-2.97553,2.10844,2.10844,0,0,1,1.00033-.25828,4.24825,4.24825,0,0,1,2.14947.866l.032.02009a1.498,1.498,0,0,1,.599,1.87268,2.07648,2.07648,0,0,1-1.77142,1.33621.98439.98439,0,0,1-.197-.01915.77706.77706,0,0,1-.61815-.39819.71171.71171,0,0,1,.15869-.66718c.35486-.507.48191-.86372.08109-1.18652a.22348.22348,0,0,0-.14325-.04161,1.91832,1.91832,0,0,0-1.36052,1.15762,1.82834,1.82834,0,0,0,.45352,1.49825,2.172,2.172,0,0,0,1.59.8775,1.285,1.285,0,0,0,.21671-.01819,3.53575,3.53575,0,0,0,2.87246-2.87528,3.60021,3.60021,0,0,0-2.49988-3.38363,5.49267,5.49267,0,0,0-1.62933-.27391,3.42336,3.42336,0,0,0-2.78613,1.39225,3.26724,3.26724,0,0,1-.42341.41075c-.04263.0366-.08522.0732-.127.11022a.59774.59774,0,0,1-.37968.17575.34272.34272,0,0,1-.236-.094.85218.85218,0,0,1-.2702-.53466,5.31526,5.31526,0,0,1,.23439-1.24418c.54718-1.386,4.5118-8.81877,7.94887-10.552a6.14175,6.14175,0,0,1,2.73306-.69376,4.81836,4.81836,0,0,1,.68485.04843,2.9906,2.9906,0,0,1,2.35984,1.4731,3.35812,3.35812,0,0,1-.13972,3.07191,5.2691,5.2691,0,0,1-3.45094,2.75575,3.8979,3.8979,0,0,1-1.00242.15085,1.38536,1.38536,0,0,1-1.38886-.79354,2.369,2.369,0,0,1,1.13666-2.90214.7504.7504,0,0,1,.35-.08776,1.26508,1.26508,0,0,1,.3383.058,1.04,1.04,0,0,0,.26594.04843.44283.44283,0,0,0,.23893-.07032.5283.5283,0,0,0,.27549-.50813.89332.89332,0,0,0-.53479-.70994,1.79209,1.79209,0,0,0-.71468-.16166,1.08675,1.08675,0,0,0-.76937.28783,23.30671,23.30671,0,0,0-2.13393,2.28315,1.53233,1.53233,0,0,0,.02269,1.81043c.47667.91465,1.47431,1.90181,2.255,1.90181.02686,0,.05334-.00116.07964-.00367.15057-.0141.291-.02129.41739-.02129a1.14242,1.14242,0,0,1,1.01907.369c.25374.381.083.988-.27456,1.84387-.67567,1.61709.08424,2.87806.9205,4.031a2.12791,2.12791,0,0,0,1.804.86553,4.01962,4.01962,0,0,0,1.657-.4018,3.19949,3.19949,0,0,0,1.77763-2.8969,2.26671,2.26671,0,0,0-1.37773-1.74706.526.526,0,0,0-.256-.073.399.399,0,0,0-.30778.14584.462.462,0,0,0-.03275.57765,1.13246,1.13246,0,0,0,.11773.15345c.03665.04272.07325.08563.10535.13146.77879,1.11179.79377,1.55029.07287,2.13267a2.08305,2.08305,0,0,1-1.31158.48957,1.90941,1.90941,0,0,1-1.34239-.56829,2.30622,2.30622,0,0,1-.54588-2.65114c.16129-.26885.31209-.55218.45789-.82614a7.73254,7.73254,0,0,1,1.33389-1.97677,17.31433,17.31433,0,0,0,1.57214-1.86892l.08141-.10655a5.41765,5.41765,0,0,0,1.16486-3.73168,4.15851,4.15851,0,0,0-3.27777-3.97223,6.07072,6.07072,0,0,0-1.45664-.18156,7.774,7.774,0,0,0-4.39189,1.58833,16.08013,16.08013,0,0,0-2.64887,2.27615c-.37708.39684-.6406.55868-.90946.55868-.321,0-.62525-.23328-1.04212-.63624a2.431,2.431,0,0,0-1.70676-.75286,1.83956,1.83956,0,0,0-1.32336.53067c-.02227.02352-.04727.05705-.04017.08336.03047.11346.40611.22469.56652.27219l.06981.02088c1.39573.42508,1.49082.62209,1.59153,1.97227a8.44159,8.44159,0,0,1-1.2717,4.44422c-.24116.47073-.46873.95909-.68884,1.43135-.33667.72243-.6848,1.46944-1.091,2.17442a5.35894,5.35894,0,0,1-2.37931,2.33238,3.82359,3.82359,0,0,1-1.62989.38723,3.14931,3.14931,0,0,1-2.69614-1.552,1.27693,1.27693,0,0,1-.01479-1.66245c.10358-.099.20484-.20819.30749-.31882a2.118,2.118,0,0,1,1.50525-.8967,1.5564,1.5564,0,0,1,.24915.02069.71125.71125,0,0,1,.58679.43469,1.22656,1.22656,0,0,1-.31515,1.1515,1.346,1.346,0,0,1-.28588.23913c-.14747.10237-.28681.19909-.299.316a.42529.42529,0,0,0,.15456.29841.58656.58656,0,0,0,.44434.184,1.32716,1.32716,0,0,0,.6605-.21453,8.847,8.847,0,0,0,1.29925-1.0079.671.671,0,0,0,.14959-.76134,4.66942,4.66942,0,0,0-2.82731-1.946l-.05093-.00046a2.96252,2.96252,0,0,0-2.4514,1.3344,3.17648,3.17648,0,0,0-.24831,3.019,1.64552,1.64552,0,0,0,.17492.2966c.03758.05487.07515.10984.1092.16634.56123.9307.81515,1.35175.6829,1.67312-.13192.32053-.60516.44007-1.642.70193l-.147.03711a10.62715,10.62715,0,0,0-5.52689,3.412,20.80955,20.80955,0,0,0-4.07368,6.49544c-.0218.05923-.04124.12445-.06118.19125-.09255.30982-.20768.69538-.62567.69538a.85786.85786,0,0,1-.234-.03613.98508.98508,0,0,1-.6432-1.3165,7.43953,7.43953,0,0,1,1.04528-2.39653c.23527-.337.46271-.68931.68263-1.03006.34205-.52988.69571-1.07784,1.08911-1.58415a10.61835,10.61835,0,0,0,1.81242-4.7167,5.51532,5.51532,0,0,1,1.56964-2.85227l.06721-.07079.06606.07185c.18021.19608.35244.41071.519.61829.55715.69441,1.08336,1.35027,1.88418,1.35027a1.97433,1.97433,0,0,0,.81627-.19765,1.64468,1.64468,0,0,0,.97287-.85231,1.11489,1.11489,0,0,0-.10623-.86446c-.02848-.0019-.057-.00487-.08489-.00789a1.04286,1.04286,0,0,0-.10682-.008.12374.12374,0,0,0-.06379.01118,2.549,2.549,0,0,0-.36209.30272,1.28337,1.28337,0,0,1-.84067.46776.92433.92433,0,0,1-.46841-.141,2.16913,2.16913,0,0,1-.86024-1.65526,4.74,4.74,0,0,1,1.2825-3.83131,13.40828,13.40828,0,0,1,6.05472-4.78605,4.08434,4.08434,0,0,1,1.32411-.23119,4.13443,4.13443,0,0,1,2.10331.6182c.97932.56026,1.42249,1.22864,1.31715,1.98656a2.99536,2.99536,0,0,1-1.48873,1.842l-.18263.13271a.583.583,0,0,1-.34943.1207.6355.6355,0,0,1-.44731-.20192,1.03913,1.03913,0,0,1-.28059-.74149,1.48,1.48,0,0,1,.3164-.912l.04068-.05228c.09366-.119.25045-.3183.22076-.45361a.217.217,0,0,0-.1297-.13731.67207.67207,0,0,0-.30754-.07714c-.532-.00005-1.03517.67646-1.21431,1.33056-.183.66829.44522,1.62066,1.3717,2.07956a2.06,2.06,0,0,0,.90843.24845,1.57333,1.57333,0,0,0,1.03911-.431,4.19582,4.19582,0,0,0,1.33186-4.46161,2.74312,2.74312,0,0,0-2.51741-2.02993l-.34525-.03818a15.31109,15.31109,0,0,0-1.68287-.12626,4.02493,4.02493,0,0,0-2.71436.87851,2.35684,2.35684,0,0,1-.44559.24117c-.03925.01776-.0688.0308-.0803.03748-.14282.0956-.28579.1951-.42676.29743q-.10791.07828-.21458.1586l-.09992.07575-.0301.023c-.28681.22465-.56332.44935-.83863.676-.37842.3748-.74158.78287-1.09278,1.17752a17.56246,17.56246,0,0,1-1.63485,1.68,12.18622,12.18622,0,0,0-1.97005,2.35519,17.87477,17.87477,0,0,1-1.25633,1.65132,9.464,9.464,0,0,0-1.92232,3.51017c-.01257.04273-.04044.16635-.08168.34828a20.7,20.7,0,0,1-1.36233,4.38619.65051.65051,0,0,1-.2555.249,4.05287,4.05287,0,0,1-1.40459.79956l-.19051.07237.073-.19028a4.59532,4.59532,0,0,0,.07209-.73634c.11745-1.86916.42954-6.8343,3.5182-15.21174.13661-.37054.33686-.5584.59528-.5584a1.24889,1.24889,0,0,1,.8075.47087c1.0123,1.03173,1.52046,1.54959,1.98275,1.54959.46944,0,.95469-.54309,1.92148-1.62516a9.69472,9.69472,0,0,0,.70067-.85337.40565.40565,0,0,0,.04718-.33329.67285.67285,0,0,0-.3068-.41655l-.08062-.04208a1.34209,1.34209,0,0,0-.55808-.20781c-.1836,0-.425.10539-.82309.88692l-.01721.03376c-.24826.488-.44438.87342-1.02357.87342q-.03123,0-.064-.00153A1.061,1.061,0,0,1,109.714,82.146a2.68434,2.68434,0,0,1,.84665-2.5765,9.72358,9.72358,0,0,1,3.18607-1.49736,1.83025,1.83025,0,0,1,.56318-.09032,1.88515,1.88515,0,0,1,1.3968.65568.847.847,0,0,1,.17288,1.11268l-.04258.06828c-.14695.237-.31353.5057-.65076.5057a.82826.82826,0,0,1-.27025-.05051,1.81889,1.81889,0,0,0-.57788-.11778.40535.40535,0,0,0-.41224.21361.85753.85753,0,0,0,.31854.82017c.2638.23819.39985.31084.58238.31084a2.06663,2.06663,0,0,0,.42286-.06624,2.38112,2.38112,0,0,0,.89081-.40607c.01452-.0103,1.53-1.23366,1.60044-2.23747a.42858.42858,0,0,1,.48775-.3935,1.10872,1.10872,0,0,1,.39248.07789,10.15758,10.15758,0,0,0,3.71024.69993,13.06118,13.06118,0,0,0,5.67254-1.41846A8.22724,8.22724,0,0,0,132.76776,72.1a10.10906,10.10906,0,0,0-.29108-4.85033,5.02765,5.02765,0,0,0-4.59117-3.50549q-.0787-.00487-.15832-.00483a4.96642,4.96642,0,0,0-4.08556,3.11946,6.819,6.819,0,0,0-.33612,2.832c.31576,1.09561.75843,2.29805,2.02168,2.69836a2.01384,2.01384,0,0,0,.61495.10145,2.79316,2.79316,0,0,0,1.64927-.744c.1009-.07473.20244-.15.30606-.22316a1.91568,1.91568,0,0,0,.743-2.20258.57753.57753,0,0,0-.5456-.50808c-.12617,0-.30369.04147-.3973.40009a.556.556,0,0,0-.011.06192.4767.4767,0,0,1-.03354.13425c-.46939,1.02756-1.01183,1.54857-1.61217,1.54857a1.20978,1.20978,0,0,1-.51772-.1245,1.78847,1.78847,0,0,1-.804-1.1034,2.4586,2.4586,0,0,1,.07282-1.86414,3.92861,3.92861,0,0,1,2.95317-2.14344,2.82069,2.82069,0,0,1,.37072-.02486A2.93112,2.93112,0,0,1,130.6194,67.256a4.7957,4.7957,0,0,1,.76107,3.05085,8.23888,8.23888,0,0,1-7.05983,6.97791,16.61264,16.61264,0,0,1-1.874.09551c-.742,0-1.49556-.03563-2.22434-.07014-.36924-.01744-.73843-.03488-1.10753-.048a2.63013,2.63013,0,0,1-1.27828-.37068,4.05766,4.05766,0,0,0-2.08564-.69213,2.81412,2.81412,0,0,0-1.00863.18949,1.06108,1.06108,0,0,1-.36956.07009.72053.72053,0,0,1-.695-.45292.86952.86952,0,0,1,.36409-1.0912,8.95085,8.95085,0,0,0,1.92685-1.97965c.14969-.18972.29934-.37935.45264-.56545a3.78444,3.78444,0,0,1,1.55725-1.0469,2.11467,2.11467,0,0,1,2.82022,1.2182,1.25843,1.25843,0,0,1-.46025,1.58082c-.06025.04518-.12.0943-.1797.14347a1.25854,1.25854,0,0,1-.75137.3826.86928.86928,0,0,1-.61244-.30977,1.63629,1.63629,0,0,0-.57065-.31038l-.04607-.01795a.36639.36639,0,0,0-.13275-.02551.25823.25823,0,0,0-.2408.13415.65339.65339,0,0,0-.05979.44406,1.72449,1.72449,0,0,0,1.68523,1.16064,1.92122,1.92122,0,0,0,.61741-.10182,2.83032,2.83032,0,0,0,1.73347-1.54356,2.90072,2.90072,0,0,0-.06759-2.377,3.54908,3.54908,0,0,0-2.94361-2.32768,1.306,1.306,0,0,1-.92318-.43469,1.42329,1.42329,0,0,1-.22183-1.08188l.01081-.0912a32.1331,32.1331,0,0,1,.49277-3.21395,5.51964,5.51964,0,0,0-1.13471-4.41574,2.54205,2.54205,0,0,0-2.15731-1.09876c-.30935-.00835-.61889-.01016-.92843-.01016l-.34952.00051-.20731.00037c-2.224.00316-2.795.40311-3.59371,2.51718-.03094.08187-.0656.16268-.1002.24348a3.03106,3.03106,0,0,0-.16272.43919c-.01494.05836-.02867.11787-.0425.17743-.10061.43525-.21463.92853-.82911,1.00492a1.00407,1.00407,0,0,1-.12446.008c-.47119,0-.6219-.36228-.75489-.68193a1.88783,1.88783,0,0,0-.16342-.333,2.36033,2.36033,0,0,0-1.908-1.20044,2.67582,2.67582,0,0,0-2.01921,1.19177,2.29556,2.29556,0,0,0-.3127.74738c-.15173.51833-.30861,1.05428-.93362,1.05428-.03526,0-.07185-.00176-.11026-.00547a.6252.6252,0,0,1-.09273.00547c-.62515,0-.782-.536-.93372-1.05428a2.29633,2.29633,0,0,0-.3126-.74738,2.67636,2.67636,0,0,0-2.01926-1.19177,2.35987,2.35987,0,0,0-1.908,1.20044,1.88487,1.88487,0,0,0-.16346.33292c-.133.3197-.2838.682-.7549.682a1.00468,1.00468,0,0,1-.12446-.008c-.61444-.07639-.7285-.56967-.82911-1.00492-.01378-.05956-.02756-.11907-.04249-.17743a3.0348,3.0348,0,0,0-.16264-.43905c-.03465-.08085-.0693-.1617-.10024-.24362-.79878-2.11407-1.36975-2.514-3.59376-2.51718l-.20726-.00037-.34957-.00051c-.30954,0-.61908.00181-.92843.01016a2.5419,2.5419,0,0,0-2.15726,1.09876,5.51956,5.51956,0,0,0-1.13476,4.41574,32.1331,32.1331,0,0,1,.49277,3.21395l.01085.09124a1.42328,1.42328,0,0,1-.22191,1.08188,1.30591,1.30591,0,0,1-.92314.43465,3.54908,3.54908,0,0,0-2.94361,2.32768,2.90072,2.90072,0,0,0-.06759,2.377,2.83034,2.83034,0,0,0,1.73348,1.54356,1.92112,1.92112,0,0,0,.6174.10182,1.7246,1.7246,0,0,0,1.68528-1.16064.65368.65368,0,0,0-.05979-.44406.25824.25824,0,0,0-.2408-.13415.36724.36724,0,0,0-.1328.02547l-.04606.018a1.63611,1.63611,0,0,0-.57065.31038.86931.86931,0,0,1-.61249.30977,1.25854,1.25854,0,0,1-.75128-.38255c-.0598-.04917-.1195-.0983-.17975-.14352a1.25844,1.25844,0,0,1-.46025-1.58082,2.11467,2.11467,0,0,1,2.82022-1.2182,3.78511,3.78511,0,0,1,1.55729,1.0469c.15327.1861.30291.37568.4526.56541a8.95237,8.95237,0,0,0,1.92686,1.97969.86958.86958,0,0,1,.36409,1.0912.72056.72056,0,0,1-.695.45292,1.0606,1.0606,0,0,1-.36951-.07009,2.81494,2.81494,0,0,0-1.00868-.18949,4.05726,4.05726,0,0,0-2.08564.69213,2.63013,2.63013,0,0,1-1.27828.37068c-.3691.01313-.73838.03057-1.10767.04806-.72878.03446-1.48233.07009-2.22415.07009a16.61293,16.61293,0,0,1-1.87407-.09551,8.23888,8.23888,0,0,1-7.05983-6.97791,4.79557,4.79557,0,0,1,.76112-3.05085,2.93106,2.93106,0,0,1,2.50363-1.55864,2.81937,2.81937,0,0,1,.37067.02486,3.92861,3.92861,0,0,1,2.95317,2.14344,2.45852,2.45852,0,0,1,.07283,1.86419,1.78842,1.78842,0,0,1-.804,1.10335,1.20978,1.20978,0,0,1-.51772.1245c-.60033,0-1.14273-.521-1.61217-1.54857a.4768.4768,0,0,1-.03354-.1342.552.552,0,0,0-.011-.06193c-.09356-.35861-.27108-.40013-.39651-.40013a.57774.57774,0,0,0-.54639.50808,1.91572,1.91572,0,0,0,.743,2.20262c.10354.07316.20508.14835.30592.223a2.79365,2.79365,0,0,0,1.64942.74409,2.01529,2.01529,0,0,0,.61491-.1014c1.26324-.40036,1.70591-1.6028,2.02167-2.69841a6.81856,6.81856,0,0,0-.33612-2.832,4.96683,4.96683,0,0,0-4.08556-3.11946c-.05316,0-.10576.00158-.15832.00483a5.02765,5.02765,0,0,0-4.59117,3.50549A10.11028,10.11028,0,0,0,71.84219,72.1,8.22723,8.22723,0,0,0,76.606,77.75658,13.06134,13.06134,0,0,0,82.27855,79.175a10.15793,10.15793,0,0,0,3.71024-.69993,1.109,1.109,0,0,1,.39252-.07789.42854.42854,0,0,1,.48771.3935c.07042,1.00372,1.58592,2.22717,1.60109,2.23793a2.37991,2.37991,0,0,0,.89016.40561,2.06663,2.06663,0,0,0,.42286.06624c.18253,0,.31859-.07265.58243-.31084a.85744.85744,0,0,0,.31845-.82007.40529.40529,0,0,0-.41219-.21371,1.81712,1.81712,0,0,0-.57789.11778.82826.82826,0,0,1-.27025.05051c-.33723,0-.50376-.26862-.65071-.50566l-.04263-.06832a.84712.84712,0,0,1,.17288-1.11273,1.88523,1.88523,0,0,1,1.39684-.65563,1.83019,1.83019,0,0,1,.56314.09032,9.72381,9.72381,0,0,1,3.18612,1.49736,2.68443,2.68443,0,0,1,.8466,2.5765,1.061,1.061,0,0,1-1.09482.99755c-.02185.001-.04323.00153-.064.00153-.57919,0-.77522-.38533-1.02348-.87318l-.0173-.034c-.398-.78148-.63944-.88687-.82309-.88692a1.34077,1.34077,0,0,0-.55789.20772l-.0808.04217a.67283.67283,0,0,0-.30681.41655.40569.40569,0,0,0,.04723.33329,9.69272,9.69272,0,0,0,.70062.85337c.96679,1.08207,1.45209,1.62516,1.92148,1.62516.46229,0,.97041-.51781,1.98266-1.5495a1.24916,1.24916,0,0,1,.80759-.471c.25838,0,.45867.18786.59528.5584,3.08866,8.37744,3.40075,13.34258,3.51825,15.21174a4.5915,4.5915,0,0,0,.072.73634l.073.19023-.19046-.07232a4.05268,4.05268,0,0,1-1.40464-.79956.65049.65049,0,0,1-.25549-.249A20.696,20.696,0,0,1,97.433,93.99865c-.04133-.18206-.06921-.30582-.08183-.34859a9.4637,9.4637,0,0,0-1.92226-3.51013,17.86946,17.86946,0,0,1-1.2563-1.65132,12.18787,12.18787,0,0,0-1.97009-2.35519,17.56675,17.56675,0,0,1-1.6348-1.68c-.35124-.39461-.71441-.80272-1.09492-1.18045-.27321-.22372-.54968-.44842-.83036-.66834l-.03591-.02746-.10019-.07593q-.10681-.08037-.21468-.15869-.21145-.1535-.42866-.29868c-.00956-.00543-.0391-.01842-.07835-.03623a2.354,2.354,0,0,1-.44563-.24117,4.02526,4.02526,0,0,0-2.71437-.87851,15.29419,15.29419,0,0,0-1.68254.12621l-.34558.03823a2.74317,2.74317,0,0,0-2.51741,2.02988A4.19594,4.19594,0,0,0,81.41093,87.544a1.57355,1.57355,0,0,0,1.03916.431,2.06,2.06,0,0,0,.90843-.24845c.92649-.4589,1.55466-1.41127,1.37171-2.07956-.17915-.654-.68231-1.33051-1.21432-1.33056a.67078.67078,0,0,0-.30749.07714.2172.2172,0,0,0-.12975.13731c-.02964.13526.1271.33454.22076.45361l.04068.05223a1.48015,1.48015,0,0,1,.3164.91206,1.039,1.039,0,0,1-.28064.74149.63538.63538,0,0,1-.44726.20192.58287.58287,0,0,1-.34943-.1207l-.18267-.13271a2.99543,2.99543,0,0,1-1.48869-1.842c-.10534-.75792.33784-1.4263,1.31715-1.98652a4.13417,4.13417,0,0,1,2.10332-.61824,4.08451,4.08451,0,0,1,1.3241.23119,13.40869,13.40869,0,0,1,6.05477,4.78605,4.74022,4.74022,0,0,1,1.28245,3.83131,2.169,2.169,0,0,1-.86024,1.65526.92433.92433,0,0,1-.46841.141,1.28315,1.28315,0,0,1-.84062-.46776,2.55229,2.55229,0,0,0-.36219-.30277.1241.1241,0,0,0-.06373-.01113,1.04334,1.04334,0,0,0-.10679.008c-.028.003-.05645.006-.08493.00789a1.11464,1.11464,0,0,0-.10618.86446,1.64441,1.64441,0,0,0,.97282.85231,1.97437,1.97437,0,0,0,.81632.19765c.80082,0,1.327-.65581,1.884-1.35008.16657-.20767.33881-.42235.51911-.61848l.066-.07185.06722.07079a5.51575,5.51575,0,0,1,1.56963,2.85227,10.61806,10.61806,0,0,0,1.81242,4.7167c.39341.50626.74706,1.05423,1.08907,1.5841.22.34076.4474.69316.68267,1.03011a7.43991,7.43991,0,0,1,1.04533,2.39653.98507.98507,0,0,1-.64325,1.3165.85786.85786,0,0,1-.234.03613c-.418,0-.53317-.38556-.62566-.69534-.01995-.06684-.03934-.13206-.06119-.19129a20.8088,20.8088,0,0,0-4.07368-6.49544,10.62712,10.62712,0,0,0-5.52688-3.412l-.147-.03711c-1.03684-.26186-1.51008-.3814-1.642-.70193-.13225-.32137.12167-.74237.67794-1.66491.039-.06466.07659-.11963.11416-.17455a1.642,1.642,0,0,0,.17492-.2966,3.17638,3.17638,0,0,0-.24821-3.01862,2.96318,2.96318,0,0,0-2.45149-1.33477l-.051.00046a4.66945,4.66945,0,0,0-2.82727,1.946.671.671,0,0,0,.14964.76134,8.84382,8.84382,0,0,0,1.2992,1.0079,1.32746,1.32746,0,0,0,.6605.21453.58656.58656,0,0,0,.44434-.184.42509.42509,0,0,0,.15456-.29841c-.01215-.11689-.1515-.21361-.299-.316a1.347,1.347,0,0,1-.28593-.23913,1.22663,1.22663,0,0,1-.31511-1.1515.71117.71117,0,0,1,.58684-.43469,1.55621,1.55621,0,0,1,.24915-.02069,2.11761,2.11761,0,0,1,1.50515.89666c.1027.11063.204.21978.30755.3189a1.27689,1.27689,0,0,1-.0148,1.66241,3.1493,3.1493,0,0,1-2.69614,1.552,3.82379,3.82379,0,0,1-1.62989-.38723,5.35884,5.35884,0,0,1-2.37926-2.33238c-.40626-.705-.75439-1.45209-1.09111-2.1746-.22006-.47222-.44764-.96049-.68875-1.43117a8.44179,8.44179,0,0,1-1.2717-4.44422c.10071-1.35018.1958-1.54719,1.59153-1.97227l.06986-.02088c.16036-.0475.536-.15873.56652-.27219.007-.02631-.01795-.05984-.04021-.08336a1.83989,1.83989,0,0,0-1.32342-.53067,2.43069,2.43069,0,0,0-1.7067.75286c-.41688.403-.721.63624-1.04213.63624-.26886,0-.53233-.16184-.90946-.55868A16.08147,16.08147,0,0,0,72.299,78.54659a7.77482,7.77482,0,0,0-4.3919-1.58833,6.07206,6.07206,0,0,0-1.45663.18156,4.1585,4.1585,0,0,0-3.27778,3.97223,5.41765,5.41765,0,0,0,1.16481,3.73163l.08155.10673a17.309,17.309,0,0,0,1.57205,1.86879A7.73381,7.73381,0,0,1,67.325,88.796c.14579.274.29655.55729.45784.8261a2.306,2.306,0,0,1-.54588,2.65114,1.9094,1.9094,0,0,1-1.34239.56829A2.08282,2.08282,0,0,1,64.583,92.352c-.72095-.58234-.706-1.02088.07287-2.13272.032-.04578.06865-.08864.1053-.13137a1.1345,1.1345,0,0,0,.11777-.15354.462.462,0,0,0-.03275-.5776.39916.39916,0,0,0-.30782-.14584.526.526,0,0,0-.256.073A2.26671,2.26671,0,0,0,62.90467,91.031a3.19958,3.19958,0,0,0,1.77763,2.8969,4.01987,4.01987,0,0,0,1.65708.4018,2.12792,2.12792,0,0,0,1.804-.86553c.83626-1.1529,1.59621-2.41383.92049-4.031-.35759-.85583-.5282-1.4628-.27442-1.84382a1.14212,1.14212,0,0,1,1.01893-.36906c.12645,0,.26686.00719.41739.02129q.03937.00369.07964.00367c.78065,0,1.77829-.98716,2.255-1.90181A1.53241,1.53241,0,0,0,72.583,83.533a23.31012,23.31012,0,0,0-2.13393-2.28311,1.08684,1.08684,0,0,0-.76937-.28783,1.79265,1.79265,0,0,0-.71468.16166.89332.89332,0,0,0-.53479.70994.52845.52845,0,0,0,.27553.50817.44291.44291,0,0,0,.2389.07028,1.04037,1.04037,0,0,0,.26593-.04843,1.26515,1.26515,0,0,1,.3383-.058.7504.7504,0,0,1,.35.08776,2.369,2.369,0,0,1,1.13666,2.90214,1.38536,1.38536,0,0,1-1.38886.79354,3.89765,3.89765,0,0,1-1.00242-.15085,5.269,5.269,0,0,1-3.45094-2.75575,3.35824,3.35824,0,0,1-.13971-3.07191,2.99057,2.99057,0,0,1,2.35983-1.4731,4.81836,4.81836,0,0,1,.68485-.04843,6.14175,6.14175,0,0,1,2.73306.69376c3.43721,1.73324,7.40174,9.16592,7.94887,10.552a5.31434,5.31434,0,0,1,.2344,1.24423.85225.85225,0,0,1-.27016.53461.34291.34291,0,0,1-.23606.094.59785.59785,0,0,1-.37968-.17575c-.04179-.037-.08433-.07357-.127-.11017a3.27386,3.27386,0,0,1-.42346-.4108,3.42346,3.42346,0,0,0-2.78613-1.39225,5.49177,5.49177,0,0,0-1.62938.27391,3.60011,3.60011,0,0,0-2.49978,3.38363,3.53563,3.53563,0,0,0,2.87245,2.87528,1.28433,1.28433,0,0,0,.21672.01819,2.17214,2.17214,0,0,0,1.59-.87746,1.82835,1.82835,0,0,0,.45348-1.49829,1.91874,1.91874,0,0,0-1.36052-1.15762.22352.22352,0,0,0-.14324.04161c-.40079.3228-.27378.67951.08113,1.18652a.7118.7118,0,0,1,.15864.66718.7772.7772,0,0,1-.61815.39819.98366.98366,0,0,1-.19705.01915,2.07648,2.07648,0,0,1-1.77142-1.33621,1.498,1.498,0,0,1,.599-1.87268l.03182-.01995a4.24913,4.24913,0,0,1,2.1497-.86618,2.10841,2.10841,0,0,1,1.00033.25828,3.54717,3.54717,0,0,1,2.07748,2.97553,6.13315,6.13315,0,0,1-.789,3.77031,4.57489,4.57489,0,0,1-3.75872,2.23041,3.33631,3.33631,0,0,1-.51359-.03933,1.01454,1.01454,0,0,1-.881-.72109.8383.8383,0,0,1,.27549-.93265,2.06053,2.06053,0,0,1,.65331-.388.59773.59773,0,0,0,.38909-.29882.52454.52454,0,0,0-.059-.43163.47234.47234,0,0,0-.44763-.26009.84333.84333,0,0,0-.25462.0417,2.90058,2.90058,0,0,0-1.9398,1.75351c-.22771.58841.12538.93376.49926,1.29943.10562.1033.21486.21013.30945.32211a1.13514,1.13514,0,0,0,.12714.12149,1.374,1.374,0,0,1,.14079.13419,1.34554,1.34554,0,0,1,.4614,1.1137c-.06656.29623-.32749.54027-.79775.746a9.47429,9.47429,0,0,1-3.79606.85031,7.98427,7.98427,0,0,1-.92783-.05413,4.37737,4.37737,0,0,1-3.316-2.25861,2.66734,2.66734,0,0,1,.70647-3.58644,1.97572,1.97572,0,0,1,1.19581-.47444,2.62106,2.62106,0,0,1,1.70666.86571,1.31753,1.31753,0,0,1,.31144,1.44722.86284.86284,0,0,1-.92648.59616,1.8344,1.8344,0,0,1-.24919-.01767,2.12036,2.12036,0,0,1-.49866-.16968,1.62868,1.62868,0,0,0-.54583-.16964c-.08846,0-.18657.0238-.24316.20044a.839.839,0,0,0,.13916.77493,1.89634,1.89634,0,0,0,1.51021.66612,2.03222,2.03222,0,0,0,1.45784-.6009c.08238-.08331.17423-.16657.26816-.2516.4507-.40815.91679-.83018.61189-1.509a5.3932,5.3932,0,0,0-1.54765-2.22614,3.63745,3.63745,0,0,0-2.18653-.78565,3.26922,3.26922,0,0,0-2.99542,2.15192,4.49326,4.49326,0,0,0,1.49583,5.45861,5.82388,5.82388,0,0,0,3.12266,1.40078,3.0718,3.0718,0,0,1,2.3757,1.431,1.79112,1.79112,0,0,1,.12316,2.02413c-.32726.568-.93734.57751-1.47556.586l-.09426.00158-.04054.00037a1.5558,1.5558,0,0,1-1.488-1.01336,1.83919,1.83919,0,0,1-.09217-.26469c-.07788-.26551-.13883-.42675-.3286-.42675a.50279.50279,0,0,0-.11717.01568c-.37833.09212-.38641.37188-.35472.8216.00436.06178.00862.12278.01076.18155.044,1.19766.93822,1.67341,1.80305,2.13342.147.07826.29242.15563.43167.23551a1.063,1.063,0,0,0,.53294.14825,2.36455,2.36455,0,0,0,1.48507-.86117c.06276-.0635.12288-.13.183-.19649a3.61965,3.61965,0,0,1,.33811-.34187c1.30361-1.10331,1.55836-2.1973.826-3.54715a1.26234,1.26234,0,0,1-.18258-1.03,1.03768,1.03768,0,0,1,.64673-.57394,8.10735,8.10735,0,0,0,2.0059-1.29433,13.1003,13.1003,0,0,1,1.16133-.85653l.05052-.03177.04935.03358a1.71586,1.71586,0,0,1,.68722,1.29734,4.084,4.084,0,0,0,.096.44662,2.2764,2.2764,0,0,0,2.01453,1.53238,1.17878,1.17878,0,0,0,.57733-.13911l.07867-.04324c.45288-.24807.96615-.52922.81191-1.05372-.08173-.2779-.215-.31543-.33449-.31543a1.49233,1.49233,0,0,0-.42876.10154,1.92442,1.92442,0,0,1-.40973.10591c-.07853.00751-.15563.0115-.23082.0115a1.11227,1.11227,0,0,1-1.188-.823.86307.86307,0,0,1,.09922-.68694,1.60161,1.60161,0,0,1,1.00826-.71826,3.09071,3.09071,0,0,1,.72591-.10715c.61119,0,.97134.3222,1.54746,1.0444a2.32363,2.32363,0,0,1,.26046,2.84271,4.59936,4.59936,0,0,1-3.22893,2.138,11.99439,11.99439,0,0,0-2.66738.9525c-.25531.11495-.51021.22971-.76756.339a6.51458,6.51458,0,0,0-2.835,2.50924,2.52151,2.52151,0,0,0-.01531,2.89179,3.11927,3.11927,0,0,0,2.48921,1.58555,2.89873,2.89873,0,0,0,.35819-.023,3.85368,3.85368,0,0,0,2.68176-1.97385c.2061-.29636-.06847-.63666-.15748-.73388-.06907-.07543-.141-.14914-.21306-.22294a3.78194,3.78194,0,0,1-.52876-.627.774.774,0,0,0-1.14311-.34647c-.14941.08772-.23253.17734-.24705.26636-.02292.14055.11944.30411.25712.46229.05121.05886.102.11731.14556.1752a1.08385,1.08385,0,0,1-.21384,1.597,1.01573,1.01573,0,0,1-.699.28458,1.69047,1.69047,0,0,1-.77985-.23221,1.83255,1.83255,0,0,1-.97793-1.08327,1.9598,1.9598,0,0,1,.26376-1.51286,4.80668,4.80668,0,0,1,3.24846-2.36428,12.61,12.61,0,0,0,5.4998-2.78752,3.76278,3.76278,0,0,0,.76561-1.05066,5.446,5.446,0,0,1,.47806-.751c.02885-.036.05784-.074.0873-.11253.18573-.24316.39624-.51875.71449-.51875a.69673.69673,0,0,1,.362.11462,2.84912,2.84912,0,0,1,1.444,1.939c.07965.489-.05209,1.12371-1.132,1.371a.6087.6087,0,0,0-.392.23828.3947.3947,0,0,0-.03943.30866.56154.56154,0,0,0,.62042.44851,1.2561,1.2561,0,0,0,.14714-.009,2.44593,2.44593,0,0,0,1.71042-1.37964,2.003,2.003,0,0,0,.134-1.83594c-.43464-.79938-.70652-1.509.37388-2.09779a1.40607,1.40607,0,0,0,.5713-1.04607,2.335,2.335,0,0,0-.72572-2.10345,1.15142,1.15142,0,0,0-.89466-.3653,2.98936,2.98936,0,0,0-.58044.06778.65479.65479,0,0,0-.505.744c.00881.24446.10761.29358.26412.29358a1.72415,1.72415,0,0,0,.256-.02811l.047-.00738a1.69827,1.69827,0,0,1,.25679-.0211.7641.7641,0,0,1,.585.21486.9058.9058,0,0,1,.18722.70489.97639.97639,0,0,1-1.07566,1.05011q-.04976,0-.10224-.00256a3.4709,3.4709,0,0,1-2.73292-2.10507,3.42945,3.42945,0,0,1,1.11634-3.07024,5.33928,5.33928,0,0,1,3.4541-1.22062,5.60552,5.60552,0,0,1,5.32,3.51356,1.4724,1.4724,0,0,1-.09171,1.21714,1.29476,1.29476,0,0,1-.8839.635,1.43611,1.43611,0,0,1-.28059.03085c-.68921,0-.70638-.66194-.7189-1.14529-.00111-.04314.00074-.08832.00264-.13373.00947-.22563.005-.33552-.199-.36748a.67718.67718,0,0,0-.10478-.00835.69553.69553,0,0,0-.58452.36507c-.39642.63146-.1978,1.41219.55919,2.19845a1.4566,1.4566,0,0,0,1.00928.58113,1.314,1.314,0,0,0,.78013-.32192c1.21125-.92236,2.22842-1.89249,1.3827-3.61065a.68721.68721,0,0,1,.58795-.94726.75134.75134,0,0,1,.52709.26254,39.29136,39.29136,0,0,1,3.70653,4.607.76681.76681,0,0,1,.01545.97292.497.497,0,0,1-.39192.1971,1.13062,1.13062,0,0,1-.44383-.12859c-.0372-.01647-.07413-.03279-.11063-.04764a5.32116,5.32116,0,0,0-2.00739-.4442,4.52654,4.52654,0,0,0-3.554,2.0933c-.38812.48924-1.09032,1.68657-.78375,2.26488.85695,1.61685,1.8025,2.43664,2.81039,2.43664a3.679,3.679,0,0,0,2.51518-1.45167.55326.55326,0,0,0,.08577-.65136,3.49716,3.49716,0,0,0-2.35622-1.53726.263.263,0,0,0-.21184.06995c-.17669.25884.06146.47575.47467.80217a3.43936,3.43936,0,0,1,.45654.40551.38274.38274,0,0,1,.08145.29971,1.46715,1.46715,0,0,1-.57287.866.68567.68567,0,0,1-.41929.14435,1.23951,1.23951,0,0,1-.54658-.16286,2.15239,2.15239,0,0,1-1.00084-2.31164,3.78321,3.78321,0,0,1,2.436-1.646.57986.57986,0,0,1,.17348.02412,6.18755,6.18755,0,0,1,3.79091,2.5649,12.39656,12.39656,0,0,1,1.726,6.2791c.0038.1065.00918.22887.01517.36557.11541,2.63458.46669,10.65183-5.5396,12.778a3.95453,3.95453,0,0,1-1.323.22623,3.85329,3.85329,0,0,1-3.66576-2.46991,1.75827,1.75827,0,0,1,.45227-1.948,2.028,2.028,0,0,1,1.48368-.82387,1.80261,1.80261,0,0,1,.36418.039.93085.93085,0,0,1,.8165.79057c.084.55928-.43673.676-.6079.71426a.84929.84929,0,0,0-.582.37137.75226.75226,0,0,0-.02838.61523c.12176.374.413.45065.81283.45065.0719,0,.14417-.00223.21537-.00441.05094-.00158.10136-.00311.15076-.00385a1.50294,1.50294,0,0,0,1.28927-.79075,2.17275,2.17275,0,0,0-.04323-2.51161,3.15881,3.15881,0,0,0-2.23143-1.08462,1.38367,1.38367,0,0,0-.458.07023c-1.98011.69571-3.79926,2.3705-2.96657,4.9844a4.36413,4.36413,0,0,0,3.63,3.06416c.16783.01336.33807.01448.4981.01448l.06782-.00005.068,0a3.10286,3.10286,0,0,1,1.23013.17553c.25675.10623.52162.2581.53948.57886.02176.39174-.35291.54226-.5129.60651a5.80387,5.80387,0,0,1-2.18611.45834,4.89708,4.89708,0,0,1-2.20082-.534,8.42279,8.42279,0,0,1-2.857-2.38525,17.93446,17.93446,0,0,0-5.63116-4.88443l-.15841-.07682A7.541,7.541,0,0,0,76.173,122.569c-.08391-.0031-.16718-.00468-.24928-.00468a4.955,4.955,0,0,0-4.53421,2.706,3.10414,3.10414,0,0,0,.36056,3.488,3.51368,3.51368,0,0,0,2.48684,1.42027,4.03715,4.03715,0,0,0,2.74656-1.555,1.98436,1.98436,0,0,0,.46331-1.50423,1.20506,1.20506,0,0,0-.54551-.906,2.43377,2.43377,0,0,0-1.2632-.42026,1.03832,1.03832,0,0,0-1.006.59175c-.04207.09055-.02125.12974-.01438.14259.05367.10094.30151.14042.3948.15531l.06986.01094c.41483.06453.983.15294.9692.74484a1.2783,1.2783,0,0,1-1.02774,1.10572,1.91092,1.91092,0,0,1-.5335.08015,1.87724,1.87724,0,0,1-1.50279-.86061,1.55084,1.55084,0,0,1-.04267-1.96735,3.51172,3.51172,0,0,1,3.03123-1.66431,4.72517,4.72517,0,0,1,1.099.13619,6.87317,6.87317,0,0,1,4.61622,2.90742,2.25363,2.25363,0,0,1,.28565,1.93447,2.02948,2.02948,0,0,1-1.26371,1.23226,1.89268,1.89268,0,0,1-.64937.12947,1.08393,1.08393,0,0,1-.95158-.52227.92137.92137,0,0,1-.1784-.78463,1.11262,1.11262,0,0,1,.73351-.6272.58277.58277,0,0,0,.376-.33083.5763.5763,0,0,0-.48743-.62849.778.778,0,0,0-.45733.19835,2.94984,2.94984,0,0,0-1.09983,1.49087,1.80937,1.80937,0,0,0,.48451,1.40714,2.58274,2.58274,0,0,0,1.94973.96364,2.43743,2.43743,0,0,0,1.08211-.2619,5.46105,5.46105,0,0,0,1.42328-1.11565c.50446-.5039.78231-.78148,1.0778-.78148.29172,0,.54356.26761,1.0405.82434a7.25571,7.25571,0,0,0,5.46519,2.1607,8.767,8.767,0,0,0,3.693-.78742,2.83591,2.83591,0,0,0,.74317-.58081,4.297,4.297,0,0,1,.53841-.46832,1.22075,1.22075,0,0,1,.64166-.25652.59543.59543,0,0,1,.47834.24841c.28681.36061-.001.75763-.1393.94842l-.3581.49332c-.59528.81933-1.21083,1.66654-1.78932,2.51727a8.9607,8.9607,0,0,1-1.47041,1.69154.92068.92068,0,0,1-.58749.28388c-.23166,0-.42862-.15586-.58545-.46321-.05344-.10474-.10186-.21134-.15025-.3178a2.81615,2.81615,0,0,0-.46618-.787,2.89723,2.89723,0,0,0-2.07409-1.0822,2.25542,2.25542,0,0,0-1.09162.29566,2.94822,2.94822,0,0,0-.80175,1.9412c.075.58493.4269,1.19.8859,1.19a.79892.79892,0,0,0,.46382-.17664c.20563-.15.11119-.3755-.04472-.67766-.02259-.04384-.04435-.086-.063-.12557a1.07376,1.07376,0,0,1-.11861-.84767.67591.67591,0,0,1,.4127-.37035.73191.73191,0,0,1,.26338-.05187c.39322,0,.65016.35486.85663.64005l.02467.034a1.40421,1.40421,0,0,1,.00951,1.8082,5.59073,5.59073,0,0,1-4.47938,1.99954,4.899,4.899,0,0,1-3.00632-.92022,4.15019,4.15019,0,0,1-.92542-1.07255,7.57811,7.57811,0,0,0-.45644-.63026,1.2106,1.2106,0,0,1,.01545-1.05172,4.7193,4.7193,0,0,1,1.81989-1.87542,1.11276,1.11276,0,0,1,.59092-.17757,1.623,1.623,0,0,1,1.16041.65712.83522.83522,0,0,1,.21927.81733.72822.72822,0,0,1-.61412.43256c-.12677.0205-.26811.03057-.40481.04031-.55627.03957-.92472.09412-.9758.47653a.521.521,0,0,0,.164.35328,1.5237,1.5237,0,0,0,2.27012.00153,2.05381,2.05381,0,0,0,.59844-2.3731,3.01344,3.01344,0,0,0-2.48865-1.76529,1.29008,1.29008,0,0,0-.57051.12139c-.09941.04857-.20058.09357-.30175.13856-.12436.05529-.24868.11054-.36947.17265-1.98224,1.02028-2.65035,1.77787-2.4501,3.99937a4.54594,4.54594,0,0,0,1.36043,2.39444c.09454.10724.18583.21083.27072.31084a6.15244,6.15244,0,0,0,4.55661,1.92013,5.01779,5.01779,0,0,0,2.49885-.61l.20392-.11722c2.87041-1.65016,5.83851-3.35645,8.0441-5.98425l.07214-.08819c.165-.20419.35189-.43561.62241-.43561a.59165.59165,0,0,1,.3268.11119c.57709.38473.26556,1.00835.13252,1.27461a1.17133,1.17133,0,0,1-.141.205c-.02811.03516-.05636.07032-.08146.1072-.35987.52927-.7099,1.08021-1.04843,1.613a21.42067,21.42067,0,0,1-3.43545,4.47553,8.14493,8.14493,0,0,0-1.81288,2.73236,2.26141,2.26141,0,0,0,.02444,2.3827,3.51105,3.51105,0,0,0,2.88725,1.67855,4.1253,4.1253,0,0,0,1.35282-.24724c.5848-.204,1.12488-.39229,1.22763-1.09774a1.43975,1.43975,0,0,0-.86753-1.5688,1.90427,1.90427,0,0,1-.26278-.1971.77352.77352,0,0,0-.43923-.243.46115.46115,0,0,0-.30119.14421c-.24353.22006-.14918.38446.03855.65605a2.1953,2.1953,0,0,1,.12965.20318.79928.79928,0,0,1,.12343.61476.51292.51292,0,0,1-.278.29994.9536.9536,0,0,1-.43125.10752,1.2032,1.2032,0,0,1-.84665-.41822c-.07557-.07673-.16588-.154-.26149-.23583-.36548-.31274-.82035-.702-.48989-1.216.18323-.285.34832-.59477.508-.89439a5.18794,5.18794,0,0,1,1.63611-2.09143,3.943,3.943,0,0,1,2.10317-.71079,1.96185,1.96185,0,0,1,1.28241.43024.911.911,0,0,1,.37791,1.06866.94115.94115,0,0,1-.69608.67154.87129.87129,0,0,1-.16652.01665,1.15422,1.15422,0,0,1-.7395-.35542c-.04346-.03608-.0873-.07245-.13243-.10766-.04783-.03729-.09667-.08016-.14654-.124a.82384.82384,0,0,0-.45-.26515c-.1142,0-.22636.08257-.34284.25253-.24915.36349-.07218.54319.23713.8063.05311.04513.10594.09013.1546.13628.06889.06531.13643.13378.20415.20248a2.71876,2.71876,0,0,0,.61286.51262,2.12278,2.12278,0,0,0,.988.27767,1.46408,1.46408,0,0,0,.85357-.27507,2.55415,2.55415,0,0,0,.32628-4.12949,3.2387,3.2387,0,0,0-2.05943-1.00321l-.10961.022-.13174.0264.02407-.13216.02218-.12176a9.65392,9.65392,0,0,1,.75731-1.19562,24.61108,24.61108,0,0,0,2.02306-3.32653,1.17753,1.17753,0,0,1,1.04588-.828l.02807-.00037c.50408,0,.65307.37174.78449.69974.02964.07394.059.14761.09254.21658a1.41724,1.41724,0,0,1,.08883.27392c.06355.253.1111.39614.34957.39614h.03173c.23847,0,.286-.1431.34952-.39614a1.4185,1.4185,0,0,1,.08888-.27392c.03344-.06893.06285-.14254.09245-.21644.13146-.328.2805-.69988.78458-.69988l.028.00037a1.17756,1.17756,0,0,1,1.04588.828,24.60682,24.60682,0,0,0,2.02311,3.32653,10.45971,10.45971,0,0,1,.75411,1.18318l.02533.1342.02407.13216-.13174-.0264-.10961-.022a3.23861,3.23861,0,0,0-2.05943,1.00321,2.55414,2.55414,0,0,0,.32629,4.12949,1.46407,1.46407,0,0,0,.85356.27507,2.12274,2.12274,0,0,0,.988-.27767,2.71766,2.71766,0,0,0,.61286-.51262c.06772-.0687.13526-.13717.20415-.20248.04866-.04615.10149-.09115.1546-.13628.30936-.26311.48632-.44281.23713-.8063-.11647-.16991-.22864-.25253-.34289-.25253a.82333.82333,0,0,0-.44986.2651c-.04991.04384-.09875.08675-.14662.124-.04509.03516-.08893.07158-.13239.10762a1.15427,1.15427,0,0,1-.7395.35546.87219.87219,0,0,1-.16657-.01665.94115.94115,0,0,1-.69608-.67154.91092.91092,0,0,1,.37791-1.06861,1.96161,1.96161,0,0,1,1.28241-.43029,3.943,3.943,0,0,1,2.10317.71079,5.18786,5.18786,0,0,1,1.63611,2.09143c.15966.29957.32475.60939.508.89439.33046.514-.12441.90324-.48989,1.216-.0956.08182-.18592.1591-.26148.23583a1.20313,1.20313,0,0,1-.84665.41822.95364.95364,0,0,1-.43122-.10752.51293.51293,0,0,1-.27794-.29994.799.799,0,0,1,.12338-.61476,2.19817,2.19817,0,0,1,.1297-.20318c.18768-.27159.282-.436.0385-.65605a.461.461,0,0,0-.30123-.14421.77358.77358,0,0,0-.43919.24293,1.89838,1.89838,0,0,1-.26278.19714,1.43967,1.43967,0,0,0-.86748,1.5688c.10275.70545.64278.89378,1.21454,1.09319a4.15122,4.15122,0,0,0,1.36586.25179,3.511,3.511,0,0,0,2.88725-1.6786,2.26123,2.26123,0,0,0,.02444-2.38265,8.14428,8.14428,0,0,0-1.81288-2.73236,21.42424,21.42424,0,0,1-3.4355-4.47553c-.33848-.5328-.68851-1.08369-1.04838-1.613-.02505-.03688-.0533-.072-.08141-.1072a1.16885,1.16885,0,0,1-.14106-.205c-.133-.26626-.44457-.88988.13252-1.27461a.59165.59165,0,0,1,.3268-.11119c.27057,0,.45746.23142.62237.43557l.07218.08823c2.20564,2.62785,5.17379,4.33414,8.04424,5.9843l.20378.11717a5.01779,5.01779,0,0,0,2.49885.61,6.15246,6.15246,0,0,0,4.55662-1.92013c.08488-.1.17617-.2036.27071-.31084a4.546,4.546,0,0,0,1.36048-2.39444c.20025-2.2215-.46791-2.97909-2.45015-3.99937-.12079-.06211-.24511-.11736-.36947-.17265-.10117-.045-.20234-.09-.30179-.13856a1.29054,1.29054,0,0,0-.57047-.12139,3.01306,3.01306,0,0,0-2.48864,1.76492,2.054,2.054,0,0,0,.59843,2.37347,1.52375,1.52375,0,0,0,2.27012-.00148.52072.52072,0,0,0,.16393-.35333c-.051-.38241-.41943-.437-.97574-.47653-.13671-.00974-.27805-.01981-.40482-.04031a.72814.72814,0,0,1-.61407-.43256.83507.83507,0,0,1,.21923-.81729,1.62291,1.62291,0,0,1,1.16045-.65716,1.11276,1.11276,0,0,1,.59088.17757,4.72007,4.72007,0,0,1,1.81989,1.87542,1.2108,1.2108,0,0,1,.01549,1.05172,7.57961,7.57961,0,0,0-.45649.63031,4.15084,4.15084,0,0,1-.92542,1.0725,4.899,4.899,0,0,1-3.00627.92022,5.59076,5.59076,0,0,1-4.47943-1.99954,1.40416,1.40416,0,0,1,.00955-1.8082l.02464-.034c.20651-.28514.46345-.64005.85662-.64005a.73191.73191,0,0,1,.26338.05187.67582.67582,0,0,1,.41271.37035,1.07363,1.07363,0,0,1-.11861.84767c-.0187.03961-.04041.08173-.063.12561-.1559.30217-.25035.52761-.04471.67762a.79909.79909,0,0,0,.46382.17664c.459,0,.81088-.60507.88589-1.19a2.94822,2.94822,0,0,0-.80175-1.9412,2.25542,2.25542,0,0,0-1.09162-.29566,2.897,2.897,0,0,0-2.07409,1.0822,2.819,2.819,0,0,0-.46618.787c-.04834.10651-.09681.21306-.15025.31785-.15683.30735-.35379.46321-.5854.46321a.92064.92064,0,0,1-.58753-.28388,8.964,8.964,0,0,1-1.47042-1.69154c-.57853-.85078-1.19413-1.69808-1.78946-2.51745l-.358-.49314c-.13833-.19079-.42611-.58781-.1393-.94838a.59544.59544,0,0,1,.47834-.24845,1.22044,1.22044,0,0,1,.64162.25652,4.29529,4.29529,0,0,1,.53846.46832,2.83652,2.83652,0,0,0,.74316.58081,8.767,8.767,0,0,0,3.693.78742,7.25559,7.25559,0,0,0,5.46514-2.1607c.49694-.55673.74878-.82434,1.04055-.82434.29544,0,.57329.27758,1.0778.78148a5.45857,5.45857,0,0,0,1.42328,1.11565,2.4371,2.4371,0,0,0,1.08206.2619,2.58273,2.58273,0,0,0,1.94978-.96355,1.80947,1.80947,0,0,0,.48446-1.40723,2.95021,2.95021,0,0,0-1.09983-1.49087.77816.77816,0,0,0-.45733-.19835.57632.57632,0,0,0-.48738.62849.58242.58242,0,0,0,.376.33079,1.11274,1.11274,0,0,1,.73351.62724.92121.92121,0,0,1-.1784.78463,1.08392,1.08392,0,0,1-.95158.52227,1.89258,1.89258,0,0,1-.64936-.12947,2.02927,2.02927,0,0,1-1.26367-1.23226,2.2536,2.2536,0,0,1,.2856-1.93447,6.87328,6.87328,0,0,1,4.61622-2.90742,4.72517,4.72517,0,0,1,1.099-.13619,3.51175,3.51175,0,0,1,3.03124,1.66431,1.55073,1.55073,0,0,1-.04268,1.96735,1.87718,1.87718,0,0,1-1.50279.86061,1.91037,1.91037,0,0,1-.53349-.08015,1.27819,1.27819,0,0,1-1.0277-1.10572c-.01387-.59185.55432-.68027.96916-.74484l.06985-.01094c.09334-.01489.34113-.05437.3948-.15531.00687-.01285.0277-.052-.01438-.14259a1.03831,1.03831,0,0,0-1.00594-.59175,2.43331,2.43331,0,0,0-1.26325.42026,1.20516,1.20516,0,0,0-.54551.906,1.98444,1.98444,0,0,0,.46331,1.50419,4.03722,4.03722,0,0,0,2.74656,1.555,3.51386,3.51386,0,0,0,2.48689-1.42027,3.10429,3.10429,0,0,0,.36051-3.48805,4.95532,4.95532,0,0,0-4.53425-2.70592c-.08285,0-.16546.00158-.24924.00468a7.5411,7.5411,0,0,0-3.1882.72405l-.21988.11008a17.96687,17.96687,0,0,0-5.5697,4.85117,8.42241,8.42241,0,0,1-2.857,2.38525,4.897,4.897,0,0,1-2.20077.534,5.80392,5.80392,0,0,1-2.18616-.45834c-.16-.06425-.53466-.21482-.5129-.60651.01786-.32076.28273-.47263.53948-.57886a3.10286,3.10286,0,0,1,1.23013-.17553l.068,0,.06782.00005c.16008,0,.33041-.00112.4981-.01448a4.36408,4.36408,0,0,0,3.63-3.06416c.83269-2.6139-.98646-4.28869-2.96657-4.9844a1.38433,1.38433,0,0,0-.458-.07023,3.15828,3.15828,0,0,0-2.23143,1.08462,2.17275,2.17275,0,0,0-.04318,2.51161,1.50281,1.50281,0,0,0,1.28922.79075c.0494.00074.09983.00227.15076.00385.07125.00218.14352.00441.21537.00441.39981,0,.69107-.07663.81284-.45065a.75246.75246,0,0,0-.02835-.61523.84947.84947,0,0,0-.582-.37137c-.17117-.03831-.692-.15493-.6079-.71426a.93085.93085,0,0,1,.8165-.79057,1.80261,1.80261,0,0,1,.36418-.039,2.02812,2.02812,0,0,1,1.48373.82387,1.75833,1.75833,0,0,1,.45222,1.948,3.85333,3.85333,0,0,1-3.66575,2.46991,3.95455,3.95455,0,0,1-1.323-.22623c-6.00629-2.12608-5.655-10.14338-5.53955-12.77791.006-.13675.01132-.25912.01517-.36562a12.39589,12.39589,0,0,1,1.72591-6.2791,6.18762,6.18762,0,0,1,3.79091-2.5649.58035.58035,0,0,1,.17349-.02412,3.78319,3.78319,0,0,1,2.436,1.646,2.15237,2.15237,0,0,1-1.00084,2.31164,1.23947,1.23947,0,0,1-.54658.16286.68567.68567,0,0,1-.41929-.14435,1.46719,1.46719,0,0,1-.57287-.866.38274.38274,0,0,1,.08145-.29971,3.43292,3.43292,0,0,1,.45659-.40546c.41321-.32647.65131-.54338.47463-.80222a.26335.26335,0,0,0-.21185-.06995,3.49638,3.49638,0,0,0-2.35617,1.53712.55325.55325,0,0,0,.08572.6515,3.679,3.679,0,0,0,2.51514,1.45167c1.00789,0,1.95348-.81979,2.81048-2.43664.30652-.57835-.39573-1.77564-.7838-2.26488a4.52689,4.52689,0,0,0-3.554-2.0933,5.32016,5.32016,0,0,0-2.00734.4442c-.03651.01485-.07343.03117-.11063.04764a1.13109,1.13109,0,0,1-.44388.12859.49708.49708,0,0,1-.39192-.1971.76687.76687,0,0,1,.01545-.97292,39.28668,39.28668,0,0,1,3.70658-4.607.75131.75131,0,0,1,.527-.26254.68721.68721,0,0,1,.588.94726c-.84572,1.71816.17145,2.68834,1.3827,3.61065a1.314,1.314,0,0,0,.78013.32192,1.4566,1.4566,0,0,0,1.00928-.58113c.757-.78626.95562-1.567.55919-2.1985a.69567.69567,0,0,0-.58451-.365.6773.6773,0,0,0-.10479.00835c-.204.032-.20846.14185-.199.36748.0019.04541.00371.09059.00255.13373-.01248.48335-.02964,1.14529-.71881,1.14529a1.43556,1.43556,0,0,1-.2806-.03085,1.29483,1.29483,0,0,1-.88394-.635,1.4724,1.4724,0,0,1-.09171-1.21714,5.60552,5.60552,0,0,1,5.32-3.51356,5.33918,5.33918,0,0,1,3.4541,1.22062,3.42962,3.42962,0,0,1,1.11639,3.07024,3.471,3.471,0,0,1-2.733,2.10507q-.05247.00258-.10228.00256a.97627.97627,0,0,1-1.07557-1.05011.90572.90572,0,0,1,.18722-.70489.76391.76391,0,0,1,.585-.21486,1.69932,1.69932,0,0,1,.2568.0211l.04689.00738a1.72737,1.72737,0,0,0,.25615.02811c.15651,0,.25531-.04912.26413-.29358a.6548.6548,0,0,0-.505-.744,2.98777,2.98777,0,0,0-.58043-.06778,1.15132,1.15132,0,0,0-.89462.3653,2.33489,2.33489,0,0,0-.72576,2.10345,1.406,1.406,0,0,0,.57129,1.04607c1.0804.58879.80852,1.29841.37393,2.09779a2.00286,2.00286,0,0,0,.13392,1.83594,2.44577,2.44577,0,0,0,1.71041,1.37964,1.25675,1.25675,0,0,0,.14714.009.56163.56163,0,0,0,.62047-.44851.395.395,0,0,0-.03947-.30866.60875.60875,0,0,0-.392-.23828c-1.07988-.24725-1.21167-.882-1.132-1.371a2.84885,2.84885,0,0,1,1.444-1.939.69678.69678,0,0,1,.36209-.11462c.31826,0,.52872.27554.71445.5187.02946.03855.05845.07654.0873.11258a5.45368,5.45368,0,0,1,.47811.75105,3.76373,3.76373,0,0,0,.76557,1.05061,12.61,12.61,0,0,0,5.49979,2.78752,4.8068,4.8068,0,0,1,3.24846,2.36428,1.96,1.96,0,0,1,.2638,1.51286,1.83259,1.83259,0,0,1-.978,1.08327,1.69073,1.69073,0,0,1-.77985.23221,1.01577,1.01577,0,0,1-.699-.28458,1.08389,1.08389,0,0,1-.21384-1.597c.04361-.05789.09435-.11634.14556-.1752.13773-.15818.28009-.32174.25712-.46229-.01451-.089-.09764-.17864-.24705-.26636a.774.774,0,0,0-1.14311.34651,3.78329,3.78329,0,0,1-.52876.627c-.072.0738-.144.14751-.213.22294-.08906.09722-.36362.43752-.15753.73388a3.8537,3.8537,0,0,0,2.68176,1.97385,2.89889,2.89889,0,0,0,.3582.023,3.11927,3.11927,0,0,0,2.4892-1.58555,2.52157,2.52157,0,0,0-.01526-2.89179,6.51491,6.51491,0,0,0-2.835-2.50924c-.25731-.10929-.51225-.22405-.76756-.339a11.99439,11.99439,0,0,0-2.66738-.9525,4.59926,4.59926,0,0,1-3.22893-2.138,2.3237,2.3237,0,0,1,.26046-2.84271c.57613-.7222.93627-1.0444,1.54746-1.0444a3.09143,3.09143,0,0,1,.726.10715,1.60163,1.60163,0,0,1,1.00821.71826.86326.86326,0,0,1,.09927.68694,1.11235,1.11235,0,0,1-1.18806.823c-.07519,0-.15224-.004-.23082-.0115a1.92518,1.92518,0,0,1-.40973-.10591,1.49227,1.49227,0,0,0-.42875-.10154c-.11954,0-.25272.03748-.3345.31543-.15428.5245.359.80565.81186,1.05372l.07872.04319a1.17839,1.17839,0,0,0,.57733.13916,2.27639,2.27639,0,0,0,2.01453-1.53238,4.08441,4.08441,0,0,0,.096-.44666,1.716,1.716,0,0,1,.68722-1.2973l.04935-.03358.05052.03177a13.0946,13.0946,0,0,1,1.16134.85653,8.107,8.107,0,0,0,2.0059,1.29433,1.03761,1.03761,0,0,1,.64672.574,1.262,1.262,0,0,1-.18258,1.03c-.73235,1.34985-.4776,2.44384.826,3.54715a3.61971,3.61971,0,0,1,.33811.34187c.06012.06647.12024.133.183.19649a2.36458,2.36458,0,0,0,1.48507.86117,1.063,1.063,0,0,0,.53294-.14825c.13925-.07988.28467-.15725.43172-.23551.86479-.46,1.759-.93576,1.803-2.13342.00214-.05877.00645-.11977.01076-.1816.03169-.44972.02357-.72943-.35467-.82151a.50105.50105,0,0,0-.11722-.01572c-.19366,0-.251.16212-.32855.42666a1.842,1.842,0,0,1-.09217.26478,1.55589,1.55589,0,0,1-1.488,1.01336l-.04059-.00037-.09425-.00158c-.53823-.00844-1.14826-.018-1.47557-.586a1.79106,1.79106,0,0,1,.12316-2.02408,3.07181,3.07181,0,0,1,2.37565-1.431,5.82387,5.82387,0,0,0,3.12271-1.40078A4.49332,4.49332,0,0,0,142.717,97.99793Zm-64.06767,2.26548a1.47571,1.47571,0,0,1-.83245-.32359.66494.66494,0,0,1-.32012-.5026.48676.48676,0,0,1,.2055-.40268,4.00089,4.00089,0,0,1,1.81692-.82532h0a.45122.45122,0,0,1,.35324.13179.49419.49419,0,0,1,.09389.39925C79.60319,99.78568,79.18613,100.26341,78.64934,100.26341Zm3.23678-4.83822a1.10534,1.10534,0,0,1-1.03243.72367q-.03514,0-.07088-.00218c-.53271-.03237-1.19678-.1681-1.33524-.63085-.0334-.11156-.07835-.24326-.12757-.38747-.23207-.67985-.54982-1.61087-.25577-2.12349a.70546.70546,0,0,1,.49865-.33914,1.24595,1.24595,0,0,1,.2465-.02639h.00014c.53851,0,.77684.40635,1.02923.83658a2.713,2.713,0,0,0,.55344.73676C81.61132,94.397,82.12445,94.82874,81.88612,95.42519Zm23.02845-32.06863a2.63456,2.63456,0,0,1,.49087-.29242,1.39793,1.39793,0,0,1,.54035-.11736.99987.99987,0,0,1,.879.51429,1.75506,1.75506,0,0,1,.06536,1.98535c-.15586.25253-.3132.37017-.49513.37017a.84189.84189,0,0,1-.40477-.15113,1.46413,1.46413,0,0,0-.24951-.12441.7137.7137,0,0,0-.23157-.04045.476.476,0,0,0-.395.184.3735.3735,0,0,0-.03873.35018,1.52338,1.52338,0,0,0,1.287,1.05919,3.26234,3.26234,0,0,0,.38774.0283.82731.82731,0,0,0,.89323-.59408,2.04707,2.04707,0,0,1,.39516-.66041,1.13167,1.13167,0,0,1,.7953-.4685c.30041,0,.56448.2156.78487.64083a1.83652,1.83652,0,0,1,.13058.37624,1.77968,1.77968,0,0,0,.109.32522,2.47434,2.47434,0,0,0,2.26827,1.48229l.05668.00065a2.52727,2.52727,0,0,0,2.2274-1.49908,2.88561,2.88561,0,0,0,.00454-2.39342.48955.48955,0,0,0-.40644-.29548.5452.5452,0,0,0-.2779.09017c-.12984.07863-.07811.27257.01559.55947a1.78464,1.78464,0,0,1,.1026.42328,1.59191,1.59191,0,0,1-1.35569,1.66807,1.27218,1.27218,0,0,1-.33668.04769c-.53762,0-.98873-.39527-1.30463-1.14311a4.28784,4.28784,0,0,1,.33445-3.8886,2.84543,2.84543,0,0,1,2.43772-1.31163q.08439,0,.171.00422a3.26376,3.26376,0,0,1,2.55131.96136c.698.87546.55349,2.35.29335,3.81313a8.10137,8.10137,0,0,1-.35741,1.23444,6.01544,6.01544,0,0,0-.37188,1.42064,10.38127,10.38127,0,0,1-1.66139,4.25979q-.138.23991-.27544.48094a1.52435,1.52435,0,0,1-.97793.892,1.98525,1.98525,0,0,1-.42495.06615c-.29733,0-.47147-.166-.53233-.50756-.023-.12868-.03678-.2594-.05056-.39a3.71189,3.71189,0,0,0-.08-.52315,2.43188,2.43188,0,0,0-2.30519-2.00034,2.535,2.535,0,0,0-1.56421.57548,2.80634,2.80634,0,0,0-1.24511,3.07841,1.2989,1.2989,0,0,0,1.1189.9718.925.925,0,0,0,.47435-.13559.1649.1649,0,0,0,.08887-.10544c.03155-.13085-.107-.34989-.22924-.54314a1.89961,1.89961,0,0,1-.2382-.45853,1.19965,1.19965,0,0,1,.67127-1.49,1.44674,1.44674,0,0,1,.6412-.16152,1.34153,1.34153,0,0,1,.97964.46062A2.09277,2.09277,0,0,1,110.886,73.962a4.23,4.23,0,0,1-2.54519,3.2673,2.97839,2.97839,0,0,1-.7812.1021,4.15428,4.15428,0,0,1-2.85274-1.27,3.48922,3.48922,0,0,1-1.09528-2.45575c.00631-.77527.36441-1.22132,1.00826-1.256.60113-.03238,2.05405-1.53122,2.1568-1.90937a1.88071,1.88071,0,0,0-.42031-1.51847,1.2276,1.2276,0,0,0-.78695-.55376.28774.28774,0,0,0-.2696.19543c-.036.077.08465.26431.20136.4454.30861.47885.77494,1.20253-.21,1.84805a.85643.85643,0,0,1-.47161.15233c-.348,0-.69706-.24733-1.03744-.73509A5.31592,5.31592,0,0,1,104.91457,63.35656ZM96.26915,77.2293A4.23,4.23,0,0,1,93.724,73.962a2.09266,2.09266,0,0,1,.58554-1.57641,1.34161,1.34161,0,0,1,.97964-.46062,1.44665,1.44665,0,0,1,.64121.16152,1.19965,1.19965,0,0,1,.67126,1.49,1.89782,1.89782,0,0,1-.2382.45853c-.12227.19325-.26078.41229-.22924.5431a.16484.16484,0,0,0,.08888.10548.925.925,0,0,0,.47435.13559,1.29885,1.29885,0,0,0,1.11894-.9718,2.80627,2.80627,0,0,0-1.24516-3.07841,2.53566,2.53566,0,0,0-1.56425-.57548,2.43162,2.43162,0,0,0-2.30515,2.00034,3.70205,3.70205,0,0,0-.07992.52306c-.01378.13062-.02765.26138-.05061.39015-.06086.3415-.235.50752-.53233.50752a1.98429,1.98429,0,0,1-.425-.06615,1.52437,1.52437,0,0,1-.97793-.892q-.13678-.24125-.27535-.48075a10.383,10.383,0,0,1-1.66152-4.26,6.01289,6.01289,0,0,0-.37184-1.42064,8.10075,8.10075,0,0,1-.35741-1.23439c-.26009-1.46313-.40463-2.93772.29335-3.81318a3.26369,3.26369,0,0,1,2.55132-.96136c.05761-.00283.1149-.00422.171-.00422a2.84564,2.84564,0,0,1,2.4379,1.31158,4.28788,4.28788,0,0,1,.33427,3.88865c-.31585.74784-.767,1.14311-1.30463,1.14311a1.272,1.272,0,0,1-.33667-.04769,1.59192,1.59192,0,0,1-1.3557-1.66807,1.78663,1.78663,0,0,1,.10261-.42328c.0937-.2869.14542-.48084.01563-.55947a.54524.54524,0,0,0-.27795-.09017.4894.4894,0,0,0-.40649.29525,2.8855,2.8855,0,0,0,.00459,2.39365,2.52728,2.52728,0,0,0,2.22745,1.49908l.05664-.00065a2.47446,2.47446,0,0,0,2.26831-1.48229,1.78293,1.78293,0,0,0,.109-.32522,1.83888,1.83888,0,0,1,.13057-.37624c.22039-.42523.48447-.64083.78491-.64083a1.1315,1.1315,0,0,1,.79526.46855,2.04655,2.04655,0,0,1,.39517.66036.8273.8273,0,0,0,.89322.59408,3.264,3.264,0,0,0,.38774-.0283,1.52338,1.52338,0,0,0,1.287-1.05919.37352.37352,0,0,0-.03869-.35013.4762.4762,0,0,0-.39507-.184.71364.71364,0,0,0-.23152.04045,1.46376,1.46376,0,0,0-.24951.12441.84241.84241,0,0,1-.40482.15113c-.18193,0-.33927-.11764-.49513-.37017a1.75506,1.75506,0,0,1,.06536-1.98535.99987.99987,0,0,1,.879-.51429,1.39883,1.39883,0,0,1,.54036.11731,2.63728,2.63728,0,0,1,.49086.29247,5.31593,5.31593,0,0,1,1.13249,6.91756c-.34039.48776-.68945.73509-1.03749.73509a.8558.8558,0,0,1-.47152-.15238c-.985-.64552-.51865-1.3692-.21-1.84805.11666-.18109.23731-.36831.20136-.44535a.28778.28778,0,0,0-.26964-.19543,1.22778,1.22778,0,0,0-.787.55367,1.88069,1.88069,0,0,0-.42027,1.51856c.1028.37815,1.55568,1.877,2.1568,1.90937.64385.0347,1.00195.48075,1.00826,1.256a3.48911,3.48911,0,0,1-1.09528,2.45566,4.15436,4.15436,0,0,1-2.85274,1.27012A2.97845,2.97845,0,0,1,96.26915,77.2293Zm6.81445,15.31151a10.8655,10.8655,0,0,1-.20578,1.66083.67285.67285,0,0,1-.43135.42936.298.298,0,0,1-.08038.01006l-.0373-.0012-.025-.00092-.02263.00092-.03734.0012a.29858.29858,0,0,1-.0803-.01.67291.67291,0,0,1-.43144-.42944,10.86171,10.86171,0,0,1-.20577-1.66079c-.1008-2.93326-2.71636-10.71737-3.58546-11.70007a1.056,1.056,0,0,1-.28848-.97728.806.806,0,0,1,.56438-.54532c1.6921-.5135,2.59084-1.80263,3.54233-3.16742.11114-.15948.22237-.319.33505-.47737l.04764-.067.07152.04045a.09522.09522,0,0,0,.18332,0l.07153-.04041.04764.06694q.16894.23748.335.47727c.95148,1.36484,1.85018,2.654,3.54236,3.16752a.80608.80608,0,0,1,.56435.54532,1.056,1.056,0,0,1-.28848.97728C105.8,81.82344,103.18439,89.60755,103.0836,92.54081Zm20.74353,3.60587c-.02379.00144-.0475.00218-.07088.00218a1.10534,1.10534,0,0,1-1.03243-.72367c-.23833-.59645.2748-1.02817.49393-1.21251a2.71468,2.71468,0,0,0,.55353-.73671c.25239-.43024.49082-.83663,1.02928-.83663a1.247,1.247,0,0,1,.2465.02639.70542.70542,0,0,1,.49865.33914c.294.51262-.0237,1.44364-.25573,2.12344-.04926.14426-.09421.276-.12761.38752C125.02391,95.97858,124.35984,96.11431,123.82713,96.14668Zm2.96592,3.79314a1.47584,1.47584,0,0,1-.83245.32359c-.53679,0-.95385-.47773-1.31252-1.50334a.50528.50528,0,0,1,.08939-.419.45121.45121,0,0,1,.35328-.13183,4.00117,4.00117,0,0,1,1.81692.82532.48662.48662,0,0,1,.2055.40268A.6648.6648,0,0,1,126.79305,99.93982Z" style="fill: #fff"/>
      <g>
        <path class="falling-1" d="M83.5573,87.763a3.464,3.464,0,0,1,4.6279-.3283C86.63193,88.94058,85.46888,89.02605,83.5573,87.763Z" style="fill: #fff"/>
        <path class="falling-3" d="M94.66625,69.816c.00235-.07325.0028-.1466-.001-.21982-.00193-.037-.00592-.07363-.00924-.11054l0-.00142-.00121-.00762-.00763-.051c-.00862-.05521-.01848-.11022-.02836-.16522a2.20864,2.20864,0,0,1-.13839-.398,1.58718,1.58718,0,0,0-2.11234-.82921,2.18406,2.18406,0,0,0,1.453,2.043,3.2064,3.2064,0,0,0,.67249-.03022c.05563-.00792.11-.02146.16491-.03289C94.6611,69.94761,94.66411,69.882,94.66625,69.816Z" style="fill: #fff"/>
        <path class="falling-2" d="M131.47411,74.47141c-1.1159,1.90737-1.7562,2.13974-3.59978,1.40013C129.19359,73.92491,129.2,73.92222,131.47411,74.47141Z" style="fill: #fff"/>
      </g>
    </g>
  </g>
</svg>
