<svg xmlns="http://www.w3.org/2000/svg" viewBox="0 0 204.40449 204.40449">
  <title>trials-of-osiris</title>
  <g class="Layer_2" data-name="Layer 2">
    <g class="trials">
      <g>
        <circle cx="102.20221" cy="102.20218" r="56.54498" style="fill: #caa265"/>
        <path d="M102.20227,47.1569a55.04533,55.04533,0,1,1-55.04491,55.04534A55.10748,55.10748,0,0,1,102.20227,47.1569m0-3a58.04533,58.04533,0,1,0,58.04492,58.04534A58.11074,58.11074,0,0,0,102.20227,44.1569Z" style="fill: #fff"/>
      </g>
      <g>
        <path d="M91.44858,131.443a55.0018,55.0018,0,0,1-6.10107-4.61952l-.65132-.57025c-1.20565-1.05455-2.45234-2.14495-3.62532-3.277-.90444-.87287-1.77626-1.805-2.61943-2.70635q-.56628-.60545-1.1364-1.20686c-.19451-.20381-.39377-.40376-.593-.60371a18.24894,18.24894,0,0,1-1.28119-1.37791c-1.13162-1.399-2.46135-3.06551-3.7439-4.819a27.42149,27.42149,0,0,1-3.3204-5.60252,11.70979,11.70979,0,0,1-.88192-6.40732A13.2483,13.2483,0,0,1,69.634,94.82528c1.22858-1.82417,2.34625-3.466,3.58357-5.0859,1.40426-1.8386,2.87973-3.57447,4.13783-5.03.71052-.822,1.4917-1.60063,2.24717-2.35363q.27018-.26928.53935-.53907c.73934-.74307,1.41466-1.38777,2.06458-1.97106q.38823-.3484.774-.70043c.91687-.833,1.86492-1.69444,2.86231-2.466,1.73185-1.33964,3.5442-2.63082,5.29689-3.87943l.61017-.43488a2.43551,2.43551,0,0,0,.90074-1.13551,5.8286,5.8286,0,0,0-.813.23291q-.84532.33673-1.69438.66564c-1.62558.6342-3.30652,1.29-4.91081,2.0314-2.39918,1.10882-4.72127,2.29967-6.90183,3.53955a47.59629,47.59629,0,0,0-6.69394,4.52426q-.60489.49521-1.21461.98585c-1.40334,1.13418-2.85449,2.30694-4.179,3.56112-1.59725,1.51239-3.08753,3.19942-4.52872,4.83092l-.201.22753c-1.385,1.56736-2.68148,3.18564-3.767,4.5619-.79819,1.01216-1.537,2.09194-2.22522,3.11112-.36005.53318-.69736,1.09926-1.02354,1.64668-.13673.22949-.27349.459-.41234.68709v.2973l.38792.60618c.30894.48359.61789.96712.9316,1.44762a64.36157,64.36157,0,0,0,5.8571,7.8085l.6331.712c.92584,1.043,1.88322,2.12148,2.8733,3.12985.93287.95017,1.95284,1.85251,2.93923,2.72519l.32962.2918.43267.3851a30.67683,30.67683,0,0,0,2.47679,2.05848c2.49536,1.79059,4.58274,3.27242,6.82975,4.68423,1.90961,1.19978,3.94256,2.2449,5.90862,3.2556a45.616,45.616,0,0,0,7.76948,3.09088c.41742.1248.83694.24265,1.2895.36979l.0501.01411A4.94073,4.94073,0,0,0,91.44858,131.443Z" style="fill: #fff"/>
        <path d="M149.51834,100.49467l-.52486-.7673c-.82859-1.21287-1.6854-2.467-2.57648-3.66094-.53743-.72011-1.143-1.41447-1.72863-2.08593-.23142-.26536-.46285-.53065-.691-.79835-.36192-.42451-.71818-.85472-1.07444-1.28492-.83548-1.009-1.6994-2.05228-2.624-2.99758-1.4319-1.46393-2.9898-2.85854-4.4964-4.20728l-.44564-.39908c-.94052-.843-1.91982-1.63719-2.91066-2.36046-1.12719-.82277-2.6194-1.89016-4.16635-2.84861-1.85584-1.14993-3.769-2.26273-5.68637-3.30759a73.86652,73.86652,0,0,0-7.80889-3.49869q-.59463-.2392-1.1887-.47936a14.11773,14.11773,0,0,0-1.52969-.48662q-.1607-.0446-.32315-.09021a2.173,2.173,0,0,0,.77306,1.05859q1.09671.81345,2.20342,1.614c1.37531,1.00115,2.7974,2.03634,4.16358,3.09967,1.41,1.09749,2.73224,2.2972,4.07523,3.53253.65255.6003,1.26635,1.25728,1.85995,1.89268.20859.22323.41714.44653.62756.66761q.36455.38313.73228.76356c.71916.747,1.46283,1.51935,2.15482,2.31764,1.044,1.20439,2.14647,2.495,3.14009,3.86671,1.3174,1.81873,2.54311,3.63981,3.64307,5.41269a11.90965,11.90965,0,0,1,1.81709,7.874,13.44268,13.44268,0,0,1-1.15252,3.90605,30.39415,30.39415,0,0,1-3.5944,5.74757l-.36014.482c-1.004,1.3447-2.04226,2.73519-3.17482,4.01113-1.39454,1.57109-2.96525,3.2017-4.94311,5.13145-1.40748,1.37316-2.90927,2.69167-4.36166,3.96685l-.29338.25757c-1.027.902-2.05051,1.7391-3.04214,2.488-.55159.4166-1.12823.81467-1.68583,1.19965-.58519.404-1.19032.82176-1.7621,1.25822a6.67063,6.67063,0,0,0-.91354.91146l-.00379.0043c.05933-.0167.11885-.03283.1786-.048a44.84373,44.84373,0,0,0,7.88113-2.89972c1.29542-.5996,2.63828-1.28669,3.99123-2.04222,1.55749-.86976,3.0422-1.75522,4.413-2.63163a55.41393,55.41393,0,0,0,7.11282-5.24336l.37539-.33614c1.44746-1.29561,2.94419-2.63531,4.32918-4.03364,1.394-1.40745,2.8146-2.9774,4.22227-4.66621,1.314-1.57646,2.52442-3.23687,3.53516-4.65324.65036-.91133,1.26708-1.8737,1.86352-2.80439.256-.3994.512-.79886.77137-1.19585v-.29787c-.07622-.12968-.15089-.26049-.22553-.39124C149.91252,101.12451,149.725,100.796,149.51834,100.49467Z" style="fill: #fff"/>
        <path d="M118.963,123.35513a.20791.20791,0,0,0-.19565-.09868.40125.40125,0,0,0-.05272.0036,2.783,2.783,0,0,0-.98689.35582,28.54353,28.54353,0,0,1-5.564,2.43371,35.75449,35.75449,0,0,1-4.55848,1.11122,41.28576,41.28576,0,0,1-4.468.52464c-.262.019-.54077.02866-.82853.02866-.716,0-1.42357-.05933-1.96-.111-1.59487-.15364-2.97913-.32753-4.23188-.53154a29.51514,29.51514,0,0,1-8.14516-2.73449c-.59761-.28807-1.16894-.59657-1.77383-.92322q-.29736-.16063-.6-.3228a.79389.79389,0,0,0-.01838.83878,21.94619,21.94619,0,0,0,4.92533,5.64149,23.77992,23.77992,0,0,0,6.83529,3.82369,12.81974,12.81974,0,0,0,4.43478.85744c.23946,0,.48106-.00835.718-.02486.19578-.0136.39232-.02423.589-.03492a12.25124,12.25124,0,0,0,1.743-.17756,17.56855,17.56855,0,0,0,4.6781-1.6785,33.7291,33.7291,0,0,0,3.621-2.21269,22.50738,22.50738,0,0,0,2.35161-1.99029l.134-.1243a10.104,10.104,0,0,0,1.24857-1.42c.69487-.9396,1.3898-1.93607,2.0655-2.96177A.27105.27105,0,0,0,118.963,123.35513Z" style="fill: #fff"/>
        <path d="M114.16327,75.10864a22.69047,22.69047,0,0,0-4.31678-2.86227,18.72652,18.72652,0,0,0-5.42363-1.902,14.19826,14.19826,0,0,0-4.37627-.044,16.51536,16.51536,0,0,0-4.04886,1.25133,22.99659,22.99659,0,0,0-6.4387,4.08912,19.25918,19.25918,0,0,0-3.87446,4.72212c-.24711.43387-.27649.63945-.07395.981.06038-.02885.12073-.058.18063-.08806.43014-.21551.8575-.43735,1.28489-.65919.94416-.4901,1.92048-.99685,2.91553-1.42636A29.53043,29.53043,0,0,1,95.73516,77.396a33.653,33.653,0,0,1,5.521-.67139c.29815-.01171.60444-.01772.91035-.01772a31.68556,31.68556,0,0,1,4.98413.43736,32.09351,32.09351,0,0,1,5.2424,1.29377,32.912,32.912,0,0,1,5.93338,2.677.39022.39022,0,0,0,.192.03581,1.11734,1.11734,0,0,0,.35756-.06389.76187.76187,0,0,0-.01031-.35683A20.371,20.371,0,0,0,114.16327,75.10864Z" style="fill: #fff"/>
        <g>
          <path d="M110.5297,103.40261c.429.69539.87516.74039,1.78081.555a4.1712,4.1712,0,0,1,2.50836.04287,3.3722,3.3722,0,0,1,1.87016,2.48338c.04426.163.057.33458.10457.62651-.40318-.30525-.72413-.54151-1.03786-.787a3.68045,3.68045,0,0,0-3.50907-.61238,4.154,4.154,0,0,1-2.62285.04615,2.8455,2.8455,0,0,1-1.07642-.71355c-.42584-.46316-.31983-1.10913.27376-1.6713a1.00459,1.00459,0,0,0,.27055-1.077,7.85593,7.85593,0,0,1,.04076-1.3886,1.635,1.635,0,0,0-.125-.53517c-.02693-.07594-.11773-.13037-.18226-.19168-.90795-.86254-.51931-1.65134.316-2.16573a3.13843,3.13843,0,0,1,2.74139-.24038,4.40178,4.40178,0,0,0,4.017-.69477c.26513-.17255.542-.327.8236-.49589a3.18993,3.18993,0,0,1-2.451,3.047,7.53615,7.53615,0,0,1-2.89211-.18953l-.39788.935,8.87894,1.44087C116.78128,102.4378,113.59016,102.43628,110.5297,103.40261Z" style="fill: #fff"/>
          <path d="M94.48976,100.60393v2.4567l.96964.74477v.93955c-.3266.24865-.66405.52348-1.01957.77252a2.93036,2.93036,0,0,1-2.44225.30944,15.71893,15.71893,0,0,0-1.71632-.31171,3.63881,3.63881,0,0,0-2.87283,1.0528,2.02289,2.02289,0,0,1-.19919.17638c-.10518.07147-.21928.12982-.40341.23659.32393-1.252.70443-2.35961,1.95123-2.89163a4.15988,4.15988,0,0,1,2.44722-.14849,1.91275,1.91275,0,0,0,1.84159-.32477c-2.73142-1.11612-5.6227-1.28789-8.47468-1.65343l-.00675-.14595c.58765-.13645,1.1701-.30386,1.76392-.40346,1.69575-.28442,3.39777-.53136,5.09355-.81555a10.94811,10.94811,0,0,0,1.343-.35864,1.22416,1.22416,0,0,0,.30862-.21376c-.38486-.54608-.78213-.61848-1.60542-.46405a4.35947,4.35947,0,0,1-2.83152-.18471,2.8107,2.8107,0,0,1-1.45522-1.6663c-.12387-.337-.21413-.68629-.31963-1.03l.09463-.0709c.35612.2313.72833.44145,1.06531.69789a3.75115,3.75115,0,0,0,3.24791.59035,4.38988,4.38988,0,0,1,2.60547-.14081,4.01343,4.01343,0,0,1,1.08867.62243,1.11516,1.11516,0,0,1-.02243,1.64147c-.21942.14827-.41365.33381-.61933.50242Z" style="fill: #fff"/>
          <path d="M100.21771,112.47735c-1.85123,1.06254-2.19033,2.813-2.25406,4.82447-.18723-.22176-.29823-.33716-.39088-.46578a4.02028,4.02028,0,0,1-.87005-1.78134,2.75147,2.75147,0,0,1,.57648-2.19964c.52429-.65383,1.12875-1.24272,1.67672-1.87848.34293-.39786.62354-.85009.9725-1.242a2.35492,2.35492,0,0,1,2.22768-.87481,2.22333,2.22333,0,0,1,1.70022,1.0849,16.32471,16.32471,0,0,0,2.28136,2.62868,2.98753,2.98753,0,0,1,.84565,1.95853,3.96346,3.96346,0,0,1-1.254,2.67989c-.03459-2.016-.49976-3.76617-2.38142-4.78862-.89557,2.51511-1.02355,5.20765-1.608,7.6918Z" style="fill: #fff"/>
          <path d="M97.95446,86.28436c.102,1.96686.3487,3.79971,2.3555,4.82266.855-2.3961.98185-4.95552,1.45453-7.45948.591,2.47523.69617,5.0506,1.58455,7.454,1.74127-1.24152,2.11455-1.48743,2.31919-4.86713a4.50417,4.50417,0,0,1,1.30388,2.44195,3.19335,3.19335,0,0,1-1.44877,2.9564,10.90539,10.90539,0,0,0-1.7457,2.07938,2.30721,2.30721,0,0,1-3.86955.0526,13.86125,13.86125,0,0,0-2.24116-2.59959,3.21314,3.21314,0,0,1-1.02566-2.16123,3.01928,3.01928,0,0,1,.78445-2.07677C97.59447,86.70711,97.77779,86.49829,97.95446,86.28436Z" style="fill: #fff"/>
          <path d="M93.72925,87.96173c.29623.779.54981,1.45533.81046,2.12887a2.75578,2.75578,0,0,0,1.58047,1.42048,14.00325,14.00325,0,0,1,1.93.99588,2.154,2.154,0,0,1,1.07555,2.095,1.15429,1.15429,0,0,1-.95384,1.09582c-.7828.04405-1.20655-.22363-1.352-.93408a1.00092,1.00092,0,0,0-.67366-.84713,4.81428,4.81428,0,0,1-2.92186-2.95952A3.58889,3.58889,0,0,1,93.72925,87.96173Z" style="fill: #fff"/>
          <path d="M114.46233,111.57465c-.6046-.56267-1.17164-1.15778-1.80923-1.66408a3.51329,3.51329,0,0,0-2.08592-.67108,4.406,4.406,0,0,1-2.87306-.71,2.7393,2.7393,0,0,1-.77047-1.03121,1.03315,1.03315,0,0,1,.57909-1.35269,15.1112,15.1112,0,0,1,1.47434-.45133l.85891,1.70037c.78162.0866,1.5457.12342,2.28987.26493a2.8814,2.8814,0,0,1,2.24951,2.48678c.0198.38014.05943.75921.08575,1.13906C114.46894,111.39821,114.46233,111.512,114.46233,111.57465Z" style="fill: #fff"/>
          <path d="M107.29764,93.5234c-.087.45531-.1505.84266-.23627,1.225a1.10185,1.10185,0,0,1-1.11488,1.02854,1.39569,1.39569,0,0,1-1.29028-.69306,1.79778,1.79778,0,0,1,.29944-1.95156,4.6436,4.6436,0,0,1,2.25708-1.50416,3.84749,3.84749,0,0,0,2.25571-2.29386c.16223-.41879.31171-.84252.46921-1.27a3.567,3.567,0,0,1,.26178,3.46349C109.5407,92.732,108.3401,93.04566,107.29764,93.5234Z" style="fill: #fff"/>
          <path d="M93.77158,97.262l.73954-.87523c-.56978-.11712-1.09179-.23141-1.61668-.33046A12.75507,12.75507,0,0,1,91.097,95.722a2.72427,2.72427,0,0,1-1.85865-2.379,4.22842,4.22842,0,0,1,.09018-1.40322c.14457.18386.28683.3696.43409.55129a4.23664,4.23664,0,0,0,3.31479,1.7999,8.18735,8.18735,0,0,1,2.18739.35287,2.06669,2.06669,0,0,1,1.46552,1.44133,1.23309,1.23309,0,0,1-.85459,1.481A3.62116,3.62116,0,0,1,93.77158,97.262Z" style="fill: #fff"/>
          <path d="M107.08676,109.77857c.62567.3346,1.23779.67217,1.859.99213a3.14038,3.14038,0,0,1,1.24852,4.2336c-.09309.17869-.17634.3625-.306.63044-.21854-.58415-.41067-1.08317-.59216-1.586a3.48677,3.48677,0,0,0-1.76208-1.97535c-.68585-.35334-1.37375-.70931-2.02611-1.11923a2.23422,2.23422,0,0,1-1.0234-1.92365,1.2331,1.2331,0,0,1,1.27283-1.19,1.15019,1.15019,0,0,1,1.222,1.162A5.7416,5.7416,0,0,0,107.08676,109.77857Z" style="fill: #fff"/>
          <path d="M93.70712,115.48668a3.19849,3.19849,0,0,1,1.06338-4.76615,5.79749,5.79749,0,0,1,.95577-.42673,1.59757,1.59757,0,0,0,1.07588-1.313c.07049-.341.13762-.68264.21406-1.06282a11.262,11.262,0,0,1,1.14664.00671c.78771.08091,1.175.83106.907,1.69839a3.17292,3.17292,0,0,1-2.09656,2.02607,4.85384,4.85384,0,0,0-2.75808,2.6924C94.04341,114.7198,93.878,115.101,93.70712,115.48668Z" style="fill: #fff"/>
          <path d="M114.38914,91.924a3.21056,3.21056,0,0,1-2.75659,4.04325c-.61138.06075-1.22215.12769-1.85215.19379a2.5363,2.5363,0,0,1-1.51545,1.51881c-.39815.11749-.71759.13194-.91089-.30592a1.19117,1.19117,0,0,0-.11827-.18192c-.69892-1.01919-.33661-1.52892.38567-2.15605a3.32285,3.32285,0,0,1,1.99482-.67826c.65679-.049,1.31706-.09795,1.96489-.21a3.74875,3.74875,0,0,0,2.43474-1.72991C114.12734,92.25828,114.25035,92.10691,114.38914,91.924Z" style="fill: #fff"/>
          <path d="M93.75126,107.37376l1.07535-1.67579a6.1777,6.1777,0,0,1,1.433.50168,1.15389,1.15389,0,0,1,.21885,1.799,2.8163,2.8163,0,0,1-2.303,1.16894c-.6326.00708-1.26449.06335-1.89716.08226a2.7101,2.7101,0,0,0-2.06539,1.25c-.30135.38169-.57775.78307-.89466,1.21551-.48224-2.27173.71812-4.01757,2.9012-4.15973C92.74,107.52179,93.257,107.43386,93.75126,107.37376Z" style="fill: #fff"/>
        </g>
      </g>
      <g>
        <polygon class="hexagon" points="142.26 32.818 62.246 32.818 22.239 102.112 62.246 171.406 142.26 171.406 182.267 102.112 142.26 32.818" style="fill: none;stroke: #fff;stroke-miterlimit: 10;opacity: 0.5"/>
        <polygon class="hexagon" points="102.253 22.099 32.959 62.105 32.959 142.119 102.253 182.126 171.547 142.119 171.547 62.105 102.253 22.099" style="fill: none;stroke: #fff;stroke-miterlimit: 10;opacity: 0.5"/>
      </g>
      <g>
        <g class="dots dots6" style="opacity: 0.1">
          <circle cx="102.25304" cy="102.11231" r="79.26315" style="fill: none;stroke: #fff;stroke-linecap: round;stroke-miterlimit: 10;stroke-dasharray: 0,3.000270366668701"/>
        </g>
        <g class="dots dots5" style="opacity: 0.2">
          <circle cx="102.25304" cy="102.11232" r="74.00856" transform="translate(-42.25509 102.21182) rotate(-45)" style="fill: none;stroke: #fff;stroke-linecap: round;stroke-miterlimit: 10;stroke-dasharray: 0,3.0001800060272217"/>
        </g>
        <g class="dots dots4" style="opacity: 0.3">
          <circle cx="102.25304" cy="102.11232" r="69.80029" style="fill: none;stroke: #fff;stroke-linecap: round;stroke-miterlimit: 10;stroke-dasharray: 0,3.0040109157562256"/>
        </g>
        <g class="dots dots3" style="opacity: 0.4">
          <circle cx="102.25304" cy="102.11232" r="66.37871" style="fill: none;stroke: #fff;stroke-linecap: round;stroke-miterlimit: 10;stroke-dasharray: 0,3.0003037452697754"/>
        </g>
        <g class="dots dots2" style="opacity: 0.5">
          <circle cx="102.25304" cy="102.11231" r="63.74985" style="fill: none;stroke: #fff;stroke-linecap: round;stroke-miterlimit: 10;stroke-dasharray: 0,2.9888880252838135"/>
        </g>
        <g class="dots dots1" style="opacity: 0.6">
          <circle cx="102.25304" cy="102.11232" r="61.83735" style="fill: none;stroke: #fff;stroke-linecap: round;stroke-miterlimit: 10;stroke-dasharray: 0,3.0114803314208984"/>
        </g>
      </g>
    </g>
  </g>
</svg>
