<svg xmlns="http://www.w3.org/2000/svg" viewBox="0 0 204.40449 204.40449">
  <title>trials-of-osiris</title>
  <g class="Layer_2" data-name="Layer 2">
    <g class="trials">
      <circle cx="102.20227" cy="102.20224" r="58.04511" style="fill: #caa265"/>
      <g style="opacity: 0.2">
        <polygon class="hexagon" points="142.26 32.818 62.246 32.818 22.239 102.112 62.246 171.406 142.26 171.406 182.267 102.112 142.26 32.818" style="fill: none;stroke: #fff;stroke-miterlimit: 10"/>
        <polygon class="hexagon" points="102.253 22.099 32.959 62.105 32.959 142.119 102.253 182.126 171.547 142.119 171.547 62.105 102.253 22.099" style="fill: none;stroke: #fff;stroke-miterlimit: 10"/>
      </g>
      <g>
        <g class="dots dots6" style="opacity: 0.1">
          <circle cx="102.25304" cy="102.11231" r="79.26315" style="fill: none;stroke: #fff;stroke-linecap: round;stroke-miterlimit: 10;stroke-dasharray: 0,3.000270366668701"/>
        </g>
        <g class="dots dots5" style="opacity: 0.2">
          <circle cx="102.25304" cy="102.11232" r="74.00856" transform="translate(-42.25509 102.21182) rotate(-45)" style="fill: none;stroke: #fff;stroke-linecap: round;stroke-miterlimit: 10;stroke-dasharray: 0,3.0001800060272217"/>
        </g>
        <g class="dots dots4" style="opacity: 0.3">
          <circle cx="102.25304" cy="102.11232" r="69.80029" style="fill: none;stroke: #fff;stroke-linecap: round;stroke-miterlimit: 10;stroke-dasharray: 0,3.0040109157562256"/>
        </g>
        <g class="dots dots3" style="opacity: 0.4">
          <circle cx="102.25304" cy="102.11232" r="66.37871" style="fill: none;stroke: #fff;stroke-linecap: round;stroke-miterlimit: 10;stroke-dasharray: 0,3.0003037452697754"/>
        </g>
        <g class="dots dots2" style="opacity: 0.5">
          <circle cx="102.25304" cy="102.11231" r="63.74985" style="fill: none;stroke: #fff;stroke-linecap: round;stroke-miterlimit: 10;stroke-dasharray: 0,2.9888880252838135"/>
        </g>
        <g class="dots dots1" style="opacity: 0.6">
          <circle cx="102.25304" cy="102.11232" r="61.83735" style="fill: none;stroke: #fff;stroke-linecap: round;stroke-miterlimit: 10;stroke-dasharray: 0,3.0114803314208984"/>
        </g>
      </g>
      <g>
        <path d="M125.54633,127.40647a30.36821,30.36821,0,0,0,8.72793-2.079,29.96674,29.96674,0,0,0,13.12417-10.207c.08479-.11548.17637-.22954.26493-.33985a24.17977,24.17977,0,0,0,1.32948-2.02344c.03009-.06143.0612-.125.09711-.18406a27.68392,27.68392,0,0,0,1.75548-3.4292,17.53745,17.53745,0,0,0,1.29746-9.15259,20.96122,20.96122,0,0,0-3.24968-8.491c-.01437-.02378-.0276-.04956-.04094-.07567-.05422-.10628-.627-.9832-.77526-1.20086a30.875,30.875,0,0,0-5.11393-5.80089,29.90937,29.90937,0,0,0-9.73034-5.7394,30.445,30.445,0,0,0-11.51037-1.76933,31.50586,31.50586,0,0,0-8.552,1.55472,9.689,9.689,0,0,0-1.02074.37732c-.11738.05382-.2611.14641-.27907.28182a.44351.44351,0,0,0,.20679.36034,1.18648,1.18648,0,0,0,1.10023.24985,25.86723,25.86723,0,0,1,6.14979-.6706,24.44627,24.44627,0,0,1,5.83248.61922,29.17022,29.17022,0,0,1,13.17864,6.69631,2.33907,2.33907,0,0,0,1.53344.60253c.68335.02771,1.37657.07739,2.047.12542q.29682.02129.59367.04206a.55863.55863,0,0,1,.39789.15085.387.387,0,0,1,.07807.29715c-.01885.2045-.03645.40922-.05408.61394-.05362.62354-.10909,1.26825-.20052,1.89832a2.27412,2.27412,0,0,0,.36914,1.71409,24.61485,24.61485,0,0,1,1.84378,3.13057,15.91405,15.91405,0,0,1,.83581,12.511,21.07528,21.07528,0,0,1-2.68973,5.125,2.07669,2.07669,0,0,0-.39579,1.39912c.087.92483.17248,1.78471.26116,2.6287a.64.64,0,0,1-.06694.48944c-.08885.10474-.24341.13335-.48038.14732l-.27935.01652c-.82636.04871-1.68085.09913-2.52.16158a1.97918,1.97918,0,0,0-1.19476.51856,29.32991,29.32991,0,0,1-7.807,5.00062,28.40137,28.40137,0,0,1-9.831,2.35749,26.54468,26.54468,0,0,1-7.62134-.64863,1.38768,1.38768,0,0,0-.32094-.03985,1.1475,1.1475,0,0,0-.74341.28012c-.15823.128-.23714.2607-.22218.37379.01845.13949.17037.23436.29462.28943.33459.14829.69206.26564,1.03775.37907l.02428.008A30.711,30.711,0,0,0,125.54633,127.40647Z" style="fill: #fff"/>
        <path d="M102.20894,49.66765a8.21881,8.21881,0,0,1,1.0306.06387c.29488.03718.58891.08856.87323.13824.25559.04462.49713.0868.73949.11962a1.819,1.819,0,0,0,1.02646-.48053c.06407-.04854.12793-.09691.1926-.14324a70.79916,70.79916,0,0,1,8.73485-5.31014,71.92786,71.92786,0,0,1,10.32419-4.33472c.37532-.12439.58672-.26547.66524-.44408a1.001,1.001,0,0,0-.12269-.78824c-.63251-1.40683-1.26533-2.83325-1.855-4.16509a1.0216,1.0216,0,0,0-1.47272-.61246c-1.72556.664-3.50468,1.44072-5.439,2.37452A80.28067,80.28067,0,0,0,102.807,44.77626c-.54073.417-.65277.41666-1.19836-.00465A80.31874,80.31874,0,0,0,82.06869,33.70838a1.01713,1.01713,0,0,0-1.46763.62212c-.65834,1.48682-1.27075,2.8613-1.87221,4.20193a.93626.93626,0,0,0-.10244.74412.90315.90315,0,0,0,.59606.41865c2.23611.74832,4.46062,1.60792,6.61174,2.55495a72.81439,72.81439,0,0,1,8.61422,4.5319c1.51541.92721,2.96388,1.89428,4.30517,2.87447a1.46193,1.46193,0,0,0,1.26595.26223A10.287,10.287,0,0,1,102.20894,49.66765Z" style="fill: #fff"/>
        <path d="M125.20714,164.71389c-2.24664-.75343-4.47115-1.613-6.61169-2.5549a72.88358,72.88358,0,0,1-8.61483-4.53053c-1.48632-.90882-2.94629-1.88333-4.33938-2.89639a1.35637,1.35637,0,0,0-1.18891-.251,9.69914,9.69914,0,0,1-4.43354.00738,1.48449,1.48449,0,0,0-1.29837.28387c-1.73166,1.25155-3.52137,2.42238-5.31937,3.48a72.50946,72.50946,0,0,1-6.97135,3.63579,75.13341,75.13341,0,0,1-7.16866,2.80771c-.355.11814-.55717.25672-.636.43607a.93419.93419,0,0,0,.10346.74088c.563,1.25571,1.13089,2.53435,1.68006,3.77086l.2081.46844a1.00456,1.00456,0,0,0,1.41276.59992c.77876-.30857,1.588-.643,2.40536-.99387A79.95279,79.95279,0,0,0,101.608,159.63453c.27461-.21114.43965-.31651.604-.31651.16322,0,.32573.10389.59427.31123a79.38552,79.38552,0,0,0,7.764,5.27795,80.2118,80.2118,0,0,0,11.77428,5.78885l.02719.01073a1.15637,1.15637,0,0,0,.45.1127,1.04461,1.04461,0,0,0,.98087-.69814c.62791-1.42176,1.26272-2.84835,1.88685-4.24a.95115.95115,0,0,0,.10551-.75332A.891.891,0,0,0,125.20714,164.71389Z" style="fill: #fff"/>
        <path d="M138.305,116.67287a26.903,26.903,0,0,0,5.68694-8.18762,14.58172,14.58172,0,0,0,.63912-10.88292,24.75549,24.75549,0,0,0-5.38851-8.88842,26.6607,26.6607,0,0,0-8.59193-6.27784,27.79564,27.79564,0,0,0-11.47131-2.5549c-.98947-.011-1.99833.07523-2.974.15851l-.1415.012a17.49657,17.49657,0,0,0-1.91847.29584.47776.47776,0,0,0-.37939.26712.3.3,0,0,0,.06731.29732,2.06358,2.06358,0,0,0,1.72788.92335c.1976-.00777.39784-.00573.59149-.00374.08908.001.17818.00187.26723.00187a17.72086,17.72086,0,0,1,2.52481.1798,25.70743,25.70743,0,0,1,6.91545,1.87112,27.42725,27.42725,0,0,1,7.92706,5.17786,1.34319,1.34319,0,0,0,.89647.37419c.48516.02146.97695.05939,1.45257.09612.26876.02078.54666.04224.81994.06041a.46654.46654,0,0,1,.34651.14244.43446.43446,0,0,1,.0765.343c-.02631.228-.05027.46043-.0734.68525-.03835.37209-.078.75684-.12962,1.13433a2.02069,2.02069,0,0,0,.31149,1.453,23.94536,23.94536,0,0,1,1.78207,3.21375,13.15422,13.15422,0,0,1,.7722,9.18563,19.44826,19.44826,0,0,1-2.52225,5.2524,2.023,2.023,0,0,0-.35957,1.36692c.027.236.05217.47218.07732.70836.04159.39026.08457.79374.13558,1.189a.50232.50232,0,0,1-.0781.40655.47464.47464,0,0,1-.36266.14159c-.235.01016-.47408.02572-.70535.04076-.27421.01788-.55779.03634-.83765.046a2.41392,2.41392,0,0,0-1.97553.776,4.02335,4.02335,0,0,1-.66714.59674c-.07852.0604-.15973.12291-.23691.18547a27.82243,27.82243,0,0,1-7.87727,4.55677,25.4814,25.4814,0,0,1-8.96822,1.54729l-.01349-.00006a2.24948,2.24948,0,0,0-1.78369.88316.36754.36754,0,0,0-.10128.31515.37544.37544,0,0,0,.22768.24963,1.68618,1.68618,0,0,0,.44721.11485,28.3941,28.3941,0,0,0,10.11452-.16A27.0688,27.0688,0,0,0,138.305,116.67287Z" style="fill: #fff"/>
        <path d="M119.77747,177.68145c.37978-.48774.722-1.01578,1.053-1.52645q.11216-.17306.22491-.34592a15.86689,15.86689,0,0,0,1.40425-2.68525.68891.68891,0,0,0-.349-.92659,3.43779,3.43779,0,0,0-.37785-.17054l-.05862-.02374a83.30178,83.30178,0,0,1-15.0201-7.98227c-1.352-.90876-2.68939-1.86749-3.97512-2.84954a.84691.84691,0,0,0-.46682-.237.86425.86425,0,0,0-.47172.23794q-.39.29473-.78245.58624A81.53144,81.53144,0,0,1,89.447,168.92366c-2.27023,1.16032-4.55063,2.20619-6.7778,3.10854-.42239.17112-.63751.32951-.71923.52958a1.142,1.142,0,0,0,.13759.86289,17.49694,17.49694,0,0,0,1.32587,2.454l.09161.14346a14.92729,14.92729,0,0,0,1.35545,1.898.77513.77513,0,0,0,1.03554.219,94.52555,94.52555,0,0,0,9.98031-5.30463.7294.7294,0,0,0,.37916-.83735,6.16706,6.16706,0,0,1-.09436-1.35341,5.80971,5.80971,0,0,1,2.00337-4.19659,6.1,6.1,0,0,1,8.865.82065,5.972,5.972,0,0,1,1.15417,4.64891c-.08411.52946-.015.68161.43519.95747a92.81276,92.81276,0,0,0,9.687,5.16322C119.01285,178.36255,119.30162,178.29267,119.77747,177.68145Z" style="fill: #fff"/>
        <path d="M84.6593,26.7068c-.39071.50363-.74435,1.048-1.08635,1.57443q-.08543.13149-.17106.26291a17.20424,17.20424,0,0,0-1.4038,2.64136.73132.73132,0,0,0,.39827,1.06523c.10977.05456.22294.1014.32942.14472A83.20971,83.20971,0,0,1,97.20535,40.0112c1.52321,1.006,3.04357,2.08595,4.51884,3.20988.43635.33252.53625.33292.971.0021.26916-.20467.54511-.41013.78262-.58658a81.63736,81.63736,0,0,1,11.51278-7.16236c2.2565-1.15249,4.52432-2.19285,6.74051-3.09213.43919-.17821.66118-.339.74228-.53759a1.17958,1.17958,0,0,0-.1469-.87935,17.29093,17.29093,0,0,0-1.30592-2.41853l-.09436-.148a15.25345,15.25345,0,0,0-1.34909-1.89684.78235.78235,0,0,0-1.0677-.22788,99.75011,99.75011,0,0,0-9.639,5.08441c-.562.33462-.86843.67554-.65936,1.34024a1.15782,1.15782,0,0,1,.03551.33587c.00074.0595.00154.12092.00559.18871a1.78545,1.78545,0,0,1-.00363.68871c-.00846.0662-.017.133-.02373.19962a6.42085,6.42085,0,0,1-.17245.97246,5.84822,5.84822,0,0,1-2.40848,3.34728,6.09041,6.09041,0,0,1-8.25049-1.29176,5.96291,5.96291,0,0,1-1.15161-4.668.72625.72625,0,0,0-.41885-.92869,93.35569,93.35569,0,0,0-9.723-5.18218A.95832.95832,0,0,0,84.6593,26.7068Z" style="fill: #fff"/>
        <path d="M116.76725,121.77369a17.769,17.769,0,0,0,2.37612-.21426,26.00256,26.00256,0,0,0,6.49531-1.85727,25.01271,25.01271,0,0,0,7.71365-5.29788,24.15433,24.15433,0,0,0,3.87912-5.18093,13.25246,13.25246,0,0,0,2.06767-6.8429l0-.002a12.37355,12.37355,0,0,0-1.00845-5.07981,24.39268,24.39268,0,0,0-6.633-8.848,24.881,24.881,0,0,0-6.38185-3.89541,25.38367,25.38367,0,0,0-7.044-1.81322c-.10515-.01147-.21037-.0243-.31575-.03713a8.10452,8.10452,0,0,0-.97445-.07886c-.09166,0-.1832.00318-.27446.01034a.58633.58633,0,0,0-.493.30657.35657.35657,0,0,0,.04119.37186,3.121,3.121,0,0,0,1.75593,1.39855,23.46472,23.46472,0,0,1,3.26231.95412,26.23524,26.23524,0,0,1,2.46255,1.09436,24.5563,24.5563,0,0,1,6.18632,4.50357,1.07779,1.07779,0,0,0,.69292.34864c.45055.03645.826.06586,1.21434.08448.32917.01578.53642.0319.64525.1593.10316.12076.09629.30016.05774.653a1.886,1.886,0,0,1-.03826.20955,2.55358,2.55358,0,0,0,.474,2.33212,9.55675,9.55675,0,0,1,1.07894,1.83024q.08291.1681.16637.33536a10.82767,10.82767,0,0,1,.87694,7.61711,15.31073,15.31073,0,0,1-2.37478,4.91432,1.7276,1.7276,0,0,0-.29874,1.32258c.04389.27.06989.546.095.813.01016.10758.02029.21523.03156.32264a.447.447,0,0,1-.08439.35773.48793.48793,0,0,1-.37365.13631c-.24946.00647-.5038.02458-.74974.04212-.19263.01374-.39179.02794-.58848.03651a1.16427,1.16427,0,0,0-.8154.35057,21.43534,21.43534,0,0,1-1.78855,1.61729,23.175,23.175,0,0,1-9.56962,4.79357,3.44544,3.44544,0,0,0-2.174,1.33609l-.03109.04264c-.14976.20449-.23694.33944-.14644.52929A.56114.56114,0,0,0,116.76725,121.77369Z" style="fill: #fff"/>
        <path d="M117.7622,24.792a.72487.72487,0,0,0-.28154-.60514c-.3177-.31083-.66816-.60139-1.00712-.88242L116.414,23.255A21.178,21.178,0,0,0,111.77,20.317c-.99275-.46275-2.07422.41041-2.25658.51476l-.06756.03843c-2.382,1.33655-4.68269,2.74066-6.838,4.17327a.60765.60765,0,0,1-.78111.00971c-1.466-.97775-3.04877-2.009-4.6899-2.9267-.27515-.15386-.54573-.32651-.8074-.49347a22.66935,22.66935,0,0,0-2.79428-1.42625,1.79219,1.79219,0,0,1-.2268-.04378,2.67865,2.67865,0,0,0-.83073.21779,22.8411,22.8411,0,0,0-3.20753,1.89774A22.06794,22.06794,0,0,0,86.979,24.14816a.76256.76256,0,0,0-.32122.62967c.02867.19115.19615.36476.48436.50221q.165.0786.33025.15681c.2414.1144.491.23265.73538.35205,2.78133,1.35863,5.505,2.86078,8.09536,4.46485.45279.28046.62706.243.93224-.20081a5.572,5.572,0,0,1,.56861-.66651l.0218-.02294a6.1,6.1,0,0,1,9.34812.67679c.32656.46083.48893.49461.96548.20041a92.52093,92.52093,0,0,1,9.16218-4.97251A.7188.7188,0,0,0,117.7622,24.792Z" style="fill: #fff"/>
        <path d="M87.16264,179.1165c-.29536.13909-.46846.31168-.50059.49915a.76008.76008,0,0,0,.30112.63023c.09711.09606.20478.18713.30887.27524.05919.05007.11838.10015.17631.15152a21.0431,21.0431,0,0,0,5.12339,3.38214,1.29733,1.29733,0,0,0,1.48213.01978c.36638-.23086.92371-.54022.9515-.55583,2.3764-1.33343,4.67661-2.73822,6.83671-4.17531a.587.587,0,0,1,.74642.00681c1.4577.96974,3.1966,2.1002,5.04135,3.13256.23626.13217.46843.28114.693.42523a19.66917,19.66917,0,0,0,2.56333,1.29142,1.885,1.885,0,0,1,.22484.04388,2.69026,2.69026,0,0,0,.79133-.19791,20.53518,20.53518,0,0,0,1.99183-1.0872,22.32357,22.32357,0,0,0,3.54441-2.69513.77024.77024,0,0,0,.32662-.63307c-.02981-.19445-.20824-.37357-.516-.51811-.38-.17844-.71667-.33933-1.02915-.492a92.5977,92.5977,0,0,1-8.13014-4.48609c-.41228-.25565-.60054-.2167-.87606.18094a6.12317,6.12317,0,0,1-.61289.72312,6.10028,6.10028,0,0,1-9.34908-.66692c-.19343-.27319-.32619-.39911-.49668-.39911a.97369.97369,0,0,0-.467.18991c-1.722,1.06511-3.55412,2.11286-5.44546,3.11416C89.62168,177.92228,88.38352,178.54156,87.16264,179.1165Z" style="fill: #fff"/>
        <path d="M102.60735,71.55736q.00017.29506-.00014.59009c-.00026.41416-.00052.82832.0013,1.24242a.51179.51179,0,0,0,.29826.51624c.18465.08408.32551.00823.4931-.14108q.28017-.24978.55862-.50159c.50156-.45191,1.02021-.91921,1.54873-1.358a46.9334,46.9334,0,0,1,29.06135-10.912c.30385-.00659.51388-.02987.65951-.28279.16245-.28216.0891-.48526-.073-.79153-.04542-.08582-.48736-1.16061-.48736-1.16061-.27879-.61564-.55944-1.24264-.83085-1.84909q-.193-.43125-.38634-.86244a1.10316,1.10316,0,0,0-1.08527-.79471,2.14176,2.14176,0,0,0-.28017.01993,53.30917,53.30917,0,0,0-21.71973,7.86339,53.421,53.421,0,0,0-7.14045,5.43022,1.73318,1.73318,0,0,0-.62177,1.44084c.013.357.0099.7196.00687,1.07023C102.60865,71.237,102.60726,71.39726,102.60735,71.55736Z" style="fill: #fff"/>
        <path d="M133.45347,148.351l.78364-1.74559c.04976-.11088.10585-.22136.16012-.32821a3.06264,3.06264,0,0,0,.29886-.73532,3.35859,3.35859,0,0,1,.42818-1.011c.17418-.29664.28335-.53077.10066-.8424-.15221-.25968-.36715-.278-.70291-.275a35.27767,35.27767,0,0,1-4.1067-.26774,47.11854,47.11854,0,0,1-22.43867-8.7193,53.79316,53.79316,0,0,1-4.55311-3.76472.58025.58025,0,0,0-.36681-.19757.36012.36012,0,0,0-.15612.03877.54161.54161,0,0,0-.29423.56177q.00073.55183.0004,1.10367l.00006.64778c.00005.16.00133.32008.00261.48012.00289.364.00587.74044-.006,1.11105a1.70133,1.70133,0,0,0,.59807,1.41052c1.13975,1.025,2.35074,2.02685,3.59935,2.97769a53.33985,53.33985,0,0,0,21.5288,9.707c1.22766.24753,2.48047.45907,3.72357.62882A1.15411,1.15411,0,0,0,133.45347,148.351Z" style="fill: #fff"/>
        <path d="M134.7941,62.18108c-.09655.00464-.19334-.00159-.28974-.00159-1.48484,0-2.93274.12024-4.16642.24a42.96277,42.96277,0,0,0-8.7386,1.78363,43.85486,43.85486,0,0,0-17.23044,10.1883.53709.53709,0,0,0,.22493.99994c.10546.03435.21506.06586.321.0964a4.667,4.667,0,0,1,.69218.23941,1.33793,1.33793,0,0,0,1.5302-.22266,34.96037,34.96037,0,0,1,3.8519-2.6048,41.02314,41.02314,0,0,1,9.42346-4.08538,40.45253,40.45253,0,0,1,10.15134-1.55495,32.39256,32.39256,0,0,1,4.68546.16453c.60364.071,1.20708.1438,1.835.21959.29448.0356.59438.07182.90221.10878a.42633.42633,0,0,0,.36181-.17673.48571.48571,0,0,0,.00256-.46373c-.53551-1.24156-1.176-2.71141-1.86582-4.199a1.04921,1.04921,0,0,0-.36661-.44306C136.00156,62.37415,135.833,62.13116,134.7941,62.18108Z" style="fill: #fff"/>
        <path d="M135.9702,142.06809c.04737-.03339.11265-.0988.20777-.17993a1.92431,1.92431,0,0,0,.46659-.73481l.00639-.01447q.29844-.67371.59975-1.34615c.35256-.78908.71715-1.60508,1.06738-2.411a.57192.57192,0,0,0,.01667-.55831.61356.61356,0,0,0-.57369-.16226c-.04931.00483-.09865.014-.15088.02379-.02816.00528-.05632.01051-.08456.0151a34.108,34.108,0,0,1-4.215.43227,40.409,40.409,0,0,1-19.62262-4.1589,39.772,39.772,0,0,1-6.67338-4.15861,1.18682,1.18682,0,0,0-1.28488-.183c-.30981.12961-.63594.22908-.95132.32525l-.13537.04139c-.31838.09776-.4696.22709-.52192.44635-.06148.25763.09893.43034.29883.61366q.30513.27983.61352.55614.29687.26759.59228.53668a39.22393,39.22393,0,0,0,5.21939,3.99715,43.83663,43.83663,0,0,0,11.4415,5.26444,45.55755,45.55755,0,0,0,11.724,1.8135c.08147-.00017.16532-.00068.24912-.00113.09637-.00057.19425-.00114.29264-.00114.118,0,.23663.0034.3544.00341A2.38549,2.38549,0,0,0,135.9702,142.06809Z" style="fill: #fff"/>
        <path d="M126.76525,41.18271a.78947.78947,0,0,0-.56424-.26349c-.03165-.00261-.063-.0038-.09419-.0038a2.33138,2.33138,0,0,0-.73668.1626l-.08561.02855a72.277,72.277,0,0,0-11.93424,5.14283,70.05893,70.05893,0,0,0-6.1998,3.80771c-.14895.10276-.32457.26059-.31543.42869.00735.13535.13543.274.37036.40093.073.0394.14692.0771.22084.11485.11817.06024.24035.12258.35753.19155a10.85247,10.85247,0,0,1,2.84131,2.39366c.02413.029.048.05848.072.08817a.84817.84817,0,0,0,.599.41484.714.714,0,0,0,.38134-.13131l.026-.01465q.36261-.20344.72374-.40962c.471-.26774.95793-.54456,1.44326-.80617a61.64338,61.64338,0,0,1,11.73678-4.8454c.5832-.17248,1.18025-.33195,1.75763-.48615.3508-.09373.71355-.19058,1.06909-.28931a.87172.87172,0,0,0,.5983-.42058.82794.82794,0,0,0-.04422-.69575c-.53373-1.22414-1.07588-2.43573-1.53583-3.45951C127.43205,42.48667,126.87919,41.321,126.76525,41.18271Z" style="fill: #fff"/>
        <path d="M110.66567,150.77148a10.86239,10.86239,0,0,1-3.4416,2.74111c-.2466.1245-.38186.26263-.39117.39946s.10568.29158.33252.44793a70.45878,70.45878,0,0,0,16.90374,8.5298c.12609.04422.252.08947.37711.13449a9.83143,9.83143,0,0,0,1.50752.45833,1.19718,1.19718,0,0,0,.83652-.22176c.0626-.06074.51391-1.04394.55624-1.14079.26774-.61258.54485-1.23311.81281-1.8332.26522-.5939.53946-1.20807.80442-1.814a.912.912,0,0,0,.05865-.77228.90079.90079,0,0,0-.64313-.41564c-1.03343-.24832-2.15541-.56341-3.53093-.99159a62.50109,62.50109,0,0,1-12.95138-5.7184C111.24152,150.19166,111.13793,150.20818,110.66567,150.77148Z" style="fill: #fff"/>
        <path d="M133.21621,77.71268a31.93538,31.93538,0,0,1,9.59613,5.30543,31.26407,31.26407,0,0,1,2.82732,2.58827c.24915.25611.42855.29959.63978.1546.20983-.14387.23291-.327.08229-.65323-.057-.1236-.11264-.24782-.16793-.37221q-.39677-.892-.79769-1.7821c-.6232-1.38793-1.2676-2.82309-1.87351-4.24695a4.88885,4.88885,0,0,0-2.62333-2.6626,34.85648,34.85648,0,0,0-12.7581-3.0097,32.24954,32.24954,0,0,0-6.66633.44164A33.20323,33.20323,0,0,0,113.236,76.011a32.47288,32.47288,0,0,0-2.98132,1.56744c-.17421.1022-.26448.19865-.26828.28654-.004.092.08473.203.26365.3299a.98309.98309,0,0,0,1.02578.11611,31.11083,31.11083,0,0,1,13.23941-2.26632,32.03548,32.03548,0,0,1,5.00834.64976c.8791.18469,1.78293.41632,2.68638.68843C132.36885,77.43085,132.5981,77.49858,133.21621,77.71268Z" style="fill: #fff"/>
        <path d="M128.562,113.08947a21.40379,21.40379,0,0,0,4.6939-6.65316,9.49439,9.49439,0,0,0,.44944-7.29907,20.10431,20.10431,0,0,0-4.48475-7.16434,22.51549,22.51549,0,0,0-5.72628-4.34682,17.10206,17.10206,0,0,0-4.55518-1.75911.37462.37462,0,0,0-.44973.13052c-.08246.11412-.03488.19871.05626.33842l.02907.04508a4.93212,4.93212,0,0,0,1.41325,1.44964,29.78985,29.78985,0,0,1,5.339,4.59657,45.39132,45.39132,0,0,1,3.60723,4.78289c.06332.11385.12167.23044.18278.34552.17194.3236.3497.65828.51073.995a8.4242,8.4242,0,0,1,.77217,4.71715,10.77713,10.77713,0,0,1-1.44643,3.8957l-.03673.06466c-.11625.202-.40068.70439-.45629.78427l-.0275.03917a2.1113,2.1113,0,0,0-.43412,1.607c.07415.54013.10858.85454-.04508,1.03531-.15939.18752-.48256.19569-1.06928.21062a1.3182,1.3182,0,0,0-.99674.48416,32.27969,32.27969,0,0,1-5.9676,5.2339,4.779,4.779,0,0,0-1.389,1.47127c-.08473.13711-.11258.21909-.04173.31418a.31576.31576,0,0,0,.33278.15431c.11758-.02356.24574-.0532.39185-.09067A21.10561,21.10561,0,0,0,128.562,113.08947Z" style="fill: #fff"/>
        <path d="M141.33769,128.13839a4.29975,4.29975,0,0,0,2.103-2.25979c.2892-.66544.58922-1.33922.87935-1.9908q.14516-.32591.29009-.652.545-1.2269,1.09077-2.45338l.64551-1.4514c.00735-.01652.014-.03333.02072-.05013.00849-.02129.017-.04258.02655-.06342a.40594.40594,0,0,0-.11829-.57607c-.19326-.13143-.37819-.09754-.58206.10644-.69269.69315-1.50514,1.4941-2.38186,2.22851a31.84992,31.84992,0,0,1-10.1787,5.743c-.49452.1693-.92969.3009-1.04712.33553a30.89115,30.89115,0,0,1-10.50992,1.3093,33.32249,33.32249,0,0,1-3.72609-.40258,30.15455,30.15455,0,0,1-6.61853-1.88265.99964.99964,0,0,0-.38682-.08374.94234.94234,0,0,0-.50176.15465c-.23663.14585-.35585.27143-.35435.37328.0015.10344.12774.22817.37513.37079a34.22363,34.22363,0,0,0,3.84588,1.92466,33.02994,33.02994,0,0,0,11.949,2.56142,32.46515,32.46515,0,0,0,5.89978-.39758A33.60174,33.60174,0,0,0,141.33769,128.13839Z" style="fill: #fff"/>
        <path d="M141.64915,74.48286c-.76413-1.702-1.45324-3.2465-2.10667-4.72152a1.29216,1.29216,0,0,0-.9713-.78341,42.114,42.114,0,0,0-5.87486-.73748c-.09311-.00545-.7368-.03111-1.02629-.03111h-.00763c-1.29238.003-2.67835.02339-4.05728.15079a38.41653,38.41653,0,0,0-5.4812.9082,37.861,37.861,0,0,0-11.72914,5.0592c-.81677.52981-1.618,1.1-2.3816,1.69473-.23041.17946-.339.328-.332.4539.00735.13154.14415.27717.41816.44516a1.13957,1.13957,0,0,0,1.31316.01516,34.68009,34.68009,0,0,1,7.33029-3.25951,35.39834,35.39834,0,0,1,9.2537-1.60258,32.70523,32.70523,0,0,1,4.76754.16424A35.80276,35.80276,0,0,1,141.1018,74.952c.22792.09821.37448.08533.50591-.04463A.33183.33183,0,0,0,141.64915,74.48286Z" style="fill: #fff"/>
        <path d="M132.71059,136.16227l.02632-.00159a43.35359,43.35359,0,0,0,5.67593-.69819,1.33459,1.33459,0,0,0,1.092-.74611q.63954-1.42293,1.27455-2.848.44274-.99142.88622-1.98251a.30627.30627,0,0,0-.035-.36232.341.341,0,0,0-.38455-.12042h0a2.30537,2.30537,0,0,0-.23734.09243l-.0564.02424a35.55,35.55,0,0,1-12.17938,2.80254,34.06314,34.06314,0,0,1-8.99582-.78574,35.02516,35.02516,0,0,1-10.293-4.028,1.43949,1.43949,0,0,0-.73232-.23265,1.2516,1.2516,0,0,0-.68672.22714c-.25239.16283-.37774.3038-.38328.431-.00545.12552.10285.27256.331.44958a36.04713,36.04713,0,0,0,6.116,3.83393,37.873,37.873,0,0,0,17.532,3.97911C131.96843,136.19185,132.64437,136.16625,132.71059,136.16227Z" style="fill: #fff"/>
        <path d="M131.65638,53.99034a.67892.67892,0,0,0,.50945-.30839.62393.62393,0,0,0-.011-.55632c-.6-1.38975-1.23064-2.80186-1.87442-4.19722a.9787.9787,0,0,0-.9552-.61355c-.04536.007-.091.01312-.13651.01925-.1012.01357-.19678.0264-.29085.04854-1.70992.403-3.43513.89383-5.27418,1.50056a61.47964,61.47964,0,0,0-8.21334,3.41353c-.83084.41586-1.65955.87277-2.461,1.31464q-.27387.151-.54789.30163c-.41486.2276-.52665.4786-.36243.81378a11.68526,11.68526,0,0,1,1.0623,3.684.59048.59048,0,0,0,.24222.48217.63749.63749,0,0,0,.54272-.08493,54.59317,54.59317,0,0,1,11.59025-4.53922C127.23661,54.8,129.14253,54.40569,131.65638,53.99034Z" style="fill: #fff"/>
        <path d="M130.3405,155.36782c.6612-1.45975,1.2465-2.77268,1.78931-4.01379a.71366.71366,0,0,0,.03452-.6224.73481.73481,0,0,0-.55252-.32372h0q-.31526-.05613-.63055-.11162c-1.26408-.22312-2.57116-.45384-3.84585-.74963a54.56938,54.56938,0,0,1-13.216-4.93146.65782.65782,0,0,0-.58078-.09958c-.12448.06438-.20438.2268-.23748.48274a11.7847,11.7847,0,0,1-.95592,3.46246c-.27543.59867-.21749.77285.36468,1.09612,1.20881.67117,2.41989,1.30663,3.59958,1.88878a61.22554,61.22554,0,0,0,11.21577,4.18342c.12825.03441.25642.06961.38333.10441a11.98919,11.98919,0,0,0,1.40082.33047A1.1061,1.1061,0,0,0,130.3405,155.36782Z" style="fill: #fff"/>
        <path d="M108.25305,184.4695c-1.74518-.98132-3.57358-2.10156-5.5897-3.42477a.82136.82136,0,0,0-.45211-.15777.83242.83242,0,0,0-.45991.1622c-1.46137.96577-2.9623,1.899-4.46108,2.77381q-.21046.12281-.42194.24379c-.26581.15289-.54067.31094-.80674.4724a.47582.47582,0,0,0-.27714.48286.46848.46848,0,0,0,.363.37958c.04621.01516.0924.03066.13858.0461.18068.06058.36749.12314.55331.16635a18.61378,18.61378,0,0,0,5.16889.607c.13575.00012.26343.00063.38824.00114a17.02768,17.02768,0,0,0,2.28375-.08738,21.02868,21.02868,0,0,0,3.4885-.69586c.30938-.09589.445-.21852.46832-.42319C108.66209,184.79521,108.55085,184.63693,108.25305,184.4695Z" style="fill: #fff"/>
        <path d="M108.2732,19.004q-.07269-.02383-.14528-.04831c-.1785-.05972-.36309-.12155-.5467-.16413a20.55165,20.55165,0,0,0-4.52687-.62416q-.27421,0-.53145.01357c-.23.00159-.44476.00159-.65059.00159a16.24481,16.24481,0,0,0-2.132.08822,21.31815,21.31815,0,0,0-3.48844.69666c-.30918.09589-.44459.21864-.46735.4237-.02447.22022.08714.37845.3852.546h0c1.74273.97985,3.57113,2.10009,5.58966,3.42477a.7295.7295,0,0,0,.912-.00579c1.427-.94475,2.92028-1.87282,4.56517-2.83734.14707-.08623.29516-.17077.44325-.2553.22471-.12831.45708-.26093.68127-.39736a.47478.47478,0,0,0,.27606-.48314A.46948.46948,0,0,0,108.2732,19.004Z" style="fill: #fff"/>
        <g>
          <path d="M96.4706,117.13708a27.20591,27.20591,0,0,1-3.01782-2.285l-.32216-.28207c-.59637-.52162-1.213-1.061-1.79322-1.62091-.44737-.43176-.87861-.8928-1.29567-1.33866q-.28009-.29949-.5621-.597c-.09621-.10081-.19477-.19972-.29332-.29862a9.02568,9.02568,0,0,1-.63372-.68156c-.55974-.692-1.21748-1.51632-1.85187-2.38367a13.563,13.563,0,0,1-1.64239-2.77122,5.79207,5.79207,0,0,1-.43623-3.1693,6.55316,6.55316,0,0,1,1.05821-2.68454c.60771-.9023,1.16055-1.7144,1.77257-2.51568.6946-.90943,1.42442-1.76806,2.04673-2.488.35145-.4066.73785-.79173,1.11153-1.1642q.13363-.13319.26678-.26664c.36571-.36755.69974-.68644,1.02122-.975q.192-.17234.38285-.34646c.45351-.412.92245-.83813,1.4158-1.21976.85664-.66263,1.75309-1.3013,2.62-1.9189l.30181-.21511a1.20477,1.20477,0,0,0,.44554-.56167,2.88288,2.88288,0,0,0-.40216.11521c-.27875.111-.55841.22014-.8381.32925-.80407.3137-1.63552.63807-2.42907,1.00481-1.18672.54846-2.33531,1.1375-3.4139,1.75079a23.54236,23.54236,0,0,0-3.31107,2.23786q-.29919.24495-.60079.48764c-.69414.561-1.41193,1.1411-2.0671,1.76146-.79006.74808-1.52721,1.58255-2.24007,2.38955l-.09944.11255c-.6851.77527-1.32636,1.57573-1.86329,2.25648-.39482.50065-.76024,1.03475-1.10068,1.53887-.17809.26374-.34494.54374-.50628.81451-.06763.11352-.13528.227-.204.33986v.14706l.19187.29984c.15282.2392.30563.47837.46081.716a31.83551,31.83551,0,0,0,2.89713,3.86238l.31316.35218c.45795.51589.93151,1.04937,1.42124,1.54814.46143.47.966.91632,1.45385,1.348l.163.14434.214.19048a15.17216,15.17216,0,0,0,1.22511,1.0182c1.23429.88569,2.26679,1.61866,3.37824,2.317.94457.59345,1.95014,1.1104,2.92262,1.61033a22.563,22.563,0,0,0,3.84308,1.52887c.20647.06173.414.12.63783.18291l.02478.007A2.44391,2.44391,0,0,0,96.4706,117.13708Z" style="fill: #fff"/>
          <path d="M125.194,101.82888l-.25962-.37954c-.40985-.59993-.83365-1.22026-1.27442-1.81083-.26583-.35619-.56537-.69965-.855-1.03178-.11447-.13126-.22894-.26248-.34182-.39489-.179-.21-.35523-.42278-.53145-.63557-.41326-.49909-.84059-1.01513-1.29794-1.48271-.70826-.72412-1.47886-1.41394-2.22408-2.08108l-.22043-.1974c-.46521-.417-.94961-.80982-1.43972-1.16757-.55755-.407-1.29565-.93494-2.06083-1.409-.918-.5688-1.86429-1.11923-2.81269-1.63606a36.54034,36.54034,0,0,0-3.86256-1.73058q-.29413-.11831-.588-.2371a6.98311,6.98311,0,0,0-.75664-.24071q-.07948-.02205-.15984-.04461a1.07484,1.07484,0,0,0,.38238.52361q.54247.40236,1.0899.79834c.68028.4952,1.3837,1.00724,2.05945,1.53321.69743.54286,1.35147,1.13628,2.01577,1.74732.32277.29693.62638.62189.92.93619.10318.11041.20634.22086.31042.33022q.18032.18951.36221.37768c.35573.36949.72357.75153,1.06586,1.14639.5164.59574,1.06172,1.23412,1.5532,1.91262.65164.89962,1.25792,1.80039,1.802,2.67732a5.891,5.891,0,0,1,.8988,3.89476,6.64931,6.64931,0,0,1-.57008,1.93208,15.035,15.035,0,0,1-1.77792,2.843l-.17815.23842c-.49663.66513-1.01017,1.35292-1.57038,1.98405-.68979.77711-1.46672,1.58368-2.445,2.5382-.69619.67922-1.439,1.3314-2.15744,1.96215l-.14512.12741c-.508.44618-1.01425.86022-1.50475,1.23065-.27284.20606-.55807.403-.83388.59339-.28945.19984-.58877.40647-.87159.62236a3.29969,3.29969,0,0,0-.45187.45084l-.00188.00213c.02935-.00826.05879-.01624.08834-.02372a22.18211,22.18211,0,0,0,3.8983-1.4343c.64076-.29659,1.305-.63645,1.97421-1.01016.77039-.43022,1.50479-.8682,2.18281-1.30171a27.40979,27.40979,0,0,0,3.51827-2.59355l.18568-.16627c.716-.64086,1.4563-1.30352,2.14137-1.99519.68954-.69618,1.39221-1.47273,2.08849-2.30808.65-.77978,1.24867-1.60107,1.74862-2.30166.32169-.45078.62674-.9268.92177-1.38716.12662-.19755.25325-.39514.38155-.59151v-.14734c-.03771-.06414-.07464-.12885-.11156-.19352C125.389,102.14042,125.29626,101.97791,125.194,101.82888Z" style="fill: #fff"/>
          <path d="M110.08026,113.1365a.10286.10286,0,0,0-.09677-.04881l-.02608.00179a1.3765,1.3765,0,0,0-.48815.176,14.11832,14.11832,0,0,1-2.75215,1.2038,17.68456,17.68456,0,0,1-2.25479.54965,20.422,20.422,0,0,1-2.21.25951c-.12961.00938-.26749.01417-.40982.01417-.35417,0-.70415-.02935-.9695-.05491-.78888-.076-1.47359-.162-2.09325-.26292a14.59914,14.59914,0,0,1-4.02889-1.35258c-.2956-.14249-.5782-.29508-.8774-.45666q-.14709-.07945-.29681-.15967a.39269.39269,0,0,0-.00909.41489,10.85556,10.85556,0,0,0,2.43626,2.79049,11.76234,11.76234,0,0,0,3.381,1.89134,6.341,6.341,0,0,0,2.19361.42412c.11844,0,.23795-.00413.35517-.0123.09684-.00672.19405-.012.29133-.01727a6.06045,6.06045,0,0,0,.86218-.08783,8.69019,8.69019,0,0,0,2.314-.83024,16.68532,16.68532,0,0,0,1.79109-1.09448,11.13333,11.13333,0,0,0,1.16319-.98447l.0663-.06148a4.99831,4.99831,0,0,0,.61759-.70237c.34371-.46477.68745-.95766,1.02167-1.465A.13407.13407,0,0,0,110.08026,113.1365Z" style="fill: #fff"/>
          <path d="M107.70612,89.272a11.223,11.223,0,0,0-2.13524-1.41579,9.26255,9.26255,0,0,0-2.68273-.94079,7.02309,7.02309,0,0,0-2.16466-.02178,8.16919,8.16919,0,0,0-2.00271.619A11.37486,11.37486,0,0,0,95.536,89.53525,9.52611,9.52611,0,0,0,93.61951,91.871c-.12223.21461-.13677.3163-.03658.48526.02986-.01427.05971-.02869.08934-.04355.21277-.1066.42415-.21633.63556-.32606.467-.24243.94994-.49308,1.44213-.70553a14.60629,14.60629,0,0,1,2.84094-.87765,16.64648,16.64648,0,0,1,2.73086-.3321c.14748-.00579.299-.00876.45029-.00876a15.67251,15.67251,0,0,1,2.46534.21633,15.87462,15.87462,0,0,1,2.59308.63995,16.27867,16.27867,0,0,1,2.93487,1.32414.19307.19307,0,0,0,.095.01771.55252.55252,0,0,0,.17686-.03161.37678.37678,0,0,0-.0051-.1765A10.07582,10.07582,0,0,0,107.70612,89.272Z" style="fill: #fff"/>
          <g>
            <path d="M105.90882,103.26725c.2122.344.43289.36623.88086.27455a2.06324,2.06324,0,0,1,1.24072.0212,1.668,1.668,0,0,1,.925,1.22837c.0219.08064.02819.1655.05173.3099-.19943-.151-.35818-.26785-.51336-.38928a1.82049,1.82049,0,0,0-1.73572-.3029,2.05471,2.05471,0,0,1-1.29736.02283,1.40761,1.40761,0,0,1-.53244-.353c-.21063-.2291-.15819-.54862.13542-.82669a.4969.4969,0,0,0,.13382-.53272,3.8856,3.8856,0,0,1,.02016-.68686.80877.80877,0,0,0-.06181-.26471c-.01332-.03757-.05823-.06449-.09015-.09481-.44911-.42665-.25687-.81681.1563-1.07125a1.55236,1.55236,0,0,1,1.356-.1189,2.17731,2.17731,0,0,0,1.98694-.34366c.13114-.08535.2681-.16176.40738-.24529a1.57785,1.57785,0,0,1-1.21234,1.50717,3.7277,3.7277,0,0,1-1.43055-.09375l-.1968.46251,4.39185.71271A43.04312,43.04312,0,0,0,105.90882,103.26725Z" style="fill: #fff"/>
            <path d="M97.97488,101.88292v1.21518l.47962.36839v.46473c-.16155.123-.32847.25894-.50432.38212a1.44945,1.44945,0,0,1-1.208.15306,7.77556,7.77556,0,0,0-.849-.15418,1.79988,1.79988,0,0,0-1.421.52075.99913.99913,0,0,1-.09853.08725c-.052.03535-.10846.06421-.19954.117a1.8261,1.8261,0,0,1,.96515-1.43031,2.05778,2.05778,0,0,1,1.21049-.07345.94609.94609,0,0,0,.91091-.16063,16.24908,16.24908,0,0,0-4.19188-.81785l-.00334-.0722c.29067-.06749.57877-.1503.8725-.19956.83878-.14069,1.68066-.26283,2.51946-.4034a5.41622,5.41622,0,0,0,.6643-.1774.6057.6057,0,0,0,.15266-.10573c-.19037-.27012-.38687-.30593-.7941-.22954a2.15636,2.15636,0,0,1-1.40058-.09136,1.39028,1.39028,0,0,1-.7198-.82422c-.06127-.16667-.10592-.33946-.1581-.50947l.04681-.03507c.17614.11441.36025.21835.52694.3452a1.85546,1.85546,0,0,0,1.60653.292,2.17136,2.17136,0,0,1,1.28876-.06965,1.98539,1.98539,0,0,1,.5385.30787.5516.5516,0,0,1-.01109.81193c-.10854.07335-.20461.16512-.30635.24852Z" style="fill: #fff"/>
            <path d="M100.80813,107.756a2.50028,2.50028,0,0,0-1.11494,2.38637c-.09261-.1097-.14751-.16678-.19334-.2304a1.98858,1.98858,0,0,1-.43036-.88111,1.361,1.361,0,0,1,.28514-1.088c.25934-.32341.55833-.61469.82938-.92916.16962-.1968.30842-.42049.481-.61432a1.16482,1.16482,0,0,1,1.10189-.43271,1.0997,1.0997,0,0,1,.841.53663,8.07483,8.07483,0,0,0,1.12845,1.30024,1.47773,1.47773,0,0,1,.41829.96876,1.96045,1.96045,0,0,1-.62029,1.32557,2.44391,2.44391,0,0,0-1.17793-2.36862,34.16,34.16,0,0,0-.79536,3.80464Z" style="fill: #fff"/>
            <path d="M99.68865,94.79994c.05044.97288.17248,1.87947,1.16511,2.38546a24.09156,24.09156,0,0,0,.71947-3.68973,31.3404,31.3404,0,0,0,.78377,3.687c.8613-.61411,1.04594-.73574,1.14716-2.40746a2.22794,2.22794,0,0,1,.64495,1.20787,1.57956,1.57956,0,0,1-.71662,1.46235A5.39438,5.39438,0,0,0,102.569,98.474a1.14123,1.14123,0,0,1-1.914.026,6.856,6.856,0,0,0-1.10856-1.28585,1.58934,1.58934,0,0,1-.50733-1.069,1.49346,1.49346,0,0,1,.388-1.02725C99.51058,95.00905,99.60126,94.90575,99.68865,94.79994Z" style="fill: #fff"/>
            <path d="M97.5987,95.62962c.14653.38535.272.71986.40088,1.053a1.36312,1.36312,0,0,0,.78176.70262,6.92594,6.92594,0,0,1,.95463.49261,1.06541,1.06541,0,0,1,.532,1.03628.571.571,0,0,1-.47181.542c-.3872.02179-.5968-.11062-.66873-.462a.4951.4951,0,0,0-.33321-.419A2.38131,2.38131,0,0,1,97.349,97.11124,1.77519,1.77519,0,0,1,97.5987,95.62962Z" style="fill: #fff"/>
            <path d="M107.85405,107.30945c-.29906-.27832-.57954-.57269-.89491-.82312a1.7378,1.7378,0,0,0-1.03178-.33194,2.17934,2.17934,0,0,1-1.42112-.35117,1.35489,1.35489,0,0,1-.3811-.51007.511.511,0,0,1,.28644-.66909,7.472,7.472,0,0,1,.72926-.22325l.42485.84107c.38662.04283.76456.06105,1.13265.131A1.42524,1.42524,0,0,1,107.811,106.603c.0098.188.0294.37553.04242.56342C107.85731,107.22217,107.85405,107.27845,107.85405,107.30945Z" style="fill: #fff"/>
            <path d="M104.31013,98.38063c-.043.22521-.07444.41681-.11687.606a.545.545,0,0,1-.55146.50876.69034.69034,0,0,1-.63822-.34282.88923.88923,0,0,1,.14811-.96531,2.29681,2.29681,0,0,1,1.11644-.744,1.9031,1.9031,0,0,0,1.11575-1.13463c.08025-.20715.15419-.41674.23209-.62818a1.76441,1.76441,0,0,1,.12949,1.71317A2.58093,2.58093,0,0,1,104.31013,98.38063Z" style="fill: #fff"/>
            <path d="M97.61964,100.22986l.3658-.43292c-.28183-.05793-.54-.11446-.79967-.16346a6.30885,6.30885,0,0,1-.88909-.16534,1.34754,1.34754,0,0,1-.91936-1.17675,2.09158,2.09158,0,0,1,.04461-.69409c.07151.09095.14187.18283.21471.27269a2.0956,2.0956,0,0,0,1.63962.8903,4.05013,4.05013,0,0,1,1.082.17454,1.02225,1.02225,0,0,1,.7249.71294.60993.60993,0,0,1-.42271.73258A1.79122,1.79122,0,0,1,97.61964,100.22986Z" style="fill: #fff"/>
            <path d="M104.20582,106.421c.30948.1655.61225.33248.91951.49074a1.55335,1.55335,0,0,1,.61756,2.0941c-.046.08838-.08722.1793-.15136.31184-.1081-.28895-.20314-.53578-.2929-.78451a1.72471,1.72471,0,0,0-.87159-.97708c-.33925-.17478-.67951-.35086-1.0022-.55362a1.10515,1.10515,0,0,1-.50621-.9515.61.61,0,0,1,.62959-.58865.56892.56892,0,0,1,.60443.57476A2.84057,2.84057,0,0,0,104.20582,106.421Z" style="fill: #fff"/>
            <path d="M97.58775,109.24448a1.58209,1.58209,0,0,1,.526-2.35751,2.86657,2.86657,0,0,1,.47276-.21108.79019.79019,0,0,0,.53217-.64948c.03487-.16865.06807-.33766.10588-.52571a5.56947,5.56947,0,0,1,.56717.00332c.38963.04.58122.41107.44863.84009a1.56943,1.56943,0,0,1-1.037,1.00216,2.401,2.401,0,0,0-1.36425,1.33177C97.7541,108.86515,97.67229,109.0537,97.58775,109.24448Z" style="fill: #fff"/>
            <path d="M107.81784,97.5895a1.58805,1.58805,0,0,1-1.36351,1.99993c-.30241.03005-.60452.06317-.91614.09586a1.25455,1.25455,0,0,1-.74959.75126c-.197.05812-.355.06526-.45057-.15132a.58827.58827,0,0,0-.0585-.09c-.34571-.50413-.1665-.75626.19077-1.06646a1.64358,1.64358,0,0,1,.98671-.3355c.32487-.02421.65147-.04845.97191-.10388a1.85428,1.85428,0,0,0,1.20431-.85568C107.68835,97.75486,107.74919,97.68,107.81784,97.5895Z" style="fill: #fff"/>
            <path d="M97.60959,105.23153l.5319-.82891a3.05586,3.05586,0,0,1,.7088.24815.57076.57076,0,0,1,.10825.88986,1.393,1.393,0,0,1-1.13914.5782c-.31291.0035-.62547.03133-.93841.04069a1.34048,1.34048,0,0,0-1.02161.61832c-.14906.18879-.28578.38733-.44254.60123a1.56061,1.56061,0,0,1,1.435-2.05755C97.10938,105.30475,97.36513,105.26126,97.60959,105.23153Z" style="fill: #fff"/>
          </g>
        </g>
        <path d="M78.85816,127.40647a30.36829,30.36829,0,0,1-8.72793-2.079,29.96674,29.96674,0,0,1-13.12417-10.207c-.08479-.11548-.17636-.22954-.26493-.33985a24.18483,24.18483,0,0,1-1.32948-2.02344c-.03009-.06143-.0612-.125-.09711-.18406a27.68253,27.68253,0,0,1-1.75547-3.4292,17.53734,17.53734,0,0,1-1.29746-9.15259,20.96108,20.96108,0,0,1,3.24968-8.491c.01436-.02378.02759-.04956.04093-.07567.05422-.10628.627-.9832.77526-1.20086A30.87539,30.87539,0,0,1,61.44142,84.423a29.90927,29.90927,0,0,1,9.73034-5.7394,30.445,30.445,0,0,1,11.51037-1.76933,31.50572,31.50572,0,0,1,8.552,1.55472,9.68915,9.68915,0,0,1,1.02075.37732c.11738.05382.2611.14641.27907.28182a.44352.44352,0,0,1-.2068.36034,1.18648,1.18648,0,0,1-1.10023.24985,25.86712,25.86712,0,0,0-6.14979-.6706,24.44627,24.44627,0,0,0-5.83248.61922A29.17022,29.17022,0,0,0,66.066,86.38326a2.33907,2.33907,0,0,1-1.53344.60253c-.68334.02771-1.37657.07739-2.04694.12542q-.29684.02129-.59368.04206a.55863.55863,0,0,0-.39789.15085.387.387,0,0,0-.07806.29715c.01885.2045.03644.40922.05407.61394.05362.62354.10909,1.26825.20052,1.89832a2.27412,2.27412,0,0,1-.36913,1.71409,24.61377,24.61377,0,0,0-1.84379,3.13057,15.91409,15.91409,0,0,0-.83581,12.511,21.07563,21.07563,0,0,0,2.68973,5.125,2.07669,2.07669,0,0,1,.39579,1.39912c-.087.92483-.17247,1.78471-.26115,2.6287a.63991.63991,0,0,0,.06693.48944c.08885.10474.24342.13335.48039.14732l.27935.01652c.82636.04871,1.68085.09913,2.52.16158a1.97923,1.97923,0,0,1,1.19476.51856,29.3297,29.3297,0,0,0,7.807,5.00062,28.40143,28.40143,0,0,0,9.831,2.35749,26.54462,26.54462,0,0,0,7.62134-.64863,1.38774,1.38774,0,0,1,.32094-.03985,1.14748,1.14748,0,0,1,.74341.28012c.15823.128.23714.2607.22219.37379-.01846.13949-.17038.23436-.29463.28943-.33459.14829-.69206.26564-1.03775.37907l-.02427.008A30.711,30.711,0,0,1,78.85816,127.40647Z" style="fill: #fff"/>
        <path d="M66.09947,116.67287a26.90288,26.90288,0,0,1-5.68695-8.18762,14.58181,14.58181,0,0,1-.63912-10.88292,24.75552,24.75552,0,0,1,5.38852-8.88842,26.66059,26.66059,0,0,1,8.59193-6.27784,27.7956,27.7956,0,0,1,11.47131-2.5549c.98947-.011,1.99832.07523,2.974.15851l.14151.012a17.49731,17.49731,0,0,1,1.91847.29584.47774.47774,0,0,1,.37938.26712.3.3,0,0,1-.0673.29732,2.06361,2.06361,0,0,1-1.72789.92335c-.19759-.00777-.39783-.00573-.59148-.00374-.08908.001-.17819.00187-.26724.00187a17.72061,17.72061,0,0,0-2.5248.1798,25.70743,25.70743,0,0,0-6.91545,1.87112,27.42717,27.42717,0,0,0-7.92707,5.17786,1.34315,1.34315,0,0,1-.89647.37419c-.48515.02146-.977.05939-1.45256.09612-.26876.02078-.54667.04224-.81994.06041a.46657.46657,0,0,0-.34652.14244.43446.43446,0,0,0-.0765.343c.02631.228.05027.46043.07341.68525.03835.37209.078.75684.12961,1.13433a2.02069,2.02069,0,0,1-.31148,1.453,23.94428,23.94428,0,0,0-1.78208,3.21375,13.15433,13.15433,0,0,0-.7722,9.18563,19.44828,19.44828,0,0,0,2.52226,5.2524,2.02306,2.02306,0,0,1,.35957,1.36692c-.027.236-.05218.47218-.07733.70836-.04158.39026-.08456.79374-.13557,1.189a.50236.50236,0,0,0,.07809.40655.47465.47465,0,0,0,.36267.14159c.235.01016.47408.02572.70534.04076.27422.01788.5578.03634.83766.046a2.41394,2.41394,0,0,1,1.97553.776,4.02368,4.02368,0,0,0,.66713.59674c.07852.0604.15973.12291.23692.18547a27.82229,27.82229,0,0,0,7.87727,4.55677,25.48132,25.48132,0,0,0,8.96822,1.54729l.01348-.00006a2.24948,2.24948,0,0,1,1.78369.88316.36755.36755,0,0,1,.10129.31515.37546.37546,0,0,1-.22769.24963,1.68621,1.68621,0,0,1-.4472.11485,28.3941,28.3941,0,0,1-10.11452-.16A27.06876,27.06876,0,0,1,66.09947,116.67287Z" style="fill: #fff"/>
        <path d="M87.63724,121.77369a17.769,17.769,0,0,1-2.37612-.21426,26.00248,26.00248,0,0,1-6.4953-1.85727,25.01248,25.01248,0,0,1-7.71365-5.29788,24.15437,24.15437,0,0,1-3.87913-5.18093,13.25255,13.25255,0,0,1-2.06767-6.8429l0-.002a12.37356,12.37356,0,0,1,1.00846-5.07981,24.39256,24.39256,0,0,1,6.633-8.848,24.8811,24.8811,0,0,1,6.38184-3.89541,25.38374,25.38374,0,0,1,7.044-1.81322c.10514-.01147.21037-.0243.31574-.03713a8.10469,8.10469,0,0,1,.97445-.07886c.09166,0,.18321.00318.27447.01034a.58635.58635,0,0,1,.493.30657.35659.35659,0,0,1-.04119.37186,3.121,3.121,0,0,1-1.75593,1.39855,23.46485,23.46485,0,0,0-3.26232.95412,26.23524,26.23524,0,0,0-2.46255,1.09436,24.55648,24.55648,0,0,0-6.18632,4.50357,1.07776,1.07776,0,0,1-.69291.34864c-.45055.03645-.826.06586-1.21435.08448-.32917.01578-.53642.0319-.64525.1593-.10316.12076-.09629.30016-.05774.653a1.886,1.886,0,0,0,.03827.20955,2.55358,2.55358,0,0,1-.474,2.33212,9.55675,9.55675,0,0,0-1.07894,1.83024q-.08291.1681-.16638.33536a10.82778,10.82778,0,0,0-.87694,7.61711,15.31073,15.31073,0,0,0,2.37478,4.91432,1.72756,1.72756,0,0,1,.29874,1.32258c-.04388.27-.06988.546-.095.813-.01017.10758-.0203.21523-.03157.32264a.44708.44708,0,0,0,.08439.35773.48794.48794,0,0,0,.37365.13631c.24946.00647.50381.02458.74975.04212.19263.01374.39179.02794.58848.03651a1.16431,1.16431,0,0,1,.8154.35057,21.43519,21.43519,0,0,0,1.78854,1.61729,23.17509,23.17509,0,0,0,9.56962,4.79357,3.44547,3.44547,0,0,1,2.174,1.33609l.03108.04264c.14977.20449.23694.33944.14645.52929A.56115.56115,0,0,1,87.63724,121.77369Z" style="fill: #fff"/>
        <path d="M101.79715,71.55736q-.00018.29506.00014.59009c.00025.41416.00051.82832-.00131,1.24242a.51179.51179,0,0,1-.29825.51624c-.18466.08408-.32551.00823-.4931-.14108q-.28019-.24978-.55862-.50159c-.50156-.45191-1.02021-.91921-1.54874-1.358a46.9334,46.9334,0,0,0-29.06135-10.912c-.30385-.00659-.51388-.02987-.6595-.28279-.16246-.28216-.08911-.48526.073-.79153.04542-.08582.48737-1.16061.48737-1.16061.27878-.61564.55944-1.24264.83084-1.84909q.193-.43125.38634-.86244a1.10316,1.10316,0,0,1,1.08527-.79471,2.14191,2.14191,0,0,1,.28018.01993A53.30929,53.30929,0,0,1,94.03913,63.1356a53.42158,53.42158,0,0,1,7.14044,5.43022,1.73319,1.73319,0,0,1,.62178,1.44084c-.013.357-.00991.7196-.00687,1.07023C101.79584,71.237,101.79723,71.39726,101.79715,71.55736Z" style="fill: #fff"/>
        <path d="M70.951,148.351l-.78364-1.74559c-.04976-.11088-.10585-.22136-.16013-.32821a3.06219,3.06219,0,0,1-.29885-.73532,3.35884,3.35884,0,0,0-.42818-1.011c-.17418-.29664-.28336-.53077-.10066-.8424.15221-.25968.36715-.278.7029-.275a35.27738,35.27738,0,0,0,4.1067-.26774,47.11861,47.11861,0,0,0,22.43868-8.7193,53.79477,53.79477,0,0,0,4.5531-3.76472.58025.58025,0,0,1,.36681-.19757.36019.36019,0,0,1,.15613.03877.54159.54159,0,0,1,.29422.56177q-.00072.55183-.0004,1.10367l-.00005.64778c-.00006.16-.00134.32008-.00261.48012-.0029.364-.00588.74044.006,1.11105a1.70134,1.70134,0,0,1-.59808,1.41052c-1.13974,1.025-2.35074,2.02685-3.59935,2.97769a53.33968,53.33968,0,0,1-21.5288,9.707c-1.22766.24753-2.48047.45907-3.72356.62882A1.1541,1.1541,0,0,1,70.951,148.351Z" style="fill: #fff"/>
        <path d="M69.61039,62.18108c.09655.00464.19334-.00159.28974-.00159,1.48484,0,2.93275.12024,4.16642.24a42.963,42.963,0,0,1,8.73861,1.78363,43.855,43.855,0,0,1,17.23044,10.1883.53708.53708,0,0,1-.22494.99994c-.10545.03435-.21505.06586-.321.0964a4.66744,4.66744,0,0,0-.69218.23941,1.33793,1.33793,0,0,1-1.5302-.22266,34.95942,34.95942,0,0,0-3.8519-2.6048,41.02289,41.02289,0,0,0-9.42345-4.08538,40.45253,40.45253,0,0,0-10.15134-1.55495,32.3927,32.3927,0,0,0-4.68547.16453c-.60364.071-1.20708.1438-1.835.21959-.29448.0356-.59438.07182-.9022.10878a.42634.42634,0,0,1-.36182-.17673.48568.48568,0,0,1-.00255-.46373c.53551-1.24156,1.176-2.71141,1.86581-4.199a1.04936,1.04936,0,0,1,.36661-.44306C68.40294,62.37415,68.57146,62.13116,69.61039,62.18108Z" style="fill: #fff"/>
        <path d="M68.43429,142.06809c-.04736-.03339-.11265-.0988-.20777-.17993a1.92454,1.92454,0,0,1-.46659-.73481l-.00638-.01447q-.29844-.67371-.59975-1.34615c-.35256-.78908-.71716-1.60508-1.06739-2.411a.57192.57192,0,0,1-.01666-.55831.61356.61356,0,0,1,.57369-.16226c.0493.00483.09864.014.15087.02379.02816.00528.05632.01051.08456.0151a34.10816,34.10816,0,0,0,4.215.43227,40.40908,40.40908,0,0,0,19.62263-4.1589,39.77189,39.77189,0,0,0,6.67337-4.15861,1.18683,1.18683,0,0,1,1.28489-.183c.30981.12961.63594.22908.95131.32525l.13538.04139c.31838.09776.46959.22709.52191.44635.06149.25763-.09893.43034-.29882.61366q-.30513.27983-.61352.55614-.29687.26759-.59228.53668a39.22458,39.22458,0,0,1-5.21939,3.99715,43.8367,43.8367,0,0,1-11.44151,5.26444,45.55741,45.55741,0,0,1-11.724,1.8135c-.08147-.00017-.16532-.00068-.24912-.00113-.09637-.00057-.19424-.00114-.29263-.00114-.118,0-.23663.0034-.35441.00341A2.38553,2.38553,0,0,1,68.43429,142.06809Z" style="fill: #fff"/>
        <path d="M77.63925,41.18271a.78943.78943,0,0,1,.56423-.26349c.03165-.00261.063-.0038.09419-.0038a2.33138,2.33138,0,0,1,.73668.1626l.08562.02855A72.27728,72.27728,0,0,1,91.0542,46.2494,70.05911,70.05911,0,0,1,97.254,50.05711c.14894.10276.32457.26059.31543.42869-.00735.13535-.13543.274-.37036.40093-.073.0394-.14693.0771-.22085.11485-.11817.06024-.24035.12258-.35752.19155a10.85251,10.85251,0,0,0-2.84132,2.39366c-.02413.029-.048.05848-.072.08817a.84817.84817,0,0,1-.599.41484.71408.71408,0,0,1-.38135-.13131l-.026-.01465q-.36261-.20344-.72374-.40962c-.471-.26774-.95793-.54456-1.44325-.80617a61.64365,61.64365,0,0,0-11.73678-4.8454c-.5832-.17248-1.18025-.33195-1.75763-.48615-.3508-.09373-.71356-.19058-1.0691-.28931a.87175.87175,0,0,1-.5983-.42058.828.828,0,0,1,.04423-.69575c.53372-1.22414,1.07587-2.43573,1.53582-3.45951C76.97245,42.48667,77.5253,41.321,77.63925,41.18271Z" style="fill: #fff"/>
        <path d="M93.73883,150.77148a10.86228,10.86228,0,0,0,3.4416,2.74111c.24659.1245.38185.26263.39116.39946s-.10568.29158-.33251.44793a70.45912,70.45912,0,0,1-16.90375,8.5298c-.12609.04422-.25195.08947-.37711.13449a9.8311,9.8311,0,0,1-1.50752.45833,1.19719,1.19719,0,0,1-.83652-.22176c-.06259-.06074-.51391-1.04394-.55623-1.14079-.26774-.61258-.54485-1.23311-.81282-1.8332-.26522-.5939-.53946-1.20807-.80442-1.814a.91207.91207,0,0,1-.05864-.77228.90079.90079,0,0,1,.64312-.41564c1.03344-.24832,2.15541-.56341,3.53094-.99159a62.50132,62.50132,0,0,0,12.95138-5.7184C93.163,150.19166,93.26656,150.20818,93.73883,150.77148Z" style="fill: #fff"/>
        <path d="M71.18828,77.71268a31.93562,31.93562,0,0,0-9.59613,5.30543,31.26407,31.26407,0,0,0-2.82732,2.58827c-.24915.25611-.42855.29959-.63977.1546-.20984-.14387-.23291-.327-.0823-.65323.057-.1236.11264-.24782.16794-.37221q.39675-.892.79769-1.7821c.62319-1.38793,1.26759-2.82309,1.8735-4.24695a4.88887,4.88887,0,0,1,2.62334-2.6626,34.85639,34.85639,0,0,1,12.7581-3.0097,32.24963,32.24963,0,0,1,6.66633.44164A33.20336,33.20336,0,0,1,91.16852,76.011a32.4728,32.4728,0,0,1,2.98131,1.56744c.17421.1022.26448.19865.26828.28654.004.092-.08473.203-.26365.3299a.98307.98307,0,0,1-1.02577.11611,31.11085,31.11085,0,0,0-13.23942-2.26632,32.03548,32.03548,0,0,0-5.00834.64976c-.8791.18469-1.78292.41632-2.68638.68843C72.03564,77.43085,71.8064,77.49858,71.18828,77.71268Z" style="fill: #fff"/>
        <path d="M75.8425,113.08947a21.40362,21.40362,0,0,1-4.6939-6.65316,9.49439,9.49439,0,0,1-.44945-7.29907A20.10445,20.10445,0,0,1,75.1839,91.9729a22.51573,22.51573,0,0,1,5.72629-4.34682A17.102,17.102,0,0,1,85.46536,85.867a.37462.37462,0,0,1,.44973.13052c.08246.11412.03489.19871-.05626.33842l-.02907.04508a4.93212,4.93212,0,0,1-1.41325,1.44964,29.78978,29.78978,0,0,0-5.33895,4.59657,45.39129,45.39129,0,0,0-3.60724,4.78289c-.06332.11385-.12166.23044-.18278.34552-.17194.3236-.34969.65828-.51073.995a8.4242,8.4242,0,0,0-.77217,4.71715,10.77714,10.77714,0,0,0,1.44644,3.8957l.03673.06466c.11624.202.40067.70439.45628.78427l.02751.03917a2.11129,2.11129,0,0,1,.43411,1.607c-.07414.54013-.10858.85454.04508,1.03531.15939.18752.48257.19569,1.06929.21062a1.31818,1.31818,0,0,1,.99673.48416,32.28,32.28,0,0,0,5.9676,5.2339,4.77885,4.77885,0,0,1,1.389,1.47127c.08474.13711.11258.21909.04173.31418a.31574.31574,0,0,1-.33277.15431c-.11758-.02356-.24575-.0532-.39185-.09067A21.1055,21.1055,0,0,1,75.8425,113.08947Z" style="fill: #fff"/>
        <path d="M63.0668,128.13839a4.29974,4.29974,0,0,1-2.10295-2.25979c-.28921-.66544-.58922-1.33922-.87936-1.9908q-.14516-.32591-.29008-.652-.545-1.2269-1.09078-2.45338l-.64551-1.4514c-.00735-.01652-.014-.03333-.02072-.05013-.00849-.02129-.017-.04258-.02654-.06342a.40594.40594,0,0,1,.11828-.57607c.19326-.13143.3782-.09754.58207.10644.69269.69315,1.50513,1.4941,2.38185,2.22851a31.84992,31.84992,0,0,0,10.1787,5.743c.49453.1693.92969.3009,1.04712.33553a30.89115,30.89115,0,0,0,10.50992,1.3093,33.32223,33.32223,0,0,0,3.72609-.40258,30.15439,30.15439,0,0,0,6.61853-1.88265.99965.99965,0,0,1,.38683-.08374.94236.94236,0,0,1,.50176.15465c.23663.14585.35585.27143.35434.37328-.0015.10344-.12773.22817-.37512.37079a34.22374,34.22374,0,0,1-3.84589,1.92466,33.02988,33.02988,0,0,1-11.949,2.56142,32.4652,32.4652,0,0,1-5.89979-.39758A33.602,33.602,0,0,1,63.0668,128.13839Z" style="fill: #fff"/>
        <path d="M62.75534,74.48286c.76414-1.702,1.45325-3.2465,2.10668-4.72152a1.29214,1.29214,0,0,1,.9713-.78341,42.11366,42.11366,0,0,1,5.87486-.73748c.09311-.00545.7368-.03111,1.02628-.03111h.00764c1.29238.003,2.67835.02339,4.05728.15079a38.41639,38.41639,0,0,1,5.48119.9082,37.861,37.861,0,0,1,11.72915,5.0592c.81676.52981,1.618,1.1,2.38159,1.69473.23042.17946.339.328.332.4539-.00736.13154-.14415.27717-.41817.44516a1.13955,1.13955,0,0,1-1.31315.01516,34.68017,34.68017,0,0,0-7.3303-3.25951,35.39834,35.39834,0,0,0-9.2537-1.60258,32.70509,32.70509,0,0,0-4.76753.16424A35.80272,35.80272,0,0,0,63.30269,74.952c-.22791.09821-.37447.08533-.5059-.04463A.33183.33183,0,0,1,62.75534,74.48286Z" style="fill: #fff"/>
        <path d="M71.6939,136.16227l-.02631-.00159a43.35316,43.35316,0,0,1-5.67593-.69819,1.33458,1.33458,0,0,1-1.092-.74611q-.63956-1.42293-1.27455-2.848-.44275-.99142-.88623-1.98251a.30627.30627,0,0,1,.035-.36232.341.341,0,0,1,.38455-.12042h0a2.30448,2.30448,0,0,1,.23734.09243l.05641.02424a35.55,35.55,0,0,0,12.17938,2.80254,34.0631,34.0631,0,0,0,8.99581-.78574,35.02522,35.02522,0,0,0,10.293-4.028,1.43945,1.43945,0,0,1,.73231-.23265,1.25166,1.25166,0,0,1,.68673.22714c.25238.16283.37774.3038.38327.431.00545.12552-.10284.27256-.331.44958a36.04673,36.04673,0,0,1-6.11595,3.83393,37.87291,37.87291,0,0,1-17.532,3.97911C72.43606,136.19185,71.76013,136.16625,71.6939,136.16227Z" style="fill: #fff"/>
        <path d="M72.74812,53.99034a.67894.67894,0,0,1-.50946-.30839.6239.6239,0,0,1,.011-.55632c.6-1.38975,1.23063-2.80186,1.87441-4.19722a.97871.97871,0,0,1,.95521-.61355c.04536.007.091.01312.13651.01925.10119.01357.19677.0264.29084.04854,1.70992.403,3.43514.89383,5.27418,1.50056a61.4791,61.4791,0,0,1,8.21334,3.41353c.83084.41586,1.65956.87277,2.461,1.31464q.27388.151.54789.30163c.41487.2276.52665.4786.36244.81378a11.68526,11.68526,0,0,0-1.06231,3.684.59046.59046,0,0,1-.24222.48217.63749.63749,0,0,1-.54272-.08493A54.593,54.593,0,0,0,78.928,55.26881C77.16789,54.8,75.262,54.40569,72.74812,53.99034Z" style="fill: #fff"/>
        <path d="M74.064,155.36782c-.66121-1.45975-1.24651-2.77268-1.78931-4.01379a.71359.71359,0,0,1-.03452-.6224.7348.7348,0,0,1,.55251-.32372h0q.31527-.05613.63055-.11162c1.26408-.22312,2.57116-.45384,3.84586-.74963A54.56931,54.56931,0,0,0,90.485,144.6152a.65784.65784,0,0,1,.58079-.09958c.12447.06438.20438.2268.23748.48274a11.78439,11.78439,0,0,0,.95591,3.46246c.27544.59867.2175.77285-.36468,1.09612-1.20881.67117-2.41989,1.30663-3.59957,1.88878a61.22564,61.22564,0,0,1-11.21578,4.18342c-.12825.03441-.25641.06961-.38333.10441a11.9886,11.9886,0,0,1-1.40081.33047A1.1061,1.1061,0,0,1,74.064,155.36782Z" style="fill: #fff"/>
      </g>
    </g>
  </g>
</svg>
