<svg xmlns="http://www.w3.org/2000/svg" viewBox="0 0 260.61958 275.5948">
  <title>map_ahamkara-bones</title>
  <g id="Layer_2" data-name="Layer 2">
    <g id="Layer_1-2" data-name="Layer 1">
      <g>
        <path d="M139.13964,2.06661c3.72484,1.33653,7.2933,1.06631,10.791,1.43933,4.075.43466,8.16126-.59909,12.20638.60341,4.02115,1.19523,8.29448,1.64361,12.19346,3.11766a26.90614,26.90614,0,0,1,9.08494,5.86393c4.117,3.92184,8.7426,7.45425,14.71848,8.74152,5.29713,1.14087,10.4056,3.1322,15.6637,4.49188a67.96343,67.96343,0,0,0,7.98229,1.1083,7.15353,7.15353,0,0,1,5.52562,3.58758c1.93294,3.2813,5.00674,3.8594,8.63764,3.65405,1.502,2.30272,3.06787,4.83125,2.936,8.01593-.0401.97077.09851,1.95392.00376,2.91635-.26159,2.66149-2.02336,5.112-1.06228,7.97637.12783.3811-.37976,1.02541-.67984,1.49182a42.80368,42.80368,0,0,0-4.80676,9.947l-.08882.30762c-1.15082,3.55232-3.15,6.7518-7.21041,8.16584-1.78626.622-3.29852,2.198-4.75347,3.53833-.84213.77538-1.53462,1.79136-2.75649,1.63311-2.98418-.38675-5.791.664-8.85591.53047,1.2477-.56869,2.49541-1.1371,4.03164-1.83712-3.82792-2.1547-4.59387,2.191-7.12644,2.67871.55926,1.61831,1.05744,3.059,1.6054,4.64474-1.14463,3.05011-3.53025,4.3565-6.79648,4.63774a28.9295,28.9295,0,0,0-6.60593,1.22726,8.70393,8.70393,0,0,0-3.30929,2.57643,6.45972,6.45972,0,0,1-3.42475,2.22818,85.28179,85.28179,0,0,0-8.33379,3.03315,24.369,24.369,0,0,0-1.68075,3.82846,8.3994,8.3994,0,0,1-2.8881,4.5675c-1.74158,1.40112-3.10825,3.26031-4.80488,4.72764a7.70027,7.70027,0,0,0-2.80763,4.10916c-.41931,1.68237-1.88906,2.77613-3.42422,3.63118-5.09851,2.84019-9.70126,6.71359-15.76084,7.54629-3.32329,2.359-7.30406,2.99871-11.04855,4.32205-2.51319-1.8861-4.78227-4.07256-7.98337-4.66358a8.83733,8.83733,0,0,0-4.56346.0907,22.81992,22.81992,0,0,1-7.45909.52185,5.52719,5.52719,0,0,1-2.9282-1.53326c-1.76257-1.50205-3.58031-1.72489-5.89084-1.52385-2.3151.20131-4.33524,1.05743-6.52224,1.192l-1.24179,5.16741c-1.16967,1.298-2.18753,1.61266-3.56955.70675a28.93738,28.93738,0,0,0-3.61691-1.75718c-2.074,2.20449-2.67386,4.655-3.3467,7.13371a29.51416,29.51416,0,0,1-2.28361,5.44407c-.26886.53343-1.08839.78937-2.02014,1.41861-.36171-1.37662-.647-2.39611-.89568-3.42448-.49225-2.03359-.879-4.0992-1.51146-6.08731-.13942-.43815-1.12014-.60878-2.03763-1.06335-.94333,3.82818-3.83061,6.48052-4.41679,10.21962a1.36008,1.36008,0,0,1-.309.784c-3.54478,3.01513-4.47923,7.71854-7.15309,11.20007-4.93864,6.42992-8.63145,13.9929-15.99042,18.38007-1.39412.8311-2.35278,2.39288-3.65325,3.76655a2.20433,2.20433,0,0,1-.96889-2.56189c.3671-1.40086.64485-2.82566,1.02729-4.2222,1.5478-5.65185,1.65277-11.43476,1.66353-17.23491a14.38834,14.38834,0,0,1,.48579-2.9586,48.612,48.612,0,0,0,1.13333-5.08344,28.53545,28.53545,0,0,0-.20428-4.51717c-1.85865,3.4234-4.037,6.7179-5.489,10.306-1.46733,3.62607-5.01238,5.76838-6.04586,9.46495-1.40516.52052-2.69567.9985-4.0949,1.51685-.60017-4.019-2.49193-7.71746-.317-11.71844l-2.38643-.57352a47.94666,47.94666,0,0,0-4.09274,11.389l-.06217.32969c-.73447,3.39407-2.40984,5.26214-5.91641,7.22548a43.41588,43.41588,0,0,1,.04468-4.55916c.13968-1.24691.11276-2.26855-1.49236-3.04338-2.16439,3.38492-3.04688,7.81032-7.27931,9.67434-1.10023-1.49666-2.391-3.25251-3.59565-4.89127-2.38643.06943-1.57956,2.48761-2.816,3.65324-1.00172-2.3369-1.944-4.53467-3.013-7.02848a5.54177,5.54177,0,0,1-1.71735.30063c-.654-.07267-1.67914-.32431-1.83632-.7552-.81117-2.22441-2.01125-4.55566-1.92351-6.80456.154-3.9415,1.1519-7.84907,1.782-11.77334a5.03393,5.03393,0,0,0,.19082-2.08849c-.98773-3.20218.03229-6.20224.75357-9.23889.80337-3.38222,1.65976-6.75234,2.43138-10.14183A43.2369,43.2369,0,0,1,9.47409,110.747c1.12687-2.08337,1.61-4.51206,2.48035-6.75772A49.91861,49.91861,0,0,1,17.60979,93.703a35.476,35.476,0,0,0,2.59742-4.76962c1.22-2.53607,2.51346-4.9416,5.394-6.00119A3.07138,3.07138,0,0,0,27.243,81.66075c2.4381-5.05841,7.45721-7.57132,11.14006-11.39225.77349-.80256,1.95608-1.15163,2.20152-2.50323.07886-.43465.91345-.67956,1.2235-1.1336,1.69663-2.483,5.36925-2.85956,6.39843-6.03375,4.58795-2.47686,7.85176-6.487,11.628-9.91765a20.65888,20.65888,0,0,0,5.33831-7.97879,33.22765,33.22765,0,0,1,4.19851-7.26639c2.01152-2.8122,3.82011-5.67149,4.26284-9.09947.359-2.77937,2.59877-4.31129,3.75337-6.55238,1.481-2.87464,5.44569-6.08193,8.82441-7.70374,6.9297-3.32571,13.78351-6.85,20.89165-9.74432,2.7538-1.12122,5.65266-2.458,8.94231-2.32614a19.4914,19.4914,0,0,1,3.766.21773c3.9466.93471,7.9177,1.78894,11.81613,2.8959a8.42316,8.42316,0,0,0,7.5113-1.05609Zm7.95673,69.254a68.47329,68.47329,0,0,1,6.5007-3.76683c5.10819-2.27123,10.74173-3.40133,15.17306-7.1372.3558-.29982.99257-.26618,1.4127-.36684l1.90709-7.93519c-1.00871-2.52314-1.93993-4.74594-2.78717-7.00021-.89325-2.37674-2.16519-4.73517-2.42411-7.191-.25488-2.41576-1.82527-5.39267-3.62149-5.82436-12.03708,3.47616-23.354,2.66391-30.59344,11.98057-2.81085,3.61719-3.50441,8.034-4.47734,12.08177.401.82409.81037,1.58736,1.15029,2.38a42.02279,42.02279,0,0,0,2.52423,5.81118,5.93386,5.93386,0,0,0,3.90865,2.33637c4.0112.88895,8.1341,1.575,11.3263,4.63182ZM25.474,120.59177c3.58058.1055,4.0626.08721,5.27533-1.32388,3.90462-4.54246,7.73226-9.15088,11.72085-13.88982-1.07412-1.17209-1.87264-2.15523-2.78663-3.01539-1.51335-1.424-3.16665-2.67817-3.836-4.82184-.13753-.44058-1.15647-.6061-1.70659-.86824A13.37226,13.37226,0,0,1,32.127,98.4785c-3.23528,1.85058-5.10039,4.73625-6.42777,8.09049-.09446.23845-.67122.28582-1.42318.57676a22.62311,22.62311,0,0,1,.27209-2.64372c.9514-4.08279,2.001-8.143,2.90963-12.2349a12.83277,12.83277,0,0,1,3.05414-5.949l-.00915.01023c1.99457-2.26639,3.92131-4.84067,3.64114-8.32625-3.97459,1.50123-5.31085,5.246-6.89471,8.35665a61.5463,61.5463,0,0,1-6.05744,9.757l.11062-.15179a23.24016,23.24016,0,0,0-3.38681,6.48994l-.04817.16552a90.87881,90.87881,0,0,0-2.38293,9.67838,3.55859,3.55859,0,0,0,.08586,2.43352c1.21326,1.77334.401,3.43121-.18678,4.95129a64.47263,64.47263,0,0,1-3.16746,6.24986c.38325.55415.68872.99581,1.17263,1.69529,1.41915-1.62531,2.62649-3.18279,4.02115-4.54866,1.05609-1.034,2.04-2.59123,3.572-2.59123a2.78147,2.78147,0,0,0,3.04339-2.33772c.06755-.2153.70513-.25137,1.28754-.43707.05383.96539.098,1.75665.1604,2.87868Zm94.19638-47.52558c.83782-3.80208-.77322-6.716-3.28561-9.34089a29.27475,29.27475,0,0,0-2.91393-3.02078c-1.23964-.96539-2.21768-2.60173-4.41652-1.65545-.68306.29389-1.94988-.76812-3.06034-1.25821q-3.36474,1.05232-7.15416,2.23759c-1.95178,1.56072-2.00533,4.07956-2.53337,6.27463.90725,3.38007,3.579,4.29567,6.4431,4.85117,1.36506.26483,2.81705.1203,4.1603.44676a34.64109,34.64109,0,0,1,3.83841,1.52251c2.88864,1.08623,5.7727-.04926,8.92212-.05706Zm1.87722,29.93084a40.30151,40.30151,0,0,0,3.71676-2.47738c2.468-2.1068,3.26139-6.77441,1.40274-8.86453A11.17469,11.17469,0,0,0,118.53,87.588c-1.51684-.04522-3.06087.46587-4.56238.34637a10.06371,10.06371,0,0,0-7.55707,2.75541c-.10657.80821-.23145,1.7545-.36844,2.79416l9.57261,2.30058c2.17651,2.64614,3.92158,4.76773,5.93256,7.21256ZM111.04512,49.4369c3.03665,5.08962,8.031,3.08214,12.02686,4.21358.91156-.58913,1.75234-1.13252,2.419-1.56341l1.25686-5.22984c-2.29842-3.03477-5.2067-4.78119-8.45355-4.95156-2.3797,1.3403-4.37507,2.46394-6.2905,3.54263Z"/>
        <path d="M57.855,205.82378h7.72473c.88734-1.19981,1.89364-2.56055,2.89994-3.92157.08612-.11654.144-.28233.25864-.34477,4.04968-2.20961,5.36549-6.84977,8.73641-9.72791,5.151-4.39821,8.565-10.20859,11.82044-16.04506.94332-1.69151,2.77183-2.96722,2.70292-5.19027a20.43355,20.43355,0,0,1,7.52181-5.48768c4.5605-1.65921,7.29115-2.70266,10.1857-5.53154a96.57979,96.57979,0,0,0,7.34821-8.1069l.14238-.18194a13.3585,13.3585,0,0,1,9.55619-5.419c2.099-.18382,4.35-.2433,6.21623-1.07144,2.43945-1.08273,4.8291-.40074,7.22226-.58482.64969-.05,1.36641.77242,2.208,1.29024a33.01178,33.01178,0,0,1-6.41781,8.70681c-3.28507,3.10879-6.8635,5.95273-9.81537,9.346a16.73974,16.73974,0,0,0-3.32463,4.831c-.94278,2.40284-3.157,4.31721-4.86517,6.407-3.75605,4.59469-7.77317,8.96786-9.8213,14.75482-.77861,2.20018-2.40419,4.10082-3.45462,5.82732,1.237,4.76477,4.58607,7.65528,7.02094,11.36828a4.25506,4.25506,0,0,0,2.67144-2.813,12.33611,12.33611,0,0,1,5.17144-6.094l.05652-.03123c3.129-1.75826,3.13274-4.34222,3.46539-7.24809-3.52245-1.28216-5.31839,1.30262-7.83077,3.29126-1.74239-.274-3.7967-.59721-6.2749-.98692.36091-1.8627.64512-3.32786.87792-4.52982a73.80156,73.80156,0,0,0,7.141-3.3833,7.60166,7.60166,0,0,0,3.32948-3.44278c1.10265-3.326,3.55232-5.4543,5.805-7.80359,1.47595-1.53944,2.89994-2.95538,3.54371-5.1997.78911-2.75056,2.91689-4.5702,5.17682-6.48724,4.25746-3.61154,7.87113-7.9831,11.74427-12.04624.89488-.93874,1.74213-1.9227,2.63753-2.86065a32.53476,32.53476,0,0,0,5.33373-6.65115,9.24675,9.24675,0,0,1,7.46932-5.1308c2.49811-.21288,4.54085-2.10867,6.80428-3.19194a20.47338,20.47338,0,0,0,8.77544-7.11729,13.41,13.41,0,0,1,7.68947-5.60664l.09366-.02152c4.153-1.14329,8.13974-2.91124,12.3466-4.03112a15.09558,15.09558,0,0,0,6.4614-3.02132c1.16913-1.03617,3.01324-1.33464,4.59037-1.85515.20051-.06621.61981.53047,1.01921.89461-3.55878,5.09231-6.78544,10.426-10.75386,15.13484-2.62246,3.11175-4.92276,6.64469-8.53079,8.94284-1.67106,1.06443-2.87572,2.841-4.37291,4.20606-1.15109,1.04963-2.52423,1.8643-3.62473,2.9586a15.066,15.066,0,0,0-3.214,3.91592,50.69781,50.69781,0,0,1-7.0745,11.16239l.06487-.07967c-2.5218,2.99172-3.85052,6.59356-6.03375,9.71929-.32.45807-.38971,1.11772-.76,1.509-2.25536,2.38239-2.83751,5.0148-1.206,8.09452,1.33977.65589,2.84666,1.39331,4.72872,2.31456,3.9727-2.09172,8.10206-4.18049,12.141-6.43207a44.26365,44.26365,0,0,0,4.86489-3.414,5.609,5.609,0,0,1,4.91414-1.02756c2.83292.5808,5.62279-.31112,8.20029-1.54807,7.61816-3.65648,15.105-7.56568,22.34041-11.94129,2.89429-1.75018,5.78452-3.50737,8.64839-5.2441,1.90252.49494,3.93935.70837,4.58392,3.02052,1.71869.51136,2.809,2.43891,5.02125,1.99617.84347-.16875,1.849.50894,2.78825.77377a29.62626,29.62626,0,0,0,4.85385,1.269,26.1488,26.1488,0,0,0,4.46147-.3741c1.15271-.08424,2.35843-.20994,3.25466,1.56717a17.08785,17.08785,0,0,0,1.6498,7.711c.88115,2.00856.90618,4.39255,1.40031,7.09119.51083.55846,1.38013,1.5085,2.45478,2.683-.64754.63246-1.21352,1.6463-1.79191,1.65356-1.15862.01426-2.12213,1.01061-3.51167.20535-2.76672-1.60323-5.665-.99122-8.547.11762a28.31518,28.31518,0,0,1-7.82188,1.65222c-2.37754.2048-4.631,1.48185-7.1765.83029-.58349-.14937-1.33222.29712-1.99241.50867a18.44916,18.44916,0,0,0-3.55663,1.2399c-1.56933.89649-3.41938,1.14894-4.7769,2.64318a11.43433,11.43433,0,0,1-4.02519,2.27635c-4.30428,1.84277-6.85354,4.91092-8.48881,9.41733-1.44769,3.9902-1.47486,8.28857-3.3066,12.12a30.2994,30.2994,0,0,0-1.0499,2.97987,17.29544,17.29544,0,0,0,1.93858,2.184,7.08791,7.08791,0,0,1,2.46152,5.22365,12.65147,12.65147,0,0,1-1.04775,5.323c-.87145,2.16412-2.78637,2.61249-5.0366,1.53649a13.5194,13.5194,0,0,1-1.86591-1.08381l.04494.02961a16.96027,16.96027,0,0,1-1.40327-1.21381l.00485.00458c-2.76968,1.51309-3.02724,4.98547-5.77323,6.62747-2.42033,1.44741-4.08843,4.18479-6.60593,6.1013.97373,2.57509-.5625,4.53951-1.93373,6.206-4.09087,4.97227-7.76241,10.28959-12.5829,14.684a19.34879,19.34879,0,0,1-7.9072,4.75912,92.43454,92.43454,0,0,0-10.26806,3.68608,67.07047,67.07047,0,0,1-10.02315,2.954c-.90429.21074-2.03492-.55066-3.1478-.89218A3.80729,3.80729,0,0,1,143.57522,263c3.00813-1.56529,5.826-3.537,8.92157-4.88347,4.01845-1.74777,7.18431-4.58607,10.37732-7.37835a112.10205,112.10205,0,0,0,8.24363-8.16908l.081-.09043a44.14764,44.14764,0,0,0,4.04376-5.4551,29.4965,29.4965,0,0,0,3.24739-5.4621,92.56614,92.56614,0,0,0,2.80923-9.22194,3.05582,3.05582,0,0,0-.15045-2.1111c-1.60566-2.81-3.34294-5.54473-4.85467-8.01324-3.15481-.50623-5.79233-.92958-8.82334-1.41591-.344-.35983-.94144-.98558-1.70929-1.78922-.25864-3.63872.24949-6.84357,4.10647-8.82953,1.34379-.692,2.26774-2.19938,3.54505-3.49877v-3.36984c-.95866-1.544-2.23221-2.82243-4.79734-2.05592a4.81007,4.81007,0,0,1-2.99279,3.81957c-3.15373,1.28244-5.18946,3.92857-6.814,6.85892-.13376.24114-.09662.57515-.22419.82167-2.29385,4.43534-4.22166,9.12692-8.414,11.89175-.09043.60152-.23953.91722-.15852,1.15432,1.31984,3.86209-.36117,7.40582-1.385,10.91508a135.7244,135.7244,0,0,1-5.72236,16.62451,57.91957,57.91957,0,0,1-8.73453,14.39686c-3.05253,3.586-5.78291,7.48277-10.57029,9.83449-.759-.30036-1.90872-.75573-3.46432-1.37178a17.98494,17.98494,0,0,1,1.37044-3.51787c5.94575-8.931,11.34353-18.1314,14.427-28.50414.64458-2.16869.26322-4.434.88814-6.70983.92718-3.37711.83-7.03547,1.122-10.088q-3.98672-4.94425-7.09226-8.79563c-5.05759-.62654-9.30132.47288-13.50414,1.80726-2.324.73771-2.31538.76461-4.95721-.246-3.11551,2.785-6.30182,5.62735-9.48058,8.47831a6.58976,6.58976,0,0,0-2.48277,4.78981c-.00915.28958.0993.66423-.04172.85612-2.20422,3.00114-2.57106,6.47486-2.84045,10.0428-.14372,1.90333-1.19227,3.67612-1.69448,5.48687a18.05645,18.05645,0,0,1-2.47847,5.788A12.611,12.611,0,0,0,90.756,253.091c.00888,2.00211-.97157,4.044-1.68532,6.00415-.7194,1.97573-1.8643,3.81069-2.45667,5.81548-1.54672,5.23334-5.59264,7.94623-9.73194,10.68416-1.5723-1.81721-.28663-3.16854.4002-4.13123a28.03855,28.03855,0,0,0,5.03068-13.27431,22.15379,22.15379,0,0,1,1.20061-4.43965,34.68212,34.68212,0,0,0,2.15928-11.99484c-.03768-1.64765,1.62774-2.9228.47368-4.91092-.57864-.99687.38756-2.89051.53235-3.69522-1.5922-1.85327-2.74572-3.196-4.016-4.67515-1.01518,0-2.56029-.46775-3.20944.09608-1.40354,1.21946-2.48815-.268-3.48261.03284a3.67519,3.67519,0,0,1-3.08645-.01158,5.1091,5.1091,0,0,0-4.8988.76515,28.00866,28.00866,0,0,0-3.45543,2.48036,3.82659,3.82659,0,0,1-3.172.95221c-1.99376-.10039-3.133-1.21057-2.4782-3.04554.833-2.33474,1.21111-4.97792,3.20648-6.77063,2.0204-1.81532,4.15331-3.50953,6.11154-5.38756.61632-.591.82732-1.60432,1.43987-2.87115-5.02449-.2476-9.66816-.02664-13.144-3.65271-1.3734,3.23932-3.79023,5.981-2.919,9.78254-1.48994,1.57068-2.96642,3.12709-4.473,4.71553.38514.854.731,1.62072,1.14841,2.54575a3.024,3.024,0,0,0,1.01921.33265c2.97395-.024,4.76774,1.57794,5.647,4.234.61606,1.86161-1.146,5.05464-3.12762,6.13764a23.01509,23.01509,0,0,0-5.39,4.56A20.32849,20.32849,0,0,0,44.05,249.95562l-.049.13566a13.01525,13.01525,0,0,1-4.417,5.64915l-.03768.02584c-1.73135,1.2878-3.7243,2.13344-5.87254.50974a9.77663,9.77663,0,0,0-2.14258-.967c-4.06233,2.107-7.89348,4.21789-11.83282,6.10238C15.76676,263.29209,12.806,266.417,9.62185,269.345a4.58732,4.58732,0,0,1-.7342-5.45484,13.17242,13.17242,0,0,1,3.60507-5.23658,9.46275,9.46275,0,0,0,2.9535-4.79411c-1.0421.261-1.78222.4516-2.525.63111-.8101.19594-1.62262.38191-2.85123.67015a6.04974,6.04974,0,0,1-.77968-2.36785,4.19469,4.19469,0,0,1,1.269-2.51965l.00162-.00161a18.82372,18.82372,0,0,1,3.72752-2.59447l.10227-.04953A9.04946,9.04946,0,0,0,18.53,242.87573a23.15863,23.15863,0,0,0,2.10114-8.523c.04037-2.40742,1.64173-4.4184,3.28426-6.27086,1.885-2.1259,3.618-4.3966,5.2974-6.692,2.35332-3.21644,3.32194-7.05727,4.4733-10.77834a14.16463,14.16463,0,0,1,5.38648-7.96856c3.91943-2.62515,6.32227-6.50878,8.94473-10.16176a15.43237,15.43237,0,0,1,7.41683-5.94008c3.47508-1.325,7.14529-2.62031,10.08774-5.17978a9.86846,9.86846,0,0,1,2.69432-1.02056c-1.62262,5.48768-4.36834,9.87028-6.67968,14.44748-.22769.45108-.67876.86823-.71375,1.32522-.26536,3.47078-3.35181,6.08678-2.92416,9.75132Z"/>
      </g>
    </g>
  </g>
</svg>
