<svg xmlns="http://www.w3.org/2000/svg" viewBox="0 0 264.76719 264.76719">
  <title>map_ascendant-challenge</title>
  <g id="Layer_2" data-name="Layer 2">
    <g id="Layer_1-2" data-name="Layer 1">
      <g>
        <path d="M202.42845,62.89231,158.33879,37.43717H107.42845L63.33879,62.89231,37.88359,106.982v50.91034L63.33879,201.982l44.08966,25.4552h50.91034l44.08966-25.4552,25.45514-44.08966V106.982ZM133.20806,208.45439a80.79461,80.79461,0,0,0-19.96259-47.03156c-15.2691-17.39624-34.76025-26.27869-57.85217-27.84357,45.63287-1.4129,77.30853-39.05078,77.8844-77.51892,1.39136,41.90827,36.34015,76.32941,77.59063,77.50385C166.7451,135.26023,135.387,170.13774,133.20806,208.45439Z" style="fill: #fff"/>
        <g>
          <path d="M149.61718,254.23719l18.23849,10.53,10.53-18.2385A21.06,21.06,0,0,0,149.61718,254.23719Z" style="fill: #fff"/>
          <path d="M86.38152,246.52869l10.53,18.2385,18.23849-10.53A21.06,21.06,0,0,0,86.38152,246.52869Z" style="fill: #fff"/>
          <path d="M35.47208,208.23511v21.06h21.06A21.06,21.06,0,0,0,35.47208,208.23511Z" style="fill: #fff"/>
          <path d="M10.53,149.61718,0,167.85567l18.2385,10.53A21.06,21.06,0,0,0,10.53,149.61718Z" style="fill: #fff"/>
          <path d="M18.2385,86.38152,0,96.91152,10.53,115.15A21.06,21.06,0,0,0,18.2385,86.38152Z" style="fill: #fff"/>
          <path d="M56.53208,35.47208h-21.06v21.06A21.06,21.06,0,0,0,56.53208,35.47208Z" style="fill: #fff"/>
          <path d="M115.15,10.53,96.91152,0l-10.53,18.2385A21.06,21.06,0,0,0,115.15,10.53Z" style="fill: #fff"/>
          <path d="M178.38567,18.2385,167.85567,0,149.61718,10.53A21.06,21.06,0,0,0,178.38567,18.2385Z" style="fill: #fff"/>
          <path d="M229.29511,56.53208v-21.06h-21.06A21.06,21.06,0,0,0,229.29511,56.53208Z" style="fill: #fff"/>
          <path d="M254.23719,115.15l10.53-18.23849-18.2385-10.53A21.06,21.06,0,0,0,254.23719,115.15Z" style="fill: #fff"/>
          <path d="M246.52869,178.38567l18.2385-10.53-10.53-18.23849A21.06,21.06,0,0,0,246.52869,178.38567Z" style="fill: #fff"/>
          <path d="M208.23511,229.29511h21.06v-21.06A21.06,21.06,0,0,0,208.23511,229.29511Z" style="fill: #fff"/>
        </g>
      </g>
    </g>
  </g>
</svg>
