<svg xmlns="http://www.w3.org/2000/svg" viewBox="0 0 170.72 277.15"><g id="Layer_2" data-name="Layer 2"><g id="Layer_1-2" data-name="Layer 1"><path d="M148.41,4.79c-10.62,6-10.39,8-24.2,10.51S109.12,18.37,97,29.51,71.86,51.28,69,55.91s-12.75,9.31-20.3,19.64S36.54,92.37,30.24,105.38s-6,24.82-12,34.52,7.27,15.57,1.33,27-9,27.68-12.65,36.47S-1.25,226.94.32,236.66s-1.44,11.58.58,23.08c1.33,7.58,0,17.88,9.28,17.4,9-.47,19.1-4.36,29.05-13.85,6-5.73,9.35-11.36,12.4-10.64s2.84-.48,6.33-3.65c10.15-9.22,1.95.62,13.31-9.26s20.2-16.64,27.24-28,2.66-14.67,11.73-19-2.67-4.17,8.65-11.16,10.72-8.26,13.82-15.74c6.14-14.84,3.23-6.17,10.93-22.38s5.24-13.67,10.62-20.85c2.63-3.52,6.22-5.35,9.66-13.82,7.69-19,8.58-18.59,4.06-30.12s2.46-12.47,1.34-17.24,0,0-.65-15,1.57-20.46,1.9-27.1C171.21,6.08,170.08-7.44,148.41,4.79Z" style="fill: var(--fill-color);opacity:0.4"/><path d="M148.41,4.79c-10.62,6-10.39,8-24.2,10.51S109.12,18.37,97,29.51,71.86,51.28,69,55.91s-13.56,8.76-20.3,19.64c-6.85,11.06-2.39,17.74,1.92,30,4.4,12.58-11.75,19.32-2.29,37.28,5.68,10.78,15.74,8.94,19.37,11.73,7,5.41,3.16,20,10.2,24.39,12.8,7.91,16.54-16.51,28.85-13,11.59,3.36,32-12.91,36.9-22.57,8.07-16,5.24-13.67,10.62-20.85,2.63-3.52,6.22-5.35,9.66-13.82,7.69-19,8.58-18.59,4.06-30.12s2.46-12.47,1.34-17.24,0,0-.65-15,1.57-20.46,1.9-27.1C171.21,6.08,170.08-7.44,148.41,4.79Z" style="fill: var(--fill-color);opacity:0.4"/><path d="M148.41,4.79c-10.62,6-10.39,8-24.2,10.51S109.12,18.37,97,29.51,71.86,51.28,69,55.91c-4,6.49-3.93,14.6,2.85,27.35,4.75,8.94,3.57,11.08,4.19,17.29,1.28,12.6,5.59,14.24,17.44,21.51,5.77,3.54,15.94,1,24.36-.24,9.28-1.34,13.54-.2,19.41,1.12a32.68,32.68,0,0,0,17-.32c1.72-.43,2.87-2.65,5.78-6.65a32.66,32.66,0,0,0,3.88-7.17c7.69-19,8.58-18.59,4.06-30.12s2.46-12.47,1.34-17.24,0,0-.65-15,1.57-20.46,1.9-27.1C171.21,6.08,170.08-7.44,148.41,4.79Z" style="fill: var(--fill-color)"/></g></g></svg>