<svg xmlns="http://www.w3.org/2000/svg" viewBox="0 0 171.91493 275.59477">
  <title>map_corrupted-egg</title>
  <g id="Layer_2" data-name="Layer 2">
    <g id="Layer_1-2" data-name="Layer 1">
      <path d="M169.1687,68.94654c-.56518-4.87808-1.14357-9.75563-1.72248-14.66116,2.35629-5.18113,4.83664-10.18275,4.42325-16.53516-.33077-5.0296-1.79137-9.64555-2.46636-14.59226-.39966-2.83857-1.1161-5.58053.33077-8.36393a6.5245,6.5245,0,0,0,.46453-2.43971,6.70476,6.70476,0,0,0-.03984-.73178l.0027.02961C169.94085,4.18363,165.7932-.54266,160.17122.05c-6.7518.79906-13.77947,1.88772-19.05669,6.8896-4.21654,4.13365-9.01174,6.118-14.75751,5.01588-2.75595,2.45263-5.82867,4.27145-7.39962,7.63376-.317.689-1.378,1.01949-1.97062,1.58467-7.0963,6.118-15.309,10.65158-23.108,15.76354A65.47921,65.47921,0,0,0,79.82374,49.87694l-.09635.12326c-.93686,1.14355-1.695,2.45263-2.60416,3.62418l-4.244,3.27941c-.12407.0689-.22042.17925-.34449.26188l-2.32857,1.80509a39.80527,39.80527,0,0,0-6.31634,5.48767l-.02207.024a2.71822,2.71822,0,0,0-1.24825-.299,2.75321,2.75321,0,0,0-2.24621,1.15836l-.00565.00834q-14.23431,17.63752-28.48181,35.2888c-7.496,9.30105-15.15718,18.8777-18.23017,30.63166-1.378,5.33238-1.874,10.92718-3.48638,16.19067-.45484.71671-.96458,1.378-1.378,2.12213l.53746.35822c-.08262.193-.15152.39966-.23441.60636-2.17731,5.20885-6.06282,9.34251-5.09851,15.36414,1.00576,6.25579,4.83664,10.14157,2.23248,16.78329-.57891,1.378-1.24018,2.85231-1.92916,4.244-.92314,1.378-1.84655,2.75594-2.68679,4.13365v1.695a21.92739,21.92739,0,0,0-1.26063,4.37991l-.021.13968c-.88169,5.51162,1.03348,10.94089.90941,16.41107,0,2.23248-.17925,4.4507-.33077,6.66946a2.33177,2.33177,0,0,0-.119,1.82124L.78534,222.173C.44084,227.02332.04118,231.81851,0,236.73778c0,7.28926.23442,14.57854.77161,21.84008.35822,4.72628.51,10.00376,3.62418,13.86209a7.20374,7.20374,0,0,0,7.53015,2.98122l-.0479.00915c1.99806-.44111,3.19679-1.97062,5.38755-2.25966.48229,0,.93686-.08263,1.378-.11034l.16525.48229.317-.496c.19889.01.432.0156.66611.0156a14.15994,14.15994,0,0,0,4.16056-.62089l-.10038.02638c5.51163-1.97062,10.6653-7.46852,15.28125-11.02352,5.71832-4.39553,11.45064-8.7636,17.45828-12.75945,11.78141-7.813,25.73986-12.63564,36.667-21.61993a62.2382,62.2382,0,0,0,18.40645-25.89085l.14048-.42793c.4134-.66154.84051-1.378,1.26764-1.95662,3.77544-1.378,4.57476-5.31867,6.8896-8.0197a97.53029,97.53029,0,0,0,6.76553-8.06088c4.76774-7.0274,9.27361-14.22031,13.86209-21.358a13.05387,13.05387,0,0,0,2.11271-5.35472l.00941-.07428c.4134-2.9212.85424-7.06885,3.65163-8.14377,3.50011-1.378,2.756-4.13365,3.65163-6.26951.33077-.71671-.15152-1.81882.17925-2.52153,2.03951-4.13366,4.13366-8.26758,6.35242-12.40151a13.0831,13.0831,0,0,0,1.55344-2.8453l.03123-.08989c1.10238-5.29121,3.80288-10.0175,5.34637-15.15718a14.54757,14.54757,0,0,0,1.01787-5.39616q0-.461-.02773-.91479l.00215.04144c-.78534-5.51162,3.21053-10.37571,1.70874-15.88734,0-.15152.2067-.39966.35822-.56519,2.25966-2.60415,2.60416-5.939,3.41749-8.83249-1.81882-2.70077-2.96265-5.2363-.78535-7.992Zm-67.36733-23.7967c-.52374,1.378-.96458,2.43891-1.98433,5.04333l-4.27145-5.77349ZM94.60873,62.48406c.55118-1.00576,1.06093-2.59043,1.874-2.75595,3.927-1.00576,3.748-4.39552,4.42324-7.64749,4.13366,1.378,5.2912,5.2363,7.41334,7.82673l2.39746-.39966c-.20669.73043-.38594,1.378-.703,2.48008l-6.14572-3.29341-.95058,1.15728c-2.08069,2.96265-6.435.56519-6.72435,5.19486l-1.70874-1.2539a3.04182,3.04182,0,0,1-.021-.36361,3.149,3.149,0,0,1,.15126-.96781l-.0062.02234ZM89.9925,220.94653a74.64306,74.64306,0,0,1-14.98547,9.602l-.44757.19539-.703-.06889c-.73043.48229-1.378.992-2.12214,1.502-3.58273,1.79137-7.15146,3.58274-10.555,5.59426a282.20309,282.20309,0,0,0-28.8621,20.37733l.54554-.425c-4.57476,3.52756-8.681,7.92309-14.57854,8.61208-.06863-.00081-.14991-.00109-.23119-.00109a23.78579,23.78579,0,0,0-5.05114.53962l.15637-.02853c-2.75595.97831-3.32086,1.95662-4.64366-1.59841-1.86027-5.0296-1.22619-12.18108-1.378-17.54091-.24814-6.8207-.24814-13.65539.1378-20.4761.317-5.64943,1.15728-11.32658.90941-17.00372S6.33736,199.64418,8.54211,194.16c3.376-8.37765,7.82674-14.66116,4.32663-23.83815-.93686-2.45263-2.49408-5.16741-1.97061-7.92309s2.756-5.27748,3.927-7.67521c2.38373-5.00189,3.21051-10.362,4.244-15.76354C21.701,125.18054,29.004,115.14931,37.63,104.51173l27.06267-33.594a3.42224,3.42224,0,0,0,1.05851.17924h.00243L68.413,72.39228s.193.79906.52374,2.1773H65.69846L62.0331,82.286l2.05324,1.378L61.74405,88.2387c.39966.1378.79906.4134,1.00576.31705,2.93492-1.378,5.8424-2.75595,9.03919-4.29917.16525-1.5984.37221-3.62418.56518-5.51163,3.73426-3.95468,8.681-3.84433,13.07649-5.05706.74416-.82652,1.4606-1.65358,2.23249-2.42518.09634-.11035.41339,0,.82651,0,.28932.42712,1.03349,1.10238.90942,1.47432-.90942,2.67306-1.98434,5.27749-3.19679,8.40537L76.10217,78.90992c-.11035,1.12983-.24814,2.48008-.39966,4.13366l2.35628-1.695,3.98213,2.57671c0,1.21245,0,2.46635-.09635,3.91323-2.75595-.11035-4.42324-3.62418-7.41334-1.378v5.67714l2.1773-.46856c0,2.13586,0,4.13365.08263,6.50393l-2.35629,1.08839v2.75594l-6.99994,1.74993c.95059,2.75594,1.73619,4.90553,2.563,7.20664-3.00383,3.41749-4.13366,7.992-8.37765,10.45862a4.02394,4.02394,0,0,0-1.18986,5.67714l-.00888-.01372,5.38756,3.48638a4.13482,4.13482,0,0,1-1.35887,5.791l-.01884.0105L61.262,134.34434l-3.059-.34449L49.219,147.8894l2.12213,1.378c-.496.89542-.75761,2.21848-1.54322,2.75594-5.05706,3.10045-6.8896,7.496-6.39359,13.32463.17924,2.01178-.67526,4.13366-1.0472,6.22834,5.71832,1.185,5.71832,1.185,9.16325-.79906,1.378,3.66536.24815,6.73835-1.86026,9.64555.82652,1.378,1.5984,2.60416,2.37,3.87178l5.2363-8.10232c-.0689-.74417-.45484-1.681-.15152-2.191,1.73619-2.9212,3.63791-5.746,5.11223-8.0197l.95059,4.42324,1.4606-.1378c-.59264.89542-1.17127,1.80509-2.17731,3.36231,1.681-.42711,3.10044-.37222,3.569-1.00576,2.13586-2.93493,4.02358-6.06281,6.10426-9.27362,2.75595,1.378,6.03536-.15152,8.66725,1.80509l3.51383-.3445-1.94289,3.00382-.33077,3.059,2.30111,1.502,3.61018-3.00383v-2.57669l5.31866,3.44493c-.27559,2.75594-.60636,5.91129-.93686,9.21843l4.97442.56518,1.92917-2.03951c1.185,1.47433,2.21848,2.756,3.44494,4.32662L92.56949,193.62332c0,2.067,3.66537,2.99009,3.67908,5.89757,1.6673,1.06094,3.67908,1.92917,3.40349,4.40925-.1378,1.15728-.689,2.14959-2.17731,1.30908-.8128,3.03154-4.13366,3.81688-5.64944,6.18688,1.15728.75762,2.31484,1.502,3.44494,2.14959a7.98764,7.98764,0,0,1,1.31849-.49574l.0592-.01426.12407.60636-1.4606.193c-.00269-.04333-.0043-.09393-.0043-.1448s.00161-.10147.00484-.15152l-.00026.00673c-.42711.79907-.88169,1.502-1.6673,2.75595l1.1161-.11034a56.67958,56.67958,0,0,1-4.69992,4.59954l-.06782.05787ZM78.43179,61.24389c.55119,1.48805,1.00576,2.75595,1.70874,4.53331l-4.13366-2.65932Zm-2.68706,6.8896c-.496.77161-.992,1.54322-1.502,2.31483l-.57891-.37221c.51-.77161,1.00576-1.54322,1.502-2.31484Zm-5.67687,1.80509,1.15728.74416-.24814.38594-1.15728-.74417Zm1.98407,4.38179,1.07466.60636-1.98433,3.07272-.63408-.33077ZM86.2308,90.99359l.15152-1.378,5.60825-.95059c-1.14357,2.067-1.72248,3.14162-2.43891,4.42324A35.69467,35.69467,0,0,1,86.2308,90.99359Zm.73016,25.56062-1.502,3.376-1.07466-.60636c.66154-1.01948,1.378-2.05324,1.99806-3.07272ZM80.485,151.42987c-.2067,1.70875-.39966,3.34831-.60636,5.126l-2.75595.27559c.42712-2.45263.73044-4.21655,1.07467-6.26951Zm-4.65766,5.51163-1.24018,1.91544-.62008-.26187c.26187-.73043.52374-1.378.77161-2.17732Zm-5.51189-2.14958-.74417,1.15728-.38593-.24815.74416-1.15728ZM60.0501,148.4535l-1.22618,1.9017-3.26569-2.1084c.45484-.71671.79906-1.22619,1.24017-1.90171Zm-5.80122,13.60023-1.01949,2.52154-3.73426-1.378ZM96.965,73.549l-.66154-.75762,2.01178-3.12789,2.35629,1.5295c-1.43315,1.03348-2.549,1.74992-3.66537,2.46636Zm2.87974,89.56564-1.29535.17925a1.9604,1.9604,0,0,1,1.15809-.78265l.01319-.0027Zm-2.05323,0c-5.67714,1.91544-9.494-3.03154-14.606-2.866.16526-1.57094.28933-2.83857.42712-4.28544l2.85231.35822,1.07465-4.57477H88.435a10.58128,10.58128,0,0,1,.46534,2.29924l.00324.04333a15.49163,15.49163,0,0,1-.69384,3.003l.0323-.10927,4.437,1.15728ZM92.08719,48.27774h1.378l-.2067,4.13365-1.12983.16525a8.576,8.576,0,0,1-.41043-1.90548l-.003-.03768a14.003,14.003,0,0,1,.39294-2.4529l-.02073.09662Zm.33077,7.68893.66154.75762-2.01179,3.12789-2.35628-1.52949ZM87.30545,66.10824l1.47433-2.27339,3.47238,1.86027-.26187.92313-4.87808-.193c-.26188.39967-.88169,1.378-1.571,2.42518l-3.94068.39966c.17924-2.1084.33077-3.73425.52374-6.00791l3.38976.38594Zm28.75769-24.624-3.43122-2.21849-10.08639,2.50781c.12407-2.53526.82651-3.73426,2.85231-4.23028,1.378-.33076,2.99009-1.92916,4.03729-1.58467,2.93494.93686,5.2363-.89541,7.77156-.79906.868-1.378,1.5984-2.46636,2.549-3.927l2.67306,3.85806Zm10.7342-1.21246c-.67526-.48229-1.6673-1.00576-1.59841-1.17128.59265-1.76391-.30332-3.04527-.88169-4.60222a7.90128,7.90128,0,0,1-.18866-1.73969,8.12792,8.12792,0,0,1,.29874-2.18942l-.01373.05706,2.67305-1.557c.52374,2.75595.992,5.126,1.59841,8.26757-.2067.23442-1.03349,1.5295-1.88771,2.93493Zm-.75816-18.34024,2.13585-3.32087,1.378.1378c.26188,1.5295.51,3.059.95059,5.60825Z"/>
    </g>
  </g>
</svg>
