<svg xmlns="http://www.w3.org/2000/svg" viewBox="0 0 189.39022 189.39017">
  <title>fast-travel</title>
  <g class="Layer_2" data-name="Layer 2">
    <g class="Layer_1-2" data-name="Layer 1">
      <g class="dashed-2">
        <g style="opacity: 0.4">
          <g>
            <polyline points="55.398 3.325 55.828 0.862 57.874 2.299" style="fill: none;stroke: #fff;stroke-miterlimit: 10"/>
            <line x1="60.29989" y1="4.00389" x2="91.4364" y2="25.88087" style="fill: none;stroke: #fff;stroke-miterlimit: 10;stroke-dasharray: 4.942040920257568,2.9652247428894043"/>
            <polyline points="92.649 26.733 94.695 28.17 96.741 26.733" style="fill: none;stroke: #fff;stroke-miterlimit: 10"/>
            <line x1="99.16686" y1="25.02852" x2="130.30334" y2="3.1515" style="fill: none;stroke: #fff;stroke-miterlimit: 10;stroke-dasharray: 4.942040920257568,2.9652247428894043"/>
            <polyline points="131.516 2.299 133.562 0.862 133.992 3.325" style="fill: none;stroke: #fff;stroke-miterlimit: 10"/>
            <line x1="134.50234" y1="6.24562" x2="141.04983" y2="43.73183" style="fill: none;stroke: #fff;stroke-miterlimit: 10;stroke-dasharray: 4.942040920257568,2.9652247428894043"/>
            <polyline points="141.305 45.192 141.735 47.655 144.198 48.085" style="fill: none;stroke: #fff;stroke-miterlimit: 10"/>
            <line x1="147.1188" y1="48.59538" x2="184.605" y2="55.14281" style="fill: none;stroke: #fff;stroke-miterlimit: 10;stroke-dasharray: 4.942040920257568,2.9652247428894043"/>
            <polyline points="186.066 55.398 188.528 55.828 187.091 57.874" style="fill: none;stroke: #fff;stroke-miterlimit: 10"/>
            <line x1="185.38629" y1="60.29985" x2="163.5093" y2="91.43636" style="fill: none;stroke: #fff;stroke-miterlimit: 10;stroke-dasharray: 4.942040920257568,2.9652247428894043"/>
            <polyline points="162.657 92.649 161.22 94.695 162.657 96.741" style="fill: none;stroke: #fff;stroke-miterlimit: 10"/>
            <line x1="164.36166" y1="99.16682" x2="186.23867" y2="130.3033" style="fill: none;stroke: #fff;stroke-miterlimit: 10;stroke-dasharray: 4.942040920257568,2.9652247428894043"/>
            <polyline points="187.091 131.516 188.528 133.562 186.066 133.992" style="fill: none;stroke: #fff;stroke-miterlimit: 10"/>
            <line x1="183.14456" y1="134.50233" x2="145.65835" y2="141.04979" style="fill: none;stroke: #fff;stroke-miterlimit: 10;stroke-dasharray: 4.942040920257568,2.9652247428894043"/>
            <polyline points="144.198 141.305 141.735 141.735 141.305 144.198" style="fill: none;stroke: #fff;stroke-miterlimit: 10"/>
            <line x1="140.79479" y1="147.11876" x2="134.24737" y2="184.60496" style="fill: none;stroke: #fff;stroke-miterlimit: 10;stroke-dasharray: 4.942040920257568,2.9652247428894043"/>
            <polyline points="133.992 186.065 133.562 188.528 131.517 187.091" style="fill: none;stroke: #fff;stroke-miterlimit: 10"/>
            <line x1="129.09033" y1="185.38625" x2="97.95382" y2="163.50926" style="fill: none;stroke: #fff;stroke-miterlimit: 10;stroke-dasharray: 4.942040920257568,2.9652247428894043"/>
            <polyline points="96.741 162.657 94.695 161.22 92.65 162.657" style="fill: none;stroke: #fff;stroke-miterlimit: 10"/>
            <line x1="90.22335" y1="164.36162" x2="59.08688" y2="186.23863" style="fill: none;stroke: #fff;stroke-miterlimit: 10;stroke-dasharray: 4.942040920257568,2.9652247428894043"/>
            <polyline points="57.874 187.091 55.828 188.528 55.398 186.066" style="fill: none;stroke: #fff;stroke-miterlimit: 10"/>
            <line x1="54.88787" y1="183.14452" x2="48.34039" y2="145.65831" style="fill: none;stroke: #fff;stroke-miterlimit: 10;stroke-dasharray: 4.942040920257568,2.9652247428894043"/>
            <polyline points="48.085 144.198 47.655 141.735 45.192 141.305" style="fill: none;stroke: #fff;stroke-miterlimit: 10"/>
            <line x1="42.27142" y1="140.79475" x2="4.78521" y2="134.24733" style="fill: none;stroke: #fff;stroke-miterlimit: 10;stroke-dasharray: 4.942040920257568,2.9652247428894043"/>
            <polyline points="3.325 133.992 0.862 133.562 2.299 131.517" style="fill: none;stroke: #fff;stroke-miterlimit: 10"/>
            <line x1="4.00393" y1="129.09032" x2="25.88091" y2="97.95378" style="fill: none;stroke: #fff;stroke-miterlimit: 10;stroke-dasharray: 4.942040920257568,2.9652247428894043"/>
            <polyline points="26.733 96.741 28.171 94.695 26.733 92.65" style="fill: none;stroke: #fff;stroke-miterlimit: 10"/>
            <line x1="25.02856" y1="90.22334" x2="3.15154" y2="59.08684" style="fill: none;stroke: #fff;stroke-miterlimit: 10;stroke-dasharray: 4.942040920257568,2.9652247428894043"/>
            <polyline points="2.299 57.874 0.862 55.828 3.325 55.398" style="fill: none;stroke: #fff;stroke-miterlimit: 10"/>
            <line x1="6.24566" y1="54.88783" x2="43.73187" y2="48.34035" style="fill: none;stroke: #fff;stroke-miterlimit: 10;stroke-dasharray: 4.942040920257568,2.9652247428894043"/>
            <polyline points="45.192 48.085 47.655 47.655 48.085 45.192" style="fill: none;stroke: #fff;stroke-miterlimit: 10"/>
            <line x1="48.59542" y1="42.27138" x2="55.14285" y2="4.78517" style="fill: none;stroke: #fff;stroke-miterlimit: 10;stroke-dasharray: 4.942040920257568,2.9652247428894043"/>
          </g>
        </g>
      </g>
      <g class="dashed-1">
        <g style="opacity: 0.6">
          <g>
            <polyline points="59.982 13.533 60.492 12.122 61.85 12.759" style="fill: none;stroke: #fff;stroke-miterlimit: 10"/>
            <line x1="63.55209" y1="13.55769" x2="92.48611" y2="27.13402" style="fill: none;stroke: #fff;stroke-miterlimit: 10;stroke-dasharray: 2.820073366165161,1.8800489902496338"/>
            <polyline points="93.337 27.533 94.695 28.17 96.053 27.533" style="fill: none;stroke: #fff;stroke-miterlimit: 10"/>
            <line x1="97.755" y1="26.73469" x2="126.68905" y2="13.15837" style="fill: none;stroke: #fff;stroke-miterlimit: 10;stroke-dasharray: 2.820073366165161,1.8800489902496338"/>
            <polyline points="127.54 12.759 128.898 12.122 129.408 13.533" style="fill: none;stroke: #fff;stroke-miterlimit: 10"/>
            <line x1="130.04644" y1="15.30086" x2="140.906" y2="45.36021" style="fill: none;stroke: #fff;stroke-miterlimit: 10;stroke-dasharray: 2.820073366165161,1.8800489902496338"/>
            <polyline points="141.225 46.244 141.735 47.655 143.146 48.165" style="fill: none;stroke: #fff;stroke-miterlimit: 10"/>
            <line x1="144.91403" y1="48.80351" x2="174.97338" y2="59.66304" style="fill: none;stroke: #fff;stroke-miterlimit: 10;stroke-dasharray: 2.820073366165161,1.8800489902496338"/>
            <polyline points="175.857 59.982 177.268 60.492 176.631 61.85" style="fill: none;stroke: #fff;stroke-miterlimit: 10"/>
            <line x1="175.83248" y1="63.55205" x2="162.25616" y2="92.4861" style="fill: none;stroke: #fff;stroke-miterlimit: 10;stroke-dasharray: 2.820073366165161,1.8800489902496338"/>
            <polyline points="161.857 93.337 161.22 94.695 161.857 96.053" style="fill: none;stroke: #fff;stroke-miterlimit: 10"/>
            <line x1="162.65548" y1="97.75499" x2="176.23181" y2="126.68901" style="fill: none;stroke: #fff;stroke-miterlimit: 10;stroke-dasharray: 2.820073366165161,1.8800489902496338"/>
            <polyline points="176.631 127.54 177.268 128.898 175.858 129.408" style="fill: none;stroke: #fff;stroke-miterlimit: 10"/>
            <line x1="174.08932" y1="130.0464" x2="144.02999" y2="140.90596" style="fill: none;stroke: #fff;stroke-miterlimit: 10;stroke-dasharray: 2.820073366165161,1.8800489902496338"/>
            <polyline points="143.146 141.225 141.735 141.735 141.225 143.146" style="fill: none;stroke: #fff;stroke-miterlimit: 10"/>
            <line x1="140.58666" y1="144.91399" x2="129.72714" y2="174.97337" style="fill: none;stroke: #fff;stroke-miterlimit: 10;stroke-dasharray: 2.820073366165161,1.8800489902496338"/>
            <polyline points="129.408 175.857 128.898 177.268 127.54 176.631" style="fill: none;stroke: #fff;stroke-miterlimit: 10"/>
            <line x1="125.83813" y1="175.83244" x2="96.90408" y2="162.25615" style="fill: none;stroke: #fff;stroke-miterlimit: 10;stroke-dasharray: 2.820073366165161,1.8800489902496338"/>
            <polyline points="96.053 161.857 94.695 161.22 93.337 161.857" style="fill: none;stroke: #fff;stroke-miterlimit: 10"/>
            <line x1="91.63519" y1="162.65544" x2="62.70117" y2="176.2318" style="fill: none;stroke: #fff;stroke-miterlimit: 10;stroke-dasharray: 2.820073366165161,1.8800489902496338"/>
            <polyline points="61.85 176.631 60.492 177.268 59.983 175.857" style="fill: none;stroke: #fff;stroke-miterlimit: 10"/>
            <line x1="59.34377" y1="174.08931" x2="48.48422" y2="144.02995" style="fill: none;stroke: #fff;stroke-miterlimit: 10;stroke-dasharray: 2.820073366165161,1.8800489902496338"/>
            <polyline points="48.165 143.146 47.655 141.735 46.244 141.225" style="fill: none;stroke: #fff;stroke-miterlimit: 10"/>
            <line x1="44.47619" y1="140.58662" x2="14.4168" y2="129.7271" style="fill: none;stroke: #fff;stroke-miterlimit: 10;stroke-dasharray: 2.820073366165161,1.8800489902496338"/>
            <polyline points="13.533 129.408 12.122 128.898 12.759 127.54" style="fill: none;stroke: #fff;stroke-miterlimit: 10"/>
            <line x1="13.55773" y1="125.83809" x2="27.13403" y2="96.90407" style="fill: none;stroke: #fff;stroke-miterlimit: 10;stroke-dasharray: 2.820073366165161,1.8800489902496338"/>
            <polyline points="27.533 96.053 28.171 94.695 27.533 93.337" style="fill: none;stroke: #fff;stroke-miterlimit: 10"/>
            <line x1="26.73474" y1="91.63518" x2="13.15838" y2="62.70113" style="fill: none;stroke: #fff;stroke-miterlimit: 10;stroke-dasharray: 2.820073366165161,1.8800489902496338"/>
            <polyline points="12.759 61.85 12.122 60.492 13.533 59.983" style="fill: none;stroke: #fff;stroke-miterlimit: 10"/>
            <line x1="15.30087" y1="59.34373" x2="45.36022" y2="48.48418" style="fill: none;stroke: #fff;stroke-miterlimit: 10;stroke-dasharray: 2.820073366165161,1.8800489902496338"/>
            <polyline points="46.244 48.165 47.655 47.655 48.165 46.244" style="fill: none;stroke: #fff;stroke-miterlimit: 10"/>
            <line x1="48.80355" y1="44.47615" x2="59.66308" y2="14.41679" style="fill: none;stroke: #fff;stroke-miterlimit: 10;stroke-dasharray: 2.820073366165161,1.8800489902496338"/>
          </g>
        </g>
      </g>
      <g class="inner-ring">
        <circle cx="94.69511" cy="94.69507" r="66.06654" style="opacity: 0.4"/>
        <circle cx="94.6951" cy="94.69508" r="60.50953" style="fill: none;stroke: #fff;stroke-linecap: round;stroke-miterlimit: 10;stroke-width: 2px;stroke-dasharray: 0,5.001636505126953"/>
        <circle cx="94.69511" cy="94.69507" r="66.06654" style="fill: none;stroke: #fff;stroke-linecap: round;stroke-miterlimit: 10;stroke-width: 2px"/>
      </g>
      <g class="outer-ring">
        <polygon points="94.695 15.15 120.153 33.234 150.942 38.448 156.156 69.237 174.24 94.695 156.156 120.153 150.942 150.942 120.153 156.156 94.695 174.24 69.237 156.156 38.448 150.942 33.234 120.153 15.15 94.695 33.234 69.237 38.448 38.448 69.237 33.234 94.695 15.15" style="fill: none;stroke: #fff;stroke-miterlimit: 10"/>
        <polygon points="64.254 21.205 94.695 28.17 125.136 21.205 141.735 47.655 168.185 64.254 161.22 94.695 168.185 125.136 141.735 141.735 125.136 168.185 94.695 161.22 64.255 168.185 47.655 141.735 21.205 125.136 28.171 94.695 21.205 64.255 47.655 47.655 64.254 21.205" style="fill: none;stroke: #fff;stroke-miterlimit: 10;opacity: 0.6"/>
      </g>
      <g class="square">
        <circle class="square-4" cx="28.18666" cy="28.18662" r="3.26563" style="fill: #fff"/>
        <circle class="square-3" cx="161.20355" cy="28.18662" r="3.26563" style="fill: #fff"/>
        <circle class="square-2" cx="161.20355" cy="161.20352" r="3.26563" style="fill: #fff"/>
        <circle class="square-1" cx="28.18666" cy="161.20352" r="3.26563" style="fill: #fff"/>
      </g>
      <g class="angles">
        <g class="beat">
          <polygon points="94.695 88.698 85.399 79.475 76.104 70.252 94.695 70.252 113.287 70.252 103.991 79.475 94.695 88.698" style="fill: none;stroke: #fff;stroke-miterlimit: 10;stroke-width: 2px"/>
        </g>
        <polygon points="94.695 127.72 75.959 108.819 57.222 89.918 94.695 89.918 132.168 89.918 113.432 108.819 94.695 127.72" style="fill: #fff"/>
      </g>
    </g>
  </g>
</svg>
