<svg xmlns="http://www.w3.org/2000/svg" viewBox="0 0 218.50124 275.59492">
  <title>map_feline-friend</title>
  <g id="Layer_2" data-name="Layer 2">
    <g id="Layer_1-2" data-name="Layer 1">
      <g>
        <path d="M159.25588,150.269c7.729-8.42448,15.07159-16.26951,16.23076-28.24954,0-1.04344,1.46866-2.24136,1.35268-3.32329l-9.19771-21.6027C148.087,87.85723,131.39254,75.027,112.07022,66.564c-1.46867,1.54565-4.135,3.05307-4.44424,4.94672-1.31392,7.961-8.34751,10.62735-13.75767,12.17326-3.86453,1.12069-7.729,2.89833-11.59356,3.86452-21.87292,4.59873-39.57235,16.34676-55.22366,31.80484-3.86452,3.86452-6.33761,9.08171-9.93164,13.40994-9.21117,11.449-14.95587,44.87083-15.45512,60.77539,0,0-1.66433,23.77975-1.66433,45.03447v37.02175H98.54481V191.27124l13.526-19.97956a37.67514,37.67514,0,0,0,6.343,15.31085l-.07939-.11816-.08048-.12111c.73421,2.43461.773,5.4874-.57971,5.52617-.07537,1.516-.11816,3.2926-.11816,5.07939v.0296a111.34928,111.34928,0,0,0,.97157,14.70638l-.06137-.56357-.05787-.548c.19325,12.32775,5.41016,24.07579,3.43928,36.4808A16.24633,16.24633,0,0,0,122.967,252.59l-.03823-.11034-.03794-.11142c1.35267,8.81123,6.76283,15.45806,10.47288,23.18684h28.94526V264.69573c-2.82107-10.20212-12.86872-7.38132-17.66067-14.26015,2.20287-18.39488-3.16908-38.10394,3.16908-57.04-1.9324-8.154,2.58908-15.45807,3.32329-23.38035a36.23087,36.23087,0,0,1,8.21267-19.8684l-.0479.05948-.04924.06137Z" style="fill: var(--fill-color);"/>
        <path d="M218.50124,64.82461c-2.24136,2.24136-3.594,3.09156-4.21224,4.28948a16.46816,16.46816,0,0,1-17.897,9.40063l.09958.0148.09823.014c-10.5886-.96619-20.559.23173-27.82458,10.00916L118.06307,59.9554c10.24088-17.96992,20.98423-33.3895,41.234-37.40824,7.03358-6.53111,6.14463-17.11971,14.10539-22.37539.61846-.38648,1.8164,0,2.78259,0,2.12535,1.93239.50248,4.56,1.19792,6.72408,2.35735,7.4198,2.47309,14.64636,13.60291,17.58344,18.9746,5.37168,24.926,22.06643,27.51507,40.34531ZM194.69591,43.99485c-.27048,6.45361,5.02369,10.35688,8.88821,8.11552-.309-1.50716-.54123-6.64711-.81145-8.11551Z" style="fill: var(--fill-color);"/>
      </g>
    </g>
  </g>
</svg>
