<svg xmlns="http://www.w3.org/2000/svg" viewBox="0 0 359.00626 536.04013">
  <polygon points="246.31 302.609 246.31 233.431 179.503 198.842 112.697 233.431 112.697 302.609 179.503 337.198 246.31 302.609" style="opacity: 0.2"/>
  <g class="logo">
    <path d="M287.92116,125.69071A388.21189,388.21189,0,0,1,255.6661,96.363C238.251,78.34967,222.991,58.57931,207.82823,38.71412,198.6702,26.716,178.91718.74838,178.91718.74838c.02054,2.97744.13582,50.59147.14508,72.62752,0,0,17.16789-13.18366,25.14006-19.24088,12.226,14.96422,26.02179,31.11977,38.65275,46.57939A179.27537,179.27537,0,0,0,72.8097,412.485a375.4421,375.4421,0,0,1,29.69113,27.19209C119.916,457.69046,135.176,477.46082,150.3387,497.326c9.158,11.99814,28.91105,37.96574,28.91105,37.96574-.02053-2.97744-.13582-50.59147-.14508-72.62752,0,0-17.16789,13.18366-25.14005,19.24088-12.19253-14.92307-25.26023-30.34575-37.8587-45.76254A179.2713,179.2713,0,0,0,287.92116,125.69071Zm10.53373,261.69817a168.22308,168.22308,0,1,1,49.27148-118.95176A167.12152,167.12152,0,0,1,298.45489,387.38888Z" style="fill: none;stroke: #fff;stroke-miterlimit: 10;stroke-width: 0.5px;opacity: 0.4"/>
  </g>
  <polygon points="246.31 302.609 246.31 233.431 179.503 198.842 112.697 233.431 112.697 302.609 179.503 337.198 246.31 302.609" style="fill: none;stroke: #fff;stroke-miterlimit: 10;opacity: 0.8"/>
  <path d="M268.75981,221.80769l42.72752-22.122M47.51892,336.3545l42.72753-22.12207m221.24088,22.122-42.72752-22.122M47.51892,199.68561l42.72753,22.12208m89.25668-46.21237V136.03585m0,263.96841V360.4448m89.25668-46.21237V221.80769l-89.25668-46.21237L90.24645,221.80769v92.42474l89.25668,46.21237Z" style="fill: none;stroke: #fff;stroke-miterlimit: 10;stroke-width: 0.5px;opacity: 0.6"/>
  <g>
    <path d="M176.68835,237.699v72.50537l-50.10486-63.98462.1052-.15535,24.475,15.87153s6.22839,3.99859,6.509,4.27916a1.71545,1.71545,0,0,1,.52862,1.42052c.01755.85936-.39082,4.38188-.24805,5.89765a15.0985,15.0985,0,0,0,1.15749,4.93807c.957,1.80139,1.66856,3.66785,5.71474,6.12815s6.7244,2.24734,6.772,2.24734-2.92122-39.665-2.92122-39.665-.17034-2.61309-.263-3.18931a2.42386,2.42386,0,0,0-1.03971-1.74123,3.42819,3.42819,0,0,0-2.61309-.18539,3.0749,3.0749,0,0,0-1.839,1.78385c-.40339.90943-2.36255,6.063-2.36255,6.063l-.18788-.22049a.86347.86347,0,0,1-.15287-.20791c-.0326-.08517-3.738-9.45022-3.738-9.45022a2.35408,2.35408,0,0,1-.13781-1.43806c.238-.50107.69648-.81674,2.6707-.87435l17.67541-.02251Z" style="fill: #fff"/>
    <path d="M182.3204,237.699v72.50537l50.10237-63.98462-.1052-.15535-24.475,15.87153s-6.22837,3.99859-6.509,4.27916a1.71548,1.71548,0,0,0-.52863,1.42052c-.01754.85936.39082,4.38188.248,5.89765a15.09866,15.09866,0,0,1-1.15748,4.93807c-.957,1.80139-1.66857,3.66785-5.71474,6.12815s-6.72441,2.24734-6.772,2.24734,2.92379-39.66252,2.92379-39.66252.17034-2.61308.263-3.1893a2.42385,2.42385,0,0,1,1.03971-1.74123,3.42815,3.42815,0,0,1,2.61309-.1854,3.07489,3.07489,0,0,1,1.839,1.78385c.4034.90944,2.36256,6.063,2.36256,6.063l.18788-.22048a.86338.86338,0,0,0,.15287-.20792c.03261-.08516,3.738-9.45022,3.738-9.45022a2.354,2.354,0,0,0,.1378-1.43806c-.238-.50106-.69647-.81673-2.67069-.87434l-17.67541-.02508Z" style="fill: #fff"/>
  </g>
  <g class="spokes">
    <circle cx="179.50313" cy="268.02005" r="118.08962" style="fill: none;stroke: #fff;stroke-miterlimit: 10;stroke-width: 12px;stroke-dasharray: 0.5,6;opacity: 0.4"/>
    <circle cx="179.50313" cy="268.02005" r="111.94932" style="fill: none;stroke: #fff;stroke-miterlimit: 10;stroke-width: 0.5px;opacity: 0.4"/>
  </g>
</svg>
