<svg xmlns="http://www.w3.org/2000/svg" viewBox="0 0 242.51685 242.51685">
  <title>map_ghost-scan</title>
  <g id="Layer_2" data-name="Layer 2">
    <g id="Layer_1-2" data-name="Layer 1">
      <path d="M178.572,127.41608h63.94487v8.05232L139.73139,242.51685H110.36412L0,135.4684v-8.05232H71.52353L125.04775,181.414ZM71.52353,115.10077H0v-8.99965L110.36412,0h29.36727L242.51685,106.10112v8.99965H178.572L125.04775,61.10288Zm81.46884,6.13942a27.83305,27.83305,0,0,1-47.62521,19.87667,27.09993,27.09993,0,0,1-8.26546-19.87668,26.45741,26.45741,0,0,1,8.26546-19.67986,28.03384,28.03384,0,0,1,39.35974,0,26.45837,26.45837,0,0,1,8.26547,19.67986Z" style="fill: var(--fill-color);"/>
    </g>
  </g>
</svg>
