<svg xmlns="http://www.w3.org/2000/svg" viewBox="0 0 248.44257 275.60478">
  <title>map_jade-rabbit</title>
  <g id="Layer_2" data-name="Layer 2">
    <g id="Layer_1-2" data-name="Layer 1">
      <path d="M.00969,269.52717v-.01669a5.14671,5.14671,0,0,1,1.61158-3.7469l.00242-.00216.538-.538q19.36673-19.905,23.67074-23.67075a8.4842,8.4842,0,0,1,3.16961-2.13235l.05814-.01938a8.03189,8.03189,0,0,1,4.33281,1.36317l-.02907-.0183a4.01632,4.01632,0,0,1,2.15174,3.49392v.00295a5.67314,5.67314,0,0,1,.13,1.2235,5.80749,5.80749,0,0,1-1.74292,4.15545l-.00081.00081q-1.076.538-12.91124,12.3735a44.66909,44.66909,0,0,1-4.82048,5.35983l-.02127.01991-5.91775,5.91775a8.46646,8.46646,0,0,1-2.10652,1.59167l-.04549.02206a10.22861,10.22861,0,0,1-2.70077.35445,10.53992,10.53992,0,0,1-1.38767-.09123l.05329.00565a4.128,4.128,0,0,1-2.94892-1.86619l-.01-.01641a6.568,6.568,0,0,1-1.07682-3.622q0-.07632.00162-.1518v.00754Zm248.00469,0c.01291.14533.02045.31436.02045.485a5.77035,5.77035,0,0,1-2.68677,4.8805l-.02369.014a5.12119,5.12119,0,0,1-5.92448-.54366l.00673.00565a6.26053,6.26053,0,0,0-1.57552-1.05985l-.03822-.01615L214.12213,249.6219a1.54779,1.54779,0,0,1-.53773-1.07116l-.00026-.00484a4.73864,4.73864,0,0,1-.52615-5.66908l-.01184.02045a6.5173,6.5173,0,0,1,4.80541-3.49231l.03634-.00458h.01669a5.14673,5.14673,0,0,1,3.7469,1.61158l.00215.00241.538.538q1.076,1.076,10.2215,9.95237t13.44924,13.71811a8.48431,8.48431,0,0,1,2.13236,3.1696l.01938.05814Zm-30.12652-37.658a6.11553,6.11553,0,0,1-5.09473-3.46l-.01589-.03688a5.01552,5.01552,0,0,1-.514-2.22871,5.06937,5.06937,0,0,1,1.32469-3.42422l-.00376.004q0-.538,1.076-1.614l23.13275-23.13275a8.48716,8.48716,0,0,1,3.1696-2.13235l.05813-.01939a6.24148,6.24148,0,0,1,1.0316-.08343,6.3937,6.3937,0,0,1,4.35246,1.70148l-.0043-.004a4.91987,4.91987,0,0,1,.53935,7.53015l-.00134.00135q0,.538-1.076,1.076l-15.87012,15.87011-7.26262,7.80035a25.31125,25.31125,0,0,1-2.54709,1.54483l-.14265.06918a8.79623,8.79623,0,0,0-2.21148.559l.05948-.021ZM.00969,201.743C.0035,201.64526,0,201.53114,0,201.41648a5.563,5.563,0,0,1,3.20325-5.03875l.03418-.01426a5.12119,5.12119,0,0,1,5.92448.54366l-.00672-.00565,1.076,1.076Q19.9147,208.199,33.36393,221.11023q1.07574,1.076,1.076,1.614a5.12321,5.12321,0,0,1,.52481,5.9417l.01292-.02369a5.57232,5.57232,0,0,1-5.053,3.23743q-.17238,0-.34207-.01024l.01561.00081a13.56177,13.56177,0,0,1-3.274-1.64361l.046.02988L1.62342,205.5095a6.60347,6.60347,0,0,1-1.61185-3.7391l-.00215-.02665Zm0,67.78422v-.01669a5.14671,5.14671,0,0,1,1.61158-3.7469l.00242-.00216,24.20875-24.20875a6.2608,6.2608,0,0,1,1.57552-1.05985l.03822-.01615a6.28842,6.28842,0,0,0,1.61831-1.08l-.00431.004a8.0319,8.0319,0,0,1,4.33282,1.36318l-.02907-.0183a4.01634,4.01634,0,0,1,2.15174,3.49391v.003a5.67314,5.67314,0,0,1,.13,1.2235,5.80749,5.80749,0,0,1-1.74292,4.15545l-.00081.00081q-1.076,1.076-12.91124,12.3735-1.614,1.614-5.11061,5.37975t-5.64862,5.91775a8.46622,8.46622,0,0,1-2.10652,1.59167l-.04549.02206a5.69427,5.69427,0,0,1-2.18027.426,5.76558,5.76558,0,0,1-3.22047-.977l.021.01319a5.29144,5.29144,0,0,1-2.69512-4.60653q0-.12434.00565-.24708l-.00054.01158Zm248.00469,0c.01291.14533.02045.31436.02045.485a5.77035,5.77035,0,0,1-2.68677,4.8805l-.02369.014a5.12119,5.12119,0,0,1-5.92448-.54366l.00673.00565a6.26053,6.26053,0,0,0-1.57552-1.05985l-.03822-.01615L214.12213,249.6219a1.54779,1.54779,0,0,1-.53773-1.07116l-.00026-.00484a5.12283,5.12283,0,0,1-.52482-5.94144l-.01291.02369a4.31747,4.31747,0,0,1,1.86376-2.41038l.01857-.01076a5.5834,5.5834,0,0,1,2.90855-.80714l.053.00026h.014a5.14673,5.14673,0,0,1,3.7469,1.61158l.00215.00241.538.538,9.95237,9.6835q9.95235,9.68348,13.71811,13.98724a8.48427,8.48427,0,0,1,2.13236,3.16961l.01938.05813Zm-30.12652-37.658a6.11553,6.11553,0,0,1-5.09473-3.46l-.01589-.03688a5.01552,5.01552,0,0,1-.514-2.22871,5.06937,5.06937,0,0,1,1.32469-3.42422l-.00376.004q0-.538,1.076-1.614l23.13275-23.13275a8.48716,8.48716,0,0,1,3.1696-2.13235l.05813-.01939a6.24148,6.24148,0,0,1,1.0316-.08343,6.3937,6.3937,0,0,1,4.35246,1.70148l-.0043-.004a4.91987,4.91987,0,0,1,.53935,7.53015l-.00134.00135q0,.538-1.076,1.076L233.22,218.68878l-10.49037,11.02837a25.31256,25.31256,0,0,1-2.5471,1.54483l-.14265.06918ZM.00969,201.743C.0035,201.64526,0,201.53114,0,201.41648a5.563,5.563,0,0,1,3.20325-5.03875l.03418-.01426a5.12119,5.12119,0,0,1,5.92448.54366l-.00672-.00565,24.20874,24.20875q1.07574,1.076,1.076,1.614a5.12321,5.12321,0,0,1,.52481,5.9417l.01292-.02369a5.57232,5.57232,0,0,1-5.053,3.23743q-.17238,0-.34207-.01024l.01561.00081a13.56177,13.56177,0,0,1-3.274-1.64361l.046.02988L1.62342,205.5095a6.60347,6.60347,0,0,1-1.61185-3.7391l-.00215-.02665Zm192.5937,69.93624H54.34494c-.17817.00889-.38675.01373-.59668.01373a12.8552,12.8552,0,0,1-9.61379-4.30508l-.011-.01265a11.59141,11.59141,0,0,1-3.24093-8.056q0-.29107.01426-.57837l-.00108.0269a4.41877,4.41877,0,0,0-.27909-1.37528l.01.03041a4.317,4.317,0,0,1-.2686-1.33572l-.00027-.00915.538-231.32743a27.24775,27.24775,0,0,1,9.6407-18.256l.0428-.035A26.27892,26.27892,0,0,1,67.88433,0q.23618,0,.47126.004L68.33191.00377c.07563-.00081.16525-.00108.25487-.00108A28.96384,28.96384,0,0,1,85.89435,5.7081l-.07859-.05571a25.01217,25.01217,0,0,1,9.92411,15.16982l.02852.16229a24.94751,24.94751,0,0,1,1.07574,6.97492l.00027.01884V108.136a10.14726,10.14726,0,0,1,2.0788-.79072l.07321-.01615q1.07573-.26888,2.42087-.538a10.83752,10.83752,0,0,1,1.85112-.26752l.03121-.00161q6.45576-1.614,6.99376-1.614a32.50437,32.50437,0,0,1,5.99015-.54123q.24545,0,.4901.0035l-.02477-.00027a44.97924,44.97924,0,0,1,6.42158-.53747l.03392-.00027q3.228,0,6.72462.26887t6.72462.80686q2.68974.538,6.45574,1.614a46.44361,46.44361,0,0,1,7.32372,1.70551l-.33023-.09177V29.054c-.00109-.09312-.00161-.20293-.00161-.313a30.71872,30.71872,0,0,1,2.77022-12.7912l-.07887.1927A25.47066,25.47066,0,0,1,160.271,6.49963l.05355-.04064A29.9076,29.9076,0,0,1,171.1433,1.1258l.20965-.04656a24.613,24.613,0,0,1,6.59543-.87873,25.25794,25.25794,0,0,1,5.67849.6427l-.16955-.03284a32.27231,32.27231,0,0,1,10.61875,4.381l-.12838-.07724a24.31974,24.31974,0,0,1,7.47147,7.69405l.06029.10631a30.71215,30.71215,0,0,1,3.99963,10.01911l.035.20239a9.94588,9.94588,0,0,1,.538,3.22586V258.22941a23.25406,23.25406,0,0,1-.56787,4.459l.02988-.1553a13.44761,13.44761,0,0,1-12.721,9.14685q-.10053,0-.2005-.00134h.00995Zm-1.076-145.79021V30.66826c.00109-.05813.00161-.12649.00161-.19539a12.19715,12.19715,0,0,0-1.91355-6.57875l.0296.04952a14.849,14.849,0,0,0-5.03955-4.8038l-.07105-.03795a13.49094,13.49094,0,0,0-6.91518-1.88287l-.08289.00027h-.03768a12.867,12.867,0,0,0-9.367,4.029l-.00539.00592a12.87107,12.87107,0,0,0-4.03488,9.37238v82.88973a89.13707,89.13707,0,0,1,25.787,18.79131l.03553.03768a14.12747,14.12747,0,0,0,1.61346-6.448V125.889ZM82.31889,112.97773V30.13026c.00108-.05814.00162-.1265.00162-.19513a12.19816,12.19816,0,0,0-1.91355-6.579l.0296.04952a17.4924,17.4924,0,0,0-5.04495-5.07024l-.06566-.04064a12.25557,12.25557,0,0,0-6.96954-2.152h-.02395A13.76242,13.76242,0,0,0,58.649,20.17789l.00027-.00027a12.5068,12.5068,0,0,0-4.30375,9.41248v96.8366a13.33919,13.33919,0,0,0,1.649,5.98692l-.035-.06916a94.96092,94.96092,0,0,1,25.81765-19.11912l.54257-.24788ZM76.40141,239.40122c.09312.00241.20292.0035.31327.0035a13.48155,13.48155,0,0,0,9.63775-4.037l.00161-.00189a13.63766,13.63766,0,0,0,.00108-19.36618l-.00081-.0008a14.29215,14.29215,0,0,0-19.90823.00349l.0035-.00349a13.63768,13.63768,0,0,0-.00107,19.36618l.0008.0008a13.48253,13.48253,0,0,0,9.63936,4.03893q.16512,0,.32888-.00405l-.01614.00027Zm96.297,0c.03714.00026.081.00054.12487.00054a15.35586,15.35586,0,0,0,6.95663-1.65465l-.088.04038a12.17382,12.17382,0,0,0,5.07967-4.78335l.031-.0584a13.7391,13.7391,0,0,0,1.94854-7.09387,13.88851,13.88851,0,0,0-13.88847-13.88847c-.0576,0-.11519.00026-.1728.00108h.00861c-.12326-.0043-.268-.00673-.41339-.00673a12.61775,12.61775,0,0,0-9.2631,4.03379l-.007.00781a14.33322,14.33322,0,0,0,.00941,19.37722l-.00941-.0105a12.62337,12.62337,0,0,0,9.27038,4.04188q.218,0,.43384-.00726l-.021.00054Z"/>
    </g>
  </g>
</svg>
