<svg xmlns="http://www.w3.org/2000/svg" viewBox="0 0 275.59485 255.42798">
  <title>map_lost-memory-fragment</title>
  <g id="Layer_2" data-name="Layer 2">
    <g id="Layer_1-2" data-name="Layer 1">
      <g>
        <path d="M137.30787,0,69.60492,92.65235l17.8044,23.048,49.89882-67.703,50.93552,67.703,17.7468-23.048L137.30786,0Z" style="fill: #fff"/>
        <path d="M37.45291,68.16424H0L137.3076,255.428,275.59485,68.16424H237.22014l-99.91228,134.4841L37.45317,68.16425Z" style="fill: #fff"/>
        <path d="M137.30787,100.37358l-18.72619,23.50873,18.72619,24.94941L155.57328,125.323l-18.26542-24.94941Z" style="fill: #fff"/>
        <path d="M36.47352,136.38581l18.72619,26.85086L37.91394,184.38292H2.8811l33.59216-47.99711Z" style="fill: #fff"/>
        <path d="M65.28314,179.082l16.364,22.12591L66.72355,219.9341H33.59216l31.69071-40.85237Z" style="fill: #fff"/>
        <path d="M207.43061,179.082,192.046,200.22826l14.92358,18.26543h31.17209Z" style="fill: #fff"/>
        <path d="M222.81521,160.35557l16.76715-22.52935,33.1314,46.55668-31.69071-1.44041-18.20784-22.58694Z" style="fill: #fff"/>
        <path d="M239.58236,33.59243,209.33205,74.44479,193.48643,54.739,209.33205,33.5927h30.25031Z" style="fill: #fff"/>
        <path d="M65.28314,33.59243l16.364,21.14625-16.364,21.14626L33.59242,33.59216H65.28314Z" style="fill: #fff"/>
      </g>
    </g>
  </g>
</svg>
