<svg xmlns="http://www.w3.org/2000/svg" viewBox="0 0 275.59455 250.95541">
  <title>map_lost-sector</title>
  <g id="Layer_2" data-name="Layer 2">
    <g id="Layer_1-2" data-name="Layer 1">
      <g>
        <path d="M15.54451,239.148c-1.12526-.52643-1.60136-.93874-2.07585-.93739-1.82258.00539-2.41629-.95006-2.40795-2.61681.02611-5.084-.64135-10.274.16309-15.22742,1.17936-7.25912.18275-14.46362.81764-21.84654H9.6464c.11277-.08908-.08666-.0051-.08693.07913-.01373,11.96362-.01319,23.927-.01319,36.44473-1.1589-1.37771-2.24647-2.18027-2.60658-3.23178-.38971-1.13709-.106-2.50674-.106-3.7749q-.00215-19.06554-.00107-38.1314v-3.281c-1.27409,3.25008-.49333,6.656-1.42723,9.97147a73.71557,73.71557,0,0,1-1.06443-8.6013c-.12138-11.86188-.04764-23.72566-.05625-35.58862a5.17626,5.17626,0,0,0-.84186-3.23071v4.08091q0,28.38681.01508,56.77308a9.45758,9.45758,0,0,1-1.03564,5.09366,16.09892,16.09892,0,0,0-1.06308,3.68527,6.87175,6.87175,0,0,1-1.25444-1.937,14.4852,14.4852,0,0,1-.05114-2.95484q0-37.49571.00754-74.9914c.00242-4.13527,1.41726-8.18065.84-12.35925,1.90225-2.16116.24007-4.97281,1.47136-7.45236,1.02272-2.0597.485-4.83314,1.128-7.155,1.39977-5.05517,2.612-10.18409,4.44639-15.09932A143.4765,143.4765,0,0,1,17.51889,75.4083a132.85625,132.85625,0,0,1,11.2862-17.38912c2.83211-3.52783,5.78722-6.93481,8.64194-10.42147,2.12-2.58908,4.53521-4.84229,6.70363-7.346,1.33868-1.54565,2.58451-3.17123,3.90624-4.73222,2.59447-3.06384,6.16428-4.94052,9.22274-7.44105a47.84261,47.84261,0,0,1,6.093-3.65c.90484-.53585.31166-1.66837.5267-2.01879a8.32551,8.32551,0,0,1,2.93627-2.8122l.04091-.02126c4.36968-2.37243,8.76144-4.73033,13.28291-6.79029A126.10929,126.10929,0,0,1,101.9443,4.97471c4.198-1.04721,8.44279-2.05647,12.6448-3.12144,3.40753-.86392,7.16251-.30089,10.61713-1.04774C131.72712-.60393,138.26577.3122,144.78774.0942c1.98972-.06647,3.99613.55173,6.00361.78184,2.01017.23065,3.9875-.15044,6.05878.72694,1.61966.68629,3.71865.65992,5.53854.82382,4.45015.40021,8.5534,1.986,12.831,2.92147,2.41361.52777,4.70611,1.58844,7.085,2.30272a44.67,44.67,0,0,1,7.18054,2.82485l-.26188-.11815c5.04119,2.49354,10.12784,4.93837,15.05034,7.71585,4.88132,2.7546,9.10378,6.42346,13.9711,9.16594,1.73189.97589,3.05416,2.66848,4.71929,3.90758a97.65732,97.65732,0,0,1,8.68392,7.72123c2.76484,2.62408,5.84482,5.07455,7.97825,8.15993,2.03843,2.94864,5.13564,4.9093,6.77523,8.16934.73286,1.45683,2.43836,2.20556,3.5577,3.5106,2.64263,3.08079,4.43858,6.70094,6.818,9.93675.334.4543,1.5007,1.45441.08963,2.27931a8.84081,8.84081,0,0,0,.615,1.36909c.89058,1.75019,1.81048,3.48585,2.6849,5.24411.34773.69921.92529,1.4789.84886,2.16062-.32969,2.93573,1.53379,5.01615,2.56943,7.43891,1.95124,4.56508,3.46862,9.29891,5.11008,13.98268.47583,1.35779.95839,2.71612,1.35348,4.09866.58752,2.05593,1.61,4.04538,1.185,6.28513-.29686,1.56475.44623,2.89428.83594,4.31612.35337,1.28889-.65508,2.81328.67175,3.97137a1.112,1.112,0,0,1,.18625.75654c-.03714,3.81366.96727,7.46071,1.61562,11.17639a40.24641,40.24641,0,0,1,.07267,8.03423c-.13376,4.434,1.24258,8.72833.93337,13.21214-.31947,4.63855-.07105,9.31612-.07105,13.97649,0,4.51906.09851,9.0416-.03714,13.55662-.08128,2.71342-.6478,5.41044-.77835,8.1252-.1421,2.95915-.03229,5.93014-.03229,8.89574,0,2.82457.57676,5.80336-.12838,8.43928-1.20465,4.50317-.20159,9.06314-.97481,13.89386-.742-1.48024-1.3088-2.61088-1.97518-3.94041a3.53045,3.53045,0,0,0-1.95473,3.57063c.46857,3.64652-.70837,7.12051-1.06066,10.65508-.34181,3.42637-.85531,6.9106-1.54188,10.32808a3.21838,3.21838,0,0,1-.433,1.10427l.0078-.01345c-1.88421,2.92335-3.22774,6.19551-5.94843,8.5787a3.2686,3.2686,0,0,1-3.45193.566A2.10525,2.10525,0,0,1,255.955,248.287a7.10774,7.10774,0,0,0-.68792-3.07865c-.63758-1.85972-1.34648-3.84837-.98826-5.96242.65965-3.89573-.40936-7.73146-.98451-11.487a53.89006,53.89006,0,0,0-4.26661-14.71527c-2.18807-4.66977-2.29815-4.61648-2.36974-9.19125a10.77662,10.77662,0,0,0-.18731-1.33087l.01211.06969c-1.46141,1.41458-1.59141,3.05469-1.52439,4.799.22984,5.97751-1.23156,11.85407-.90592,17.87061.31947,5.8938.0697,11.81828.0697,17.74465a3.81988,3.81988,0,0,1-3.37658-3.12116l-.0035-.02315a4.28389,4.28389,0,0,1-.04709-.64215,4.39685,4.39685,0,0,1,.0479-.6505l-.003.024c.72909-5.30547-1.44095-10.00754-2.97449-14.86866-1.31364-4.1646-2.838-8.30256-2.97287-12.75621-.04872-1.6124-1.13494-2.99467-.89649-4.7411.1962-1.43772.418-3.00839-.749-4.33792-.28018-.31919-.06109-1.094-.03875-1.65815.61659-15.7167-1.32819-31.38579-.86824-47.10168.11977-4.09194.12811-8.19464-.01345-12.285-.13807-3.98374-.09473-8.05792-.96916-11.902-.59-2.59258-.66073-5.26106-1.47271-7.82807-.79367-2.5097-1.31984-5.13861-1.9114-7.71585a49.39041,49.39041,0,0,0-2.574-7.75757l.12381.32539c-1.81182-4.473-3.9057-8.83518-5.97185-13.2011-1.62236-3.428-3.263-6.85758-5.11708-10.16229a61.8897,61.8897,0,0,0-4.666-6.57579,86.14036,86.14036,0,0,0-9.40629-10.03661,84.946,84.946,0,0,0-15.6018-11.39654c-2.24216-1.35053-4.60384-2.50754-6.938-3.69954a101.41387,101.41387,0,0,0-19.20363-6.849c-3.14028-.802-6.31823-1.14518-9.46227-1.73835-7.939-1.49774-15.88842-.51324-23.82039-.63731-.05894-.00054-.12864-.00081-.19835-.00081a30.64356,30.64356,0,0,0-10.2904,1.76768l.2145-.06675c-4.34008,1.49586-9.023,1.88341-13.11148,4.128-2.83212-.166-4.53036,2.858-7.38643,2.62461-1.94208,1.63474-4.53789,2.08823-6.509,3.812a26.04413,26.04413,0,0,1-4.37184,2.6849A97.57135,97.57135,0,0,0,71.47543,65.295a65.9499,65.9499,0,0,0-8.443,7.88459l-.05383.06109c-4.8291,5.42255-9.52174,10.99177-12.93708,17.49112-1.83173,3.48584-4.05695,6.7884-5.62977,10.38137a111.89578,111.89578,0,0,0-5.29525,14.67434l-.20992.85558c-.98208,3.45651-.9958,7.10033-2.40527,10.42632a1.13843,1.13843,0,0,0-.0226.22795,1.16616,1.16616,0,0,0,.01722.2l-.00108-.00674c0,1.97734-.0697,3.95736.01992,5.93068.08747,1.934-1.1301,3.55931-.93255,5.58779.42712,4.38584,1.22349,8.737.967,13.20353-.25056,4.3635-.69141,8.87124.0942,13.10341,1.19119,6.41942.44784,12.7869.65373,19.16731.20508,6.34863.09151,12.70965.00673,19.06368a14.94018,14.94018,0,0,1-.82194,3.88256c-1.76392,6.01625-1.825,12.17812-1.69233,18.36743.06056,2.82323.01023,5.64861.01023,8.242-1.65169,2.06076-3.10286,4.05883-4.7524,5.87684-1.63042,1.79676-3.24012,3.72591-5.91614,4.26823-.43734-3.13651-.86285-6.19093-1.37851-9.89048-1.38659,2.33475.436,4.9957-1.8748,6.34058-2.08311-2.22172-2.44833-4.89558-2.22225-7.83669.15475-2.01475.40989-4.14846-.83405-5.98127-.22742-.33533-.83352-.41339-1.3804-.66315-.61821,4.3818-1.7335,8.41964-.896,12.99468Z" style="fill: var(--fill-color);"/>
        <path d="M204.03954,237.52266a11.3217,11.3217,0,0,0-5.58995-3.58543c-.2538-.06244-.7-.12-.72074-.23873-.50222-2.86361-3.29987-3.003-5.14642-3.84433a4.77291,4.77291,0,0,1-2.58423-3.32114c-.90753-2.90694-.95436-6.08461-1.88126-8.98266-1.18312-3.69954-.46318-7.41792-.78991-11.10885-1.65061-18.64544-.26375-37.338-.96432-55.98774a49.30318,49.30318,0,0,0-3.62524-16.62047l.11922.32942c-1.83308-4.60384-3.822-9.15922-6.01491-13.601a25.10958,25.10958,0,0,0-4.18264-5.88949l.00889.00942c-3.57331-3.81581-7.26936-7.50377-11.81909-10.25514a55.98026,55.98026,0,0,0-14.009-6.05986l-.40262-.09635a43.75669,43.75669,0,0,0-12.21473-1.69851q-1.91114,0-3.78324.15771l.1631-.011a48.04571,48.04571,0,0,0-16.01465,4.08063l.30386-.12219a60.16033,60.16033,0,0,0-14.58689,8.981l.09528-.07751a53.2402,53.2402,0,0,0-11.3847,13.5569l-.13511.24869a68.03074,68.03074,0,0,0-7.497,18.00839l-.1055.482c-.71,2.88217-.66961,5.809-1.40032,8.69147a21.704,21.704,0,0,0-.06324,9.25853c1.31876,6.66676.54769,13.34051.71079,20.00377.16578,6.77388.0366,13.555.0366,20.33293,0,4.0949.10415,8.19355-.03553,12.28388-.09742,2.85472-.6435,5.69248-.78022,8.548-.14156,2.9586.00888,5.93039-.06459,8.89386a3.78453,3.78453,0,0,1-.714,1.80563c-1.28781,1.98029-2.63995,3.91861-4.23781,6.27-.98638-1.31715-1.65061-2.20422-2.07718-2.774q-1.94478,2.14771-4.1132,4.543H64.79257c-.06459-.10981-.30224-.33076-.3157-.56491-.09662-1.66541.40748-3.68123-.36037-4.90877-.86123-1.37636.07805-2.93035-1.23426-4.24723-.83082-.83351.30574-2.81569-.87792-4.26392-.65561-.80176.65185-2.76375-1.55856-3.17338-.23657-.04388-.21342-1.7981-.21423-2.7589q-.01724-28.80638-.00862-57.61332c0-2.683-.10415-5.37141.03553-8.04688.0977-1.86969.63705-3.71327.7813-5.584.141-1.82475-.65454-4.12988.19539-5.394,1.199-1.783-.33588-4.00554,1.46975-5.36441.28744-6.33949,3.18388-11.96469,5.3087-17.71881,1.66192-4.49968,4.65067-8.54936,7.31537-12.62542a45.51764,45.51764,0,0,1,6.81748-8.64194A20.252,20.252,0,0,0,84.27287,95.914a18.90034,18.90034,0,0,1,2.24728-2.86522c1.57983-1.43368,3.3311-2.67683,4.986-4.02949,1.16885-.95517,2.72877-1.76123,3.30121-3.00706.42632-.928.96135-.98664,1.56772-1.41026a56.0678,56.0678,0,0,1,16.90575-8.30014,94.66492,94.66492,0,0,1,10.52294-2.63592l.672-.10847c3.20379-.60447,6.29912-.44057,9.43428-.598,3.23958-.16256,6.60916-.57837,9.71633.08208,5.6365,1.19819,11.287,2.27716,16.76123,4.472a67.537,67.537,0,0,1,16.56987,9.43159l-.15287-.11412c4.93811,3.85,10.11817,7.69539,13.62284,13.22182,1.60378,2.5288,4.07283,4.49241,5.88089,6.91275,1.64254,2.1991,3.88766,4.1751,3.7687,7.33152-.01319.34934.292.71671.46938,1.06551.59345,1.1667,1.6786,2.33449,1.66514,3.4915-.004.08047-.00619.1744-.00619.26913a5.885,5.885,0,0,0,.827,3.01782l-.01508-.02718a9.48779,9.48779,0,0,1,1.361,3.69469c.14318,1.22726,1.15541,2.32749,1.57526,3.55529.426,1.24583.288,2.77639.95732,3.82468.837,1.31069.50839,2.63833.80956,3.92561.7019,2.999.26187,6.19282,1.597,9.075a2.43526,2.43526,0,0,1,.05788.823c.282,4.543.7708,9.08413.80821,13.629.10953,13.27431.08719,26.54995.00054,39.82426-.01856,2.85016-.59747,5.69249-.77161,8.54775-.063,1.03536-.51432,2.25375.59667,3.13544a.9124.9124,0,0,1,.19726.75034l.00081-.00565c-.30574,1.7152-1.09134,3.30256-.8868,5.16471a7.8243,7.8243,0,0,1-.71887,4.76586c-1.17881,2.21821-1.29319,4.90016-1.6062,7.32855-.34933,2.70966-1.60862,4.73733-2.957,7.37163Z" style="fill: var(--fill-color);"/>
        <path d="M143.94695,133.1403H139.6362c.54366.62279.79906.91507,1.24045,1.42131l-3.31387.36817c.03419.20724-.00538.50221.109.58537,1.94586,1.41619,3.7321,3.25681,5.90483,4.11777,6.61777,2.62246,10.12784,7.90827,13.00383,13.92668.58617,1.22671-.44515,2.87356,1.10049,3.77759-.52992,1.70229,1.037,2.39746,1.727,3.42906-.714,2.23356-1.96468,4.21251-1.744,6.59328.00189.03526.00324.0767.00324.11842a2.21172,2.21172,0,0,1-.26241,1.04829l.00592-.01184c-3.08617,5.978-7.09872,11.06846-13.61019,13.57843a12.1949,12.1949,0,0,1-4.66169.91775c-1.572-.05464-2.13559,1.06228-2.65772,1.435-2.31914.13268-3.67262-2.28469-5.94063-.963-.24652.144-.8284-.11868-1.16777-.331a59.36091,59.36091,0,0,0-5.36549-3.40592c-3.30741-1.60377-5.67849-4.24884-8.19949-6.75314-.19-.18866-.49817-.44461-.47448-.63461.30627-2.44026-2.131-3.64168-2.5541-5.7229-.34664-1.70363-.60959-3.42609-.84966-5.14883-.16552-1.18716.36575-2.47066-.80284-3.51786-.264-.23658.14992-1.259.292-1.91086a10.02136,10.02136,0,0,0,.47745-1.90764c.04575-4.97389,2.60738-8.85967,5.5197-12.52234a33.73971,33.73971,0,0,1,10.08613-8.32195,12.268,12.268,0,0,1,6.81667-1.9305c.73339.06433,1.58629.10119,2.44833.10119q1.38591,0,2.74006-.12488l-.116.00861a5.65049,5.65049,0,0,1,4.55647,1.78061Z" style="fill: var(--fill-color);"/>
        <path d="M16.835,230.5367l.11708,2.475-.56626.0479-.32673-2.49731Z" style="fill: var(--fill-color);"/>
      </g>
    </g>
  </g>
</svg>
