<svg xmlns="http://www.w3.org/2000/svg" viewBox="0 0 154.24219 154.24219">
  <title>patrol-minion</title>
  <g id="Layer_2" data-name="Layer 2">
    <g id="Layer_1-2" data-name="Layer 1">
      <path d="M77.12109,154.24219,0,77.12109,77.12109,0l77.1211,77.12109ZM4.24219,77.12109,77.12109,150,150,77.12109,77.12109,4.24219Z" style="fill: #a12624"/>
      <g>
        <path d="M107.38442,59.58228c.06982,2.68815.20947,5.6556.1995,8.628a18.78422,18.78422,0,0,0,1.12214,6.25407l-.03989-.12967a26.02267,26.02267,0,0,1,1.3715,4.8676l.02493.16957c.58352,4.319-1.75054,6.79269-5.28653,8.67789a1.51122,1.51122,0,0,1-.72316.18454H104.003a2.44459,2.44459,0,0,1-.69822-.22942l.015.005c-.2344-.84784.25436-1.37649.57853-1.95.409-.7082.84784-1.37649,1.22189-2.09965a3.55209,3.55209,0,0,0-.84286-4.73793,9.41536,9.41536,0,0,0-.88774-.67329l-.03491-.01994c-2.369-.49874-4.09955.73812-5.82017,1.93007A7.73845,7.73845,0,0,0,93.799,87.4413c.04987,1.2219.05485,2.43879,0,3.66068-.05486.99246-.23441,1.98-.36408,3.08214H91.13083a4.10976,4.10976,0,0,1-1.26677-2.88764c-.49374-4.02974-2.99238-6.21417-6.5932-7.35128a19.12493,19.12493,0,0,0-6.08949-.97252,19.45353,19.45353,0,0,0-6.7129,1.187l.13466-.04489c-3.34149,1.182-5.65061,3.31656-6.09947,7.072A4.994,4.994,0,0,1,63.212,94.219l.005-.005H60.92778c-.14463-1.04234-.34911-2.03481-.409-3.00235a37.0085,37.0085,0,0,1,0-3.86515,7.31186,7.31186,0,0,0-3.00235-6.32389,17.72486,17.72486,0,0,0-3.51106-2.13456l-.10972-.04489a11.19482,11.19482,0,0,0-2.67818-.53862,15.08334,15.08334,0,0,0-1.52112,1.27175l.005-.005a3.33316,3.33316,0,0,0-.60845,4.09456c.43888.81293.97751,1.62586,1.39146,2.46372.27928.56357.87776,1.08724.409,1.98495-.30921,0-.75807.18952-1.0573.04489C47.24763,86.93758,45.09811,85.222,44.37,82.30439a10.10667,10.10667,0,0,1,.45883-5.5758c.45385-1.40641,1.01741-2.78291,1.37151-4.20927a18.249,18.249,0,0,0,.47379-3.551v-.03491c.08479-1.62586,0-3.25172.05985-4.88256.05486-1.47624.17954-2.95747.34911-4.42872a2.74942,2.74942,0,0,1,1.50117-2.26423l.015-.005c1.60092-.71318,2.37894-2.03482,3.29161-3.4163A29.28448,29.28448,0,0,1,68.12444,41.88734l.20449-.04987a30.72463,30.72463,0,0,1,8.74272-1.23685,32.13769,32.13769,0,0,1,4.40877.30422l-.16458-.01994a30.04747,30.04747,0,0,1,15.51547,6.75279,26.3125,26.3125,0,0,1,6.19422,7.26151l.06484.12468a3.71556,3.71556,0,0,0,1.81039,1.82036c1.1022.44386,1.67074,1.33659,2.49365,2.733ZM83.94413,54.969c.15959,2.06473.32418,4.34393.50372,6.62312A4.55206,4.55206,0,0,0,87.94893,65.976a75.18567,75.18567,0,0,0,11.10171,1.81039,2.626,2.626,0,0,0,.409.02992,2.65445,2.65445,0,0,0,2.21934-1.192l.005-.01c.83287-1.22188,1.22189-5.42118-.28428-6.91238a12.37232,12.37232,0,0,0-4.7479-3.31656A60.58247,60.58247,0,0,0,86.48267,54.0813a2.18255,2.18255,0,0,0-2.54851.89272Zm-13.77989-.55359a4.93254,4.93254,0,0,0-1.43634-.3541h-.02a17.79349,17.79349,0,0,0-3.31156.409l.1197-.01994A84.90476,84.90476,0,0,0,57.1474,56.57c-3.83523,1.31166-5.71544,4.41375-5.16185,8.10435.409,2.61334,1.59594,3.32653,3.82526,3.1021,1.99991-.19949,3.99981-.44387,5.98475-.788,1.64581-.28927,3.25172-.75808,4.88256-1.13212a3.9683,3.9683,0,0,0,3.07716-3.39136,28.28908,28.28908,0,0,0,.52866-5.501c0-.89272-.0399-1.78046-.1197-2.65324l.01.11471ZM81.655,74.1801c.25435-.53863.5486-1.13212.81293-1.73558a7.80984,7.80984,0,0,0,.31918-4.39879,17.45341,17.45341,0,0,0-3.3365-7.77021l.02992.04489c-1.42636-1.90515-3.19685-1.86026-4.67309.02992-.0798.10473-.1197.24438-.20449.34911a17.12874,17.12874,0,0,0-3.03227,7.077l-.015.10473a8.83431,8.83431,0,0,0,.34911,4.85763l-.01995-.05984c.60845,1.62586,1.77548,2.0797,3.37141,1.34157.30422-.14462.57354-.35908.88275-.48875.47379-.20448.96255-.36407,1.4114-.52866,1.167,1.03736,2.2792,1.77549,4.10953,1.177Z" style="fill: #a12624"/>
        <path d="M59.44655,102.73734a2.5094,2.5094,0,0,0,2.43879-.24437,9.658,9.658,0,0,1,5.501-6.52837c5.44613-2.738,11.10172-3.46617,16.95681-1.11217a16.05141,16.05141,0,0,1,5.78526,3.58587,13.12756,13.12756,0,0,1,2.47868,4.334l2.12958.09476a7.06968,7.06968,0,0,0,1.08723-3.79035c0-.10971,0-.21944-.005-.32916v.015q.03492-3.95991.02494-7.92482v-.02993a9.03022,9.03022,0,0,1,.80794-3.74545l-.02493.05486a1.35491,1.35491,0,0,1,1.8453-.91268c.9426,1.85527.57354,3.88011.47379,5.875-.03491.60346-.17455,1.197-.20448,1.79543-.16459,3.3764-.1945,6.75778-.50372,10.11922a25.22459,25.22459,0,0,1-1.30168,5.87l.05486-.17455a5.40536,5.40536,0,0,1-8.08441,2.88265c-1.51114-.89273-2.9425-1.93008-4.50851-2.69813a24.84549,24.84549,0,0,0-5.05711-1.98993l-.17954-.03989a10.06125,10.06125,0,0,0-2.19441-.2394,10.1699,10.1699,0,0,0-4.77284,1.182l.05486-.02493c-2.16948,1.0573-4.23421,2.33405-6.36878,3.47115a9.95678,9.95678,0,0,1-2.67817,1.157l-.06983.015a5.5022,5.5022,0,0,1-5.79025-3.50607,28.84321,28.84321,0,0,1-1.28672-5.52093l-.015-.15461c-.30922-2.87767-.32417-5.79524-.4738-8.69784-.10972-2.08468-.29425-4.16938-.33415-6.25905a20.24684,20.24684,0,0,1,.35909-3.03726l-.02.12967c1.00245-.48876,1.69568-.1995,1.965.5885a13.28463,13.28463,0,0,1,.84784,3.64072l.005.05486c.13466,2.70311.04489,5.4162.06982,8.13428a9.424,9.424,0,0,0,1.00245,4.01976l-.02494-.05486Z" style="fill: #a12624"/>
      </g>
    </g>
  </g>
</svg>
