<svg xmlns="http://www.w3.org/2000/svg" viewBox="0 0 205.60547 154.2041">
  <title>patrol-boss-cabal-red-legion</title>
  <g id="Layer_2" data-name="Layer 2">
    <g id="Layer_1-2" data-name="Layer 1">
      <path d="M102.80273,154.2041,0,0H205.60547ZM5.60547,3l97.19726,145.7959L200,3Z" style="fill: #d9c62f"/>
      <g id="Layer_1-2-2" data-name="Layer 1-2">
        <path d="M70.02362,75.87672c0-.13249.14024-.13249.27272-.13249h.14024v.13249c0,.13248-.13248,0-.13248,0Zm.413.52977c0-.13248-.13248-.13248-.26489-.13248,0,0-.14023,0,0-.13248a.13251.13251,0,0,1,.13249-.13249h0s.26489.26489.13248.39737h0Zm2.40758-27.021c-.13248,0-.13248,0-.13248-.13249s0-.14024.13248-.14024.13248,0,.13248.14024A.13249.13249,0,0,1,72.84416,49.38545Zm15.248,44.8169c0,.13248,0,.13248-.14024.27273-.13249,0-.39738.13248-.52978,0s0-.27273.13249-.27273a.28857.28857,0,0,0,.2648-.26393l.00008-.001c0-.13248-.13248-.26489-.39737-.26489s-.40512-.27272-.40512-.53761c0-.13248,0-.13248-.13249-.26488l.77915.39737a.693.693,0,0,1,.26489.53721v.0004c.14024,0,.14024.13248.14024.39737Zm-1.09865-4.41h0c.13248-.14025.13248-.27273.27272-.27273s.13249.13248.13249.27273l-.13249.13248c-.27272-.13248-.14024,0-.14024.13248h0c.14024,0,.14024,0,.14024.13248,0,0,0,.13249-.14024,0-.13248,0-.13248-.13248-.13248-.26488h0c-.13249.13248-.13249,0,0-.13249Zm-.13241-4.2853a.13249.13249,0,0,1,.13249.13248h0C86.86115,85.772,86.72875,85.63951,86.86115,85.507Zm0-.67.13249.13248v.27273c-.13249,0-.13249,0-.13249-.13248v-.14025s-.13248-.13248,0-.13248Zm.26489,4.01258c.14024,0,.14024.14024.14024.27272,0,0,0,.13248-.14024,0C87.126,89.12231,86.99355,89.12231,87.126,88.84959Zm-.13249-4.41h0c.13249-.13248.13249,0,.13249,0,.14024.13248.14024.13248-.13249,0C87.126,84.572,86.99355,84.572,86.99355,84.43956ZM87.126,83.902c.14024,0,.14024.13248.14024.26488a.14032.14032,0,0,1-.14024.14025h0c0-.27273-.13249-.27273,0-.40513C86.99355,83.902,86.99355,83.76947,87.126,83.902Zm-.13249-.53761c0-.13249,0-.13249.13249-.13249a.13249.13249,0,0,1,0,.265h0a.1325.1325,0,0,0-.13249-.13248Zm32.13235,8.96805c-.13248,0-.13248-.13249,0-.27273Zm2.94519-2.94519c-.13248,0-.13248.13248-.26488.13248h-.13249V89.3872a.4596.4596,0,0,1,.13241-.26481l.00008-.00008h.13248c.13248.13248.26489.13248.13248.26489Zm9.233-4.67492h0a.48132.48132,0,0,0-.33636-.13632.49017.49017,0,0,0-.06349.00416l.00248-.00024c-.14024,0-.14024-.13248,0-.13248,0-.13249.13248-.13249.26489,0C131.30411,84.4474,131.30411,84.57988,131.30411,84.71228ZM131.21057,50.188c-.13249,0-.13249.13248-.26489.13248-.27272,0-.27272.13249,0,.26489a1.10635,1.10635,0,0,0-.33509-.05085,1.13106,1.13106,0,0,0-.34308.053l.008-.00224c-.13248,0-.13248,0-.13248-.13249v-.00023a.1325.1325,0,0,0-.13248-.13249l-.00816.00024h.0004c-.13248-.13249-.13248-.13249-.26488-.13249s-.13249.13249-.13249.26489v1.60508c-.13248.53761.13249,1.07522,0,1.60508a3.5928,3.5928,0,0,1,.04965.60381,3.71894,3.71894,0,0,1-.05276.62572l.003-.0219v.39737c.00335.05285.00519.11465.00519.17686a2.99694,2.99694,0,0,1-.1436.91955l.00592-.02119c-.13248.13249,0,.26489,0,.39737.13248.13249.13248.13249,0,.26489s-.13248.27272-.27273.40513v.13248h.14025c.13248,0,.13248-.13248.26488,0s0,.13249,0,.27273v.26488c0,.26489.13249.39737.13249.6701a1.10573,1.10573,0,0,0-.05085.33509,1.13044,1.13044,0,0,0,.053.34308l-.00224-.008c-.13249-.14024-.13249-.14024-.26489-.14024a.1325.1325,0,0,0-.13248-.13248h0l-.14024.13248c.14024.14024-.13249.40513.14024.53761.13248,0,0,.13249-.14024.26489s-.13249-.13248-.13249-.13248h0c-.13248.13248.27273.27272,0,.40512.13249.13249.13249.26489.40513.26489v.13249h-.13248c-.14024,0-.14024,0-.14024.13248s.14024.14024.27272.14024a.28857.28857,0,0,1,.26481.26393l.00008.001v1.06738s0,.14024-.13248.14024c-.26489,0-.26489.13249-.40513.26489h.14024c.13248-.13248.26489,0,.26489.13249v.40512c-.13249,0-.13249-.14024-.13249-.14024s-.13248-.13248-.13248,0v.14024c.13248.13249.13248.13249,0,.26489,0,0-.14024.13248,0,.13248s.13248,0,.13248-.13248a.13251.13251,0,0,1,.13249-.13249h0c.13248,0,0,.13249,0,.13249v1.73756a.13251.13251,0,0,1-.13249.13249h0c-.13248,0-.13248,0-.13248-.13249,0,0-.14024-.13248-.14024,0-.13248,0,0,.13249,0,.26489s0,.14024.14024,0,.26489.14024.26489.14024c0,.13248,0,.26488-.13248.26488-.13249.13249-.13249,0-.27273-.13248,0,0,0-.13249-.13248,0v.13248c0,.13249,0,.26489.27272.13249.13249,0,.13249,0,.13249.13248,0,.40513.13248.6701.13248,1.07523v3.11661a2.48721,2.48721,0,0,1-.27145.94881l.00656-.01383s-.14024,0-.14024-.13248h-.17142v.13248c.13248.13249.13248.13249,0,.26489,0,0-.13249,0,0,.13248.13248.27273,0,.40513,0,.6701,0,.13248,0,.27272.27272.13248.13248,0,.13248,0,.13248.14024.13248.39737.13248.77915.26489,1.06739v.13248c-.26489.13248-.13248.26488-.13248.40513s-.13249.13248,0,.26488v.13249c-.26489.13248-.13249.40512,0,.53761,0,.13248-.13249.13248-.13249.26488s0,.13249-.13248.13249-.14024,0-.14024.14024v.26489c.14024,0,.14024.13248.27272.26488,0,0,.13249.13249,0,.13249h-.13248v-.00024a.1325.1325,0,0,0-.13248-.13249l-.00816.00024h.0004c-.13248.13249,0,.27273,0,.40513.14025.26489,0,.39737,0,.67009v.13249c.14025.13248.14025,0,.14025,0h.26488c.13249.13248,0,.13248,0,.26488-.26488.13249,0,.40513,0,.6701v.13248h-.13248c-.27272-.13248-.27272,0-.27272.13248V79.928c0,.13248,0,.13248-.13249.26489-.13248,0-.26488.13248-.13248.27272v.13248c-.13248.26489,0,.39737,0,.6701a.1325.1325,0,0,0,.13248.13248h0a.13249.13249,0,1,1,0,.265h0c-.26488.13248-.26488.13248,0,.26489,0,0,.13249.14024,0,.14024-.13248.13248,0,.26489-.13248.26489s-.26489,0-.26489.13248-.13248.26489-.27272.40513a.13249.13249,0,0,0-.13248.13248h.13248c.14024-.13248.27272-.13248.14024.13248a.13249.13249,0,0,0,.13248.13248h0a.1325.1325,0,0,1,.13249-.13248v.13248c-.13249.13249,0,.6701.13248.6701s.13248.13248.26489.13248c.27272.13248.53761.40513.77915.53761v.06237h-.13248c-.26489-.13248-.52978,0-.77916-.26489l-.52977-.51426a.28056.28056,0,0,0-.53713-.00192l-.00056.002c-.13249.13248-.27273.13248-.40513.26489h-.13249c0,.14024,0,.14024-.13248.27272,0-.13248-.13248-.27272-.13248-.40513a.1325.1325,0,0,0-.13248-.13248h-.14024c-.13249.26489-.39737.26489-.66227.13248l-.14024-.13248h-.13248c-.13248,0,0,.13248,0,.13248.13248.13248.13248.13248.13248.27273.14024,0,.14024.13248,0,.26488a.187.187,0,0,1-.26451.00046l-.00046-.00046h0c-.13248-.13248-.26488,0-.26488.13249a.41219.41219,0,0,0-.13233.26313l-.00016.00175c0,.14024-.14024.27273-.27273.14024-.13248,0-.13248,0-.13248.13249.13248.39737-.26489.52977-.39737.67009s-.40513.13248-.40513.39737l-.13248.13248c-.13248.13248-.26489.27273-.26489.40513a.2963.2963,0,0,1-.27168.26481l-.001.00008c-.13248,0-.26489,0-.13248.26488l.00024.00784a.13249.13249,0,0,1-.13249.13248h-.00024l-.40512.39737c0,.13249,0,.13249-.13249.13249h-.00024a.13249.13249,0,0,0-.13248.13248l.00024.00815v-.0004a.68436.68436,0,0,1-.26345.52866l-.00151.00112c0,.13248-.14025.13248-.14025,0-.13248-.13248-.26488,0-.39737,0s-.13248.13248-.26488.13248,0,.14024,0,.14024c.13248.13248.26488.13248.26488.26489a.187.187,0,0,1-.26451.00045l-.00046-.00045h0c-.14024,0-.14024,0-.14024-.13248V88.982h-.13248c0,.13249-.26489.26489-.13248.39737v.13249c-.13249.27272-.13249.67009-.39737.77915a1.64911,1.64911,0,0,1-.66146.66578l-.00864.00423c-.13248.13249-.40512.26489-.40512.53761a2.797,2.797,0,0,1-.53809.77964l.00047-.00048c-.13248,0-.13248.13248-.26488.13248v-.40513c0-.13248,0-.13248.13248-.13248.27272-.13248.40513-.26489.13248-.52978a.14032.14032,0,0,1,.14024-.14024h0a.1325.1325,0,0,0,.13249-.13248h0v-.13248c.13248-.13248,0-.26489-.13249-.39737a.70115.70115,0,0,0-.53665-.27273h-.001c.39737,0,.26489-.39737.26489-.52977V89.5976c.27272-.26489.27272-.66226.53761-.935.13248-.13248.13248-.39737.26489-.52977a.4631.4631,0,0,1-.00432-.0638.47349.47349,0,0,1,.14448-.34117l.00016-.00016v-.26489c0-.14024-.14024-.40513-.14024-.53761v-.77915c0-.13248.14024-.26489.14024-.53761V84.8293a.748.748,0,0,1-.005-.08787.77565.77565,0,0,1,.13912-.44447l-.00168.00256v-.40513c0-.26489-.13248-.53761-.13248-.77915,0-.13249-.14024-.26489-.14024-.40513,0-.39737.14024-.66226.14024-.935V80.996a2.8142,2.8142,0,0,0,.04965-.53378,2.90435,2.90435,0,0,0-.05261-.55184l.00295.01823a4.41418,4.41418,0,0,0,.04965-.67009,4.58184,4.58184,0,0,0-.05285-.69536l.0032.02535c.00368-.086.00576-.18678.00576-.28808a7.30351,7.30351,0,0,0-.15423-1.49674l.00823.04725c0-.26488-.13248-.40512,0-.67009v-.26489c-.13248-.27272,0-.40513,0-.67009v-.40513a1.32886,1.32886,0,0,0,.41-.96153c0-.04-.00176-.07971-.0052-.11881l.00032.005c0-.13249,0-.26489-.13248-.13249v-.67009s.13248.13248.13248,0v-.13248c-.13248,0-.13248-.27273-.13248-.40513a.13249.13249,0,0,1,.13248-.13248h0a.13269.13269,0,0,0,.1057-.12969.13094.13094,0,0,0-.00463-.03478l.00024.001V71.06185c0-.14025,0-.14025-.26489-.14025-.13248,0-.27273-.26488-.27273-.39737s-.13248-.40512,0-.53761a.58462.58462,0,0,0-.00127-.67193l.0012.00184c0-.26489,0-.52977.27272-.67009-.27272,0-.27272-.13249-.27272-.39737v-.40513c0-.13249.14024-.13249.14024-.13249a.13249.13249,0,0,0,.13248-.13248h0c0-.13248,0-.13248-.13248-.26488-.14024,0-.14024,0-.14024.13248a.1325.1325,0,0,1-.13249.13248h0c-.13248,0,0-.13248,0-.13248,0-.26489.13249-.40513.27273-.6701V66.644a.47425.47425,0,0,1-.14456-.34133.4665.4665,0,0,1,.00464-.06628l-.00024.00256a2.75422,2.75422,0,0,0,.17246-.96832c0-.02663-.0004-.05325-.00112-.07964l.00008.00384v-.6701c.00376-.09986.00584-.217.00584-.33477a9.64637,9.64637,0,0,0-.15495-1.7262l.00879.05852V62.382a5.95782,5.95782,0,0,0,.05261-.8025,6.202,6.202,0,0,0-.05613-.83432l.00352.03175v-.95833c0-.13249,0-.26489-.13248-.13249-.13249,0-.13249,0-.13249-.13248v-.27273c-.13248,0-.13248,0-.13248.14024v.13249a.13249.13249,0,0,1-.13248.13248h0c-.14024,0-.14024-.13248,0-.13248h0c.26489-.13249.26489-.40513.26489-.6701,0-.13248.13248-.40513.13248-.53761v-.16359c.13248-.26488,0-.53761,0-.77915v-.67009c.13248-.26489,0-.53762,0-.77916,0-.13248-.13248-.13248,0-.26488v-.13249c-.13248,0-.13248-.14024,0-.27272a.48126.48126,0,0,0,.13632-.33637.48825.48825,0,0,0-.00416-.06348l.00024.00248c-.26488,0-.13248-.13249-.13248-.27273v-.13248c-.13248-.13249-.13248-.13249,0-.13249v-.13248s0-.13249-.13248,0h-.13248s-.13249-.13249,0-.13249.13248,0,.13248-.13248,0-.14024-.13248-.27273l-.13249-.17142c.13249-.13249.13249.13248.26489.13248v-2.7816c0-.14024,0-.14024-.13248-.14024a2.85618,2.85618,0,0,0-.53761-.04965,2.95542,2.95542,0,0,0-.556.05253l.01839-.003c-.13249.14024-.39737,0-.52978,0-.40513-.13248-.77915,0-1.20762-.26488-.13249.13248.13248.13248,0,.26488h-.95834a.79925.79925,0,0,1-.08259.00416.82222.82222,0,0,1-.458-.13848l.003.00184a1.11316,1.11316,0,0,0-.8623-.40872,1.12493,1.12493,0,0,0-.16439.01207l.00608-.00072H91.47269c-.03214-.003-.06948-.00472-.10722-.00472a1.21806,1.21806,0,0,0-.56951.1404l.00664-.0032a.77237.77237,0,0,1-.443.13816.78408.78408,0,0,1-.09842-.00615l.00384.0004c-.39738,0-.77916.13248-1.2.13248V50.4528c-.13249,0-.13249.13248-.26489.13248a3.32987,3.32987,0,0,1-.94866.13481q-.06679,0-.133-.00256l.00632.00024H87.421a2.85536,2.85536,0,0,0-.53761-.04966,2.95716,2.95716,0,0,0-.556.05253l.01839-.003c-.13248,0-.13248.14024-.13248.14024v2.64912c.13248,0,.13248-.13249.27272-.13249.13249.13249-.14024.13249-.14024.13249a.187.187,0,0,0-.00044.26452l.00044.00044h0a.14031.14031,0,0,0,.14024.14024h.13249a.13251.13251,0,0,1-.13249.13249H86.3458c0,.13248,0,0,.14024,0s0,.13248,0,.13248a.17675.17675,0,0,0-.0154.24949l.0154.0154s.13249.13248,0,.13248c-.14024.14024-.27272.27273-.14024.40513s.27273.26489,0,.26489v.13248c.14024,0,.14024.14024,0,.14024s-.13248.13249-.13248.26489v.53761a.77273.77273,0,0,1,.13744.44191.7866.7866,0,0,1-.00536.09154l.00032-.00367v.40512c0,.13249-.13248.26489,0,.26489.14024.27272,0,.53761,0,.77915,0,.13249.14024.27273.14024.53761a.13251.13251,0,0,0,.13249.13249h0a.13249.13249,0,0,1,.13248.13248h0v.13249h-.13248a.13251.13251,0,0,0-.13249-.13249h0c-.14024,0,0,.13249,0,.13249.13249.14024.13249.27272-.14024.27272a.1325.1325,0,0,0-.13248.13249h0v2.27517a1.52009,1.52009,0,0,1,.04069.35364,1.552,1.552,0,0,1-.17718.72238l.00408-.00855v1.122c0,.26489.13249.39737,0,.66226a4.3836,4.3836,0,0,0-.05.6701,4.55249,4.55249,0,0,0,.05317.69536l-.0032-.02527v.13249c-.13248.27272,0,.67009-.13248.94273a9.836,9.836,0,0,0-.13808,1.66649q0,.17713.006.353l-.00048-.017a14.23985,14.23985,0,0,0-.13792,2.00741q0,.21108.00592.42072l-.00048-.02055v4.41786c-.00344.07932-.00544.17231-.00544.26577a6.60233,6.60233,0,0,0,.1456,1.38249l-.00775-.04318v1.06739c0,.27272-.13249.53761.13248.77915,0,0,.13249.14024,0,.14024s0,.13248,0,.26489.13249.39737,0,.53761v.13248c.26489.39737.13249.6701.13249,1.06739V81.736c.13248,0,.13248.13248.13248.27272.13249.13249.13249.39737.27272.66227v.14024s-.14023,0-.14023.13248c0,0,.14023,0,.14023.13248h.13249a.1325.1325,0,0,1,.13248-.13248h0v.26489a.13249.13249,0,0,1-.13248.13248h0c-.13249,0-.27272.13248-.27272.40513l.0004.03a1.03088,1.03088,0,0,1-.13561.51283l.00264-.005v.13248a.13248.13248,0,0,1-.13248-.13248h0a.46723.46723,0,0,0-.13249-.27272h0v-.26489a.13249.13249,0,0,0-.13248-.13248h0l-.13249.13248c0,.26489-.14024.39737,0,.67009v.13249c-.14024.13248.13249.26488,0,.39737H85.948v.14024c-.13249.13248-.13249.13248.13248.13248.13249,0,.13249.13248.26489,0,0,0,.14024,0,.14024.13248v.13248s-.14024,0-.14024.13249l-.13249.13248c.13249.14024.13249,0,.27273,0,0,.14024,0,.14024-.14024.14024a.13249.13249,0,1,0,0,.265h.27272c0,.13248,0,.13248-.13248.26489,0,.13248-.14024,0-.14024,0s-.13249-.13248-.13249,0a.19491.19491,0,0,0,0,.27272h0c.13249,0,.13249,0,0,.13248h0c.13249.13249.13249.26489.27273.39737v.13249H86.3454s-.13249-.13249-.13249,0v.27272h-.13248s0-.13248-.13249,0a.45806.45806,0,0,0-.13216.26249l-.00024.0024s0,.13249.13248,0c.26489-.13248.13249.13249.26489.13249,0,.14024-.13248.14024-.13248,0H85.8153a.1325.1325,0,0,0-.13249.13248l.00024.00815v-.0004c.13249.13248.13249.26489.26489.39737.26489.13248.26489.40513.26489.6701v.26488a3.67693,3.67693,0,0,1,.13768,1.00878q0,.10494-.00568.20852l.0004-.00959c0,.13248.14024.13248.27272.13248h0v-.13248s-.13248-.13249,0-.13249h.26489a.1325.1325,0,0,0,.13248.13249h0V90.837h-.26488c0,.13248,0,.26489-.26489.26489,0,0-.14024,0-.14024.13248a.4631.4631,0,0,1,.0638-.00432.47349.47349,0,0,1,.34117.14448l.00016.00016v.13248h-.26489c-.14024,0-.27272,0-.14024.26489,0,.13248.14024.26489-.13248.26489-.13249,0-.13249.40512,0,.40512.27272,0,.27272.26489.27272.40513.13249,0,0-.14024.13249-.14024h.13248c0,.14024,0,.14024-.13248.27273,0,.13248-.13249,0-.13249,0a1.04305,1.04305,0,0,1-.535-.531l-.00264-.00664c-.13248-.13248-.26489-.26488-.26489-.40512s-.14023-.26489-.27272-.39737L85.013,91.2344a1.349,1.349,0,0,0-.54713-.63548l-.006-.00344v-.14024c0-.26489-.13249-.52977-.13249-.935,0-.13248,0-.26488-.13248-.26488V89.793l.13248.13248a.13249.13249,0,0,1-.265,0h0c0-.13248-.14024-.27272-.27272-.13248h-.10914a.46719.46719,0,0,0-.13248-.27273h0s-.13249-.26488.13248-.13248a.13249.13249,0,0,0,.13249-.13248h0c0-.26489-.26489-.40513-.53761-.26489-.13249.13249-.13249,0-.26489,0-.13249-.14024-.13249-.27272-.26489-.40513-.13248-.26488-.40512-.39737-.40512-.67009,0-.13248-.13249-.13248-.26489-.13248s-.26489,0-.13249-.26489h0a.34956.34956,0,0,1-.05029.00352.35843.35843,0,0,1-.35843-.35841v0a.35082.35082,0,0,1,.00384-.05221l-.00024.00191c0-.13248-.13249-.13248-.13249-.26488-.13248-.13249-.26488-.27273-.26488-.40513h0c-.13249,0-.27273-.13248-.40513-.13248a.73354.73354,0,0,1-.39761-.65139l.00024-.01959v.001c0-.13249,0-.26489-.13249-.13249-.14024,0-.14024,0-.27272-.13248,0-.13248-.13248-.26489-.26489-.40513a.25714.25714,0,0,0-.40473-.00048l-.0004.00056c0,.14025-.13248.14025-.13248,0s-.13248-.13248,0-.26488l.26489-.26489s.14024-.13248,0-.13248c0,0-.13249-.14024-.13249,0-.13248.26489-.39737.13248-.67009.13248-.13248,0-.26489,0-.26489.26489,0,.13248-.13248.13248-.26489,0l-.53761-.53761a.24933.24933,0,0,0-.397.13855l-.00032.00168v.00024a.13249.13249,0,0,1-.13248.13248l-.00816-.00023h.0004s-.13248.13248,0,.13248h.14024s0-.13248.13248,0v.1013c-.13248.13248-.13248.13248-.27272.13248a.4813.4813,0,0,1-.13632-.33636.4899.4899,0,0,1,.00416-.06348l-.00024.00248s.13248-.13249,0-.13249c0-.14024.13248-.40513,0-.53761,0,0,0-.27272.13248-.27272s.14024-.13249.14024-.26489-.14024-.13248-.27272-.26489h-.13249c0-.13248-.13248-.27272,0-.40513s.13249-.13248,0-.26488c-.13248,0-.26489-.13248,0-.26489v-.14024a.46437.46437,0,0,0,.00384-.061.48155.48155,0,0,0-.13648-.33644l.00016.00016a4.71051,4.71051,0,0,1-.40513-1.86677v-.00312s.14024-.27272-.13248-.14024c-.13249,0-.13249,0,0-.13248s0-.26489.13248-.39737c0-.14025,0-.27273-.13248-.27273s-.13249-.13248,0-.26489c.13248,0,.13248-.13248.27272,0s.13248.13249.13248,0V77.3503a.1325.1325,0,0,0-.13248.13248h0s-.14024.13248-.14024,0V77.3503l.27272-.27272c.13249-.13249.13249-.13249,0-.26489a.13248.13248,0,0,0-.13248-.13248h0c-.14024,0-.27272-.27273-.27272-.40513s.13248-.26489.13248-.39737a8.6867,8.6867,0,0,1-.13248-1.46924V74.405c-.26489-.27272,0-.40513,0-.67009a5.9102,5.9102,0,0,1,.14176-.71151l-.00936.04142c0-.13249,0-.13249.14024-.13249.26489,0,.39737-.13248.26489-.26488.0032-.0331.005-.07156.005-.11034a1.20267,1.20267,0,0,0-.14064-.56623l.00311.00655v-.27272s.13249-.13249,0-.13249h-.27272a.74558.74558,0,0,0,.005-.08787.77565.77565,0,0,0-.13912-.44446l.00168.00255a5.05018,5.05018,0,0,1-.19477-1.405,5.22581,5.22581,0,0,1,.03334-.5899l-.00224.02367v-.67009a3.54569,3.54569,0,0,0,.04965-.6,3.66787,3.66787,0,0,0-.05277-.62156l.003.02159a5.57051,5.57051,0,0,1,.14136-.7092l-.00895.03918h.13248c.14024,0,.14024,0,.14024-.13249,0,0,.13248-.14023,0-.14023a.14031.14031,0,0,0-.14024.14023h0s-.13248.13249-.13248,0V65.9746c0-.13248.13248-.26489.27272-.13248h.13248v-.27273h-.13248a.187.187,0,0,1-.26429.00836l-.00827-.00828-.00009-.00008c0-.13248-.13248-.13248,0-.26489v-.10913c-.13248-.53761,0-.935-.13248-1.4726v-.13248h.13248s.13249.13248.13249,0V63.4578a.1325.1325,0,0,0-.13249-.13248h0c-.13248,0,0-.14024,0-.14024l.13249-.13249s0-.13248-.13249,0a.1325.1325,0,0,0-.13248.13249h0V62.6553c0-.13248.13248-.27272.26489-.13248h.14024v-.14024c0-.13249-.14024-.13249-.14024-.13249-.13248,0-.13248,0-.13248-.13248V61.02679c0-.14023,0-.27272.27272-.27272a.13249.13249,0,0,0,.00044-.265h-.00044s-.14024,0-.14024-.13248l.14024-.13249a.512.512,0,0,0,.13568-.348.50453.50453,0,0,0-.00344-.05956l.00024.0024c0-.13249,0-.13249-.13248-.13249,0,0-.14024,0,0-.13248v-.27273c.13248,0,0,.14024.13248.14024v-.67009c-.27272.13248-.13248-.13249-.13248-.13249,0-.27272-.14024-.40513,0-.6701a.858.858,0,0,0-.00224-.78386l.00224.00471a.28855.28855,0,0,1,.26393-.27264l.001-.00008c-.13249-.13249-.13249-.26489-.26489-.39737v-.13249a.25711.25711,0,0,0,.00048-.40473l-.00056-.0004a2.13457,2.13457,0,0,1-.1456-.78227q0-.0806.00584-.15983l-.0004.007V53.266a10.5583,10.5583,0,0,0,.05277-1.0713,11.02819,11.02819,0,0,0-.05653-1.11752l.00384.04614v-.6701c0-.13249-.13248-.26489,0-.53761v-.13249c-.26489-.13248-.13248-.26488-.13248-.39737v-.40512a.46437.46437,0,0,1-.00384-.061.48155.48155,0,0,1,.13648-.33645l-.00016.00016c.14024-.13248.27272-.27272.14024-.40512v-.9038c0-.13249,0-.13249-.14024-.13249l-.26489-.30382v-.26489c.26489-.13248.26489-.39737.26489-.6701v-.77939a.1325.1325,0,0,1,.13248-.13248l.00816.00024h-.0004c.26489,0,0-.13248,0-.13248-.14024,0-.14024-.53762,0-.53762h.13248a.48132.48132,0,0,1-.13632-.33636.49017.49017,0,0,1,.00416-.06349l-.00024.00248v-3.662c0-.13249,0-.13249.13248-.13249h.26489c.13248,0,.26489-.13248.13248-.40513,0-.13248,0-.26488.13249-.26488h6.72414c.05324.00343.11545.00543.17813.00543a2.93452,2.93452,0,0,0,.91012-.14376l-.02079.00584h1.4726c.53761,0,1.07522-.13248,1.60507-.13248a.46673.46673,0,0,0,.06093.00384.48167.48167,0,0,0,.34412-.14408l.00008-.00008a.187.187,0,0,1,.26452-.00045l.00045.00045h0c.13248,0,0,.14024,0,.27272.40512-.13248.935.13248,1.34011-.13248h.13248c.13249.13248.26489,0,.53761,0,.13249,0,0-.27273.13249-.14024.13248,0,0,.14024.13248.14024h2.68031a.14031.14031,0,0,1-.14024-.14024h0c0-.13249.14024,0,.14024,0,.13248,0,.13248-.13249.26488-.13249h.09347v.13249c-.13249.27272-.13249.27272.13248.27272.40513,0,.6701.13248,1.07523-.13248h.13248c.13249,0,.13249.13248.26489,0,0-.14024.13248.13248.13248,0,0,0,0-.14024.13249-.14024h.14024c.13248.14024.39737.27272.52977.14024h14.2196c.26488,0,.39737.13248.52977-.14024.13248.27272.40513.14024.53761.14024h5.35277c.13248,0,.13248,0,.13248-.14024s.13248-.13249.26489-.13249a.1325.1325,0,0,1,.13248.13249h0v.14024c.14024,0,.40513-.14024.53761,0s.40513,0,.6701.13248h9.77063c.13248,0,.26488.26489.26488.39737-.13248.27273,0,.27273.13248.27273s.13249.13248.13249.26488v4.28538c0,.13249-.13249.26489-.13249.39738s.26489.13248.13249.26488v.6701c0,.13248.13248.40513.13248.53761v.00024a.13249.13249,0,0,0,.13248.13248l.00816-.00024h-.0004c.26488,0,.26488.26489.13248.26489-.27272.27273-.13248.53761-.13248.77915v.53762a.49849.49849,0,0,0,.13264.27288l.13224.13224v-.27272c0-.13249,0-.13249.13249-.26489h.26488c.27273.13249.40513.40513.6701.6701l.13248.13248c.14024.13249.14024.13249.27272,0,0-.13248.13249-.13248.26489,0s.13248.13249,0,.26489-.13248.14024,0,.27272.13248,0,.26489,0l.14024-.13248c0-.14024.13248-.14024.26489,0s0,.13248,0,.13248c-.13249.13249,0,.13249,0,.26489,0,0,.13248.13248,0,.13248h-.13248a2.79418,2.79418,0,0,0-.67489.40905l.00488-.00384Zm-1.644,9.63039h0c-.13248.13248-.13248,0-.13248-.13249a.13249.13249,0,0,1,.13248-.13248h0c.13248,0,0,.13248,0,.26489Zm.26489,11.773c-.13249.13248,0,.40512-.13249.53761a.13249.13249,0,0,1-.13248.13248h0c-.13248,0-.13248-.13248-.13248-.26489s0-.13248.13248-.27272.26489,0,.26489-.13248ZM76.179,71.864h0c.14024-.14024.14024,0,.14024,0a.45963.45963,0,0,0,.13241.26481l.00008.00007c0,.13249,0,.13249-.13249.13249s-.14023,0-.14023-.13249V71.864Zm-.13248-23.14855h0c.13248-.13249.13248,0,.13248,0a.13248.13248,0,0,1-.13248.13248h0Zm7.63569-11.24322a.13251.13251,0,0,1,.13249-.13249h.40513c-.13249,0-.13249.13249-.27273.13249a.1792.1792,0,0,1-.25315.0118l-.01166-.01164-.00016-.00016ZM93.032,39.34993c.13248,0,.26488-.13249.40512-.13249h.13249c-.27272.13249-.40513.26489-.53761.13249Zm1.48043.13248c.13248-.13248.13248-.13248.26488-.13248h.13249v.13248c-.13249-.13248-.13249,0-.39737,0Zm37.59416,45.487a.1792.1792,0,0,1-.25315.01181l-.01165-.01165-.13257-.13256c-.14024,0-.14024,0-.14024-.13249s.14024,0,.14024,0h.13248c.13249,0,.13249-.13248.26489,0s0,.13249,0,.26489Zm.77916-35.71637-.00024-.00783a.13249.13249,0,0,1,.13248-.13249h.00024c.14024,0,.14024,0,.14024.14024a.12891.12891,0,0,1-.12479.13292.12651.12651,0,0,1-.01545-.00044.13248.13248,0,0,1-.13248-.13248h0Zm10.70553,6.8176v.27273c.13248.13248,0,.26489,0,.39737s.13248.26489,0,.40513c.13248.26488-.13248.39737-.13248.67009,0,.13249-.13249.26489-.27273.13249-.13248,0-.13248,0-.13248.13248V60.7534a.13249.13249,0,0,0,.13248.13248h0l.00784.00024a.13249.13249,0,0,0,.13248-.13248V60.7534h0a.46609.46609,0,0,1-.00383-.061.48159.48159,0,0,1,.13648-.33645l-.00017.00017a.13251.13251,0,0,1,.13249-.13249h0c.13248,0,0,.13249,0,.13249v.16358a.374.374,0,0,1-.22587.67218.36307.36307,0,0,1-.04078-.00224l.00168.00016c.13248.13248.13248.13248.26488,0-.13248.13248-.13248.39737-.40512.26488-.13249,0-.13249,0-.13249.13249,0,0,.13249.14024,0,.14024a.67124.67124,0,0,0-.131.667l-.00144-.00464V63.465a.75014.75014,0,0,0-.005.08787.77575.77575,0,0,0,.13912.44446l-.00167-.00256c0,.14024.13248.27273,0,.40513a.13249.13249,0,0,0,.13248.13249h0c.14024,0,.14024.13248,0,.13248-.26489.27272-.13248.6701-.13248,1.07522,0,.13249,0,.13249.13248.13249s.27272.13248.14024.39737c-.14024.53761-.53761.77915-.77915,1.34011l-.14024.13248c0,.13248,0,.13248.14024.13248s.13248-.13248.26488,0c0,.14025,0,.27273-.13248.27273h-.13248c0,.13248.13248,0,.13248.13248.13248,0,.26489,0,.26489.13248s-.13248.26489-.26489.13249h0c0,.27272-.27272.40512-.40513.53761s-.26488.39737-.52977.67009c-.14024.13248-.14024.13248-.27273,0q-.20259-.413-.39736,0l-.40513.39737c-.13249.13248-.13249.13248-.26489,0h-.13248c-.14024.27272-.40513.27272-.53761.40513-.13249,0-.13249.13248-.26489.26489v.13248h.13248c.13248-.13248.26489-.13248.39737-.26489h.13248v.13248c-.13248.13249-.26488.40513-.52977.53762,0,0-.13248.13248-.13248,0v-.26489s-.14024,0-.14024.13248v.2026c0,.13249,0,.13249-.13249.26489s-.26488.40513-.67009.27273v.13248c0,.13248,0,.13248-.13248.13248a.1325.1325,0,0,0-.13249.13248h0a.1325.1325,0,0,1-.13248.13249h0c-.13248,0,0-.13249,0-.13249s0-.13248-.13248,0-.27273,0-.27273.13249-.13248.14024-.13248.27272c-.26488.13248-.39737.39737-.67009.67009-.13248.13249-.26489.26489-.39737.26489s-.13248,0-.13248.13248l-.77916,1.20763a4.97385,4.97385,0,0,0-.52482.90308l-.01279.0319h-.13248A.13249.13249,0,0,0,134.81,75.846h0s-.14024.13248,0,.13248c0,.13248,0,.13248-.14024.26489-.26489.13248-.13249.53761-.39737.67009-.13249.13248-.13249.26489-.26489.26489l-.14024.14024a.28858.28858,0,0,1-.26393.26481l-.001.00008a.1325.1325,0,0,1-.13248.13248h0c0,.13248,0,.13248-.13249.26489,0,0,0,.14024-.13248.14024a.14031.14031,0,0,1-.14024-.14024h0c0-.13249,0-.13249.14024-.13249.13248-.13248.13248-.13248.13248-.26488-.13248-.26489-.13248-.53761-.27272-.6701v-.13248a.67756.67756,0,0,0,.27272-.53729v-.00032c0-.26489.13249-.52977.13249-.935v-.13248a1.88949,1.88949,0,0,0,.26408-.77028l.0008-.00888c0-.13248.13249-.13248.13249-.27272s.14024-.13248,0-.26489c-.13249,0-.13249-.13248-.13249-.26488V72.12933c-.00591-.066-.00935-.14264-.00935-.22011a2.60012,2.60012,0,0,1,.14735-.86551l-.00559.01823c.14024-.67009.14024-1.20762.27272-1.8778v-2.805c.00336-.08547.00528-.186.00528-.2868a7.83329,7.83329,0,0,0-.14576-1.50785l.00808.04925c0-.26489-.14024-.39737-.14024-.6701,0-.39737-.13249-.66225-.13249-.935v-.13248a.413.413,0,0,0-.00048-.53817l.00048.00056v-.13249c.13249-.13248,0-.39737.13249-.6701h0c-.26489-.13248,0-.39737,0-.52977v-.77915c-.13249,0-.13249-.14024-.13249-.27273s0-.13248.13249-.13248a.24158.24158,0,0,0,.0008-.39682l-.0008-.00056c-.13249-.14023-.26489-.27272,0-.40512V57.9486a.47369.47369,0,0,0,.00391-.06253.4969.4969,0,0,0-.13656-.34284l.00024.00024v-.91939c.13248-.13249,0-.26489,0-.40513v-.52977a5.38461,5.38461,0,0,0,.12881-.63836l.00376-.03166a.50558.50558,0,0,0,.00319-.05717.51234.51234,0,0,0-.136-.34836l.00032.00032V53.8348a.405.405,0,0,1,.0004-.53033l-.0004.00056v-.13249a.25712.25712,0,0,1-.00047-.40473l.00056-.0004a1.96025,1.96025,0,0,0,.14207-.73933,2.00082,2.00082,0,0,0-.01031-.20405l.00064.0084c-.13249-.77915,0-1.4726-.13249-2.27517V46.44065c0-.26489-.13248-.53762-.13248-.77916V45.529c-.26489,0-.13248-.13248-.13248-.27272a2.867,2.867,0,0,0,.09826-.75341,2.9804,2.9804,0,0,0-.02174-.35932l.00144.01416c0-.26489-.13249-.53761-.13249-.77916V42.841c0-.13248-.13248-.26488,0-.39737V42.3111c0-.14024-.13248-.27273,0-.40513s-.26488-.26489-.13248-.39737,0-.27272.13248-.40513c0-.13248,0-.13248-.26488-.13248a.68653.68653,0,0,0,.16222-.71375l.00144.00479V37.14542c0-.13248,0-.26488-.27272-.26488s-.39737-.13249-.67009-.13249c-.52978,0-.935-.27272-1.33236-.27272s-.67009-.26489-.935-.26489c-.14024,0-.27272-.13248-.14024.13248,0,.13249,0,.13249-.13248,0a6.8523,6.8523,0,0,1-1.65353-.27728l.04845.0124c-.26489-.13249-.67009,0-.935,0h-12.708c-1.8778-.13249-3.74768,0-5.62549,0h-3.21007c-.03206.00216-.06956.00335-.10738.00335a1.7234,1.7234,0,0,1-.683-.14016l.01127.00432a.46628.46628,0,0,0-.33756-.14407.4816.4816,0,0,0-.06213.00407l.0024-.00024h-3.89576a.46472.46472,0,0,0-.06092-.00383.4816.4816,0,0,0-.34412.14407l-.00009.00008c.27273.52978.13249.52978-.13248.52978H87.14932c-.39737,0-.77915.13248-1.2.13248H76.59954c-.04565-.00343-.099-.00543-.15271-.00543a2.16767,2.16767,0,0,0-.797.15071l.01471-.00512a6.43443,6.43443,0,0,1-1.34195.13768q-.13889,0-.27632-.00567l.01311.0004H72.96859c.13248.26489-.13248.26489-.26489.39737-.13248,0-.26489.13248-.13248.27272v3.475c0,.13248.13248.26489.13248.40513-.13248,0-.13248,0-.13248.13248s-.13249.26489.13248.39737V42.093c-.13248,0-.13248,0-.13248.14024V43.8383c.13248.39737-.13249.6701,0,1.06739,0,.26489.13248.53761.13248.77915v.13249c-.26489,0-.13248.13248-.13248.27272,0,.39737-.13249.77915-.13249,1.2v2.14269c.00368.08595.00576.18677.00576.28808a7.30288,7.30288,0,0,1-.15423,1.49674l.00823-.04726v.26489c0,.27272-.13248.53761,0,.77915-.00207.03118-.00327.0674-.00327.104a1.65347,1.65347,0,0,0,.14775.68553l-.00424-.0104c.13249.13249,0,.26489,0,.39738,0,0-.14023.13248,0,.13248a.413.413,0,0,1-.00047.53817l.00047-.00056c0,.13249-.14023.26489,0,.39737s0,.27273,0,.40513a3.35625,3.35625,0,0,0-.05252.6,3.47643,3.47643,0,0,0,.05564.621l-.00319-.02111v1.47259a4.14641,4.14641,0,0,0-.05285.6701,4.29749,4.29749,0,0,0,.0562.69472l-.00335-.0247v.935c0,.13248.13248.27272,0,.40512s0,.39738,0,.52978-.14024.40513.13248.53761V61.416c-.27272,0-.13248.14024-.13248.14024v.26488c0,.13249,0,.26489.26488.13249h.26489v.13248c-.13248.13249-.13248.27273-.26489.13249-.13248,0-.13248.14024-.13248.27272s0,.26489.13248.26489.13249,0,.13249-.13249.13248-.13248.26489,0v.13249c-.13249,0-.13249.26489-.39738.26489-.67009,0-.67009.14023-.67009.14023,0,.13249-.13248.39738-.13248.52978v.40513a2.81418,2.81418,0,0,0-.04966.53377,2.90427,2.90427,0,0,0,.05261.55184l-.003-.01823v2.14269c0,.13249.13249.26489.13249.39737,0,.27273.13248.53761,0,.77915V69.558c-.13249.39737,0,.77915-.13249,1.2a.49127.49127,0,0,0,.13265.40528l-.00016-.00016v.77915c0,.53761.13248,1.06739.13248,1.73757v.40512c0,.13249,0,.13249-.13248.13249s-.13248.13248,0,.26488.13248.40513.26489.53761a10.55426,10.55426,0,0,0,.43287,1.13639l-.02766-.06892c.13248.13249,0,.40513,0,.53761-.13249.53762-.13249.935-.26489,1.4726,0,.13248,0,.13248.13248.13248s.26489,0,.13248.26489v.72462h-.13248c-.13248,0-.13248-.13248-.13248-.26489-.14024-.27272-.14024-.40513-.27273-.67009,0-.13248-.26488-.13248-.39737-.27273a2.25284,2.25284,0,0,1-.54744-.6509l-.00584-.01144-.13248-.14024a.1325.1325,0,0,1-.13249-.13248h0c0-.13248-.13248-.39737-.13248-.52977v-.14025c.13248-.13248,0-.26488-.14024-.39737s-.26489-.26488-.39737-.26488-.13249-.14024-.13249-.14024c-.14024-.13249-.27272-.13249-.53761-.13249H69.4933a.4813.4813,0,0,1-.13632-.33636.49017.49017,0,0,1,.00416-.06349l-.00024.00248c-.14024-.27272-.40513-.40512-.53761-.67009,0-.13248-.13248-.13248-.26489-.13248a.14032.14032,0,0,1-.14024-.14024h0a.1325.1325,0,0,0-.13248-.13249h0c-.13249,0-.26489-.13248-.26489-.39737,0-.13248,0-.40512-.26489-.40512,0,0-.14024,0-.14024-.13249,0-.26488-.26489-.39737-.52977-.53761-.13249,0,0-.13248,0-.13248v-.13248H66.9534s-.14024.13248-.14024,0v-.83369s-.13248-.13248-.13248,0c-.13248,0,0,.13249,0,.13249v.13248c-.13248,0-.13248,0-.13248-.13248-.13249-.13249-.13249-.39737-.40513-.52978,0,0-.13249-.14024,0-.14024,0,0,.14024-.13248.14024,0,.13248.14024.26489.14024.39737.27273h.13248V71.0306l.00024-.00783a.1325.1325,0,0,0-.13248-.13249h-.00024a.69255.69255,0,0,0-.5261-.24162l-.01215.00017h.00064c-.13249-.26489-.26489-.13249-.39737,0,0,0-.13249.13248-.13249,0-.13248-.13249-.13248-.13249-.27272,0s-.26489.13248-.26489,0a.13245.13245,0,0,0-.09259-.12442l-.001-.00023-.17142.12465c0,.13248-.13248.26488-.13248.40512a.1403.1403,0,0,1-.14024-.14024h0c0-.13248,0-.13248-.26489-.26488-.13248,0-.13248-.13249,0-.26489h0a.1325.1325,0,0,0,.13249.13248h0V70.2437a.61682.61682,0,0,0-.5696-.38226.62934.62934,0,0,0-.1041.00871l.00368-.00056c.14024,0,.14024-.13248.27272-.13248v-.13248c0-.14025-.13248,0-.13248,0h-.14024v-.14025c0-.13248,0-.13248-.13248-.26488s-.39737-.13249-.52978-.39737c0-.14024,0-.27273.13249-.27273h.26488a.13249.13249,0,1,0,0-.265h0c-.13248,0-.13248,0-.13248-.13248,0,0-.13248-.13248,0-.13248h.13248c.13249,0,.26489,0,.26489-.14024s-.13248-.26489.14024-.26489h0c-.14024-.13248,0-.26489.13248-.39737s.13249-.14024.26489,0c0,0,.13249.13248.13249,0s0-.14024-.13249-.14024a.1325.1325,0,0,1-.13248-.13248h0c0-.13249-.13249-.13249-.13249,0-.13248.13248-.13248,0-.27272,0,0,0,.14024,0,.14024-.13249.13248,0,.13248-.13248,0-.13248-.14024-.13249-.14024-.26489,0-.26489,0,0,.13248-.14024,0-.14024h-.14024c-.13248.14024-.26489.27272-.39737.27272v-.13248s.13248-.14024,0-.14024H63.3378a.13249.13249,0,0,0-.13248.13248l.00024.00816v-.0004a.1325.1325,0,0,1-.13249.13248h0c-.14024,0,0-.13248-.14024-.13248,0-.14024-.13248-.14024-.13248-.27273s0-.13248.13248-.13248.14024-.13249,0-.13249c-.26489-.13248-.13248-.27272-.26489-.40512l.13249-.13249s.13248-.13248,0-.13248a.12484.12484,0,0,0,.0012-.01791.1324.1324,0,0,0-.15791-.13l.00088-.00016c-.26489.13249-.26489,0-.39737-.13248V64.7658h.28831c.13248,0,.39737.27272.53761-.13249a.413.413,0,0,0,.26465-.13208l.00024-.00032c-.13248,0-.26489,0-.26489.13248a.48034.48034,0,0,1-.08531.00744.48916.48916,0,0,1-.34324-.14l.00008.00008c-.13249-.13249-.13249-.13249-.26489-.13249.13248-.26488,0-.53761.13248-.77915V62.07766c0-.13249-.13248-.26489,0-.39737,0,0-.13248-.14024-.13248,0-.27272,0-.27272-.14024-.27272-.27273h.29607c-.40513-.10913-.40513-.38178-.27273-.6545v-.23379a.46631.46631,0,0,1,.14408.33757.48157.48157,0,0,1-.00408.06212l.00024-.0024v.14024l.13249.13249V58.18173c0-.13248,0-.13248-.13249-.13248s-.14024,0-.14024-.13249,0-.27272.14024-.27272a.1325.1325,0,0,0,.13249-.13248h0c0-.13249,0-.13249-.13249-.13249s-.14024,0-.14024-.13248v-.935c0-.27272.14024-.40512,0-.67009V55.509c.27273,0,.14024-.14024.14024-.14024,0-.26489-.14024-.52977,0-.77915v-.13249c0-.13248-.14024-.13248,0-.26488.13249,0,0-.13249,0-.13249-.14024-.13248-.27272-.27272,0-.27272.13249,0,0-.13249,0-.13249a.451.451,0,0,1-.13992-.26233l-.00032-.00256v-.13248c.14024,0,.14024-.13249.27273-.27273V52.852c-.13249,0-.13249-.13249,0-.26489s0-.27272.13248-.27272a.1325.1325,0,0,0-.13248-.13249h0c-.13249,0-.13249-.13248,0-.13248,0,0,.13248-.13249,0-.13249-.27273-.26488,0-.53761-.27273-.77915v-.28048s.14024-.14024,0-.14024c-.13248-.13248,0-.13248,0-.13248.14024,0,.14024-.13249,0-.26489v-.13248c.14024-.13249,0-.27273,0-.53761a.13249.13249,0,0,0-.13248.13248h-.13249a.28859.28859,0,0,1,.26393-.26481l.001-.00008c.14024,0,.14024,0,.14024-.13248v-.40513h-.14024c-.13248,0,0,.13248,0,.13248-.26489,0-.26489-.28047-.26489-.39737v-.77915c0-.13248,0-.27272.26489-.13248.14024.13248.27273-.14024.14024-.14024V45.09931h-.27272v-.16359a.1325.1325,0,0,0,.13248-.13248h0c.14024-.13249.14024-.13249,0-.26489,0,0-.13248,0,0-.14024,0-.13248,0-.26489.14024-.26489s.13249-.13248.13249-.26489,0-.27272-.27273-.40512V43.3775c.27273-.13249.14024-.26489.14024-.40513a2.72651,2.72651,0,0,1-.146-.88917q0-.094.00615-.18661l-.00048.00839V40.54931c-.00352-.072-.00551-.15631-.00551-.24114a5.2864,5.2864,0,0,1,.15335-1.26767l-.00752.03621V36.53665c0-.13248,0-.26489.13249-.26489s.13248,0,0-.13248V36.0068s-.13249-.14024,0-.14024.13248,0,.13248.14024a.1325.1325,0,0,0,.13248.13248h-.02334V36.0068a1.994,1.994,0,0,1-.25362-.97944,2.036,2.036,0,0,1,.013-.22971l-.00088.0092v-.13249c-.13249-.27272,0-.53761,0-.77915V32.39143c0-.13248.13248-.13248,0-.26489v-.14023c.24154-.13249.13248-.13249,0-.29607s0-.26489,0-.39738.26488,0,.13248-.14024c0-.1013-.13248-.1013-.13248-.24154a.13249.13249,0,0,1,.13248-.13248h0a.13249.13249,0,0,1-.13248-.13248h0c0-.14024,0-.14024.13248-.14024s.10914.00783.10914-.12465,0,0-.13249,0a.1325.1325,0,0,1-.13248-.13249h0V27.84117c0-.26489,0-.26489.26489-.26489.13248,0,.13248-.13249.13248-.27273,0,.14024.13249.14024.27272,0,.4208-.13248.68569-.28831,1.09082-.39737h.39737c.04573.0032.09914.005.153.005a2.33284,2.33284,0,0,0,.80594-.14264l-.01623.0052c.26489-.13249.52977,0,.77915,0a2.78875,2.78875,0,0,0,.52978.04933,2.87634,2.87634,0,0,0,.54784-.05229l-.018.003h.13249c.27272.26489.53761.13248.77915,0a3.28647,3.28647,0,0,0,.99615-.54273l-.00664.005H106.55c.14024,0,.27272.13248.40513.13248.38026.03158.823.04965,1.27.04965s.88973-.018,1.32764-.05341l-.05765.00376a2.85618,2.85618,0,0,1,.53761-.04965,2.95542,2.95542,0,0,1,.556.05253l-.01838-.003c.26488,0,.39736.13249.66226,0h3.74768a6.31751,6.31751,0,0,1,.8025-.04965,6.56837,6.56837,0,0,1,.83488.05309l-.03238-.00344h4.81515c.6701,0,1.23889-.13248,1.87781-.13248h12.84047a2.52436,2.52436,0,0,1,.957.2716l-.01423-.00663h.26488a7.07665,7.07665,0,0,0,1.44941.146q.152,0,.30255-.00623l-.01439.00047h1.3401a1.42751,1.42751,0,0,0,.60814.13377q.03262,0,.06492-.00144l-.003.00016h.77915c.13249,0,.26489.26489.26489.52977v2.54782c0,.13249,0,.26489-.13248.13249H141.853a.1325.1325,0,0,0,.13249.13248h0c.13248,0,.26488-.13248.26488.13248a.50327.50327,0,0,1,.0032.05717.51232.51232,0,0,1-.136.34836l.00032-.00032c-.13248.13248-.13248.13248,0,.13248s.13248.39738,0,.39738c-.13248.14024-.26489.27272,0,.27272,0,0,.13248.13248,0,.13248s-.13248.13249,0,.13249.13248.13248.13248.26489V32.524a1.454,1.454,0,0,0-.09954.53377,1.47629,1.47629,0,0,0,.10306.54377l-.00344-.01v.14024c-.13248.26489,0,.66226-.13248.935,0,.13248-.13248.26488-.13248.39737,0,0,0,.14024-.13249.14024l-.13248.13248v.13249h.13248v-.13249a.1325.1325,0,0,1,.13249-.13248h0c.13248,0,0,.13248,0,.13248-.13249.13249-.13249.26489.13248.26489a.13249.13249,0,0,1,.13248.13248h0v2.6803c.13248.39738,0,.66226.13248,1.06739a5.95946,5.95946,0,0,1,.05262.8025,6.20524,6.20524,0,0,1-.05613.83432l.00351-.03174c.00328.04581.00512.09922.00512.153a2.28669,2.28669,0,0,1-.14271.79778l.00512-.01591c-.13249.13249-.26489.27273.13248.40513.14024,0,0,.13248,0,.13248.53761,1.19995.53761,1.34011.53761,1.73757.13248,0,0-.13249.13248-.13249s.13249.13249.13249.26489c0,0,0,.14024-.13249,0s-.13248,0-.13248.14024c0,.26489-.13248.66226,0,.935v.13249a.85805.85805,0,0,0,.00224.78387l-.00224-.00472v.13248a2.81425,2.81425,0,0,0-.04965.53377,2.90437,2.90437,0,0,0,.05261.55185l-.00295-.01823c0,.14024.13248.14024.26488.14024.14024-.14024.14024,0,.27273.13248v1.06739c0,.13249-.13249.13249-.27273.13249v-.13249c0-.13248,0-.13248-.13248-.13248a.13249.13249,0,0,0-.13248.13248h0v.40513c0,.13248,0,.13248.13248,0,.13248,0,.40513.13248.40513.26488s0,.13249-.13248,0l-.14025-.13248c-.13248.13248-.13248.26489,0,.53761V50.164s-.13248.13248,0,.13248c.14025.13249.14025,0,.27273,0h.13248c0,.26489.13248.53761-.13248.77915a.18706.18706,0,0,0-.00045.26453l.00045.00044h0c0,.13249,0,.13249-.13248.13249a.14031.14031,0,0,0-.14025.14023h0v.13249c.14025,0,.14025,0,.14025-.13249,0,0,0-.14023.13248-.14023s0,.14023,0,.14023v.13249c0,.13248.13248.39737-.27273.13248a.1325.1325,0,0,0-.13248.13249h0c0,.13248.13248.40513.27273.40513-.14025.13248-.14025.26488-.27273.26488-.13248.13249,0,.13249,0,.26489s0,.14024.13248.14024h.14025c0,.13248,0,.13248-.14025.13248h-.13248l-.13248.13249c0,.13248.13248,0,.13248,0,.13248,0,.27273.26489.27273.39737v1.07522a2.41409,2.41409,0,0,1,.26656,1.11048q0,.04715-.00184.09387l.00016-.00448ZM63.471,66.75275c0,.13248.26489.13248.13248.40513a.187.187,0,0,1-.26452.00044l-.00045-.00044h0c-.13248-.27272,0-.40513.13249-.40513Zm79.73853-21.81627h0c-.26489,0-.26489,0-.26489-.13249h0c.13249,0,.26489,0,.26489.13249Z" style="fill: #d9c62f"/>
      </g>
    </g>
  </g>
</svg>
