<svg xmlns="http://www.w3.org/2000/svg" viewBox="0 0 205.60547 154.2041">
  <title>patrol-boss-hive</title>
  <g id="Layer_2" data-name="Layer 2">
    <g id="Layer_1-2" data-name="Layer 1">
      <g id="Layer_1-2-2" data-name="Layer 1-2">
        <path d="M81.50672,58.45874l.21843-.21843h.21844v-.2184q-1.31055-1.96581-1.529-2.18421a1.56453,1.56453,0,0,1-.2184-1.74737q.43685.43683.43684.54607t.65527-.32764l.65527.87367a5.05785,5.05785,0,0,1,.65523,1.09211l.65527.65526v-.21843a2.431,2.431,0,0,1,.21843-1.0921q.2184-.4368-.43687-1.09207-.2184,0-.43683-.65527-.2184,0-.32763-.32763a1.3706,1.3706,0,0,0-.3276-.546,1.88929,1.88929,0,0,0-1.529-.87371q0-.43679-.65523-.87367a.193.193,0,0,1-.21843-.21843q0-.2184-1.52894-1.3105l-.87367-.87367a1.68946,1.68946,0,0,1,1.52894.43684l.65538.65526a1.24519,1.24519,0,0,0,1.3105.43683h.65516q0,.2184,1.0921.87367.4368-.43683.43683-.65527a1.57744,1.57744,0,0,1,1.31051.54607q.43683.54608.65527-.10923.87363-4.15.87363-4.36838a13.89051,13.89051,0,0,1,1.0921-3.4947,29.06528,29.06528,0,0,1,1.0921-3.05788,13.86538,13.86538,0,0,1,.76432-1.85657l.32763-.32763L90.02492,34.651a.98935.98935,0,0,0,.2184-1.09207q-.2184,0-.43684-.8737.43685-.2184,0-.87367a2.26891,2.26891,0,0,0-.87348-1.52886q-.2184-.2184-.65527-.76432a5.45962,5.45962,0,0,1-.546-.76432,1.87458,1.87458,0,0,0-.54607-.54607l-.43683-.328a2.54143,2.54143,0,0,1-.43684-.65527,1.79659,1.79659,0,0,1,.546.1092,2.42071,2.42071,0,0,0,.76431.1092,1.4819,1.4819,0,0,1,1.09211-.43684l-.43684.43684q-.43683.21846,0,.43687.21845,0,.65527,1.09206.2184.21844.65527,0l.2184.21844h.43683a.6292.6292,0,0,0,.21867-.43684,1.26471,1.26471,0,0,0-.21844-.87366q-.2184,0-.2184-.43687l.87367.65527.43683.43683a.71343.71343,0,0,0,.87367-.2184,4.96023,4.96023,0,0,0,1.529-2.621,1.28352,1.28352,0,0,1,.655-1.0921L95.267,23.73a9.05944,9.05944,0,0,0,1.96577-2.40268,19.441,19.441,0,0,0,1.09211-1.96577,3.43811,3.43811,0,0,1,.87378-1.31046,11.9083,11.9083,0,0,0,2.18424-1.96577q.4368-.43684.43684-.65527,1.0921-.43688,1.0921-1.09211.65523.8737.87367.87367a1.25861,1.25861,0,0,1,.43683.87371v.21839q.2184,0,.9829.76432l1.2013,1.2013a2.105,2.105,0,0,1,.87367,1.09211,9.93038,9.93038,0,0,0,1.31054,2.40268q.2184,0,.2184.43683a2.784,2.784,0,0,0,1.31054,1.3105,1.50122,1.50122,0,0,1,.3276.76432q.10923.546.9829.54607.2184.87363.43684.87366a3.47728,3.47728,0,0,0,1.0921,1.96578l.21844.43683a.95127.95127,0,0,0,1.3105.21843l.6553-.43656a3.57368,3.57368,0,0,0-.21843.87366q0,.65527.65527.43684a1.17074,1.17074,0,0,0,1.3105-.87367.62927.62927,0,0,1,.21843-.43683l.65527-.43687a3.29781,3.29781,0,0,0,1.96577-.87367q0,.21848-.65527.87367l-3.27631,3.2763-.2184.43684a1.93829,1.93829,0,0,0-.21843.87366.69961.69961,0,0,1-.43683.65527v.87371h.65526v.2184l.43684,3.49471a.88987.88987,0,0,0,.21843.65527,3.64622,3.64622,0,0,1,1.09207,1.52893q.6553,1.52894,1.74737,3.93154a2.68753,2.68753,0,0,1,.43683,1.09211v.21843a39.58613,39.58613,0,0,0,1.09211,3.93154,6.77391,6.77391,0,0,0,.43683,1.52894l.43684.65527h.21843q.65526-.43683,1.0921,0a.95128.95128,0,0,0,1.3105-.21844l.43683-.2184a.27306.27306,0,0,1,.43688,0,.71349.71349,0,0,0,.87366-.21843l.546-.546.54607-.32764a2.12293,2.12293,0,0,1,1.0921-.43683.69965.69965,0,0,1-.43687.65523,3.42381,3.42381,0,0,0-.87367.65527.3498.3498,0,0,0-.32763.21843.3498.3498,0,0,1-.32764.2184q-.4368.43683-.43683.65527a.85641.85641,0,0,0-.65523.87367.88541.88541,0,0,0-1.09211.43683q0,.21843-.32763.43687t-.32764.43684a6.38375,6.38375,0,0,0-.546.65523,6.37967,6.37967,0,0,1-.54607.65527.95131.95131,0,0,0,.21844,1.31054l.2184.43683a2.76208,2.76208,0,0,1,1.31042-1.52889l.43684-.87371a2.5408,2.5408,0,0,0,.43683.65527,1.37084,1.37084,0,0,0,.32764-.546q.10918-.32763.32763-.32763,0,.2184.43683.65527l.2184.2184a1.31272,1.31272,0,0,1-.87367.87366A5.63718,5.63718,0,0,0,123.2248,58.022a5.37436,5.37436,0,0,0,2.18421-.8737v.43687h-.21844v.2184q.21845.43683-.87366,1.74737-3.27631,3.93159-3.49471,4.36838T118.638,67.63244l-.21843.21844a4.73666,4.73666,0,0,0-1.3105,1.52893,11.84844,11.84844,0,0,1-1.31054,2.18417l-.1092.21844-.1092.32763q-.1092.3276-1.0921,2.51181a11.979,11.979,0,0,1-.65527,1.52894,3.35313,3.35313,0,0,0-.43683,1.31053,27.12027,27.12027,0,0,0-1.3105,3.49471q-.21845,0-.43684.32764a3.57939,3.57939,0,0,1-.43687.546q-.65523,1.74732-1.52894,3.71314a9.69207,9.69207,0,0,1-.87367,1.74737q-.21838,0-.43683.43684l-.1092.65526-.32763.87367a25.651,25.651,0,0,0-1.0921,3.05788q-.2184.87368-.65527,2.40268a9.37078,9.37078,0,0,0-.43684,2.40268,15.1119,15.1119,0,0,0-.43683,1.74733,10.90159,10.90159,0,0,0-.21843,1.31054,2.50444,2.50444,0,0,1-.2184.76431,2.503,2.503,0,0,0-.21844.76432v.65523q-.43683,2.83944-.43683,3.27631v3.93155a13.13881,13.13881,0,0,1-.21825,1.96607,14.183,14.183,0,0,0-.2184,2.2934,7.63078,7.63078,0,0,1-.21844,1.85657v1.96577a21.17069,21.17069,0,0,0-.21839,3.93158v.65526l-.21844.65524v2.621a.89.89,0,0,1-.2184.65527v-.43684a17.82573,17.82573,0,0,0-.43687-3.05787v-2.62105l-.2184-.8737a6.86487,6.86487,0,0,0-.1092-1.09206,8.64749,8.64749,0,0,1-.10924-1.41974,2.724,2.724,0,0,0-.21839-1.2013v-1.74737l-.21844-.87367q-.2184-5.02368-.2184-5.24208-.43687-3.49472-.65527-4.80536a6.13685,6.13685,0,0,0-.1092-1.2013q-.10923-.54608-.21844-.98286t-.32774-1.09233a3.59377,3.59377,0,0,1-.21839-1.0921q0-.2184-.65527-3.27631Q98.325,91.87686,97.66979,89.911a22.80178,22.80178,0,0,1-1.52894-3.38551q-.87371-2.2934-1.31054-3.38551-.2184-.65526-.546-1.41973T93.629,80.30069q-.3276-.65522-.76432-1.41954a8.00551,8.00551,0,0,1-.65527-1.41974,11.78655,11.78655,0,0,0-.76431-1.96577q-.76433-1.74734-1.20131-2.621a1.37141,1.37141,0,0,1-.32763-.54607l-.1095-.32775a31.60563,31.60563,0,0,0-1.74734-3.05791q-.6553-.87367-3.49474-6.11575A23.44117,23.44117,0,0,0,81.50672,58.45874Zm29.48675-16.5999q0,.43683-.21844.43683A36.11958,36.11958,0,0,0,109.0277,47.101q-.21847.43683-.98291,2.075a15.39846,15.39846,0,0,0-.98286,2.5118,1.99277,1.99277,0,0,0-.10924,1.0921,7.25406,7.25406,0,0,0,.54607,1.3105,3.42282,3.42282,0,0,1,.65523.87371,1.90042,1.90042,0,0,0,.32764.76431,4.22479,4.22479,0,0,0,.54606.76432,2.69181,2.69181,0,0,1,.43684,1.52894,15.10986,15.10986,0,0,0,.43683,1.74733v.43687l.21844.2184.21839.65527a6.77393,6.77393,0,0,0,.43684,1.52894,2.10522,2.10522,0,0,0,.8737-1.0921l.87367-1.74738.43683-.43683q.65527,0,1.09211-1.0921a3.91512,3.91512,0,0,1,1.3105-1.96578.6996.6996,0,0,0,.43683-.65526,8.10511,8.10511,0,0,0-.87367-3.27627,3.18412,3.18412,0,0,1-.43683-1.31054l-.10909-.32741-.10942-.54615q-.87368-2.83944-1.09207-3.71314a5.008,5.008,0,0,1-.43687-1.52886.62933.62933,0,0,0-.2184-.43683q-.21843-.43684-1.52893-2.621Zm-16.59991,0-.43683,1.0921a14.45844,14.45844,0,0,0-.65527,1.96577,8.316,8.316,0,0,1-.87367,2.18421q-.2184.65523-.65527,2.075t-.65523,2.075l-1.31062,3.93154a1.25875,1.25875,0,0,0,.43683.87371,11.47716,11.47716,0,0,1,1.09211,1.74733,5.83034,5.83034,0,0,0,1.0921,1.52894,3.4232,3.4232,0,0,1,.65527.87371,10.80236,10.80236,0,0,0,1.52894,2.18417l.21839-.2184q.43685-1.74733.65527-1.74737.2184-.65528.65527-2.83944a6.77017,6.77017,0,0,1,.43684-1.31054l.43683-.43683a18.80409,18.80409,0,0,1,1.31054-2.83944,1.4072,1.4072,0,0,0,0-1.0921,14.411,14.411,0,0,0-.8737-2.40268l-.2184-.65524a19.86334,19.86334,0,0,1-.87371-2.075l-.87366-2.40268-.87367-2.075Zm7.64468-1.31051q.65525,0,.65527-.43683a6.913,6.913,0,0,0,.65527-1.52894,4.225,4.225,0,0,0,.546-.76431q.32763-.54607.54607-.98291a8.55926,8.55926,0,0,1,.87366-1.96577V34.651a1.385,1.385,0,0,0,.32764-.65524,4.267,4.267,0,0,1,.32763-.8737l.43683-.87367a2.97665,2.97665,0,0,0,.21832-1.96569,12.51814,12.51814,0,0,0-1.52893-3.93162.34992.34992,0,0,1-.32767-.21844.96916.96916,0,0,1-.1092-.43683l-1.31047-2.62115L102.475,21.546a8.23918,8.23918,0,0,0-.87367,1.74737q-1.09211,2.40269-1.96577,3.93155a2.37051,2.37051,0,0,0-.43683.87366l-.87367,2.40268a.9282.9282,0,0,0,0,.87371q.87363,2.40268,1.3105,3.27627a2.37131,2.37131,0,0,1,.43684.8737,1.79653,1.79653,0,0,0,.1092.546,1.796,1.796,0,0,1,.10923.54607q.2184.4368.65523,1.52893Zm.65527,38.22343.43684-.87367q1.52894-2.83947,2.83947-5.46048l.43683-1.31053a1.16161,1.16161,0,0,0-.10919-1.41974,5.48951,5.48951,0,0,1-.76432-1.4197,7.76359,7.76359,0,0,1-.65523-2.18421,6.5706,6.5706,0,0,0-1.74738-2.83944q-.2184-.21843-.65527,0a6.39347,6.39347,0,0,0-1.09206,1.74734,20.21977,20.21977,0,0,1-1.0921,2.83947,5.05606,5.05606,0,0,1-.65527,1.09207,2.87,2.87,0,0,0-.21844,2.83947q.21847.2184,2.83948,5.89731Zm19.43935-24.89983q-.87367,0-.87367.65527.2184,0,.43683-.32763t.43676-.32764Zm6.98941.43684a2.34863,2.34863,0,0,1-.43683,1.3105l-.2184-.2184a2.123,2.123,0,0,1,.43683-1.0921ZM76.04624,47.756a2.74893,2.74893,0,0,1-1.52894-1.092A3.19461,3.19461,0,0,1,76.04624,47.756Zm53.73123,4.80536a1.71186,1.71186,0,0,1,.43683-.3276l.21843-.10923q.2184.21847,0,.54607l-.21843.32763Zm.21843-5.242a1.7888,1.7888,0,0,1,1.0921-.65527A1.7889,1.7889,0,0,1,129.9959,47.31935ZM82.162,54.5272a.69965.69965,0,0,1-.43684-.65527V53.4351A.8854.8854,0,0,1,82.162,54.5272Zm44.12077,0q-.43685-.6553,0-.8737l.21843.21843Zm1.3105-2.1842v.65526q0-.21846-.43684-.65526l.21844-.21844a.193.193,0,0,0,.2184.21844Zm-51.547-4.587a.4317.4317,0,0,1,.65527.2184.43168.43168,0,0,1-.65527-.2184Zm52.85756.2184a.4317.4317,0,0,1,.65527-.2184.89.89,0,0,1-.65528.21855ZM87.40407,29.84578q.21838.43686,0,.43683-.21845.2184-.21844,0A.62914.62914,0,0,1,87.40407,29.84578Zm42.37339,22.06038h-.43683v-.21843q.43683-.2184.43683,0Zm-.87367.2184a.69965.69965,0,0,1,.43684.65527A.69965.69965,0,0,1,128.90379,52.12456ZM79.32266,54.09033q-.43688,0-.21843-.2184l.21843-.21843a.273.273,0,0,1,0,.43683ZM89.36984,32.46682q-.2184.2184-.32764.2184t-.1092-.2184q0-.21847.1092-.21844T89.36984,32.46682ZM81.28832,53.21666a.38594.38594,0,1,1,0-.1096A.38595.38595,0,0,1,81.28832,53.21666ZM121.04068,25.259l-.2184.21839-.21844-.21839a.193.193,0,0,0,.21844-.21844Zm-4.36838,6.98941v.21844l-.21843.2184v-.43684Zm10.48413,20.96828-.2184.21844h-.21844a.6293.6293,0,0,0,.21844-.43684l.1092.1092Zm.8737,1.09211.2184.21843-.2184.2184q-.21848,0-.21843-.1092T128.03013,54.30877ZM85.87513,27.0063v-.2184h.2184a.193.193,0,0,1-.2184.2184ZM78.88568,53.21666l-.2184.21844a.193.193,0,0,1-.21844-.21844l.21844-.2184a.193.193,0,0,0,.2184.2184Z" style="fill: #d9c62f"/>
      </g>
      <path d="M102.80273,154.2041,0,0H205.60547ZM5.60547,3l97.19726,145.7959L200,3Z" style="fill: #d9c62f"/>
    </g>
  </g>
</svg>
