<svg xmlns="http://www.w3.org/2000/svg" viewBox="0 0 154.24219 154.24219">
  <title>patrol-boss</title>
  <g id="Layer_2" data-name="Layer 2">
    <g id="Layer_1-2" data-name="Layer 1">
      <path d="M77.12109,154.24219,0,77.12109,77.12109,0l77.1211,77.12109ZM4.24219,77.12109,77.12109,150,150,77.12109,77.12109,4.24219Z" style="fill: #d9c62f"/>
      <g>
        <path d="M96.09537,66.07111c.04375,1.68438.13125,3.54375.125,5.40625a11.77006,11.77006,0,0,0,.70313,3.91875l-.025-.08125a16.30515,16.30515,0,0,1,.85937,3.05l.01563.10625c.36562,2.70625-1.09688,4.25625-3.3125,5.4375a.94691.94691,0,0,1-.45313.11563h-.03125a1.5319,1.5319,0,0,1-.4375-.14375l.00938.00312c-.14688-.53125.15938-.86249.3625-1.22187.25625-.44375.53125-.8625.76562-1.31563a2.22571,2.22571,0,0,0-.52812-2.96875,5.90046,5.90046,0,0,0-.55625-.42187l-.02188-.0125c-1.48437-.3125-2.56875.4625-3.64687,1.20937a4.84885,4.84885,0,0,0-2.34063,4.375c.03125.76562.03438,1.52812,0,2.29374-.03437.62188-.14687,1.24063-.22812,1.93125H85.911a2.5751,2.5751,0,0,1-.79375-1.80937c-.30938-2.525-1.875-3.89375-4.13125-4.60625a11.9833,11.9833,0,0,0-3.81563-.60938,12.18955,12.18955,0,0,0-4.20625.74375l.08438-.02812a5.16031,5.16031,0,0,0-3.82188,4.43124,3.12919,3.12919,0,0,1-.80937,1.9l.00313-.00312H66.986c-.09062-.65312-.21875-1.275-.25625-1.88125a23.18936,23.18936,0,0,1,0-2.42187,4.58153,4.58153,0,0,0-1.88125-3.9625,11.10546,11.10546,0,0,0-2.2-1.3375l-.06875-.02812a7.014,7.014,0,0,0-1.67812-.3375,9.45051,9.45051,0,0,0-.95313.79687l.00313-.00313a2.08854,2.08854,0,0,0-.38125,2.56563c.275.50937.6125,1.01875.87187,1.54375.175.35312.55.68125.25625,1.24375-.19375,0-.475.11875-.6625.02812a5.61983,5.61983,0,0,1-3.425-3.66874,6.3327,6.3327,0,0,1,.2875-3.49375c.28437-.88125.63749-1.74376.85937-2.6375a11.43486,11.43486,0,0,0,.29687-2.225v-.02188c.05313-1.01875,0-2.0375.03751-3.05937.03437-.925.1125-1.85313.21874-2.775a1.72277,1.72277,0,0,1,.94063-1.41875l.00937-.00313a5.0126,5.0126,0,0,0,2.0625-2.14063,18.34947,18.34947,0,0,1,10.17188-7.55l.12812-.03125a19.25188,19.25188,0,0,1,5.47813-.775,20.13715,20.13715,0,0,1,2.7625.19063l-.10313-.0125a18.82745,18.82745,0,0,1,9.72187,4.23125,16.48693,16.48693,0,0,1,3.88125,4.55l.04063.07812a2.32816,2.32816,0,0,0,1.13438,1.14063c.69063.27812,1.04687.83749,1.5625,1.7125Zm-14.6875-2.89062c.1,1.29375.20313,2.72187.31562,4.15a2.8523,2.8523,0,0,0,2.19375,2.74687,47.11112,47.11112,0,0,0,6.95625,1.13438,1.64532,1.64532,0,0,0,.25625.01875,1.66328,1.66328,0,0,0,1.39063-.74688l.00312-.00625c.52187-.76562.76563-3.39687-.17812-4.33125a7.75238,7.75238,0,0,0-2.975-2.07812,37.96058,37.96058,0,0,0-6.37187-1.44375,1.36757,1.36757,0,0,0-1.59688.55937Zm-8.63437-.34688a3.091,3.091,0,0,0-.9-.22187H71.861a11.14824,11.14824,0,0,0-2.075.25625l.075-.0125a53.20073,53.20073,0,0,0-5.24375,1.32812,4.45528,4.45528,0,0,0-3.23437,5.07813c.25624,1.6375,1,2.08437,2.39687,1.94375,1.25313-.125,2.50625-.27813,3.75-.49375,1.03125-.18125,2.0375-.475,3.05937-.70938a2.4865,2.4865,0,0,0,1.92813-2.125,17.72608,17.72608,0,0,0,.33125-3.44687c0-.55938-.025-1.11563-.075-1.6625l.00625.07187Zm7.2,12.38438c.15937-.3375.34375-.70937.50937-1.0875a4.89354,4.89354,0,0,0,.2-2.75625,10.93607,10.93607,0,0,0-2.09063-4.86875l.01875.02813c-.89374-1.19375-2.00312-1.16563-2.92812.01875-.05.06562-.075.15312-.12813.21874a10.73278,10.73278,0,0,0-1.9,4.43438l-.00937.06562a5.53554,5.53554,0,0,0,.21875,3.04375l-.0125-.03749a1.37444,1.37444,0,0,0,2.1125.84062c.19062-.09062.35937-.225.55312-.30625.29688-.12813.60312-.22812.88438-.33125a2.37872,2.37872,0,0,0,2.575.7375Z" style="fill: #d9c62f"/>
        <path d="M48.386,79.768c.36563,1.9.70625,3.675,1.05938,5.52812a4.03141,4.03141,0,0,1,2.3125,2.4875c.71875,1.52812,1.49375,3.03124,2.25625,4.53749a3.31227,3.31227,0,0,1,.1375,3.13438c1.04374,1.48125,2.10624,2.99375,3.20937,4.55937a3.88879,3.88879,0,0,1,3.05937,1.22188c1.1125.975,2.31563,1.84375,3.45938,2.78438a4.72012,4.72012,0,0,1,1.87187,2.35l5.00938.93437v3.61875l-6.39375-1.16562c.10937-.01875,0-.02813-.05313.0125a3.039,3.039,0,0,1-3.73437-.48125q-2.1125-1.72188-4.24063-3.4375a3.72328,3.72328,0,0,1-1.61562-3.0125,2.21418,2.21418,0,0,0-.50938-1.11875c-1.05-1.52813-2.13125-3.05938-3.24062-4.63125a3.20347,3.20347,0,0,1-2.375-1.89688l-.00937-.02187c-.76563-1.64688-1.6-3.26251-2.42813-4.87813-.65-1.275-.975-2.53438-.09062-3.7375-.40938-2.29375-.80313-4.49062-1.19375-6.68125l.15937-.04687c-.19062-.22187-.39375-.43438-.57187-.66875a3.37176,3.37176,0,0,1-.62188-2.9l-.00625.02187c.4-1.93437.82813-3.8625,1.25-5.79375a3.37623,3.37623,0,0,1,1.875-2.55c.76563-2.00625,1.52813-4.00937,2.29375-5.99062-.05312-.5875-.11875-1.16563-.15625-1.74687v-.08438a2.27719,2.27719,0,0,1,.51563-1.44688l-.00313.00313c1.18125-1.59687,2.35625-3.2,3.54375-4.79375a7.12334,7.12334,0,0,1,.7625-.84688l.00313-.00312a2.54539,2.54539,0,0,1,2.85625-.675l5.7-2.68125c.3375-1.6375,1.50937-2.34062,3.05937-2.73125,1.75313-.45,3.44375-1.07187,5.22813-1.63438v1.31875c-2.14688.8875-4.475,1.19375-6.71875,2.36876,1.58437.44062,1.9,1.47187,1.57812,2.94062l5.14375-1.54687c.02188.43437.04688.84062.07188,1.33124-1.55.48125-3.05938,1.01875-4.5875,1.3875a9.95574,9.95574,0,0,1-2.48125-.10937l-4.80313,2.25312A5.23911,5.23911,0,0,1,57.636,58.11486c-.95313,1.18125-1.80938,2.44375-2.72813,3.65937a3.79011,3.79011,0,0,1-2.50625,1.85c-.61875,1.6125-1.275,3.33438-1.97187,5.125a3.6087,3.6087,0,0,1,.53437,3.52813c-.44375,1.70625-.76562,3.45-1.08125,5.1875a3.88614,3.88614,0,0,1-1.4875,2.3ZM47.36725,69.16174A2.654,2.654,0,0,0,46.34538,70.868l-.00313.01562q-.6125,2.76876-1.18437,5.54375a11.27844,11.27844,0,0,0-.125,1.23125v.025l.85.95c.67187-.49688,1.275-.10938,1.82187-.02813a2.07613,2.07613,0,0,0,.88438-1.40312v-.0125c.41562-1.8875.84687-3.76563,1.2375-5.65625a1.75629,1.75629,0,0,0-.39375-1.80938,1.905,1.905,0,0,1-2.05313-.5625l-.00312-.00312ZM57.53912,55.65549l-1.40625-2.14688c-1.17812.22813-1.275.27188-1.8.97188-1.03125,1.37187-2.075,2.7625-3.09374,4.175-.3375.4625-.60626.97187-.94063,1.5125,1.71563.18437,1.71563.18437,2.80312,1.65937.04063,0,.1,0,.11875-.0375,1.4-1.85312,2.80313-3.70625,4.17813-5.575a1.32967,1.32967,0,0,0,.15-.5625v-.00313Zm5.85625,53.07812c.31876-.83438.60626-1.59375.9625-2.52812-1.84375-1.62188-3.87187-3.24375-5.8625-4.7875a6.01308,6.01308,0,0,1-.76562,1.60937,5.2101,5.2101,0,0,1-1.475.8375,5.926,5.926,0,0,0,1.66562,1.52812c1.23438,1.01876,2.49375,2.02188,3.75,3.02188.54063.44063,1.12813.75938,1.72188.31563ZM53.09225,94.67424a2.0977,2.0977,0,0,0,.08125-.59376,2.15,2.15,0,0,0-.325-1.14062l.00625.00938c-.85312-1.69063-1.69375-3.39063-2.55-5.08438-.14375-.2875-.3375-.55313-.575-.93438a2.03383,2.03383,0,0,1-2.90937,1.2,2.62573,2.62573,0,0,0,.10625.67187l-.00625-.01875q1.5,3.05625,3.025,6.11563a1.409,1.409,0,0,0,1.09375.82187h.00625A2.47888,2.47888,0,0,1,53.086,94.67424Z" style="fill: #d9c62f"/>
        <path d="M83.486,107.75861l4.44687-.95313c.50938-1.63124,2.025-2.4375,3.23125-3.53124.8125-.7375,1.7125-1.38438,2.52813-2.11875a2.79485,2.79485,0,0,1,2.46875-.84688l3.14062-4.61875a.74708.74708,0,0,0,.04063-.24062h0a5.08041,5.08041,0,0,1-.07812-.9,5.16711,5.16711,0,0,1,.93125-2.96875l-.0125.01562c.78125-1.2,1.4125-2.50313,2.075-3.775a3.9029,3.9029,0,0,1,2.29374-2.24688c.43438-1.85937.8625-3.69687,1.30313-5.60625a4.22436,4.22436,0,0,1-1.56876-2.875c-.34375-1.64375-.69375-3.29375-1.18125-4.89687a3.6479,3.6479,0,0,1,.54688-3.19688c-.68125-1.65937-1.38125-3.36562-2.07813-5.075a3.72547,3.72547,0,0,1-2.3875-1.55313l-.00938-.0125c-1.05937-1.42812-2.19374-2.80312-3.3-4.1875a4.72641,4.72641,0,0,1-1.15-2.875v-.0125c-1.07812-.56875-2.13437-1.09687-3.15937-1.67812a1.26756,1.26756,0,0,0-1.20937-.15,2.14619,2.14619,0,0,1-1.84063-.10313c-1.65312-.62187-3.28124-1.3125-4.975-1.99687V50.018c1.98749.5875,3.75,1.56562,5.69687,2.14687-.28125-1.6375-.05313-2.07812,1.41562-2.8375-.08437-.47187-.50937-.50937-.84375-.65312-2.06562-.84062-4.14063-1.65625-6.27813-2.50625V45.10862c.12813-.03438.25626-.11563.3625-.0875.6.175,1.2125.34375,1.78437.575,1.56563.625,3.11563,1.275,4.675,1.925a3.067,3.067,0,0,1,2.23126,2.625c.75312.39062,1.575.80937,2.39062,1.24375.55938.29687,1.09375.65,1.66563.91562a3.27068,3.27068,0,0,0,1.18125.32188h.0125a3.15613,3.15613,0,0,1,2.54062,1.38125l.00625.00937q1.72814,2.35,3.58438,4.60625a3.06889,3.06889,0,0,1,.6375,3.37813l2.45312,6.11562a3.94729,3.94729,0,0,1,1.99375,2.89688l.00313.02187a44.4815,44.4815,0,0,0,1.33437,5.46563l-.0875-.32188a3.1712,3.1712,0,0,1-1.05312,3.7125,22.29621,22.29621,0,0,1-.9,4.84062c-.10938.53438-.2875,1.05625-.36563,1.59688a2.14348,2.14348,0,0,0-.01875.29375,2.32788,2.32788,0,0,0,.10937.7125l-.00312-.01562A3.91218,3.91218,0,0,1,108.261,88.543a3.96562,3.96562,0,0,1-.58438,2.08125l.00938-.01875c-.90626,1.57188-1.78438,3.17187-2.62813,4.77188a3.19451,3.19451,0,0,1-2.61874,1.94062c-1.08126,1.5875-2.14063,3.16563-3.225,4.73125a2.19906,2.19906,0,0,0-.425,1.30625c0,.04063,0,.07812.00312.11875V103.468a2.88749,2.88749,0,0,1-1.21562,2.39687c-1.4,1.15938-2.825,2.29375-4.17188,3.51875a3.305,3.305,0,0,1-4.04375.74062l-5.8625,1.22188c0-.71562-.01875-1.29688-.02187-1.875s.00625-1.09687.00625-1.71875Zm20.70312-36.75937c.53125,2.22187,1.0375,4.25625,1.49375,6.3a2.2629,2.2629,0,0,0,.94687,1.57187h1.7625a1.913,1.913,0,0,0,.7-2.23125c-.4875-1.6875-.74062-3.44062-1.17187-5.14687-.1875-.74375-.28125-1.60938-1.17813-1.98438a4.694,4.694,0,0,1-.93125.51563l-.03125.0125a6.29944,6.29944,0,0,1-1.23125.12187h0Zm0,16.03437c-1.2375,2.275-2.31562,4.27812-3.4125,6.27188a2.25844,2.25844,0,0,0-.12188,1.56875c.92188-.15,1.375.5875,1.89376,1.09063a1.839,1.839,0,0,0,1.29374-1.03125l.00626-.0125c1-1.85938,2.025-3.70938,3.01875-5.575a3.12664,3.12664,0,0,0,.15-.8125v-.00938c-1.375.40625-2.24375-.05937-2.83438-1.49687Zm-6.575,16.95312c-1.89062-.50937-2.01875-.65624-2.21562-2.40937-1.99375,1.35312-3.65625,3.025-5.4875,4.48437a4.01744,4.01744,0,0,0-.5875.76563l-.00938.01875.79063,1.01875c.05312.4125.1.78125.14687,1.175a4.57286,4.57286,0,0,0,.61875.15625l.02813.00312c.04063,0,.08438.00312.13125.00312a4.99743,4.99743,0,0,0,.57812-.03437l-.02187.00312c1.99687-1.61875,4.03437-3.25312,6.01875-5.18437Zm6.08438-43.425A67.86389,67.86389,0,0,0,99.536,55.01487c-.26875-.35313-.53125-.76563-.9875-.83125a4.95769,4.95769,0,0,1-.82812,1.39375,4.697,4.697,0,0,1-1.44063.58437,31.344,31.344,0,0,0,4.80625,6.10313c.14063-1.50625,1.14375-1.82813,2.60313-1.70313Z" style="fill: #d9c62f"/>
        <path d="M66.05788,93.11174a1.57239,1.57239,0,0,0,1.52812-.15313A6.05161,6.05161,0,0,1,71.03287,88.868a12.408,12.408,0,0,1,10.625-.69688,10.05766,10.05766,0,0,1,3.625,2.24688A8.22554,8.22554,0,0,1,86.836,93.13361l1.33437.05937a4.42971,4.42971,0,0,0,.68125-2.375c0-.06875,0-.1375-.00312-.20625v.00938q.02188-2.48126.01562-4.96563v-.01875a5.65826,5.65826,0,0,1,.50626-2.34687l-.01563.03437a.849.849,0,0,1,1.15626-.57188,7.03232,7.03232,0,0,1,.29687,3.68125c-.02188.37813-.10938.75-.12813,1.125-.10313,2.11563-.12187,4.23438-.31562,6.34063a15.80515,15.80515,0,0,1-.81563,3.67812l.03438-.10937a3.387,3.387,0,0,1-5.06563,1.80624c-.94687-.55937-1.84375-1.20937-2.825-1.69062a15.568,15.568,0,0,0-3.16875-1.24688l-.1125-.025a6.30472,6.30472,0,0,0-1.375-.15,6.37227,6.37227,0,0,0-2.99062.74063l.03437-.01563c-1.35938.6625-2.65313,1.4625-3.99063,2.175a6.2388,6.2388,0,0,1-1.67812.725l-.04375.00938a3.44764,3.44764,0,0,1-3.62813-2.19687,18.07352,18.07352,0,0,1-.80625-3.45938l-.00937-.09688c-.19375-1.80312-.20313-3.63125-.29688-5.45-.06875-1.30625-.18437-2.6125-.20937-3.92188a12.68715,12.68715,0,0,1,.225-1.90312l-.01249.08125c.62812-.30625,1.0625-.125,1.23125.36875a8.32457,8.32457,0,0,1,.53125,2.28125l.00312.03437c.08438,1.69375.02813,3.39375.04375,5.09688a5.90512,5.90512,0,0,0,.62813,2.51875l-.01563-.03438Z" style="fill: #d9c62f"/>
        <path d="M74.0735,51.39924v-8.525l-.88125-.61875h-2.35l-.7375.93125h-2.5625V38.42112H70.111c.15625.20312.33125.43437.525.69062h4.11563a2.9333,2.9333,0,0,0,.57813-1.84375,48.92244,48.92244,0,0,0,.2875-7.59375,3.08663,3.08663,0,0,0-.07188-.46562l.00313.02187-1.14063-.06562V24.97112a3.08768,3.08768,0,0,0,2.64375-1.4875,4.173,4.173,0,0,1,.775.4375l-.0125-.00938a2.76445,2.76445,0,0,0,2.10938,1.07188v4.10312l-.89688.17813c-.04063.06562-.11875.13125-.11875.2-.075,4.6625-.07813,7.7625.68437,9.62812h4.10313l.59687-.7125H86.6735a17.87649,17.87649,0,0,1,.0625,4.80938H84.30163l-.76563-.91563H81.1985l-.9875.60938v8.48749a16.95813,16.95813,0,0,0-3.00312-.25937,17.42423,17.42423,0,0,0-3.25313.30312l.10938-.01562Z" style="fill: #d9c62f"/>
        <path d="M74.0735,100.368a5.99378,5.99378,0,0,1,6.17187-.01563v1.14688c0,4.24687.0375,8.49063-.05,12.74375a20.24038,20.24038,0,0,1-1.28437,6.94063l.04687-.14063a13.70727,13.70727,0,0,1-.8,1.67188l.03749-.06875a7.88023,7.88023,0,0,1-.59062.8375l.0125-.01562h-.80937a1.61874,1.61874,0,0,1-.26563-.23751h0a11.56347,11.56347,0,0,1-1.9125-4.89687,38.084,38.084,0,0,1-.56562-7.95312c.03125-3.30312.01875-6.61563.01875-10.00938Z" style="fill: #d9c62f"/>
      </g>
    </g>
  </g>
</svg>
