<svg xmlns="http://www.w3.org/2000/svg" viewBox="0 0 205.60547 154.2041">
  <title>patrol-boss-fallen-dusk</title>
  <g id="Layer_2" data-name="Layer 2">
    <g id="Layer_1-2" data-name="Layer 1">
      <path d="M102.80273,154.2041,0,0H205.60547ZM5.60547,3l97.19726,145.7959L200,3Z" style="fill: #d9c62f"/>
      <g id="Layer_1-2-2" data-name="Layer 1-2">
        <g id="Layer_1-2-2-2" data-name="Layer 1-2-2">
          <path d="M116.89222,78.71968c.01244.23334.07155.476-.12445.672-.09644-.01245-.24266-.07156-.28-.03111-.63155.6751-1.26621.3391-1.89154,0a1.20529,1.20529,0,0,0-1.288-.07467c-.33289-.10889-.21155-.70311-.7031-.54133a1.89565,1.89565,0,0,0,.77466,1.07644c.60666.48533,1.4.54133,2.01287.98.13688.16178.40444.20222.42622.46666a11.915,11.915,0,0,1-3.10487-1.46843l.04356.028a1.14152,1.14152,0,0,0-1.2631-.20222c.02178.55377.42.87111.672,1.2631s.77155.53511.88666,1.19466c-.83066-.35156-1.18843-1.15111-1.92576-1.4031l-.16177-.15867-.01867-.028.028.01867.16178.15867a.76575.76575,0,0,0,.28.74044A29.21349,29.21349,0,0,0,114.03,83.18409a.1091.1091,0,0,0,.07156.04978h0a2.4119,2.4119,0,0,0,.93021.65955l.01556.00623c.20222.29866.67821.31732.74666.74665-.21467.22089-.35467-.04978-.52889-.06222a11.06019,11.06019,0,0,0-2.61331-1.77954,4.478,4.478,0,0,1-.98621-.69377l.00311.00311a7.32519,7.32519,0,0,0-2.92442-1.62087c-.09644-.03112-.18977.04978-.24888.15244-.09645.54133.49777.82132.60666,1.49021-.65333-.54756-1.04222-1.176-1.77643-1.33154-.16489-.03423-.13689-.28934-.12444-.47289.06533-.9551-.38578-1.204-1.29733-.88666-1.00176.35156-1.6862,1.204-2.744,1.512a5.08987,5.08987,0,0,1-1.372.37644h-.06844a1.6747,1.6747,0,0,0-.74977.17733l.00933-.00311a2.80184,2.80184,0,0,1-2.47953.084c-.18978-.07156-.42622-.20222-.57866-.07778-.868.74666-1.67688-.056-2.51065-.084a1.43105,1.43105,0,0,1-.77777-.43244,5.61309,5.61309,0,0,0-2.69109-1.68.767.767,0,0,1-.34533-.14623h.00311a37.67921,37.67921,0,0,1-4.27151-3.10486,1.36139,1.36139,0,0,0-.75288-.46666l-.00934-.00311a.8969.8969,0,0,1-.71555-.60044l-.00311-.00622a.98836.98836,0,0,0-1.16354-.77432l-.05289.0121c-.35155-.48533,0-1.04532-.29866-1.50576-.67511-1.05466-1.512-1.98176-2.14043-3.09242a7.19781,7.19781,0,0,1-1.07332-2.93375,35.05775,35.05775,0,0,0-.7-5.25773,7.55993,7.55993,0,0,1-.22088-1.63331v-.01245a30.873,30.873,0,0,1,.82132-5.84883,4.05893,4.05893,0,0,1,.77777-1.62088c.48533-.69377,1.23822-1.21643,1.41866-2.10931a5.40515,5.40515,0,0,1,.68444-1.50576,29.75542,29.75542,0,0,1,3.26041-3.67731,1.8701,1.8701,0,0,1,1.25688-.74355h.00933c.40444-.06222.85244-.18355.94888-.70932a1.14324,1.14324,0,0,0-.7871-.57244c-.31422-.03733-.68444.04978-.71555-.476.53822-.62533,1.74532-.868,1.32221-2.1062l.06844-.13689c.80888-.23022,1.66754-.392,2.4702-.6471a4.34306,4.34306,0,0,1,1.54-.42933c.084.00311.18044.00622.28.00622a6.87543,6.87543,0,0,0,2.57286-.49466l-.04666.01555.29555-.03111c.90532-.16177,1.91643-.112,2.26487-1.21643a1.49486,1.49486,0,0,1,.71243.44489.5741.5741,0,0,0,.87422-.01245c.36711-.40444.65022-.24578.94266.07778.13066.14622.21777.34844.48222.40444.85243-.60666,1.44665-.09022,2.00664.65955.60667-.96133-.09955-2.296,1.10755-3.052.30489.96132-.7871,1.78576-.10267,2.65064.20222.02178.29556-.28.52889-.20222.21466.02177.10266.35155.26444.40444.40444-.40444-.22089-.93333.27688-1.30044.32356.112.32667.756.80889.42622.10888.32356-.084.62533.16177.88977.45111-.01866.868-.46355,1.4311-.21466-.23644.504-.80888.92088-.35155,1.512a1.86144,1.86144,0,0,0,1.68.49155c-.45111-.6751-.43866-.70621.33289-1.12.168-.09022.18978-.28622.28311-.43244.18977-.12133.37333-.26444.6191-.112.364.46044-.10888.76221-.224,1.13554-.23022.09022-.43866-.09644-.74666-.07778.83066.43556.10266.95511.15866,1.456.40444.13067.69377.54755,1.21643.51644l.69377-1.08265c.084-.03734.12756-.21778.29245-.06845l-.14934.43866a1.26783,1.26783,0,0,0-.30488.74044v.00311c.68132.41689,1.01421,1.15733,1.60532,1.64577a1.74841,1.74841,0,0,1,.5631.67822l.00311.00933c.33911.96132,1.19466,1.41865,1.8791,2.04087.03111.028.04044.08711.056.11511.00933.24578-.32667.34533-.24578.57244.14933.17422.37955-.084.48222.15555-.33911.82755-.33911.82755.31422,1.26932a1.51742,1.51742,0,0,0,.056,1.60532,1.52511,1.52511,0,0,0,.27689.02489,1.45366,1.45366,0,0,0,.71244-.18355l-.00622.00311c.29244.54133-.32667.37022-.45733.58488-.48533.20222-1.11377.19289-1.32222.80889a1.149,1.149,0,0,0,1.204.59421c-.17733.8711.62533,1.47777.49467,2.25865-.24578.25511-.54755-.15556-.73733.18977-.15866.44489.43866.54133.47911.84622-.08089.35777-.46044.40444-.51644.78088.672,1.01422,1.78265.57866,2.74708.63466-.18977.7-.83377.45733-1.176.72488.10889.34845.54755.21778.63155.504.04978.38888-.532.43244-.40444.8711.63155.39511,1.47154.10578,2.12176.532-.13689.55378-.56933.20222-.85555.35155l-.38266.94266c.37022.43867,1.036.46978,1.30976,1.02977a1.32645,1.32645,0,0,0,.31542,1.84917l.00005,0,.02987.02056a1.011,1.011,0,0,1,.33288.74978l-.00311.06222v-.00311c.01866.504-.14933.65955-.60666.52577-.13689-.03733-.23022-.21467-.38889-.13067a3.31425,3.31425,0,0,0-.48221,2.73153l-.00622-.02177a2.50182,2.50182,0,0,1,.056.54443,2.62948,2.62948,0,0,1-.55066,1.61465l.00311-.00622a15.50007,15.50007,0,0,0-.84621,1.50265l-.04356.09644c.28934.24889.78089-.00933.83066.60666-.88043.252-1.5742.97688-2.56975,1.07022-.29866.89288.94266.82443.84621,1.62087-.49155.224.06223.69689-.112,1.21644-.75288-.50711-1.52754-.15245-2.22753-.252-.31111.224-.00933.54755-.23022.72177-.32044.16178-.60666-.12755-.90533-.07777.59111.65955,1.36577.392,2.1.44488.01245.23333.02489.42622.03734.66577.48222.056.73421.50711,1.16977.65333.26755.34533.68754.56.896,1.07954-.532-.07155-.77466-.55688-1.21643-.588-.54133-1.01421-1.38755-.54755-2.16221-.43555.31111.9551.67822,1.06088,1.66132.44489ZM92.30844,70.11132c.78711.34533,1.45288.9551,2.44842.60666-.20222.43555-.58488.17111-.7.46355a3.01855,3.01855,0,0,0,2.58531,1.41865c.09333-.14933,0-.29244-.01245-.43866a1.56958,1.56958,0,0,1,.62533-1.37822c.42622-.37955.70933.112,1.05155.27689a3.90253,3.90253,0,0,0,3.39108.56,1.22671,1.22671,0,0,1,.49777-.10267,1.26092,1.26092,0,0,1,.79955.28622l-.00311-.00311a.61679.61679,0,0,0,.40755.15866.7201.7201,0,0,0,.14311-.01555h-.00311c.168-.24578.32355-.588.72177-.64088s.52577-.32978.59422-.67822c.056-.27377,0-.63154.43866-.71243.14933.46977-.20222.88665-.09955,1.45287.74665-.13689,1.57109.28311,2.14353-.57244a.81.81,0,0,1,.60666-.2831h0a.733.733,0,0,0,.59111-.49778c.42-.83376,1.44665-.88043,2.04709-1.49643.57866.21778.77466-.12133.88666-.60666a1.6367,1.6367,0,0,1,.308-.60977l-.00311.00311a8.04241,8.04241,0,0,0,1.8791-4.60751c.01555-.59733.34533-.91777,1.01421-.78711a1.18575,1.18575,0,0,0-.54133-.8711l-.00622-.00311c-.01244-.25822.31733-.32666.20222-.58488-.32978-.10889-.80888.30177-1.02355-.26445a.45455.45455,0,0,1,.42311-.29866h0c.76844-.12444.78088-.17733.60666-.90221a32.9922,32.9922,0,0,0-1.97554-4.74751,7.78042,7.78042,0,0,1-.80888-2.24621,1.76106,1.76106,0,0,0-2.78131-1.36887c-.26444.18355-.54133.27688-.74666,0-.056-.37022.30178-.51955.28-.85555a7.91822,7.91822,0,0,0-1.288-1.10754,16.15708,16.15708,0,0,0-4.41773-1.67065l-.10889-.01867a12.43188,12.43188,0,0,0-7.81193.70311A10.24385,10.24385,0,0,0,88.684,53.59147a18.5423,18.5423,0,0,0-.588,8.851,1.10394,1.10394,0,0,0,.20533.48221l-.00311-.00311a4.87,4.87,0,0,0,1.932,1.84487c.07778.89289-.70933,1.19155-1.176,1.8231,1.07954,1.21643,2.75953,1.7671,3.56219,3.28219-.01245.11822-.26444.00934-.31111.24266Z" style="fill: #d9c62f"/>
          <path d="M115.81889,28.82726a9.26564,9.26564,0,0,0,3.64619-.364c.60666-.03733,1.10132-.43866,1.70176-.48533a.40151.40151,0,0,0,.056.14h0a.84269.84269,0,0,1-.89288.93332,5.70789,5.70789,0,0,0-.8991.19911l.04044-.00933c-1.24132.20222-2.40175.68444-3.61819.97688a.3386.3386,0,0,0-.21466.18356c-.01867.48844-.40444.41688-.70622.49777-.79643-.14311-.93955.43244-1.08888.99555l-.01555.01555a1.01913,1.01913,0,0,0-.47289.21778h.00311a2.02337,2.02337,0,0,1-1.87909.29866,7.35486,7.35486,0,0,0-2.67864-.49466,7.61208,7.61208,0,0,0-1.00488.06533l.03733-.00311c-3.17953.40444-6.37461.60666-9.5728.80888a5.264,5.264,0,0,0-1.71732.20222h-.45421a1.90664,1.90664,0,0,0-.364-.03422,2.01037,2.01037,0,0,0-.68755.12133l.01556-.00311a19.89365,19.89365,0,0,1-3.12664.49778,16.63045,16.63045,0,0,0-2.97731.4511,4.43377,4.43377,0,0,1-2.52309.23956.75671.75671,0,0,0-.22711-.03423.82534.82534,0,0,0-.43244.12445L85.769,34.365c-.68755.02177-1.33155-.27689-2.06887-.20222.20222-.50711.8431-.46667.93021-.96755.17111-.12444.40444-.20222.308-.50088a.5241.5241,0,0,0-.39511-.17734.5479.5479,0,0,0-.14311.01867h.00311c-.24578-.15555-.392-.33288-.14933-.60666.18977-.10267.28622-.23644.15866-.45111l.14-.31111c.24578-.04977.57244-.084.54444-.40444-.06533-.70621.40444-.80888.91155-.94577.46666-.12444.9551-.29866,1.06088-.85243s.5351-.78711.99554-1.01422a10.13523,10.13523,0,0,1,3.7613-.71243c1.41866-.14622,2.856-.25822,4.284-.38578l.16489.06845c.03111.09333.05911.07155.08089,0l.03733-.02489a19.27257,19.27257,0,0,1,4.76-.76222,2.43281,2.43281,0,0,0,1.46843-.54133l-.00311.00311a.78583.78583,0,0,1,1.19465.028.95765.95765,0,0,0,.30489.19911l.00622.00311a31.99983,31.99983,0,0,0,5.75239,2.28043c1.02666.21777,2.06265.38577,3.09864.57866l.60666.03111a.55131.55131,0,0,0,.32355.10578.53826.53826,0,0,0,.27378-.07467h-.00311l1.39065.07778c.07155.14.16178.12444.25822.00933Z" style="fill: #d9c62f"/>
          <path d="M101.08169,110.47451c.01556-.56-.60666-.69377-.77466-1.14177.43867-.50089.69067.252,1.11377.12755a3.741,3.741,0,0,0,.01867-.38888,4.26646,4.26646,0,0,0-.18044-1.2351l.00622.03111c-.10578-.42933-.04978-.74977.40444-.90844a.38206.38206,0,0,0,.20222-.11822h0c.80888-1.344,2.06576-.84621,3.192-.728a5.87392,5.87392,0,0,0,2.83731-.21777.78088.78088,0,0,1,1.14176.49777c.15556.35466.28622.71244.80889.78088-.33911,1.49643.63777,2.4982,1.22887,3.59952-.17733.34844-.42.27377-.67821.23644-.64089-.09333-.74666,0-.76222.672a3.7398,3.7398,0,0,1-.14311,1.58042,4.2963,4.2963,0,0,1-2.19642.97688,1.1224,1.1224,0,0,0-1.7111-.16488c-.34222-.00934-.43866-.33911-.7031-.37022l-.43244-.22711a.87725.87725,0,0,0-.13067-.25822l.00311.00311a7.9145,7.9145,0,0,0-3.332-1.7982l-.056-.01245c-.13688-.10267-.29555-.18355-.30488-.35466.05289-.29244.42622-.28933.44488-.58488Z" style="fill: #d9c62f"/>
          <path d="M122.00372,55.875c.66889-1.41866,1.19466-1.4871,2.10621-.28.112.35777-.60666.63155-.06223.98a2.13841,2.13841,0,0,1-2.4142.88666c.07467-.77155.80889-.48533,1.27866-.79644-.29244-.29244-.85866-.28311-.90533-.7871Z" style="fill: #d9c62f"/>
          <path d="M119.34375,41.6698a.38872.38872,0,0,1,.32666-.17111.41152.41152,0,0,1,.16489.03422h-.00311c.14622.30489-.14311.40445-.22089.58178a2.80683,2.80683,0,0,0-.73421,1.02977,1.76031,1.76031,0,0,1-1.05466.924l-.01244.00311c-.65644-.46044-.59422-1.4031-1.28177-1.93509a1.30538,1.30538,0,0,1,1.18843.00622l-.00622-.00311a1.13211,1.13211,0,0,0,1.63332-.46355Z" style="fill: #d9c62f"/>
          <path d="M122.06906,62.47672c-.34533-.18666-.77466-.22711-1.036-.62843.29244-.868,1.04532-.51645,1.62087-.60666.16489.10266.36089.17111.42311.40444a.88949.88949,0,0,1-.93868.83734Z" style="fill: #d9c62f"/>
          <path d="M124.5237,58.731c-.52577.61911-1.1231.69066-2.10931.29244-.15245-.62533.38577-.66577.74043-.80888a1.01852,1.01852,0,0,1,1.35557.487Z" style="fill: #d9c62f"/>
          <path d="M119.09486,47.02087c.35156-.22711.644-.21778.80889.21466,1.0671-.2831,1.21643-.21155,1.11376.504-.45422.392-1.13243.45111-1.45287,1.10754-.37644-.57866.60666-.7871.07777-1.344-.18355-.03733-.63466.04978-.54755-.4791Z" style="fill: #d9c62f"/>
          <path d="M121.13884,48.21863c.37955-.21466.66577-.15866.82755.27689s-.10889.60666-.40444.78088a1.54213,1.54213,0,0,1-.65022.17734h-.00311c-.15555-.14934-.38888-.23645-.37333-.51333.10267-.32044.46044-.42622.60666-.72178Z" style="fill: #d9c62f"/>
          <path d="M119.43086,51.66571c.21467.41378.60666.308.84932.53822a.92986.92986,0,0,1-1.10132.26444,1.64833,1.64833,0,0,0-1.036-.23333h.00622C118.398,51.563,119.16953,52.37815,119.43086,51.66571Z" style="fill: #d9c62f"/>
          <path d="M118.78687,54.18569c-.25822.09333-.32356.37333-.49155.54444-.76844-.33289-.79644-.51333-.18356-1.07955.28933,0,.59422-.06533.83066.15244.08089.19289-.04978.28-.15555.38578Z" style="fill: #d9c62f"/>
          <path d="M121.90106,52.48082a.60528.60528,0,0,1,.7.24577v.00312a1.23731,1.23731,0,0,1-.14622.26133l.00311-.00312c-.19288.20222-.4231.40445-.7.17111-.33911-.2831.03111-.46044.14311-.6751Z" style="fill: #d9c62f"/>
          <path d="M121.41262,51.48527c-.11511-.09333-.27689-.14311-.29555-.35778.112-.24577.30488-.47288.60666-.27688.28.17422.07466.392-.06534.57555Z" style="fill: #d9c62f"/>
          <path d="M118.69042,44.07467l-.31733.76222c-.14933,0-.25822.16488-.47911.06533a1.14506,1.14506,0,0,1,.78711-.82755l.00933-.00311Z" style="fill: #d9c62f"/>
          <path d="M114.60246,43.31557c-.252.06844-.32355.448-.71244.37955.10267-.392.27689-.66266.71244-.67822Z" style="fill: #d9c62f"/>
          <path d="M115.2309,44.09334c-.11822-.24578.07777-.41378.14933-.60666.14933-.06533.32977-.11511.27066.13378a.57616.57616,0,0,1-.41377.47288Z" style="fill: #d9c62f"/>
          <path d="M120.84329,51.70927l.17422-.04978c.18044.25822.14.40444-.17733.42933C120.71574,51.93326,120.84951,51.82438,120.84329,51.70927Z" style="fill: #d9c62f"/>
          <path d="M96.34974,26.89838c-.02178.07778-.04978.09645-.08089,0A.06034.06034,0,0,1,96.34974,26.89838Z" style="fill: #d9c62f"/>
          <path d="M121.226,28.11482a.34037.34037,0,0,1-.056-.13378v-.00311a1.10855,1.10855,0,0,1,.09023.08089h0l-.03111.056Z" style="fill: #d9c62f"/>
          <path d="M90.33913,21.57221a8.32123,8.32123,0,0,1-.99555-2.50442.78317.78317,0,0,1,.112-.64088.7664.7664,0,0,0-.07778-1.16044,2.83961,2.83961,0,0,0,.73111-1.30354l.00311-.01867a1.301,1.301,0,0,1,1.14488-1.064h.00622a14.28564,14.28564,0,0,1,2.00354-.18977h.01866a54.76159,54.76159,0,0,0,5.67151.03733c.03733-.00311.084-.00311.12755-.00311a3.30305,3.30305,0,0,1,1.16666.21155l-.02178-.00622a11.97669,11.97669,0,0,0,3.60885.36711,8.47292,8.47292,0,0,0,1.77332,1.11688c.33289.12755.62222.33288.49155.71866-.14622.42622-.21777,1.07643-.76844,1.08265-.85554,0-1.21643.60666-1.67065,1.10755a.43244.43244,0,0,0-.30177.41066v.02489h0c-.27067.24889-.44489.644-.90222.61911a1.57272,1.57272,0,0,0-1.21643-.28933,36.04877,36.04877,0,0,0-7.46038,1.176,9.04326,9.04326,0,0,1-3.48752.31422l.04044.00311Z" style="fill: #d9c62f"/>
          <path d="M110.97805,80.52411l-.028-.01867.01866.028Z" style="fill: #d9c62f"/>
          <path d="M111.13982,80.68589l-.16177-.15867v.00934l.16177.15866Z" style="fill: #d9c62f"/>
          <path d="M85.69739,88.81515c.20222-.32355.40444-.65955.63155-1.01421-.35777-.30178-.85555-.18667-1.24443-.35156,0-.52266.448-.588.84621-.80888-.56-.31733-.532-.69377-.24577-1.06088-.18667-.27066-.55378-.27377-.63155-.65332.31733-.60666.94577-.33911,1.46221-.43555.21777-.15245-.14311-.37645.04977-.47289a24.05425,24.05425,0,0,1,8.711.38889c3.13286.38888,6.26572.756,9.4328.86177,2.83731.09644,5.64972.392,8.47459.60666.64088.04978.84.32977.65955.96132a4.00718,4.00718,0,0,0-.01867,1.26932,2.62351,2.62351,0,0,0-1.848.91155,1.62386,1.62386,0,0,1-.83066.34533c-.20222.04978-.45422.04978-.54755.224-.37333.67821-.99244.56933-1.596.56-.784-.01555-1.568,0-2.352-.01867l-.13067-.00311a4.58691,4.58691,0,0,0-2.34576.64088l.02178-.01244a1.3432,1.3432,0,0,1-1.3751.09334l.00623.00311a5.118,5.118,0,0,0-1.316-.35778,1.16554,1.16554,0,0,0-1.18221.41689,2.17934,2.17934,0,0,1-2.25554.86488c-.58177-.16489-1.24443-.07778-1.86665-.20222l-.07155-.00623a.42218.42218,0,0,0-.21778.05911h.00311a4.71215,4.71215,0,0,1-4.2124.20222c-1.16666-.364-2.00665-1.37821-3.27286-1.44354a.35377.35377,0,0,1-.31422-.28622V90.0938a.75755.75755,0,0,0-1.02355-.52577c-.71555.18355-1.092-.14623-1.39376-.75289Z" style="fill: #d9c62f"/>
          <path d="M95.70886,97.05018a1.29235,1.29235,0,0,0,.72177-1.07643c.27377-.23022.56-.112.82754-.10889.45422,0,.924.07777,1.148-.48533.07156-.18045.26445-.20222.44489-.24266a2.25141,2.25141,0,0,0,1.13243-.54755l-.00311.0031a1.57891,1.57891,0,0,1,1.36266-.2271c.12133.02177.27377.15555.34533.11511.74043-.40444,1.26932.084,1.91642.32044a7.22149,7.22149,0,0,0,3.00531.084c.63777.26756.99243.868,1.46843,1.32843a6.326,6.326,0,0,0,1.58354,1.07644l.03733.01555a7.9699,7.9699,0,0,1,2.21509,2.02532.4169.4169,0,0,1,.10889.28311l-.00622.06844v-.00311c-.35777.72177.16178,1.0951.60666,1.44976a1.29956,1.29956,0,0,1,.40444,1.56488c-.20222.57555-.76844.60666-1.27554.63155h-.02178a4.88281,4.88281,0,0,1-1.58976-.26444l.03422.00933a20.48456,20.48456,0,0,0-4.48929-.756l-.056-.00311a7.09553,7.09553,0,0,1-.85866-.15244l.04978.00933a2.73364,2.73364,0,0,0-1.85421.07778,7.47115,7.47115,0,0,1-4.10041.14,20.941,20.941,0,0,1-2.3862-.38267l.14.02489a1.45723,1.45723,0,0,1-1.32532-1.47776c-.028-.59422-.308-1.17288-.06533-1.78888.10889-.27066.06222-.60666.34844-.80888.31733-.224.04978-.56.12444-.90222Z" style="fill: #d9c62f"/>
          <path d="M109.77717,82.88232c.20222.04978.224.23021.34844.34533-.20221.15866-.24577,0-.30488-.09022S109.68384,82.985,109.77717,82.88232Z" style="fill: #d9c62f"/>
          <path d="M109.41317,82.55565c-.10888-.04356-.20222-.09334-.15244-.24266.16178-.04356.18667.07155.21778.18044Z" style="fill: #d9c62f"/>
          <path d="M109.4754,82.49343l.07466.08711c-.05911.08711-.09644.02489-.13688-.02489Z" style="fill: #d9c62f"/>
          <path d="M98.76394,36.65474a.23858.23858,0,0,1-.084-.18355.25017.25017,0,0,1,.056-.15556h0c.17733.15867.17733.15867.03111.33911Z" style="fill: #d9c62f"/>
          <path d="M120.1993,60.17141a.2743.2743,0,0,1-.27067.23333H119.882a.243.243,0,0,1-.24267-.24266.21431.21431,0,0,1,.00933-.06222V60.103a.28024.28024,0,0,1,.27378-.23644l.06222.00622h-.00311c.13067.01866.23022.09955.21155.29866Z" style="fill: #d9c62f"/>
          <path d="M113.498,61.41585c-.21778.7871-.35778.85554-1.17288.65021A1.10753,1.10753,0,0,1,113.498,61.41585Z" style="fill: #d9c62f"/>
          <path d="M103.90345,70.26065a.39391.39391,0,0,1,.37644.38266h0l.00622.05289a.27751.27751,0,0,1-.27689.27689l-.04666-.00311h-.00934a.3784.3784,0,0,1-.37955-.37644h0a.30411.30411,0,0,1,.33289-.33289Z" style="fill: #d9c62f"/>
          <path d="M112.20692,58.18032c-.49155-.35155-.40444-.60666.12445-.79955C112.87892,57.73855,112.49626,57.95321,112.20692,58.18032Z" style="fill: #d9c62f"/>
          <path d="M113.46692,57.87854v.02178a.25043.25043,0,0,1-.20222.24578h0a.23344.23344,0,0,1-.08089.01555.20713.20713,0,0,1-.20222-.17422h0c-.02489-.15866.02489-.30488.21466-.32044h.00623a.2736.2736,0,0,1,.26444.20845Z" style="fill: #d9c62f"/>
          <path d="M104.71233,51.72793l.04355-.00311a.36111.36111,0,0,1,.36089.36089h0c.028.37644-.24578.532-.56622.588-.23644.04044-.37644-.11822-.40444-.34222A.70019.70019,0,0,1,104.71233,51.72793Z" style="fill: #d9c62f"/>
          <path d="M109.97939,56.73989c-.15244-.38578.10578-.56311.34844-.76844.34222.06222.588.252.44489.60666-.16178.37955-.48844.364-.79333.15867Z" style="fill: #d9c62f"/>
          <path d="M104.88655,54.81724c.364-.22711.63155-.29866.84.056a.32627.32627,0,0,1,.07156.20222.32272.32272,0,0,1-.21778.30488h-.00311C105.13233,55.52968,105.039,55.18124,104.88655,54.81724Z" style="fill: #d9c62f"/>
          <path d="M103.2719,53.68169c-.13689-.48533,0-.65955.35777-.71554C104.00611,53.439,103.70123,53.5417,103.2719,53.68169Z" style="fill: #d9c62f"/>
          <path d="M105.16655,54.18569a.20181.20181,0,0,1-.20222-.20141h0v-.00081h0l-.00312-.02178a.12486.12486,0,0,1,.12445-.12444h.02489a.16732.16732,0,0,1,.168.16663h0v.01381h0c.00311.06222-.07156.11511-.10889.168Z" style="fill: #d9c62f"/>
        </g>
      </g>
    </g>
  </g>
</svg>
