<svg xmlns="http://www.w3.org/2000/svg" viewBox="0 0 205.60547 154.20459">
  <title>patrol-boss-vex</title>
  <g id="Layer_2" data-name="Layer 2">
    <g id="Layer_1-2" data-name="Layer 1">
      <path d="M102.80273,154.20459,0,0H205.60547ZM5.60547,3l97.19726,145.79639L200,3Z" style="fill: #d9c62f"/>
      <g id="Layer_1-2-2" data-name="Layer 1-2">
        <path d="M147.48326,55.40644q-6.16737,1.58586-7.22463,1.93838-7.22466,1.76211-13.392,3.52423a17.29219,17.29219,0,0,1-3.70043.52861q-.70486-.17619-.88106.17622-.70486.35245-4.22907,2.64318,1.05726.17619,2.29076,2.1145a1.19852,1.19852,0,0,1-.17622,1.58592,19.73431,19.73431,0,0,0-2.11454,2.467.892.892,0,0,1-1.05725.35241h-1.93837a3.64808,3.64808,0,0,0-.26429,1.14538,1.8814,1.8814,0,0,1-.44054,1.14535q-1.4097.88107-2.11454.52864l-.35242.88106q-1.05724,3.52424-1.58589,5.11a3.15834,3.15834,0,0,1-1.05728,1.58593,3.77977,3.77977,0,0,0-.881.70483l-.70487.70483a9.572,9.572,0,0,0-2.64314,3.348,2.68318,2.68318,0,0,1-1.93837,1.58589,3.07514,3.07514,0,0,1-2.64315-.52861,7.00329,7.00329,0,0,1-.88105-1.05728,8.22666,8.22666,0,0,0-2.64318-3.5242,9.60817,9.60817,0,0,0-.79293-.70486,4.40759,4.40759,0,0,0-.61662-.44052.997.997,0,0,1-.35241-.35241,2.62592,2.62592,0,0,0-.26432-.35242,2.03911,2.03911,0,0,1-.26432-.44054,1.35234,1.35234,0,0,1-.17623-.52864,3.96786,3.96786,0,0,0-.17619-.79294q-.17624-.61661-.35242-1.14537t-.52864-1.674a12.083,12.083,0,0,0-.52864-1.49779l-.35248-.8811a2.23611,2.23611,0,0,1-2.11454-.52864,1.88122,1.88122,0,0,1-.44051-1.14535q-.08815-.793-.08813-.96919-.35238,0-2.11453-.17619a1.69061,1.69061,0,0,1-1.23348-.52864,13.22815,13.22815,0,0,1-.96915-1.14538,13.21476,13.21476,0,0,0-.96916-1.14535,1.75337,1.75337,0,0,1,0-2.11453q.17624,0,.52864-.52864.88107-1.05724,1.5859-1.05725-3.52424-2.29064-4.22913-2.81916h-.881q-3.1716-.52862-3.348-.52861-3.70043-.88121-20.44045-5.2865l-.52864-.1762a2.84611,2.84611,0,0,1,.17632-1.76217q6.5197-9.86772,6.5197-10.044A42.87118,42.87118,0,0,1,72.065,34.78978a51.16929,51.16929,0,0,1,7.04834-4.4053.15568.15568,0,0,0,.17644-.17619,51.19362,51.19362,0,0,1,15.154-4.75771,43.262,43.262,0,0,1,7.7533-.70483,49.9381,49.9381,0,0,1,8.63433.88106,69.14254,69.14254,0,0,1,9.69158,2.467,26.56348,26.56348,0,0,1,4.22907,1.93837A35.5384,35.5384,0,0,1,136.20576,38.314a49.98479,49.98479,0,0,1,6.87225,8.81055q2.64312,4.05288,4.05284,6.5198A2.41923,2.41923,0,0,1,147.48326,55.40644ZM102.28518,72.6751a4.13215,4.13215,0,0,0,2.90747-1.14538,3.69623,3.69623,0,0,0,1.23347-2.81937,3.91174,3.91174,0,0,0-3.858-3.96474q-.05335-.00073-.10671,0A4.13236,4.13236,0,0,0,99.55391,65.891a3.69627,3.69627,0,0,0-1.23348,2.81936,3.91182,3.91182,0,0,0,3.85816,3.96475Q102.23189,72.67584,102.28518,72.6751Z" style="fill: #d9c62f"/>
      </g>
    </g>
  </g>
</svg>
