<svg xmlns="http://www.w3.org/2000/svg" viewBox="0 0 275.59515 226.67165">
  <title>map_region-chest</title>
  <g id="Layer_2" data-name="Layer 2">
    <g id="Layer_1-2" data-name="Layer 1">
      <g>
        <path d="M93.49179,226.10161c-.63382-8.43013-1.01411-13.62768-1.33115-19.01524-2.53526-36.95286-13.50092-47.22119-51.34111-47.91852H.63381C0,149.02628.82409,140.34289,0,128.48989c24.086,0,44.36916-2.09145,65.8564.507,31.69207,3.92992,48.86937,23.51572,55.33456,54.95426a87.71668,87.71668,0,0,1,1.83469,15.44865l.00377.144c.317,8.1766,1.64818,16.41647,1.64818,26.558Z" style="fill: #fff"/>
        <path d="M153.64359.897h29.47359c.63381,10.52186.82381,19.77609,1.90144,28.9668,2.8523,24.8466,13.50092,35.812,38.601,37.58694,16.67,1.26763,31.69207,0,51.08786,0,.63381,10.77538-.4438,19.64905,0,30.995-24.086,0-42.9745,2.155-64.39849-.50705-32.0091-3.92992-50.70757-23.32544-56.47542-55.39779-.591-6.59383-.928-14.26365-.928-22.01206q0-10.36349.79395-20.52886l-.056.89757Z" style="fill: #fff"/>
        <path d="M.31678,101.42455v-33.467c15.97293,0,30.55119.317,45.06621,0,33.8473-.82382,44.36916-10.77538,48.23556-45.89031.69706-6.33841-.38028-11.66272,0-20.28286C103.18982.897,114.85227,1.46732,124.6768.897a120.04935,120.04935,0,0,1,1.03,15.93929A123.90627,123.90627,0,0,1,120.78213,51.529l.21855-.87524c-6.33841,24.71984-21.99431,41.58011-47.22119,45.44651-23.579,3.61288-47.665,3.61288-73.46244,5.32431Z" style="fill: #fff"/>
        <path d="M275.59485,159.35761H231.923c-34.03757.82382-44.68594,11.15567-47.22119,45.31974-.4438,6.33842-.69707,12.67683-1.20438,21.42373-9.06394.76058-21.17048,0-29.7271.57057-.82381-68.07462,16.54324-98.24551,76.44151-99.32314h45.38327Z" style="fill: #fff"/>
        <path d="M139.7624,146.68077c-.87954.08828-1.90091.13887-2.93412.13887A31.05865,31.05865,0,0,1,105.79,116.88046l-.00162-.05383a30.72066,30.72066,0,0,1-.31247-4.4402,31.69213,31.69213,0,0,1,31.22053-31.68856l.02369-.00027c.834-.07886,1.80321-.1238,2.78313-.1238A31.31174,31.31174,0,0,1,170.815,111.88557q0,1.002-.06217,1.98865l.0043-.08989c.03473.54957.05437,1.19146.05437,1.8382a31.05838,31.05838,0,0,1-31.04882,31.05826h-.00054Z" style="fill: #fff"/>
      </g>
    </g>
  </g>
</svg>
