<svg xmlns="http://www.w3.org/2000/svg" viewBox="0 0 427.15 359"><g id="Layer_2" data-name="Layer 2"><g id="Layer_1-2" data-name="Layer 1"><path d="M418.92,296.33c-11.61-1.39-22.49-4.32-33.09-3.52-11.3.86-19.61-6.3-30.07-7.69-9.57-1.28-18.29-8.21-27.66-12C317.9,269,312.58,256,300,257.52l-35.35,30.92c.1,11.2,10.51,25.28,8.92,27.66a72.21,72.21,0,0,1,33,37c-8.58,1.65-8.58,1.65-17.35-6.43-7.88.05-15-.59-22.41-7.28-7-6.33-18.33-7.84-27.76-11.47l-20.89-8c-17.22,12.1-33.7,28-56.9,33.62A110.85,110.85,0,0,1,146,356c-10.22,1.06-20.47,1.89-32.48,3,1-2.23,1.52-5.54,3.45-7.48,3-3,10.26-5.53,10-7.58-2-17.3,14.19-14.49,21.33-21.46,3.91-5,1.4-13.46,11.59-16.19,4.41-1.18,6.6-10.65,10.14-17L132.5,257.08C109,274.94,81.76,284.8,53.8,294L50.73,291C37.81,293.83,3.16,294,0,290.77l100.28-76.06C86.57,198.54,85.66,178.22,76,161.53c3.16-12.47-2-24.73-5.68-35.2-4.95-14-2.5-27.14-3.45-40.59-.33-4.59,4.65-12.53,3.23-13.58-8-5.93,3.92-8.25,1.59-13.55-1.94-4.42-.39-10.38,2.67-16.13.91,5.88,1.81,11.75,2.78,18.06C78.69,59.42,85.56,13.19,88,8.43c.83,2.64,2,4.61,2,6.58-.09,21.08,5.12,41.28,8.94,61.81,1.72,9.3,15.25,12.66,10.17,24,12.28,18.11,14.08,42.2,32.44,56.93,1.34,1.08,1.18,4,2.08,7.52,18.76-10.33,30.13-26.42,39.91-43.11s26.82-87.24,35.82-105.33C221.56,30,231.84,88,243,103.39c1.81,2.49,5.65,4.17,6.26,6.76,5.6,23.8,24.57,37.42,40.27,54,6.06-11,12.46-21.57,17.93-32.63,8.63-17.48,17.8-34.84,24.52-53.07C336.21,66.84,336.47,65.36,339,53c2.86-14,6.07-39.57,12-53,2.1,10.05,5.07,20,6.06,30.16,1.05,10.83-.3,21.88.35,32.77,1.14,18.9,5.63,38,4,56.59-2.87,32.72-9,65.2-27.1,93.72,22.2,13.07,38.77,34.49,64.3,47,5,10.27,28.58,26.57,28.58,29.63L413.27,284C415.73,289.35,417,292.14,418.92,296.33ZM219.05,178.8l-30.56,35.84V217l30.37,31.61c9.52-11.55,24.33-19.87,29.18-35.42Z"/></g></g></svg>