<svg xmlns="http://www.w3.org/2000/svg" viewBox="0 0 191.61055 254.26854">
  <title>map_vendor</title>
  <g id="Layer_2" data-name="Layer 2">
    <g id="Layer_1-2" data-name="Layer 1">
      <g>
        <path d="M191.25609,10.91937V0H0V180.57572c0,10.851,5.05006,18.28966,12.45479,24.9093,23.0668,20.67824,50.19406,34.7368,78.10611,47.56676a11.651,11.651,0,0,0,11.1624-.43411l-.05275.02934-.05383.0296c27.29788-12.45478,53.84514-26.58118,76.77524-46.50878a36.05914,36.05914,0,0,0,13.21859-27.92092v-.018q0-.97588-.05114-1.93939l.00376.08962c-.47772-55.14185-.20481-110.31787-.30708-165.45945Zm-17.23167,185.7625c-21.53111,19.96152-47.12323,33.33756-73.39732,45.68981a11.5854,11.5854,0,0,1-4.93379,1.08489h-.05922a11.831,11.831,0,0,1-6.333-1.82582l.049.0288.0506.02934c-24.568-11.73809-48.86345-24.36351-69.405-42.75542-5.05006-4.50426-9.75913-9.00824-9.75913-16.993.23873-56.77953,0-113.59352,0-171.46493H180.84861V182.03284a19.09278,19.09278,0,0,1-6.76849,14.60222l-.02773.02288-.02825.02314Z" style="fill: #fff"/>
        <path d="M180.84889,10.47583H10.23683V181.94077c0,7.98444,4.57234,12.4887,9.62267,17.06131C40.33291,217.394,64.52578,230.01942,89.1961,241.7575a11.96987,11.96987,0,0,0,11.3726.62064l-.07267.03094-.07347.03069c26.27409-12.35225,51.86592-25.72829,73.39731-45.68981a19.14281,19.14281,0,0,0,7.13155-14.68349v-.02315c-.10227-56.8479-.10227-113.6277-.10227-171.56749Z" style="fill: #45643a"/>
        <path d="M96.25177,185.99234c-19.3495-11.7187-38.43579-23.2778-57.78476-34.99623.23334-4.08709.02368-8.21455.79072-12.15175A14.96544,14.96544,0,0,1,54.11079,126.596q41.86916-.13483,83.73912.01291a15.58039,15.58039,0,0,1,15.26833,15.2721c.09743,2.97557.01561,5.957.01561,9.25664Z" style="fill: #fff"/>
        <path d="M95.85345,116.04562a35.54073,35.54073,0,0,1,.13377-71.07656c19.44127.021,35.13914,16.03833,35.06056,35.77351a35.26675,35.26675,0,0,1-35.19406,35.30305Z" style="fill: #fff"/>
      </g>
    </g>
  </g>
</svg>
