<svg xmlns="http://www.w3.org/2000/svg" viewBox="0 0 369.54991 351.01082">
  <title>shadowkeep</title>
  <g id="Layer_2" data-name="Layer 2">
    <g id="Layer_1-2" data-name="Layer 1">
      <g>
        <path d="M226.2508,175.23734a41.23143,41.23143,0,1,1-41.23143-41.23144,41.23143,41.23143,0,0,1,41.23143,41.23144Z"/>
        <path d="M366.32881,38.52445a96.19111,96.19111,0,0,1,2.66172,22.75744,98.60649,98.60649,0,0,1-4.27622,28.81546l.1834-.6986a47.208,47.208,0,0,1-18.98235,26.83314l-.16248.10454q-42.21691,27.8303-84.55934,55.47a37.64955,37.64955,0,0,1-4.11479,1.97341l-.27046.098c0-16.9942-.47886-33.25622.192-49.47094.36266-8.76464,5.11981-16.22739,11.82262-21.95326a163.18887,163.18887,0,0,1,16.43375-12.64633l.58479-.3709C310.97124,73.12439,336.26288,57.06119,361.5151,40.938c1.37491-.87787,2.92773-1.47774,4.814-2.4132Z"/>
        <path d="M256.79149,175.49923c3.9924,2.48278,6.56158,4.03731,9.08823,5.65834,25.45927,16.33538,50.69639,33.03033,76.43843,48.90671,18.35062,11.31771,25.9292,28.0692,26.96989,48.532.52924,10.40246.09256,20.85394.09256,32.69748-3.45973-1.72009-5.2919-2.44953-6.93828-3.47686q-37.1952-23.20545-74.33614-46.49761c-3.1656-1.98609-6.13651-4.27965-9.27711-6.30826-15.61483-10.08711-23.13895-24.12993-22.14968-42.958.605-11.51479.11175-23.08754.11175-36.55415Z"/>
        <path d="M48.2794,3.22147A96.19,96.19,0,0,1,71.03683.55975,98.60566,98.60566,0,0,1,99.85228,4.836l-.69859-.18339a47.20814,47.20814,0,0,1,26.83314,18.98235l.10454.16248q27.83028,42.21693,55.47,84.55934a37.6286,37.6286,0,0,1,1.97342,4.11512l.098.27046c-16.9942,0-33.25622.47887-49.47093-.192-8.76464-.36267-16.22739-5.11983-21.95326-11.82262A163.14485,163.14485,0,0,1,99.5623,84.29367l-.3709-.58479C82.87934,58.579,66.81614,33.28741,50.693,8.0352c-.87787-1.37491-1.47774-2.92772-2.41319-4.81406Z"/>
        <path d="M185.019,112.75845c2.48278-3.99241,4.03731-6.56157,5.65834-9.08824,16.33536-25.45925,33.03033-50.69638,48.90671-76.43843,11.31768-18.3506,28.0692-25.92921,48.53239-26.9699C298.51894-.26738,308.97009.16932,320.814.16932c-1.72009,3.45972-2.44953,5.2919-3.47686,6.93829q-23.2055,37.19516-46.49761,74.33614c-1.9861,3.16561-4.27966,6.13653-6.30826,9.27711-10.08711,15.61484-24.12994,23.13895-42.958,22.14968-11.5148-.605-23.08755-.11175-36.55414-.11175Z"/>
        <path d="M321.05527,347.7201a96.19,96.19,0,0,1-22.75743,2.66172,98.60566,98.60566,0,0,1-28.81545-4.27622l.6986.18338a47.2081,47.2081,0,0,1-26.83314-18.98236l-.10455-.16248q-27.83028-42.21691-55.47-84.55933a37.624,37.624,0,0,1-1.97342-4.11479l-.098-.27046c16.99422,0,33.25623-.47886,49.47093.192,8.76466.36266,16.22741,5.11981,21.95326,11.82261a163.19161,163.19161,0,0,1,12.64633,16.43376l.37089.58479c16.31205,25.12983,32.37526,50.42147,48.49845,75.67367.87786,1.3749,1.47774,2.92772,2.4132,4.81406Z"/>
        <path d="M184.52233,238.25237c-2.48278,3.99239-4.03731,6.56191-5.65834,9.08823-16.33537,25.45926-33.03033,50.69638-48.90671,76.43843-11.31769,18.3506-28.0692,25.92921-48.532,26.96991-10.40247.52926-20.854.09256-32.69748.09256,1.72009-3.45973,2.44953-5.2919,3.47686-6.93831Q75.41007,306.708,98.70224,269.56706c1.98609-3.16561,4.27965-6.13651,6.30826-9.27712,10.08711-15.61483,24.12993-23.13894,42.958-22.14967,11.5148.605,23.08753.11174,36.55414.11174Z"/>
        <path d="M3.27015,311.64344A96.19007,96.19007,0,0,1,.60843,288.886a98.60531,98.60531,0,0,1,4.27623-28.81544l-.18339.6986A47.20813,47.20813,0,0,1,23.68362,233.936l.16248-.10455q42.21693-27.83028,84.55933-55.47a37.62949,37.62949,0,0,1,4.11512-1.97342l.27046-.098c0,16.99422.47887,33.25622-.192,49.47093-.36267,8.76465-5.11982,16.2274-11.82261,21.95326a163.13913,163.13913,0,0,1-16.43376,12.64633l-.58478.37089c-25.12984,16.31205-50.42147,32.37526-75.67369,48.49845-1.37525.87786-2.92771,1.47774-4.8144,2.41319Z"/>
        <path d="M112.75845,174.85514c-3.99241-2.48279-6.56157-4.03731-9.08824-5.65833C78.211,152.86144,52.97383,136.16648,27.23178,120.2901,8.88118,108.9724,1.30257,92.22089.26188,71.75806-.26738,61.35559.16932,50.9041.16932,39.06057c3.45972,1.72009,5.2919,2.44954,6.93829,3.47686Q44.30277,65.74288,81.44375,89.03506c3.16561,1.98609,6.13653,4.27965,9.27711,6.30826,15.61484,10.0871,23.13895,24.12993,22.14968,42.958-.605,11.5148-.11175,23.08753-.11175,36.55414Z"/>
      </g>
    </g>
  </g>
</svg>
