<svg xmlns="http://www.w3.org/2000/svg" viewBox="0 0 452.03 452.03">
  <path d="M75.72,236l-19.79,1.29h0a.17.17,0,0,1-.17-.16.17.17,0,0,1,.16-.18l19.78-1.29a.16.16,0,0,1,.18.16A.17.17,0,0,1,75.72,236Zm1.12,9.61a.16.16,0,0,0-.19-.14L57,248.1a.17.17,0,0,0-.15.19.18.18,0,0,0,.17.14h0l19.66-2.59A.16.16,0,0,0,76.84,245.65Zm1.6,9.72a.19.19,0,0,0-.2-.14L58.8,259.1a.17.17,0,0,0-.14.2.18.18,0,0,0,.17.14h0l19.45-3.87A.17.17,0,0,0,78.44,255.37ZM80.68,265a.17.17,0,0,0-.21-.12L61.32,270a.17.17,0,0,0-.12.21.17.17,0,0,0,.16.12h0l19.15-5.14A.16.16,0,0,0,80.68,265Zm2.86,9.42a.18.18,0,0,0-.22-.11l-18.77,6.38a.16.16,0,0,0-.11.21.17.17,0,0,0,.16.12h.06l18.77-6.38A.16.16,0,0,0,83.54,274.38ZM87,283.59a.19.19,0,0,0-.23-.09l-18.32,7.59a.18.18,0,0,0-.09.22.17.17,0,0,0,.16.11l.06,0,18.32-7.58A.19.19,0,0,0,87,283.59Zm4.06,9a.18.18,0,0,0-.23-.08l-17.78,8.77a.17.17,0,0,0,.07.33l.08,0L91,292.79A.17.17,0,0,0,91.07,292.56Zm4.64,8.69a.17.17,0,0,0-.23-.07L78.31,311.1a.18.18,0,0,0-.07.23.19.19,0,0,0,.15.08.15.15,0,0,0,.09,0l17.17-9.91A.17.17,0,0,0,95.71,301.25Zm5.2,8.36a.18.18,0,0,0-.24-.05l-16.48,11a.16.16,0,0,0,0,.23.17.17,0,0,0,.14.08.19.19,0,0,0,.1,0l16.48-11A.17.17,0,0,0,100.91,309.61Zm5.73,8a.16.16,0,0,0-.23,0L90.68,329.65a.17.17,0,0,0,0,.24.2.2,0,0,0,.14.06.17.17,0,0,0,.1,0l15.73-12.07A.17.17,0,0,0,106.64,317.61Zm6.25,7.61a.16.16,0,0,0-.24,0L97.74,338.28a.17.17,0,0,0,0,.24.16.16,0,0,0,.24,0l14.91-13.07A.17.17,0,0,0,112.89,325.22Zm13.92,13.92a.17.17,0,0,0-.24,0l-13.08,14.91a.17.17,0,0,0,0,.24.15.15,0,0,0,.11,0,.16.16,0,0,0,.13-.06l13.07-14.9A.16.16,0,0,0,126.81,339.14Zm7.61,6.24a.17.17,0,0,0-.24,0l-12.07,15.73a.16.16,0,0,0,0,.23.15.15,0,0,0,.11,0,.15.15,0,0,0,.13-.07l12.07-15.73A.17.17,0,0,0,134.42,345.38Zm8,5.74a.16.16,0,0,0-.23.05l-11,16.48a.18.18,0,0,0,.05.24.16.16,0,0,0,.09,0,.16.16,0,0,0,.14-.08l11-16.48A.18.18,0,0,0,142.42,351.12Zm8.36,5.2a.17.17,0,0,0-.23.06l-9.91,17.17a.16.16,0,0,0,.06.23l.08,0a.16.16,0,0,0,.15-.09l9.92-17.17A.18.18,0,0,0,150.78,356.32Zm8.69,4.64a.17.17,0,0,0-.23.08l-8.77,17.78a.17.17,0,0,0,.08.23l.07,0a.18.18,0,0,0,.15-.1l8.77-17.78A.16.16,0,0,0,159.47,361Zm9,4.06a.18.18,0,0,0-.22.1l-7.58,18.31a.17.17,0,0,0,.09.23h.06a.17.17,0,0,0,.16-.11l7.59-18.31A.19.19,0,0,0,168.43,365Zm9.22,3.47a.18.18,0,0,0-.22.11l-6.37,18.77a.18.18,0,0,0,.11.22h.05a.17.17,0,0,0,.16-.12l6.38-18.77A.18.18,0,0,0,177.65,368.49Zm9.42,2.86a.18.18,0,0,0-.21.12l-5.13,19.15a.17.17,0,0,0,.12.21h.05a.17.17,0,0,0,.16-.13l5.13-19.15A.17.17,0,0,0,187.07,371.35Zm9.59,2.24a.17.17,0,0,0-.2.13l-3.87,19.45a.17.17,0,0,0,.14.2h0a.18.18,0,0,0,.17-.14l3.86-19.44A.16.16,0,0,0,196.66,373.59Zm9.72,1.6a.18.18,0,0,0-.2.15L203.6,395a.16.16,0,0,0,.14.19h0a.17.17,0,0,0,.16-.15l2.59-19.66A.17.17,0,0,0,206.38,375.19Zm9.79,1a.19.19,0,0,0-.18.16L214.7,396.1a.17.17,0,0,0,.15.18h0a.18.18,0,0,0,.17-.16l1.29-19.78A.17.17,0,0,0,216.17,376.15Zm19.69,0a.17.17,0,0,0-.16.19L237,396.12a.17.17,0,0,0,.17.16h0a.17.17,0,0,0,.16-.18L236,376.31A.19.19,0,0,0,235.86,376.15Zm9.79-1a.16.16,0,0,0-.14.19L248.1,395a.17.17,0,0,0,.16.15h0a.16.16,0,0,0,.14-.19l-2.59-19.65A.16.16,0,0,0,245.65,375.19Zm9.72-1.6a.17.17,0,0,0-.14.2l3.87,19.44a.18.18,0,0,0,.17.14h0a.19.19,0,0,0,.14-.2l-3.87-19.45A.17.17,0,0,0,255.37,373.59Zm9.8-2.12a.18.18,0,0,0-.21-.12.17.17,0,0,0-.12.21L270,390.71a.17.17,0,0,0,.16.13h.05a.17.17,0,0,0,.12-.21Zm9.42-2.87a.16.16,0,0,0-.21-.11.18.18,0,0,0-.11.22l6.38,18.77a.17.17,0,0,0,.16.12h.05a.18.18,0,0,0,.11-.22Zm9.23-3.48a.19.19,0,0,0-.23-.1.19.19,0,0,0-.09.23l7.59,18.31a.17.17,0,0,0,.16.11h.06a.17.17,0,0,0,.09-.23Zm9-4.08a.17.17,0,0,0-.23-.08.18.18,0,0,0-.08.23L301.25,379a.18.18,0,0,0,.16.1l.07,0a.17.17,0,0,0,.08-.23Zm8.69-4.66a.17.17,0,0,0-.23-.06.17.17,0,0,0-.07.23l9.92,17.17a.15.15,0,0,0,.23.06.16.16,0,0,0,.06-.23Zm8.36-5.21a.17.17,0,0,0-.23-.05.18.18,0,0,0-.05.24l11,16.48a.16.16,0,0,0,.14.08l.09,0a.18.18,0,0,0,.05-.24Zm8-5.75a.18.18,0,0,0-.24,0,.17.17,0,0,0,0,.24l12.07,15.73a.15.15,0,0,0,.13.07.15.15,0,0,0,.11,0,.16.16,0,0,0,0-.23Zm7.61-6.27a.17.17,0,0,0-.24,0,.16.16,0,0,0,0,.24l13.07,14.9a.16.16,0,0,0,.13.06.15.15,0,0,0,.11,0,.16.16,0,0,0,0-.24Zm13.92-13.94a.16.16,0,0,0-.24,0,.17.17,0,0,0,0,.24l14.91,13.07a.16.16,0,0,0,.24,0,.17.17,0,0,0,0-.24Zm6.24-7.63a.17.17,0,0,0-.24,0,.18.18,0,0,0,0,.24l15.73,12.07a.17.17,0,0,0,.1,0,.16.16,0,0,0,.13-.06.16.16,0,0,0,0-.24Zm5.73-8a.17.17,0,0,0-.18.28l16.48,11a.17.17,0,0,0,.1,0,.17.17,0,0,0,.14-.08.16.16,0,0,0-.05-.23Zm22.37,1.54-17.17-9.92a.17.17,0,0,0-.23.07.17.17,0,0,0,.06.23l17.17,9.91a.15.15,0,0,0,.09,0,.16.16,0,0,0,.14-.08A.16.16,0,0,0,373.72,311.1Zm5.25-9.85-17.78-8.77a.18.18,0,0,0-.23.08.17.17,0,0,0,.08.23l17.78,8.77.08,0a.18.18,0,0,0,.15-.1A.18.18,0,0,0,379,301.25Zm4.59-10.16-18.31-7.59a.19.19,0,0,0-.23.09.19.19,0,0,0,.1.23l18.31,7.58.07,0a.17.17,0,0,0,.16-.11A.17.17,0,0,0,383.56,291.09Zm3.92-10.44-18.77-6.38a.18.18,0,0,0-.22.11.16.16,0,0,0,.11.21L387.37,281h.06a.18.18,0,0,0,.16-.12A.16.16,0,0,0,387.48,280.65ZM390.71,270l-19.15-5.13a.17.17,0,0,0-.21.12.16.16,0,0,0,.12.2l19.15,5.14h.05a.17.17,0,0,0,.16-.12A.17.17,0,0,0,390.71,270Zm2.52-10.87-19.44-3.87a.18.18,0,0,0-.2.14.17.17,0,0,0,.13.2l19.45,3.87h0a.18.18,0,0,0,.17-.14A.19.19,0,0,0,393.23,259.1Zm1.81-11-19.66-2.59a.17.17,0,0,0-.19.14.16.16,0,0,0,.15.19L395,248.43h0a.16.16,0,0,0,.16-.14A.16.16,0,0,0,395,248.1ZM396.12,237l-19.78-1.29a.18.18,0,0,0-.19.16.18.18,0,0,0,.16.18l19.79,1.29h0a.17.17,0,0,0,.17-.16A.18.18,0,0,0,396.12,237Zm0-22.29L376.31,216a.18.18,0,0,0-.16.18.18.18,0,0,0,.17.16h0L396.12,215a.19.19,0,0,0,.16-.19A.17.17,0,0,0,396.1,214.7Zm-20.91-8.32a.16.16,0,0,0,.17.14h0L395,203.93a.16.16,0,0,0,.14-.19.16.16,0,0,0-.19-.14l-19.65,2.58A.18.18,0,0,0,375.19,206.38Zm-1.6-9.72a.16.16,0,0,0,.16.14h0l19.44-3.86a.19.19,0,0,0,.14-.2.17.17,0,0,0-.2-.14l-19.45,3.87A.17.17,0,0,0,373.59,196.66Zm-2.24-9.59a.17.17,0,0,0,.16.13h.05l19.15-5.13a.17.17,0,0,0-.09-.33l-19.15,5.13A.18.18,0,0,0,371.35,187.07Zm-2.86-9.42a.18.18,0,0,0,.16.12h.06l18.77-6.38a.16.16,0,0,0,.11-.21.18.18,0,0,0-.22-.11l-18.77,6.37A.18.18,0,0,0,368.49,177.65ZM365,168.43a.17.17,0,0,0,.16.11h.07l18.31-7.59a.18.18,0,0,0,.1-.22.17.17,0,0,0-.23-.09l-18.31,7.58A.18.18,0,0,0,365,168.43Zm-4.06-9a.16.16,0,0,0,.15.09.12.12,0,0,0,.08,0L379,150.77a.17.17,0,0,0,.08-.22.17.17,0,0,0-.23-.08L361,159.24A.17.17,0,0,0,361,159.47Zm-4.64-8.69a.16.16,0,0,0,.15.09l.08,0,17.17-9.92a.17.17,0,0,0,.06-.23.16.16,0,0,0-.23-.06l-17.17,9.91A.17.17,0,0,0,356.32,150.78Zm-5.2-8.36a.17.17,0,0,0,.14.08.14.14,0,0,0,.09,0l16.49-11a.16.16,0,0,0,.05-.23.18.18,0,0,0-.24-.05l-16.48,11A.16.16,0,0,0,351.12,142.42Zm-5.74-8a.21.21,0,0,0,.14.07.18.18,0,0,0,.1,0l15.73-12.07a.16.16,0,0,0,0-.24.16.16,0,0,0-.23,0l-15.73,12.07A.17.17,0,0,0,345.38,134.42Zm-6.24-7.61a.16.16,0,0,0,.24,0l14.9-13.07a.16.16,0,0,0,0-.24.17.17,0,0,0-.24,0l-14.91,13.08A.17.17,0,0,0,339.14,126.81Zm-13.92-13.92a.15.15,0,0,0,.11,0,.16.16,0,0,0,.13-.06L338.53,98a.16.16,0,0,0,0-.24.17.17,0,0,0-.24,0l-13.07,14.91A.16.16,0,0,0,325.22,112.89Zm-7.61-6.25a.14.14,0,0,0,.1,0,.17.17,0,0,0,.14-.07l12.07-15.73a.17.17,0,1,0-.27-.2l-12.07,15.73A.16.16,0,0,0,317.61,106.64Zm-8-5.73a.16.16,0,0,0,.09,0,.16.16,0,0,0,.14-.08l11-16.48a.18.18,0,0,0-.05-.24.16.16,0,0,0-.23,0l-11,16.48A.18.18,0,0,0,309.61,100.91Zm-8.36-5.2a.11.11,0,0,0,.08,0,.18.18,0,0,0,.15-.08l9.91-17.17a.18.18,0,0,0-.06-.24.18.18,0,0,0-.23.07l-9.92,17.17A.17.17,0,0,0,301.25,95.71Zm-8.69-4.64.08,0a.18.18,0,0,0,.15-.1l8.77-17.78a.17.17,0,0,0-.08-.23.17.17,0,0,0-.23.08l-8.77,17.78A.18.18,0,0,0,292.56,91.07Zm-9-4.06h.07a.17.17,0,0,0,.16-.11L291.4,68.6a.17.17,0,0,0-.09-.23.18.18,0,0,0-.22.09L283.5,86.78A.19.19,0,0,0,283.59,87Zm-9.21-3.47h.05a.17.17,0,0,0,.16-.12L281,64.66a.18.18,0,0,0-.11-.22.16.16,0,0,0-.21.11l-6.38,18.77A.18.18,0,0,0,274.38,83.54ZM265,80.68h0a.18.18,0,0,0,.17-.12l5.13-19.15a.17.17,0,0,0-.12-.21.17.17,0,0,0-.21.12l-5.13,19.15A.17.17,0,0,0,265,80.68Zm-9.59-2.24h0a.18.18,0,0,0,.17-.14l3.87-19.45a.19.19,0,0,0-.14-.2.17.17,0,0,0-.2.14l-3.87,19.44A.18.18,0,0,0,255.37,78.44Zm-9.72-1.6h0a.16.16,0,0,0,.16-.15L248.43,57a.17.17,0,1,0-.33,0l-2.59,19.66A.16.16,0,0,0,245.65,76.84Zm-9.79-1h0a.16.16,0,0,0,.17-.15l1.29-19.79a.17.17,0,0,0-.16-.18.18.18,0,0,0-.18.16L235.7,75.69A.16.16,0,0,0,235.86,75.87Zm-19.7,0h0a.16.16,0,0,0,.16-.18L215,55.91a.18.18,0,0,0-.19-.16.17.17,0,0,0-.15.18L216,75.72A.16.16,0,0,0,216.16,75.87Zm-9.81,1h0a.17.17,0,0,0,.14-.19L203.93,57a.18.18,0,0,0-.19-.15.17.17,0,0,0-.14.19l2.58,19.66A.18.18,0,0,0,206.35,76.84Zm-9.72,1.61h0a.17.17,0,0,0,.13-.2L192.93,58.8a.17.17,0,1,0-.34.06l3.87,19.45A.18.18,0,0,0,196.63,78.45Zm-9.77,2.11a.17.17,0,0,0,.17.12h0a.17.17,0,0,0,.12-.21l-5.13-19.15a.17.17,0,0,0-.21-.12.17.17,0,0,0-.12.21Zm-9.43,2.87a.18.18,0,0,0,.17.12h.05a.18.18,0,0,0,.11-.22l-6.38-18.77a.16.16,0,0,0-.21-.11.18.18,0,0,0-.11.22Zm-9.22,3.48a.17.17,0,0,0,.16.11h.06a.19.19,0,0,0,.1-.23l-7.59-18.32a.18.18,0,0,0-.22-.09.17.17,0,0,0-.09.23Zm-9,4.08a.18.18,0,0,0,.15.1l.08,0a.16.16,0,0,0,.07-.23l-8.77-17.78a.16.16,0,0,0-.22-.08.17.17,0,0,0-.08.23Zm-8.69,4.66a.18.18,0,0,0,.15.08.11.11,0,0,0,.08,0,.18.18,0,0,0,.07-.23l-9.92-17.17a.17.17,0,1,0-.29.17Zm-8.36,5.21a.16.16,0,0,0,.14.08.16.16,0,0,0,.09,0,.18.18,0,0,0,.05-.24l-11-16.48a.17.17,0,0,0-.23,0,.18.18,0,0,0-.05.24Zm-8,5.75a.15.15,0,0,0,.14.07.14.14,0,0,0,.1,0,.16.16,0,0,0,0-.23L122.38,90.68a.17.17,0,1,0-.27.2Zm-7.61,6.26a.16.16,0,0,0,.13.06.15.15,0,0,0,.11,0,.16.16,0,0,0,0-.24L113.75,97.74a.17.17,0,0,0-.26.23Zm-13.92,13.95a.16.16,0,0,0,.24,0,.17.17,0,0,0,0-.24L98,113.49a.17.17,0,0,0-.23.26Zm-6.24,7.63a.18.18,0,0,0,.1,0,.17.17,0,0,0,.13-.07.16.16,0,0,0,0-.24L90.88,122.11a.17.17,0,1,0-.2.27Zm-5.74,8a.19.19,0,0,0,.1,0,.17.17,0,0,0,.14-.08.16.16,0,0,0,0-.23l-16.48-11a.18.18,0,0,0-.24.05.16.16,0,0,0,0,.23Zm-22.36-1.54,17.17,9.92.08,0a.17.17,0,0,0,.09-.32l-17.17-9.91a.17.17,0,1,0-.17.29Zm-5.25,9.84,17.78,8.77a.11.11,0,0,0,.08,0,.16.16,0,0,0,.15-.09.17.17,0,0,0-.08-.23l-17.78-8.77a.17.17,0,0,0-.23.08A.16.16,0,0,0,73.06,150.77Zm-4.6,10.17,18.32,7.59h.07a.18.18,0,0,0,.16-.11.18.18,0,0,0-.1-.22l-18.32-7.58a.16.16,0,0,0-.22.09A.18.18,0,0,0,68.46,160.94Zm-3.91,10.44,18.77,6.38h.06a.18.18,0,0,0,.16-.12.18.18,0,0,0-.11-.22l-18.77-6.37a.18.18,0,0,0-.22.11A.16.16,0,0,0,64.55,171.38Zm-3.23,10.68,19.15,5.13h0a.17.17,0,0,0,.17-.13.18.18,0,0,0-.12-.21l-19.15-5.13a.17.17,0,0,0-.21.12A.17.17,0,0,0,61.32,182.06ZM58.8,192.93l19.44,3.86h0a.16.16,0,0,0,.16-.14.17.17,0,0,0-.13-.2l-19.45-3.87a.17.17,0,0,0-.06.34Zm-1.81,11,19.66,2.59h0a.17.17,0,0,0,.17-.14.18.18,0,0,0-.15-.2L57,203.6a.17.17,0,0,0-.19.14A.17.17,0,0,0,57,203.93ZM55.91,215l19.78,1.29h0a.17.17,0,0,0,0-.34L55.93,214.7a.17.17,0,0,0-.18.15A.17.17,0,0,0,55.91,215Zm252.93,2.7v16.55l12.93,12.63S324,234.83,324,226s-2.25-20.9-2.25-20.9Zm24.93,103.19,9.73,22.57-22.57-9.73a142.87,142.87,0,0,1-85.84,35.57L226,392.17l-9.07-22.83a142.87,142.87,0,0,1-85.84-35.57l-22.57,9.73,9.72-22.57a142.94,142.94,0,0,1-35.56-85.84L59.86,226l22.83-9.07a142.94,142.94,0,0,1,35.56-85.85l-9.72-22.56,22.56,9.72a143,143,0,0,1,85.85-35.56L226,59.86l9.08,22.83a142.94,142.94,0,0,1,85.84,35.56l22.57-9.72-9.73,22.56a142.87,142.87,0,0,1,35.57,85.85L392.17,226l-22.83,9.08a142.87,142.87,0,0,1-35.57,85.84ZM362.61,249l-33,13.53,11.71,11.34-16.19-.3,13.65,32.8A137.58,137.58,0,0,0,362.61,249Zm-95.07,26.64a64.48,64.48,0,0,1-35.78,14.85l36.61,38Zm-47.29,14.85a64.57,64.57,0,0,1-35.78-14.87l-1,52.81Zm-43.88-23a64.48,64.48,0,0,1-14.85-35.78l-38,36.61Zm-14.85-47.29a64.5,64.5,0,0,1,14.87-35.78l-52.81-1Zm23-43.88a64.48,64.48,0,0,1,35.78-14.85l-36.61-38Zm47.29-14.85a64.37,64.37,0,0,1,35.77,14.87l1-52.81Zm43.88,23a64.48,64.48,0,0,1,14.85,35.78l38-36.61Zm9.95,39a59.47,59.47,0,0,0-15.67-37.76l-18.13,18.12A33.92,33.92,0,0,1,260,223.46Zm-57.05-3.6,16-16a28.93,28.93,0,0,0-16-6.65Zm-5.09-22.68a28.93,28.93,0,0,0-16,6.65l16,16Zm-19.64,10.26a28.93,28.93,0,0,0-6.65,16h22.68Zm-6.65,21.12a28.93,28.93,0,0,0,6.65,16l16-16Zm10.26,19.63a28.79,28.79,0,0,0,16,6.65V232.17Zm21.12,6.65a28.79,28.79,0,0,0,16-6.65l-16-16Zm19.63-10.25a28.79,28.79,0,0,0,6.65-16H232.17Zm6.65-21.13a28.79,28.79,0,0,0-6.65-16l-16,16Zm11.49-41.37a59.42,59.42,0,0,0-37.77-15.67v25.64a33.92,33.92,0,0,1,19.65,8.16Zm-42.86-15.67a59.42,59.42,0,0,0-37.77,15.67l18.12,18.13a33.92,33.92,0,0,1,19.65-8.16ZM182.09,185.7a59.42,59.42,0,0,0-15.67,37.76h25.64a33.92,33.92,0,0,1,8.16-19.64Zm-15.67,42.86a59.42,59.42,0,0,0,15.67,37.77l18.13-18.12a33.92,33.92,0,0,1-8.16-19.65Zm19.28,41.38a59.47,59.47,0,0,0,37.77,15.67V260a33.92,33.92,0,0,1-19.65-8.16Zm42.86,15.67a59.47,59.47,0,0,0,37.77-15.67l-18.12-18.13A33.92,33.92,0,0,1,228.56,260Zm41.38-19.28a59.47,59.47,0,0,0,15.67-37.77H260a33.92,33.92,0,0,1-8.16,19.65Zm5.7,1.22,52.81,1-37.94-36.77A64.51,64.51,0,0,1,275.64,267.55Zm51-67.59,32.78,13,4.68,1.86q-.25-3-.61-6l-37.88-15.31-31,29.9h14.3v5.1H294.51l31.08,30.12,37.88-15.51c.24-2,.44-4,.61-6L359.4,239l-32.78,13a152.61,152.61,0,0,0,2.84-26.74A128.54,128.54,0,0,0,326.62,200Zm12.44-53.9-14.13,32.56,16.45-.26-11.77,11.33,33,13.34A138,138,0,0,0,339.06,146.06ZM278,137.73,309.9,124l4.49-1.94q-2.25-1.92-4.59-3.74l-37,15.7-.8,42.49,10-10,1.78,1.78L278,162.52l.21-17.82s10,6.86,16.13,13,13,16.13,13,16.13l-17.82.21-4-4-10,10,42.47-.67,16-36.83q-2-2.51-4-4.91l-1.94,4.49L314.3,174.05a150.72,150.72,0,0,0-16.66-20.61A127.06,127.06,0,0,0,278,137.73ZM249.39,89.48l13.05,33.08,11.45-11.82-.31,16.34,32.71-13.88A137.85,137.85,0,0,0,249.39,89.48ZM200,125.4l13-32.77L214.84,88c-2,.16-4,.37-6,.61l-15.31,37.88,29.91,31.05v-14.3h-5.73l-12.63-12.93S217.2,128,226,128s20.91,2.25,20.91,2.25l-12.63,12.93h-5.73v14.33l30-30.94-15-38c-2.12-.27-4.24-.49-6.39-.66L239,92.63l13,32.77a152.37,152.37,0,0,0-26.74-2.83A128.44,128.44,0,0,0,200,125.4ZM146.06,113l32.56,14.13-.26-16.45,11.33,11.77,13.34-33A138,138,0,0,0,146.06,113Zm-25.54,23.39q-2,2.28-3.79,4.65l15.93,37.54,43.1.81-10.11-10.11-4.05,4.05-18.08-.22s7-10.13,13.19-16.37,16.37-13.19,16.37-13.19l.22,18.08-4.5,4.5.45-.45,10.13,10.13-.67-43.09-37.37-16.21c-1.69,1.31-3.36,2.66-5,4l4.55,2,32.39,14a152.84,152.84,0,0,0-20.91,16.9,128.93,128.93,0,0,0-15.94,20l-14-32.39Zm-31,66.28,33.08-13.06-11.82-11.44,16.34.3-13.88-32.7A137.85,137.85,0,0,0,89.48,202.64Zm35.92,49.43L92.63,239,88,237.18c.16,2,.37,4,.61,6l37.88,15.3,31.05-29.9h-14.3v5.73l-12.93,12.63S128,234.83,128,226s2.25-20.9,2.25-20.9l12.93,12.63v5.72h14.33l-30.94-30-38,15c-.27,2.12-.48,4.24-.66,6.38L92.63,213l32.77-13a152.94,152.94,0,0,0-2.83,26.73A129.13,129.13,0,0,0,125.4,252.07ZM113,306l14.13-32.55-16.45.26,11.77-11.33L89.41,249A137.86,137.86,0,0,0,113,306Zm60.33,9.62-32.39,14-4.55,2c1.52,1.29,3.07,2.56,4.65,3.79l37.54-15.93.81-43.1-10.11,10.11-.45-.45,4.5,4.5-.22,18.08s-10.13-7-16.37-13.2-13.19-16.37-13.19-16.37l18.08-.21,4.05,4,10.13-10.13-43.09.67-16.21,37.37q2,2.54,4,5l2-4.55,14-32.39a152.84,152.84,0,0,0,16.9,20.91A128.93,128.93,0,0,0,173.3,315.58Zm29.34,47-13.06-33.08-11.44,11.82.31-16.34-32.71,13.88A137.85,137.85,0,0,0,202.64,362.55Zm49.43-35.93L239,359.4l-1.86,4.68q3-.25,6-.61l15.3-37.88-29.9-31v14.3h5.73l12.63,12.93S234.83,324,226,324s-20.9-2.25-20.9-2.25l12.63-12.93h5.73V294.51l-30,30.94,15,38c2.12.26,4.24.48,6.38.66L213,359.4l-13-32.78a152.42,152.42,0,0,0,26.73,2.84A128.7,128.7,0,0,0,252.07,326.62ZM306,339.06l-32.56-14.13.26,16.45-11.33-11.77-13.34,33A138,138,0,0,0,306,339.06Zm9.7-7.55-4.55-2-32.39-14a152.84,152.84,0,0,0,20.91-16.9,128.93,128.93,0,0,0,15.94-19.95l14,32.39,2,4.55q1.89-2.22,3.7-4.53l-15.67-37.66-43.27-.81,10.11,10.11,4.05-4,18.08.21s-7,10.14-13.2,16.37-16.37,13.2-16.37,13.2l-.21-18.08,5.85-5.85-1.8,1.8-10.13-10.13.67,43.08,37.37,16.22Q313.23,333.59,315.67,331.51ZM452,225.49a8.5,8.5,0,0,1-.52,1,10.2,10.2,0,0,1-7.26,3.43c-4.71.29-11.22-3.94-14.71-3.63-3.14.27-7.76,5.48-12.83,7.17-4.28,1.43-4.88-.94-6.61-.6a1.25,1.25,0,0,0-1,1.06s-.2,1.21.78,1.47c2.85.74,16.87,4.36,16.86,4.42s-15.17,3.61-17.69,4.2a1.12,1.12,0,0,0-.64.42,2,2,0,0,0-.44,1.51c.07.37.39,1.12,2.13,2,4.9,2.59,11.59-.72,14.83-.76,5.73-.07,7.81,1.63,16.08,9.21a8.69,8.69,0,0,0,8.78,1.26,7.92,7.92,0,0,1-.65.89,10.23,10.23,0,0,1-7.67,2.36c-4.7-.38-10.55-5.5-14.05-5.69-3.14-.17-8.46,4.33-13.71,5.27-4.44.81-4.7-1.62-6.46-1.53a1.23,1.23,0,0,0-1.13.91s-.38,1.17.56,1.56c2.72,1.14,16.07,6.72,16.06,6.78s-15.54,1.41-18.11,1.64a1.06,1.06,0,0,0-.69.32,2,2,0,0,0-.66,1.44c0,.37.24,1.15,1.83,2.31,4.48,3.26,11.57.94,14.79,1.37,5.67.74,7.49,2.72,14.6,11.4a8.65,8.65,0,0,0,8.51,2.49,8.56,8.56,0,0,1-.77.79,10.21,10.21,0,0,1-7.93,1.25c-4.6-1.05-9.66-7-13.1-7.64-3.08-.61-9,3.09-14.32,3.28-4.51.16-4.42-2.28-6.18-2.44a1.22,1.22,0,0,0-1.24.74s-.54,1.1.33,1.62c2.53,1.52,14.95,8.94,14.93,9s-15.58-.81-18.16-1a1.13,1.13,0,0,0-.73.22,2.07,2.07,0,0,0-.85,1.33c0,.38.07,1.18,1.47,2.55,4,3.87,11.33,2.58,14.45,3.46,5.51,1.55,7,3.77,12.83,13.37a8.7,8.7,0,0,0,8.07,3.67,7.05,7.05,0,0,1-.88.67,10.2,10.2,0,0,1-8,.11c-4.4-1.69-8.57-8.25-11.88-9.42-3-1-9.33,1.77-14.64,1.2-4.48-.48-4-2.88-5.77-3.29a1.24,1.24,0,0,0-1.34.55s-.69,1,.1,1.66c2.29,1.86,13.53,11,13.5,11s-15.3-3-17.84-3.53a1,1,0,0,0-.75.11,2,2,0,0,0-1,1.2c-.09.36-.11,1.17,1.09,2.73,3.39,4.39,10.84,4.16,13.81,5.48,5.24,2.31,6.42,4.73,10.8,15.06a8.69,8.69,0,0,0,7.47,4.78,8.31,8.31,0,0,1-1,.54,10.22,10.22,0,0,1-8-1c-4.12-2.3-7.31-9.38-10.41-11-2.79-1.46-9.49.42-14.67-.9-4.37-1.11-3.6-3.43-5.24-4.07a1.22,1.22,0,0,0-1.4.35s-.83.91-.14,1.66c2,2.16,11.83,12.79,11.79,12.83s-14.72-5.16-17.15-6a1,1,0,0,0-.76,0,2,2,0,0,0-1.2,1c-.14.35-.27,1.15.7,2.86,2.72,4.83,10.14,5.67,12.89,7.39,4.85,3,5.68,5.59,8.54,16.44a8.69,8.69,0,0,0,6.71,5.8,9.41,9.41,0,0,1-1,.4,10.18,10.18,0,0,1-7.73-2.16c-3.75-2.86-5.9-10.33-8.74-12.38-2.55-1.85-9.46-.94-14.39-3-4.17-1.72-3.07-3.91-4.61-4.78a1.22,1.22,0,0,0-1.44.15s-1,.78-.37,1.62c1.67,2.43,9.89,14.34,9.85,14.39s-13.84-7.22-16.13-8.42a1.08,1.08,0,0,0-.75-.1,2,2,0,0,0-1.33.86c-.19.32-.43,1.09.28,2.93,2,5.16,9.23,7.05,11.71,9.14,4.37,3.7,4.83,6.35,6.12,17.49a8.69,8.69,0,0,0,5.81,6.7,7.73,7.73,0,0,1-1.08.24,10.17,10.17,0,0,1-7.34-3.24c-3.3-3.36-4.37-11.06-6.89-13.5-2.26-2.18-9.23-2.26-13.82-5-3.88-2.3-2.48-4.3-3.88-5.39a1.22,1.22,0,0,0-1.44-.05s-1.05.64-.6,1.55c1.3,2.64,7.74,15.6,7.7,15.64s-12.67-9.11-14.77-10.63a1.06,1.06,0,0,0-.73-.2,2,2,0,0,0-1.43.66c-.24.29-.59,1-.14,2.94,1.25,5.4,8.13,8.29,10.28,10.71,3.8,4.29,3.88,7,3.57,18.19a8.67,8.67,0,0,0,4.8,7.45,7.57,7.57,0,0,1-1.1.09,10.2,10.2,0,0,1-6.81-4.25c-2.79-3.8-2.75-11.57-4.9-14.34-1.93-2.49-8.81-3.56-13-6.91-3.51-2.83-1.84-4.61-3.07-5.89a1.23,1.23,0,0,0-1.42-.25s-1.13.48-.81,1.44c.91,2.8,5.44,16.55,5.39,16.58s-11.24-10.82-13.1-12.62a1.12,1.12,0,0,0-.69-.31,2.08,2.08,0,0,0-1.52.45c-.27.26-.72.93-.56,2.89.47,5.53,6.87,9.37,8.66,12.07,3.15,4.79,2.85,7.46.94,18.51a8.69,8.69,0,0,0,3.7,8.06,8.79,8.79,0,0,1-1.11-.06,10.21,10.21,0,0,1-6.13-5.18c-2.22-4.16-1.08-11.85-2.81-14.9-1.56-2.73-8.21-4.77-11.85-8.68-3.08-3.3-1.17-4.83-2.21-6.26a1.22,1.22,0,0,0-1.37-.46s-1.19.32-1,1.32c.51,2.9,3,17.15,3,17.17S287.29,402,285.71,400a1.13,1.13,0,0,0-.64-.41,2.06,2.06,0,0,0-1.57.23c-.3.22-.85.82-1,2.78-.32,5.54,5.47,10.25,6.85,13.18,2.44,5.19,1.76,7.79-1.7,18.46a8.66,8.66,0,0,0,2.51,8.5,8.55,8.55,0,0,1-1.09-.22,10.21,10.21,0,0,1-5.33-6c-1.61-4.43.62-11.87-.66-15.14-1.15-2.93-7.45-5.89-10.5-10.28-2.57-3.71-.47-4.95-1.29-6.51a1.2,1.2,0,0,0-1.29-.65s-1.22.14-1.19,1.15c.1,2.95.57,17.42.51,17.43s-7.74-13.54-9-15.8a1.1,1.1,0,0,0-.57-.49,2.05,2.05,0,0,0-1.58,0c-.34.18-1,.69-1.35,2.62-1.11,5.43,4,10.92,4.9,14,1.68,5.48.63,7.95-4.31,18a8.68,8.68,0,0,0,1.27,8.78,9.35,9.35,0,0,1-1-.37,10.24,10.24,0,0,1-4.43-6.7c-.95-4.62,2.31-11.67,1.51-15.08-.72-3.06-6.54-6.9-8.93-11.67-2-4,.24-5-.35-6.63a1.22,1.22,0,0,0-1.18-.83s-1.23,0-1.35,1c-.32,2.93-1.92,17.31-2,17.32s-5.74-14.51-6.68-16.92a1.07,1.07,0,0,0-.5-.57,2,2,0,0,0-1.57-.22c-.35.12-1,.55-1.7,2.4-1.87,5.22,2.35,11.37,2.85,14.57.89,5.66-.5,8-6.83,17.23a8.7,8.7,0,0,0,0,8.87,8.5,8.5,0,0,1-1-.52,10.2,10.2,0,0,1-3.43-7.26c-.29-4.71,3.94-11.22,3.63-14.71-.28-3.14-5.48-7.76-7.17-12.83-1.43-4.28.94-4.88.6-6.61a1.25,1.25,0,0,0-1.06-1s-1.21-.2-1.47.78c-.74,2.85-4.36,16.87-4.42,16.86s-3.61-15.17-4.2-17.69a1.12,1.12,0,0,0-.42-.64,2,2,0,0,0-1.52-.44c-.36.07-1.11.39-2,2.13-2.59,4.9.72,11.59.76,14.83.07,5.73-1.64,7.81-9.22,16.08a8.72,8.72,0,0,0-1.25,8.78,7.92,7.92,0,0,1-.89-.65,10.19,10.19,0,0,1-2.36-7.67c.38-4.7,5.5-10.55,5.69-14.05.17-3.14-4.33-8.46-5.28-13.71-.8-4.44,1.63-4.7,1.54-6.46a1.23,1.23,0,0,0-.91-1.13s-1.17-.38-1.56.56c-1.14,2.72-6.72,16.07-6.78,16.06s-1.41-15.54-1.64-18.11a1.06,1.06,0,0,0-.32-.69,2,2,0,0,0-1.44-.66c-.37,0-1.16.24-2.31,1.83-3.26,4.48-.94,11.57-1.37,14.79-.74,5.67-2.73,7.49-11.41,14.6a8.67,8.67,0,0,0-2.48,8.51,8.56,8.56,0,0,1-.79-.77,10.21,10.21,0,0,1-1.25-7.93c1.05-4.6,6.95-9.66,7.63-13.1.62-3.08-3.08-9-3.27-14.32-.16-4.51,2.28-4.42,2.44-6.18a1.22,1.22,0,0,0-.74-1.24s-1.1-.54-1.62.33c-1.52,2.53-8.94,14.95-9,14.93s.81-15.58,1-18.16a1.13,1.13,0,0,0-.22-.73,2.07,2.07,0,0,0-1.33-.85c-.38,0-1.18.07-2.55,1.47-3.87,4-2.58,11.33-3.46,14.45-1.55,5.51-3.77,7-13.37,12.83a8.68,8.68,0,0,0-3.67,8.07,8,8,0,0,1-.68-.88,10.25,10.25,0,0,1-.1-8c1.69-4.4,8.25-8.57,9.42-11.88,1.05-3-1.77-9.33-1.2-14.64.48-4.48,2.88-4,3.29-5.77a1.24,1.24,0,0,0-.55-1.34s-1-.69-1.66.1c-1.86,2.29-11,13.53-11,13.5s3-15.3,3.53-17.84a1.09,1.09,0,0,0-.11-.75,2,2,0,0,0-1.2-1c-.36-.09-1.17-.11-2.73,1.09-4.39,3.39-4.17,10.84-5.48,13.81-2.31,5.24-4.73,6.42-15.06,10.8a8.69,8.69,0,0,0-4.78,7.47,8.31,8.31,0,0,1-.54-1,10.22,10.22,0,0,1,1-8c2.3-4.12,9.38-7.31,11-10.41,1.46-2.79-.42-9.49.9-14.67,1.11-4.37,3.43-3.6,4.07-5.24a1.22,1.22,0,0,0-.35-1.4s-.91-.83-1.66-.14c-2.16,2-12.79,11.83-12.84,11.79s5.17-14.72,6-17.15a1,1,0,0,0,0-.76,2,2,0,0,0-1-1.2c-.35-.14-1.15-.27-2.86.7-4.83,2.72-5.67,10.14-7.39,12.89-3,4.85-5.6,5.68-16.44,8.54a8.68,8.68,0,0,0-5.8,6.71,7.7,7.7,0,0,1-.4-1,10.18,10.18,0,0,1,2.16-7.73c2.86-3.75,10.33-5.9,12.38-8.74,1.85-2.55.93-9.46,3-14.39,1.72-4.17,3.91-3.07,4.78-4.61a1.24,1.24,0,0,0-.15-1.44s-.78-1-1.62-.37c-2.43,1.67-14.34,9.89-14.39,9.85s7.21-13.84,8.42-16.13a1.08,1.08,0,0,0,.1-.75,2,2,0,0,0-.86-1.33c-.32-.19-1.09-.43-2.93.28-5.16,2-7,9.23-9.14,11.71-3.7,4.37-6.35,4.83-17.49,6.12a8.67,8.67,0,0,0-6.7,5.81,7.73,7.73,0,0,1-.24-1.08A10.19,10.19,0,0,1,58.54,366c3.37-3.3,11.07-4.37,13.51-6.89,2.18-2.26,2.26-9.23,5-13.82,2.3-3.88,4.3-2.48,5.39-3.88a1.22,1.22,0,0,0,0-1.44s-.64-1.05-1.55-.6c-2.64,1.31-15.6,7.74-15.64,7.7S74.4,334.4,75.91,332.3a1.06,1.06,0,0,0,.21-.73,2,2,0,0,0-.66-1.43c-.29-.24-1-.59-2.94-.14-5.4,1.25-8.29,8.13-10.71,10.28-4.29,3.8-7,3.88-18.19,3.57a8.7,8.7,0,0,0-7.46,4.8,7.93,7.93,0,0,1-.08-1.1,10.2,10.2,0,0,1,4.25-6.81c3.8-2.79,11.57-2.75,14.34-4.9,2.49-1.93,3.56-8.81,6.91-13,2.83-3.51,4.61-1.84,5.88-3.07a1.21,1.21,0,0,0,.26-1.42s-.48-1.13-1.44-.81c-2.8.91-16.55,5.44-16.58,5.39s10.82-11.24,12.62-13.1a1.12,1.12,0,0,0,.31-.69,2.08,2.08,0,0,0-.45-1.52c-.26-.27-.93-.72-2.89-.56-5.53.47-9.37,6.87-12.08,8.66-4.78,3.15-7.45,2.85-18.5.94a8.71,8.71,0,0,0-8.07,3.7,9.3,9.3,0,0,1,.07-1.11,10.18,10.18,0,0,1,5.18-6.13c4.16-2.22,11.84-1.08,14.89-2.81,2.74-1.56,4.78-8.21,8.69-11.85,3.3-3.08,4.83-1.17,6.26-2.21a1.24,1.24,0,0,0,.46-1.37s-.32-1.19-1.32-1c-2.9.51-17.15,3-17.17,3s12.3-9.59,14.35-11.17a1.07,1.07,0,0,0,.4-.64,2,2,0,0,0-.22-1.57c-.22-.3-.82-.85-2.79-1-5.53-.32-10.24,5.47-13.18,6.85-5.18,2.44-7.78,1.76-18.45-1.7A8.68,8.68,0,0,0,9.3,290.2a9.05,9.05,0,0,1,.23-1.09,10.21,10.21,0,0,1,6-5.33c4.43-1.61,11.87.62,15.14-.66,2.93-1.15,5.89-7.45,10.28-10.5,3.7-2.57,4.95-.47,6.51-1.29a1.22,1.22,0,0,0,.65-1.29S48,268.82,47,268.85c-2.94.1-17.41.57-17.42.51s13.54-7.74,15.79-9a1.07,1.07,0,0,0,.5-.57,2,2,0,0,0,0-1.58c-.17-.34-.69-1-2.61-1.35-5.44-1.11-10.92,4-14,4.9-5.48,1.68-8,.63-18-4.31a8.67,8.67,0,0,0-8.77,1.27,9.35,9.35,0,0,1,.37-1,10.24,10.24,0,0,1,6.7-4.43c4.62-.95,11.66,2.31,15.08,1.51,3.06-.72,6.89-6.54,11.67-8.93,4-2,5,.24,6.63-.35a1.23,1.23,0,0,0,.83-1.18s0-1.23-1-1.35c-2.93-.32-17.32-1.92-17.32-2s14.51-5.74,16.92-6.68a1.11,1.11,0,0,0,.57-.5,2,2,0,0,0,.22-1.57c-.12-.35-.55-1-2.4-1.7-5.22-1.87-11.37,2.35-14.57,2.85-5.66.89-8-.5-17.23-6.83a8.7,8.7,0,0,0-8.87,0,8.5,8.5,0,0,1,.52-1,10.2,10.2,0,0,1,7.26-3.43c4.7-.29,11.22,3.94,14.71,3.63,3.14-.28,7.76-5.48,12.83-7.17,4.27-1.43,4.88.94,6.61.6a1.25,1.25,0,0,0,1-1.06s.2-1.21-.78-1.47c-2.85-.74-16.87-4.36-16.87-4.42s15.18-3.61,17.7-4.2a1.12,1.12,0,0,0,.64-.42,2,2,0,0,0,.44-1.52c-.07-.36-.39-1.11-2.13-2-4.9-2.59-11.59.72-14.84.76-5.72.07-7.8-1.64-16.07-9.22a8.72,8.72,0,0,0-8.78-1.25,7.92,7.92,0,0,1,.65-.89,10.19,10.19,0,0,1,7.67-2.36c4.7.38,10.55,5.5,14.05,5.69,3.14.17,8.46-4.33,13.71-5.28,4.44-.8,4.7,1.63,6.46,1.54a1.23,1.23,0,0,0,1.13-.91s.38-1.17-.56-1.56c-2.72-1.14-16.07-6.72-16.06-6.78s15.53-1.41,18.11-1.64a1.06,1.06,0,0,0,.69-.32,2,2,0,0,0,.65-1.44c0-.37-.23-1.16-1.82-2.31-4.48-3.26-11.57-.94-14.79-1.37-5.68-.74-7.49-2.73-14.6-11.41A8.68,8.68,0,0,0,9,162.85a8.56,8.56,0,0,1,.77-.79,10.2,10.2,0,0,1,7.93-1.25c4.6,1.05,9.65,6.95,13.1,7.63,3.08.62,9-3.08,14.32-3.27,4.51-.16,4.42,2.28,6.18,2.44a1.22,1.22,0,0,0,1.24-.74s.54-1.1-.33-1.62c-2.53-1.52-14.95-8.94-14.94-9s15.59.81,18.17,1a1.08,1.08,0,0,0,.72-.22,2,2,0,0,0,.86-1.33c0-.38-.07-1.18-1.48-2.55-4-3.87-11.32-2.58-14.44-3.46-5.52-1.55-7-3.77-12.83-13.37a8.69,8.69,0,0,0-8.08-3.67,9.09,9.09,0,0,1,.88-.68,10.27,10.27,0,0,1,8-.1c4.4,1.69,8.57,8.25,11.88,9.42,3,1.05,9.33-1.77,14.64-1.2,4.48.48,4,2.88,5.77,3.29a1.22,1.22,0,0,0,1.33-.55s.69-1-.09-1.66c-2.29-1.86-13.53-11-13.51-11s15.31,3,17.85,3.53a1.09,1.09,0,0,0,.75-.11,2,2,0,0,0,1-1.2c.09-.36.11-1.17-1.09-2.73-3.39-4.39-10.85-4.17-13.81-5.48-5.24-2.31-6.43-4.73-10.8-15.06a8.7,8.7,0,0,0-7.47-4.78,8.31,8.31,0,0,1,1-.54,10.22,10.22,0,0,1,8,1c4.11,2.3,7.3,9.38,10.41,11,2.79,1.46,9.49-.42,14.67.9,4.37,1.11,3.6,3.43,5.24,4.07a1.22,1.22,0,0,0,1.4-.35s.83-.91.14-1.66c-2-2.16-11.83-12.79-11.8-12.84s14.72,5.17,17.16,6a1,1,0,0,0,.76,0,2,2,0,0,0,1.2-1c.13-.35.27-1.15-.7-2.87-2.72-4.82-10.14-5.66-12.89-7.38-4.85-3-5.68-5.6-8.54-16.44a8.68,8.68,0,0,0-6.71-5.8,7.7,7.7,0,0,1,1-.4,10.19,10.19,0,0,1,7.73,2.16c3.75,2.86,5.9,10.33,8.74,12.38,2.55,1.85,9.46.93,14.39,3,4.17,1.72,3.07,3.91,4.61,4.78a1.24,1.24,0,0,0,1.44-.15s.94-.78.37-1.62c-1.67-2.43-9.89-14.34-9.85-14.39s13.84,7.21,16.13,8.42a1.08,1.08,0,0,0,.75.1,2,2,0,0,0,1.33-.86c.18-.32.43-1.09-.28-2.93-2-5.16-9.23-7-11.71-9.14-4.37-3.7-4.83-6.35-6.12-17.49a8.67,8.67,0,0,0-5.81-6.7,7.73,7.73,0,0,1,1.08-.24A10.19,10.19,0,0,1,86,58.54c3.3,3.37,4.37,11.07,6.89,13.5,2.26,2.19,9.22,2.27,13.82,5,3.88,2.3,2.48,4.3,3.88,5.39a1.22,1.22,0,0,0,1.44,0s1-.64.6-1.55c-1.31-2.64-7.74-15.6-7.7-15.64s12.67,9.11,14.77,10.62a1.05,1.05,0,0,0,.73.21,2,2,0,0,0,1.43-.66c.23-.29.59-1,.14-2.94-1.25-5.4-8.13-8.29-10.28-10.71-3.81-4.29-3.88-7-3.57-18.19a8.7,8.7,0,0,0-4.8-7.46,7.8,7.8,0,0,1,1.1-.08,10.2,10.2,0,0,1,6.81,4.25c2.79,3.8,2.74,11.57,4.9,14.34,1.93,2.49,8.8,3.56,13,6.91,3.52,2.83,1.85,4.61,3.08,5.88a1.21,1.21,0,0,0,1.42.26s1.13-.48.81-1.44c-.92-2.8-5.44-16.55-5.39-16.58s11.24,10.82,13.1,12.62a1.12,1.12,0,0,0,.69.31,2.08,2.08,0,0,0,1.52-.45c.27-.26.72-.93.55-2.89-.47-5.53-6.86-9.37-8.65-12.08-3.15-4.78-2.85-7.45-.94-18.5a8.71,8.71,0,0,0-3.7-8.07,9.3,9.3,0,0,1,1.11.07,10.18,10.18,0,0,1,6.13,5.18c2.22,4.16,1.07,11.84,2.81,14.89,1.55,2.74,8.21,4.78,11.85,8.69,3.07,3.3,1.17,4.83,2.2,6.26a1.26,1.26,0,0,0,1.38.46s1.18-.32,1-1.32c-.51-2.9-3-17.15-3-17.17s9.59,12.3,11.17,14.35a1,1,0,0,0,.64.4,2,2,0,0,0,1.57-.22c.3-.22.84-.82,1-2.79.32-5.53-5.47-10.24-6.85-13.18-2.44-5.18-1.76-7.78,1.7-18.45a8.68,8.68,0,0,0-2.51-8.51,8.61,8.61,0,0,1,1.08.23,10.19,10.19,0,0,1,5.34,6c1.6,4.43-.62,11.87.66,15.14,1.15,2.93,7.45,5.89,10.49,10.28,2.58,3.7.48,4.95,1.29,6.51a1.24,1.24,0,0,0,1.3.65s1.22-.14,1.19-1.16c-.1-2.94-.57-17.41-.51-17.42s7.74,13.54,9,15.79a1.13,1.13,0,0,0,.58.5,2,2,0,0,0,1.58,0c.34-.17,1-.69,1.35-2.61,1.11-5.44-3.95-10.92-4.9-14-1.68-5.48-.63-8,4.31-18a8.67,8.67,0,0,0-1.27-8.77,9.35,9.35,0,0,1,1,.37,10.23,10.23,0,0,1,4.42,6.7c1,4.62-2.31,11.66-1.5,15.08.72,3.06,6.53,6.89,8.93,11.67,2,4-.24,5,.35,6.63a1.23,1.23,0,0,0,1.18.83s1.23,0,1.34-1c.33-2.93,1.92-17.32,2-17.32s5.74,14.51,6.68,16.92a1.11,1.11,0,0,0,.5.57,2,2,0,0,0,1.57.22c.35-.12,1-.55,1.7-2.4,1.87-5.22-2.35-11.37-2.85-14.57-.89-5.66.5-8,6.83-17.23a8.7,8.7,0,0,0,0-8.87,8.5,8.5,0,0,1,1,.52,10.2,10.2,0,0,1,3.43,7.26c.29,4.7-3.94,11.22-3.63,14.71.27,3.14,5.48,7.76,7.17,12.83,1.43,4.27-.94,4.88-.6,6.61a1.25,1.25,0,0,0,1.06,1s1.21.2,1.47-.78c.74-2.85,4.36-16.87,4.42-16.87S243.39,40.45,244,43a1.12,1.12,0,0,0,.42.64,2,2,0,0,0,1.51.44c.37-.07,1.12-.39,2-2.13,2.59-4.9-.72-11.59-.76-14.84-.07-5.72,1.63-7.8,9.21-16.07a8.69,8.69,0,0,0,1.26-8.78,7.92,7.92,0,0,1,.89.65,10.23,10.23,0,0,1,2.36,7.67c-.38,4.7-5.5,10.55-5.69,14.05-.17,3.14,4.33,8.46,5.27,13.71.81,4.44-1.62,4.7-1.53,6.46a1.23,1.23,0,0,0,.91,1.13s1.17.38,1.56-.56c1.14-2.72,6.72-16.07,6.78-16.06s1.41,15.53,1.64,18.11a1.06,1.06,0,0,0,.32.69,2,2,0,0,0,1.44.65c.37,0,1.15-.23,2.31-1.82,3.26-4.48.94-11.57,1.37-14.79.74-5.68,2.72-7.49,11.4-14.6A8.66,8.66,0,0,0,289.18,9a8.56,8.56,0,0,1,.79.77,10.2,10.2,0,0,1,1.25,7.93c-1.05,4.6-7,9.65-7.64,13.1-.61,3.08,3.09,9,3.28,14.32.16,4.51-2.28,4.42-2.44,6.18a1.22,1.22,0,0,0,.74,1.24s1.1.54,1.62-.33c1.52-2.53,8.94-14.95,9-14.94s-.81,15.59-1,18.17a1.08,1.08,0,0,0,.22.72,2,2,0,0,0,1.33.86c.38,0,1.18-.07,2.55-1.48,3.87-4,2.58-11.32,3.46-14.44,1.55-5.52,3.77-7,13.37-12.83a8.71,8.71,0,0,0,3.67-8.08,7.92,7.92,0,0,1,.67.88,10.23,10.23,0,0,1,.11,8c-1.69,4.4-8.25,8.57-9.42,11.88-1,3,1.77,9.33,1.2,14.64-.48,4.48-2.88,4-3.29,5.77a1.22,1.22,0,0,0,.55,1.33s1,.69,1.66-.09c1.86-2.29,11-13.53,11-13.51s-3,15.31-3.53,17.85a1,1,0,0,0,.11.75,2,2,0,0,0,1.2,1c.36.09,1.17.11,2.73-1.09,4.39-3.39,4.16-10.85,5.48-13.81,2.31-5.24,4.73-6.43,15.06-10.8a8.7,8.7,0,0,0,4.78-7.47,8.31,8.31,0,0,1,.54,1,10.22,10.22,0,0,1-1,8c-2.3,4.11-9.38,7.3-11,10.41-1.46,2.79.42,9.49-.9,14.67-1.11,4.37-3.43,3.6-4.07,5.24a1.22,1.22,0,0,0,.35,1.4s.91.83,1.66.14c2.16-2,12.79-11.83,12.83-11.8s-5.16,14.72-6,17.16a1,1,0,0,0,0,.76,2,2,0,0,0,1,1.2c.35.13,1.15.27,2.86-.7,4.83-2.72,5.67-10.14,7.39-12.89,3-4.85,5.59-5.68,16.44-8.54a8.69,8.69,0,0,0,5.8-6.71,9.41,9.41,0,0,1,.4,1,10.19,10.19,0,0,1-2.16,7.73c-2.86,3.75-10.33,5.9-12.38,8.74-1.85,2.55-.94,9.46-3,14.39-1.72,4.17-3.91,3.07-4.78,4.61a1.22,1.22,0,0,0,.15,1.44s.78.94,1.62.37c2.43-1.67,14.34-9.89,14.39-9.85s-7.22,13.84-8.42,16.13a1.08,1.08,0,0,0-.1.75,2,2,0,0,0,.86,1.33c.32.18,1.09.43,2.93-.28,5.16-2,7.05-9.23,9.14-11.71,3.7-4.37,6.35-4.83,17.49-6.12a8.69,8.69,0,0,0,6.7-5.81,7.73,7.73,0,0,1,.24,1.08A10.17,10.17,0,0,1,393.48,86c-3.36,3.3-11.06,4.37-13.5,6.89-2.18,2.26-2.26,9.22-5,13.82-2.3,3.88-4.3,2.48-5.39,3.88a1.22,1.22,0,0,0-.05,1.44s.64,1,1.55.6c2.64-1.31,15.6-7.74,15.64-7.7s-9.11,12.67-10.63,14.77a1,1,0,0,0-.2.73,2,2,0,0,0,.66,1.43c.29.23,1,.59,2.94.14,5.4-1.25,8.29-8.13,10.71-10.28,4.29-3.81,7-3.88,18.19-3.57a8.67,8.67,0,0,0,7.45-4.8,7.44,7.44,0,0,1,.09,1.1,10.2,10.2,0,0,1-4.25,6.81c-3.8,2.79-11.57,2.74-14.34,4.9-2.49,1.92-3.56,8.8-6.91,13-2.83,3.52-4.61,1.85-5.89,3.08a1.23,1.23,0,0,0-.25,1.42s.48,1.13,1.44.81c2.8-.92,16.55-5.44,16.58-5.39s-10.82,11.24-12.62,13.1a1.12,1.12,0,0,0-.31.69,2.08,2.08,0,0,0,.45,1.52c.26.27.93.72,2.89.55,5.53-.47,9.37-6.86,12.07-8.65,4.79-3.15,7.46-2.85,18.51-.94a8.69,8.69,0,0,0,8.06-3.7,8.79,8.79,0,0,1-.06,1.11,10.21,10.21,0,0,1-5.18,6.13c-4.16,2.22-11.85,1.07-14.9,2.81-2.73,1.55-4.77,8.21-8.68,11.85-3.3,3.07-4.83,1.17-6.26,2.2a1.24,1.24,0,0,0-.46,1.38s.32,1.18,1.32,1c2.9-.51,17.15-3,17.17-3S402,164.74,400,166.32a1.1,1.1,0,0,0-.41.64,2.06,2.06,0,0,0,.23,1.57c.22.3.82.84,2.78,1,5.54.32,10.25-5.47,13.18-6.85,5.19-2.44,7.79-1.76,18.46,1.7a8.66,8.66,0,0,0,8.5-2.51,8.16,8.16,0,0,1-.22,1.08,10.19,10.19,0,0,1-6,5.34c-4.43,1.6-11.87-.62-15.14.66-2.93,1.15-5.89,7.45-10.28,10.49-3.71,2.58-4.95.48-6.51,1.29a1.23,1.23,0,0,0-.65,1.3s.14,1.22,1.15,1.19c2.95-.1,17.42-.57,17.43-.51s-13.54,7.74-15.8,9a1.16,1.16,0,0,0-.49.58,2.05,2.05,0,0,0,0,1.58c.18.34.69,1,2.62,1.35,5.43,1.11,10.92-3.95,14-4.9,5.48-1.68,7.95-.63,18,4.31a8.68,8.68,0,0,0,8.78-1.27,9.35,9.35,0,0,1-.37,1,10.23,10.23,0,0,1-6.7,4.42c-4.62,1-11.67-2.31-15.08-1.5-3.06.72-6.9,6.53-11.67,8.93-4,2-5-.24-6.63.35a1.22,1.22,0,0,0-.83,1.18s0,1.23,1,1.34c2.93.33,17.31,1.92,17.32,2s-14.51,5.74-16.92,6.68a1.07,1.07,0,0,0-.57.5,2,2,0,0,0-.22,1.57c.12.35.55,1,2.4,1.7,5.22,1.87,11.37-2.35,14.57-2.85,5.66-.89,8,.5,17.23,6.83A8.7,8.7,0,0,0,452,225.49Zm-48.37,11c.19-3.57.26-7,.25-10.82,0-3.44-.09-6.58-.29-10l9.11-3.08-9.43-1.53a146.31,146.31,0,0,0-2.91-20.58l8.54-4.33-9.52-.16a152.35,152.35,0,0,0-5.85-20l7.84-5.5-9.44,1.2a143.94,143.94,0,0,0-8.64-18.93l7-6.56-9.18,2.52A157.7,157.7,0,0,0,370,121.1l5.82-7.3-8.46,3.7a164.26,164.26,0,0,0-13.6-16l4.57-7.87-7.67,4.74a160.68,160.68,0,0,0-15.95-13.82l3.43-8.41L331.22,82a160.34,160.34,0,0,0-17.79-11.19l2.27-9.06-6.24,7a185.3,185.3,0,0,0-19-8.53l1-9.52-5.28,7.91a151.82,151.82,0,0,0-20-5.87l-.39-9.56-4.1,8.59a151,151,0,0,0-20.6-3l-1.73-9.37-2.84,9.08c-3.57-.19-7-.26-10.82-.26-3.44,0-6.58.1-10,.3l-3.08-9.11-1.53,9.43a146.31,146.31,0,0,0-20.58,2.91l-4.33-8.54L186,52.62a152.35,152.35,0,0,0-20,5.85l-5.5-7.84,1.2,9.44a143.94,143.94,0,0,0-18.93,8.64l-6.56-7,2.52,9.18A157.7,157.7,0,0,0,121.1,82l-7.3-5.82,3.7,8.46a166.12,166.12,0,0,0-16,13.63l-7.84-4.6,4.74,7.67a159.38,159.38,0,0,0-13.82,16l-8.41-3.43,5.82,7a162.64,162.64,0,0,0-11.19,17.78l-9.06-2.26,7,6.24a185.3,185.3,0,0,0-8.53,19l-9.52-1,7.91,5.28a151.82,151.82,0,0,0-5.87,20l-9.56.39,8.59,4.1a151.11,151.11,0,0,0-3,20.59l-9.37,1.74,9.08,2.84c-.19,3.56-.26,7-.26,10.82,0,3.58.08,6.69.24,10L39.3,239.4l9.33,1.51a148,148,0,0,0,3,20.6l-8.54,4.33,9.52.16a155.49,155.49,0,0,0,5.94,20.2l-.09-.24-7.84,5.5,9.44-1.19-.07-.2a146.28,146.28,0,0,0,8.71,19.13l-7,6.56,9.18-2.53A156.93,156.93,0,0,0,82,330.93l-5.82,7.29,8.46-3.69a166.12,166.12,0,0,0,13.63,16l-4.6,7.84,7.67-4.75a159.48,159.48,0,0,0,16,13.83l-3.43,8.4,7-5.81a162.64,162.64,0,0,0,17.78,11.19l-2.26,9.06,6.24-7a185.3,185.3,0,0,0,19,8.53l-1,9.52,5.28-7.92a148.83,148.83,0,0,0,20,5.87l.39,9.57,4.1-8.59a151.07,151.07,0,0,0,20.59,3l1.74,9.38,2.84-9.08c3.56.19,7,.26,10.82.25,3.44,0,6.58-.09,10-.29l3.08,9.11,1.53-9.43a146.52,146.52,0,0,0,20.58-2.91l4.33,8.54.16-9.52a152.35,152.35,0,0,0,20-5.85l5.49,7.84L290.27,392a143.94,143.94,0,0,0,18.93-8.64l6.56,7-2.53-9.18A156.93,156.93,0,0,0,330.93,370l7.29,5.82-3.69-8.46a166.12,166.12,0,0,0,16-13.63l7.84,4.6-4.75-7.67a159.48,159.48,0,0,0,13.83-15.95l8.4,3.43-5.81-6.95a161.83,161.83,0,0,0,11.19-17.79l9.06,2.27-7-6.24a185.3,185.3,0,0,0,8.53-19l9.52,1-7.92-5.28a148.83,148.83,0,0,0,5.87-20l9.57-.39-8.59-4.1a151,151,0,0,0,3-20.6l9.38-1.73Z" style="fill:#fff"/>
</svg>