<svg xmlns="http://www.w3.org/2000/svg" viewBox="0 0 529.68 529.68"><g id="Layer_2" data-name="Layer 2"><g id="Layer_1-2" data-name="Layer 1"><path d="M190.84,10.84c.33,0,.78-.14,1,0,3.29,2.64,6,5.66,6,10.2s0,9.33,0,14a22.2,22.2,0,0,0,6.08,6.4c2.36,1.69,4.56,3.61,6.84,5.43.49,3,1,5.78,1.46,8.8l1.48.27c.14-7.39.72-14.65-1.29-23a15.65,15.65,0,0,1,2.41,1.82,65.82,65.82,0,0,1,5.09,9.38c1.51,3,3.55,5.84,5.53,9l2.4-1.76V44.7c-2.05-4-4-7.72-5.89-11.5-1.3-7.77,3-14.11,5.89-21.87V2.84c1.6,1.73,3.21,3.45,5,5.39,0,3.14.84,6.76-.25,9.65-1,2.61.43,5.6-1.83,7.84.35.65,1,1.32,1,2,.06,2.29,1.28,3.87,2.79,5.36.48.46.94.94,1.42,1.41,2.65,2.59,5.47,5,7.08,8.78L242,49.53c.27.23.78.64,1.55,1.26l.73-1.54c.68-3.34.91-7,1.36-10.68.42-3.49,1-7,1.59-11.5.74,2.16,1.13,3.48,1.63,4.76a151.61,151.61,0,0,1,5.35,14.79c.34,1.25,1.45,2.29,2.7,4.17.69-2.11,1.92-3,2-4.7.15-4.86,0-9.62-3-13.87v-8.6a136.05,136.05,0,0,1,7.69-13.12c1-1.42,1-3.58,1.27-5.43a42.57,42.57,0,0,0,0-5.07c2.81,2.25,3.18,2.8,4,5.45.65,2.06,1.23,3.8.21,6.26-.9,2.18-1.18,4.78-2.2,7.09a9.36,9.36,0,0,0-1,3.08c-.15,2.15-.05,4.32-.05,6.44L274,39.83c-.27,2.9-.61,6.45-1.05,11.19,1.5-1.63,2.7-2.32,2.81-3.15.83-6.07,3.21-11.78,4.13-17.82.12-.8.9-1.5,1.65-2.67.84,7.76,3.33,14.6,4.37,21.75.11.73,1.21,1.32,2.3,2.42.87-2.87,3-4.63,2.62-7.35-.31-2.55.29-5.06-.69-7.71-2-5.42-1-10.1,2.47-14.89,2.26-3.09,4.68-6.07,7.06-9.08a14.45,14.45,0,0,0,3.17-9.68c2.06.47,1.81,2.31,2.28,3.76a12.43,12.43,0,0,1-.29,9.28c-1.57,3.19-3.19,6.35-5,9.9a6.76,6.76,0,0,1,0,1,14.67,14.67,0,0,0,3.43,11.11,15.41,15.41,0,0,1,2.51,5.91,6.46,6.46,0,0,1-1,5.51c-.95,1.19-1.37,2.15-.23,3.86.81-.76,2-1.34,2.23-2.16,1.2-5,4-9.34,5.62-14.18a14.8,14.8,0,0,1,2.26-4c-.58,4,1.59,7.52,1.28,11.49s-.51,7.76,1.37,11.42h2A17.66,17.66,0,0,0,322.8,43.9c-.07-1-.85-2-.92-3.09-.27-4.29.74-8.22,3.87-11.37s6.16-6.09,9.17-9.2c1.44-1.5,2.71-3.15,4.07-4.75v-6c3.29,3.28,2.82,7,2.85,9.84C340,25.51,335.67,29.45,333,34.19c-1.1,5.28,1.18,9.83,2.94,14.32,1.42,3.63.5,6.31-1.41,9.19-.52.8-.53,1.94-.87,3.29,3.81-.54,3.49-3.87,5-5.62a31.23,31.23,0,0,0,4.09-6.28c1.1-2.12,1.82-4.45,4-6.86,0,5.25.57,9.81-.19,14.13a79.37,79.37,0,0,0-.85,9.28l2,.28c2.17-1,2.79-3.27,4.11-5,1.64-2.1.44-4.59,1.71-6.84,1-1.76.2-4.53.38-6.72,2.13-6.78,8.13-9.74,13.29-13.33,3.3-2.3,6-4.55,6.63-8.75.07-.52.89-.94,1.36-1.42,3.43,6.29-.27,10.94-3.65,15.61-.87,1.19-2.15,2.09-3.14,3.21-1.27,1.42-2.44,2.93-3.32,4-1.22,5.28.37,9.88.69,14.55.27,4-.52,7.4-3.84,9.94-.18.14-.14.59-.28,1.29l2.18.4,13.67-16.79c.79,4.89-1.61,8.43-1.93,12.33-.3,3.69-2,7.25-1.81,11.55,2.76-.65,4.78-1.71,6-4.19a31.67,31.67,0,0,0,3.1-9.24,14,14,0,0,1,7.41-10.89c4.09-2.19,8.64-3.61,12.21-6.78,1.31-1.17,2.81-2.12,3.72-2.8.77-2.14,1.32-3.68,1.88-5.22l.66.08a69.05,69.05,0,0,1-.07,7.34,6.38,6.38,0,0,1-1.7,3.73c-2.62,2.43-4.54,5.6-8,7.2-1.28.6-2.16,2.05-3.22,3.11a6.79,6.79,0,0,0-2.06,5.15c.07,4.65,0,9.31,0,14l-5.27,6.72,1.31.8,16-14.14c.82,3.45-1.71,6-2.56,9-1.22,4.27-3,8.37-4.68,12.84h4.2a7,7,0,0,1,1.25-1.46c3.15-2.48,4.71-5.86,5.82-9.6,1.72-5.82,5.15-9,10.65-10.71,3.24-1,6.54-2,9.69-3.18,3.57-1.32,7.49-3.05,7.83-8.92,1.6,4,.26,6.66-.34,9.53-2.88,4-7.06,6.65-11.59,8.73s-5.74,6-6.21,10.35c-.35,3.35.35,6.81-1.74,10.59-1.37,1.11-2.71,3.52-5.13,4.35v3L431.7,96.2c-.16,1.32,0,2.1-.35,2.58-3.48,5.34-5.53,11.5-9.47,16.6-.32.41,0,1.3,0,2,2.37,1.37,4.39.13,6.07-1.21a16.57,16.57,0,0,0,5-5.91,33.28,33.28,0,0,1,3.28-6.12c2.14-2.91,5.64-4.13,8.83-5.08a26.25,26.25,0,0,1,6-1.26,33.7,33.7,0,0,0,7.07-1,9.92,9.92,0,0,0,3.54-2.24c1.34-1.13,2.5-2.45,4.48-4.43-1,5.38-1.9,9.59-6.52,11.76a64.55,64.55,0,0,1-7.19,3.19,16.33,16.33,0,0,0-8.54,6.61c-.61,3.11-1.12,6.71-2.06,10.18a9.18,9.18,0,0,1-5.08,6c-1,.46-1.91,1-3.26,1.72.68.51,1.23,1.24,1.71,1.2a8.89,8.89,0,0,0,3.08-1c4.27-2.17,8.5-4.43,12.77-6.6a6.84,6.84,0,0,1,1.84-.38v1c-2,3.92-4.91,7.28-7.41,10.89-1.53,2.19-3.22,4.27-5.22,6.89l5.73.29c4.48-2,7.29-5.62,9.56-9.42,2.09-3.52,5.33-4.68,8.66-5.55a34.69,34.69,0,0,1,12.52-1.08c4.27.48,7.65-1.32,11.37-4.41a26.33,26.33,0,0,1-.89,3.54c-2,4.65-6.06,6.63-10.61,7.83-1.82.47-3.72.63-5.56,1-3.8.83-6.73,3.92-8.18,8-1.53,4.32-3,8.72-7.12,11.5-1.61.85-4,.4-5.27,3.08,1.23.15,2.27.62,2.92.3,5.13-2.55,10.94-3.2,16-5.86.66-.34,1.64,0,2.47,0a2.77,2.77,0,0,1-1,2.58c-4.64,4.55-9.21,9.16-14.11,14.06l2,.51-.58.72h3.29c5.08-1.32,7.64-4.54,10.47-7.39a15.13,15.13,0,0,1,10.63-4.6c5.94-.28,11.67,1.72,17.52,1.08l5.77-3c-1.05,3.65-1.05,3.65-5.53,8.13l-15.43,2.36s-.58.3-1.16.52a10,10,0,0,0-5.83,5.81,19.8,19.8,0,0,1-3.35,6.12c-2.52,2.75-5.26,4.81-9.44,4v3l22.83-4.12c-6.85,5.82-13.5,9.87-19.91,15.56l3,1c4.67,1.16,8.79-1.45,12.63-4.57a17.13,17.13,0,0,1,9.94-3.89c4.55-.36,8.42,1.67,12.65,2.3,5.53.82,5.46,1.22,10.69-.12a8.26,8.26,0,0,1,2,0c0,.33.14.78,0,1-2.63,3.29-5.66,6-10.19,6s-9.33,0-13.87,0c-5.66,2.82-7.54,9.08-12.6,13L474,212.22l-.28,1.48c7.4.14,14.66.72,22.95-1.29a14.39,14.39,0,0,1-1.82,2.41,65.82,65.82,0,0,1-9.38,5.09c-3.05,1.51-5.84,3.55-9,5.53l1.76,2.4H485L496.49,222c7.76-1.3,14.1,3,21.87,5.89h8.48l-5.39,5c-3.14,0-6.76.84-9.65-.25-2.6-1-5.6.43-7.83-1.83-.66.35-1.33,1-2,1-2.3.06-3.88,1.28-5.36,2.79-.47.48-1,.94-1.42,1.42-2.58,2.65-5,5.47-8.78,7.08L480.15,242l-1.21,1.57,1.49.71c3.34.68,7,.91,10.68,1.36,3.48.43,7,.92,11.43,1.61-2.09.72-3.41,1.11-4.69,1.61a150.67,150.67,0,0,1-14.79,5.35c-1.25.34-2.29,1.45-4.17,2.7,2.11.69,3,1.92,4.71,2,4.85.15,9.62,0,13.86-3h8.6a137.45,137.45,0,0,1,13.13,7.69c1.41,1,3.57,1,5.43,1.27a42.38,42.38,0,0,0,5.06,0c-2.25,2.81-2.8,3.18-5.44,4-2.07.65-3.81,1.23-6.27.21-2.18-.9-4.78-1.18-7.08-2.2a9.51,9.51,0,0,0-3.08-1c-2.16-.15-4.33-.05-6.44-.05L489.85,274,478.67,273c1.62,1.5,2.31,2.7,3.14,2.81,6.08.83,11.78,3.21,17.82,4.13.79.12,1.49.89,2.67,1.65-7.75.84-14.6,3.33-21.75,4.37-.73.11-1.32,1.21-2.42,2.3,2.87.87,4.63,3,7.35,2.62,2.55-.31,5.06.29,7.71-.69,5.42-2,10.1-1,14.89,2.47,3.1,2.26,6.07,4.68,9.08,7.06a14.45,14.45,0,0,0,9.68,3.17c-.47,2.06-2.31,1.81-3.76,2.28a12.41,12.41,0,0,1-9.27-.29c-3.19-1.57-6.35-3.19-9.91-5a6.76,6.76,0,0,1-1,0,14.63,14.63,0,0,0-11.1,3.43,15.52,15.52,0,0,1-5.92,2.51,6.43,6.43,0,0,1-5.5-1c-1.2-.95-2.16-1.37-3.86-.23.75.81,1.33,2,2.15,2.23,5,1.2,9.34,4,14.18,5.62a14.8,14.8,0,0,1,3.95,2.26c-4-.58-7.52,1.59-11.48,1.28s-7.77-.51-11.43,1.37v2a17.69,17.69,0,0,0,11.92,3.53c1-.07,2-.85,3.09-.92,4.29-.27,8.21.74,11.36,3.87s6.09,6.16,9.21,9.17c1.49,1.44,3.14,2.71,4.75,4.07h6c-3.28,3.29-7,2.82-9.83,2.85-6.18-1.88-10.13-6.17-14.87-8.82-5.28-1.1-9.82,1.18-14.32,2.94-3.63,1.42-6.31.5-9.19-1.41-.79-.52-1.93-.53-3.29-.87.54,3.81,3.87,3.49,5.62,5a31.52,31.52,0,0,0,6.28,4.09c2.13,1.1,4.45,1.82,6.86,4-5.25,0-9.8.57-14.13-.19a79.17,79.17,0,0,0-9.28-.85c-.1.72-.18,1.34-.27,2,1,2.17,3.26,2.79,5,4.11,2.11,1.64,4.59.44,6.85,1.71,1.75,1,4.52.2,6.72.38,6.77,2.13,9.73,8.13,13.32,13.29,2.3,3.3,4.55,6,8.75,6.63.52.07.95.89,1.42,1.36-6.28,3.43-10.94-.27-15.6-3.65-1.2-.87-2.1-2.15-3.22-3.14-1.42-1.27-2.93-2.45-4-3.32-5.28-1.22-9.88.37-14.55.69-4,.27-7.39-.52-9.93-3.84-.15-.18-.6-.14-1.3-.28-.16.86-.31,1.72-.4,2.18l16.8,13.67c-4.9.79-8.44-1.61-12.34-1.93-3.68-.3-7.25-2-11.55-1.81.66,2.76,1.72,4.78,4.19,6a31.77,31.77,0,0,0,9.24,3.1A14,14,0,0,1,474,390.37c2.2,4.09,3.61,8.64,6.78,12.21a45,45,0,0,1,2.8,3.72l5.22,1.88-.08.66a69.05,69.05,0,0,1-7.34-.07,6.38,6.38,0,0,1-3.73-1.7c-2.42-2.62-5.6-4.54-7.2-8-.6-1.28-2.05-2.16-3.11-3.22a6.79,6.79,0,0,0-5.15-2.06c-4.65.07-9.3,0-14,0l-6.72-5.27-.8,1.31,14.14,16c-3.44.82-6-1.71-8.95-2.56-4.27-1.22-8.37-3-12.83-4.68v4.2a7.05,7.05,0,0,1,1.45,1.25c2.49,3.15,5.86,4.71,9.61,5.82,5.81,1.72,9,5.15,10.71,10.65,1,3.24,2,6.54,3.17,9.69,1.32,3.57,3.05,7.49,8.93,7.83-4,1.6-6.67.26-9.54-.34-4-2.88-6.65-7.06-8.72-11.59s-6.05-5.74-10.36-6.21c-3.35-.35-6.81.35-10.58-1.74-1.11-1.37-3.53-2.71-4.36-5.13h-3l13.12,18.67c-1.33-.16-2.1,0-2.58-.35-5.35-3.48-11.51-5.53-16.6-9.47-.42-.32-1.3,0-2,0-1.38,2.37-.14,4.39,1.2,6.07a16.57,16.57,0,0,0,5.91,5,33.37,33.37,0,0,1,6.13,3.28c2.9,2.14,4.13,5.64,5.07,8.83a26.25,26.25,0,0,1,1.26,6,34.37,34.37,0,0,0,1,7.07,9.92,9.92,0,0,0,2.24,3.54c1.13,1.34,2.45,2.5,4.43,4.48-5.38-1-9.59-1.9-11.75-6.52a66.5,66.5,0,0,1-3.2-7.19,16.28,16.28,0,0,0-6.61-8.54c-3.11-.61-6.71-1.12-10.18-2.06a9.18,9.18,0,0,1-6-5.08c-.46-1-1-1.91-1.72-3.26-.5.68-1.24,1.23-1.2,1.71a8.89,8.89,0,0,0,.95,3.08c2.17,4.27,4.43,8.5,6.61,12.77a7.24,7.24,0,0,1,.37,1.84h-1c-3.91-2-7.28-4.91-10.88-7.41-2.21-1.53-4.29-3.23-6.9-5.22-.12,2.36-.21,4.11-.29,5.73,2,4.48,5.62,7.29,9.42,9.56,3.52,2.09,4.68,5.33,5.55,8.66a34.47,34.47,0,0,1,1.08,12.52c-.48,4.27,1.32,7.65,4.41,11.37a27.15,27.15,0,0,1-3.54-.89c-4.65-2-6.63-6.06-7.83-10.61-.47-1.82-.63-3.72-1-5.56-.83-3.8-3.92-6.73-8-8.18-4.31-1.53-8.72-3-11.5-7.12-.85-1.61-.4-4-3.08-5.27-.15,1.23-.62,2.27-.3,2.92,2.55,5.13,3.21,10.94,5.86,16,.35.66,0,1.64,0,2.47a2.78,2.78,0,0,1-2.58-1c-4.54-4.64-9.16-9.21-13.78-13.83-2.62,1.22-1.31,3.56-1.49,4.47,1.31,5,4.52,7.56,7.37,10.39A15.1,15.1,0,0,1,373,482.47c.27,5.94-1.73,11.67-1.09,17.52,1,1.87,1.92,3.72,3,5.77-3.64-1.05-3.64-1.05-8.12-5.53-.75-4.87-1.52-9.89-2.37-15.43,0,0-.29-.58-.51-1.16a10,10,0,0,0-5.82-5.83c-2.14-.9-4.36-1.66-6.11-3.36-3.59-3.48-4-4.3-4.23-9.43H345c1.32,7.33,2.62,14.5,3.91,21.67-5.56-5.73-9.74-12.28-15.3-18.88l-1,3.13c-1.16,4.67,1.45,8.79,4.58,12.63a17.12,17.12,0,0,1,3.88,9.94c.37,4.55-1.66,8.42-2.29,12.65-.82,5.53-1.22,5.46.11,10.69a8.26,8.26,0,0,1,0,2c-.33,0-.78.14-1,0-3.29-2.63-6-5.66-6-10.19s0-9.33,0-13.87c-2.82-5.66-9.08-7.54-13-12.6-.39-2.34-.85-5.15-1.35-8.16l-1.49-.28c-.14,7.4-.72,14.66,1.29,22.95a14.39,14.39,0,0,1-2.41-1.82,64.78,64.78,0,0,1-5.08-9.38c-1.51-3.05-3.56-5.84-5.53-9l-2.41,1.76V485l5.89,11.51c1.3,7.76-3,14.1-5.89,21.87v8.48l-5-5.39c0-3.14-.84-6.76.25-9.65,1-2.6-.43-5.6,1.83-7.83-.35-.66-1-1.33-1-2-.06-2.29-1.28-3.88-2.79-5.36-.48-.47-.94-1-1.42-1.42-2.65-2.58-5.47-5-7.08-8.78.35-2,.7-4,1.1-6.25-.29-.21-.81-.62-1.58-1.21-.17.35-.44.92-.7,1.49-.68,3.34-.91,7-1.37,10.68-.43,3.48-.91,7-1.61,11.43-.71-2.09-1.1-3.41-1.61-4.69a148.07,148.07,0,0,1-5.34-14.79c-.35-1.25-1.46-2.29-2.7-4.17-.7,2.11-1.93,3-2,4.71-.14,4.85,0,9.62,3,13.86v8.6a137.39,137.39,0,0,1-7.68,13.13c-1,1.41-1.05,3.57-1.28,5.43a42.38,42.38,0,0,0,0,5.06c-2.81-2.25-3.17-2.8-4-5.44-.65-2.07-1.23-3.81-.21-6.27.9-2.18,1.19-4.78,2.2-7.08a9.79,9.79,0,0,0,1-3.08c.15-2.16,0-4.33,0-6.44l-8.16-11.52c.27-2.91.61-6.47,1.05-11.18-1.5,1.62-2.7,2.31-2.81,3.14-.82,6.08-3.21,11.78-4.13,17.82-.12.79-.89,1.49-1.64,2.67-.85-7.75-3.33-14.6-4.38-21.75-.11-.73-1.21-1.32-2.29-2.42-.88,2.87-3,4.63-2.63,7.35.31,2.55-.29,5.06.69,7.71,2,5.42,1,10.1-2.47,14.89-2.25,3.1-4.68,6.07-7,9.08a14.46,14.46,0,0,0-3.18,9.68c-2.06-.47-1.8-2.31-2.28-3.76a12.41,12.41,0,0,1,.29-9.27c1.57-3.19,3.2-6.35,5-9.91a6.76,6.76,0,0,1,0-1,14.63,14.63,0,0,0-3.43-11.1,15.52,15.52,0,0,1-2.51-5.92,6.43,6.43,0,0,1,1-5.5c.94-1.2,1.36-2.16.23-3.86-.82.75-2,1.33-2.24,2.15-1.2,5-4,9.34-5.61,14.18a14.58,14.58,0,0,1-2.27,3.95c.58-4-1.58-7.52-1.28-11.48s.58-7.78-1.47-11.43h-1.88a17.69,17.69,0,0,0-3.53,11.92c.07,1,.86,2,.92,3.09.27,4.29-.73,8.21-3.87,11.36s-6.15,6.09-9.16,9.21c-1.44,1.49-2.71,3.14-4.08,4.75v6c-3.29-3.28-2.82-7-2.84-9.83,1.88-6.18,6.16-10.13,8.81-14.87,1.1-5.28-1.18-9.82-2.94-14.32-1.42-3.63-.5-6.31,1.41-9.19.53-.79.53-1.93.87-3.29-3.81.54-3.49,3.87-5,5.62a31.52,31.52,0,0,0-4.09,6.28c-1.1,2.13-1.82,4.45-4,6.86,0-5.25-.57-9.8.19-14.13a77.08,77.08,0,0,0,.85-9.28l-2-.27c-2.18,1-2.79,3.26-4.12,5-1.63,2.11-.44,4.59-1.71,6.85-1,1.75-.2,4.52-.37,6.72-2.14,6.77-8.13,9.73-13.29,13.32-3.31,2.3-6,4.55-6.64,8.75-.07.52-.88.95-1.36,1.42-3.43-6.28.27-10.94,3.66-15.6.86-1.2,2.14-2.1,3.13-3.22,1.27-1.42,2.45-2.93,3.32-4,1.23-5.28-.36-9.88-.69-14.55-.27-4,.52-7.39,3.84-9.93.19-.15.14-.6.28-1.3l-2.56-.47c-.74,2.44-3.34,3.45-4.14,5.42-1,2.43-3.28,3.48-4.46,5.63-1.06,1.92-2.85,3.44-4.72,5.61-.76-4.69,1.64-8.23,2-12.13.3-3.68,2-7.25,1.81-11.55-2.76.66-4.78,1.72-6,4.19a32.07,32.07,0,0,0-3.1,9.24A14,14,0,0,1,139.31,474c-4.09,2.2-8.64,3.61-12.2,6.78-1.32,1.17-2.82,2.13-3.73,2.8l-1.87,5.22-.67-.08a66.49,66.49,0,0,1,.08-7.34,6.37,6.37,0,0,1,1.69-3.73c2.62-2.42,4.54-5.6,8-7.2,1.28-.6,2.16-2.05,3.22-3.11a6.79,6.79,0,0,0,2.06-5.15c-.06-4.65,0-9.3,0-14l5.28-6.72-1.32-.8-16,14.14c-.82-3.44,1.71-6,2.56-8.95,1.22-4.27,3-8.37,4.68-12.83h-4.19a7.77,7.77,0,0,1-1.25,1.45c-3.16,2.49-4.72,5.86-5.83,9.61-1.72,5.81-5.15,9-10.65,10.71-3.24,1-6.54,2-9.69,3.17-3.56,1.32-7.49,3.05-7.82,8.93-1.61-4-.27-6.67.33-9.54,2.89-4,7.06-6.65,11.59-8.72s5.68-6.06,6.22-10.36a46.22,46.22,0,0,0,0-6.3l1.5-4.07c1.42-1.11,2.63-3.79,5.31-4.38V421c-.34-.1-.54-.22-.63-.17-5.81,4-11.61,8.11-18,12.61.15-1.3,0-2.07.34-2.55,3.49-5.35,5.53-11.51,9.47-16.6.32-.42,0-1.3,0-2-2.37-1.38-4.39-.14-6.07,1.2a16.54,16.54,0,0,0-5,5.91,34.62,34.62,0,0,1-3.28,6.13c-2.15,2.9-5.65,4.13-8.84,5.07a26.14,26.14,0,0,1-6,1.26,34.37,34.37,0,0,0-7.07,1,9.9,9.9,0,0,0-3.54,2.25c-1.34,1.12-2.5,2.44-4.48,4.42,1-5.38,1.9-9.59,6.52-11.75a64.6,64.6,0,0,1,7.19-3.2,14.92,14.92,0,0,0,8-5.89c1.75-2.69,1.84-6,2.29-8.95.68-4.43,3.14-6.76,6.54-8.75a14.23,14.23,0,0,1,2.26-.81c-.86-.63-1.41-1.37-1.89-1.33a8.89,8.89,0,0,0-3.08.95c-4.27,2.17-8.5,4.43-12.77,6.61a7.15,7.15,0,0,1-1.84.37v-1c2-3.91,4.91-7.28,7.42-10.88,1.52-2.2,3.22-4.28,5.21-6.9l-5.72-.29c-4.48,2-7.3,5.62-9.57,9.42-2.09,3.52-5.33,4.68-8.66,5.55A34.47,34.47,0,0,1,53,403.82c-4.27-.48-7.65,1.32-11.37,4.41a27.15,27.15,0,0,1,.89-3.54c2-4.65,6.06-6.63,10.62-7.83,1.81-.47,3.71-.63,5.56-1,3.79-.83,6.74-3.91,8.17-8,1.55-4.51,3.24-9,7.66-11.87,1.77.2,3.11-.95,5.34-2.63-1.84-.23-2.88-.7-3.53-.38-5.13,2.55-10.94,3.21-16,5.86-.65.35-1.64,0-2.47,0a2.77,2.77,0,0,1,1-2.58c4.64-4.54,9.2-9.16,13.82-13.78-1.22-2.62-3.56-1.31-4.47-1.49-5,1.31-7.56,4.52-10.39,7.37A15.18,15.18,0,0,1,47.21,373c-6,.3-11.66-1.8-17.65-1l-5.63,2.9c1.64-5.69,5.36-8.7,10.45-9.05,3.35-.23,6.67-.83,10.18-1.3.35-.15.9-.43,1.48-.65A10,10,0,0,0,51.87,358c.9-2.14,1.69-4.34,3.35-6.12,2.54-2.7,5.21-4.93,9.44-3.85V345L41.83,349.1c6.85-5.82,13.5-9.87,19.89-15.54L59,332.32c-4.87-.94-9,1.67-12.84,4.8A17.12,17.12,0,0,1,36.17,341c-4.55.37-8.42-1.66-12.65-2.29-5.52-.82-5.46-1.22-10.69.11a8.25,8.25,0,0,1-2,0c0-.33-.14-.78,0-1,2.64-3.29,5.66-6,10.2-6s9.33,0,14,0a22.29,22.29,0,0,0,6.4-6.07c1.69-2.37,3.61-4.57,5.43-6.84l8.8-1.46L56,316c-7.39-.14-14.65-.72-23,1.3a15.41,15.41,0,0,1,1.82-2.42,64.78,64.78,0,0,1,9.38-5.08c3-1.51,5.84-3.56,9-5.53l-1.76-2.41H44.7l-11.49,5.88c-7.79,1.35-14.1-3.07-22-5.88H2.84L8,297c6-.76,11.85.33,18.22,1.6a3,3,0,0,1,1.48-.74c2.29-.06,3.87-1.28,5.36-2.79.46-.48.94-1,1.41-1.42a45.72,45.72,0,0,1,4.28-4.19A37.24,37.24,0,0,1,44,286.73l5.52,1,1.26-1.56-1.54-.72c-3.34-.68-7-.91-10.68-1.37-3.48-.43-7-.91-11.43-1.61,2.09-.71,3.41-1.1,4.69-1.61a149,149,0,0,1,14.79-5.34c1.25-.35,2.29-1.45,4.17-2.7-2.11-.7-3-1.87-4.7-2-5.68-.39-9.38.36-13.76,3H23.62a136,136,0,0,1-13.12-7.68c-1.42-1-3.58-1.05-5.43-1.28a42.57,42.57,0,0,0-5.07,0c2.25-2.81,2.8-3.17,5.45-4,2.06-.65,3.8-1.23,6.26-.21,2.18.9,4.78,1.19,7.09,2.2a9.63,9.63,0,0,0,3.08,1c2.15.15,4.32,0,6.55,0,1.74-1.32,3.48-2.71,5.29-4s3.69-2.43,6.32-4.16l11,1c-1.63-1.5-2.32-2.7-3.15-2.81-6.07-.82-11.78-3.2-17.82-4.13-.8-.12-1.5-.9-2.67-1.64,7.76-.85,14.6-3.33,21.75-4.38.73-.11,1.32-1.21,2.42-2.29-2.87-.88-4.63-3-7.35-2.63-2.55.31-5.06-.29-7.71.69-5.42,2-10.1,1-14.89-2.47-3.09-2.25-6.07-4.68-9.08-7a14.46,14.46,0,0,0-9.68-3.18c.47-2.06,2.31-1.8,3.76-2.28a12.43,12.43,0,0,1,9.28.29c3.19,1.57,6.35,3.2,9.9,5a6.76,6.76,0,0,1,1,0,14.67,14.67,0,0,0,11.11-3.43,15.41,15.41,0,0,1,5.91-2.51,6.43,6.43,0,0,1,5.5,1c1.2.94,2.16,1.36,3.87.23-.76-.82-1.34-2-2.16-2.24-5-1.2-9.34-4-14.18-5.61A14.53,14.53,0,0,1,32.91,215c4,.58,7.51-1.59,11.48-1.27s7.76.5,11.42-1.38v-2a17.66,17.66,0,0,0-11.91-3.53c-1,.07-2,.86-3.09.92-4.29.27-8.22-.73-11.37-3.87s-6.09-6.15-9.2-9.16c-1.5-1.44-3.15-2.71-4.75-4.08h-6c3.28-3.29,7-2.82,9.84-2.84,6.18,1.88,10.12,6.16,14.86,8.81,5.28,1.1,9.83-1.18,14.32-2.94,3.63-1.42,6.31-.5,9.19,1.41.8.53,1.94.53,3.29.87-.54-3.81-3.87-3.49-5.62-5a32.42,32.42,0,0,0-6.28-4.09c-2.11-1.12-4.55-1.65-6.68-4,5.07,0,9.63-.57,14,.19a77.27,77.27,0,0,0,9.28.85l.28-2c-1-2.18-3.27-2.79-5-4.12-2.1-1.63-4.59-.44-6.84-1.71-1.76-1-4.53-.2-6.72-.37-6.78-2.14-9.74-8.13-13.33-13.29-2.3-3.31-4.55-6-8.75-6.64-.52-.07-.94-.88-1.42-1.36,6.29-3.43,10.94.27,15.61,3.66,1.19.86,2.09,2.14,3.21,3.13,1.42,1.27,2.94,2.45,4,3.32,5.28,1.23,9.88-.36,14.55-.69,4-.27,7.4.52,9.94,3.84.14.19.59.14,1.29.28.16-.86.32-1.72.4-2.18L56.08,152.07c4.89-.79,8.44,1.57,12.33,1.94,3.68.35,7.29,1.77,11.58,1.93-.68-2.89-1.74-4.91-4.22-6.12a32,32,0,0,0-9.24-3.1c-4.62-.7-8.64-2.74-10.83-7.45-1.76-3.78-4-7.31-5.93-11A12,12,0,0,0,42,121.84a1.52,1.52,0,0,1-1.08-1,66.49,66.49,0,0,1,7.34.08A6.37,6.37,0,0,1,52,122.61c2.43,2.62,5.6,4.54,7.2,8,.6,1.28,2.05,2.16,3.11,3.22a6.79,6.79,0,0,0,5.15,2.06c4.65-.06,9.31,0,14,0l6.72,5.28.8-1.32-14.14-16c3.45-.82,6,1.71,9,2.56,4.27,1.22,8.37,3,12.84,4.68v-4.19a7.75,7.75,0,0,1-1.46-1.25c-2.48-3.15-5.86-4.72-9.6-5.83-5.82-1.72-9-5.15-10.71-10.65-1-3.24-2.23-6.42-3.12-9.72-1.14-4.26-3.12-5.87-8.08-8.16,3.06-1.24,5.76.1,8.63.7,4,2.89,6.65,7.06,8.73,11.59s6.06,5.59,10.35,6.24a17.69,17.69,0,0,0,3.49,0c5.41-.23,9.14,2.27,11.36,6.82h2.45c.09-.34.22-.54.16-.63-4-5.81-8.11-11.61-12.61-18,1.3.15,2.08,0,2.56.34,5.34,3.49,11.5,5.53,16.6,9.47.41.32,1.3,0,2,0,1.37-2.37.13-4.39-1.21-6.07a16.54,16.54,0,0,0-5.91-5,34.53,34.53,0,0,1-6.12-3.28c-2.91-2.15-4.13-5.65-5.08-8.84a26.14,26.14,0,0,1-1.26-6,33.7,33.7,0,0,0-1-7.07,10.15,10.15,0,0,0-2.24-3.54c-1.07-1.28-2.33-2.38-3.51-3.56l4,.33a27.06,27.06,0,0,1,4.2,1.9c3.08,2.05,3.55,5.9,5.66,8.63.3,4.59,3.34,7.47,6.49,10.41,3.43.67,7,1.18,10.5,2.12a9.18,9.18,0,0,1,6,5.08c.46,1,1,1.91,1.72,3.26.51-.68,1.24-1.23,1.2-1.71a8.89,8.89,0,0,0-1-3.08c-2.17-4.27-4.43-8.5-6.6-12.77a6.76,6.76,0,0,1-.38-1.84h1c3.92,2,7.28,4.91,10.89,7.42,2.19,1.52,4.27,3.22,6.89,5.21.12-2.36.21-4.11.29-5.72-2-4.48-5.62-7.3-9.42-9.57-3.52-2.09-4.68-5.33-5.55-8.66A34.69,34.69,0,0,1,125.86,53c.48-4.27-1.32-7.65-4.41-11.37a26.33,26.33,0,0,1,3.54.89c4.65,2,6.63,6.06,7.83,10.62.47,1.81.63,3.71,1,5.56.83,3.79,3.91,6.74,8,8.17,4.5,1.55,9,3.24,11.86,7.66-.19,1.77,1,3.11,2.63,5.34.23-1.84.7-2.88.38-3.53-2.55-5.13-3.2-10.94-5.86-16-.34-.65,0-1.64,0-2.47a2.76,2.76,0,0,1,2.58,1c4.55,4.64,9.16,9.2,13.78,13.82,2.62-1.22,1.32-3.56,1.49-4.47-1.3-5-4.52-7.56-7.37-10.39a15.23,15.23,0,0,1-4.61-10.63c-.29-6,1.8-11.66,1-17.65l-3-5.88c4,.7,5.79,3.52,8.24,5.73.75,4.91,1.52,9.93,2.37,15.47,0,0,.3.58.52,1.16a10,10,0,0,0,5.81,5.83c2.14.9,4.36,1.66,6.11,3.36,3.59,3.48,4,4.3,4.23,9.41a11.37,11.37,0,0,0,1.34.19,10.71,10.71,0,0,0,1.37-.18c-1.32-7.32-2.61-14.49-4.12-22.82,5.82,6.85,9.87,13.5,15.55,19.89L197.36,59c.94-4.87-1.67-9-4.79-12.84a17.13,17.13,0,0,1-3.89-9.94c-.36-4.55,1.67-8.42,2.3-12.65.82-5.52,1.22-5.46-.12-10.69A8.25,8.25,0,0,1,190.84,10.84ZM89.42,133.69c.68.76.88,1.14,1,1.12a8.7,8.7,0,0,0,1.4-.43c-.6-.18-1.2-.35,0,.46a6.31,6.31,0,0,0,.75,2.18,42.28,42.28,0,0,0,3.25,3.15v2.21L83.1,161.81a41.44,41.44,0,0,0-10-1.9l7.85,6.5L70.72,187.7c-3.41.42-6.67-.21-9.9.4,2.59,2.31,5.89,3.17,7.91,5.11-2.49,8.24-4.82,15.92-7.05,23.25l-3,1.54H49.81l10.29,4.44c-1,2.66.9,5.63-1.26,8.1.58,2.81-1.06,5.38-.93,8.08s-.6,5.37-1.4,8.22l-9.92,2.56,10.32,2.83c-.59,3.87,1,7.85-1,11.6a2.37,2.37,0,0,0,0,1.95c1.95,3.58.47,7.3,1,10.47l-9.92,4c3.52.39,6.83.6,9.86,2.17C57.9,290.44,59,298.47,60,306.13l-7.28,4,.16.71h8.25c2.32,8.06,4.5,15.67,6.74,23.46-1.1,1.11-2.19,2.36-3.45,3.41s-2.46,1.67-4.16,2.8a7.42,7.42,0,0,0,5.25-.49c1.47-.68,3.49-.15,5-.15,2.27,7.83,6.18,14.36,9.45,21.37L76,364.6V368l6.28-1.37c.88.95,2,1.67,2.4,2.67,2.26,5.77,6.26,10.44,9.54,15.56.62,1,.52,2.4.87,4.22l-3.28,3.26c0,.19,0,.85,0,2.3l-.05-.87-1.95.39.09.64a2.19,2.19,0,0,0,1.88-.94c.74-.23,1.48-.46,2.21-.71,1.76-.58,3.38-1.85,5.14-1.26,4.93,5.72,9.69,11.26,14.69,17.08.78,3.11-2.79,5.36-3.08,9.63,3.26-1.81,5-5.17,8.58-4.7,2.82,2.82,5.53,5.79,8.51,8.44s6.14,4.89,9.2,7.29a21.9,21.9,0,0,0-3.36,9.68l6.91-6.57,19.74,13c1.52,3.54-1.65,6.15,0,9.35l5.5-6.72c3.65,1.84,7.2,3.71,10.82,5.43s7.57,3.45,11.37,5.17v9.39l5-7.5,24,7.32v7.58l1.41.08,2.73-6.94c2.51.33,5,.09,6.83,1.06,2.12,1.13,4.17.4,6.14.91a18.3,18.3,0,0,0,6.1,1c2.24-.17,4.53-.25,6.28,1.21l1.67,7.8,1.31-.18c.54-2.57,1.09-5.17,1.66-7.9,4.39.44,8.82-.79,13.11,1a3.63,3.63,0,0,0,2.93,0c2.78-2,5.67-.36,8.68-1.08,1.21,2.93,2.26,5.5,3.35,8.16l1.75-1.63v-6.56c4.31.93,8-1.6,11.95-.86.33.06.75-.66,1.17-.72,3.79-.47,7.59-.87,11.55-1.31,1.29,2.44,2.49,4.73,4.1,7.77v-9c8.84-1.73,17.08-4.91,25-6.78l4.74,5.5c.53-2.69.62-4.85-1.16-7l24.11-10.4a45.18,45.18,0,0,0,3.18,3.28c.54.46,1.44.51,2.95.71l-.87.05.39,1.95.64-.08a2.2,2.2,0,0,0-.94-1.89c.6-2.37-2.13-4.43-.7-6.75L388,433.55c1.78,1.78,3.44,3.24,5.93,3.19l-.19.19.69.82.32-.32a3,3,0,0,0-.91-.59l-2.06-6L410,414.74c.55.2,1.28.45,2,.73,1.58.62,3,1.73,5,1.27l-.19.19.69.82.32-.32a3,3,0,0,0-.91-.59l-3.2-5.76c5.6-6.3,10.86-12.23,16.26-18.33l7.73,2.5c-1.38-3.24-3.9-4.35-4.79-6.12q7-10.94,13.38-21.05c2.71-1.24,4.94,2,7.81.26l-5.43-4.59,10.94-23.18H467c-1.82-2.37-5-2.14-6-4.08l7.32-24.58c2.77-.29,5.65.27,8.64-.37-2.67-2.14-6.13-2.09-8.14-4.22,2.58-8.55,2.45-17.06,4.25-25.07l8.57-1.81-8.91-2.51c.5-4.44-.7-8.54,1.1-12.46a1.88,1.88,0,0,0,0-1.47c-1.89-3.57-.54-7.31-1.07-11l8-3.56-.11-.66h-7.76c.12-4.24-1.78-7.94-1.07-11.89,0-.16.07-.4,0-.49-2-2.13,0-5.07-1.14-7-1.48-2.47-.32-4.81-.93-7.07l6-2.94-.16-.67h-7.16c-2.39-8.4-4.64-16.33-6.92-24.33l6-4.61h-8.72a6.77,6.77,0,0,0,0-2.3c-2.51-5.3-5.11-10.55-7.63-15.84-.65-1.37-1.08-2.84-1.48-3.9,1.61-1.9,2.88-3.38,4.13-4.89.08-.1,0-.32,0-.63-2.25-1.59-4.13,1.85-6.47.55-5.14-6-7.91-13.84-13.44-19.46-.53-1.8.52-2.67,1.5-3.56s1.77-1.55,1.31-3l.19.2.82-.7-.32-.32a3.1,3.1,0,0,0-.59.91L430.61,138,414.74,119.7c.2-.54.44-1.27.72-2,.64-1.57,1.74-3,1.28-5l.19.2.82-.7-.32-.32a3.1,3.1,0,0,0-.59.91c-2.48-.43-3,2.21-4.56,2.94h-1.49l-18-15.82c0-.94-.51-2.64.12-3.48a5.59,5.59,0,0,0,.88-3.64l1.1-.51c-1.09-.65-1.86-.88-2.1.51l-3.65,2.91h-2L367.91,83.12c-.84-2.69,2.34-5.29.49-8.22l-5,6.06-22.7-10.78v-8l-4.35,6.52-24.47-7.31c-.18-2.77.21-5.61-.32-9-1.62,3.28-2.92,5.89-4.14,8.35-3.34-.64-6.55-1.51-9.81-1.81-3.53-.32-6.93-1.45-10.58-1.2-1.66.11-3.43-1.2-4.66-1.68-.67-3.1-1.22-5.64-1.91-8.85-1.08,3.72-1.94,6.68-2.83,9.76-4-.65-8,1-11.76-1.06a2.39,2.39,0,0,0-2,0c-3.41,1.89-7.07.48-10.44,1-2.19-2.67-1.56-6.57-4.45-9.38-.47,3.51.62,6.77-1.62,9.17a38.25,38.25,0,0,1-4.66,1.12,43.71,43.71,0,0,1-5,0c-.49,0-1.17-.15-1.44.11-2,1.87-4.7,0-6.58,1-2.25,1.22-4.37.61-6.72,1l-4.08-7.77v9.4c-3.11.54-5.8,1.48-8.5,2s-5.33,2.17-8.08,2.18c-3,0-5,3.24-7.83,2.08l-5.83-8c.53,4,.91,6.89,1.27,9.63A10.85,10.85,0,0,1,188,70.82c-6.08,2.25-11.67,5.56-17.65,8-1,.4-1.92.89-2.54,1.18-2.27-2-4.12-3.58-6.06-5.08l.2-.2-.7-.82-.32.32a3.1,3.1,0,0,0,.91.59c.37,2.94.73,5.88,1.06,8.46A108.06,108.06,0,0,0,142.78,96c-2.35-1.63-4.1-3.83-7-4.08l.2-.2-.7-.82-.32.32a3.1,3.1,0,0,0,.91.59c-.86,2.81,2.27,4.5,2,7.41l-18.17,15.9c-2-1-3.87-1.93-5.83-2.8a12.27,12.27,0,0,0-2.55-.42l4.73,6.81-16,18.37C97.18,136.5,94.77,134.61,89.42,133.69ZM341.51,60.84h-.34v1h.34Zm-290,250h-.34v1h.34Zm22.66,58h.34v-1h-.34Zm266.34,99h-.34v1h.34Z" style="fill:#fff"/><path d="M319.84,204.29c3.57-3.56,7.15-7.15,10.7-10.7l-4.8-4.17q.7-10.69,1.42-21.4c11.83,6.59,26.47,20.9,34.86,34.82a36.45,36.45,0,0,1-4.07,0c-5.93-.68-11.7,1.12-17.78,1.07l-3.85-4.67-10.6,10.6c1.86.09,4.63,0,7.39,0a70.69,70.69,0,0,0,8.49-.07c2.69-.32,5.31-1.12,8.09-1s5.33,0,8,0h16.73c.47-1.28.8-2.31,1.23-3.3,2.93-6.62,6.26-13.09,8.69-19.89,1.41-4,3.74-7.41,4.88-11.5s3.42-7.57,5.14-11.35c.57-1.26.94-2.6,1.59-4.42,20.52,26.49,33.15,55.51,36.78,88.66-16.71-6.49-33.05-12.85-49.41-19.17a4.61,4.61,0,0,0-1.73,0c-11.43,9.18-20.93,20.07-31.31,30-1.17,1.13-2.42,2.17-4.19,3.75h15.65v-7.41l15.9-14.45a132.52,132.52,0,0,1-.07,50.29c-1.19-1.19-2.13-2.2-3.15-3.14-4.21-3.88-8.45-7.74-12.62-11.56v-7.32H346.38l34.59,34c2.3-.45,4.5-.42,6.24-1.31,5.65-2.89,11.67-4.82,17.51-7.23,5-2.06,10-4,15.12-5.74,4.21-1.47,8.25-3.42,12.89-5.37-3.54,33.24-16.21,62.16-36.45,88.51a11,11,0,0,1-1.4-2.58c-.66-2.9-2.49-5.26-3.37-8.13-1.25-4.08-3.93-7.7-5.42-11.73-2.25-6.08-5.35-11.78-7.33-18-1.07-3.35-3-6.42-4.54-9.68-2,0-4.21-.1-6.36,0-13.06.72-26-1.57-39.09-1-1.27.06-2.56,0-3.41,0l10.71,10.71,4.2-4.81,21.37,1.42c-6.4,11.61-20.67,26.3-34.8,34.88,0-1.53-.09-2.81,0-4.08.52-5.91-.78-11.72-1.25-17.63l4.84-4-10.57-10.57c-.1,4.67-.67,10.35.15,15.8s.69,10.74.79,16.11c.1,5.64,0,11.27,0,16.67,1.42.58,2.58,1,3.71,1.51,6.48,2.86,12.82,6.11,19.47,8.48,4,1.41,7.41,3.74,11.51,4.88s7.56,3.42,11.35,5.14c1.25.57,2.58,1,4.4,1.62-26.47,20.49-55.48,33.14-88.65,36.76,6.5-16.7,12.86-33,19.18-49.4a4.46,4.46,0,0,0,0-1.74c-9.17-11.42-20.06-20.92-30-31.3-1.13-1.17-2.19-2.41-3.75-4.14v15.58h7.4c4.67,5.14,9.48,10.43,14.3,15.75-8.27,2-16.61,2.43-25.06,2.44a106.6,106.6,0,0,1-24.95-2.48c1-1.05,2.07-2,3-3,3.88-4.21,7.74-8.45,11.56-12.62h7.33v-15.3c-11.38,11.82-23.37,22.41-33.86,35.25.29,1.5.26,3.69,1.15,5.43,2.87,5.66,4.82,11.68,7.23,17.51,2.06,5,3.94,10,5.74,15.12,1.49,4.21,3.41,8.26,5.36,12.89a161.39,161.39,0,0,1-47.12-11.95,180.84,180.84,0,0,1-41.6-24.69l50.31-21.76V361.87c0-3.66,0-7.33,0-11s1.46-7.27,1.09-11.09c-.36-3.63-.08-7.32-.08-11v-3.46l-10.72,10.72,4.82,4.22q-.7,10.65-1.41,21.36c-11.44-6.25-26.17-20.49-34.91-34.79a39.15,39.15,0,0,1,4.08,0c5.93.69,11.71-1.1,17.79-1.07l4.19,5c.12,0,.36.07.44,0,3.4-3.64,6.79-7.29,10.08-10.83a73.74,73.74,0,0,0-16.06,0,130.07,130.07,0,0,1-16.11.78c-5.64.1-11.28,0-16.69,0-.57,1.41-1,2.56-1.5,3.69C151,331,147.9,337.4,145.29,344c-2.11,5.31-4.85,10.34-6.72,15.72-1.17,3.36-3.5,6.23-4,9.86-.06.39-.67.71-1.22,1.26a182.34,182.34,0,0,1-24.5-41.53,167.57,167.57,0,0,1-11.94-46.85c8.84,3.59,17.1,7.4,25.67,10.29s16.67,7.47,25.35,9.38c11.82-9.63,21.5-20.82,32.15-31,.94-.91,1.94-1.74,3.43-3.05H168v7.38l-15.73,14.31c-2-8.25-2.45-16.6-2.45-25a104.08,104.08,0,0,1,2.48-25c1,1,2,2.05,3,3,4.22,3.88,8.45,7.74,12.63,11.57v7.32h15.29c-11.8-11.36-22.39-23.36-35.23-33.85-1.49.29-3.69.27-5.42,1.15-5.67,2.86-11.69,4.8-17.51,7.23-5,2.06-10.06,3.9-15.13,5.73-4.19,1.52-8.25,3.42-12.9,5.37a161.5,161.5,0,0,1,12-47.1,180.55,180.55,0,0,1,24.69-41.62c7.31,16.9,14.53,33.58,21.76,50.31h1.93c4.83,0,9.66,0,14.49,0a99.51,99.51,0,0,1,14.61.83c4.72.73,9.64.16,14.48.16h3.51l-10.73-10.73-4.25,4.83-21.34-1.41c6.09-11.26,20.3-26,34.77-34.93a36.75,36.75,0,0,1,0,4.09c-.68,5.93,1.1,11.7,1.08,17.79l-5.06,4.21c0,.09-.07.34,0,.42,3.64,3.4,7.29,6.79,10.82,10.07a72.2,72.2,0,0,0,0-16c-.78-5.4-.69-10.74-.79-16.11-.1-5.63,0-11.27,0-16.7-1.39-.57-2.55-1-3.67-1.5-6.48-2.86-12.88-5.93-19.46-8.55-5.3-2.11-10.34-4.82-15.71-6.72-3.35-1.18-6.24-3.48-9.86-4-.4-.06-.72-.67-1.28-1.23,26-20.15,55-32.78,88.38-36.43-3.58,8.82-7.37,17.08-10.29,25.64s-7.4,16.69-9.4,25.38c10.54,12.76,22.76,23.25,34.07,35.31V167.9h-7.47L240,152.22c8.22-2,16.56-2.46,25-2.45,8.29,0,16.49.41,25,2.47-1,1-2.05,2-3,3-3.77,4.1-7.52,8.22-11.42,12.48h-7.47v15.41c6-6,11.71-11.61,17.33-17.37S296.34,154.33,302,148.4c-.39-2-.37-4.14-1.24-5.88-2.84-5.67-4.62-11.76-7.28-17.49-2.08-4.48-3.6-9.18-5.43-13.75s-3.94-9-5.34-14.29c33.08,3.54,62.09,16.26,88.45,36.62l-50.29,21.74c0,5.11,0,10.27,0,15.43a109.44,109.44,0,0,1-.84,14.67c-.72,5.06-.16,10.31-.16,15.47Zm-82.85-99c-5.85-.24-23.33,4.64-36.53,10.48-10.11,4.48-20,9.44-29.12,16.27,4.94,2.37,9.25,4.84,13.84,6.55,6.94,2.58,13.6,5.8,20.46,8.55a29.41,29.41,0,0,0,3.08.86c.38-6.35-.23-12.24.49-19.5l13.27,13.27C227.7,130,232.24,117.62,237,105.27Zm121.72,26.85A168,168,0,0,0,327,114.83a149.76,149.76,0,0,0-34.54-10c5.05,12.85,9.48,25.25,14.84,37,.72,0,1,.07,1,0L320,130.18c.11-.12.25-.31.35-.29s.24.21.53.5v17.28c.63.07,1.18.31,1.55.14C334.3,142.71,346.13,137.57,358.71,132.12ZM171,397.58a171.21,171.21,0,0,0,31.7,17.27,151.41,151.41,0,0,0,34.59,10c-5.11-12.84-9.47-25.27-15.16-37.77l-2.85,2.81-2.47,2.48-2.83,2.83-2.48,2.47c-.73.72-1.44,1.47-2.51,2.47-.35-6.58.23-12.49-.39-18.93Zm-39-39.17c2.47-5.11,5.05-9.53,6.78-14.26,2.49-6.82,5.69-13.32,8.32-20,.37-1,.61-2,1-3.26H130.62a.86.86,0,0,1-.43-.15,2.26,2.26,0,0,1-.34-.35c2.12-2.12,4.31-4.18,6.34-6.38s4.56-3.74,6-6.82l-37.21-14.69c.17,5.62,1.61,10.65,3,15.44C113.35,325.69,120.76,342.63,132,358.41ZM381.2,320.74c5.48,12.95,10.65,25.2,16.31,37.49,14.7-18.9,26.22-51.65,27-65.42-11,3.61-21.48,8.53-32.37,12.29a36,36,0,0,0-4.78,2.57c1.54,1.61,2.87,3,4.23,4.41s2.83,2.83,4.24,4.24l4.42,4.42ZM132.1,170.91C118.16,191.51,109,213,104.69,237.23c12.9-5,25.28-9.49,37.89-15.15l-13.35-13.35h19.26C143,196.05,137.73,183.91,132.1,170.91Zm265.67.32c-2.45,5-5.09,9.37-6.71,14.09-1.22,3.53-3,6.77-4.27,10.25s-2.93,6.78-4.33,10.2a17.54,17.54,0,0,0-.65,3.22h18.26c-4.19,4.64-8.76,8.39-12.73,13.25,12.47,5.4,24.75,10.11,37.66,14.92A168.37,168.37,0,0,0,397.77,171.23ZM358.48,397.78c-5-2.44-9.37-5-14.08-6.69-3.52-1.22-6.76-3-10.23-4.29s-6.79-2.91-10.21-4.31a21.4,21.4,0,0,0-3.23-.73v18.47l-4.42-4.42c-1.41-1.41-2.82-2.84-4.24-4.24s-2.8-2.69-4.54-4.36c-5.56,12.54-10.09,24.9-15,37.79C316.69,420.66,338.21,411.51,358.48,397.78ZM214.84,144.34c0,1.59,0,2.55,0,3.52.31,8.34-.1,16.67.78,25.06.93,8.88.21,17.94.21,26.92v6.07c24.33-15.53,22.2-12,42.22-17.6a17.71,17.71,0,0,1-1.58-1.35c-9.32-9.84-19.61-18.71-28.31-29.16C224.29,153.14,219.64,149.14,214.84,144.34ZM188.62,271.76c-10.72,9.73-19.88,20.68-30.86,29.8-4.65,3.85-8.64,8.5-13.42,13.28,1.66,0,2.62,0,3.57,0,8.35-.31,16.67.08,25.06-.79,8.89-.93,17.95-.21,26.93-.21h6.63c-5.72-6.28-9.07-13.13-12.14-20S189.91,279.28,188.62,271.76Zm135.14-55.92a17.5,17.5,0,0,0,1.53,2.91c7,8.45,10.84,18.33,13.67,28.8.91,3.37.26,7.14,2.49,10.19,7.19-7.2,14.33-14.41,21.55-21.54s15.18-13.27,22-21.36c-1.79,0-3.1.06-4.4,0-10.38-.56-20.69.84-31,1C341.11,215.94,332.64,215.84,323.76,215.84ZM271.79,341l43,44.39c0-2.47,0-4.11,0-5.75-.13-7.86-.06-15.69-.83-23.56-.78-8.08-.17-16.29-.17-24.44,0-1.5,0-3,0-4.49,0-1.1-.09-2.2-.17-3.84-6.06,5.5-12.78,8.78-19.61,11.84C287,338.25,279.54,339.64,271.79,341Zm113.9-26.13c-9.43-9-18.22-17.2-26.89-25.57-5.91-5.72-11.65-11.62-17.79-17.76-1.34,8-2.83,15.46-5.85,22.51a85,85,0,0,1-11.48,19.54,9.3,9.3,0,0,0,1.4.27c7,0,14-.09,21,0s13.68-.22,20.57.79C372.45,315.52,378.52,314.84,385.69,314.84ZM314.84,144.23,272,188.46c1.36.44,2.84,1.33,4.29,1.3,3.59-.08,6.86,1.11,10.14,2.13a70,70,0,0,1,20.86,9.9c2,1.43,4.09,2.65,6.52,4.21v-3.22c0-9.65-.07-19.3,0-28.95,0-3-.82-6.2,1-9.07Zm-100,241.22,43-44.39c-5.05-1.17-10.26-1.58-15.12-3.29A130.19,130.19,0,0,1,229.1,332c-4.64-2.23-8.52-5.53-13.26-8.24v22.67c0,3.66-.26,7.34.07,11,.35,3.81-1.23,7.32-1.11,11.07C215,373.77,214.84,379.09,214.84,385.45ZM188.63,257.8c1.15-5.08,1.57-10.29,3.28-15.14a130.19,130.19,0,0,1,5.78-13.58c2.25-4.63,5.53-8.51,8.26-13.24-10.8,0-21.25.07-31.69,0-3.2,0-6.54.87-9.57-1H144.23C159.36,229.49,173.93,243.58,188.63,257.8Zm6.21,3.88h29.67l1.22-1.22a29,29,0,0,1,5.61-16.66,51,51,0,0,0,2.86-5.09l-21-20.94a94.4,94.4,0,0,0-6.16,7.43c-1.81,2.68-2.94,5.8-4.69,8.52-2.63,4.12-3.37,8.93-5.22,13.32-1.68,4-.78,8.48-2.3,12.53A6.93,6.93,0,0,0,194.84,261.68Zm121.77-43.76-21,21c.58,2.59,2.9,4.5,4.22,7s1.71,5.41,3.12,7.67c1.66,2.63-.52,6,2.07,8.11h30.18c-1.87-5.38-1.32-10.83-3.27-16a140.55,140.55,0,0,0-6-14.49A72.42,72.42,0,0,0,316.61,217.92ZM224.52,268H194.73c.72,4.72,1.22,9.28,2.18,13.74a39.59,39.59,0,0,0,3.14,9.66c2.89,5.68,5.45,11.6,9.78,16.43,1.18,1.32,2.28,2.72,2.95,3.52l21.09-21.08c-1.74-2.94-4.17-6.09-5.55-9.65s-3.32-7.26-2.43-11.25Zm-6.71,48.69c2.76,2.08,5.35,4.23,8.14,6.1a65.13,65.13,0,0,0,8.06,4.63c2.92,1.37,5.73,2.95,9.06,3.51,3,.5,5.85,2.69,8.76,2.68,3.37,0,6.54,1.71,9.9,1.12V305.23a6.5,6.5,0,0,0-1.18-1.14,3.21,3.21,0,0,0-1.39-.24c-5.67-.14-10.55-2.38-15.29-5.33-1.64-1-2.94-3.11-5.15-2.72Zm43.95-122.2c-2.35.52-4.17,1.08-6,1.29a40.62,40.62,0,0,0-6.11.91c-6.53,1.71-15.76,4.64-21.05,8.22-3.73,2.53-7.75,4.86-10.44,8.19l20.93,20.93c2.45-.69,4.38-3,6.85-4.25s5.42-1.71,7.67-3.11c2.63-1.65,6,.64,8.18-2.29Zm7.72,31.34a18.91,18.91,0,0,1,8.52,1.53c2.87,1.22,5.81,2.11,8.25,4.25,1.33,1.18,3.2,1.74,4.7,2.51.47-.41.6-.51.71-.62l20.26-20.25c-12.49-11.45-27.33-17-44.08-18.42v26.43a8.17,8.17,0,0,1,0,1A3.17,3.17,0,0,0,269.48,225.85ZM268,334.92c4.86-.71,9.7-.84,14.17-2.21,6.45-2,12.9-4.26,18.66-7.92,3.89-2.47,7.5-5.39,10.82-7.81l-21.3-21.31c-6.19,4-12.74,8.48-21,8.22L268,305.2Zm27.37-44.07L316.48,312c2.13-2.65,4.42-5.15,6.31-7.93a68.67,68.67,0,0,0,4.78-8.49,42.84,42.84,0,0,0,3.33-8.62c.75-3.14,2.22-6.12,2.86-9.27a86.93,86.93,0,0,0,.94-9.66H305.17l-1.27,1.27C304.18,277.54,299.65,284.05,295.35,290.85Zm-22.06-29.18h24.39c.1-5-3.16-14.49-7-17.42Zm-11.53-30.09c-6.9,1.22-13.1,2.81-17.92,7.76l9,9c2.82,2.82,5.64,5.65,8.87,8.86Zm11,36.38,17.8,17.79c4.47-4.94,6.6-10.95,7.38-17.79Zm-41.18,0c1.23,6.85,2.77,13.08,7.12,17.3L256,267.94Zm54.32-28.68c-5.19-4.73-11.23-6.73-18.08-7.54,0,8.43,0,16.39,0,24.34a.89.89,0,0,0,.15.43,2.24,2.24,0,0,0,.32.37Zm-46.66,4.51c-4.75,5.16-6.71,11.22-7.51,17.82h25.34Zm22.41,53.87V273.15l-17.5,17.5C247.36,294.55,256.66,297.84,261.67,297.64Zm23.94-7L268,273.08V298C274.81,297.09,280.92,295.16,285.61,290.66Z" style="fill:#fff"/><path d="M234.92,146.84c-.5-3.91,1.8-6.41,2.79-9.33,2.73-8,6.39-15.68,9.17-23.69,1.77-5.08,4-10,6-15,3-7.76,6.51-15.3,9-23.24a52.27,52.27,0,0,1,2.9-6.12,7,7,0,0,1,1,1.45c.76,2.19,1.17,4.54,2.22,6.57,3.75,7.28,6.2,15.1,9.35,22.62,2.72,6.51,5.2,13.17,7.51,19.88,1.35,3.91,3.32,7.61,4.93,11.44s2.57,8.25,4.93,12c.45.71.06,2,.06,3.23-3.2,1-6-1.1-9.07-1.36-.46,0-.92-.42-1.33-.36-2.8.38-5.39-.77-8.09-1s-5.66,0-8.49,0c-2.17,0-4.34-.09-6.5,0-4,.21-8-.09-12.12.78-3.82.81-7.8,1.08-11.63,2.17A11.09,11.09,0,0,1,234.92,146.84Z" style="fill:#fff"/><path d="M234.77,382.45A132.75,132.75,0,0,0,265.13,386a134.73,134.73,0,0,0,29.18-3.33c.95,2,.28,3.43-.4,5.14q-4.55,11.61-9.2,23.17c-2.78,6.85-5.27,13.81-8.08,20.64-3,7.4-6.27,14.73-8.82,22.33-.68,2-1.71,3.94-2.7,6.19-.44-.37-1.07-.65-1.23-1.1-.86-2.32-1.38-4.78-2.43-7-4.27-9.06-7-18.78-11.61-27.67-.69-5-3.3-9.3-5-13.91s-3.78-9.1-5.54-13.69a108.76,108.76,0,0,0-4.2-10.26C234.61,385.56,234.88,384.28,234.77,382.45Z" style="fill:#fff"/><path d="M460,265.09c-8.44,4-17.17,6.93-25.64,10.51-4.63,2-9.46,3.74-14.27,5.4-4.61,1.59-9.11,3.76-13.66,5.58-6.57,2.64-13.2,5.13-19.72,7.88a14.86,14.86,0,0,1-3.54.55c-1-3.23,1.22-6,1-8.95,0-.54.73-1.18.63-1.68-.57-3,1.12-5.68,1.06-8.59s0-6,0-9a92.22,92.22,0,0,1,.08-10c.37-3.34-1-6.35-1.13-9.59a30.13,30.13,0,0,0-1.9-9.18c-.31-.86-.05-1.93-.05-3.28,1.46.18,2.81.05,3.89.53,9,4,18.21,7.52,27.37,11.11,8.3,3.26,16.69,6.38,25,9.61,5.57,2.16,11.24,4.22,16.65,6.83,1.13.54,2.16,1.42,3.6,1.06C459.45,263.88,459.75,264.67,460,265.09Z" style="fill:#fff"/><path d="M69.78,265.51c.11-.7.09-1.24.23-1.29,9.22-3,18-7.13,27.12-10.53,6.9-2.58,13.81-5.25,20.59-8.2,8.46-3.69,17.29-6.49,25.61-10.56.8-.39,2-.05,3.15-.05a4.34,4.34,0,0,1-.14,4c-1.08,2,.11,4.5-1.5,6.37.07,5.22-1.45,10.3-1.07,15.58.33,4.47.11,9,0,13.48a17.47,17.47,0,0,0,1,6.11c.67,1.91-.19,4,.9,6.15s.87,5.24,1.23,7.94c-2,.81-3.5,0-5.16-.62-7.73-3-15.51-6-23.16-9.22-7-2.91-14.08-5.38-21-8.41-8.31-3.64-17-6.41-25.2-10.33A9.49,9.49,0,0,0,69.78,265.51Z" style="fill:#fff"/><path d="M159.54,203.41c-3.9-9-7.35-17.37-11.16-25.62-3.54-7.68-6.78-15.5-10.14-23.26s-7-15.75-10-23.81c-.43-1.14-1-2.23-1.89-4.17,1.48.62,2.21,1,3,1.23,3,1.1,6,2.74,8.94,3.66s5.82,2.78,9.05,3.6c4.09,1,7.73,3.77,11.72,5.39,6,2.43,11.74,5.4,17.9,7.42a4.47,4.47,0,0,1,.83.39c7.8,4,16,7.12,24.07,10.6.39.17.75.39,1.47.76-2.46,2.87-5.75,4.16-8.46,6.14s-5.34,4-7.9,6.14c-2.77,2.3-5.37,4.82-7.93,7.36a75.46,75.46,0,0,0-7.08,7.57c-2.1,2.75-4.21,5.54-6.26,8.3C163.73,197.68,162.58,201,159.54,203.41Z" style="fill:#fff"/><path d="M159.88,326.51c2.73,3,4.41,6.72,6.93,9.81s5.05,6.63,7.81,9.73a111.21,111.21,0,0,0,8.82,8.82c3.1,2.77,6.42,5.3,9.75,7.78s6.59,4.63,10.32,7.22c-3.81,1.83-6.94,3.89-10.38,4.84A63.36,63.36,0,0,0,182.89,379c-9.33,4.39-19,8.05-28.31,12.45-6.79,3.21-13.87,5.87-20.76,8.94-2.1.93-4.3,1.67-6.79,2.63a5.33,5.33,0,0,1,0-1.8c1.36-3.1,3.17-6.06,4.1-9.27s2.75-6.2,3.91-9.4c1.34-3.69,3.34-7.24,4.82-11,1.31-3.29,3.29-6.33,4.32-9.68s2.78-6.17,3.84-9.43,3.06-6.34,4.43-9.63c2.13-5.11,4.49-10.12,6.39-15.33C159,327.21,159.29,327.05,159.88,326.51Z" style="fill:#fff"/><path d="M370.37,326.38c1.12,4.21,3.27,7.59,4.54,11.39a96.56,96.56,0,0,0,3.93,8.85c2.89,6.46,6,12.83,8.59,19.41,2.08,5.31,4.61,10.4,6.79,15.66,2.81,6.83,5.74,13.6,8.61,20.4,0,.1-.1.28-.32.8-2.63-1-5.34-1.92-7.94-3.08-3.52-1.56-6.8-4-10.46-4.79-3.91-.87-6.8-3.57-10.74-4.39-3.66-.76-7-3.2-10.47-4.77q-4.84-2.14-9.83-4c-3.32-1.22-6.24-3.24-9.75-4.23s-6.62-3.23-10-4.76c-2.1-.94-4.35-1.56-6.79-2.42.4-.73.55-1.5,1-1.74a61.17,61.17,0,0,0,9.69-6.73c.46-.37,1.22-.37,1.68-.74,2.13-1.72,4.31-3.41,6.29-5.3,3.6-3.45,7.22-6.91,10.57-10.61a127.31,127.31,0,0,0,8-10.14c1.74-2.38,3.12-5,4.73-7.51C368.85,327.21,369.52,327,370.37,326.38Z" style="fill:#fff"/><path d="M403.14,127.22c-4,9-8,17.7-11.62,26.51-3.28,8-7,15.72-10,23.83-1.52,4.17-3.87,8-5.66,12.13-1.92,4.35-3.63,8.8-5.55,13.51-.81-.56-1.8-.88-2-1.46-1.18-3.38-3.86-5.72-5.73-8.61a64.57,64.57,0,0,0-8.8-10.85q-3.37-3.33-6.71-6.7c-3.73-3.79-8.14-6.69-12.36-9.85-2.6-2-5.74-3.23-8.38-5.88a15.47,15.47,0,0,1,3.3-2c3.9-1.07,7.4-3,11.13-4.5,6.87-2.68,13.33-6.35,20.4-8.61,2.76-.88,5.28-2.5,7.95-3.7,6.59-3,13.14-6.06,19.84-8.77,4.28-1.73,8.55-3.47,12.72-5.45C401.9,126.76,402.27,127,403.14,127.22Z" style="fill:#fff"/><path d="M276,464.52l-1.29-22,.43,0,1.42,22Zm-32.13-.63-.49-.05,2.2-21.89.5.05Zm48.41-1-3.1-21.78.43-.07,3.22,21.77Zm-64.55-1.26-.55-.1,4-21.63.44.08Zm80.65-1.7-4.91-21.45.5-.11,4.89,21.45ZM211.71,458l-.54-.15L217,436.66l.42.11Zm112.38-2.37-6.57-21,.42-.13,6.69,21Zm-128-2.51-.54-.19,7.5-20.69.4.14Zm143.42-3.06-8.37-20.35.46-.19L340,449.9ZM181,447l-.53-.24,9.21-20,.38.17Zm173.42-3.69-9.92-19.64.34-.17L355,443Zm-188-3.67-.5-.28,10.76-19.19.37.21Zm202.27-4.32-11.48-18.77.32-.2L369.2,435ZM152.44,431.1l-.46-.31,12.29-18.25.37.25Zm229.83-4.93-13-17.73.38-.28,13.06,17.71Zm-243-4.71-.43-.34,13.71-17.2.35.28ZM395,416l-14.38-16.65L381,399l14.38,16.65Zm-279.7-16.9-.32-.36L131.33,384l.35.39Zm302.6-6.43L401,378.58l.33-.39,16.89,14.1Zm-313.09-6.11-.29-.39L122,372.77l.31.41Zm323-6.85-18-12.68.27-.39,18,12.64ZM95.41,373.18l-.25-.39,18.47-12,.29.45ZM436.74,366l-19-11.16.23-.4,19,11.11ZM87.09,359.1l-.24-.44,19.42-10.35.23.44Zm357.36-7.56L424.64,342l.22-.45,19.8,9.58ZM80,344.41l-.21-.49,20.19-8.74.18.43Zm371-7.86-20.52-7.93.18-.46,20.52,7.92ZM74,329.12l-.16-.47,20.83-7.07.16.47Zm382.18-8.06-21.1-6.22.12-.43,21.14,6.12ZM69.39,313.43l-.12-.5,21.35-5.3.11.47Zm390.79-8.25-21.54-4.45.09-.47,21.56,4.41ZM66.06,297.44l-.09-.52,21.71-3.56.08.46Zm396.77-8.38L441,286.35l.06-.46,21.84,2.64ZM64,281.21l0-.54,21.93-1.74,0,.46Zm21.88-31.36L64,248.09l0-.52L86,249.38Zm355.13-7.08-.06-.5,21.84-2.65.06.5ZM87.68,235.41,66,231.85l.09-.52L87.75,235Zm351-7-.1-.46,21.55-4.45.1.52ZM90.6,221.14l-21.35-5.3.13-.52,21.34,5.37Zm344.62-6.88-.14-.46,21.12-6.18.14.49Zm-340.54-7L73.86,200.1l.16-.47,20.82,7.11Zm335.89-6.75-.16-.42,20.52-7.94.19.52ZM99.91,193.61l-20.2-8.74.21-.48,20.17,8.79Zm324.9-6.51-.21-.43,19.81-9.58.22.48ZM106.2,180.53,86.82,170.12l.22-.41,19.41,10.36ZM418,174.26l-.27-.46,19-11.1.23.4ZM113.56,168,95.1,156l.25-.39,18.5,11.91Zm296.53-6-.29-.4,18-12.62.29.41Zm-288.18-5.89L104.5,142.63l.28-.36,17.46,13.38Zm279.35-5.66-.31-.37,16.89-14.11.33.4Zm-9.75-10.83-.34-.34,15.69-15.43.36.38Zm-10.6-10-.37-.33L395,112.65l.38.33Zm-228.47-4.73-13.75-17.18.42-.34,13.68,17.23Zm217.11-4.37-.4-.3,13-17.74.4.3Zm-205.38-4.26L151.86,98l.44-.29L164.56,116Zm193.31-3.89-.41-.25,11.51-18.75.44.27Zm-180.91-3.76L165.79,89.42l.47-.27L177,108.37Zm168.22-3.38-.39-.2,9.89-19.65.5.25ZM189.55,102l-9.17-20,.47-.22,9.14,20Zm142-2.84-.45-.19,8.31-20.37.47.19ZM203,96.47l-7.5-20.69.49-.17,7.46,20.7Zm114.88-2.3-.45-.14,6.59-21,.5.16Zm-101-2.09-5.77-21.24.52-.14L217.34,92Zm87-1.74-.45-.1,4.85-21.46.51.12Zm-72.78-1.5-4-21.63.52-.1,3.94,21.65Zm58.46-1.16-.46-.07,3.1-21.78.53.08Zm-44.06-.9-2.2-21.9.5,0L246,86.73Zm29.6-.59-.47,0,1.3-22,.52,0Z" style="fill:#fff"/></g></g></svg>