<svg xmlns="http://www.w3.org/2000/svg" viewBox="0 0 247.77789 275.5949">
  <title>tooltip_adventure</title>
  <g id="Layer_2" data-name="Layer 2">
    <g id="Layer_1-2" data-name="Layer 1">
      <g>
        <path d="M231.79723,49.13693l-.083-1.56152L123.89,16.6384,15.911,47.62863l-.00684,30.31543c-.00928,23.64844-.019,48.1001.04688,72.15137l-.00245.75439a112.946,112.946,0,0,0,1.99707,21.44629c5.147,26.125,18.08155,47.58643,38.44385,63.78809,19.89209,15.80615,42.12793,23.7583,66.31934,23.7583a119.35424,119.35424,0,0,0,20.73486-1.86573c25.76367-4.53515,47.42285-17.38183,64.37549-38.18261,15.98535-19.60742,24.09033-43.19922,24.09033-70.12061V52.073C231.90953,51.10666,231.85484,50.15011,231.79723,49.13693ZM135.556,102.49875l32.957-33.05127,21.168,21.28515-32.82276,33.11524Zm31.16406,60.50049q-7.86108-7.86915-15.69043-15.69043-7.7234-7.68311-15.42236-15.38233L104.51012,100.8381q-2.3313-2.332-4.67432-4.64746C96.33043,92.716,92.70787,89.12521,89.369,85.64816a11.08043,11.08043,0,0,1,6.12745-7.96045c3.74218-1.813,7.61572-3.52148,11.3623-5.17383,1.21777-.53711,2.43555-1.07421,3.57471-1.59472a1.18434,1.18434,0,0,1,.18066.04052c-1.894,4.20557-3.76855,8.37354-5.69482,12.667l-.14112.314L181.913,161.16476c.12109,3.30469-1.5918,5.91407-5.09473,7.7583-3.55957,1.8833-7.30273,3.4751-11.26562,5.16065-1.38672.58984-2.80371,1.19238-4.25488,1.82519,1.96679-4.40429,3.70849-8.29589,5.52539-12.35156l.14062-.31445Zm-56.46729-44.124L118.996,135.071,60.44273,193.65646l.2002,1.21338c.15771.95557.28955,1.7544.43066,2.63672l.04834.30225,3.85889,1.25488,58.96826-58.87207,16.15869,8.604c-5.186,5.81153-59.31054,56.80274-67.48828,63.53906l-20.26513-5.46044c-1.81934-6.72559-3.57471-13.25928-5.377-19.96973l-.12549-.4668Zm95.227-35.65088a15.467,15.467,0,0,1-6.1499,6.30176L169.91979,60.12424a15.1342,15.1342,0,0,1,6.37158-6.11182Z" style="fill: #e67419"/>
        <path d="M.003,35.51164,123.89011,0,247.77726,35.552v4.2292c0,37.247-.09689,74.49378,0,111.74861a124.05705,124.05705,0,0,1-94.33175,120.75548c-11.719,2.86522-23.55879,3.57547-35.57623,3.22854a113.81747,113.81747,0,0,1-54.30591-15.36926l.54608.29309C30.84159,241.51958,10.035,213.30394,2.2707,175.69413A112.86434,112.86434,0,0,1,0,152.86067q0-.42914.00323-.858l-.00027.04414q.04845-55.86636,0-111.7486ZM16.4108,48.00518v4.53574c0,32.53338-.04845,65.067.04037,97.60041-.00162.23064-.00269.50354-.00269.77645a116.26045,116.26045,0,0,0,2.08822,21.9908l-.11627-.72586c5.08451,25.82652,17.756,47.14986,38.26382,63.49311,25.50383,20.28206,54.61542,27.4408,86.65655,21.79138,26.04452-4.58419,47.40016-17.546,64.07446-38.00571,16.529-20.274,23.98645-43.78432,23.97837-69.80463V52.05646c0-1.32361-.105-2.63915-.17762-4.11616L123.874,17.14176Z" style="fill: #fff"/>
        <path d="M72.73738,212.88384l-20.81467-5.60906c-1.88853-7.06185-3.72888-13.914-5.64943-20.98423l64.06638-68.29531,9.24911,17.13425L60.97858,193.80427c.23414,1.4205.40343,2.42142.58913,3.59969l3.27673,1.0655,59.0139-58.917,17.02148,9.06368c-1.84816,2.80869-60.45055,58.04527-68.1419,64.268Z" style="fill: #fff"/>
        <path d="M182.40341,160.94819c.218,4.22113-2.32453,6.81183-5.36711,8.41775-5.15717,2.728-10.64539,4.84229-16.73889,7.52207,2.18727-4.89882,4.07579-9.11993,6.05314-13.53456q-7.869-7.88514-15.68953-15.68954t-15.39913-15.383L119.57236,116.5914q-7.69943-7.69942-15.4072-15.39914C98.95953,95.99472,93.6729,90.85342,88.83062,85.8012a11.651,11.651,0,0,1,6.45656-8.56308c4.94725-2.42141,10.00781-4.56,15.02773-6.79567.1857-.08074.468.07266,1.009.17763-1.97734,4.39067-3.93073,8.73264-5.94009,13.21213Z" style="fill: #fff"/>
        <path d="M190.40965,90.6917l-33.55043,33.857-22.00938-22.04974,33.6877-33.7924Z" style="fill: #fff"/>
        <path d="M206.10779,83.08081a16.08824,16.08824,0,0,1-6.85219,7.078l-29.951-29.94294a15.68938,15.68938,0,0,1,6.99348-6.77119l.09258-.04064Z" style="fill: #fff"/>
      </g>
    </g>
  </g>
</svg>
