<svg xmlns="http://www.w3.org/2000/svg" viewBox="0 0 247.77789 275.5949">
  <title>tooltip_adventure</title>
  <g id="Layer_2" data-name="Layer 2">
    <g id="Layer_1-2" data-name="Layer 1">
      <g>
        <path d="M232.33672,48.69137l-.08344-1.56933L123.88994,16.03036,15.37108,47.17551l-.0069,30.467c-.00934,23.76672-.01916,48.34057.04712,72.5122l-.00244.75806a113.51093,113.51093,0,0,0,2.007,21.55359C22.58861,198.722,35.58782,220.29074,56.052,236.57345c19.99151,15.88514,42.33856,23.87708,66.65088,23.87708a119.93968,119.93968,0,0,0,20.83856-1.87512c25.89252-4.55786,47.66-17.46875,64.69739-38.37354,16.06524-19.70532,24.21075-43.41516,24.21075-70.47119V51.64206C232.44957,50.671,232.39464,49.70968,232.33672,48.69137Z" style="fill: #e67419"/>
        <path d="M72.73738,212.88384l-20.81467-5.60906c-1.88853-7.06185-3.72888-13.914-5.64943-20.98423l64.06638-68.29531,9.24911,17.13425L60.97858,193.80427c.23414,1.4205.40343,2.42142.58913,3.59969l3.27673,1.0655,59.0139-58.917,17.02148,9.06368c-1.84816,2.80869-60.45055,58.04527-68.1419,64.268Z" style="fill: #fff"/>
        <path d="M182.40341,160.94819c.218,4.22113-2.32453,6.81183-5.36711,8.41775-5.15717,2.728-10.64539,4.84229-16.73889,7.52207,2.18727-4.89882,4.07579-9.11993,6.05314-13.53456q-7.869-7.88514-15.68953-15.68954t-15.39913-15.383L119.57236,116.5914q-7.69943-7.69942-15.4072-15.39914C98.95953,95.99472,93.6729,90.85342,88.83062,85.8012a11.651,11.651,0,0,1,6.45656-8.56308c4.94725-2.42141,10.00781-4.56,15.02773-6.79567.1857-.08074.468.07266,1.009.17763-1.97734,4.39067-3.93073,8.73264-5.94009,13.21213Z" style="fill: #fff"/>
        <path d="M190.40965,90.6917l-33.55043,33.857-22.00938-22.04974,33.6877-33.7924Z" style="fill: #fff"/>
        <path d="M206.10779,83.08081a16.08824,16.08824,0,0,1-6.85219,7.078l-29.951-29.94294a15.68938,15.68938,0,0,1,6.99348-6.77119l.09258-.04064Z" style="fill: #fff"/>
        <path d="M.003,35.51164,123.89011,0,247.77726,35.552v4.2292c0,37.247-.09689,74.49378,0,111.74861a124.05705,124.05705,0,0,1-94.33175,120.75548c-11.719,2.86522-23.55879,3.57547-35.57623,3.22854a113.81747,113.81747,0,0,1-54.30591-15.36926l.54608.29309C30.84159,241.51958,10.035,213.30394,2.2707,175.69413A112.86434,112.86434,0,0,1,0,152.86067q0-.42914.00323-.858l-.00027.04414q.04845-55.86636,0-111.7486ZM16.4108,48.00518v4.53574c0,32.53338-.04845,65.067.04037,97.60041-.00162.23064-.00269.50354-.00269.77645a116.26045,116.26045,0,0,0,2.08822,21.9908l-.11627-.72586c5.08451,25.82652,17.756,47.14986,38.26382,63.49311,25.50383,20.28206,54.61542,27.4408,86.65655,21.79138,26.04452-4.58419,47.40016-17.546,64.07446-38.00571,16.529-20.274,23.98645-43.78432,23.97837-69.80463V52.05646c0-1.32361-.105-2.63915-.17762-4.11616L123.874,17.14176Z" style="fill: #fff"/>
      </g>
    </g>
  </g>
</svg>
