<svg xmlns="http://www.w3.org/2000/svg" viewBox="0 0 271.02715 293.74273">
  <title>tooltip_crucible</title>
  <g id="Layer_2" data-name="Layer 2">
    <g id="Layer_1-2" data-name="Layer 1">
      <g>
        <path d="M32.76556,41.4755l.57822,1.16561c1.24821,2.992,2.33121,6.03,3.83641,8.90268a24.15448,24.15448,0,0,0,6.92941,7.32407l.0826.05507c8.27858,6.55311,16.57552,13.042,24.75314,19.68686S85.30058,92.17491,93.47821,98.96666a2.58144,2.58144,0,0,0,.927.49561h.01836A220.20626,220.20626,0,0,0,69.46849,75.2231l-.36712-.29369-.35794-.30287.22027-.38548h.8811c6.36955,1.0463,12.75746,2.01,19.10865,3.35916,4.90107.94533,9.74706,2.01,13.16129,6.20434,1.2482,1.46849,2.267,3.15724,3.41422,4.66244.44055.57822.96369,1.1289,1.68876,2.01a144.15574,144.15574,0,0,0,3.01039-24.83574l.00918-.26616-.42218-.16521a16.0165,16.0165,0,0,0-.88109,1.89985l-.03671.11014v.11931c-.23863.74342-.28452,1.56944-.4589,2.33122a3.70289,3.70289,0,0,1-.48644.80767l.00918-.00918c-.257-.22028-.64246-.40384-.76178-.67917a12.171,12.171,0,0,1-1.13807-5.17641,12.38659,12.38659,0,0,1,1.16561-5.24983l-.02754.07342c1.06465-2.267,2.43218-4.35956,3.59779-6.42462-1.60616.16521-3.46012.44055-5.3049.50479-2.36794,0-4.20354-.94534-4.57983-2.55149h2.30369a5.0863,5.0863,0,0,0,4.846-3.54272l.00918-.03671c1.1289-2.7167,2.31287-5.42422,3.65286-8.03995a3.78748,3.78748,0,0,0,.44055-1.78054v-.02753h0a4.131,4.131,0,0,0-.33042-1.61533l.00919.02753a19.42563,19.42563,0,0,0-4.75422-7.55352h0a4.74916,4.74916,0,0,0-2.98286-1.24821h-.40383a16.03939,16.03939,0,0,0-4.6808.68836l.11014-.02754h.11931a5.48209,5.48209,0,0,1-6.51639-1.79889l-.00919-.01836a8.63137,8.63137,0,0,0-2.68-1.98245l-.05506-.01836a4.19689,4.19689,0,0,0-2.20273-.61493,4.26152,4.26152,0,0,0-4.10257,3.11135l-.00918.02754c-.22028.57821-.42219,1.16561-.72507,2.01a5.97882,5.97882,0,0,1-1.03712-.93616L81.90474,27.58A11.60436,11.60436,0,0,1,79.803,20.87083,11.74083,11.74083,0,0,1,84.704,11.32569l.03671-.02754a11.49944,11.49944,0,0,1,4.12094-1.8356l.07343-.01836c1.62451-.5415,3.15724-1.36753,4.745-2.01a10.01675,10.01675,0,0,1,3.70792-.80766h.00919c4.44216.257,8.85679.74342,13.299,1.10136a41.783,41.783,0,0,0,5.09381.30287h1.27575A7.65094,7.65094,0,0,0,124.56424,1.909l.00919-.04589a5.71644,5.71644,0,0,1,.39465-1.13808l-.01835.03672A5.8624,5.8624,0,0,1,125.59219,0h0c.20192.257.48644.50479.5415.78013.6241,2.89108.35794,6.58983-3.15724,8.41625-1.30328.64247-2.5882,1.32164-4.20354,2.166l4.02,1.48684,4.02,1.55108-2.80848,2.33122c2.992,2.01,6.69079,3.0104,8.41625,6.45216l-.20192.35794a9.89839,9.89839,0,0,1-1.597-.7526l.04589.02754a8.16187,8.16187,0,0,0-4.54312-1.36753h0a8.06291,8.06291,0,0,0-3.02875.66082l.05506-.01836a41.26894,41.26894,0,0,1,6.84682,11.02281l.101.27534v.28452c1.62451,4.20354,3.35916,8.41625,5.12134,12.85842-2.33122-.72507-3.6345-2.6341-5.74545-3.61615.60575,1.16561,1.16561,2.31286,1.77136,3.43259a23.23694,23.23694,0,0,1,3.38669,9.67364l.00918.11013v.62411h0a15.62068,15.62068,0,0,1-.35794,3.29491l.01836-.101v-.101a30.997,30.997,0,0,0-5.04792-6.73667h0c-2.1293,3.61614,3.33163,23.046,7.63612,26.965,4.46052-4.57983,9.54515-22.66054,7.37-26.69888a9.48286,9.48286,0,0,0-3.0104,3.14807l-.02753.04589c-.40383.64246-.67918,1.36752-1.0463,2.01a3.84588,3.84588,0,0,1-.88109.65164l-.01835.00918a2.77562,2.77562,0,0,1-.413-.89945l-.00919-.01835c-.00918-.18356-.01835-.39466-.01835-.60575s.00918-.42219.01835-.63328v.00918a15.78085,15.78085,0,0,1,1.48684-6.70914l-.03671.101v.101c1.1289-2.48725,2.39546-4.90107,3.73546-7.63612l-5.86476,4.02-.32123-.32123a4.97014,4.97014,0,0,1,.413-1.11054l-.01836.02753c2.166-5.02038,4.37793-10.206,6.91106-15.22634a48.41074,48.41074,0,0,1,4.6349-6.88352l-.07342.09178c.60575-.84438.52314-1.184-.42219-1.52356a5.33116,5.33116,0,0,0-1.30328-.1652h-.02753a4.93044,4.93044,0,0,0-2.69834.79849l.01835-.00918c-1.22985.55986-2.39546,1.24821-3.59779,1.84478a1.03045,1.03045,0,0,1-.48644.11932h-.257c1.77136-3.85477,5.06627-5.84641,9.26063-7.168l-1.55109-1.1289-1.40424-1.04629,7.77379-3.093c-3.31327-1.72547-7.04872-2.735-7.63613-6.87434V3.79971A32.68425,32.68425,0,0,1,147.60108.358l-.01837.14685V.64247h.55987c.18356.50479.38547,1.0463.52314,1.5052a8.0547,8.0547,0,0,0,4.745,5.86476l.05507.01835a8.83042,8.83042,0,0,0,3.01958.52315h.81685c4.81846-.32123,9.62775-.78013,14.44621-1.20232a12.37323,12.37323,0,0,0,1.9641-.21109l-.07342.00917c.38548-.03671.826-.06424,1.27575-.06424a13.50282,13.50282,0,0,1,6.98448,1.92738l-.06425-.03671a11.38167,11.38167,0,0,0,3.00121,1.05547l.07342.00918a8.75941,8.75941,0,0,1,7.3149,6.14928l.01836.06425a12.93134,12.93134,0,0,1-.23864,10.34363l.03671-.0826a16.79074,16.79074,0,0,1-1.53273,2.23944l.02754-.02754a14.44827,14.44827,0,0,1-.79849-1.77136l-.02754-.09178v-.101c-.72506-3.15724-3.59778-5.002-7.43419-2.01a15.336,15.336,0,0,0-2.2119,2.14765l-.01836.02754a4.02021,4.02021,0,0,1-3.21232,1.60615h-.06424a3.69988,3.69988,0,0,1-.96369-.12849l.02754.00918c-1.48685-.28452-2.97368-.60575-4.44216-.90863a4.43088,4.43088,0,0,0-1.38588-.22027h0a4.54072,4.54072,0,0,0-4.00162,2.48725l-.00918.02753c-1.4226,2.31286-2.80847,4.66244-4.02,7.07626a3.27932,3.27932,0,0,0-.13766.97287,3.35919,3.35919,0,0,0,.312,1.4226l-.00917-.01836c.86273,2.19355,2.01,4.25861,2.77176,6.45216s1.77137,4.20353,4.20354,4.846a20.76309,20.76309,0,0,0,2.60657.16521h.01836a15.49369,15.49369,0,0,0,2.166-.101h0a5.64331,5.64331,0,0,1-.72506,1.07383v-.00918a7.45152,7.45152,0,0,1-4.70834,1.6704h-.01836c-.1652.00918-.35794.01836-.55068.01836s-.38547-.00918-.57821-.01836h.02754l-4.64409-.826c5.103,5.44257,6.9294,11.2339,3.59779,17.9614-.94534-1.80807-.44055-4.22189-2.56986-5.8464A171.12238,171.12238,0,0,0,166.4069,91.2296l-.156-1.03711-.13767-1.028.40384.13768c.72507-.88109,1.4226-1.78971,2.166-2.65245a65.26377,65.26377,0,0,1,5.03874-5.59859l.00917-.00918a18.9393,18.9393,0,0,1,9.22391-3.864l.101-.00918c6.3053-1.28493,12.70239-2.36793,19.06276-3.53354l2.01-.358.28452.42219-28.02968,26.56121.32123.35794c1.12889-.89944,2.24862-1.77135,3.35915-2.68916,7.03037-5.88311,14.06073-11.81212,21.10028-17.60346,6.14928-5.02038,12.43622-9.88473,18.66811-14.7858,4.22188-3.27655,8.41625-6.36955,12.50047-9.80213a25.12554,25.12554,0,0,0,8.01241-14.15252l.02754-.156v-.1652a8.91239,8.91239,0,0,1,.58738-1.496l-.01836.04589a39.60713,39.60713,0,0,1,5.62614,11.445l.07342.28452v.28452a20.6299,20.6299,0,0,1,.80766,5.79134V57.638h0a21.64362,21.64362,0,0,1-.94535,6.342l.03671-.156v-.1652a12.6798,12.6798,0,0,1-6.45214,7.61776l-.07342.03671c-6.77339,3.7997-13.60184,7.55352-20.32933,11.37157-7.61776,4.35957-15.27224,8.63653-22.74316,13.28061A307.46359,307.46359,0,0,0,168.839,115.81754l.63329-.48644.66082-.5048c-.42219.35794-.826.70671-1.184,1.06466h0l.20191.23863c1.50519-1.0463,3.03792-2.01,4.54313-3.21232a215.196,215.196,0,0,1,18.60386-11.87636l2.28534-1.20232c6.67241-3.81806,13.28061-7.75543,19.97139-11.47253,6.03-3.37752,12.29856-6.57147,18.48454-9.78378,4.02-2.01,8.04-3.90066,12.05075-5.929a68.23972,68.23972,0,0,0,8.28776-4.75422l-.24781.156-.257.1652a28.54012,28.54012,0,0,0,3.98327-3.96491l.03671-.04589c.30288-.32123.5415-.66082.982-1.22985a12.41477,12.41477,0,0,1,.7067,4.176,12.6941,12.6941,0,0,1-1.57862,6.15845l.0367-.06424a10.28918,10.28918,0,0,1-2.94613,3.43258l-.02754.01836c-7.75543,5.03873-15.02442,10.74747-22.42193,16.291a95.16408,95.16408,0,0,1-21.89877,12.3628l-.65163.22945-.64246.22027c-4.745,1.82644-9.64611,3.15724-14.48292,4.71751-4.29532,1.38588-8.63652,2.7167-12.95938,4.02a12.24,12.24,0,0,0-1.77136.86274l.06424-.03671.101.32123,23.06438-4.35957.28452.33958a9.11306,9.11306,0,0,1-.89944,1.0463h0c-3.69874,2.80848-7.41585,5.66284-11.188,8.41625a67.03968,67.03968,0,0,1-6.35119,4.2586l-.32123.17439-.33959.18356a15.748,15.748,0,0,1-7.28736,1.77136h-.02754a10.86292,10.86292,0,0,1-1.80808-.101h-4.54311c-.44055,0-.84437.5048-1.26657.78014.33959.35794.64246,1.04629,1.0463,1.04629,5.06627.74343,10.18761,1.77136,15.12539-.55985a60.58277,60.58277,0,0,0,5.45175-3.28574l-.2111.13768a15.04591,15.04591,0,0,1,7.08543-1.74382h.20191l32.068-.78014a22.82505,22.82505,0,0,1,3.99244.35794l-.13767-.01835h-.13766a7.213,7.213,0,0,1-.91781.98205l-.00917.00918c-5.91064,4.29532-11.79377,8.61817-17.74113,12.87677a54.09788,54.09788,0,0,1-5.0571,3.29492l-.26616.13767-.28452.13767a13.60107,13.60107,0,0,1-6.39709,1.56945h-.03671a14.06572,14.06572,0,0,1-3.95572-.569l.10095.02754c-6.40626-1.56944-12.75745-3.31327-19.10866-5.02038-3.03792-.826-6.03-1.72547-9.07707-2.56985-.62411-.18356-1.36753-.52315-1.70712.42219a1.34123,1.34123,0,0,0-.13766.57821h0a1.2626,1.2626,0,0,0,.67916,1.11972h.00918a2.1152,2.1152,0,0,0,.38547.11931h.01837l7.19557,2.2945,13.06034,4.20354,8.95775,2.90944c.18357,0,.35794.1652.70671.6241-1.45014.70672-2.836,1.4685-4.29532,2.01-6.755,2.85437-13.767,2.67081-20.83413,1.62451-3.07463-.44055-6.186-.57821-9.26064-1.10137a5.285,5.285,0,0,0-.96369-.09178,5.04768,5.04768,0,0,0-4.46969,2.69834l-.00917.02754c-2.45054,3.65286-5.06627,7.07626-7.53516,10.66487a2.54265,2.54265,0,0,0-.35793,1.32163h0v8.196c0,.02753.00917.05507.00917.09178a.2832.2832,0,0,1-.00917.09178h0c.01836.22027.02753.47726.02753.73424s-.00917.514-.02753.77095v-.03671l-6.42462-3.81806a9.74662,9.74662,0,0,0-.156,1.26657v19.76947a4.52859,4.52859,0,0,0-.03671.52314,4.01841,4.01841,0,0,0,3.01957,3.89148l.02753.00917a23.8317,23.8317,0,0,1,7.70955,4.71751l-.01837-.01837c1.40424,1.0463,2.7167,2.267,4.02,3.39588a2.86193,2.86193,0,0,1,.9178.8352l.00918.00917a12.73088,12.73088,0,0,1-5.02039,1.00959,12.93882,12.93882,0,0,1-5.103-1.0463l.08261.02754a21.17937,21.17937,0,0,1-8.00324-6.24106l-.03671-.04589c-.13767.78013-.257,1.22987-.30287,1.68876-.03671.60575-.05507,1.32163-.05507,2.03752a37.95556,37.95556,0,0,0,3.30409,15.52922l-.101-.23862c1.40425,3.59779,2.58821,7.269,3.85477,10.931a7.33034,7.33034,0,0,1,.40383,2.423,7.40433,7.40433,0,0,1-2.2945,5.36914h0c-3.0104,3.39587-6.16764,6.65407-9.279,10.04993l-.42219.45889c-1.64287,1.80808-1.68876,1.87233-3.39587,0-3.29491-3.55188-6.52558-7.13133-9.76542-10.71075a7.21477,7.21477,0,0,1-2.01-4.93778h0a7.22634,7.22634,0,0,1,.66082-3.01958l-.01836.04589c1.909-5.26819,3.85477-10.5272,5.70873-15.76786a13.89435,13.89435,0,0,0,.76178-3.99244v-.02753c.11931-2.937,0-5.86476,0-9.15967-1.28493.98206-2.29451,1.82643-3.37751,2.56986-1.74382,1.22986-3.49683,2.45053-5.34161,3.49683a6.60674,6.60674,0,0,1-3.0104.74342h0c-2.24861.11932-4.52476,0-6.77338,0l-.13767-.44055,1.20231-1.10137c2.34958-2.01,4.5982-4.02,7.04873-5.91064a18.17427,18.17427,0,0,1,4.41463-2.31287l.12849-.03671h.11931a4.02163,4.02163,0,0,0,3.16642-3.92819c0-.1285-.00918-.24782-.01835-.36713V171.84937a19.183,19.183,0,0,0-.19274-2.11094l.00918.101v.101l-7.03037,3.68038c0-.55987-.11931-.90863-.11931-1.24821v-5.99325a12.02095,12.02095,0,0,0-3.13888-8.04914l.00918.00918a65.74283,65.74283,0,0,1-4.745-6.37873l-.156-.257-.1652-.257a4.029,4.029,0,0,0-3.56108-2.14765h-.03671c-.09178-.00917-.20192-.01836-.31206-.01836s-.22027.00917-.32123.01836h.00918c-4.78175.52314-9.54514.8811-14.32689,1.32163a31.39372,31.39372,0,0,1-3.97409.24781,32.22216,32.22216,0,0,1-15.364-3.864l.17438.08261a20.85628,20.85628,0,0,1-1.91821-1.43177l.02754.02754,4.02-1.40424,14.26265-4.57983c3.7997-1.20232,7.59023-2.36794,11.38993-3.59779a2.64348,2.64348,0,0,0,1.34-.95452l.00918-.00918a1.514,1.514,0,0,0,.11931-.57821v-.01836h0a1.55673,1.55673,0,0,0-.20192-.77095v.00919c-.11931-.22028-.76178-.32123-1.0463-.22028-4.81846,1.32164-9.60021,2.71669-14.42786,4.02s-9.92145,2.85437-14.951,4.02a15.844,15.844,0,0,1-3.20313.32123,16.09932,16.09932,0,0,1-10.42624-3.7997l.02753.01835c-5.26818-4.02-10.71075-7.838-16.07072-11.72951-1.04629-.76178-2.01-1.48684-3.15724-2.21191a8.23646,8.23646,0,0,0-1.02794-.48644l-.05507-.01835.42219-.66082a12.44265,12.44265,0,0,1,1.43178-.13767h.03671l32.426.78013a49.27643,49.27643,0,0,1,5.98407.38548l-.23863-.02754h-.22027a10.54337,10.54337,0,0,1,5.73626,2.579l-.00918-.00919a11.99241,11.99241,0,0,0,8.24187,3.2582h.49561c3.15724-.13767,6.20434-.44055,9.30652-.67918.72507,0,1.32164-.30287,1.24821-1.38588h-1.55108c-2.46889.23863-5.34161.38548-8.26023.38548h-.52314a17.05192,17.05192,0,0,1-9.57269-4.3871l.00918.00918c-3.61614-2.79012-7.37-5.48845-10.98609-8.21433-1.06466-.76178-2.01-1.52356-2.97368-2.33122a2.16609,2.16609,0,0,1-.3763-.60575l-.00918-.01836.16521-.40383,22.9267,4.02.101-.22028a12.76327,12.76327,0,0,0-1.496-.67l-.09178-.02754h-.11931c-7.77379-2.36793-15.61183-4.64408-23.36726-7.13133A107.84636,107.84636,0,0,1,37.272,91.817l.24781.18357C30.99424,87.283,24.44113,82.6573,17.90638,77.9398a13.13752,13.13752,0,0,1-2.37711-2.1752l-.01836-.01836a5.18177,5.18177,0,0,1-1.45013-3.53354h0a5.18538,5.18538,0,0,1,.22945-1.52355l-.00918.03671c.44055-1.50519.80767-3.05628,1.24822-4.57983a4.37124,4.37124,0,0,1,.61492-1.07383l-.00917.00917a4.94081,4.94081,0,0,1,.73424.71589l.00918.00918c2.33122,3.90066,6.03,5.88311,10.04994,7.69119s7.81968,3.5519,11.57349,5.52517C47.70743,83.82291,56.90381,88.623,65.99006,93.625c6.91105,3.7997,13.68444,7.838,20.49453,11.858a158.762,158.762,0,0,1,18.59468,12.51883l-.34876-.26616-.23863-.22028a10.60372,10.60372,0,0,0,1.06465.67l.06425.02753.22027-.33958c-.89944-.74342-1.78971-1.55108-2.73505-2.24862-3.83642-2.87272-7.63612-5.7638-11.57349-8.53556A281.17345,281.17345,0,0,0,67.38512,91.48656L65.9717,90.734l-1.52355-.80767c-5.72709-3.21232-11.49089-6.45216-17.218-9.72871-4.86435-2.79012-9.74706-5.58942-14.54717-8.5631a13.27287,13.27287,0,0,1-6.3053-11.14212v-1.496a27.51142,27.51142,0,0,1,5.34161-16.32772l-.05507.07343c.33959-.44055.72506-.826,1.20232-1.40424Zm100.86652,97.00257a12.02093,12.02093,0,0,0-.44972-1.89985l.02754.09178a8.098,8.098,0,0,0-4.7634-4.72669l-.05506-.01835a21.45761,21.45761,0,0,1-11.80295-10.94021l-.05506-.1285v-.13767c-2.97369-6.40626-3.37752-12.79417.18356-19.10865a21.45993,21.45993,0,0,1,28.07559-8.90268l-.1285-.05506a19.79907,19.79907,0,0,1,8.508,8.31529l.05507.11014a21.13395,21.13395,0,0,1-4.24944,27.20367l-.02754.02753a36.9505,36.9505,0,0,1-5.52517,3.919l-.18356.09178h-.20192a10.12436,10.12436,0,0,0-4.78176,5.4334l-.01835.07342c-.32123,1.0463,0,1.36753,1.06465,1.16561a29.145,29.145,0,0,0,3.53355-.73424l-.20192.04589h-.18357a27.08044,27.08044,0,0,0,16.20839-12.014l.06425-.11931a26.58651,26.58651,0,0,0,2.64327-20.94425l.04589.18357v.20191A25.68322,25.68322,0,0,0,147.1054,87.99895l-.156-.06424h-.1652a26.67429,26.67429,0,0,0-10.9861-2.33122h-.07343a28.92428,28.92428,0,0,0-6.2227.69753l.19273-.03671h.18357a25.07514,25.07514,0,0,0-14.04238,7.79215l-.01836.01835a25.17123,25.17123,0,0,0-6.77338,17.218v.04589h0v.01835a24.8311,24.8311,0,0,0,.74342,6.0575l-.03671-.17438v-.18357a26.32992,26.32992,0,0,0,16.91511,20.1733l.18357.05507a16.7312,16.7312,0,0,0,6.39709,1.24821h.5415ZM105.942,13.90471c-1.6704-1.26657-3.05628-2.68917-4.81846-2.45054a38.2343,38.2343,0,0,0-7.38831,2.10177l.257-.09178h.257c-.74342.23863-.7067.88109,0,1.24821A19.16452,19.16452,0,0,0,96.8649,15.878l.13767.04589h.13768a5.14246,5.14246,0,0,0,1.76218.30288h.23863a5.46656,5.46656,0,0,0,1.10136-.11014l-.03671.00918c1.87233-.52315,3.59779-1.38588,5.78216-2.23026Zm71.607-.27534c-1.74383-.64247-3.37751-1.28493-5.02039-1.84479-2.39546-.826-4.22188.42219-6.03,1.68876,2.937,2.7167,8.68241,3.68039,11.032.20192Z"/>
        <path d="M105.26279,199.55784a54.84086,54.84086,0,0,1-5.62613,1.5511,40.9435,40.9435,0,0,0-19.45741,9.48091l.04589-.03671c-1.56945,1.32162-3.093,2.71669-4.66244,4.02-.60575.50479-.78013.94534-.22028,1.67039,1.84479,2.34958,3.6345,4.745,5.42421,7.13133a1.46619,1.46619,0,0,0,1.20232.64246h0a1.5062,1.5062,0,0,0,.21109.01837,1.78026,1.78026,0,0,0,.22028-.01837h-.00918a10.61342,10.61342,0,0,0,4.60737-2.4597l-.00919.00917a5.43606,5.43606,0,0,0,2.60657-3.8456v-.02754c0-.88109,1.30328-1.72546,2.01-2.45053h.42219a1.381,1.381,0,0,1,.94533.36713h0c1.38588,1.70712,2.65245,3.47847,4.02,5.26818a.85867.85867,0,0,1,.28452.64246V221.53h0v.00917a.89417.89417,0,0,1-.28452.65164h-.13768a3.87111,3.87111,0,0,1-2.992,1.40423h-.72507a3.04206,3.04206,0,0,0-1.77135.569l.00918-.00917c-2.166,1.50519-4.277,3.15724-6.40626,4.6808a2.42956,2.42956,0,0,0-1.20232,2.00081h0v.00917a2.298,2.298,0,0,0,.22945,1.00959l-.00919-.01836a44.42591,44.42591,0,0,0,2.32205,4.63489l-.11931-.22027v-.22027a148.29091,148.29091,0,0,0,12.25266,17.0803l-.19273-.23862a1.41428,1.41428,0,0,0,1.20231.66083h.00919a1.42393,1.42393,0,0,0,.76177-.22028h-.00918l.22028-.10095c.74342-.55987,1.20231-.32123,1.82643.257a4.02756,4.02756,0,0,1,.93615,5.69956l.00918-.00917a5.25574,5.25574,0,0,1-3.99245,2.92779h-.02753c-2.75341.52314-4.66244,0-5.84641-2.55149a4.81549,4.81549,0,0,0-.48644-.77095l.00919.00917c-1.14726-1.77137-1.184-1.80808.35794-3.15724.826-.67917.44054-1.24821,0-1.82642-1.60616-2.24863-3.27656-4.46052-4.88271-6.70915a80.80868,80.80868,0,0,0-9.66446-11.289l-.01835-.01836c-2.01-2.01-3.37752-2.01-5.54353-.11932-1.56945,1.34916-3.35916,2.43217-4.846,3.83641a18.30551,18.30551,0,0,0-1.9641,2.88189l-.04589.09178a30.27566,30.27566,0,0,1-2.23026,2.95533l.03671-.04588c-.13767.156-.927,0-1.06465-.18356-1.5052-1.87233-2.937-3.78136-4.42381-5.66285a.86482.86482,0,0,1,0-1.24823h0l.22028-.156a4.76472,4.76472,0,0,1,3.46929-1.48684h.02753c.11014-.00918.23863-.01837.36712-.01837s.257.00918.38548.01837h.19273a2.81776,2.81776,0,0,0,1.72547-.58739l-.00917.00917c1.34917-.982,2.5882-2.01,3.8823-3.15724a4.786,4.786,0,0,0,.8352-.89027l.00918-.01836a1.8373,1.8373,0,0,0,.55986-1.32163h0v-.00917a1.80792,1.80792,0,0,0-.50479-1.25738h0c-1.68876-2.01-3.15724-4.20354-4.68079-6.23189a3.80426,3.80426,0,0,0-1.4226-1.03712l-.02753-.00918a9.94365,9.94365,0,0,1-4.77257-2.86354l-.00918-.00918c-.22028-.32123-.88109-.44055-1.34917-.52314-1.64287-.257-2.01-.66082-2.111-2.24862a2.15855,2.15855,0,0,0-.81684-1.34h-.00918c-2.33122-1.60615-2.67081-2.61574-1.46848-5.20394a2.61089,2.61089,0,0,0,.32123-1.25738v-.00917h0v-.00918a2.76572,2.76572,0,0,0-.64247-1.76217h0q-8.41624-11.16966-16.63976-22.30261c-5.08463-6.9294-10.27021-13.767-15.27224-20.81576-2.90943-4.02-5.56188-8.29693-8.29693-12.47293a15.74921,15.74921,0,0,1-2.68917-8.8568v-.02754h0c-.00917-.18356-.01835-.39466-.01835-.61493s.00918-.43137.01835-.64246v.02754c0-1.28493.48644-1.62451,1.77136-1.42259a15.35917,15.35917,0,0,1,9.81131,5.98407l.02754.03671q7.838,9.80214,15.49251,19.70522c5.54353,7.19558,10.98609,14.42786,16.4562,21.6785,2.6341,3.47847,5.26819,7.012,7.81968,10.50884.23863.33959.28452.826.57822,1.06465a5.46472,5.46472,0,0,0,1.27574.90863l.02754.01836a9.3925,9.3925,0,0,1,2.27615,1.20233l-.02753-.01837a12.5,12.5,0,0,0,7.29653,4.32286l.0826.00917a3.97388,3.97388,0,0,0,.48643.02754,4.52416,4.52416,0,0,0,.5048-.02754h.02754a5.11573,5.11573,0,0,0,1.67957-.27534l-.03671.00917a38.15342,38.15342,0,0,0,12.53719-7.40666l-.03671.03671a4.24567,4.24567,0,0,0,.89944-5.28655l.00918.01837c-.38547.42218-.66081.72507-.927,1.0463s-.66081,1.48684-1.70711.78012a2.94931,2.94931,0,0,0-.78013.64246h0a5.71749,5.71749,0,0,1-4.18518,2.24862h-.01836a9.88687,9.88687,0,0,0-.21109-7.43421l.02753.06424a7.09519,7.09519,0,0,1-5.94735,3.22149,6.97991,6.97991,0,0,1-3.1756-.75261l.03671.01837,1.45013-1.52356a6.63547,6.63547,0,0,0,1.24821-7.7646l.01835.03671a25.17791,25.17791,0,0,1-1.0463-2.51478l-.06424-.19274v-.20191a6.988,6.988,0,0,1-.48644-2.56066v-.00917h0v-.00918a6.93248,6.93248,0,0,1,1.854-4.7175h0a15.09622,15.09622,0,0,1,4.64407-3.98327l.07343-.0367C85.9155,165.489,92.23,162.15739,98.53528,158.8992l4.88271-2.46888c-1.56944,5.64448,1.26656,10.16925,2.89108,15.27223l12.61978-7.29653a10.36905,10.36905,0,0,1,.156,1.4226v6.7a3.28373,3.28373,0,0,1-1.68876,2.74423l-.01835.00917a20.15068,20.15068,0,0,1-2.76258,1.73464l-.11014.05508h-.11931c-2.19355,1.14725-2.48724,3.07463-2.55149,5.46092v5.26818c.22027,1.50519-.927,2.34958-2.166,2.992-2.01,1.06464-4.02,2.19355-6.03,3.21231-1.04629.5415-1.36752,1.06464-.50479,2.01a30.17614,30.17614,0,0,1,1.92739,3.00121l.0826.156v.18356Z"/>
        <path d="M152.91511,164.43352l8.71913,5.03873c.94534.54151,1.87232,1.12889,2.85437,1.62452a1.09966,1.09966,0,0,0,.66082.22027h.01837a1.26017,1.26017,0,0,0,.927-.44055h0a1.69078,1.69078,0,0,0,.20191-.43137v-.00918a54.31618,54.31618,0,0,0,1.9182-6.03915l.09178-.43137.11932-.48643a25.78632,25.78632,0,0,0,.3396-3.57943v-1.60615h0v-1.40423h0c.88109.40384,1.5878.64246,2.24862.982,4.846,2.53313,9.70117,5.02039,14.51046,7.57188,2.90942,1.56944,5.88312,3.05628,8.66405,4.8827a17.7493,17.7493,0,0,1,3.98327,3.9649l.03671.05508a5.07639,5.07639,0,0,1,.43136,5.11217l.00917-.02754c-.70671,2.01-1.36753,4.02-1.89067,6.03a5.628,5.628,0,0,0-.28452,1.76218v.02753h0v.00918a5.5298,5.5298,0,0,0,2.17519,4.40545l.00917.00917c.90864.72507.84437,1.12889-.23862,1.55109a5.62,5.62,0,0,1-2.00081.35794h-.22028a5.62831,5.62831,0,0,1-3.3408-1.10137l.01836.00917a27.83747,27.83747,0,0,1-2.5882-2.1293l.01837.01836a9.90244,9.90244,0,0,0-.156,7.07626l-.01837-.07342a5.82856,5.82856,0,0,1-4.589-2.45054l-.00917-.01836c-2.01,2.01-1.78971-1.24821-3.01039-1.184a3.54508,3.54508,0,0,0,.55987,4.45135h0a8.79089,8.79089,0,0,0,1.57863,1.33082l.03671.01836c3.15724,1.909,6.23189,3.81806,9.37994,5.64448,4.02,2.267,7.43419,1.0463,10.52719-1.5878.67917-.60575,1.24821-1.38587,2.01-2.01a11.88052,11.88052,0,0,1,1.67959-.78932l.09178-.02754a4.57508,4.57508,0,0,0,1.55109-.94534h0c4.44216-5.84639,8.82009-11.757,13.2439-17.62181,3.29491-4.39628,6.62654-8.78338,10.04994-13.17966,4.44215-5.88312,8.70077-12.05074,13.41827-17.64017a72.94907,72.94907,0,0,1,8.765-8.1868l.156-.11931.156-.11931a9.9151,9.9151,0,0,1,3.607-1.25739l.05508-.00919c.826-.23862.84437.38548.927.94534.01836.30287.02753.65164.02753,1.00958a16.64611,16.64611,0,0,1-2.44136,8.70994l.04588-.07342a129.66513,129.66513,0,0,1-11.75705,16.90592l.18356-.22945q-8.63654,11.83047-17.43824,23.62424L217.8864,207.44171a2.50448,2.50448,0,0,0-.62412,1.65205h0v.01836a2.44118,2.44118,0,0,0,.28452,1.14725l-.00917-.00917c1.24821,2.79013,1.06465,3.49683-1.36753,5.32326a2.23349,2.23349,0,0,0-.72506,1.2941v.00918c-.156,1.5878-.52315,2.01-2.01,2.41382a11.00441,11.00441,0,0,0-2.19355,1.02794l.04588-.02754c-1.28492.67917-2.5882,1.34916-3.85477,2.01a8.28312,8.28312,0,0,0-2.00082,1.67958l-.00917.00917c-1.5878,2.01-3.01038,4.22189-4.54313,6.20436a1.61164,1.61164,0,0,0-.45889,1.12889h0a1.67744,1.67744,0,0,0,.40383,1.06464h0a16.11533,16.11533,0,0,0,1.854,2.00081l.00918.00918c.57821.52314,1.36752.86273,2.01,1.40423a4.03409,4.03409,0,0,0,3.16642,1.54191,3.989,3.989,0,0,0,.88109-.101l-.02753.00917h.27534a3.15374,3.15374,0,0,1,1.56944.413l-.01836-.00917c2.19355.927,2.33121,1.68876.88109,3.53354-.982,1.26658-2.01,2.55149-2.87272,3.83641-.52314.76178-1.04629,1.0004-1.82642.30289a5.20034,5.20034,0,0,1-2.14765-3.36834v-.02754a2.56616,2.56616,0,0,0-1.03712-1.50519l-.00918-.00918c-2.23026-1.70712-4.52476-3.37751-6.8101-5.02039a1.9637,1.9637,0,0,0-1.26657-.45889h0a1.92253,1.92253,0,0,0-1.26657.46808h0a36.32628,36.32628,0,0,0-7.9757,7.6453l-.06425.08261c-2.85437,3.85477-5.52516,7.838-8.31529,11.71117-.72507.98206-.927,1.70712.257,2.43218a1.20757,1.20757,0,0,1,.826,1.14725h0a1.50581,1.50581,0,0,1,.01837.2111,1.77753,1.77753,0,0,1-.01837.22027v-.00917a1.33069,1.33069,0,0,1-.35793.52314h0c-.96369,1.24821-1.74383,2.56986-2.7167,3.78135a1.94912,1.94912,0,0,1-1.38587.57822h0a19.81838,19.81838,0,0,0-2.22109-.27535h-.07342c-2.51478.30288-3.51518-1.22986-4.39627-3.21231-1.36753-3.15724-1.4226-3.15724.67917-5.76381l.64246-.78012c1.50519-2.01,1.52355-2.01,3.65286-.826.76177.40384,1.10137,0,1.46848-.5048,2.01-2.53312,4.02-4.96531,5.86476-7.57188,2.45053-3.51518,4.745-7.113,7.03037-10.72912a16.49111,16.49111,0,0,0,1.33082-2.992l.03671-.11932v-.11932a1.97392,1.97392,0,0,0,.22028-.89945h0V229.882a2.00124,2.00124,0,0,0-.95452-1.70712l-.00917-.00917c-2.01-1.52356-4.1393-3.15724-6.30531-4.64409a6.01141,6.01141,0,0,0-2.22109-.64246h-.02753a11.76629,11.76629,0,0,1-2.08341-.23862l.07342.00918c-2.19355-.66083-2.46888-1.70713-1.06464-3.46013,1.06464-1.36753,2.01-2.79013,3.15724-4.20354.48643-.67916.88109-.7067,1.55109-.28452a3.87959,3.87959,0,0,1,2.24862,3.51518h0c0,.5048.57821,1.06465,1.0463,1.5052a12.24116,12.24116,0,0,0,6.12174,3.61613l.08261.01836h.257a1.63686,1.63686,0,0,0,1.12888-.44055h0c1.77137-2.19355,3.39588-4.46052,5.16723-6.67241a1.55273,1.55273,0,0,0,.5048-1.14726h0a1.52178,1.52178,0,0,0-.42219-1.06464h0a1.48,1.48,0,0,0-.39465-.32123h-.00917c-2.29451-1.89067-4.47889-4.02-6.87435-5.70873a35.601,35.601,0,0,0-10.91266-5.63531l-.257-.07342h-.257c-2.937-.84437-6.03-1.4226-8.93941-2.01-.38547-.08261-.7067-.17437-1.02793-.27535l.06424.01837c-.982-.28452-1.20232-.76178-.55986-1.62451s.982-1.56944,1.50519-2.33122a.90966.90966,0,0,0,0-1.32164h0a.94481.94481,0,0,0-.33959-.22028h-.00918c-2.01-1.12889-3.81806-2.29451-5.74544-3.37751s-2.11094-1.62451-2.51478-4.02c-.11932-3.53354,1.184-5.80968-.80766-8.03994a17.50946,17.50946,0,0,0-4.5064-3.43259l-.09179-.04588a3.76551,3.76551,0,0,1-2.55149-3.56108v-.03671h0c-.00917-.09178-.01836-.20191-.01836-.31206s.00917-.22027.01836-.32123v.00918c0-1.36753.156-2.95533.156-4.56148v-2.46888Z"/>
        <path d="M136.62411,252.39574c1.16561-5.84639,5.72709-8.9394,8.83844-13.097l.44055.13766a14.65745,14.65745,0,0,0,.257,2.267c.70671,4.29532,1.30327,8.61816,2.111,12.92266a35.92973,35.92973,0,0,1,1.38587,9.13214v.04588a20.11762,20.11762,0,0,1-1.9182,7.92065l.05507-.11932V271.486c-3.05629,6.30531-6.186,12.61979-9.279,18.84249-.44055.86273-.826,1.74383-1.26657,2.61573a5.36939,5.36939,0,0,1-.69753.79849h0a3.84185,3.84185,0,0,1-.8352-.79849l-.00918-.00917c-2.01-3.78135-3.81806-7.57188-5.72708-11.37158-1.46849-2.90943-3.0104-5.80968-4.46052-8.75584a23.934,23.934,0,0,1-2.19356-10.08664v-.09179a25.95965,25.95965,0,0,1,.33959-4.16682l-.01836.14685v.13767c.74343-6.13092,1.78972-12.21595,2.7167-18.31935a5.37752,5.37752,0,0,1,.47726-1.09218l-.00918.02754a5.73585,5.73585,0,0,1,.99122.68836l-.00918-.00918c1.62451,1.72547,3.194,3.56108,4.67162,5.47929l.12849.1652.11931.156a46.06462,46.06462,0,0,1,2.9645,5.06627l.12849.28452.11931.30288.60575,1.0004Z"/>
        <path d="M44.82549,29.24119,47.39534,32.894a70.33022,70.33022,0,0,0,11.445,11.77541l.12849.101A31.80048,31.80048,0,0,1,62.071,47.432l-.00918-.00918c2.39547,2.75341,5.69038,3.57943,9.00365,4.34121A18.73252,18.73252,0,0,1,81.556,58.88622l.03671.05507c3.61614,4.68079,7.012,9.54514,10.50884,14.34525a17.8007,17.8007,0,0,1,.91781,1.53273l.04589.09179a8.57086,8.57086,0,0,1-2.33122-.18357c-4.8001-.84438-9.60022-1.6704-14.382-2.56985-4.277-.78013-8.58145-1.52355-12.79417-2.5882a14.08515,14.08515,0,0,1-4.98367-2.70752l.01836.01835c-3.49683-2.80847-6.91106-5.7638-10.206-8.80173a20.48551,20.48551,0,0,1-6.7-15.17127,20.24016,20.24016,0,0,1,.16521-2.59738l-.00918.101a41.11,41.11,0,0,1,2.79012-11.08706l-.101.27534-.101.28452a4.436,4.436,0,0,1,.34877-.72507l-.00918.01836Z"/>
        <path d="M226.91755,29.96625a44.9798,44.9798,0,0,1,1.91821,5.13052l.09178.35794v.38548a20.83335,20.83335,0,0,1,.90863,6.15846,21.16394,21.16394,0,0,1-2.97367,10.8576l.05507-.101a36.22874,36.22874,0,0,1-5.80051,6.78256l-.02754.02754c-2.67081,2.53313-5.68119,4.69915-8.49886,7.113a18.0113,18.0113,0,0,1-7.54434,3.32244l-.11013.01836c-3.73545.927-7.55352,1.55109-11.35321,2.24861-4.46053.84438-8.921,1.64287-13.38157,2.45054l-2.01.30287a6.61312,6.61312,0,0,1,.52314-1.32163l-.01836.03671c3.61613-5.002,7.19558-10.04994,10.91267-14.951a17.03012,17.03012,0,0,1,10.619-6.77338l.11013-.01835h.11932a19.91507,19.91507,0,0,0,10.9861-5.85559l.00917-.00917c3.6345-3.61615,7.36995-7.14968,10.931-10.81172,1.40424-1.42259,2.56986-3.093,3.85478-4.64408l.80766-.72506Z"/>
        <path d="M267.42017,100.86651c-.90864,1.184-1.52356,2.01-2.24863,2.937a43.54607,43.54607,0,0,1-17.06194,11.79377l-.30289.10095h-.30288a62.61942,62.61942,0,0,1-19.56755,3.49683H227.872c-9.3983.48644-18.80577,1.04629-28.13066,1.5878l-2.46888.11931c.13767-.42219.156-.67918.28452-.76178a113.40806,113.40806,0,0,1,12.77582-9.04953l.50479-.28452a39.3161,39.3161,0,0,1,11.94979-3.80889l.22028-.02753h.22027c5.78215-.94534,11.57349-1.78971,17.43825-2.5882,5.20394-.72507,10.42624-1.28493,15.61183-2.01,2.79012-.38547,5.54353-.96369,8.31529-1.38588.30288-.01836.65163-.02754,1.0004-.02754s.7067.00918,1.05547.02754h.73424Z"/>
        <path d="M73.63531,120.9205l-4.02-.23863c-3.75381-.20192-7.53516-.35794-11.30732-.60575-6.42462-.42218-12.84006-.74342-19.228-1.38588a86.78028,86.78028,0,0,1-13.67526-2.35875l.59657.12849.55986.11931A40.70515,40.70515,0,0,1,8.609,106.52017l.00918.00919c-1.38588-1.32164-2.68916-2.75341-4.02-4.20354a8.9664,8.9664,0,0,1-.86273-1.3767l-.02754-.05507a12.24316,12.24316,0,0,1,2.77177.18357l35.519,4.98367c5.78216.78013,11.65609,1.184,16.961,3.90066a68.99243,68.99243,0,0,1,8.23269,5.20395l-.39466-.27534c2.01,1.38588,4.02,2.992,5.86476,4.54312.42219.33958.80767.72507,1.184,1.0463Z"/>
        <path d="M47.59725,102.77554l-4.68079-.5048c-2.01-.20191-3.85478-.33958-5.76381-.60574-3.65285-.5048-7.31489-1.06466-10.94938-1.62452L12.61979,97.89282c-3.15724-.4589-6.23188-.88108-9.34323-1.36752-1.87232-.257-2.56985-1.083-2.89108-2.937A31.7116,31.7116,0,0,1,0,88.65055,32.03715,32.03715,0,0,1,3.2582,74.53474l-.0826.19274-.101.20192c.4589-1.06465.927-2.11094,1.45013-3.093a5.5995,5.5995,0,0,1,.80766-1.06466h0c.57822,1.5052,1.06465,2.836,1.56945,4.1393A10.72131,10.72131,0,0,0,11.344,79.58266l.05507.02754c3.90066,2.45053,7.92064,4.56147,11.79376,6.99365,7.838,4.91943,15.61183,9.86638,23.404,14.8317a8.81276,8.81276,0,0,1,1.11973.96369h0Z"/>
        <path d="M222.6314,102.61034c1.84479-1.26657,3.68038-2.61574,5.5619-3.83642,5.68119-3.65285,11.35321-7.3516,17.09867-10.88514,4.64409-2.87272,9.36159-5.60777,14.06073-8.41625.826-.48644,1.62451-1.0463,2.45054-1.52355a8.05055,8.05055,0,0,0,3.607-5.516l.00917-.04589a7.93483,7.93483,0,0,1,.5048-1.78971c.23862.22027.40383.30287.44054.42219,1.34917,3.919,2.836,7.81968,4.02,11.79376a21.43273,21.43273,0,0,1,.64246,5.3049,22.28963,22.28963,0,0,1-.96369,6.48886l.04588-.156v-.1652c-.33959,1.38588-1.52356,1.72547-2.68915,2.01-4.20354.7067-8.41625,1.34917-12.55555,2.01l-18.66811,2.95532-12.43622,2.01H222.714Z"/>
        <path d="M121.2142,262.92293a3.59656,3.59656,0,0,1-.95451-.48643l.00918.00918c-3.37751-3.68038-6.94777-7.23229-9.022-11.87638a16.02889,16.02889,0,0,1-1.5878-7.00283v-.07342h0a16.60811,16.60811,0,0,1,2.85437-9.32489l-.03671.05508a109.93741,109.93741,0,0,1,7.012-10.04994c2.01-2.836,4.29532-5.58941,6.42461-8.3979a6.60029,6.60029,0,0,0,.5874-1.10137l.01835-.04588.62411.48643c-.28452.78012-.52315,1.5878-.826,2.36792-1.5052,3.78136-3.03793,7.53516-4.56148,11.30734a4.2823,4.2823,0,0,0-.38548,1.77136v.00918h0a4.4838,4.4838,0,0,0,.49562,2.03752l-.00919-.02754a20.07232,20.07232,0,0,0,1.92739,3.08382l-.03671-.05507a8.74945,8.74945,0,0,1,2.01,5.5986v.07342h0v.01837a8.46725,8.46725,0,0,1-.257,2.05588l.00918-.05507c-1.46848,6.20435-2.68916,12.47293-4.02,18.72316a5.59392,5.59392,0,0,1-.30287,1.06465Z"/>
        <path d="M151.8321,263.02389c-.32123-1.48685-.67917-2.97368-1.0463-4.46052l-3.37751-15.86881c-.20192-.90863-.4589-1.78971-.57822-2.68916-.00918-.101-.01835-.2111-.01835-.3304s.00918-.22945.01835-.34876v0a4.1457,4.1457,0,0,1,1.56027-3.249l.00917-.00917a6.90105,6.90105,0,0,0,2.68916-5.47011v-.00917h0a6.96979,6.96979,0,0,0-.62412-2.90026l.01837.04588c-1.184-3.15724-2.29451-6.40626-3.39588-9.62775a8.33739,8.33739,0,0,1-.27534-1.67958v-.02754l.35795-.156a8.07875,8.07875,0,0,1,.9178.83519v.00918c2.51478,3.39587,5.26819,6.70914,7.49845,10.2702a68.21242,68.21242,0,0,1,5.65365,9.99488l.17438.43138.18356.44054a15.67743,15.67743,0,0,1,1.09218,5.79134,15.865,15.865,0,0,1-1.97327,7.69118l.04588-.0826c-2.01,4.37791-5.64449,7.65447-8.41625,11.49089Z"/>
        <path d="M171.3813,79.49089a5.66618,5.66618,0,0,1-.18356-1.239v-.00918c.257-5.03873.35794-10.04994.90863-15.08868a20.36269,20.36269,0,0,1,4.23108-9.22391l-.02754.03671,9.70117-13.73951a2.2253,2.2253,0,0,1,1.00959-.85356l.01836-.00917c.11932,1.46848.33959,2.937.38548,4.42381,0,1.184.11931,2.56984.11931,4.02a41.30912,41.30912,0,0,1-.13766,4.15765v-.20192A22.23141,22.23141,0,0,1,183.45961,63.411l.04588-.07342c-3.75382,5.06627-7.35161,10.22432-11.01364,15.34566a10.24615,10.24615,0,0,0-.55068,1.10136l-.03671.0826Z"/>
        <path d="M84.14416,39.20853,89.00851,45.936c1.84478,2.55149,3.65285,5.13969,5.52517,7.67283A22.9165,22.9165,0,0,1,99.6,68.02753c0,.35794-.00919.72507-.02754,1.07383v-.05507c-.18357,2.992,0,6.03,0,8.95776a5.09885,5.09885,0,0,1-.35794,1.32164l.00918-.03671a4.203,4.203,0,0,1-1.0463-.76178h0c-3.37751-4.66244-6.70913-9.36159-10.04994-14.06074a24.75958,24.75958,0,0,1-4.51558-13.77622v-.02753c-.18357-3.6345.18356-7.29653.32123-10.96774a3.19745,3.19745,0,0,1,.26616-.53233l-.00918.00918Z"/>
        <path d="M146.04077,171.04171c1.6245.94534,2.97368,1.68876,4.277,2.48724,2.33122,1.40424,4.61655,2.836,6.9294,4.32286a4.69387,4.69387,0,0,1,2.46889,4.13929h0v.3396c-.18357,3.21231-.23862,6.45214-.38548,9.68282,0,1.50519-.23862,1.5878-1.50519.88109-3.23066-1.78971-6.45215-3.57942-9.62775-5.44257a4.16665,4.16665,0,0,1-2.01-3.56108v-.05507h0c0-.03671-.00918-.08261-.00918-.12849a.69446.69446,0,0,1,.00918-.13767V172.51021a5.31887,5.31887,0,0,1-.02753-.55987c0-.19273.00918-.39465.02753-.58738v-.33041Z"/>
        <path d="M126.57418,171.52814v10.90349c.00918.08261.00918.19274.00918.2937s0,.20191-.00918.30288v-.01836a4.96315,4.96315,0,0,1-2.40465,4.23107l-.01835.00917c-3.15724,2.01-6.47051,3.85478-9.7287,5.78215a4.5544,4.5544,0,0,1-1.00041.2937h-.02754c0-1.48685-.18356-2.85438-.257-4.22189a44.88578,44.88578,0,0,0-.23863-5.66284c-.00918-.1285-.01836-.28452-.01836-.44055s.00919-.31206.01836-.4589v.00919a6.31248,6.31248,0,0,1,3.59779-5.69955l.03671-.01837c3.05628-1.56944,6.03-3.2949,9.022-4.93778a6.33245,6.33245,0,0,1,.83519-.3304l.04589-.00917Z"/>
        <path d="M153.31894,205.8815c3.07463.156,6.16765.18356,9.22391.48643a6.21658,6.21658,0,0,1,2.91862,1.41341l-.00917-.00918c2.89108,2.23026,5.68119,4.56148,8.5172,6.87435a4.30714,4.30714,0,0,1,.49563.58739l.00917.00917c0,.13766,0,.257-.13767.257-1.33081.1285-2.88189.20191-4.45134.20191s-3.12054-.07341-4.64409-.22027l.19274.01836a15.70967,15.70967,0,0,1-5.74544-3.16641l.01836.01836c-2.166-1.62451-4.02-3.57942-6.14928-5.3875a3.34177,3.34177,0,0,1-.3304-.44972l-.00917-.01836Z"/>
        <path d="M161.97383,224.88918c-1.0463-.826-2.11094-1.60615-3.07463-2.45053s-2.29451-2.01-3.53354-3.03792a12.37616,12.37616,0,0,1-5.08464-9.92145h0c0-1.28491-.11932-2.56985-.20191-4.02a8.96714,8.96714,0,0,1,1.43178.86273l-.02754-.01836c2.67081,2.36793,5.44257,4.64409,7.89311,7.21392a10.07208,10.07208,0,0,1,2.17519,4.39628l.00917.06425a45.10521,45.10521,0,0,1,.81685,6.29613l.00917.12849v.13767Z"/>
        <path d="M118.86463,206.67081l-8.04,6.23189c-.78013.62411-1.56945,1.26657-2.39546,1.82642a4.05269,4.05269,0,0,1-1.74383.86273l-.02753.00918c-3.15724.257-6.23188.40384-9.32488.60575l-.1652-.5048a8.59618,8.59618,0,0,1,.89945-1.06464h0c2.53313-2.01,5.12133-4.02,7.61776-6.186a10.88853,10.88853,0,0,1,6.3512-2.31287h.01835c2.19355-.20191,4.39628,0,6.60818,0Z"/>
        <path d="M122.43489,205.92738c-.84438,3.85477-.60575,8.03994-4.02,11.08706-2.01,1.80807-4.02,3.7171-6.03,5.56189a24.43645,24.43645,0,0,1-2.34957,2.01l-.44055-.20191c.23863-1.74383.48644-3.49684.67918-5.26819.5415-5.02039,3.7997-8.03994,7.63612-10.84842.78013-.55986,1.48683-1.20232,2.2945-1.74383a17.67214,17.67214,0,0,1,1.67958-.95451l.11014-.04589h.11931Z"/>
        <path d="M97.68174,14.42785c2.01,1.16561,3.093,0,5.03874-.78013C100.45351,12.09663,99.22365,14.10662,97.68174,14.42785Z"/>
        <path d="M169.43556,13.64772c2.01.38548,3.11136,1.56944,5.03874.38548C172.92321,14.0332,171.75761,11.702,169.43556,13.64772Z"/>
      </g>
    </g>
  </g>
</svg>
