<svg xmlns="http://www.w3.org/2000/svg" viewBox="0 0 261.64044 275.59484">
  <title>tooltip_dungeon</title>
  <g id="Layer_2" data-name="Layer 2">
    <g id="Layer_1-2" data-name="Layer 1">
      <g>
        <path d="M130.82035,11.60433H20.39294c1.45683,4.79034,1.24825,9.53466,1.24745,14.26284-.01023,48.08323.162,96.1678-.126,144.24941-.11061,18.4444,7.2602,32.85984,21.02676,44.51611a122.46,122.46,0,0,0,25.82356,16.78759l.73313.31973.74712.31947c12.12537,5.70837,24.42593,11.048,36.6864,16.46545,8.24848,3.64463,16.54108,7.18458,24.21629,12.03923.02395-.01425.04844-.02772.0724-.042.024.01426.04844.02773.0724.042,7.6752-4.85467,15.96809-8.3946,24.21628-12.03925,12.26075-5.41744,24.561-10.75708,36.68668-16.46545a124.16526,124.16526,0,0,0,27.66418-17.7242l-.36011.29739c13.76655-11.65626,21.1371-26.0717,21.02676-44.5161-.288-48.08161-.11573-96.16618-.126-144.24942-.00108-4.72817-.20939-9.47276,1.24745-14.26284Z" style="fill: #9e826d"/>
        <path d="M261.64044,0H0C.74335.875,1.27436,1.56207,1.86834,2.18969a29.67814,29.67814,0,0,1,8.33378,21.45738c-.14183,48.88525.09878,97.77238-.19781,146.65629-.12972,21.38389,8.21482,38.42475,24.06234,52.23384a133.08966,133.08966,0,0,0,28.9859,19.12907l.79206.34773.8066.34691c12.40931,5.90753,25.06272,11.30209,37.595,16.95231,5.23872,2.36193,10.48041,4.72441,15.64593,7.24028a42.43644,42.43644,0,0,1,12.9282,9.04134,42.44108,42.44108,0,0,1,12.92819-9.04134c5.16552-2.51589,10.40721-4.87835,15.64592-7.24028,12.5323-5.65024,25.18572-11.04479,37.595-16.95231a134.76694,134.76694,0,0,0,30.91776-20.10658l-.33347.28287c15.84725-13.80935,24.1918-30.85021,24.06234-52.23384-.29658-48.88391-.056-97.771-.19781-146.6563a29.67813,29.67813,0,0,1,8.33379-21.45737c.594-.62763,1.125-1.31446,1.86835-2.18969ZM240.00032,25.86717c.01023,48.08323-.162,96.1678.126,144.24941.11062,18.4444-7.26021,32.85984-21.02676,44.51611A122.452,122.452,0,0,1,193.276,231.42l-.73313.32-.74712.31946c-12.12536,5.70838-24.42594,11.048-36.68668,16.46546-8.24847,3.64463-16.54108,7.18457-24.21628,12.03925-.024-.01426-.04844-.02773-.0724-.042-.02395.01426-.04844.02773-.0724.042-7.67521-4.85468-15.96808-8.39461-24.21628-12.03925-12.26074-5.41744-24.56105-10.75708-36.68642-16.46546A124.16536,124.16536,0,0,1,42.18107,214.3353l.36011.29739C28.77462,202.97642,21.40407,188.561,21.51442,170.11658c.288-48.0816.11573-96.16618.126-144.24941.00107-4.72818.20938-9.47277-1.24745-14.26284H241.24775c-1.45684,4.79034-1.24825,9.53466-1.24745,14.26284Z" style="fill: #fff"/>
        <path d="M142.09068,174.152a13.407,13.407,0,0,0,1.90655-3.22343c.521-1.70929.26053-3.57144.26053-5.35607V134.434c-8.40618-.09743-16.62531-.0366-25.11223-.04306v28.49526c0,2.72446-.24438,5.57165.52077,8.228a10.666,10.666,0,0,0,1.38847,3.03936l-.02449-.0393c-3.256,4.30052-6.565,8.67156-10.23388,13.51761-3.40456-4.36376-6.71627-8.608-10.20966-13.08591,1.95231-4.00285,1.46087-8.33836,1.47217-12.62219.01938-7.289.00538-14.578.00538-21.867v-5.37356H77.77534c-.04521.0514-.16875.17493-.27236.31354-.09985.13349-.25676.28259-.25676.4247-.01184,11.62478-.011,23.24955-.011,35.39267l1.92889,3.31145c-3.33782,4.41409-6.65223,8.797-10.31354,13.63872-3.40645-4.465-6.68775-8.766-10.06594-13.19384,1.99025-3.97405,1.50716-8.1427,1.5085-12.25562q.01508-50.242-.031-100.48366a24.01807,24.01807,0,0,0-.88008-7.12617c-1.65572-5.22635-6.25444-7.088-10.93417-8.66859-1.44391-.48767-2.93815-.827-4.56588-1.27758V31.25582h175.4398V44.46257c-.94682.3924-2.17542.90618-3.40725,1.41135a67.27235,67.27235,0,0,0-7.13183,2.97367c-3.78215,2.09065-5.59667,5.52939-5.72963,9.83826-.04279,1.38712-.02045,2.7764-.02045,4.16487q-.00132,49.98146.03149,99.96315c.004,2.367.08424,4.72628.10684,7.28657a11.15454,11.15454,0,0,0,1.4563,5.327l-.02906-.05518c-2.62273,3.51034-6.58522,7.76779-10.0541,12.41092-3.49337-4.56239-6.80671-8.10825-10.29659-12.66578a20.9897,20.9897,0,0,0,1.4754-4.0268l.0331-.1518c.51754-2.11433.26053-4.35057.26053-6.52465V134.52152c-8.21079-.26026-16.24233-.09823-24.78712-.13026v5.623c0,8.50387-.07374,17.00857.04118,25.51083a43.458,43.458,0,0,0,.14587,4.95425,15.65861,15.65861,0,0,0,1.32577,4.31748c-2.75918,3.61394-6.34192,8.22613-9.85628,12.82942-3.51357-4.49376-7.12994-8.7862-10.79531-13.474ZM119.12,45.25731V75.62818H144.205l-.018-30.37087ZM101.80969,75.60477V45.30144H77.33988V75.60477Zm84.215.02234L185.68633,45.299H161.477V75.62711Zm-66.91357,41.94371H144.184l-.11251-24.58473-24.96017.17036Zm-41.85354-.01265,24.50749-.05706V93.20839s-24.42541.31355-24.50749-.02314Zm84.20633.01265c4.46443,0,24.48784.07723,24.48784.07723V92.65747c-8.25223.01507-16.25525-.05222-24.48784.04279Z" style="fill: #fff"/>
      </g>
    </g>
  </g>
</svg>
