<svg xmlns="http://www.w3.org/2000/svg" viewBox="0 0 378.27356 259.13693">
  <title>tooltip_forge-ignition</title>
  <g id="Layer_2" data-name="Layer 2">
    <g id="Layer_1-2" data-name="Layer 1">
      <g>
        <path d="M179.07664,0V259.13693L0,30.4535l.376-.55523L87.85043,86.62371s22.26047,14.2911,23.26328,15.2939,1.82662,2.00587,1.88933,5.077c.06271,3.07137-1.39682,15.661-.88654,21.07842,0,0,.70729,11.21972,4.13689,17.64883,3.42044,6.43826,5.9635,13.10906,20.4247,21.90226s24.03326,8.03208,24.20336,8.03208S150.44088,33.892,150.44088,33.892s-.60879-9.33928-.94008-11.3987a8.66291,8.66291,0,0,0-3.716-6.22322c-2.49811-1.57606-6.52762-1.54915-9.33927-.66261A10.98988,10.98988,0,0,0,129.873,21.983c-1.44175,3.25035-8.44385,21.66945-8.44385,21.66945l-.6715-.788a3.08554,3.08554,0,0,1-.54634-.74309c-.11654-.30439-13.3599-33.77544-13.3599-33.77544S105.50816,4.997,106.3589,3.2062s2.48923-2.919,9.54516-3.12493L179.07665.00079Z" style="fill: #fff"/>
        <path d="M199.20583,0V259.13693L378.27356,30.4535l-.376-.55523L290.42313,86.62371s-22.26046,14.2911-23.26328,15.2939-1.82662,2.00587-1.88933,5.077c-.06272,3.07137,1.39679,15.661.88651,21.07842,0,0-.7073,11.21972-4.13687,17.64883-3.42044,6.43826-5.96351,13.10906-20.42471,21.90226s-24.03326,8.03208-24.20336,8.03208S227.84183,33.90085,227.84183,33.90085s.60879-9.33928.94008-11.3987a8.66288,8.66288,0,0,1,3.716-6.22322c2.49811-1.57606,6.52762-1.54915,9.33927-.66262a10.98992,10.98992,0,0,1,6.57257,6.37556c1.44175,3.25035,8.44386,21.66945,8.44386,21.66945l.67149-.788a3.08558,3.08558,0,0,0,.54636-.74308c.11655-.30439,13.35988-33.77544,13.35988-33.77544s1.34324-3.34886.4925-5.13968S269.43456.296,262.37864.09015L199.20606.00053Z" style="fill: #fff"/>
      </g>
    </g>
  </g>
</svg>
