<svg xmlns="http://www.w3.org/2000/svg" viewBox="0 0 217.57441 277.40139">
  <title>tooltip_gambit</title>
  <g id="Layer_2" data-name="Layer 2">
    <g id="Layer_1-2" data-name="Layer 1">
      <g>
        <path d="M197.89333,98.26355c3.59756,3.55176,5.7187,7.76859,4.912,13.21856a23.35647,23.35647,0,0,1-1.74053,6.83481,14.07184,14.07184,0,0,1-7.15582,7.06886l-.09021.035a17.544,17.544,0,0,1-7.54538,1.85728,6.07434,6.07434,0,0,1-4.47094-1.99924l-.00461-.00515c-3.24755-3.44016-6.46448-6.91092-9.74238-10.321a4.84947,4.84947,0,0,1-1.52327-3.53389c0-.03142.00027-.06257.00081-.09373v.0046c.05066-2.48632.83221-3.46047,3.28819-4.034l9.10819-2.14146a23.421,23.421,0,0,0,11.56934-5.92675,2.866,2.866,0,0,1,3.39464-.96413Z" style="fill: #fff"/>
        <path d="M19.85412,179.0551a14.49414,14.49414,0,0,1-5.28228-10.19422c-.03332-.43453-.05228-.94111-.05228-1.45231a20.079,20.079,0,0,1,2.333-9.42488l-.05283.10944c2.44081-4.62778,6.65222-6.72319,11.4932-7.87018.5074-.11677,1.01479-.10159,1.52246-.20291a6.03055,6.03055,0,0,1,5.94706,1.98922c3.354,3.55178,6.66224,7.15446,10.02141,10.71166a4.55546,4.55546,0,0,1,.91835,4.71393,3.5049,3.5049,0,0,1-2.92789,2.466c-3.60757.81189-7.236,1.57312-10.79292,2.58276-3.65851,1.04-7.18508,2.43566-9.80848,5.42449a3.54108,3.54108,0,0,1-3.31852,1.14671Z" style="fill: #fff"/>
        <path d="M57.84484,188.691a25.55818,25.55818,0,0,1-2.84445.91916l-.19992.04469A32.687,32.687,0,0,0,45.177,193.1904l.16525-.08507a45.13,45.13,0,0,0-5.47218,3.80533l.08344-.06556a5.91858,5.91858,0,0,0-1.11123,1.64924l-1.21255,1.87246a17.36773,17.36773,0,0,1-5.91645-3.22724c-2.63857-2.36469-5.16552-4.85616-7.75858-7.27149a4.51928,4.51928,0,0,1-1.23286-4.86618,12.58343,12.58343,0,0,1,5.45755-7.29642l.05309-.03089c5.02872-3.24754,10.74227-4.17592,16.14618-4.73425a2.29164,2.29164,0,0,1,1.42574,2.38988,9.11347,9.11347,0,0,0,2.54,5.92458l-.003-.003a20.23112,20.23112,0,0,0,7.44406,5.54614,17.777,17.777,0,0,1,2.19808,1.23909l-.06664-.04145Z" style="fill: #fff"/>
        <path d="M172.22773,103.85a11.20439,11.20439,0,0,1-.5017-2.24251l-.00542-.05635a7.58815,7.58815,0,0,0-1.92962-4.8483l.0065.00732a20.47453,20.47453,0,0,0-7.70278-6.018,19.679,19.679,0,0,1-2.59765-1.56337l.06042.04091a2.89056,2.89056,0,0,1,2.44568-1.45148,42.00749,42.00749,0,0,0,9.55627-3.28114l-.25032.10971a24.31435,24.31435,0,0,0,6.10989-4.03207l-.02087.01842a7.17211,7.17211,0,0,0,1.14319-1.58991l.01868-.039c.35515-.55291.6545-1.13643.959-1.67471,1.89792-.11161,3.26272.82706,4.56683,1.695a61.59673,61.59673,0,0,1,9.8388,8.72758,4.2025,4.2025,0,0,1,.88286,4.25719,11.2769,11.2769,0,0,1-2.54728,4.92334l.01-.01137a17.086,17.086,0,0,1-8.67693,5.38386c-2.13632.50739-4.252,1.08062-6.37834,1.6086a9.67938,9.67938,0,0,1-2.56217.337,9.92348,9.92348,0,0,1-2.49445-.31669l.06882.01517Z" style="fill: #fff"/>
        <path d="M54.16088,233.51167c1.20252,1.08577,2.44568,2.21758,3.704,3.33371a4.69435,4.69435,0,0,1,1.49158,5.29961l.01057-.03251a5.962,5.962,0,0,0-.308,1.912,6.07877,6.07877,0,0,0,.36193,2.0732l-.01355-.04226c.55291,1.68987.26386,2.07049-1.69989,3.12049a8.12388,8.12388,0,0,0-3.70429-.88016,8.27693,8.27693,0,0,0-1.38267.11567l.04848-.00678c-.13111.00976-.2839.01545-.438.01545a6.23991,6.23991,0,0,1-2.97963-.75228l.03305.01651c-3.67367-1.88763-7.28667-3.89175-10.87419-5.94192a9.67878,9.67878,0,0,1-3.82619-3.876l-.02519-.05147c-1.78631-3.41985-5.22133-4.17078-8.69209-2.81114a20.57747,20.57747,0,0,0-3.538,1.64139l.0978-.05309a31.389,31.389,0,0,0-3.1121,2.51639l.02167-.01978c-4.54164-2.725-6.31224-7.90052-9.9656-11.33581.66967-2.94306,2.13632-4.75457,5.03359-5.201.91321-.142,1.80664-.411,2.70954-.609,3.37948-.72059,6.089.61386,8.55015,2.75533a1.65392,1.65392,0,0,1,.40716.61766l.00379.01137a4.83048,4.83048,0,0,1,.13627.89425l.00054.01409H21.59384c-1.766,1.78631-1.88763,4.09979-.40093,7.38825.31966-1.01478.58352-1.73538.79157-2.49147.50739-1.84211.87771-2.27826,2.78566-2.2379,2.1821.04579,4.36393.31452,6.54061.57838,2.258.27387,4.53134.53285,6.74866,1.01478a25.8936,25.8936,0,0,1,5.684,1.81692l-.16308-.06637c3.16114,1.47153,6.3071,2.36983,9.75755,1.21769.07044-.00678.15251-.01056.23541-.01056a2.62955,2.62955,0,0,1,.60437.06989l-.01788-.00353Zm-15.7298,1.55254a3.69022,3.69022,0,0,0,2.02985,3.06983c.21807-1.80149-.7103-2.57762-2.03988-3.06983ZM14.80021,225.8899c1.88275,1.78117,1.88275,1.78117,3.44016.94382A3.38849,3.38849,0,0,0,14.80021,225.8899Z" style="fill: #fff"/>
        <path d="M159.32937,28.35105c2.23275.19776,3.87657.43642,5.52067.45674.04686-.00082.10214-.00136.15766-.00136a8.8286,8.8286,0,0,1,4.45169,1.1963l-.04226-.02276c2.76535,1.6189,5.58162,3.16113,8.39276,4.68359,2.13117,1.15187,4.09979,2.56244,5.09969,4.76973,1.58828,3.50626,5.41935,3.8969,8.46888,2.90757,3.21694-1.05028,4.16075-1.705,6.698-4.22658a14.86125,14.86125,0,0,1,2.138,1.61917l-.01165-.01056a51.474,51.474,0,0,1,3.3559,3.93807l.08941.12109c1.50729,1.9131,2.90756,3.91207,4.39427,5.94192-.74579,2.96852-2.34437,4.95747-5.68809,5.07423a14.31983,14.31983,0,0,0-2.33354.4505l.10078-.02438c-3.09015.66479-5.62227-.50739-7.95633-2.37985-.55805-.4413-.98418-.93352-.53285-1.81666,1.59343-.50739,3.50625.79645,5.02356-.62415a8.00188,8.00188,0,0,0-.32967-6.65222c-.58352,1.52246-1.10609,2.86179-1.67959,4.35878a19.872,19.872,0,0,1-2.59956.16525q-.38724,0-.771-.01436l.03712.00109c-4.02368-.46161-8.0479-.94382-12.041-1.60861a20.09837,20.09837,0,0,1-4.89407-1.646l.1192.05256c-3.146-1.39541-6.29193-2.37986-9.79818-1.46665a2.696,2.696,0,0,1-.44157.03548,2.7493,2.7493,0,0,1-1.65141-.548l.00731.00515A36.88327,36.88327,0,0,1,158.91,39.67792l-.01571-.01679a3.96328,3.96328,0,0,1-.859-4.06134l-.00866.02764a7.24241,7.24241,0,0,0,.38224-2.34681,7.3831,7.3831,0,0,0-.398-2.39882l.01544.052c-.51741-1.5528-.09129-2.01441,1.30384-2.58276ZM179.40794,42.112c-.50739-.89289-.98418-1.80663-1.5631-2.65373-.11677-.17772-.609-.09645-1.01478-.142a2.93853,2.93853,0,0,0,2.57761,2.796Zm19.89082,7.83985c1.45147,1.52245,1.47153,1.55279,3.25758.93352a2.68162,2.68162,0,0,0-3.25758-.9235Z" style="fill: #fff"/>
        <path d="M86.34162,129.9824c.70516.77125,1.37509,1.52245,2.07049,2.2631,1.67471,1.776,3.32855,3.58238,5.07423,5.30259a2.79726,2.79726,0,0,1,.93866,2.96338c-.888,2.76048-.43641,5.5055-.14194,8.276a40.54007,40.54007,0,0,1,.22836,4.29376v.00379a8.96634,8.96634,0,0,1-.33565,1.87l.016-.06339a2.85822,2.85822,0,0,1-3.04465-.46677,8.56912,8.56912,0,0,0-4.32329-1.21255h-.00515c-2.53725-.12678-5.03359-.46161-7.55053-.48193a23.87934,23.87934,0,0,0-5.15522.65179l.162-.03277c-2.385.50739-2.87208.3045-3.755-2.06019-.32481-.86769-.5632-1.776-.94869-2.61336-1.72536-3.72433-1.1264-7.32216.88286-10.65585,3.11562-5.15035,7.97665-7.58086,13.83242-8.205.03983-.00055.08669-.00081.13382-.00081a11.11117,11.11117,0,0,1,1.98868.17852l-.06745-.0103Z" style="fill: #fff"/>
        <path d="M123.11954,122.22383a3.534,3.534,0,0,1,3.36918.71544,5.88852,5.88852,0,0,0,3.37542,1.053c.062,0,.12379-.00108.18557-.00271l-.00895.00027h.06014a19.68148,19.68148,0,0,1,4.07108.42341l-.12786-.02276a19.80637,19.80637,0,0,0,7.784-.21319c1.30384-.23839,2.64371-.2942,4.02369-.43642a16.97214,16.97214,0,0,1,.8108,1.60238l.04659.11784c.39064,1.01479.68484,2.08566,1.08062,3.10533a11.88753,11.88753,0,0,1,.90644,4.59365,12.06018,12.06018,0,0,1-3.83242,8.83161l-.00678.00623a21.48761,21.48761,0,0,1-10.96549,5.42938,4.10123,4.10123,0,0,1-4.05917-1.49185c-1.80663-1.99925-3.5924-4.02369-5.48517-5.952a4.17822,4.17822,0,0,1-1.13643-4.08463,25.60527,25.60527,0,0,0,.21888-3.39194,26.62839,26.62839,0,0,0-.23378-3.52711l.01463.13491a33.2274,33.2274,0,0,1-.2224-3.89717q0-1.5807.14059-3.12618l-.00975.13273Z" style="fill: #fff"/>
        <path d="M115.38642,198.72271c-1.47667,2.68435-3.15111,4.71907-6.28678,5.47-4.05917.97416-7.515,3.33368-10.78291,5.89614-1.01479.78127-1.93856,1.63406-2.96852,2.35954a7.6371,7.6371,0,0,1-2.37633,1.2884l-.05445.01544c-2.64371.64448-5.13518-.56319-7.647-1.04-1.79634-.34512-2.9734-2.14633-3.88173-3.78529a5.02116,5.02116,0,0,1,.07829-5.09617l-.01246.02194a25.45562,25.45562,0,0,1,7.29289-8.169l.07477-.0512a4.97166,4.97166,0,0,1,.8192-.52988l.0279-.013a28.28234,28.28234,0,0,1,12.71089-2.66918,3.46751,3.46751,0,0,1,1.25671.23649l-.02357-.00814a86.36506,86.36506,0,0,1,12.14011,6.28786l-.36816-.21428Z" style="fill: #fff"/>
        <path d="M102.16814,78.76824A7.98039,7.98039,0,0,1,107.4962,73.694c5.23676-1.46665,9.64079-4.38424,13.74112-7.81438a6.85052,6.85052,0,0,1,6.29707-1.66955,26.35556,26.35556,0,0,0,2.94035.3118l.06882.003A6.42479,6.42479,0,0,1,135.27509,74.692l.013-.0187c-2.177,3.16114-4.56682,6.089-8.16952,7.72823a25.15211,25.15211,0,0,1-10.73739,2.36686q-.948,0-1.879-.068l.08317.00488a3.20409,3.20409,0,0,1-1.00125-.2105l.02194.00732a96.44184,96.44184,0,0,1-11.8898-5.98282l.45241.249Z" style="fill: #fff"/>
        <path d="M101.5643,115.56646a16.13337,16.13337,0,0,1,1.74649-2.29588l-.0111.0122c3.80045-3.4453,4.56683-7.87533,4.22171-12.68543-.05067-.75094-.17257-1.52246-.25871-2.2073a2.12888,2.12888,0,0,1,2.21678-.42124l-.01435-.00488q8.32692,2.53725,16.65356,5.13517a2.79209,2.79209,0,0,1,.57079.39795l-.00243-.00216a18.562,18.562,0,0,1,1.06544,7.01251c-.45159,5.72872-3.72949,9.27561-8.99659,11.00612a15.4486,15.4486,0,0,1-4.9889.81,15.69372,15.69372,0,0,1-7.7946-2.05857l.07774.04063a10.07524,10.07524,0,0,1-4.46009-4.67735l-.02574-.062Z" style="fill: #fff"/>
        <path d="M133.49148,187.74206a13.69257,13.69257,0,0,1-1.62052-.4291l.09806.02843c-4.6378-1.78117-9.25529-3.6027-13.90339-5.35324a6.789,6.789,0,0,1-3.337-2.826l-.01706-.03089c-2.12115-3.20176-1.63922-6.59641-1.20253-10.0317a5.95663,5.95663,0,0,1,2.18209-3.61786,12.3811,12.3811,0,0,1,11.34422-2.99182l-.08424-.01706a5.82264,5.82264,0,0,1,2.11734.86091l-.02167-.01354c2.77563,1.908,5.50035,3.88688,7.94116,5.62226a3.6148,3.6148,0,0,1,.2942,3.73463c-.35.76611-.66966,1.5528-1.08062,2.28342a12.83557,12.83557,0,0,0-1.74786,6.50486,13.01552,13.01552,0,0,0,.37575,3.11344l-.01842-.08912a2.82194,2.82194,0,0,1-1.31928,3.25242Z" style="fill: #fff"/>
        <path d="M82.91148,90.13953a4.131,4.131,0,0,1,3.64334.18773c4.05917,1.59858,8.16438,3.17142,12.27447,4.67844a9.11787,9.11787,0,0,1,5.55616,8.71755,25.37361,25.37361,0,0,0-.24705,2.71957l-.00163.05092a6.5491,6.5491,0,0,1-2.91272,5.58163c-3.16628,2.395-6.56608,3.82591-10.60519,2.60822a7.80555,7.80555,0,0,1-2.126-.87718l.0355.01978c-2.51179-1.705-5.0084-3.43528-7.44406-5.24679-1.38512-1.0148-1.58829-1.97405-1.0148-3.55177a15.71441,15.71441,0,0,1,1.05624-2.38663l-.04145.0829A15.28652,15.28652,0,0,0,82.759,92.6922c-.00623-.15007-.00975-.32617-.00975-.50306a13.14329,13.14329,0,0,1,.172-2.12466l-.01029.07531Z" style="fill: #fff"/>
        <path d="M68.45519,126.98868a4.83135,4.83135,0,0,1-1.83454.35488,4.90051,4.90051,0,0,1-1.867-.3668l.03278.01192c-2.53725-.97415-5.16064-.71544-7.75343-.629a8.10079,8.10079,0,0,0-2.878.94463l.04172-.02114c-1.52246.67482-3.004,1.45636-4.69388,2.28342-.65964-.76611-1.41546-1.28867-1.65439-1.98408a39.83379,39.83379,0,0,1-1.31548-5.07829l-.04416-.275a26.33848,26.33848,0,0,1-.12678-2.77564c-.43127-5.049,2.0602-8.6921,5.668-11.7874.5074-.43642,1.13155-.74578,1.62893-1.19738,2.16178-1.98922,4.64295-2.13631,7.3273-1.38511,3.68369,1.01479,6.45933,2.725,9.06241,7.48469a46.37345,46.37345,0,0,0-1.86243,7.00737,47.92922,47.92922,0,0,0,.269,7.41344Z" style="fill: #fff"/>
        <path d="M115.79738,162.28477a28.42073,28.42073,0,0,1-1.83019,2.26988l.02384-.02708c-3.45559,3.50625-4.53134,7.75342-4.02368,12.518.071.66966.15739,1.3396.18773,2.02985a3.29639,3.29639,0,0,1-.25193.86308l.00839-.02087a3.15448,3.15448,0,0,1-.81486.1043,3.22586,3.22586,0,0,1-.35651-.01951l.01436.00135q-8.33693-2.51178-16.64354-5.07423a8.8725,8.8725,0,0,1-1.13155-.531l.04578.02356c-2.86178-6.77385-1.01479-13.604,4.83069-17.0545a4.95968,4.95968,0,0,1,.84141-.4944l.03115-.013c5.15035-1.74567,10.26006-1.94343,15.14655.75609a7.35273,7.35273,0,0,1,3.92236,4.66841Z" style="fill: #fff"/>
        <path d="M168.97016,147.945c.60383,1.55794,1.15187,2.69436,1.48181,3.89175a20.95569,20.95569,0,0,1,.74471,5.60221,21.59866,21.59866,0,0,1-.25248,3.30118l.01518-.12a14.17487,14.17487,0,0,1-5.19612,8.71756c-.82706.70516-1.827,1.21255-2.674,1.9028a6.56138,6.56138,0,0,1-5.75419,1.18735,14.41838,14.41838,0,0,1-9.95341-7.57056l-.03765-.08155a49.33923,49.33923,0,0,0,1.9028-7.18508,43.53965,43.53965,0,0,0-.3045-7.07835,3.36566,3.36566,0,0,1,3.09855-.46459l-.02356-.007c1.46665.36544,2.9482.70516,4.44005.92837a10.27227,10.27227,0,0,0,6.637-.91835,26.123,26.123,0,0,1,3.01593-1.45528l.18583-.06718a18.19081,18.19081,0,0,1,2.56624-.57024l.10782-.01327Z" style="fill: #fff"/>
        <path d="M120.38967,87.56192c.72059-1.60346,1.9689-1.88763,3.16628-2.28856a53.73916,53.73916,0,0,0,6.2567-2.2799l-.35542.1387a17.66391,17.66391,0,0,0,6.12965-5.19613c1.80664-2.27827,3.91206-2.69438,6.49482-1.847,1.19738.39579,2.43051.7103,3.59756,1.18221,6.25643,2.49662,9.08274,9.33142,6.1906,15.13626a13.97413,13.97413,0,0,1-2.72254,3.545l-.00731.00677a6.007,6.007,0,0,1-7.20052,1.27865c-4.59744-2.07049-9.20951-4.115-13.81211-6.18546-2.52695-1.11611-5.04389-2.25795-7.73826-3.49109Z" style="fill: #fff"/>
        <path d="M97.37808,189.87323c-.9793.72058-1.59858,1.248-2.29371,1.65926a3.94078,3.94078,0,0,1-1.42222.44483l-.0187.00162c-4.90166.70516-8.4434,3.60757-11.67063,7.10381-.78643.85739-1.67959,1.62378-2.466,2.37985a15.8323,15.8323,0,0,1-11.44742-3.83108,10.75627,10.75627,0,0,1-.58351-15.64366c2.65373-2.77563,5.262-3.29306,8.966-1.72536,6.59642,2.796,13.09151,5.87094,19.62209,8.8392a8.601,8.601,0,0,1,1.31414.77125Z" style="fill: #fff"/>
        <path d="M65.57281,149.28484c-5.13518-.09645-9.844.04064-14.38533,2.09568a16.34825,16.34825,0,0,1-1.4252-1.79173l-.036-.05554c-1.17191-2.02985-2.33407-4.105-3.39979-6.21092a6.81088,6.81088,0,0,1,.75608-7.84473,15.8886,15.8886,0,0,1,12.62963-6.42385c.15062-.00271.32833-.00433.50658-.00433a30.032,30.032,0,0,1,5.69405.5418l-.18774-.03007a6.67713,6.67713,0,0,1,4.82338,3.60947l.01733.039c-.50739.77124-1.01479,1.61375-1.6189,2.40532-2.44081,3.29306-3.91207,6.87029-3.3895,11.0771.02845.428.0447.92756.0447,1.43117q0,.61276-.03169,1.218l.00244-.05634Z" style="fill: #fff"/>
        <path d="M166.849,125.91809c1.60346,3.04465,3.23212,5.881,4.643,8.82917a6.11648,6.11648,0,0,1-1.19737,7.048c-3.55178,4.05917-7.84986,6.51514-13.457,6.36805-2.65374-.071-5.24678-.11161-7.5302-1.64408-.959-.64448-2.07049-1.23287-2.07537-2.61337,1.36994-2.45083,2.84147-4.81037,4.02882-7.297,1.24316-2.60822.58352-5.48517.66966-8.46373a7.26436,7.26436,0,0,1,1.91689-.34431l.01652-.00054c.71924.071,1.555.1116,2.3999.1116a25.7737,25.7737,0,0,0,9.44628-1.78089l-.17555.06068a10.05929,10.05929,0,0,1,1.25373-.26657l.06041-.00732Z" style="fill: #fff"/>
        <path d="M177.04839,74.71909c.50739,2.456-.72058,3.65335-2.02985,4.73425a19.02393,19.02393,0,0,1-7.17206,3.84407l-.13464.03278c-2.35955.62415-4.71393,1.26348-7.10382,1.776-2.24278.477-3.35916.07612-4.2469-1.75083-2.42563-4.97291-6.698-7.61147-11.57419-9.6053-.68484-.27387-1.38-.53773-1.93856-.75608-.4161-1.30383.38548-1.52245,1.12125-1.71506,1.72021-.42125,3.44015-.84737,5.18584-1.14157a12.09044,12.09044,0,0,0,6.55064-2.98369,4.6679,4.6679,0,0,1,5.63228-.68c4.00851,1.95373,8.0731,3.8056,12.06128,5.80484a32.63691,32.63691,0,0,1,3.72271,2.49634l-.07423-.05553Z" style="fill: #fff"/>
        <path d="M74.86874,205.28878a9.70621,9.70621,0,0,1-1.62432.73955l-.0707.02168c-2.12114.50739-4.252,1.04-6.39865,1.44633a8.70747,8.70747,0,0,0-4.50886,2.13307l.00785-.007a7.20154,7.20154,0,0,1-3.9462,1.85837l-.03683.00406c-.56321-.22837-1.26836-.47705-1.94859-.79644C52.67906,208.97817,49,207.304,45.38211,205.5074c-1.72022-.8574-3.31337-1.95373-4.60747-2.72987a2.82974,2.82974,0,0,1,.23352-3.47077,12.97583,12.97583,0,0,1,4.83665-3.84353l.08045-.03305A39.4473,39.4473,0,0,1,57.053,192.26905c.43208-.03629.93542-.0569,1.44363-.0569s1.01127.02059,1.50918.06123l-.06528-.00433a43.1201,43.1201,0,0,0,3.973,5.52068,26.72531,26.72531,0,0,0,5.11243,3.8232l.12921.06853c1.82695,1.10609,3.83107,1.92312,5.75419,2.86694Z" style="fill: #fff"/>
        <path d="M30.68253,146.34665c-1.46151.42125-2.4102.78127-3.3895.959-4.511.81189-7.61148,3.694-10.53936,6.9261-.64935.72059-1.35965,1.39541-1.88275,1.92312h-.00244a6.22061,6.22061,0,0,1-5.21455-2.82277l-.01463-.02384c-3.30336-4.82554-4.08978-9.88947-1.07574-15.17689.62415-1.09606,1.31928-2.15664,2.02985-3.19175a6.32534,6.32534,0,0,1,9.783-1.15187,89.417,89.417,0,0,1,6.1814,7.01062l.14113.18449c1.35478,1.59858,2.51693,3.35916,3.983,5.36355Z" style="fill: #fff"/>
        <path d="M187.04947,130.94626c2.8821-1.27349,6.15-1.19223,8.51466-3.25757,2.2734-1.98407,4.511-4.01365,7.17478-6.38836,1.71507-.50739,3.45045.50739,4.72423,2.21244,3.2424,4.32844,4.52132,9.05754,2.02985,14.20788a27.69228,27.69228,0,0,1-3.23129,5.19885l.04469-.05878a6.3132,6.3132,0,0,1-8.64307,1.07927l.01707.01218a17.26086,17.26086,0,0,1-2.96013-2.70819l-.01842-.02194c-2.25795-2.72986-4.41459-5.54613-6.5964-8.35211a15.38346,15.38346,0,0,1-1.01371-1.82533l-.04172-.09806Z" style="fill: #fff"/>
        <path d="M89.89853,159.32655c-2.09053,4.1659-3.2982,8.65145-1.98407,13.70049-.38008.03657-.82191.0577-1.26835.0577s-.88828-.02086-1.32416-.06177l.0558.00433a125.08738,125.08738,0,0,1-20.08642-6.00558l.85524.29717c-.12191-3.45559.65964-6.439,3.6585-8.58048a14.02769,14.02769,0,0,1,8.18768-2.86666l.01734-.00026c3.01917-.03034,6.089-.39579,8.95081.94869a4.52555,4.52555,0,0,1,2.93791,2.50664Z" style="fill: #fff"/>
        <path d="M127.86923,119.0524a9.1858,9.1858,0,0,1,.50739-2.70466,18.022,18.022,0,0,0,1.42575-11.33581c-.0084-.104-.01328-.22512-.01328-.34756s.00488-.24354.01435-.36328l-.00109.01572c2.88726-.5074,15.2885,2.79081,21.5146,5.71355.11161,2.74015-.23839,5.3584-2.53725,7.40857-2.877,2.53724-6.089,4.18621-10.0569,3.963-.45539-.03414-.98662-.05364-1.52245-.05364s-1.06654.0195-1.5929.05771l.07044-.00407c-2.76535.24354-5.08939-.888-7.80924-2.34952Z" style="fill: #fff"/>
        <path d="M66.92243,79.07787c3.6585,2.60822,7.50989,4.94229,10.84358,7.87018a9.14974,9.14974,0,0,1,3.21206,9.29078c-.279,1.14672-.45159,2.31891-.761,3.45046a6.533,6.533,0,0,1-3.27789,4.3027,16.65174,16.65174,0,0,1-2.71117-1.50349l.05716.03711a64.75675,64.75675,0,0,1-9.56493-10.052,2.02826,2.02826,0,0,1-.5036-.843l-.0038-.01436c-.609-4.21141-1.0603-8.40305,1.97405-12.01577a5.55325,5.55325,0,0,1,.71057-.50848l.02519-.01409Z" style="fill: #fff"/>
        <path d="M153.39234,185.64637c.48192,4.51618.86255,8.78338-2.60308,12.447-1.248-.78126-2.41019-1.43089-3.48594-2.20215-2.395-1.72537-4.851-3.37947-7.10381-5.29257-3.146-2.69952-4.64811-6.089-3.55178-10.32616.31966-1.21769.60384-2.456,1.01479-3.6482a5.30176,5.30176,0,0,1,1.76085-2.82115c1.71506-.6545,2.89727.03034,4.05916,1.01478a66.61965,66.61965,0,0,1,7.85691,8.31718l.10456.13654c.63932.78127,1.28868,1.5631,1.94858,2.37471Z" style="fill: #fff"/>
        <path d="M26.735,240.35651c1.64924,2.57762,3.84624,2.82629,6.38322,3.075A9.007,9.007,0,0,0,34.7,243.22778l-.05932.01111a5.66444,5.66444,0,0,1,.70407-.04281,5.80354,5.80354,0,0,1,3.17467.93921l-.02248-.01383c1.89278,1.25318,3.8056,2.48632,5.749,3.65851s3.93238,2.258,5.9774,3.43013c.06584.66966.12678,1.31928.18259,1.95372a11.41537,11.41537,0,0,1-7.16639,3.94105l-.059.0065a7.48738,7.48738,0,0,1-.93677.05689,7.70952,7.70952,0,0,1-2.80977-.52662l.05255.01815a55.028,55.028,0,0,1-6.68148-3.13l.288.14656a26.26131,26.26131,0,0,0-4.88216-2.12358l-.19234-.05337c-6.30222-1.86732-8.4537-8.11886-5.85063-13.40629l2.26825-.11677A11.58774,11.58774,0,0,1,26.712,240.3229l.023.03331Zm10.30558,9.961c-2.19727-1.5631-4.28239-1.66956-6.12965-2.38989a50.32754,50.32754,0,0,1-5.23677-2.72986c-.37032,1.04512.28932,1.52245.83221,2.02985a15.23148,15.23148,0,0,0,5.68185,3.40412l.10782.03089a12.04816,12.04816,0,0,0,2.92328.506l.03007.00136c.45674.02546.92837-.42125,1.79119-.85252Z" style="fill: #fff"/>
        <path d="M190.73343,36.84512c-1.25833-1.91824-2.96852-2.29859-4.82065-2.83145a2.26643,2.26643,0,0,0-.62036-.08452,2.33545,2.33545,0,0,0-.40852.03576l.01409-.00217c-3.15111.5632-5.71355-.71544-8.25079-2.37985s-5.21644-3.10533-7.84472-4.62778c-2.22762-1.28353-2.385-2.65889-.34-4.27751,3.04465-2.41535,6.49-3.26787,10.20425-1.8573,2.116.8016,4.09979,1.95373,6.16,2.91272,1.28867.60384,2.60307,1.167,3.91721,1.71507.5429.22322,1.13643.33483,1.68473.548,4.34361,1.72021,7.61147,6.59641,5.04389,12.96987h-2.78567a11.72161,11.72161,0,0,1-1.93016-2.08674l-.02356-.0344Zm1.19766-4.71908c.0558-1.68987-1.15187-2.43051-2.187-3.18145-2.47629-1.79119-5.12487-3.17142-8.32691-2.98857-.20805.46676-.34.76611-.50739,1.11123,1.64408,1.48183,3.85625,1.28867,5.63742,2.16666s3.496,1.87246,5.38388,2.8924Z" style="fill: #fff"/>
        <path d="M19.67153,100.31344c-1.52246-.619-1.73051-1.81665-1.79119-3.14081a32.93315,32.93315,0,0,0-1.43713-8.428l.062.233a10.19182,10.19182,0,0,0-2.18264-4.22957l.01083.013a3.4273,3.4273,0,0,1-.62551-4.203l-.00894.01653c1.01479-2.02986,2.07049-4.05917,3.13594-6.04324a4.7346,4.7346,0,0,1,3.61652-2.43864l.0214-.0019a12.65213,12.65213,0,0,1,7.7992,1.497c.47706.23351.78643.80673,1.18736,1.24315-3.623,7.3273-5.58163,15.09563-7.97665,22.7174-.34513,1.03511-.51255,2.15663-1.81151,2.76535Z" style="fill: #fff"/>
        <path d="M197.00532,177.00494c2.20215.47191,2.34951.70516,2.57274,2.56243.26386,2.25308.55805,4.511.94382,6.74352a12.67385,12.67385,0,0,0,2.8225,6.419l-.01651-.02032a3.18146,3.18146,0,0,1,.39578,3.9527c-.94869,1.78117-1.71506,3.66853-2.745,5.39389-1.71018,2.86694-3.77011,3.694-7.03771,2.97341-1.86731-.411-3.84623-.548-5.58162-2.09569a12.38011,12.38011,0,0,1,.57457-2.34491l-.02655.08669c2.78567-6.24641,4.6126-12.81737,6.65737-19.31245.43642-1.42061.92837-2.8263,1.44119-4.35879Z" style="fill: #fff"/>
        <path d="M197.31984,146.83888c1.68986-.42612,2.53725.548,3.13593,1.695,1.55794,2.8924,2.98856,5.84548,4.56682,8.71756a15.11191,15.11191,0,0,0,2.17182,2.75017h0a17.60076,17.60076,0,0,0,1.77981,1.51433l.04714.03332c.10159.39064.269.65964.21807.87257-1.1161,4.68359-3.085,8.7479-7.936,10.65585a4.7555,4.7555,0,0,1-1.68418.30206q-.14468,0-.2877-.0084l.013.00054-.0428.00027a2.27966,2.27966,0,0,1-2.207-1.70993l-.00352-.01571a11.43821,11.43821,0,0,1-.50713-3.21179l-.00026-.0103a48.95338,48.95338,0,0,0-1.04-13.06117c-.76611-3.18659-.14711-5.21644,1.776-8.52468Z" style="fill: #fff"/>
        <path d="M20.39212,130.25113a2.4143,2.4143,0,0,1-3.20691-1.37508c-1.568-2.877-3.014-5.82516-4.61776-8.68208a17.52479,17.52479,0,0,0-2.31268-2.96229l.00407.00407A23.89419,23.89419,0,0,0,8.32732,115.473l-.04253-.03359a3.41568,3.41568,0,0,1-.08642-.774,3.49876,3.49876,0,0,1,.02194-.39362l-.00135.016c1.32416-3.765,2.83144-7.4186,6.51514-9.575,1.908-1.12125,3.82592-.959,5.82.68a41.83392,41.83392,0,0,1,.30422,4.71746l.00028.02194c-.1471,3.81074-.15739,7.61148,1.0603,11.25454,1.10609,3.31337-.19776,6.04838-1.52733,8.86465Z" style="fill: #fff"/>
        <path d="M186.68945,205.162a16.56679,16.56679,0,0,0,8.67122,2.42022,16.92809,16.92809,0,0,0,1.96132-.1135l-.07829.0073c-1.766,2.37985-3.04465,4.33847-4.56683,6.089-2.395,2.83659-4.8613,5.63742-7.46925,8.23536a48.31408,48.31408,0,0,1-5.54208,4.46172l-.16146.10537a8.37059,8.37059,0,0,1-2.28856.86769c-.43642-.25871-.65964-.30937-.71544-.43126-1.11123-2.53726-.96414-5.24165-.93352-7.90053a3.8791,3.8791,0,0,1,1.36994-2.29858,44.6182,44.6182,0,0,0,6.91038-8.09287l.10185-.16308a26.57708,26.57708,0,0,1,2.74015-3.1866Z" style="fill: #fff"/>
        <path d="M41.227,50.46434a26.79613,26.79613,0,0,1,.83708,7.29181,3.83832,3.83832,0,0,1-1.43576,2.86178,47.05968,47.05968,0,0,0-7.45381,8.65417l-.107.16986a15.09831,15.09831,0,0,1-2.116,2.24277c-1.93856-.65964-3.47565-1.3293-5.07423-1.695a41.01445,41.01445,0,0,0-4.76188-.57675l-.12976-.00677a13.61686,13.61686,0,0,1,3.06984-4.95747c2.6234-2.97854,5.23162-5.97741,8.01728-8.79856a68.7119,68.7119,0,0,1,5.612-4.70905,3.23319,3.23319,0,0,1,3.54174-.477Z" style="fill: #fff"/>
        <path d="M204.25108,150.70028a2.987,2.987,0,0,1,.15333-.76692l-.00624.02087c1.61375-2.77049,3.26272-5.58162,5.89614-7.4744,1.87762-1.34962,4.18108-.92837,6.30221-.68,1.52246,3.79043,1.26348,17.38419-.75092,20.34757-1.62893.50739-3.04465-.27388-4.39942-1.10609a14.88485,14.88485,0,0,1-6.18167-7.353l-.03441-.101c-.36544-.92837-.6545-1.90279-.9793-2.88725Z" style="fill: #fff"/>
        <path d="M.90223,135.47788c-1.46151-4.15046-1.0706-16.04974.619-20.23081a5.27589,5.27589,0,0,1,1.31008-.16118,5.38475,5.38475,0,0,1,3.19553,1.04432l-.01517-.01057a15.726,15.726,0,0,1,7.16856,10.84657l.01138.08858c-1.52246,2.92274-3.40467,5.8555-6.48481,7.81438a5.3976,5.3976,0,0,1-2.40288.57837H4.30148c-1.08062.09644-2.17695.03035-3.39979.03035Z" style="fill: #fff"/>
        <path d="M51.29909,166.45583a12.95272,12.95272,0,0,1,2.18454,1.16134l-.04823-.03007a87.88846,87.88846,0,0,0,13.61625,8.56531l.50549.23325a11.07411,11.07411,0,0,1,1.14374.79861l-.02249-.01735a8.30349,8.30349,0,0,1-.9961.91456l-.01842.01382a18.4258,18.4258,0,0,0-5.21346,4.94095l-.03847.05742a3.12224,3.12224,0,0,1-3.7498,1.26835,15.9362,15.9362,0,0,1-7.71116-4.49856l-.00678-.00731c-2.50149-2.53726-2.83144-9.68658-.54288-12.589a8.083,8.083,0,0,1,.88015-.79835l.01789-.01328Z" style="fill: #fff"/>
        <path d="M166.45838,110.71546a6.02632,6.02632,0,0,1-1.908-.7103,78.26715,78.26715,0,0,0-15.22267-9.49883,1.08013,1.08013,0,0,1-.28661-.29528l-.00243-.00407,7.28152-7.246c3.633-.56834,8.85437,1.837,10.8742,5.16064a11.3879,11.3879,0,0,1-.75607,12.62231l.02058-.02817Z" style="fill: #fff"/>
        <path d="M106.44564,70.99449a7.396,7.396,0,0,1-.70515-1.8218,8.28539,8.28539,0,0,0-3.55177-5.87582,14.62919,14.62919,0,0,1-3.11562-2.95823,1.5593,1.5593,0,0,1,1.546-1.36533l.04443.00054h-.00217c4.25719-.5074,8.484-1.32931,12.81221-1.15675,2.60823.10159,5.22648-.0558,7.83985-.071.81677,0,1.63922.08127,2.68922.142a5.609,5.609,0,0,1-.45673,1.5631,29.68222,29.68222,0,0,1-14.13691,11.001,17.79,17.79,0,0,1-2.88183.53611l-.08154.00677Z" style="fill: #fff"/>
        <path d="M93.36443,218.96382c.67481-.93352,1.299-1.9131,2.02985-2.80112a32.677,32.677,0,0,1,10.02872-8.07417l.18068-.08533c1.83183-.93867,3.72949-1.52246,5.89127-.7103a10.33632,10.33632,0,0,1,.25,1.16215l.00866.06583a7.74977,7.74977,0,0,0,2.81709,5.17987l.01435.01111c1.3293,1.15187,2.59794,2.36468,3.73463,3.40467,0,1.19737-.59869,1.41056-1.32416,1.52245a71.47452,71.47452,0,0,1-13.19987,1.19494q-.33119,0-.66127-.003l.03386.00026c-2.36468-.05066-4.72937,0-7.1038,0-.81189,0-1.62893-.142-2.44082-.21807Z" style="fill: #fff"/>
        <path d="M1.7748,112.87724c2.14634-9.67655,4.60231-18.77472,9.03722-27.27367a3.86477,3.86477,0,0,1,2.28341,2.53725,38.3696,38.3696,0,0,1,2.61338,10.24489,4.43749,4.43749,0,0,1-1.61376,4.29268c-2.77564,1.97405-4.43,4.8055-6.231,7.55053-.68,1.01479-1.52245,1.96375-2.2937,2.96852Z" style="fill: #fff"/>
        <path d="M135.5411,211.8294c.37953-.02709.82217-.04253,1.26836-.04253s.88908.01544,1.32768.04578l-.05933-.00325c4.1659.64448,8.0731.25355,11.45257-2.5676a3.98259,3.98259,0,0,1,.86471-.4375l.02818-.00895c3.66852,2.58791,5.42937,11.209,3.21693,15.73007-1.776.57838-3.50625-.08126-5.20616-.411a30.25429,30.25429,0,0,1-5.2736-1.68906l.19911.07532a7.45833,7.45833,0,0,1-3.72542-3.24105l-.01923-.03683c-1.309-2.30375-2.56244-4.67357-4.07461-7.41346Z" style="fill: #fff"/>
        <path d="M215.61234,164.84207a117.28688,117.28688,0,0,1-9.26206,27.664l.30611-.70461a4.39827,4.39827,0,0,1-2.16232-2.45571l-.00947-.03061a43.27329,43.27329,0,0,1-2.686-10.48273l-.02356-.224a3.82316,3.82316,0,0,1,1.30384-3.65336c3.18145-2.41535,5.049-5.82,7.17994-9.05239,1.46665-2.25308,2.46113-2.42564,5.35325-1.06031Z" style="fill: #fff"/>
        <path d="M63.93387,52.38746a24.85988,24.85988,0,0,1,11.54494,3.10966l-.12786-.065a6.51348,6.51348,0,0,1,2.32323,2.22544l.016.02736c1.46151,2.42564,2.735,4.96262,4.18622,7.647a22.60515,22.60515,0,0,1-3.16113,0A12.55659,12.55659,0,0,0,68.242,67.74206a10.68482,10.68482,0,0,1-1.19629.7168l-.062.029c-3.52658-2.74016-5.29257-11.70613-3.04952-16.10067Z" style="fill: #fff"/>
        <path d="M172.69964,168.61218a5.78978,5.78978,0,0,1,1.31414,6.56607,35.688,35.688,0,0,1-5.56239,9.99945l.05661-.07422c-1.62892,2.02985-3.16113,4.11009-4.851,6.32253l-5.79969-7.66728c1.64408-2.47115,3.17141-4.86617,4.81551-7.18508a6.01314,6.01314,0,0,1,1.99925-1.79607l.0306-.01544c3.004-1.51731,5.34837-3.82077,7.997-6.15Z" style="fill: #fff"/>
        <path d="M53.97314,85.87746q3.04465,4.05916,5.7439,7.64181c-1.79119,2.53725-3.49109,5.07422-5.26711,7.48957a4.92977,4.92977,0,0,1-1.65411,1.474l-.02546.01273a30.88771,30.88771,0,0,0-7.855,6.089,4.98784,4.98784,0,0,1-1.76085-5.37357,29.00747,29.00747,0,0,1,4.53243-9.35173l-.05689.08127c1.71506-2.395,3.55177-4.70391,5.34323-7.03771a12.10317,12.10317,0,0,1,.99014-1.01642l.00948-.0084Z" style="fill: #fff"/>
        <path d="M75.96507,109.19842l3.98819,3.085a58.45835,58.45835,0,0,0,1.05543,7.647,53.6416,53.6416,0,0,0,2.81113,6.8451c-.22837.23839-.32481.42613-.46162.46676-3.146.87771-6.30221,1.74053-9.64079,2.664a8.90753,8.90753,0,0,1-1.02671-1.578l-.02357-.05093a24.02855,24.02855,0,0,1-1.81964-9.25421q0-.204.00325-.40716l-.00027.02032a11.67492,11.67492,0,0,1,5.11486-9.43788Z" style="fill: #fff"/>
        <path d="M142.92421,196.56608a34.19962,34.19962,0,0,1,7.1393,9.18432c-6.8348,6.85512-16.61294,6.34773-22.3571-2.8924a68.4804,68.4804,0,0,0,8.02244-1.91824,17.6215,17.6215,0,0,0,7.1951-4.37421Z" style="fill: #fff"/>
        <path d="M90.23879,74.58716c-6.02319.41611-11.34095,1.71507-15.40012,5.93678-2.53725-1.57826-6.11935-6.24127-7.26635-9.42271a13.70854,13.70854,0,0,1,7.83822-3.93916l.0726-.0084c4.72422-.7103,8.86981.32481,11.93449,4.32329.761.99447,1.67471,1.86244,2.82116,3.11047Z" style="fill: #fff"/>
        <path d="M141.47788,168.09965l-3.81563-2.99887a63.806,63.806,0,0,0-1.19223-7.71793,58.0394,58.0394,0,0,0-2.796-6.93125c3.18145-1.49185,8.69209-2.877,10.71165-2.59793,1.69991,4.313,2.99887,8.78854,1.766,13.60919a11.868,11.868,0,0,1-4.67357,6.637Z" style="fill: #fff"/>
        <path d="M133.11575,213.41768c-2.44081.91319-4.69389,1.81665-6.99219,2.60308a4.57727,4.57727,0,0,1-1.70424.32291,4.63643,4.63643,0,0,1-2.66945-.84032l.0149.01a38.53534,38.53534,0,0,1-5.0902-4.07432l.016.01517c-2.06535-2.106-2.29371-4.83067-1.52246-7.55566a27.3892,27.3892,0,0,1,1.79633-4.034c4.05917.96414,12.26934,7.855,16.15132,13.55339Z" style="fill: #fff"/>
        <path d="M84.30175,63.93132c2.83144-1.0148,5.399-2.02986,8.01213-2.90243a3.48067,3.48067,0,0,1,1.13019-.18475,3.53576,3.53576,0,0,1,2.0472.6488l-.01111-.00758c1.32416.89289,2.64886,1.79119,3.90692,2.77564,4.84586,3.79043,3.87658,9.82365.57838,13.16276a46.94519,46.94519,0,0,1-15.664-13.49244Z" style="fill: #fff"/>
        <path d="M187.96782,192.91788c-2.83145-1.96891-5.739-3.81076-8.4434-5.91647a5.22633,5.22633,0,0,1-1.84211-6.51514c.7103-1.77086.84737-3.765,2.22761-5.58162a8.85191,8.85191,0,0,1,2.00764.75392l-.049-.0233a23.0645,23.0645,0,0,0,7.677,3.32341l.15766.0306c.827.19288,1.68472.31452,1.98922,1.309-.20291,2.53726-2.51693,10.51389-3.72433,12.6196Z" style="fill: #fff"/>
        <path d="M37.45665,102.85584c-3.75494-2.86178-7.7434-4.105-11.889-5.21645.80159-4.841,2.42563-8.966,3.55176-13.56857,1.27351.85253,2.23791,1.47153,3.17631,2.13632,1.85729,1.309,3.74979,2.57274,5.52581,3.983,2.4205,1.9131,2.877,3.8056,1.86243,6.68256-.38549,1.10608-.68483,2.24793-1.08061,3.354-.25357.74579-.63418,1.487-1.14672,2.62855Z" style="fill: #fff"/>
        <path d="M58.47414,50.23082a7.40546,7.40546,0,0,1-2.83361-4.45874l-.00812-.04741a34.58477,34.58477,0,0,1-.61982-4.91222l-.00433-.09617c-.01707-.20616-.02682-.4459-.02682-.68809a8.79094,8.79094,0,0,1,1.89819-5.47l-.01409.01869a19.02076,19.02076,0,0,1,6.53357-5.67426l.10322-.04958c1.497-.7661,3.004-1.52246,4.47553-2.33407a5.15569,5.15569,0,0,1,2.537-.65856,5.2143,5.2143,0,0,1,1.73159.2942l-.03657-.01111a3.8631,3.8631,0,0,1-.56375.94057l.00542-.007c-6.089,5.25681-9.13366,12.14769-10.72709,19.835-.13193.65965-.29935,1.31414-.477,1.96376a1.71978,1.71978,0,0,1-1.974,1.35477Z" style="fill: #fff"/>
        <path d="M145.05051,251.053c.71544-.78643,1.12125-1.30384,1.59344-1.75083a31.86778,31.86778,0,0,0,9.29131-16.24288l.0401-.21265c.3045-1.31414.69512-2.60822.92837-3.93238a2.81535,2.81535,0,0,1,1.776-2.1263,7.61945,7.61945,0,0,1,3.26408,5.36789l.00352.03629c.17771,1.08062.279,2.17181.42125,3.25242a9.18762,9.18762,0,0,1,.12353,1.52326,9.41487,9.41487,0,0,1-2.52913,6.43388l.00543-.00569a20.80707,20.80707,0,0,1-7.36794,5.62226c-1.08576.45673-2.106,1.06031-3.15111,1.60346a6.26313,6.26313,0,0,1-4.39941.43127Z" style="fill: #fff"/>
        <path d="M77.17247,82.5741A4.64774,4.64774,0,0,1,79.54718,79.9a20.91039,20.91039,0,0,1,11.29788-3.276q.52582,0,1.04567.02546l-.04876-.00189a3.919,3.919,0,0,1,1.90958.583l-.0168-.00976c3.19175,2.055,6.3377,4.17078,9.72721,6.41383l-4.33359.2029a35.54724,35.54724,0,0,0-10.399,1.87544l.25032-.07422c-4.57712,1.58829-8.43339.11161-11.80772-3.06469Z" style="fill: #fff"/>
        <path d="M140.39212,195.17582c-4.50614,4.30784-9.81335,5.749-15.73007,5.33292-3.55178-2.34436-7.06317-4.6481-10.78291-7.10381.82191-.04064,1.40543-.11677,1.98407-.08614A38.976,38.976,0,0,0,128.3,191.6086a11.91357,11.91357,0,0,1,3.519-.5196,12.11975,12.11975,0,0,1,7.11654,2.2948l-.036-.02465a6.46453,6.46453,0,0,1,.963.80565l.00109.00109a4.9893,4.9893,0,0,1,.5158.97524l.01192.0344Z" style="fill: #fff"/>
        <path d="M120.58744,9.7489a3.1334,3.1334,0,0,1-2.26255,2.02579l-.02087.00406a36.48915,36.48915,0,0,1-12.528.72547,5.93844,5.93844,0,0,1-.79157-8.51466A11.56547,11.56547,0,0,1,109.97927.337l.07938-.02628c2.02985-.7661,4.81552-.19288,5.32807,2.58791a8.32468,8.32468,0,0,0,3.23211,4.97779c.69.55805,1.30384,1.25318,1.96891,1.87246Z" style="fill: #fff"/>
        <path d="M96.77425,267.23493a6.14984,6.14984,0,0,1,4.33575-2.21137l.01815-.00081c2.59793-.28417,5.21645-.3603,7.81952-.60383,4.02883-.38063,5.81,2.56759,4.71907,6.28676-1.05542,3.6027-3.9527,5.58163-7.42889,6.59641a3.31758,3.31758,0,0,1-3.89689-2.47629,10.13649,10.13649,0,0,0-3.85112-5.7542,18.20867,18.20867,0,0,1-1.68933-1.80446l-.02573-.03251Z" style="fill: #fff"/>
        <path d="M153.77294,65.60575a22.59248,22.59248,0,0,1-2.6234,1.18221l-.16741.0558c-1.92312.59354-3.88688,1.07574-5.84034,1.57826-3.72432.959-5.12.5074-7.36793-2.59793a9.36306,9.36306,0,0,0-6.43225-3.91721l-.04741-.00515c-.57837-.08614-1.18735,0-1.75571-.13193-.96413-.21807-1.89792-.53773-2.88725-.827V58.9129a5.83387,5.83387,0,0,1,.73657-.492l.02953-.01544c1.64925-.67481,3.30337-.25871,4.97291-.03549a97.75626,97.75626,0,0,1,17.18427,3.74032l-.693-.18854a25.64422,25.64422,0,0,1,3.20692,1.22419l-.16253-.06718a2.731,2.731,0,0,1,1.847,2.52424Z" style="fill: #fff"/>
        <path d="M63.57872,211.65683a11.11481,11.11481,0,0,1,1.77981-.89642l.07748-.02708q3.88686-1.0806,7.81952-2.02985c2.385-.58351,4.43491-.30937,5.95709,2.02985a9.49324,9.49324,0,0,0,5.43452,4.31815c1.2177.31966,2.49662.39064,3.72948.65449.8677.18774,1.70505.5074,2.67921.81189-.11161.8677-.19776,1.52246-.26386,2.02985a5.85574,5.85574,0,0,1-4.3539.63418,115.468,115.468,0,0,1-19.91629-4.56682c-1.28867-.48707-2.52181-1.05543-2.94306-2.95823Z" style="fill: #fff"/>
        <path d="M49.51278,35.8455h3.25757c.17771,3.08013.12191,6.03321.56834,8.90529a87.3997,87.3997,0,0,0,2.2073,8.555l-7.03283,4.68874a2.354,2.354,0,0,1-1.74053-2.23791,31.28294,31.28294,0,0,1-.59111-6.1348,32.18173,32.18173,0,0,1,1.099-8.36376l-.05148.22485c.52257-1.93856.77125-3.99334,2.28342-5.63743Z" style="fill: #fff"/>
        <path d="M90.48232,88.20612c4.89164-3.89175,17.35385-4.14559,25.60465,1.82694-.11161.18773-.18773.50739-.34512.558A61.9439,61.9439,0,0,1,103.20866,93.321c-.24517.01761-.531.02763-.8192.02763a12.13971,12.13971,0,0,1-4.70065-.9403l.08018.0298q-2.48144-.93867-4.93227-1.93856a3.4147,3.4147,0,0,1-2.3544-2.29371Z" style="fill: #fff"/>
        <path d="M126.99124,189.51319c-5.82516,4.34361-19.94663,3.18145-25.61982-2.07537a15.2881,15.2881,0,0,1,1.53248-.613l.12191-.0363c2.35439-.65964,4.69388-1.38,7.0732-1.89792,3.68371-.80674,7.34247-1.01478,10.86391.81189,1.26835.64934,2.65374,1.07061,3.98818,1.59344a2.939,2.939,0,0,1,2.03663,2.19835l.00352.01923Z" style="fill: #fff"/>
        <path d="M169.52333,218.98928c2.92274,4.97291,1.847,17.79027-1.62378,22.27069h-3.13079c-.19775-3.04465-.16741-5.94193-.619-8.73788s-1.39026-5.51064-2.17695-8.49922Z" style="fill: #fff"/>
        <path d="M26.89236,210.911a4.10427,4.10427,0,0,1,1.23422-.18583,4.17837,4.17837,0,0,1,2.9371,1.20118l-.00054-.00055c2.50149,2.258,5.01327,4.51618,7.3273,6.95157a8.954,8.954,0,0,0,4.115,2.77563,22.02389,22.02389,0,0,1,6.86541,3.68885A9.386,9.386,0,0,1,53.08,231.59831a8.642,8.642,0,0,1-2.73989.43615,8.78128,8.78128,0,0,1-4.70986-1.36074l.0363.0214c-3.48079-2.06535-6.698-4.53134-8.68694-8.25567a20.70918,20.70918,0,0,0-6.93152-7.75694l-.07585-.0474a12.65347,12.65347,0,0,1-2.28992-1.96945l-.00867-.00976a7.56647,7.56647,0,0,1-.78128-1.74567Z" style="fill: #fff"/>
        <path d="M164.19012,45.39526c3.64821-.44129,6.69285.05066,9.35174,2.13632,1.46151,1.14672,2.88725,2.34437,4.23172,3.623a16.1177,16.1177,0,0,1,1.99219,2.47576l.03765.06149c1.05543,1.52246,1.99925,3.12565,3.04465,4.643a14.57861,14.57861,0,0,0,4.31679,4.10467l.062.03576a14.47167,14.47167,0,0,1,2.534,2.07212l.00325.00325a5.01511,5.01511,0,0,1,.69,1.52245,3.105,3.105,0,0,1-3.86656-.70515c-2.50664-2.24278-4.99323-4.5262-7.28667-6.9819a8.23075,8.23075,0,0,0-4.08977-2.735,20.49168,20.49168,0,0,1-7.7128-4.21656c-1.72536-1.4309-2.55756-3.46562-3.30822-6.03836Z" style="fill: #fff"/>
        <path d="M95.54626,117.47956l1.06545-.87257c1.0148.82191,2.00439,1.57312,2.93791,2.38987a24.932,24.932,0,0,0,9.43355,5.39768l.17717.04714a14.6063,14.6063,0,0,0,3.98223.54017,15.04009,15.04009,0,0,0,2.87614-.27631l-.09428.01544c.97416-.16742,1.97893-.18773,2.85692-.26386,2.06019,3.11563,2.48144,9.39725.83709,12.01577-.55291-.34-1.14157-.64447-1.66441-1.01479q-9.98076-7.37307-19.94175-14.76594c-1.09606-.82191-2.1821-1.62377-2.466-3.21206Z" style="fill: #fff"/>
        <path d="M174.96788,186.296c1.98923,1.71019,3.81076,3.48079,5.84034,4.96261,1.94344,1.42574,4.09979,2.53725,6.32253,3.90691-1.48181,3.37947-3.32854,6.27161-4.97291,9.49885-.67482-.5074-1.16189-.79645-1.568-1.17706a35.62551,35.62551,0,0,1-6.26131-8.00156l-.09156-.1731a16.22917,16.22917,0,0,1-.92783-1.93883l-.04117-.11622a4.90259,4.90259,0,0,1,.58054-5.256l-.00731.00921c.40092-.52771.7103-1.10609,1.12641-1.71506Z" style="fill: #fff"/>
        <path d="M35.38156,72.64887a16.49555,16.49555,0,0,1,4.57116,4.47527l.0363.05607a55.42846,55.42846,0,0,1,3.40982,4.9805l.142.25113c1.95861,3.364,1.64924,5.24679-1.32416,8.53984A32.17535,32.17535,0,0,0,30.93825,82.599l-.20453-.08073c-.142-2.14634,1.309-3.5114,2.06019-5.12488s1.65927-3.08013,2.58791-4.74455Z" style="fill: #fff"/>
        <path d="M154.76226,111.81179c4.28238,2.49147,9.39238,8.79856,9.6714,11.8432-3.55178,3.32368-12.48767,2.28341-15.63852-1.695a9.25806,9.25806,0,0,1,.78046-2.08132l-.02439.05147a17.29682,17.29682,0,0,1,1.94777-2.31322l.00081-.00081a10.82926,10.82926,0,0,0,2.47115-4.24635l.02032-.07694a8.73307,8.73307,0,0,1,.79184-1.51514l-.02059.03332Z" style="fill: #fff"/>
        <path d="M63.23358,77.01768c-.73576,3.43013-1.44633,6.74351-2.27826,10.61033-6.3071-7.33732-10.94518-14.89272-13.01052-23.96028.91836-.44644,1.30384.15739,1.74568.629,1.9028,2.02986,3.73463,4.13529,5.73387,6.06356,1.76085,1.68988,3.704,3.1866,5.58163,4.76973Z" style="fill: #fff"/>
        <path d="M68.90162,155.45a11.46094,11.46094,0,0,1-1.30383,2.33923c-1.94344,2.13117-3.84624,4.252-4.47554,7.19-.03034.12678-.24869.208-.38061.31451-3.55177-1.72536-9.15886-8.4434-9.73723-11.67063,3.86656-3.37433,12.03608-2.60823,15.89776,1.827Z" style="fill: #fff"/>
        <path d="M154.28549,200.20941c.619-3.12565,1.2177-6.15512,1.847-9.174.06094-.28417.35-.50739.53285-.7764,4.56682,3.13079,11.76708,16.50133,12.80219,24.02637a19.01893,19.01893,0,0,1-1.98271-1.73917l-.00136-.00135a68.59784,68.59784,0,0,0-11.35992-10.80457l-.17364-.12515c-.53774-.39578-1.02482-.86255-1.66441-1.40542Z" style="fill: #fff"/>
        <path d="M182.76709,54.19409a2.27321,2.27321,0,0,1,2.605.00487l-.00731-.00487a31.8628,31.8628,0,0,1,3.62031,2.46221l-.06853-.052c3.415,2.88726,6.75379,5.8658,10.14844,8.77851a10.65974,10.65974,0,0,0,2.21948,1.54522l.05878.0279a5.47456,5.47456,0,0,0,5.13411-.01436l-.02925.01435a4.03406,4.03406,0,0,0,2.44569-4.05916,1.64488,1.64488,0,0,1,.27252-.70082l-.00353.00569c.03034-.061.13707-.08127.39579-.22322.20291.23839.54289.47191.66478.78642a5.91294,5.91294,0,0,1,.41665,2.20052,6.01971,6.01971,0,0,1-4.89028,5.91239l-.03739.006c-1.14157.2384-2.30374.37547-3.48079.55806-.3603.9132-.73062,1.66955-.969,2.466-1.62892,5.51579-7.17478,5.65774-10.55941,2.34436.525-.02817,1.13967-.04442,1.75842-.04442s1.23288.016,1.84376.048l-.08534-.00353a4.47785,4.47785,0,0,0,4.82066-5.13,9.01778,9.01778,0,0,0-3.59756-6.708c-2.36983-1.75571-4.85616-3.354-7.26635-5.07423a30.603,30.603,0,0,1-3.4686-2.54809l.04362.03631a18.54078,18.54078,0,0,1-1.93911-2.557l-.045-.07666Z" style="fill: #fff"/>
        <path d="M64.44153,72.50665c-1.15674.9235-2.116.46162-2.98857-.26385Q57.3938,68.85845,53.37472,65.408a20.56524,20.56524,0,0,1-2.31836-2.26906l-.02086-.02438a3.74444,3.74444,0,0,1-1.05543-3.55177c2.20215-1.34447,4.60233-2.86693,7.058-4.29783.94869-.548,1.01479-.45159,2.58791-.04578.50739,2.95308.81676,5.97226,1.61375,8.84949s2.11085,5.59191,3.20176,8.43853Z" style="fill: #fff"/>
        <path d="M167.58993,217.46167a38.88205,38.88205,0,0,1-8.45532,5.062l-.25194.09833c-.98932-.18773-1.41544-.67482-1.41057-1.44119.03549-5.69837-1.81665-10.88421-4.29782-15.90263-.06582-.13193,0-.32481,0-.58866a2.53751,2.53751,0,0,1,2.97014.34162l-.00162-.00162c3.30823,2.85691,6.63705,5.68808,9.88947,8.6008a4.2375,4.2375,0,0,1,1.55549,3.85221l.00217-.02113Z" style="fill: #fff"/>
        <path d="M97.931,141.30792c2.806,2.12629,5.58162,4.31815,8.45885,6.34773,4.30785,3.10045,8.67178,6.11935,13.00537,9.18432,1.167.82705,2.2937,1.70505,2.53725,3.33369-.80674,1.01478-1.57826.68-2.35438,0-1.20768-1.04512-2.395-2.12115-3.63819-3.12049a22.35608,22.35608,0,0,0-7.47764-3.77173l-.159-.039a11.68229,11.68229,0,0,0-3.52387-.532,12.01644,12.01644,0,0,0-2.29045.21942l.07531-.01218c-1.30384.24353-2.64886.24869-4.1659.37546a22.67106,22.67106,0,0,1-1.14672-11.78224Z" style="fill: #fff"/>
        <path d="M26.8111,201.09254c-1.487-.071-2.735-.19287-3.983-.18259-2.258,0-3.35915.9235-4.05916,3.04465a6.873,6.873,0,0,0,.5074,5.15036,9.5181,9.5181,0,0,0,3.25378,4.07515l.029.01978c2.36983,1.6189,4.75971,3.19661,7.16476,4.75971,1.99437,1.299,3.85626,2.70467,4.841,5.01327a2.1046,2.1046,0,0,1-2.4102.08126,9.48245,9.48245,0,0,1-2.37958-1.45337l.0149.01218c-3.85626-3.27788-7.66728-6.5964-11.49808-9.90978-.25356-.21808-.50739-.44131-.77125-.6545-2.61825-2.14633-6.429-2.187-8.66175,1.2735L8.32109,215.463c-.54288-.55806-.9793-.80675-1.11611-1.17191a5.83832,5.83832,0,0,1-.36246-2.04584,5.95482,5.95482,0,0,1,4.09059-5.6553l.042-.01192a34.09387,34.09387,0,0,1,4.0765-.762l.18584-.01951c.2942-.73576.68484-1.63922,1.01479-2.53725,1.78632-4.91711,6.54061-5.99257,10.55941-2.16666Z" style="fill: #fff"/>
        <path d="M50.19815,79.31112c-1.21255,3.01918-1.4615,3.36918-3.146,4.56683-3.33884-4.70905-6.66739-9.41269-9.89977-13.97952,1.33446-3.50626,3.55177-6.089,6.04324-7.00222,1.487,2.59306,2.02986,5.58162,3.27789,8.32177s2.46113,5.35325,3.72433,8.09341Z" style="fill: #fff"/>
        <path d="M64.11645,49.52567a16.0471,16.0471,0,0,1,2.09568-9.30108c3.94755-.13192,7.56081.4161,10.26006,3.04465V53.49381Z" style="fill: #fff"/>
        <path d="M167.36156,197.70765a7.94014,7.94014,0,0,1,3.04464-4.38425l9.94527,14.04534c-1.07574,3.04465-3.04464,5.17066-5.612,7.26121a16.0002,16.0002,0,0,1-1.37806-2.2463l-.04281-.09293c-.69-1.72536-1.17191-3.55177-1.87761-5.24164-1.2735-3.03949-2.63342-6.03321-4.07949-9.34143Z" style="fill: #fff"/>
        <path d="M150.439,237.32216c-5.25682-.66478-8.05791-1.77087-9.45305-3.47077V223.76877c.53773.15739.97416.269,1.40028.411,3.26272,1.06545,6.35287,2.68923,9.86916,2.9176.29934,0,.58352.28932.83221.4161.72059,3.86656-.35514,7.96148-2.64886,9.80847Z" style="fill: #fff"/>
        <path d="M136.272,269.34551c-2.22762-1.6086-4.51618-3.16627-6.698-4.85616a2.73678,2.73678,0,0,1,.37547-4.64294,10.68321,10.68321,0,0,1,1.06409-.5093l.07748-.02844q3.19664-1.487,6.39865-2.96852c2.23276-1.04512,3.39979-.548,4.23172,1.8218a8.96622,8.96622,0,0,1-5.44969,11.18356Z" style="fill: #fff"/>
        <path d="M96.31263,233.9733l1.64409-1.248a47.28947,47.28947,0,0,1,18.4193,5.47516c-.35.43643-.58866,1.01479-1.01478,1.22772-3.15626,1.705-6.429,2.90241-10.12326,2.02984-1.88275-.45158-3.8056-.74578-5.68321-1.22283-3.27789-.85252-4.25719-2.70467-3.2424-6.26159Z" style="fill: #fff"/>
        <path d="M121.22676,43.26409l-1.73539,1.38511c-6.5964-.32481-12.53319-2.48631-18.45478-5.42937a7.24906,7.24906,0,0,1,1.2185-1.3518l.00948-.00785a12.84444,12.84444,0,0,1,7.08376-2.10652q.57865,0,1.14455.04985l-.049-.00353a53.17225,53.17225,0,0,1,7.81519,1.45419l-.3714-.084c3.14081.75609,4.14044,2.58791,3.33885,6.09417Z" style="fill: #fff"/>
        <path d="M81.4806,8.02381c2.08566,1.57311,3.83106,3.04464,5.71869,4.26233,1.487.97416,2.08051,2.12115,1.4615,4.21141a20.803,20.803,0,0,1-2.12466,1.32389l-.113.05635c-2.116,1.01479-4.28239,1.93856-6.41382,2.92789-2.26824,1.0603-3.39979.609-4.23173-1.75083-1.41058-3.99848.75094-9.18432,4.56683-10.8639a3.97137,3.97137,0,0,1,1.13561-.16741h.00081Z" style="fill: #fff"/>
        <path d="M24.198,111.12127a8.66639,8.66639,0,0,1-.61386-2.53725c.30449-2.83145.77125-5.64258,1.22285-8.73788a7.52278,7.52278,0,0,1,2.11085.36029c2.44568,1.30384,4.87132,2.65374,7.246,4.05917,1.60346.96413,1.56309,1.01479,2.35439,3.19175-.31452,1.568-.64447,3.20176-.959,4.74968a3.50323,3.50323,0,0,1-3.2982.18259,19.60993,19.60993,0,0,0-8.06307-1.26835Z" style="fill: #fff"/>
        <path d="M181.96523,164.40078c4.1659.03549,7.53535,2.42563,11.49321,1.79119,1.0603,4.23172-.24354,7.74828-1.14157,11.26484-.46677,0-.67482.10646-.79645.03548q-4.39941-2.47113-8.7785-4.98293a3.00325,3.00325,0,0,1-1.51893-3.25675l-.00326.01951c.22321-1.487.46161-2.9734.74578-4.87132Z" style="fill: #fff"/>
        <path d="M82.91148,250.66235c-.81676,2.02984-1.52245,4.08977-2.45083,6.05353a2.48934,2.48934,0,0,1-3.01132,1.35017l.01761.00487c-3.004-.79644-5.98743-1.67958-8.93049-2.68922-1.52245-.50739-1.80663-1.568-1.04513-3.01918a9.47713,9.47713,0,0,1,3.6856-3.99985l.04388-.02384a4.55089,4.55089,0,0,1,2.31105-.62225,4.63021,4.63021,0,0,1,.57837.036l-.02248-.00243c2.70466.57323,5.3584,1.41057,8.01728,2.1821.279.0558.48193.40093.80674.73062Z" style="fill: #fff"/>
        <path d="M106.943,182.8859c-.14194.18259-.2587.45673-.45674.55805a25.63827,25.63827,0,0,1-9.01771,2.69437l-.11595.0103c-.05092.00243-.11052.00378-.17067.00378a3.83558,3.83558,0,0,1-1.80879-.45023l.02085.01c-3.8614-1.89792-7.69762-3.85111-11.53356-5.79482-.13193-.06582-.19776-.25871-.46162-.62415a24.63659,24.63659,0,0,1,3.05764-1.06112l.1899-.045a17.93568,17.93568,0,0,1,9.96559.50739c2.68923.9793,5.48031,1.695,8.19988,2.59306.84737.2942,1.90794.39064,2.13117,1.59858Z" style="fill: #fff"/>
        <path d="M134.5163,26.29086c1.34448-2.1263,1.59344-4.841,3.50111-7.10381,4.26234,0,8.08338,1.77087,11.899,3.004.20291.4719.39579.7103.38548.93352-.18773,3.93753-4.72937,7.1393-8.44855,5.99772-1.68987-.50739-3.40467-.97415-5.10972-1.45148-1.03-.27388-1.0706-.27388-2.22761-1.38Z" style="fill: #fff"/>
        <path d="M134.04953,97.65971c-1.26835,1.20252-2.84661,1.21769-4.313,1.52246a14.91634,14.91634,0,0,1-3.33695.36815,15.29754,15.29754,0,0,1-4.75809-.75391l.10809.03061c-2.877-.969-5.77966-1.86243-8.65661-2.8263-.84223-.28418-1.64409-.69-2.71983-1.14672.50739-.629.761-1.167,1.13155-1.299,2.53725-.87257,5.09969-1.75083,7.69761-2.43566a4.21822,4.21822,0,0,1,.88205-.091,4.30672,4.30672,0,0,1,1.84375.41177l-.02627-.01111c3.66338,1.72022,7.26634,3.55177,10.87906,5.39389a12.57264,12.57264,0,0,1,1.30032.86038l-.032-.023Z" style="fill: #fff"/>
        <path d="M134.46564,18.60841a8.24345,8.24345,0,0,1-3.36919,7.76372l-9.38722-1.91824c-1.776-2.48632.04579-5.29258-.27387-7.86016a3.54822,3.54822,0,0,1,3.32366-.629c2.48632.39578,4.96777.84737,7.4186,1.4206a9.53269,9.53269,0,0,1,2.28856,1.22284Z" style="fill: #fff"/>
        <path d="M133.65889,246.28326c5.70353,2.30374,6.55578,2.78567,7.56569,4.44519a11.05508,11.05508,0,0,1-1.24723,1.38458l-.006.00569c-1.18221.95383-2.50664,1.74052-3.623,2.76047-3.04465,2.77049-10.0978,1.766-12.75126-2.45083a4.053,4.053,0,0,1-.2606-.91429l-.00326-.02439Z" style="fill: #fff"/>
        <path d="M86.08291,251.09877c3.415,0,6.59641,1.25834,10.01138,1.73539a15.86923,15.86923,0,0,1-.2942,8.11886c-2.02986.74064-3.84109.06095-5.63743-.21807-1.57312-.23839-3.13593-.58352-4.68874-.92838-2.02985-.44644-2.65888-1.3648-2.44569-3.364s.898-3.2424,3.05467-5.34323Z" style="fill: #fff"/>
        <path d="M75.72668,27.03664c2.75017-2.74015,5.02871-5.28227,8.2508-5.99257a9.05457,9.05457,0,0,1,2.27447-.28309,9.25944,9.25944,0,0,1,7.25605,3.4965l.01437.01869a4.1686,4.1686,0,0,1,.49683.83085l.01057.02655a2.40578,2.40578,0,0,1,.09617.5995v.00434c-3.06984,1.94343-6.96159,2.49146-9.70689,5.36842Z" style="fill: #fff"/>
        <path d="M57.72809,261.99816c-.64447-2.674,0-5.36355-1.06031-7.7789-.969-.04064-1.24315.44131-1.01479,1.10609.60384,1.95372.03034,3.85626-.16742,5.76936a3.44017,3.44017,0,0,1-.369.904l.00867-.01625a13.00479,13.00479,0,0,1-6.66224-4.12527,20.414,20.414,0,0,0,2.593-2.8263,26.00841,26.00841,0,0,0,1.59343-3.86141,11.331,11.331,0,0,1,2.109.36328l-.0791-.01842a15.23057,15.23057,0,0,1,2.30617,1.189l-.06339-.03738c1.9689,1.13642,3.89689,2.33922,5.881,3.4453,2.61337,1.45636,3.14081,3.04465,1.69989,6.04324a7.63319,7.63319,0,0,1-6.77385-.1574Z" style="fill: #fff"/>
        <path d="M153.40236,14.87378c3.18145-.40093,3.96786-.36544,6.40867.34.16741,1.26835.38062,2.65374.50739,4.05916.09645.91835,0,1.86244.16227,2.7705a3.81448,3.81448,0,0,0,.80675,1.28867l.50739-.15225a33.22162,33.22162,0,0,1-.18366-3.54662q0-.13938.00109-.27822v.01436a38.51789,38.51789,0,0,1,.64881-4.16969l-.045.25248c2.33408.05581,4.69875,1.38511,6.86027,3.87143a20.25883,20.25883,0,0,0-2.6234,2.82115,20.52988,20.52988,0,0,0-1.487,3.73951c-.07829.00243-.17012.00406-.2625.00406a8.61388,8.61388,0,0,1-1.93178-.21808l.0577.01111a16.82184,16.82184,0,0,1-2.48712-1.368l.06177.03873c-1.89792-1.07574-3.765-2.21244-5.70353-3.20691-2.63856-1.35964-3.21693-3.82592-1.299-6.2716Z" style="fill: #fff"/>
        <path d="M82.20118,33.61816l-4.88135,7.55052c-2.92789-2.34437-6.70288-2.08051-10.04686-3.004.35515-3.47077,3.39979-7.38311,6.02807-8.02758a8.307,8.307,0,0,1,1.88113-.21021A8.50954,8.50954,0,0,1,82.18276,33.59l.01842.02791Z" style="fill: #fff"/>
        <path d="M135.23174,243.51791c1.6999-2.5676,3.32367-5.00839,5.07423-7.647,2.74015,2.85691,6.65737,2.02985,9.86917,3.30822-.33484,3.22724-3.21694,7.10381-5.7439,7.80924a8.72743,8.72743,0,0,1-9.19948-3.47077Z" style="fill: #fff"/>
        <path d="M76.14251,8.22156c-.888,2.53725-1.95861,4.67844-2.33922,6.93639s0,4.48584.03034,6.96674c0,0-.10647.30449-.29935.35515-2.40532.61386-4.82554.7661-7.05315-.55291a3.62807,3.62807,0,0,1-1.58341-4.78518A11.38005,11.38005,0,0,1,69.389,11.58722l.04524-.02709c1.7557-1.14672,3.623-2.11085,5.45483-3.12564a4.91362,4.91362,0,0,1,1.24235-.21266l.01084-.00027Z" style="fill: #fff"/>
        <path d="M141.70626,269.05646a5.43468,5.43468,0,0,1,.19287-1.88764,15.36209,15.36209,0,0,0,1.54765-11.47288c-.03548-.14711.061-.32481.09645-.5074,2.82115-1.95372,6.98191-1.01478,9.21466,2.07537.5074,2.15149-.4058,3.99849-1.695,5.58162-2.38989,2.93276-5.612,4.68874-9.35688,6.21093Z" style="fill: #fff"/>
        <path d="M118.45627,252.34681c2.02985,1.497,3.82591,2.75533,5.54614,4.08977a5.08589,5.08589,0,0,1,.89993,1.24994l.01328.02872a2.41707,2.41707,0,0,1-1.827,2.08565,23.39511,23.39511,0,0,1-6.80853,1.46774l-.07206.00379a4.15267,4.15267,0,0,1-.45944.02491,4.24661,4.24661,0,0,1-3.17522-1.42113l-.00352-.00407c-1.65926-1.73538-2.90756-3.61786-2.61336-6.37833,1.55793-.24869,2.9482-.50739,4.34875-.69512s2.83659-.30938,4.15045-.45159Z" style="fill: #fff"/>
        <path d="M107.47588,23.642a12.06972,12.06972,0,0,1-1.80772.52771l-.08506.01517c-2.24278.25356-4.49586.44645-6.59642.64935-2.02985-1.52246-3.91206-2.88725-5.739-4.3539-.39063-.31452-.50739-.95384-.76095-1.40028a4.90515,4.90515,0,0,1,2.98152-2.02363l.03251-.006c1.62377-.42125,3.25757-.80674,4.912-1.09606a4.87671,4.87671,0,0,1,1.04541-.11053,4.99573,4.99573,0,0,1,4.064,2.08485l.0103.0149c1.22284,1.62892,2.29371,3.28818,1.94343,5.69838Z" style="fill: #fff"/>
        <path d="M34.57942,124.10144c-2.91271.80159-5.50035-1.46666-8.48919-.69514-1.84212-3.21205-1.28353-6.66738-2.3189-9.74751a3.741,3.741,0,0,1,3.27761-.23975l-.02519-.00894c2.46113.7764,4.90166,1.62892,7.44893,2.48144.83708,1.72536.93352,5.93163.10647,8.21017Z" style="fill: #fff"/>
        <path d="M192.26077,154.65326c.12678,3.04465,1.35476,5.89614,1.15675,9.0421-1.55794.63418-2.90242.03548-4.23688-.35514-1.92826-.5632-3.83108-1.20254-6.15512-1.93857-1.37509-2.43566-.53773-5.30774-.39579-8.0934,1.8218-.43642,6.85.27388,9.63077,1.34448Z" style="fill: #fff"/>
        <path d="M174.75469,142.125c3.47565,8.7479,3.58238,17.43.86769,26.55334-1.47153-2.02985-2.44569-3.99335-1.97892-6.089,1.04512-4.69875-.34512-9.01689-1.60346-13.39086a24.03351,24.03351,0,0,1-.72817-2.48144l-.03793-.18746C170.88841,144.41351,172.15161,142.72391,174.75469,142.125Z" style="fill: #fff"/>
        <path d="M42.62217,134.85887a37.41591,37.41591,0,0,1-.629-26.193,8.10647,8.10647,0,0,1,1.79634,6.59641c-.82706,4.15561.10647,8.03761,1.34448,11.92448a24.06768,24.06768,0,0,1,.98581,3.49081l.02871.16768c.39578,2.22247-.95384,3.79531-3.52658,4.01366Z" style="fill: #fff"/>
        <path d="M116.34054.70138A22.85751,22.85751,0,0,1,119.736.45513a23.48713,23.48713,0,0,1,8.16926,1.45609l-.16308-.05283a7.25592,7.25592,0,0,1,3.89175,4.13042,7.37216,7.37216,0,0,1,.19288,2.06534,76.987,76.987,0,0,1-8.77336.59354c-2.63342-.10159-4.40456-1.96376-5.531-4.26234a26.894,26.894,0,0,1-1.18221-3.6837Z" style="fill: #fff"/>
        <path d="M100.97563,276.49022a22.42021,22.42021,0,0,1-11.44741-1.309,7.14656,7.14656,0,0,1-3.67773-3.93943l-.01626-.04876a8.821,8.821,0,0,1-.23351-2.07537l3.26272-.279c1.01479-.08614,2.02985-.09645,3.014-.26386,3.22723-.558,5.45484.10647,7.855,3.73951a6.70545,6.70545,0,0,1,1.248,3.91342q0,.13855-.00541.27577l.00054-.013Z" style="fill: #fff"/>
        <path d="M107.77522,17.08107a4.06488,4.06488,0,0,1,3.16493-1.86189l.01138-.00054c3.84623-.32969,5.94706-.08127,7.61147.97415a10.05108,10.05108,0,0,1-.10647,8.02758c-2.69952.12678-5.42449.12678-8.43854,0-.1219-2.63342-2.32919-4.47554-2.24277-7.1393Z" style="fill: #fff"/>
        <path d="M20.73183,183.37325c-.2132.959-.63418,1.497-1.91824,1.177-6.05353-7.15446-11.02129-15.15657-13.48215-24.57441a9.86248,9.86248,0,0,1,3.159-.50875,10.03576,10.03576,0,0,1,3.75874.72547l-.06773-.02411c-.15224,1.01478-.24354,2.09569-.50739,3.14081-1.05028,4.4349.14195,8.3876,2.674,11.97,1.65439,2.34436,3.55177,4.50614,5.34323,6.7538.38062.45673.72547.92837,1.04,1.3396Z" style="fill: #fff"/>
        <path d="M196.87853,93.869c.22838-.42613.5074-.96414.78643-1.487.46161.12191.79157.10647.92838.26386,1.15674,1.33445,2.3747,2.63342,3.39979,4.05916a65.84586,65.84586,0,0,1,9.94012,19.22631c.142.46676.20806.95384.33484,1.57312a23.67844,23.67844,0,0,1-3.21965.21319,24.66282,24.66282,0,0,1-3.34669-.22728l.127.01436c-.93868-1.1264-.30938-2.11085-.10159-3.04465a14.50377,14.50377,0,0,0,.44916-3.62545,14.89235,14.89235,0,0,0-.47165-3.72867l.02275.10322a14.33462,14.33462,0,0,0-2.55648-5.25438l.02439.03278Z" style="fill: #fff"/>
        <path d="M98.94605,253.35673h8.555c0,2.61824,2.59305,4.34875,2.13116,7.317-2.95823,2.27826-6.40353.87257-9.69659,1.309-2.27827-2.6234-2.00439-5.41421-.98933-8.62627Z" style="fill: #fff"/>
        <path d="M190.68251,151.45122c-2.36983.629-4.49072-.15224-6.59641-.50739-.53285-.08614-1.09091-.78127-1.40542-1.3293-1.14157-1.98406-1.52246-6.68771-.78643-9.17916,1.26348-1.06545,2.80111-.79157,4.2217-.79157,2.41019,1.95372,4.99811,8.545,4.56682,11.80771Z" style="fill: #fff"/>
        <path d="M34.28008,126.64356c1.93341,3.66338,2.3292,7.67243.98418,10.65585l-4.27237.36029c-2.66917-3.50111-3.81562-7.37308-4.68873-11.73674a15.82669,15.82669,0,0,1,7.97665.72059Z" style="fill: #fff"/>
        <path d="M100.55439,4.82177c-1.14672.35-1.81666.58352-2.50664.75608a29.21136,29.21136,0,0,0-3.1633.73251l.20995-.05255a6.9705,6.9705,0,0,0-3.97519,3.28737l-.01815.0363a20.84378,20.84378,0,0,1-1.52922,2.18806l.03223-.04172c-2.8263-1.52246-4.74968-3.66853-6.76382-5.63743.17256-.31966.19288-.42612.2587-.46161A28.17893,28.17893,0,0,1,96.6128,2.077h.01408c1.60346-.05066,2.456,1.28352,3.92724,2.745Z" style="fill: #fff"/>
        <path d="M127.60537,265.95086c2.02985.2942,5.19613,2.796,7.00223,5.5055a8.73753,8.73753,0,0,1-3.70077,1.85594l-.05906.01138c-2.10083.60383-4.23172,1.1161-6.36289,1.59858a6.87257,6.87257,0,0,1-6.78929-1.67959,1.5669,1.5669,0,0,1-.2449-.42043l-.00378-.01083a2.36832,2.36832,0,0,1-.01328-.25356,2.50735,2.50735,0,0,1,.01409-.2644l-.00081.01083a8.92588,8.92588,0,0,1,1.909-.61386l.05987-.0103a9.00025,9.00025,0,0,0,7.73311-5.29257c.06583-.13192.2132-.22321.45673-.43642Z" style="fill: #fff"/>
        <path d="M123.155,236.759a4.0971,4.0971,0,0,1,2.87669-1.79932l.02059-.00217c3.26272-.35,6.52544-.65964,9.793-.96414a7.1005,7.1005,0,0,1,1.36507.15008l-.046-.00813a11.69532,11.69532,0,0,1-3.01593,6.38566l.00678-.00731a5.08708,5.08708,0,0,1-6.03321.898c-1.974-1.03022-4.05917-1.79119-4.86618-4.12527a3.67765,3.67765,0,0,1-.09942-.50793l-.00216-.01978Z" style="fill: #fff"/>
        <path d="M80.06487,43.198c1.21255-3.5924,2.25795-6.708,5.90643-7.83984a3.15253,3.15253,0,0,1,1.95861-.19289c2.50149,1.15675,5.25194,2.07049,6.39351,5.13a3.71459,3.71459,0,0,1-2.715,1.9055l-.02.00244a85.40736,85.40736,0,0,1-11.426.99285l-.09752.00162Z" style="fill: #fff"/>
        <path d="M67.344,258.27383c4.26234,1.3648,8.45885,2.14148,12.178,4.1353-.59869,3.04464-1.80149,4.15561-4.48069,4.45033a11.7863,11.7863,0,0,1-7.63667-2.08051,2.08768,2.08768,0,0,1-1.0129-2.1691l-.00189.01247c.23352-1.40543.58867-2.77049.95384-4.34875Z" style="fill: #fff"/>
        <path d="M151.18016,14.28024c-.29419,1.29382-.62415,2.745-.94381,4.14043-2.4763.19776-9.3111-1.8776-11.97514-3.55177a3.62024,3.62024,0,0,1,3.22724-4.19623,12.7273,12.7273,0,0,1,7.61147,1.0603,3.51514,3.51514,0,0,1,2.07672,2.52479l.00379.02248Z" style="fill: #fff"/>
        <path d="M51.51744,31.74055c.75607-4.05916,6.3377-11.41193,9.7169-12.87316A14.506,14.506,0,0,0,62.315,22.07945a13.13541,13.13541,0,0,0,2.385,2.3189c-.5632.47191-.97415.87257-1.44119,1.19738-2.69437,1.85214-5.40906,3.67367-8.11887,5.531a3.34422,3.34422,0,0,1-3.623.61386Z" style="fill: #fff"/>
        <path d="M156.19831,258.32964c-.50739-2.53726-.50739-2.53726-3.39979-5.5055a15.74538,15.74538,0,0,1,1.39919-1.21607l.03658-.02709c2.86179-1.91824,5.76935-3.75982,8.59077-5.73387a3.20366,3.20366,0,0,1,3.00131-.57214l-.02275-.00623c.04064.31966.24869.7764.11676,1.07574a29.9048,29.9048,0,0,1-8.86466,11.76194,2.78651,2.78651,0,0,1-.84521.22214l-.01218.00109Z" style="fill: #fff"/>
        <path d="M103.31486,12.99617c-2.106,1.17192-9.46334,2.77564-11.44742,2.456-1.40542-5.16064,2.68923-8.8698,9.13367-8.15436Z" style="fill: #fff"/>
        <path d="M116.40149,269.81769c-.73577-1.89278-1.42575-3.67883-2.19728-5.668,1.67471-1.14157,3.8056-1.20767,5.7745-1.63922,1.88276-.4161,3.77525-1.36994,5.76935-.77125.79645,5.61711-3.09531,8.9611-9.34659,8.07824Z" style="fill: #fff"/>
        <path d="M132.35966,221.73945l4.81038-1.22284a14.862,14.862,0,0,1,.94869,9.9759c-2.6234,1.56309-2.91272,1.6086-5.75419.91835-1.5528-3.04465-2.13117-6.1906-.00514-9.67139Z" style="fill: #fff"/>
        <path d="M84.97168,45.7049A9.93681,9.93681,0,0,1,86.492,51.01562a10.099,10.099,0,0,1-.1005,1.42547l.00623-.05336c-.24869,1.91309-.96413,3.38435-3.19175,3.55177-.969.07612-1.92826.32968-2.98857.50739-1.64409-3.30335-1.47153-6.51026-.88286-9.82852,1.63921-1.41057,3.57209-1.06544,5.63743-.9132Z" style="fill: #fff"/>
        <path d="M172.09093,120.88423c4.14557,1.8776,11.78224,11.61483,12.9799,15.91781-2.48144,1.94859-4.70906,1.52245-5.77966-1.24316a82.58748,82.58748,0,0,0-6.40922-13.05575l.2086.37005c-.38062-.63418-.66966-1.32416-.99962-1.98922Z" style="fill: #fff"/>
        <path d="M44.86522,156.7893a48.88184,48.88184,0,0,1-12.68543-16.461,10.47166,10.47166,0,0,1,1.45256-.77422l.0699-.02737c2.19726-.68484,3.31337-.23839,4.32329,1.81665.88286,1.81151,1.60345,3.704,2.50148,5.51064,1.38,2.78567,2.85177,5.52582,4.27752,8.29144.21319.4161.38549.85739.57322,1.28351Z" style="fill: #fff"/>
        <path d="M80.23743,226.773l14.57307,5.52582c-.41611,1.31928-.82191,2.6234-1.20768,3.85111-4.68359.52257-11.757-4.33846-13.36566-9.3772Z" style="fill: #fff"/>
        <path d="M124.96165,232.85691c-2.30374-1.32416-2.10083-3.29306-1.91824-5.10971.22837-2.2073,1.08062-4.05917,3.69915-4.42488a28.53736,28.53736,0,0,0,3.36159-.84277l-.2056.05635a42.13863,42.13863,0,0,0-.29934,4.98292,33.41762,33.41762,0,0,0,.87771,4.56683c-1.74567,1.01478-3.67882.72058-5.5158.77124Z" style="fill: #fff"/>
        <path d="M137.25645,50.40339l-14.5579-5.43453c.38549-1.26835.74065-2.456,1.08577-3.61786C128.275,40.37684,135.07435,44.766,137.25645,50.40339Z" style="fill: #fff"/>
        <path d="M92.51191,44.28376c2.53724,1.4206,2.15663,3.75494,1.84211,5.8555a4.02889,4.02889,0,0,1-3.50111,3.765,23.52788,23.52788,0,0,0-3.0991.87935l.16607-.05229c-.79645-1.766.34512-3.29306,0-4.83068s-.609-3.10045-.94382-4.8055c1.8218-.81188,3.765-.31966,5.53611-.81188Z" style="fill: #fff"/>
        <path d="M70.49993,269.9851a2.56927,2.56927,0,0,1,2.84662-1.45148,8.53508,8.53508,0,0,0,1.05461.06311,8.78931,8.78931,0,0,0,4.75511-1.38836l-.03522.02113c.75094-.47191,1.89278-.3248,2.77564-.45158,1.81666,2.15149,2.94821,4.17077,2.02986,7.058a18.53315,18.53315,0,0,1-2.424-.168l.09481.01056c-3.8056-.7764-9.73722-2.71982-11.09741-3.694Z" style="fill: #fff"/>
        <path d="M146.76043,7.06942a.99751.99751,0,0,1,.06258.35082A1.01474,1.01474,0,0,1,145.80823,8.435a1.02939,1.02939,0,0,1-.1127-.00623l.00461.00054c-3.21693-.24868-6.089.80674-8.885,2.15664a.98554.98554,0,0,1-.5074-.03034c-2.40532-1.5631-3.17629-3.31338-2.90756-6.66225a2.20557,2.20557,0,0,1,2.35955-.28417c3.55177,1.01479,7.10381,2.02985,10.65585,3.10045.142.04063.22838.23352.34512.3603Z" style="fill: #fff"/>
        <path d="M209.88363,121.4068l3.46563-.67481c2.02985,6.18031,2.15664,12.43186,3.2321,18.62735-1.43577.25871-2.735.4413-3.91206-.50739-.63932-1.38511-.11161-2.725.37032-3.91721a8.82008,8.82008,0,0,0-.411-7.317c-.85739-1.92312-1.68987-3.81075-2.745-6.21092Z" style="fill: #fff"/>
        <path d="M7.48347,155.8658l-3.3998.47191C2.328,150.24869,1.79,144.24582.88706,138.09612H4.81429a8.20539,8.20539,0,0,1,.2132,1.80229v.00433a9.11933,9.11933,0,0,1-.61034,2.50718l.02167-.06149a8.53807,8.53807,0,0,0,.28933,7.10382c.619,1.38,1.26835,2.75017,1.88275,4.13529.269.58866.49222,1.21255.87257,2.27826Z" style="fill: #fff"/>
        <path d="M72.69178,230.42126c1.34448-2.44569,2.6234-3.04465,5.25194-2.8821a72.13287,72.13287,0,0,0,5.31261,5.58162c1.82181,1.52246,3.9882,2.65889,5.91646,4.13042-5.60709-1.89792-11.38159-3.3337-16.481-6.82966Z" style="fill: #fff"/>
        <path d="M73.44814,107.37147l-2.25795,1.16189a51.46361,51.46361,0,0,0-5.41935-4.90681,55.42216,55.42216,0,0,0-6.708-3.40982l2.725-4.05916Z" style="fill: #fff"/>
        <path d="M153.6765,24.16971l2.9734,1.52246c-.477,1.30384-.8677,2.385-1.23287,3.38435.22837,1.77088,1.63922,3.415-.12191,5.3584-2.65374.20291-4.34361-1.99436-6.67253-3.0953Z" style="fill: #fff"/>
        <path d="M68.871,245.88233l-4.90166,6.8348a3.39739,3.39739,0,0,1-3.10045-1.59344c1.13642-1.91824,1.83182-3.96786.21807-6.01289l.8016-2.40017c2.92274-.09129,4.709,1.86244,6.9819,3.17142Z" style="fill: #fff"/>
        <path d="M146.98852,169.07433c2.674,4.05917,6.86027,6.089,11.559,7.79407l-2.85175,4.20653-11.53871-11.02129a2.34487,2.34487,0,0,1,2.83145-.97931Z" style="fill: #fff"/>
        <path d="M139.59567,49.79441a53.22512,53.22512,0,0,0-5.07423-5.58163c-1.83183-1.52246-3.88688-2.53725-5.76936-3.94268,5.531,1.59344,11.0213,3.2424,16.00937,6.42385-.91319,2.64886-2.95308,3.075-5.16552,3.10046Z" style="fill: #fff"/>
        <path d="M101.11271,51.662c-1.766.17256-3.50625,1.01479-5.34838.54288.15739-2.6234.30449-5.07423.45159-7.58086a8.14657,8.14657,0,0,1,5.55128,0,8.91305,8.91305,0,0,1-.65449,7.03771Z" style="fill: #fff"/>
        <path d="M121.36383,232.75045H115.6603a10.713,10.713,0,0,1,.53773-7.27149l5.65261-.79645c-.18774,1.59344-.39065,2.877-.46677,4.1659s-.02032,2.49147-.02032,3.902Z" style="fill: #fff"/>
        <path d="M135.5514,14.66058a8.35618,8.35618,0,0,1-1.49373.13085q-.20807,0-.4134-.00976l.01923.00082c-3.72433-.65964-7.43892-1.36994-11.16324-2.09054-.19288-.04063-.34-.30936-.55292-.50739.18259-.23352.2942-.5074.48193-.58867a15.07479,15.07479,0,0,1,6.89848-1.64626,15.38145,15.38145,0,0,1,2.52181.20724l-.08912-.01219a4.31265,4.31265,0,0,1,3.79043,4.51617Z" style="fill: #fff"/>
        <path d="M81.69379,262.58168c2.89728-.50739,4.96262.72058,7.17478,1.05028s4.313.63932,6.75381,1.01478c-.32481.5074-.45674,1.01479-.71031,1.07575a56.7811,56.7811,0,0,1-6.19168,1.55306l-.40472.06583c-2.48632.4058-4.41458-.83222-5.89126-2.74015a6.33448,6.33448,0,0,1-.73062-2.01957Z" style="fill: #fff"/>
        <path d="M71.40827,172.29643c3.04464-.35,8.42308.888,14.0811,3.19662-.35515.37546-.59868.80158-.96413.98417a8.47258,8.47258,0,0,1-2.30156.88693l-.05824.01111a4.76966,4.76966,0,0,1-2.70955,0c-2.53725-1.28352-4.99323-2.806-7.46438-4.2572-.19288-.09129-.28932-.39579-.58352-.82191Z" style="fill: #fff"/>
        <path d="M145.83693,104.84452c-4.9068.40093-9.20464-1.73051-13.70048-3.19175,2.35438-1.57311,4.56682-2.93791,7.47954-1.09606,2.10083,1.33446,4.49072,2.20215,6.22094,4.28754Z" style="fill: #fff"/>
        <path d="M108.8255,51.24589h-4.68874V44.71043h4.27751c2.05017,2.30888,2.10083,3.14081.411,6.53546Z" style="fill: #fff"/>
        <path d="M151.8295,55.38117c-1.01478-1.22284-1.9586-2.47114-3.004-3.6482-.78643-.88287-1.72021-1.63407-2.49662-2.53725-.24353-.27388-.19775-.80159-.4161-1.84212,5.00325,3.46047,9.29593,6.74351,12.939,11.01614-1.79119.411-2.314.20805-7.02253-2.98857Z" style="fill: #fff"/>
        <path d="M113.41264,232.83687a10.4631,10.4631,0,0,1-5.01842-.59353,5.07037,5.07037,0,0,1,.16742-5.79482l4.45522-.477c.78127,1.15675.13707,2.33922.22837,3.46563s.10647,2.15663.16741,3.39979Z" style="fill: #fff"/>
        <path d="M71.67212,228.71621c-3.014-.05066-10.9755-6.80446-12.68543-10.19938,1.48183-.63932,2.2631.74064,3.32368,1.14671a27.38141,27.38141,0,0,1,3.27708,1.63922l-.13112-.07125c1.08577,1.52246,1.95861,2.84662,2.9734,4.05917s2.15149,2.29858,3.2424,3.425Z" style="fill: #fff"/>
        <path d="M99.53472,229.559c.22836-.91835.50739-1.92826.75093-3.04464h6.37319c-.42124,1.62377-.81676,3.13593-1.25318,4.79519a5.94313,5.94313,0,0,1-5.87094-1.75083Z" style="fill: #fff"/>
        <path d="M117.6292,47.13038a3.41241,3.41241,0,0,1-.84223,3.55177h-5.739c.31966-1.59344.62415-3.11047.96413-4.78518,2.01441-.57837,3.82592.06095,5.61711,1.23286Z" style="fill: #fff"/>
        <path d="M97.3323,39.12339c-1.01479-.75609-1.92827-1.48183-2.88211-2.14147s-1.81151-1.13643-3.04464-1.91824a102.35392,102.35392,0,0,1,12.02578.43642Z" style="fill: #fff"/>
        <path d="M27.19171,239.29621a1.72317,1.72317,0,0,1-.2365-1.254l-.00189.01083a2.56431,2.56431,0,0,1,2.84661-2.53726,2.58423,2.58423,0,0,1,2.877,2.5015,2.73682,2.73682,0,0,1-2.45083,2.9734,2.27035,2.27035,0,0,1-.48356.05038,2.33666,2.33666,0,0,1-1.8619-.92269l-.00406-.00569a6.26538,6.26538,0,0,1-.6721-.79752l-.013-.01923Z" style="fill: #fff"/>
        <path d="M190.13963,37.76347a3.25673,3.25673,0,0,1,.17636,1.0687,3.31418,3.31418,0,0,1-.31181,1.40759l.00867-.02031c-.50739,1.31413-1.40543,1.43089-2.48144,1.40543a2.56019,2.56019,0,0,1-2.69952-2.65889,2.47223,2.47223,0,0,1,2.59793-2.72985,3.93976,3.93976,0,0,1,2.28857.86254,1.32041,1.32041,0,0,1,.41881.65531l.00217.00921Z" style="fill: #fff"/>
        <path d="M125.69227,242.03636H114.13839l-.09645-.31966a28.63988,28.63988,0,0,0,3.21829-1.69691l-.12814.07286c.96414-.65449,1.68987-1.68986,3.283-1.6189Z" style="fill: #fff"/>
        <path d="M77.3044,224.96669a7.61612,7.61612,0,0,1-5.07992,1.92961q-.26495,0-.52527-.01761l.02357.00136a11.757,11.757,0,0,1-3.146-4.42487A32.58626,32.58626,0,0,1,77.3044,224.967Z" style="fill: #fff"/>
        <path d="M91.58841,228.412l.44644-1.91824h6.29193c-.18773,1.3293.03034,2.56244-.81677,3.73951a12.64,12.64,0,0,1-5.9216-1.8218Z" style="fill: #fff"/>
        <path d="M125.53,50.63663h-6.51514c.279-1.33445.50739-2.49147.80674-3.87658,1.2177.28418,2.187.47191,3.1308.75094s1.72536.609,2.81627,1.01479c-.08127.71545-.15739,1.39541-.23839,2.11086Z" style="fill: #fff"/>
        <path d="M146.13627,50.37792c.96414,1.309,1.89792,2.58276,2.8366,3.85112a21.144,21.144,0,0,1-8.83133-2.0239l.12921.055a7.36142,7.36142,0,0,1,4.98674-1.935,7.44035,7.44035,0,0,1,.91483.05607l-.036-.00352Z" style="fill: #fff"/>
        <path d="M149.07933,7.84609c1.74053.3045,6.65223,2.8924,8.66663,4.56684C153.52941,14.24475,151.48954,12.56517,149.07933,7.84609Z" style="fill: #fff"/>
        <path d="M59.63089,264.52024h5.45484l3.77526,4.74453a5.76875,5.76875,0,0,1-1.46665.07613,34.98882,34.98882,0,0,1-7.76372-4.82066Z" style="fill: #fff"/>
        <path d="M24.86251,135.47788a10.28554,10.28554,0,0,1-1.06-.74606l.02005.01544c-.42613-.40093-.81676-.84223-1.18221-1.22284-.18773-2.27827-.18773-2.27827.59869-3.92724,1.18736,1.61375,1.62378,3.0292,1.62378,5.881Z" style="fill: #fff"/>
        <path d="M194.11806,147.81818a14.29861,14.29861,0,0,1-1.71506-5.87094C195.35608,143.22074,195.77218,144.65191,194.11806,147.81818Z" style="fill: #fff"/>
        <path d="M111.68729,276.91634l2.40533-2.2734c1.58828-.33484,2.53726.32968,3.6585,1.40028a13.8955,13.8955,0,0,1-5.00027.91267q-.56117,0-1.112-.04307l.0485.003Z" style="fill: #fff"/>
        <path d="M120.70933,235.02872c-1.74567,2.00439-3.46047,2.00439-7.56081-.07612C115.95449,234.80549,118.25336,235.0084,120.70933,235.02872Z" style="fill: #fff"/>
        <path d="M105.54247.50362c-2.88211,2.76047-3.41984,2.80111-5.58163.5632C101.671.25494,103.41129.41233,105.54247.50362Z" style="fill: #fff"/>
        <path d="M83.66757,225.68185a5.57519,5.57519,0,0,1,1.05434-.10159H84.723c1.6189.28932,3.23725.5987,4.93227.91836l-.39063,1.20767c-2.41535.12191-3.3337-.21807-5.5968-2.0247Z" style="fill: #fff"/>
        <path d="M133.62341,51.75328l-5.668-1.06545c.14711-.58866.23352-.95383.34513-1.41057,2.06534.32481,3.99334.60384,5.5158,1.97892Z" style="fill: #fff"/>
        <path d="M103.67515,42.08161h-6.987a2.57588,2.57588,0,0,1,2.80707-1.393l-.01626-.0027c1.45636.22322,2.9837.35,4.14559,1.45636Z" style="fill: #fff"/>
        <path d="M94.65825,238.99171l-2.664-.81677C93.53185,237.63205,93.53185,237.63205,94.65825,238.99171Z" style="fill: #fff"/>
        <path d="M125.83937,39.35175c-1.40029.28932-2.45084.31966-3.28305-1.08576a7.59126,7.59126,0,0,1,3.31555,1.10446Z" style="fill: #fff"/>
        <path d="M103.62449,42.14257l.18773.0558c.16742.13707,0,0-.13708-.11676Z" style="fill: #fff"/>
      </g>
    </g>
  </g>
</svg>
