<svg xmlns="http://www.w3.org/2000/svg" viewBox="0 0 290.93719 289.99429">
  <title>tooltip_gambit-prime</title>
  <g id="Layer_2" data-name="Layer 2">
    <g id="Layer_1-2" data-name="Layer 1">
      <g>
        <path d="M59.73752,179.342C34.88318,181.26866,21.347,161.70417,21.48093,146.3161c.09453-10.858,3.95256-19.76855,12.1584-26.69982,8.19589-6.92284,17.79408-9.19612,28.585-7.917-3.2994-3.03783-6.44632-6.26567-9.93594-9.0665a27.86969,27.86969,0,0,0-15.93023-5.80163,20.21548,20.21548,0,0,0-13.61128,4.09659A54.96832,54.96832,0,0,0,3.62724,126.128,53.4378,53.4378,0,0,0,.19768,149.97589c1.19339,13.749,6.55868,25.7264,16.63392,35.1815,5.61884,5.273,12.44222,8.46366,20.577,7.58472A27.99655,27.99655,0,0,0,52.466,186.53765C54.96918,184.4834,57.10282,181.97883,59.73752,179.342Z"/>
        <path d="M231.19967,179.342c24.85433,1.92668,38.39054-17.63781,38.25659-33.02588-.09453-10.858-3.95257-19.76855-12.15841-26.69982-8.19588-6.92284-17.79408-9.19612-28.585-7.917,3.2994-3.03783,6.44632-6.26567,9.93594-9.0665A27.86972,27.86972,0,0,1,254.579,96.83119a20.21547,20.21547,0,0,1,13.61128,4.09659A54.96827,54.96827,0,0,1,287.31,126.128a53.43794,53.43794,0,0,1,3.42956,23.84792c-1.19339,13.749-6.55869,25.7264-16.63393,35.1815-5.61883,5.273-12.44222,8.46366-20.577,7.58472a27.99652,27.99652,0,0,1-15.05734-6.20446C235.968,184.4834,233.83437,181.97883,231.19967,179.342Z"/>
        <path d="M179.44742,230.57043c5.54266,4.80782,10.2075,9.71555,12.24409,16.63615a24.75836,24.75836,0,0,1-1.63952,19.27606,36.4589,36.4589,0,0,1-10.80712,12.33859,53.05974,53.05974,0,0,1-25.87388,10.69c-20.90746,2.47217-37.967-4.55944-51.33564-20.76579-5.63388-6.82981-6.213-14.41408-3.62487-22.543a27.43436,27.43436,0,0,1,5.54272-9.96391c2.51-2.83474,5.35071-5.37665,8.3165-8.31473-1.8692,12.33642,1.18554,22.83193,10.0076,31.36726,6.911,6.68636,15.24694,9.47109,24.85872,9.37854C162.95994,268.51724,181.58733,254.01466,179.44742,230.57043Z"/>
        <path d="M178.6368,61.54115c.02856-2.47078.07321-4.9415.08305-7.41235.05375-13.48531-9.68172-27.97454-25.54845-31.768-20.32731-4.86-36.93268,8.07786-41.21854,24.5788a45.46457,45.46457,0,0,0-.9758,7.32256c-.14045,1.5523-.02623,3.12764-.02623,4.77037A32.09884,32.09884,0,0,1,98.04831,39.7154c-1.86409-9.18163,1.495-16.72659,7.44843-23.098A51.44977,51.44977,0,0,1,137.33748.5284c17.919-2.3338,33.27557,3.11563,46.33211,15.30865a42.78725,42.78725,0,0,1,6.8566,8.30808c4.17525,6.5937,3.75026,13.70353,1.28271,20.76771a26.44321,26.44321,0,0,1-6.62277,10.46206c-2.16182,2.07864-4.41636,4.06088-6.62952,6.08614Z"/>
        <path d="M60.84921,71.82438a10.99857,10.99857,0,0,1-11.31-11.25732,11.40042,11.40042,0,0,1,11.5056-11.22758A11.19791,11.19791,0,0,1,72.15734,60.93492,10.76281,10.76281,0,0,1,60.84921,71.82438Z"/>
        <path d="M225.92467,71.82434a10.99834,10.99834,0,0,1-11.37428-11.19422,11.388,11.388,0,0,1,11.4444-11.28652c6.1341.10647,11.53675,5.43239,11.235,11.52832C236.87491,68.04276,231.251,72.14549,225.92467,71.82434Z"/>
        <path d="M60.88721,236.8144c-6.07581.37579-11.4349-4.86125-11.34582-11.22438a11.40368,11.40368,0,0,1,11.47212-11.25781,11.26074,11.26074,0,0,1,11.16228,11.20485A10.87967,10.87967,0,0,1,60.88721,236.8144Z"/>
        <path d="M225.92605,236.8152a10.99389,10.99389,0,0,1-11.375-11.18745,11.37638,11.37638,0,0,1,11.43288-11.28685c6.14252.1194,11.54289,5.39079,11.24066,11.50809C236.86587,233.11013,231.1935,237.08205,225.92605,236.8152Z"/>
        <path d="M39.01982,147.31773v-4.40862l43.25125-2.83025,5.61014,4.94478-5.526,5.14739Z"/>
        <path d="M140.37062,82.53889c.94341-14.75411,1.86643-29.18943,2.79967-43.78438H147.071c.95877,2.96928,3.15043,32.81227,3.16689,43.50851l-4.36813,4.87925Z"/>
        <path d="M208.52906,140.079l43.11506,2.8177c.06025,1.36533.11734,2.65874.18962,4.29619-14.48684,1.30168-28.90065,1.86057-43.41865,3.02116-1.80239-1.68951-3.58436-3.35987-5.45964-5.11772C204.87232,143.3708,206.62214,141.79563,208.52906,140.079Z"/>
        <path d="M147.62544,251.49417h-4.21806c-.18609-1.18418-.46685-2.34708-.53806-3.5227-.557-9.193-1.05731-18.38933-1.61049-27.58253-.24261-4.032-.56775-8.059-.86125-12.16993,1.60511-1.82721,3.149-3.58474,4.88666-5.56288,1.72145,1.84119,3.30617,3.5361,5.144,5.50171C149.50714,222.39925,148.57459,236.81838,147.62544,251.49417Z"/>
        <path d="M178.55661,61.461l-.1932.26255.27339-.18244Z"/>
        <path d="M245,197.532a35.3703,35.3703,0,0,1-15.12879-9.17737q-20.5163-20.60569-41.07882-41.16547c-.69234-.69386-1.33816-1.43417-2.00742-2.15478.32206-.388.51768-.66572.75417-.90262q21.37829-21.41747,42.76959-42.82185a34.79453,34.79453,0,0,1,15.03914-8.685c.4852-.14357.96053-.32037,1.52585-.51046-.28891-.36115-.3896-.62315-.54109-.65684a54.04021,54.04021,0,0,0-21.105-.70373,55.927,55.927,0,0,0-31.33473,16.63376c-6.90494,7.11847-13.98763,14.06465-20.99964,21.07906-.43917.43933-.94992.80705-1.65171,1.39648-3.46773-3.65455-6.79592-7.16211-10.2868-10.84105.65325-.69907,1.38311-1.528,2.16279-2.307q10.88323-10.87362,21.7745-21.739a53.09,53.09,0,0,0,10.73707-15.83864A56.52239,56.52239,0,0,0,200.15026,51.133a36.94322,36.94322,0,0,0-.60672-3.99535c-.2232-1.19587-.53065-2.376-.97849-4.34289A38.1184,38.1184,0,0,1,188.42182,61.3715q-20.21994,20.185-40.43911,40.37088c-.78365.782-1.60441,1.52689-2.53023,2.40515-.91038-.85774-1.73369-1.59516-2.5147-2.375-13.23914-13.21941-26.43635-26.48114-39.7273-39.64825A38.74819,38.74819,0,0,1,92.69211,45.105a10.26585,10.26585,0,0,0-.8672-1.6096,48.86,48.86,0,0,0-.95062,21.87492,54.52425,54.52425,0,0,0,15.77956,30.31443c7.08624,6.93882,14.06461,13.98783,21.08339,20.99542.78407.78283,1.51979,1.61411,2.03946,2.1685-3.50236,3.75845-6.85846,7.36-10.25762,11.0077-.664-.60045-1.09642-.958-1.49105-1.35331Q107.39774,117.8546,96.7782,107.19544C83.424,93.75035,67.32957,88.30663,48.56835,90.67107c-1.50039.1891-2.96927.62819-4.44456.94931.07872.3448.0736.51673.13048.54051a11.67744,11.67744,0,0,0,1.24033.45523,36.12353,36.12353,0,0,1,15.78707,9.35966q20.39623,20.48664,40.83974,40.92625c.687.68863,1.3235,1.42765,2.00651,2.16812-.43174.47084-.72293.81288-1.03925,1.12978q-21.2587,21.298-42.5402,42.5731a43.64963,43.64963,0,0,1-4.9286,4.09261c-3.664,2.70806-7.91633,4.1857-12.48522,5.58763a21.37378,21.37378,0,0,0,2.82178.88074,61.021,61.021,0,0,0,18.47689.32726c12.86148-1.88156,23.55991-7.71979,32.56246-16.99793,6.90605-7.11744,13.9932-14.0592,21.00806-21.07084a10.59067,10.59067,0,0,1,1.021-.86439c3.61228,3.57843,7.02295,6.95707,10.70636,10.60593-.68491.58707-1.59021,1.26864-2.38637,2.06005-7.35373,7.31-14.89862,14.44231-21.98242,22.006-12.29487,13.12777-16.97282,28.81041-14.54869,46.61159.18572,1.36379.623,2.69332.97977,4.19193.4222-.38469.6757-.50114.71644-.66919,1.69642-6.99926,5.49368-12.6869,10.57737-17.71057,13.14709-12.99192,26.18668-26.09269,39.25217-39.167.87359-.87426,1.60428-1.8913,2.47131-2.92527.90138.8232,1.49122,1.3216,2.0359,1.86526Q167.78516,208.494,188.69575,229.419a45.8601,45.8601,0,0,1,4.31808,5.17933c2.67309,3.62066,4.16274,7.81713,5.5539,12.48646a46.37866,46.37866,0,0,0,1.43-20.14458,54.80961,54.80961,0,0,0-16.81617-33.37839c-7.03851-6.82552-13.89965-13.834-20.82965-20.77112-.52784-.52837-.97452-1.13778-1.30649-1.52956,3.65529-3.68535,7.12624-7.18482,10.66124-10.74888.48215.45,1.0724.96788,1.62592,1.52242q10.74922,10.76856,21.49032,21.54523c12.46239,12.47874,27.57157,17.77584,45.05656,16.46208,2.54735-.19141,5.06011-.84309,8.226-1.39227C246.63422,198.11676,245.8303,197.78021,245,197.532ZM144.823,154.80327c-2.81555-2.97484-6.09512-6.44-9.13-9.64659,3.03722-3.04486,6.4824-6.49875,10.02042-10.04569,3.03276,3.05419,6.33829,6.38317,9.4759,9.543C151.82186,147.95088,148.32371,151.3758,144.823,154.80327Z"/>
      </g>
    </g>
  </g>
</svg>
