<svg xmlns="http://www.w3.org/2000/svg" viewBox="0 0 300.99514 304.37998">
  <title>iron-banner</title>
  <g id="Layer_2" data-name="Layer 2">
    <g id="Layer_1-2" data-name="Layer 1">
      <path id="SVGID" d="M150.97506,304.38c0-.02206,0-.04412-.0007-.06627ZM121.8725,122.6396c4.55267.9867,8.11793.07035,10.424-2.64544a8.9483,8.9483,0,0,0,1.63671-2.88315,9.43767,9.43767,0,0,0-3.75737-.85016c-5.10493,0-7.77856,5.22068-8.30338,6.37875m46.14167-5.52859a8.91785,8.91785,0,0,0,1.636,2.88111,8.81927,8.81927,0,0,0,7.071,3.03244h.00135a15.97512,15.97512,0,0,0,3.3544-.385c-.52886-1.15537-3.20045-6.37875-8.30534-6.37875a9.43526,9.43526,0,0,0-3.75741.85016m-61.59494,1.08371a19.66364,19.66364,0,0,0,4.91479.68354,10.63177,10.63177,0,0,0,10.55523-7.39234,18.65039,18.65039,0,0,0-3.73331-.39762,12.89236,12.89236,0,0,0-11.73671,7.10642m73.63894-6.7088a10.64412,10.64412,0,0,0,10.55523,7.39234h.00135a19.666,19.666,0,0,0,4.91344-.68354,12.89365,12.89365,0,0,0-11.73541-7.10642,18.63252,18.63252,0,0,0-3.73461.39762m-81.61962-4.18241a10.2315,10.2315,0,0,0,5.53063,1.782,9.734,9.734,0,0,0,6.71484-2.99428,9.35533,9.35533,0,0,0-4.94425-1.42454,12.86139,12.86139,0,0,0-7.30122,2.63686m92.82551-1.21232a9.72889,9.72889,0,0,0,6.71418,2.99428,10.20535,10.20535,0,0,0,5.53-1.782,12.8567,12.8567,0,0,0-7.30058-2.63686,9.34458,9.34458,0,0,0-4.94358,1.42454m-73.58337,66.93749c1.32141.08768,2.54039,2.45472,2.54039,2.45472l-.03211.00065c-1.74384,0-2.50828-2.45537-2.50828-2.45537m-4.06936-.739c2.39179-.18141,2.50562,2.67494,2.50562,2.67494a19.42134,19.42134,0,0,1-2.50562-2.67494m-18.894-7.654c-1.75184,2.47073-4.88332,3.86177-7.26106,4.60349a44.066,44.066,0,0,0,7.26106-4.60349m33.4142-.3401c-.01474-.02606.3066.10844.78925.243a4.35028,4.35028,0,0,0,2.77132.02411,2.8609,2.8609,0,0,1-1.83683.96456,2.04388,2.04388,0,0,1-1.72374-1.23169m-25.631-8.223a2.00754,2.00754,0,0,1,1.9145-.8053A4.56791,4.56791,0,0,0,101.957,156.912h-.00135a3.39376,3.39376,0,0,1,.54491-.83938M69.982,155.05974h.21017a8.22573,8.22573,0,0,1,3.44547.53752c1.04158.67341,1.77125.78324,3.823.73633a25.396,25.396,0,0,0,5.02792-.68207,10.6472,10.6472,0,0,1-5.70738,1.79732,9.37733,9.37733,0,0,1-2.61937-.37818,5.92057,5.92057,0,0,0-2.01562-.28649,12.65836,12.65836,0,0,0-5.08483,1.19418,6.22014,6.22014,0,0,1,2.48552-1.614l1.04162-.3039-1.02557-.35276a3.40262,3.40262,0,0,0-1.01011-.1198,10.30963,10.30963,0,0,0-4.55933,1.28325,10.2658,10.2658,0,0,1,5.98852-1.81145m59.62622-1.07839s1.53227.14994,1.79065.905c0,0-1.12125-.51742-1.79065-.905m-4.70392-2.63482s2.78406-.1707,3.41061.99406a18.12072,18.12072,0,0,0-3.41061-.99406m-9.4889-4.88s3.36044-1.25179,4.10282,1.27328c0,0-.55492-1.15741-4.10282-1.27328m-13.36337-.85008c6.15117,3.13417,8.69157,1.61591,8.69157,1.61591a2.86185,2.86185,0,0,1-2.33488,1.01016c-2.79678,0-6.35669-2.62607-6.35669-2.62607m4.0017-5.08823a2.67367,2.67367,0,0,1,1.938-.1586c2.0651.409,2.63678,2.7345,2.63678,3.49028a1.58635,1.58635,0,0,0,.80935,1.20489,1.92492,1.92492,0,0,1-1.45-.63256c-.70692-1.01955-1.294-.804-2.82289-1.09783a2.69927,2.69927,0,0,1-2.118-1.90045c-.13589-.41168-1.292-.66736-1.292-.66736.23767.0147.45188.02067.64465.02067a4.3075,4.3075,0,0,0,1.65411-.259m-2.0852-.79124s-1.83217-.413-5.18726,1.25383c0,0,3.58671-2.7171,5.18726-1.25383m6.94111-1.19688s3.96554.40367,3.752,3.23125c0,0-.52216-1.99556-3.752-3.23125m2.82689-1.6146s3.989,3.088,3.89126,5.39073c0,0-.73568-2.01763-3.89126-5.39073m-31.03577-1.1387a25.09586,25.09586,0,0,0,9.189,2.20769,6.122,6.122,0,0,1-1.74514.23632c-3.5258,0-7.44382-2.444-7.44382-2.444m.90234-2.20974a15.155,15.155,0,0,0,11.01713,2.61276,8.75933,8.75933,0,0,1-3.46619.662h-.00269a10.74372,10.74372,0,0,1-7.54825-3.27481m17.45618-.6225a12.79144,12.79144,0,0,1,2.78006-.38757,5.2774,5.2774,0,0,1,1.56039.233c.16.04412.3126.08694.4699.12044l1.75589.37557a5.73018,5.73018,0,0,1,.4592.56563,28.32981,28.32981,0,0,0-5.24614-.59979,11.11148,11.11148,0,0,0-1.66551.11113,9.59187,9.59187,0,0,1-1.37494.09642,10.89681,10.89681,0,0,1-4.3465-.895,14.7801,14.7801,0,0,0,3.80428.569,8.10488,8.10488,0,0,0,1.80337-.18876m-26.97315-1.21968c.10913-.33535-.07162-.71026-.61319-1.21428a3.05535,3.05535,0,0,1,2.01227.73764.74613.74613,0,0,1,.05557.73707c-.247.72358-1.07308,1.04628-2.685,1.04628-.87893,0-1.885-.095-2.95342-.19547-.92779-.08768-1.887-.1774-2.82288-.20886a11.22834,11.22834,0,0,0-8.78534,3.2105,12.85614,12.85614,0,0,1,9.851-4.141,20.47886,20.47886,0,0,1,4.10082.4438,4.71754,4.71754,0,0,0,.79325.073c.21957,0,.88493,0,1.04693-.48866m32.03052.55223a12.99459,12.99459,0,0,0-6.05278-1.381,11.50285,11.50285,0,0,1-7.11447-2.35494c2.12136.966,4.894,2.00218,6.69674,1.84488a11.03222,11.03222,0,0,1,7.67544,2.59526ZM83.84745,112.47328c1.231,1.03362,3.80825,3.35979,4.35782,5.15719-1.07574-.92378-3.51035-3.15967-4.35782-5.15719m-4.46093.16736a16.795,16.795,0,0,1,1.03287-5.5969c.09773,2.03029.251,5.67591.251,8.1929,0,2.47882,1.84488,4.79968,3.18839,6.15991-2.94271-1.612-4.47229-5.38-4.47229-8.75591m-1.84088-1.56435c-.818,8.958-.25842,5.64306-2.23919,9.51692-1.98077,3.8759-4.82776,5.41819-5.84927,5.41819,0,0-8.27858-.80056-11.60421-3.23321,0,0,1.35622,2.61806,2.27866,3.23321,0,0-6.032,1.04767-6.95717,6.15656-.92309,5.10964-.93649,9.68771-1.82747,10.807a3.83972,3.83972,0,0,0,1.74449-.48269c.44584-.409,8.23171-6.7141,10.9147-5.67788,0,0-8.77528,3.0773-12.46373,8.74448,0,0,2.043.09168.21487,6.39754,0,0,7.47062-5.04263,12.51259-5.23278,1.10855-.04151,2.4273-.03677,3.84109-.03342,5.01587.01536,11.2387.02942,13.59234-1.99155,0,0-.56567,3.48432-16.11537,3.20379,0,0-7.53819.14129-12.06,5.182a13.16368,13.16368,0,0,1-1.61461,1.62458,4.5175,4.5175,0,0,1-.9733.63729,1.86626,1.86626,0,0,1-.237.091s-.43178.08172-.60383-.04078a2.11452,2.11452,0,0,0,.99676,1.16142,1.57768,1.57768,0,0,0,1.055.06022,3.066,3.066,0,0,0,.90838-.41168c2.22379-1.43589,3.85981-2.45471,5.60364-2.34758a33.81314,33.81314,0,0,0,7.95993-.92583,15.31135,15.31135,0,0,1,5.82652-.22758,17.12786,17.12786,0,0,0-5.38807.8026,18.926,18.926,0,0,1-7.03545,1.32542,11.37548,11.37548,0,0,0-6.747,2.32691c-1.35888,1.24109-.255,1.68219.39162,1.97137.646.28789.86553,1.34217.86553,2.58195,0,1.24239.561,4.0064,3.48362,4.09678,2.92331.089,5.623-.45058,6.3848-1.4158.76714-.97,5.06142-5.5334,9.851-4.16174a10.87573,10.87573,0,0,0-7.93782,3.89c-3.17168,3.93539-7.03884,4.07063-10.23393,2.54174,0,0,2.16017,2.76532,2.16017,5.218a3.57246,3.57246,0,0,1-1.76521,3.29621,3.19642,3.19642,0,0,1-.55161.25569s.26712.05156.69286.16065c1.58649.403,5.41149,1.60325,6.27971,3.97764,0,0,4.72671-6.45646,7.77116-7.08771,0,0-11.36854,8.15343-5.77029,15.84689,0,0,3.45147-6.58491,8.065-7.58241a9.12337,9.12337,0,0,1-1.82146,3.52984,36.98545,36.98545,0,0,0,5.368-4.86261c1.98212-2.369,4.13494-3.05646,6.20208-5.25279,2.06645-2.19634,1.85223-2.62812,4.47834-3.18778,2.62808-.55828,4.64971-.68878,5.46971-1.7639,0,0-1.11924,2.13006-5.8031,3.05589a4.66729,4.66729,0,0,0-3.67905,3.29483,75.2657,75.2657,0,0,1,12.5387-.88367c7.81464,0,8.19621-.24228,9.45805.61924,1.26384.86021,6.6044,3.47353,7.982,4.33375a6.42161,6.42161,0,0,0,3.59,1.26388,5.23192,5.23192,0,0,0,4.84987-3.04314,13.41212,13.41212,0,0,0,1.9567-5.10694c.05687-.51145-.22226-.36281-.91243-.21426a5.80416,5.80416,0,0,1-1.88839.10713s-.12584-.02672-.35276-.08032a5.664,5.664,0,0,0,.27779-2.95007,10.25261,10.25261,0,0,1-3.45883,2.13341c-.54892-.15395-1.144-.32735-1.76725-.51611a7.62713,7.62713,0,0,0,.89837-2.55719,9.94345,9.94345,0,0,1-4.50514,1.34421c-.19211-.073-.38423-.1439-.575-.21622a7.5232,7.5232,0,0,0,.735-3.06455c-1.17012.96661-4.35851,1.09114-5.07078,1.10724-.1439-.07968-.28649-.16074-.42774-.23837a10.00129,10.00129,0,0,0,1.18752-2.863c-.91443.86953-2.96077.96726-3.8732.97535a4.8663,4.8663,0,0,1-1.77325-2.96151c-.49066-4.631,1.88038-6.27767,3.82568-6.59636.10039.80065.25369,2.39785-.06561,2.86378a14.61875,14.61875,0,0,0,2.80212-2.517c.58978.172,1.32346.40367,2.16222.69082a7.62471,7.62471,0,0,1-.09438,3.22521,11.6016,11.6016,0,0,0,3.16559-2.10261c.61519.23967,1.25384.5,1.90384.77588a3.24011,3.24011,0,0,1-.91108,2.7131,7.206,7.206,0,0,0,3.59337-1.50216c.399.19145.7986.38888,1.19291.59177a3.4952,3.4952,0,0,1,.1245,2.71841,5.42961,5.42961,0,0,0,2.54108-1.243,29.99551,29.99551,0,0,1,2.79743,1.89039s.15935.08972.40837.237c-.19481.70357-.64734,2.05244-1.292,2.36769a13.44459,13.44459,0,0,0,4.19855-.09438c.3059.717-.06292.87157.79525.90172.88763.02877,1.7619.42705,3.52375-1.61664,1.7619-2.043,1.83487-2.438,2.82427-2.38444.99006.05491,1.32476-.69483,1.18217-1.17212a1.13482,1.13482,0,0,1-.04551-.94855c.12649-.57168.46524-.87026.98535-.79329.51947.07633,1.59786.30325,1.72439-.22888.12719-.53352.81066-2.05309-1.39573-3.43546-2.20434-1.38033-9.41923-5.47906-12.46369-8.17811l-3.95957-3.20118a14.41942,14.41942,0,0,1-3.62083-5.21c-1.4332-3.416-4.16105-4.88262-5.82586-6.08694-1.66548-1.20562-5.03863-4.0037-7.57837-5.55473-2.54239-1.55038-6.97857-5.55474-8.8288-5.55474-1.85293,0-2.84233-2.32617-3.74806-4.1771-.903-1.853-6.62912-12.31517-7.27577-15.07239-.6453-2.75665-2.41991-3.46627-3.39125-3.46627s-2.93867,1.52766-3.758,10.485M181.725,175.4834s1.221-2.367,2.54174-2.45472c0,0-.76514,2.45472-2.50959,2.45537l-.03215-.00065m6.61175-3.19375a19.552,19.552,0,0,1-2.50558,2.67494s.11179-2.85635,2.50558-2.67494m18.89273-7.654a44.09763,44.09763,0,0,0,7.26307,4.60349c-2.37974-.74172-5.51327-2.13276-7.26307-4.60349m-34.2041-.09708c.48265-.13458.80261-.26908.78855-.243-1.54163,2.60671-3.55791.26713-3.55791.26713a2.86607,2.86607,0,0,0,1.17216.22218,6.14078,6.14078,0,0,0,1.5972-.24629m26.9651-7.62661a4.57023,4.57023,0,0,0-2.45806-1.64468,2.00386,2.00386,0,0,1,1.91249.8053,3.46522,3.46522,0,0,1,.54692.83938h-.00135m28.31932-1.31471a8.212,8.212,0,0,1,3.44277-.53752h.21957a10.25747,10.25747,0,0,1,5.96041,1.8,10.2979,10.2979,0,0,0-4.53792-1.27181,3.38788,3.38788,0,0,0-1.01012.1198l-1.02621.35276,1.04158.3039a6.20826,6.20826,0,0,1,2.48286,1.614,12.63591,12.63591,0,0,0-5.08082-1.19418,5.9217,5.9217,0,0,0-1.98882.27709,9.39039,9.39039,0,0,1-2.64818.38758,10.61094,10.61094,0,0,1-5.698-1.79667,25.2103,25.2103,0,0,0,5.01787.68142c.26373.00539.50606.0094.72967.0094a4.82543,4.82543,0,0,0,3.09532-.74573m-55.97123-1.61591c-.66941.38757-1.79336.905-1.79336.905.26039-.755,1.79336-.905,1.79336-.905m4.70392-2.63482a18.11208,18.11208,0,0,0-3.40931.99406c.62524-1.16476,3.40931-.99406,3.40931-.99406m9.48885-4.88c-3.5465.11587-4.10143,1.27328-4.10143,1.27328.74034-2.52507,4.10143-1.27328,4.10143-1.27328m13.36276-.85008s-6.24559,4.60749-8.691,1.61591a4.13291,4.13291,0,0,0,1.97276.36747,15.15985,15.15985,0,0,0,6.71819-1.98338m-8.57582-1.75655c0-.75578.571-3.0813,2.63682-3.49028a2.67227,2.67227,0,0,1,1.93726.1586,5.10008,5.10008,0,0,0,2.30076.23837s-1.15675.25568-1.29465.66736a2.69564,2.69564,0,0,1-2.11531,1.90045c-1.53028.29384-2.11666.07828-2.82288,1.09783a1.9257,1.9257,0,0,1-1.45065.63256,1.58621,1.58621,0,0,0,.80865-1.20489m11.84589-2.86909c-3.35375-1.66682-5.18526-1.25383-5.18526-1.25383,1.60124-1.46327,5.18526,1.25383,5.18526,1.25383m-12.12568-2.45071c-3.23125,1.23569-3.75271,3.23125-3.75271,3.23125-.21422-2.82758,3.75271-3.23125,3.75271-3.23125m-2.82623-1.6146c-3.159,3.3731-3.894,5.39073-3.894,5.39073-.09573-2.30273,3.894-5.39073,3.894-5.39073m21.84546,1.069a25.10058,25.10058,0,0,0,9.18965-2.20769s-3.92076,2.444-7.44516,2.444a6.11748,6.11748,0,0,1-1.74449-.23632m8.28662-4.41743c-5.4865,5.24953-11.01782,2.61276-11.01782,2.61276a16.49683,16.49683,0,0,0,2.19368.14725,14.84118,14.84118,0,0,0,8.82414-2.76m-24.02307-.28109,1.7545-.37557c.16-.0335.31194-.07632.47059-.12044a5.27146,5.27146,0,0,1,1.56108-.233,12.74972,12.74972,0,0,1,2.77872.38757,8.12292,8.12292,0,0,0,1.80206.18876,14.78865,14.78865,0,0,0,3.80759-.569,10.89424,10.89424,0,0,1-4.3465.895,9.54592,9.54592,0,0,1-1.37363-.09642,11.13848,11.13848,0,0,0-1.66747-.11113,28.4059,28.4059,0,0,0-5.24818.59979,6.27943,6.27943,0,0,1,.46124-.56563m32.08539-1.30066a.74817.74817,0,0,1,.05491-.73707,3.06022,3.06022,0,0,1,2.01293-.73764c-.54222.504-.723.87893-.61254,1.21428.15865.4867.82071.48866,1.043.48866h.00266a5.02641,5.02641,0,0,0,.8026-.073,20.33071,20.33071,0,0,1,4.09277-.4438,12.86,12.86,0,0,1,9.82091,4.11688,11.14384,11.14384,0,0,0-8.08512-3.19775q-.33235,0-.67076.01136c-.93449.03146-1.89509.12118-2.82357.20886-1.06569.10043-2.07246.19547-2.95342.19547-1.61126,0-2.43932-.3227-2.68434-1.04628M208.996,128.55118a11.49684,11.49684,0,0,1-7.11182,2.35494,13.00375,13.00375,0,0,0-6.05413,1.381l-1.20423.70422a11.045,11.045,0,0,1,7.014-2.62337c.22692,0,.44918.00939.6607.02811q.18681.016.38557.01609a17.833,17.833,0,0,0,6.30987-1.861m9.10463-16.0779c-.84681,1.99752-3.28347,4.23341-4.3592,5.15719.54891-1.7974,3.12682-4.12357,4.3592-5.15719m3.175,2.76336c0-2.51764.15465-6.16392.25373-8.1956a16.84791,16.84791,0,0,1,1.03152,5.5996c0,3.37588-1.52958,7.14392-4.47229,8.75591,1.34216-1.36023,3.187-3.68109,3.187-6.15991m-4.0218-11.17909c-.648,2.75722-6.37344,13.21943-7.27982,15.07239-.90368,1.85093-1.89243,4.1771-3.74532,4.1771-1.85092,0-6.2871,4.00436-8.8295,5.55474-2.54043,1.551-5.91158,4.34911-7.57771,5.55473-1.66551,1.20432-4.392,2.67093-5.82721,6.08694a14.41453,14.41453,0,0,1-3.61817,5.21l-3.96219,3.20118c-3.04249,2.699-10.258,6.79778-12.46238,8.17811-2.20639,1.38237-1.52358,2.90194-1.39573,3.43546.12584.53213,1.20357.30521,1.723.22888.52081-.077.86021.22161.9867.79329a1.14787,1.14787,0,0,1-.04416.94855c-.1439.47729.18945,1.227,1.18082,1.17212.99006-.05353,1.06168.3414,2.82492,2.38444,1.7619,2.04369,2.63478,1.64541,3.5231,1.61664.85817-.03015.488-.18475.79525-.90172a13.4441,13.4441,0,0,0,4.19855.09438c-.64734-.31525-1.09584-1.66412-1.292-2.36769.24837-.14725.407-.237.407-.237a30.41726,30.41726,0,0,1,2.79612-1.89039,5.44226,5.44226,0,0,0,2.54374,1.243,3.49544,3.49544,0,0,1,.12249-2.71841c.39632-.20289.7966-.40032,1.19357-.59177a7.2198,7.2198,0,0,0,3.59472,1.50216,3.24232,3.24232,0,0,1-.91108-2.7131c.65-.27587,1.2873-.53621,1.90449-.77588a11.59277,11.59277,0,0,0,3.165,2.10261,7.68673,7.68673,0,0,1-.09777-3.22521c.84146-.28715,1.57648-.51881,2.16557-.69082a14.62366,14.62366,0,0,0,2.80147,2.517c-.3193-.46593-.16535-2.06313-.06562-2.86378,1.94666.31869,4.315,1.96541,3.82634,6.59636a4.86961,4.86961,0,0,1-1.77325,2.96151c-.91173-.00809-2.95877-.10582-3.87455-.97535a10.0203,10.0203,0,0,0,1.18887,2.863c-.1399.07763-.28384.15869-.42974.23837-.70892-.0161-3.90066-.14063-5.06812-1.10724a7.51132,7.51132,0,0,0,.735,3.06455c-.1928.07232-.38291.14325-.57568.21622a9.9433,9.9433,0,0,1-4.5058-1.34421,7.61839,7.61839,0,0,0,.899,2.55719c-.6239.18876-1.21968.36216-1.76725.51611a10.24428,10.24428,0,0,1-3.45817-2.13341,5.66131,5.66131,0,0,0,.27713,2.95007c-.22557.0536-.35276.08032-.35276.08032a5.80735,5.80735,0,0,1-1.88909-.10713c-.69016-.14855-.9693-.29719-.911.21426a13.38079,13.38079,0,0,0,1.95466,5.10694,5.2347,5.2347,0,0,0,4.85121,3.04314,6.41111,6.41111,0,0,0,3.58868-1.26388c1.37832-.86022,6.71954-3.47354,7.982-4.33375,1.26319-.86152,1.64476-.61924,9.45944-.61924a75.24145,75.24145,0,0,1,12.538.88367,4.66685,4.66685,0,0,0-3.6784-3.29483c-4.68386-.92583-5.80311-3.05589-5.80311-3.05589.81936,1.07512,2.84164,1.20562,5.47041,1.7639,2.62542.55966,2.41185.99144,4.47769,3.18778,2.06779,2.19633,4.21992,2.8838,6.202,5.25279a36.91233,36.91233,0,0,0,5.368,4.86261,9.12337,9.12337,0,0,1-1.82146-3.52984c4.61154.9975,8.06436,7.58241,8.06436,7.58241,5.59894-7.69346-5.7703-15.84689-5.7703-15.84689,3.04511.63125,7.77182,7.08771,7.77182,7.08771.81736-2.23719,4.26683-3.43472,5.98717-3.90066.59378-.162.98471-.23763.98471-.23763a3.321,3.321,0,0,1-.76914-.39027,3.60574,3.60574,0,0,1-1.54769-3.16163c0-2.45267,2.16018-5.218,2.16018-5.218-3.19375,1.52889-7.06425,1.39365-10.23389-2.54174a10.8739,10.8739,0,0,0-7.93718-3.89c4.789-1.37166,9.08454,3.19171,9.84967,4.16174.76379.96522,3.46418,1.50478,6.38615,1.4158,2.9233-.09038,3.48228-2.85439,3.48228-4.09678,0-1.23978.22091-2.29406.86552-2.58195.36751-.16269.87762-.37417,1.00816-.75373.00935-.05688.01806-.11514.02741-.17406.00605-.26712-.16265-.60518-.64395-1.04358a11.37162,11.37162,0,0,0-6.7483-2.32691,18.91312,18.91312,0,0,1-7.0328-1.32542,17.13626,17.13626,0,0,0-5.38942-.8026,15.3143,15.3143,0,0,1,5.82721.22758,33.82645,33.82645,0,0,0,7.96058.92583c1.74315-.10713,3.3792.91169,5.60364,2.34758a3.34658,3.34658,0,0,0,.65536.3307,1.81052,1.81052,0,0,0,1.03022.11514,1.98083,1.98083,0,0,0,1.27385-1.2558c-.1707.1225-.60244.04078-.60244.04078a2.39727,2.39727,0,0,1-.48935-.21883,5.95547,5.95547,0,0,1-.9626-.71493,13.627,13.627,0,0,1-1.37363-1.41914c-4.52251-5.04066-12.06006-5.182-12.06006-5.182-15.54969.28053-16.11466-3.20379-16.11466-3.20379,2.35228,2.021,8.57577,2.00626,13.59163,1.99155,1.4138-.00409,2.73255-.00809,3.8411.03342,4.64569.174,11.35248,4.469,12.37465,5.14036.08638.05965.13859.09242.13859.09242-.04151-.1372-.07632-.26713-.11313-.39967-1.59585-5.79171.24968-5.99183.322-5.99656l.00335-.00131-.00335-.00531c-3.6878-5.66456-12.45838-8.73917-12.45838-8.73917,2.68164-1.03622,10.46821,5.2689,10.91405,5.67788a3.327,3.327,0,0,0,1.56974.46994c.10578.00875.1734.01275.1734.01275a1.57064,1.57064,0,0,1-.17675-.29523c-.71893-1.48476-.79121-5.7663-1.64872-10.51173-.92514-5.10889-6.95717-6.15656-6.95717-6.15656.92244-.61515,2.27666-3.23321,2.27666-3.23321-3.32228,2.43265-11.60421,3.23321-11.60421,3.23321-1.02086,0-3.86716-1.54229-5.848-5.41819-1.98142-3.87386-1.42045-.55893-2.2398-9.51692-.818-8.95735-2.78677-10.485-3.75742-10.485-.97195,0-2.7459.70962-3.3892,3.46627m-84.38428-6.739a7.26066,7.26066,0,0,0,1.557.18141,4.82774,4.82774,0,0,0,4.558-2.99028,3.81441,3.81441,0,0,0-1.458-.29785c-2.35563,0-4.13759,2.34024-4.657,3.10672m30.09192-2.80887a4.83489,4.83489,0,0,0,4.56,2.99028,7.26122,7.26122,0,0,0,1.557-.18141c-.52081-.76648-2.30211-3.10672-4.65844-3.10672a3.82248,3.82248,0,0,0-1.45861.29785m-42.90976-3.88521a7.2604,7.2604,0,0,0,4.58278,1.72238,9.21973,9.21973,0,0,0,5.67722-2.32487,7.48784,7.48784,0,0,0-10.26.60249m51.584-.60249a9.23639,9.23639,0,0,0,5.67522,2.32487h.00135a7.26655,7.26655,0,0,0,4.58613-1.72238,7.49124,7.49124,0,0,0-10.2627-.60249M96.27837,79.00556c.332.0308.982.075,1.82613.075,9.1843,0,12.5186-4.51654,13.71082-7.37755a19.75019,19.75019,0,0,0-3.408-.29123c-7.75377,0-10.87854,4.072-12.129,7.59377m93.853-7.30254c1.19091,2.861,4.52721,7.37755,13.71216,7.37755.84347,0,1.49212-.04421,1.82617-.075-1.24979-3.52175-4.37526-7.59377-12.13237-7.59377a19.75048,19.75048,0,0,0-3.406.29123M86.8832,68.99793a11.99639,11.99639,0,0,0,4.16706.73634A15.707,15.707,0,0,0,99.043,67.32711a12.996,12.996,0,0,0-5.206-1.17817,9.78978,9.78978,0,0,0-6.95382,2.849m116.02053-1.67082a15.71281,15.71281,0,0,0,7.99343,2.40716,12.01535,12.01535,0,0,0,4.16571-.735,9.799,9.799,0,0,0-6.95382-2.8503,13.00058,13.00058,0,0,0-5.20532,1.17817M126.956,49.58779c1.64475,2.61,3.66368,3.93539,6.006,3.93539a8.45326,8.45326,0,0,0,4.67246-1.64877c-1.38233-2.51224-3.31959-3.78478-5.7616-3.78478a10.16523,10.16523,0,0,0-4.91682,1.49816m37.357,2.28662a8.46781,8.46781,0,0,0,4.67181,1.64877h.002c2.34027,0,4.3592-1.32542,6.00392-3.93539a10.16174,10.16174,0,0,0-4.91613-1.49816c-2.44132,0-4.37927,1.27254-5.7616,3.78478M113.58857,238.52227c-.45319-.1774-.90638-.36216-1.35753-.54291a101.77909,101.77909,0,0,1-28.7598-17.8096c-.16935-.14995-.33871-.29924-.50475-.44919-.19412-.1707-.38623-.33936-.57834-.51006-.12923-.11718-.25842-.23632-.38762-.35415q-1.77227-1.61452-3.48358-3.32229c-.51346-.512-1.01417-1.03222-1.51557-1.55234-.16331-.168-.32531-.3414-.48731-.50941A102.4529,102.4529,0,0,1,58.55048,99.00283c.14864-.3106.3019-.61989.45319-.92779.14529-.29459.28584-.59113.43514-.88628A41.49828,41.49828,0,0,1,62.733,94.52714q.9348-.6777,1.92655-1.29061a18.88624,18.88624,0,0,1,7.16133-2.82823,72.807,72.807,0,0,1,9.81551-.76853,22.50327,22.50327,0,0,1,8.81279,1.365c3.5425,1.5744,18.566,7.82869,21.43378,8.15474,3.09.35006,14.29925,4.94424,16.00488,5.773,1.98347.96325,14.08769,11.75943,15.84423,18.89134.34071.66336,2.80413,6.74834,2.80413,43.71036q0,4.82175.01675,9.48555c.087,34.87011.156,62.41228-11.48637,63.69488-1.17952.12984-2.31683.21148-3.39321.245q-.53724.01607-1.053.01536c-4.81844,0-8.53431-1.04824-11.38665-3.27742a16.69409,16.69409,0,0,1-5.01321-6.99463c-.06627-.17936-1.4861-4.09743-.42843-6.17593.53086-1.04628,2.519-4.48705,5.90819-5.14575-.04551-.02746-.10173-.06357-.17736-.10173a.74107.74107,0,0,0-.3287-.04756c-1.74179,0-6.49862,1.9145-7.42776,5.45839a.36319.36319,0,0,1-.71092-.04151c-.03746-.26378-.86953-6.52812,2.77271-9.89658a6.70778,6.70778,0,0,1,4.6189-1.56508,10.0226,10.0226,0,0,1,2.13141.23566.21708.21708,0,0,0,.10843-.02949s.03751-.06758-.02476-.2771c-.1593-.42173-2.54239-1.51156-4.714-1.51156a3.84448,3.84448,0,0,0-1.70968.33405.36192.36192,0,0,1-.42438-.07428.35736.35736,0,0,1-.05622-.42573c.1573-.28985,3.98629-7.08166,10.93341-7.08166a14.39086,14.39086,0,0,1,8.50219,3.24187,1.84542,1.84542,0,0,0,.86953.30259.57913.57913,0,0,0,.45454-.19481.47987.47987,0,0,0,.08367-.36216,4.68714,4.68714,0,0,0-1.51417-2.4199l-.03751-.03146a11.67986,11.67986,0,0,0-7.36885-2.39776,21.31836,21.31836,0,0,0-8.78463,2.16079.36306.36306,0,0,1-.49605-.22023c-.01541-.04412-1.54969-4.655-5.2783-5.04532-.419-.04486-.76714-.07093-1.04158-.077.16266.09037.33271.17936.45855.24563a4.03025,4.03025,0,0,1,.84011.5148c.04686.04487.13724.11179.25238.19882.94184.71557,3.44677,2.61536,2.0959,6.01062a36.07371,36.07371,0,0,1-3.0565,5.41149c-1.60125,2.52637-3.26206,5.143-3.90937,7.43376a.2839.2839,0,0,1-.04751.10313,1.69645,1.69645,0,0,1-1.26254.74172c-.6433,0-1.22634-.494-1.73174-1.46939-1.142-2.199-6.29111-4.83377-7.51814-5.20933a13.905,13.905,0,0,1-4.51316-2.86239c-2.26125-2.16152-3.08461-4.6571-2.379-7.2169.11848-.45319.164-1.17751-.073-1.29526-.44518,0-1.66481,1.24444-1.66481,3.61613a9.44015,9.44015,0,0,0,3.19239,6.2623.36252.36252,0,0,1-.20551.6547h-.04552c-.62924,0-6.2777-.18949-10.66837-6.745-4.06-6.06749-3.94347-7.15463-3.29012-9.03971.05421-.15125.10708-.30521.16-.47256a.23916.23916,0,0,0,.00871-.17135.33034.33034,0,0,0-.20621-.11048.91832.91832,0,0,0-.52481.30994,3.606,3.606,0,0,0-.87158,2.55041c.06427,1.6441.956,3.84583,2.72319,6.73093.43979.71623.87958,1.37028,1.26851,1.948,1.142,1.69158,1.89443,2.81287,1.09784,3.40187a6.38211,6.38211,0,0,1-.98271.51415c-.21622.09708-.45249.2042-.68546.32465a5.46125,5.46125,0,0,0-.909.54357c-.33471.26443-.54357.55631-.47329.87557.04286.17945.11378.23363.31059.23363a2.82558,2.82558,0,0,0,.97131-.26639c.30659-.12658.63059-.27988.93784-.43048.02076-.01005.03951-.01871.06161-.03007a8.26626,8.26626,0,0,1,1.213-.5148,1.638,1.638,0,0,1,.45319-.06162c1.44991,0,3.73662,1.606,4.6142,2.38583a1.05516,1.05516,0,0,1,.38361.84347c-.02546.72293-.79395,1.46392-1.66016,2.15547-.247.19947-.50137.39289-.75039.58173-.03081.02206-.05491.04216-.08437.06423-.16936.1305-.33271.25642-.47726.36951-.29924.23828-.45388.46994-.411.61254.05086.18541.38622.36878.63124.39893a3.15862,3.15862,0,0,0,1.14736-.59374,6.66091,6.66091,0,0,0,.81335-.66541,3.16838,3.16838,0,0,0,.51411-.60714,3.50492,3.50492,0,0,1,3.1964-1.56639,10.01358,10.01358,0,0,1,4.0178,1.04293l.98336.44444c4.08407,1.84627,6.78311,3.0639,7.16333,5.73353.24367,1.7143,2.89585,5.88805,6.7329,9.88244.70892.73706,1.45865,1.4667,2.24054,2.17288a35.92624,35.92624,0,0,0,4.83781,3.7293c.00735.00539.03816.02811.08167.05761-.49871-.18476-.99741-.3709-1.49281-.56367m56.472,2.42791q-1.52124-.05625-3.18169-.23558c-11.641-1.2826-11.57075-28.82477-11.48437-63.69227q.014-4.66008.01605-9.48816c0-36.962,2.46342-43.047,2.80417-43.71036,1.7565-7.13191,13.86277-17.92809,15.84489-18.89134,1.70433-.82875,12.91422-5.42293,16.00554-5.773,2.86709-.326,17.89061-6.58034,21.43312-8.15474a22.50233,22.50233,0,0,1,8.81344-1.365,72.789,72.789,0,0,1,9.8142.76853,18.24157,18.24157,0,0,1,6.73491,2.54975q.94386.56028,1.90514,1.235a39.78488,39.78488,0,0,1,3.24931,2.55915c.15264.29392.30124.58842.44849.88431.14929.2972.29389.59775.43783.89634a102.43158,102.43158,0,0,1-17.38121,114.55856c-.3039.32531-.61249.652-.92313.97331-.47191.4947-.94651.9854-1.4325,1.46931q-1.60258,1.60165-3.26942,3.12486c-.10239.09169-.20147.18811-.3039.28176-.324.29458-.65535.58507-.9827.8723-.11379.10509-.22958.20682-.34541.30725a101.7342,101.7342,0,0,1-28.26445,17.63824c-.43174.17937-.86687.34811-1.30065.51946-.498.19947-.99541.39559-1.49677.583a36.65043,36.65043,0,0,0,4.84316-3.79688c.77314-.71223,1.51017-1.4426,2.20638-2.17762,3.71586-3.92207,6.26966-7.96663,6.50729-9.64277.38091-2.66963,3.07864-3.88726,7.164-5.73353l.98271-.44444a10.0107,10.0107,0,0,1,4.0171-1.04293,3.49775,3.49775,0,0,1,3.19644,1.56639,3.35814,3.35814,0,0,0,.38958.48531,6.40552,6.40552,0,0,0,.79259.68142,3.57942,3.57942,0,0,0,1.29465.69956c.24363-.03015.57969-.21352.63325-.39893.04016-.1426-.11448-.37426-.41438-.61254-.1687-.13458-.36081-.27914-.56162-.43374-.01806-.01406-.03816-.02885-.05892-.04421-.27644-.2109-.55962-.42712-.83071-.648-.8053-.65936-1.49616-1.36088-1.52023-2.045a1.049,1.049,0,0,1,.38153-.84347c.88027-.77988,3.16633-2.38583,4.61558-2.38583a1.64662,1.64662,0,0,1,.45385.06162,7.06734,7.06734,0,0,1,1.03292.42843c.079.03751.16.07567.241.11644.245.11784.50071.241.75043.34942a3.30559,3.30559,0,0,0,1.16007.34745c.19481,0,.26578-.05418.30794-.23363.085-.36551-.20416-.69751-.62924-.99136a7.39361,7.39361,0,0,0-.93184-.51946c-.17336-.08172-.34406-.16139-.50406-.233a6.33435,6.33435,0,0,1-.98336-.51415c-.7986-.589-.04416-1.71029,1.09584-3.40187.39158-.57773.83006-1.23178,1.2705-1.948,1.76725-2.8851,2.65692-5.08683,2.72115-6.73093a3.61191,3.61191,0,0,0-.86953-2.55172.874.874,0,0,0-.4994-.31264c-.13654.03212-.21352.07232-.23562.11718a.24742.24742,0,0,0,0,.13786c.091.28248.1814.5054.26573.71827.68216,1.71037.85956,2.86975-2.99624,8.62868-4.57072,6.82794-10.82636,6.94111-11.08944,6.94111h-.002a.36264.36264,0,0,1-.21487-.6547,9.4521,9.4521,0,0,0,3.19309-6.2623c0-2.37439-1.22238-3.61883-1.64676-3.61883-.25573.12045-.21087.84477-.09038,1.3.70422,2.55775-.11914,5.05333-2.38174,7.21485a13.87121,13.87121,0,0,1-4.51381,2.86239c-1.22368.37556-6.37478,3.00768-7.51614,5.20933-.50675.97534-1.08979,1.46939-1.73043,1.46939a1.70206,1.70206,0,0,1-1.2645-.74172.30576.30576,0,0,1-.04686-.10313c-.65-2.29071-2.30812-4.90739-3.91-7.43376a36.31039,36.31039,0,0,1-3.0545-5.41149c-1.35288-3.39722,1.15071-5.29635,2.09525-6.01062.11513-.087.20482-.154.25168-.19882a4.04918,4.04918,0,0,1,.84011-.5148c.12584-.06627.29524-.15526.4572-.24563-.27244.006-.6212.03211-1.04158.077-3.72927.39027-5.26224,5.0012-5.27695,5.04532a.36361.36361,0,0,1-.49605.22023,21.3208,21.3208,0,0,0-8.78463-2.16079,11.67984,11.67984,0,0,0-7.36885,2.39776l-.03546.03146a4.68287,4.68287,0,0,0-1.51688,2.4199.47961.47961,0,0,0,.08433.36216.57955.57955,0,0,0,.4552.19481,1.8586,1.8586,0,0,0,.87692-.30929A14.38333,14.38333,0,0,1,177.256,204.357c6.94977,0,10.77411,6.79181,10.93276,7.08166a.3646.3646,0,0,1-.05622.42573.35981.35981,0,0,1-.42308.07428,3.85218,3.85218,0,0,0-1.70833-.33405c-2.17288,0-4.55467,1.08983-4.71663,1.51426-.06226.20682-.0248.2744-.0248.2744a.20815.20815,0,0,0,.11984.02345,10.253,10.253,0,0,1,2.12136-.22962,6.6992,6.6992,0,0,1,4.62894,1.57644c3.63158,3.3571,2.79812,9.62144,2.76066,9.88522a.36276.36276,0,0,1-.71023.04151c-.92783-3.54389-5.688-5.45839-7.42645-5.45839a.75555.75555,0,0,0-.33066.04756c-.07567.03816-.13254.07427-.17806.10173,3.3785.63321,5.37733,4.09612,5.91085,5.14575,1.057,2.0785-.36281,5.99657-.42373,6.16057a16.85083,16.85083,0,0,1-4.83716,6.85539c-2.8744,2.33492-6.64452,3.432-11.56936,3.432-.41168,0-.83475-.0107-1.26519-.02476M70.45659,84.39163a.91989.91989,0,0,1-.22357-.43113,2.99173,2.99173,0,0,1,.00735-1.01481,8.05559,8.05559,0,0,1,1.00477-2.681,1.50972,1.50972,0,0,1,.09037-.16931c.43514-.76044,1.76125-3.08,3.58672-3.36584.162-.02672.30925-.05687.45989-.08367.05622-.00932.11779-.02.1727-.03073a6.6405,6.6405,0,0,1,1.231-.16138c.04952,0,.09638.00539.14525.00874,1.17416.05622,2.10129.83872,3.35439,2.82088,1.4225,2.24315,1.84623,3.87051,1.296,4.969A2.92161,2.92161,0,0,1,78.97079,85.6c-.60514.04748-1.29395.07093-1.98947.07093-1.35353,0-5.48446-.099-6.52473-1.27925M222.97663,85.6a2.927,2.927,0,0,1-2.61271-1.34756c-.54823-1.09849-.1245-2.72585,1.29865-4.969,1.16411-1.84087,2.04573-2.64683,3.10872-2.79882a2.85035,2.85035,0,0,1,.38892-.0308,6.00066,6.00066,0,0,1,1.08779.13327c.04887.01071.09643.01871.14329.02811.20012.03743.411.07828.6339.1144,1.82547.28584,3.10407,2.52172,3.58537,3.36584.05556.09438.09372.164.11513.19481a7.84122,7.84122,0,0,1,1.02352,3.06047,2.48278,2.48278,0,0,1-.03346.60983,1.04156,1.04156,0,0,1-.38157.58108c-1.24578,1.03827-5.07413,1.1293-6.36808,1.1293-.69617,0-1.38568-.02345-1.98947-.07093m-85.76931.62585c-.54422-.23362-1.2906-.50941-2.15282-.82875-3.013-1.1105-7.13787-2.63408-9.353-4.77019-.55092-.52951-1.02822-.976-1.45465-1.37428a15.65165,15.65165,0,0,1-3.88456-4.75883c-.54022-1.00346-.9519-1.804-1.28125-2.43935a12.16076,12.16076,0,0,0-1.132-1.98273.36.36,0,0,1,.13855-.57773,3.626,3.626,0,0,1,1.223-.18941,4.81754,4.81754,0,0,1,1.48341.23828c.28719.08237,7.29387,2.14812,11.21259,6.494,3.97894,4.40869,6.16993,6.838,6.76706,8.27789.06758.16269.13589.3186.20216.46929.31526.71623.54422,1.23234.30055,1.60455a.64189.64189,0,0,1-.58373.27848,4.2092,4.2092,0,0,1-1.48542-.44118m25.46363.1627c-.24367-.37221-.0154-.88832.29924-1.60325.06627-.15125.1352-.3079.20216-.47059.5971-1.43786,2.78538-3.86381,6.757-8.26922,3.92873-4.35451,10.93746-6.42026,11.234-6.50663a4.82711,4.82711,0,0,1,1.47271-.23428,3.63012,3.63012,0,0,1,1.223.18941.36229.36229,0,0,1,.13924.57773,12.37015,12.37015,0,0,0-1.13465,1.98412c-.32665.6359-.73968,1.4345-1.27855,2.438a15.63176,15.63176,0,0,1-3.88526,4.75752c-.42573.39959-.90438.84608-1.45125,1.37559-2.21709,2.13611-6.34267,3.65969-9.355,4.77019-.86217.31934-1.60925.59513-2.15413.82875a4.19952,4.19952,0,0,1-1.48476.44118.64187.64187,0,0,1-.58373-.27848m-18.83381-2.52834c-.08633-.13924-.16065-.25847-.21622-.34615a12.20677,12.20677,0,0,0-.83606-1.02012,11.61991,11.61991,0,0,1-1.76125-2.37913,18.19182,18.19182,0,0,0-3.40126-4.64166c-1.69628-1.70767-4.26012-4.957-4.36856-5.09288a.60852.60852,0,0,1-.04151-.06692c-1.04762-2.14412.20752-2.82627.26243-2.855a1.64076,1.64076,0,0,1,.71427-.15125c1.95866,0,5.48446,2.857,7.75842,5.61831a30.74206,30.74206,0,0,1,4.75413,9.40652c.54962,1.68693.80064,3.66835-.14124,4.1691a.59694.59694,0,0,1-.28314.06962c-.6346,0-1.34752-.9532-2.44-2.7104m11.54864,2.64078c-.94054-.50271-.68881-2.48217-.13924-4.1691a30.75759,30.75759,0,0,1,4.75413-9.40652c2.27331-2.76131,5.79641-5.61831,7.75777-5.61831a1.62807,1.62807,0,0,1,.70087.14521c.06762.03481,1.3221.717.27648,2.86108a.5987.5987,0,0,1-.04082.06692c-.10978.1359-2.673,3.38521-4.37125,5.09288a18.21793,18.21793,0,0,0-3.40061,4.63969,11.57476,11.57476,0,0,1-1.7612,2.3811,12.04131,12.04131,0,0,0-.83541,1.02012c-.05892.08973-.1312.20887-.21691.34746-1.0938,1.75589-1.80537,2.70909-2.43932,2.70909a.60246.60246,0,0,1-.28449-.06962M96.02,88.43423l-.17336-.09708C92.12938,86.2379,84.397,81.87735,82.37405,75.16921a13.48055,13.48055,0,0,1-.62254-3.67505,8.44125,8.44125,0,0,1,.10243-1.533,5.74321,5.74321,0,0,1,2.38244-3.9863c.03881-.03015.07763-.06627.13654-.12249a17.37719,17.37719,0,0,1,5.50722-3.84174,11.25167,11.25167,0,0,1,2.2827-.56572,20.3873,20.3873,0,0,1,2.09726-.21482c.39762-.02011.80125-.03351,1.21028-.03351.69151,0,2.99893.04086,3.66569.583.74638.60583,3.8578,1.99352,9.03231,3.14226a12.57682,12.57682,0,0,1,8.49815,5.86869A25.93348,25.93348,0,0,1,119.31,77.22229a2.01774,2.01774,0,0,1-.22222,1.71234,2.2856,2.2856,0,0,1-1.76655.77515c-.35881.02615-.67946.02811-.89033.02811l-.6567-.00466c-.23832,0-.68612,0-.804.12249a.51665.51665,0,0,0-.071.3213c.00535.27783,1.68222.8214,5.538.8214.21691,0,.407-.0027.56163-.00539l.12384-.0027a3.678,3.678,0,0,1,2.39048.72833c1.49678,1.551,7.89031,4.71805,13.37878,7.16942a13.26342,13.26342,0,0,1,4.41677,3.60338c.41033.43783.85886.91708,1.36693,1.44129,2.50962,2.58121,3.38185,8.24977,3.82029,12.28558.12453,1.15815.30659,2.27.46659,3.24932.34676,2.14076.577,3.55255.09773,4.17979a.82033.82033,0,0,1-.58173.32539q-.06624.006-.13454.006c-1.31,0-3.08327-1.8984-7.74506-7.61452-3.11407-3.81829-9.26193-5.8807-13.3306-7.24771a26.16818,26.16818,0,0,1-3.88456-1.49072c-2.33893-1.33612-4.86192-2.99093-5.82117-5.131a38.78556,38.78556,0,0,0-3.88726-5.59894c-.413-.52952-.77049-.98933-1.01416-1.32141-1.01282-1.37625-2.8972-3.28609-3.80158-3.28609a.30262.30262,0,0,0-.25973.11645c-.71623.86487.08572,3.11342,1.68357,4.72132.36151.36355.79459.73306,1.21163,1.08918,1.1467.98066,2.23114,1.90575,2.2519,2.93936a1.67658,1.67658,0,0,1-.60649,1.27451,2.427,2.427,0,0,1-1.67352.46463c-3.43942,0-10.66167-2.8865-13.44709-4.45959m88.60624-8.72445a2.28229,2.28229,0,0,1-1.76655-.77515,2.02124,2.02124,0,0,1-.22157-1.71438,25.88655,25.88655,0,0,1,2.64282-6.42965,12.57677,12.57677,0,0,1,8.49545-5.86869c5.17721-1.14874,8.28928-2.53643,9.03366-3.14226.66876-.54218,2.97622-.583,3.6677-.583.30994,0,.61788.00736.92113.01945.71357.02877,1.40308.08768,2.05039.17806a12.02,12.02,0,0,1,2.61737.61654,17.42034,17.42034,0,0,1,5.51126,3.8437c.05556.05426.09372.09038.10978.10378a5.8368,5.8368,0,0,1,2.44667,4.28823,9.28221,9.28221,0,0,1,.05757,1.49947,13.90432,13.90432,0,0,1-.6192,3.42337c-2.02228,6.70814-9.75529,11.06869-13.47115,13.16794l-.17475.09708c-2.78537,1.57171-10.00762,4.45959-13.44639,4.45959a2.42039,2.42039,0,0,1-1.67286-.46463,1.67473,1.67473,0,0,1-.60849-1.27451c.0221-1.03361,1.10519-1.9587,2.25189-2.93936.41773-.35612.85082-.72563,1.21229-1.08918,1.59924-1.6079,2.40184-3.85645,1.68492-4.72132a.30754.30754,0,0,0-.26108-.11645c-.90438,0-2.78877,1.90984-3.80154,3.28609-.24637.33208-.60049.79189-1.01282,1.32141a39.01751,39.01751,0,0,0-3.88861,5.59894c-.95925,2.14011-3.48228,3.79492-5.82051,5.131a25.85357,25.85357,0,0,1-3.88391,1.49072c-4.06932,1.367-10.21652,3.42942-13.33329,7.24771-4.66041,5.71612-6.43366,7.61452-7.745,7.61452-.04421,0-.08838-.002-.13124-.006a.82321.82321,0,0,1-.58438-.32539c-.47795-.62724-.24968-2.039.09973-4.17979.16-.97936.33875-2.09117.46525-3.24932.43913-4.03581,1.31136-9.70437,3.81833-12.28558.51006-.52421.95725-1.00216,1.36692-1.44129a13.32055,13.32055,0,0,1,4.41874-3.60338c5.48781-2.45137,11.88134-5.61774,13.36141-7.152a3.65467,3.65467,0,0,1,2.40854-.74573l.12384.0027c.154.00269.34406.00539.56163.00539,3.8558,0,5.53332-.54357,5.538-.8227a.50589.50589,0,0,0-.06962-.32c-.12184-.12249-.56633-.12249-.8053-.12249l-.6567.00466c-.21087,0-.53283-.002-.89033-.02811M121.2473,64.604a44.63858,44.63858,0,0,1-8.43923-2.67167c-1.50551-.64465-2.96817-1.15471-4.38-1.64541-2.81953-.9827-5.25349-1.83017-6.46781-3.29278a2.78874,2.78874,0,0,1-.29389-.43448,1.96871,1.96871,0,0,1-.249-1.05028,1.92823,1.92823,0,0,1,.08233-.4813c.47795-1.56239,2.76062-2.68769,3.78749-2.98962.11313-.03277.24367-.07289.38761-.11914a15.80771,15.80771,0,0,1,4.58343-.84608h.05222a8.54026,8.54026,0,0,1,2.03233.23558,7.0443,7.0443,0,0,1,1.45661.52282c2.99628,1.47871,4.90542,2.88854,6.40959,6.10034.19346.41372.39963.83406.60383,1.25375,1.23839,2.55719,1.97207,4.16444,1.45727,4.98445a.99309.99309,0,0,1-.911.44118h-.05757l-.05422-.00736m58.42864-.43382c-.51276-.82.21957-2.42726,1.46-4.98445.20286-.41764.405-.84.60049-1.25375,1.50616-3.2118,3.41466-4.62163,6.41159-6.10165a7.08868,7.08868,0,0,1,1.28591-.48,8.62071,8.62071,0,0,1,1.99617-.27449c.07032,0,.13724-.00261.20621-.00261a15.66523,15.66523,0,0,1,4.63295.84608c.14729.04625.27713.08637.39027.11914,1.03022.30193,3.31023,1.42919,3.78887,2.98962a1.95869,1.95869,0,0,1,.08033.6319,2.06428,2.06428,0,0,1-.3173,1.01482,2.97909,2.97909,0,0,1-.22427.31934c-1.21428,1.46261-3.64959,2.31008-6.46781,3.29278-1.41245.4907-2.87379,1.00076-4.38,1.64541a44.62059,44.62059,0,0,1-8.43989,2.67167l-.05356.00736h-.05822a.99443.99443,0,0,1-.91174-.44118m-46.783-.22358-.34806-.20886c-.24637-.1479-.54692-.3146-.88967-.50075a19.57991,19.57991,0,0,1-9.65086-10.14082,7.12641,7.12641,0,0,1-.37352-5.14305,5.63907,5.63907,0,0,1,.23027-.55427,5.87344,5.87344,0,0,1,.42374-.72032,8.36074,8.36074,0,0,1,2.89855-2.51968q.81032-.20874,1.62665-.40432,1.40572-.33831,2.82088-.63321a103.57487,103.57487,0,0,1,43.23307.172c.86021.18811,1.71368.38561,2.56719.59513.51076.12453,1.01417.25568,1.52088.38823a8.21741,8.21741,0,0,1,2.77071,2.49761,5.40436,5.40436,0,0,1,.38692.67407,5.18869,5.18869,0,0,1,.24028.59978,7.16881,7.16881,0,0,1-.407,5.048A19.58044,19.58044,0,0,1,170.29148,63.237c-.34071.18615-.64126.35285-.88894.50075l-.3461.20886c-1.79466,1.08444-2.62272,1.5798-3.71255,1.48877a.76338.76338,0,0,1-.58974-.35211c-.38557-.58508-.21687-1.90919.53017-4.167a2.958,2.958,0,0,0,.20016-1.79675c-.01675-.02672-.02676-.03211-.05022-.03407-.43443.12714-2.1073,2.79808-2.57855,4.35377a46.19175,46.19175,0,0,1-3.8531,6.40759c-.78859,1.19622-1.533,2.32421-1.97746,3.0652-.02542.04086-2.52234,4.15169-3.15694,4.15439a.09991.09991,0,0,0-.05687-.0107.12237.12237,0,0,1-.0355-.002c-.67877-.16931-.83207-1.557-.53417-10.41464.05421-1.61591.10173-3.01169.10173-3.90867,0-2.61406,1.69628-5.7435,2.93471-8.02751.40232-.73976.74773-1.379.98066-1.89243.26043-.575.61319-1.19762.98875-1.85493.85748-1.51557,1.92655-3.402,1.15537-3.87925-.83542-.51881-2.40851,1.638-3.12278,2.9307-3.19979,5.4128-4.8298,5.82921-5.305,5.793-.474.03817-2.10665-.38218-5.3024-5.7823-.72028-1.30336-2.29071-3.45753-3.12813-2.94141-.77118.47729.2992,2.36368,1.15537,3.87655.37491.66.72767,1.2826.988,1.85763.231.51341.57838,1.15267.98071,1.89243,1.23908,2.286,2.93536,5.41345,2.93536,8.02751,0,.897.04752,2.29276.10108,3.90671.29854,8.85961.14525,10.24729-.53352,10.4166a.39988.39988,0,0,1-.09307.01275c-.6346,0-3.13082-4.11353-3.15624-4.15439-.44583-.741-1.18887-1.869-1.97676-3.06316a46.55442,46.55442,0,0,1-3.85445-6.40963c-.4686-1.54834-2.12606-4.19713-2.61272-4.35312.00736.004-.00269.01136-.0154.03342a2.936,2.936,0,0,0,.20016,1.79675c.74573,2.25786.91643,3.582.52951,4.167a.76112.76112,0,0,1-.58908.35211c-.085.00735-.168.0107-.24972.0107-.97531,0-1.80737-.498-3.46083-1.49947M75.87547,68.2442a106.0182,106.0182,0,1,0,74.9657-31.05052A105.32566,105.32566,0,0,0,75.87547,68.2442M74.70466,219.34575a107.67717,107.67717,0,1,1,76.13651,31.53516,106.96876,106.96876,0,0,1-76.13651-31.53516m-.735-153.0087A108.71543,108.71543,0,1,0,150.84117,34.4966,107.99824,107.99824,0,0,0,73.96964,66.33705M37.41125,143.20789A113.42992,113.42992,0,1,1,150.84051,256.63846,113.55807,113.55807,0,0,1,37.41125,143.20789m-1.77861,0A115.20888,115.20888,0,1,0,150.84051,27.99936,115.33861,115.33861,0,0,0,35.63264,143.20789M128.24528,12.204c-1.51352,1.39038-3.06455,2.89924-4.67111,4.62563-15.08449,16.21305-38.09871,14.9419-46.459,19.4108C72.7319,38.58332,63.14,49.05223,67.92755,53.52318c5.72814,5.34856,11.00913-13.358,39.66781-22.97676,28.53222-9.57584,43.3797-9.41389,43.3797-9.41389s14.52817-.4853,43.37831,9.41389c28.59245,9.81216,33.93971,28.32532,39.66715,22.97676,4.78894-4.471-4.80435-14.93986-9.187-17.28279-8.36025-4.4689-31.70587-2.8972-46.45962-19.4108-1.48942-1.66682-2.94206-3.16694-4.3525-4.52055A133.26054,133.26054,0,0,1,281.7982,120.34627c-1.54564-1.72647-3.28208-3.5144-5.27159-5.364-16.2124-15.08441-14.94186-38.09867-19.41085-46.45827-2.34358-4.38466-12.81179-13.9766-17.28278-9.189-5.34857,5.72879,13.35806,11.00978,22.9768,39.66785,9.57588,28.53214,9.41454,43.37835,9.41454,43.37835s.48465,14.53014-9.41454,43.379c-9.81155,28.59376-28.32537,33.941-22.9768,39.66841,4.471,4.78833,14.9392-4.805,17.28278-9.187,4.469-8.36025,2.89721-31.70587,19.41085-46.45957,2.12205-1.89579,3.97028-3.73062,5.59158-5.49721A133.27468,133.27468,0,0,1,171.42413,274.57194a79.44386,79.44386,0,0,0,6.94981-6.63721c15.0851-16.2124,38.09871-14.94255,46.459-19.41154,4.38327-2.34293,13.97591-12.81175,9.18762-17.28212-5.72879-5.34784-11.00908,13.35809-39.66715,22.97684-28.53219,9.57649-43.37831,9.41453-43.37831,9.41453s-14.52952.48465-43.3797-9.41453C79.00225,244.4064,73.655,225.89323,67.92755,231.24107c-4.78894,4.47037,4.80435,14.93919,9.187,17.28212,8.36026,4.469,31.70588,2.89794,46.45966,19.41154a76.97667,76.97667,0,0,0,6.66058,6.63313A133.27937,133.27937,0,0,1,19.44431,163.6148a81.10229,81.10229,0,0,0,5.97716,6.16727c16.21309,15.0844,14.94185,38.09867,19.41084,46.45892,2.34358,4.38261,12.81179,13.97529,17.28278,9.18761,5.34791-5.72813-13.35806-11.01043-22.97676-39.66841-9.57657-28.53158-9.41457-43.379-9.41457-43.379s-.48466-14.52752,9.41457-43.37835C48.94984,70.40972,67.463,65.06312,62.11509,59.335c-4.471-4.78824-14.9392,4.80435-17.28278,9.18835-4.469,8.35952-2.8972,31.70449-19.41084,46.45893-2.106,1.88238-3.94213,3.70315-5.55408,5.45635A133.25643,133.25643,0,0,1,128.24528,12.204M150.84051.00605S142.86383.03277,131.22816,9.598A135.33734,135.33734,0,0,0,17.248,123.46165c-9.201,11.33108-8.65007,19.054-8.65007,19.054s.02208,6.2945,6.72087,15.85024c-.33405,9.57053-.43714,17.11748-.43714,17.11748C14.4599,180.86677,3.90534,166.585.53421,162.17825a.29762.29762,0,0,0-.52816.24032A61.11807,61.11807,0,0,0,25.2113,200.16113c1.68622,1.142-10.04317,1.90714-12.42627.25438a.351.351,0,0,0-.5074.45785c1.9299,3.30488,9.44068,10.58943,13.51805,11.79767,4.65775,1.38033,15.48542,10.35311,11.68919,11.388-3.22251.87819-11.78292-3.36984-13.73423-4.777a.22925.22925,0,0,0-.34075.28183c2.758,6.30316,32.34517,17.3377,27.18937,19.33457-4.60689,1.78261-13.587-2.21914-15.38234-3.74867a.12506.12506,0,0,0-.18742.1586,34.36327,34.36327,0,0,0,7.25572,9.62945c5.10154,4.65775,18.70927,3.62218,20.77977,6.98123,1.69227,2.74464-4.22,2.67764-6.43906,2.5625a.29938.29938,0,0,0-.19946.53556c3.38451,2.44932,15.74315,3.15558,20.15387,4.24206,4.81841,1.18618,9.60735,6.55615,23.79881,11.388,11.61892,3.95549,16.73857,16.70105,18.21193,21.1921a.636.636,0,0,0,1.20762-.01136c1.76856-5.131-1.63136-14.87758-2.75931-17.85511a134.24462,134.24462,0,0,0,16.30008,3.15092c6.77376,5.19192,12.13238,6.86741,15.126,7.399-1.543,3.08057-3.81764,6.13981-6.77306,6.13981,0,0,8.0416,3.59742,9.14814,11.82578V304.38c0-.38357.03812-.743.06693-1.10919.02676.3454.06292.68411.06692,1.04292l-.01-1.77321c1.07974-8.26652,9.15816-11.878,9.15816-11.878-2.97083,0-5.289-3.09135-6.86479-6.18671,2.78141-.55959,8.10722-2.27192,14.94991-7.3447a134.79288,134.79288,0,0,0,15.68158-2.97892c-1.19292,3.1837-4.42413,12.6498-2.691,17.67575a.636.636,0,0,0,1.20762.01136c1.47336-4.491,6.59231-17.23661,18.21193-21.1921,14.19146-4.83181,18.97971-10.20178,23.79881-11.388,4.41072-1.08648,16.76867-1.79274,20.15252-4.24206a.29938.29938,0,0,0-.19946-.53556c-2.21774.11514-8.132.18214-6.439-2.5625,2.07114-3.359,15.67888-2.32348,20.78112-6.98123a34.378,34.378,0,0,0,7.25436-9.62945.125.125,0,0,0-.18742-.1586c-1.794,1.52953-10.7748,5.53128-15.38168,3.74867-5.15576-1.99687,24.43141-13.03141,27.18871-19.33457a.22914.22914,0,0,0-.34075-.28183c-1.95131,1.40713-10.511,5.65516-13.73423,4.777-3.79554-1.03492,7.03144-10.0077,11.68989-11.388,4.07737-1.20824,11.58746-8.49279,13.518-11.79767a.35129.35129,0,0,0-.50806-.45785c-2.38379,1.65276-14.1118.88767-12.42626-.25438a61.10359,61.10359,0,0,0,25.20459-37.74256.29677.29677,0,0,0-.52682-.24032c-3.37115,4.40672-13.92638,18.68852-14.34676,13.30515,0,0-.09173-6.70479-.38292-15.48947,8.12528-10.61281,7.61787-17.746,7.61787-17.746s-.00335-7.60177-8.91652-18.797A135.35476,135.35476,0,0,0,171.12558,9.68428C160.36148.4746,152.585,0,151.0982,0c-.17,0-.25769.00605-.25769.00605"/>
    </g>
  </g>
</svg>
