<svg xmlns="http://www.w3.org/2000/svg" viewBox="0 0 275.59539 274.34556">
  <title>tooltip_menagerie</title>
  <g id="Layer_2" data-name="Layer 2">
    <g id="Layer_1-2" data-name="Layer 1">
      <g>
        <path d="M28.54453,74.90124c-.67607-5.64-4.54274-9.68968-7.48735-14.54947,5.6898.4901,11.005,2.9352,16.491.991A127.77357,127.77357,0,0,1,60.61742,38.06627l.2861-.21369c1.00468-5.6104-.34827-10.77619-1.744-16.46007,1.00576.59695,1.529.90241,2.047,1.21569,2.73335,1.65465,5.40936,3.41587,8.221,4.92357a23.172,23.172,0,0,0,4.1638,1.40973c5.46587-2.60631,10.36684-5.15826,15.44138-7.299,4.53709-1.91382,9.23512-3.46889,13.92723-4.97982a4.98313,4.98313,0,0,0,3.18926-2.62864l.01292-.02961a35.82708,35.82708,0,0,0,2.79363-9.43885c.274-1.38067.48794-2.77318.77538-4.427,3.13139,4.63962,5.63973,9.43428,10.55012,12.644a142.22339,142.22339,0,0,1,17.13855-1.00388,148.3709,148.3709,0,0,1,17.14717.99069l-.68414-.06486C158.81479,9.56535,161.27737,4.7454,164.40177,0c.23038.75681.40236,1.2356.52158,1.727.79772,3.28534,1.484,6.60244,2.419,9.84821a25.68832,25.68832,0,0,0,2.01476,4.135,128.87224,128.87224,0,0,1,31.73136,12.92524l-.6287-.33292c5.65373-.95059,9.92437-4.56831,14.76692-7.88648-.54553,2.75272-1.16347,5.1709-1.47109,7.62757-.28824,2.30138-.26779,4.64313-.34342,6.96873l-.00054.05464a3.61659,3.61659,0,0,0,1.49289,2.93061l.0105.00727c11.50609,9.71794,11.50016,9.72548,22.57186,22.31161,5.32377,1.74373,10.62466-.47449,16.45682-1.375-.65723,1.04183-1.06389,1.73-1.512,2.38993a41.70034,41.70034,0,0,0-5.35473,9.6251,4.87254,4.87254,0,0,0-.37679,1.89471,4.93026,4.93026,0,0,0,.71239,2.56056l-.01238-.02234a120.06969,120.06969,0,0,1,11.2835,26.35672l.22042.87227a4.21145,4.21145,0,0,0,2.282,2.76l.02584.01077a33.02981,33.02981,0,0,0,9.12181,2.81731c1.57659.2982,3.16584.53154,5.02369.8397-4.68862,3.42125-9.99461,5.79207-12.7764,10.93148,1.64469,11.15513,1.35348,22.20261.25488,33.179,3.11631,4.82129,7.9473,7.25777,12.75946,10.40694-1.041.2519-1.80186.42577-2.55679.62036-3.36743.86715-6.75368,1.67186-10.08828,2.65045a17.05476,17.05476,0,0,0-3.17849,1.74615A127.3489,127.3489,0,0,1,246.84822,199.887l.32753-.6112c.62709,5.56087,4.41733,9.64448,7.42114,14.4297-.27668.01749-.59991.02773-.92529.02773q-.5874,0-1.16456-.0428l.0514.003c-3.34859-.49333-6.67966-1.13441-10.04171-1.49128a19.10569,19.10569,0,0,0-4.184.4403,129.3353,129.3353,0,0,1-23.31064,23.59189l-.28582.2145c0,2.9909-.21424,5.724.06189,8.40673a76.70023,76.70023,0,0,0,1.68775,8.01378c-5.046-3.20972-9.31156-6.87022-14.97767-7.59769a122.03034,122.03034,0,0,1-28.29637,12.17084l-.883.21827a4.31451,4.31451,0,0,0-2.708,2.39073l-.01075.02772c-1.523,2.86926-2.11406,6.02-2.7982,9.13823-.33131,1.51093-.50409,3.05683-.79206,4.85709-3.2124-4.5928-5.66476-9.54058-10.654-12.65718a140.94,140.94,0,0,1-17.13881,1.0133,146.95544,146.95544,0,0,1-17.09011-.99337l.68064.06487c-4.895,3.06652-7.36247,7.98794-10.62063,12.84342-1.18877-5.759-1.66353-11.31795-5.04306-15.9051a128.42348,128.42348,0,0,1-31.57257-12.88111l.62574.33158c-5.62466,1.02486-9.842,4.53655-14.74352,7.932.23738-1.14787.37572-1.90468.552-2.65233a39.87751,39.87751,0,0,0,1.32092-11.82178,4.06407,4.06407,0,0,0-1.64119-3.21913l-.01077-.0078a122.57984,122.57984,0,0,1-21.18393-20.76678l-.18866-.2449c-.30251-.379-.64-.72989-1.08973-1.23884-5.42631-1.66945-10.73178.52482-16.565,1.39062,1.19873-1.74858,2.21956-3.02212,3.003-4.42809,1.41-2.53014,2.70535-5.12568,3.99316-7.7215a4.17152,4.17152,0,0,0-.28636-4.1681l.00942.0148A122.54341,122.54341,0,0,1,16.737,171.51342l-.21934-.88842a5.94679,5.94679,0,0,0-.56976-.91829l.01076.01508c-4.35945-3.04473-9.89584-3.56255-15.57137-4.55,4.56911-3.39729,9.86085-5.75627,12.75729-10.90484a126.03786,126.03786,0,0,1-1.00037-24.43805,62.58593,62.58593,0,0,1,.63085-7.00775l-.04091.337a4.37314,4.37314,0,0,0,.09205-.90591,4.49286,4.49286,0,0,0-1.6926-3.51733l-.00915-.007c-2.79067-2.24593-5.6836-4.36565-8.55636-6.50823-.69491-.51809-1.47513-.92179-2.56809-1.5949,5.53908-1.30316,11.08892-1.593,15.94225-5.09581a129.503,129.503,0,0,1,12.602-30.63086ZM137.81761,22.71047c-3.77193.25514-7.54279.52589-11.31634.76111a91.40615,91.40615,0,0,0-16.91463,2.84988l.63732-.1456a116.03774,116.03774,0,0,0-62.757,40.56788l-.1857.24384a112.13865,112.13865,0,0,0-19.04592,36.3255l-.21262.80013A109.4796,109.4796,0,0,0,23.11149,136.895a112.54359,112.54359,0,0,0,1.75692,19.856l-.10066-.67849a109.71577,109.71577,0,0,0,8.78378,28.55476l-.28313-.67688A115.46794,115.46794,0,0,0,96.55,243.72434l.7848.26618a108.64743,108.64743,0,0,0,32.37352,7.1111l.3348.01775c2.3369.16956,5.06351.26618,7.81246.26618a114.88967,114.88967,0,0,0,108.99831-78.58114l.2336-.8109a111.5629,111.5629,0,0,0,5.35311-28.06115l.01695-.33292c.12649-1.99752.19862-4.332.19862-6.68317a112.09708,112.09708,0,0,0-12.44861-51.50933l.29552.63058a116.71448,116.71448,0,0,0-27.191-35.0471l-.13483-.11546A109.8504,109.8504,0,0,0,189.69026,35.0837l-.6373-.288A115.5623,115.5623,0,0,0,137.85017,22.711l-.03283-.00027Z" style="fill: #fff"/>
        <path d="M137.81761,22.71047a116.76557,116.76557,0,0,1,51.91088,12.3918l-.67553-.30708a110.4855,110.4855,0,0,1,24.24589,16.1842l-.12166-.105a116.49622,116.49622,0,0,1,27.02175,34.51071l.30412.65212A111.05833,111.05833,0,0,1,252.65615,136.916q0,3.52677-.214,7.00129l.01561-.31786A114.77577,114.77577,0,0,1,158.27675,249.55l-.69329.10227a110.83626,110.83626,0,0,1-19.79007,1.73108q-4.09032,0-8.11041-.28393l.36064.02045a111.39171,111.39171,0,0,1-33.467-7.38967l.75842.26134a115.4875,115.4875,0,0,1-63.77168-59.32852l-.2947-.71132a106.6308,106.6308,0,0,1-8.41-27.22979l-.0907-.64809a111.344,111.344,0,0,1-1.52869-18.65809A114.66786,114.66786,0,0,1,109.43079,26.34889l.79368-.17171a87.07046,87.07046,0,0,1,15.96781-2.68544l.30924-.0191c3.773-.23523,7.54414-.50625,11.31634-.76112ZM210.43606,82.707H69.00342c.58294,3.33136.89972,6.50689,1.71386,9.54947,3.0423,11.36828,9.9564,19.69641,20.23953,25.35176,9.898,5.44354,20.62844,7.70966,31.7475,7.89509,12.52773.20912,25.06515-.12784,37.598-.27559a63.2348,63.2348,0,0,0,19.29109-3.62821,47.90211,47.90211,0,0,0,19.24615-11.551c7.40769-7.47524,10.8268-16.75019,11.59652-27.342ZM106.44071,205.7111q.23738-1.2286.45565-2.35978c1.972-.2075,1.98245,1.88421,3.26327,2.32614h59.32421c2.07665-2.18377,2.07665-2.18377,3.48746-2.02336-.04225.62279-.08478,1.24771-.13565,2.00048h30.555c-1.38012-1.17693-2.37619-2.0266-3.44036-2.93411-.05653-.80767-.12246-1.74912-.19594-2.802-8.572-.80876-16.99242-1.60324-25.474-2.40312,1.00925-3.51168.77511-6.35133-.62279-7.33718-.58267-.08317-1.33168-.18947-2.02147-.2877-3.24793-4.13016-7.79713-5.70057-12.52046-6.96308-.79906-.21369-1.57606-.51136-2.23356-.728V179.078c.397-.5415.73367-1.00037,1.01545-1.3847,0-4.40549.01669-8.68367-.01641-12.96157a13.32215,13.32215,0,0,0-.35445-2.18861l.01938.09151-3.344-.50193c-.85854-4.82669-1.68344-9.46146-2.49085-13.9991.73017-1.57093,2.70212-2.11568,2.90532-4.0198a3.08706,3.08706,0,0,0-.83271-.27129l-.0191-.00269q-14.2841.02289-28.56847.0802a.40887.40887,0,0,0-.24519.147l-.00054.0008a2.16894,2.16894,0,0,0-.19028.43359l-.0043.01588c.96027,1.0456,1.9881,2.16519,3.17983,3.463l-2.60738,14.254-3.4331.43331v15.22124c.28071.38675.67069.92341,1.05152,1.44821l-.15906,2.98444c-5.61525,1.487-11.24018,2.75891-14.958,7.64507-.7116.05625-1.378.10873-2.0029.158-1.22834,2.31834-1.36613,3.98455-.583,7.42572-8.45758.78668-16.89122,1.57067-25.453,2.367V202.594c-1.332,1.08678-2.35951,1.92485-3.82118,3.11712Zm12.56057-72.98877c-1.473,3.05846-1.24664,4.93729.693,6.10319a14.50024,14.50024,0,0,0,7.30811,2.49461q12.66581.08129,25.3324-.0043a14.46966,14.46966,0,0,0,7.81138-2.71476c1.52735-1.00227,1.60836-2.584,1.31958-4.153-.25783-1.4-1.46679-2.13532-3.32921-2.21525-.94573-.04037-1.89444-.007-3.052-.007.93552-1.69151,2.98175-1.97249,3.42933-3.78242a3.02809,3.02809,0,0,0-.85746-.31328l-.01991-.0035q-18.03641.04307-36.07252.12273a.35478.35478,0,0,0-.22472.15771l-.00081.00162a1.981,1.981,0,0,0-.12919.44272l-.00161.01212,3.00328,3.1147c-1.97707.28233-3.65675.52213-5.20993.7439Zm93.20946-56.0561c-48.42152-.11385-96.5061-.1456-144.66953.01587v3.04931h3.60426q68.69823,0,137.39615-.00215c.97131,0,1.944-.00808,2.91259-.06675a2.32068,2.32068,0,0,0,.763-.36521l-.00673.00457Z" style="fill: #804334"/>
        <path d="M210.43606,82.707c-.77,10.59183-4.18883,19.86678-11.59652,27.342A47.90386,47.90386,0,0,1,179.59339,121.6a63.23619,63.23619,0,0,1-19.29109,3.62821c-12.53257.14776-25.07025.48471-37.598.27559-11.11906-.1857-21.8495-2.45182-31.7475-7.89509C80.67368,111.95341,73.75959,103.625,70.71728,92.257c-.81413-3.04285-1.1309-6.21838-1.71385-9.54947Z" style="fill: #fff"/>
        <path d="M106.44071,205.7111H75.97026c1.4614-1.19227,2.489-2.03062,3.82119-3.11712v-2.67682c8.56147-.79636,16.99537-1.58036,25.453-2.367-.78319-3.44117-.64539-5.10738.58294-7.42572q.9374-.07388,2.0029-.158c3.71757-4.88616,9.34277-6.15808,14.958-7.64506l.15906-2.98444c-.38109-.52482-.77081-1.0612-1.05152-1.44822V162.66746l3.4331-.4333,2.60738-14.254c-1.19173-1.298-2.21956-2.41737-3.17983-3.463a2.21379,2.21379,0,0,1,.20023-.46023l-.00565.01076a.40842.40842,0,0,1,.2433-.14748l.00242-.00026q14.2841-.05221,28.56847-.0802a3.14956,3.14956,0,0,1,.87011.28233l-.01857-.00835c-.20319,1.90414-2.17514,2.44887-2.90531,4.0198.80714,4.53763,1.63177,9.17241,2.49085,13.9991l3.344.50193a12.60866,12.60866,0,0,1,.33183,2.04974l.00324.0471c.03284,4.27792.01641,8.55581.01641,12.96156-.28152.38432-.61847.8432-1.01545,1.38471v3.12144c.6575.21611,1.43422.514,2.23356.728,4.72333,1.26279,9.27253,2.83292,12.52046,6.96308.68952.098,1.43852.20481,2.02147.28769,1.39762.98585,1.632,3.82549.62279,7.33719,8.48181.80014,16.902,1.59462,25.474,2.40311.07374,1.05259.13968,1.994.19594,2.802,1.06415.90779,2.06024,1.75718,3.44036,2.93411h-30.555c.05113-.75251.09338-1.37744.13565-2.00049-1.41081-.1604-1.41081-.1604-3.48746,2.02337H110.15991c-1.28055-.44193-1.29132-2.53338-3.26327-2.32614q-.21828,1.13009-.45565,2.35978Zm44.48005-33.523c-3.273-2.62273-6.52062-5.22526-9.80837-7.85957H138.582c-2.73845,2.13668-5.41635,4.22033-8.087,6.31312a4.58933,4.58933,0,0,0-2.173,3.3085c.4473,2.114,1.81075,3.03262,3.94391,3.024,4.9591-.01991,9.91847-.01158,14.87783-.00269a3.96261,3.96261,0,0,0,3.92641-2.2699c-.042-.71106-.09284-1.56987-.14882-2.51345Zm14.6835,29.28949c0-.78776-.01508-1.27059.00241-1.7518.12138-3.36178-1.1807-5.79852-4.46334-7.00291-2.50915-.92044-5.00027-1.8896-7.81812-2.9578-.90375,2.69-.37061,5.14022-.4761,7.61358,3.53751.74416,7.1224-.68468,10.56816,1.01221.201,1.41781.3959,2.7939.6766,4.77177.73688-.82194,1.17558-1.31177,1.51012-1.68505Zm-48.04636-3.87178c3.08968-.18086,6.06067.19377,9.09382-.19405-.23576-2.62112.26672-5.01723-.42389-7.62542-2.90343,1.11153-5.609,2.06346-8.2447,3.18092a5.78348,5.78348,0,0,0-3.86425,5.8693c.028.95409.00431,1.90951.00431,2.87867l1.70524.98747c.077-1.40436.14479-2.64211.214-3.90732.56546-.44408,1.08758-.85424,1.515-1.18985Z" style="fill: #fff"/>
        <path d="M119.00128,132.72233c1.55318-.22177,3.23285-.46156,5.20992-.74389l-3.00328-3.11471a2.05723,2.05723,0,0,1,.13592-.468l-.00512.01346a.35153.35153,0,0,1,.22311-.15879l.00243-.00054q18.03611-.07455,36.0725-.12273a3.09347,3.09347,0,0,1,.89326.32485l-.01615-.00808c-.44784,1.80994-2.49381,2.09092-3.42933,3.78243,1.15756,0,2.10625-.03337,3.052.007,1.86215.07993,3.07137.81495,3.3292,2.21525.28879,1.5688.20777,3.15076-1.31957,4.153a14.47168,14.47168,0,0,1-7.81139,2.71477q-12.66554.10229-25.33239.0043a14.497,14.497,0,0,1-7.3081-2.49461c-1.93966-1.16563-2.166-3.04473-.693-6.10319Z" style="fill: #fff"/>
        <path d="M212.21074,76.66623v2.63564a2.29573,2.29573,0,0,1-.73986.35687l-.01641.00377c-.96888.05841-1.94128.06648-2.91259.06675q-68.6982.00377-137.39614.00215H67.54147V76.6821c48.16317-.16121,96.248-.12945,144.66953-.01587Z" style="fill: #fff"/>
        <path d="M150.92076,172.1881c.056.94358.10684,1.80267.14883,2.51345a3.96268,3.96268,0,0,1-3.92642,2.2699c-4.9591-.00889-9.91845-.01723-14.87782.00269-2.13289.00861-3.49661-.90994-3.94391-3.024a4.58966,4.58966,0,0,1,2.173-3.30849c2.67063-2.09306,5.34879-4.17619,8.087-6.31311h2.5304c3.2875,2.63431,6.53543,5.23684,9.80837,7.85957Z" style="fill: #804334"/>
        <path d="M165.60426,201.47759c-.33454.37356-.77377.86311-1.51013,1.68505-.28044-1.97814-.47557-3.354-.6766-4.77177-3.44574-1.69689-7.03063-.26778-10.56814-1.01221.10551-2.47336-.42765-4.92383.4761-7.61358,2.81757,1.0682,5.309,2.03736,7.81812,2.9578,3.28237,1.20437,4.58445,3.64087,4.46334,7.00291-.0175.48175-.00242.96432-.00242,1.7518Z" style="fill: #804334"/>
        <path d="M117.5579,197.60581c-.42765.33561-.94951.74577-1.515,1.18985-.06944,1.26521-.13726,2.5027-.214,3.90731l-1.70524-.98746c0-.96942.02369-1.92485-.00431-2.87867a5.78315,5.78315,0,0,1,3.86425-5.8693c2.63538-1.11745,5.34127-2.06939,8.2447-3.18092.69061,2.60819.18813,5.00457.4239,7.62542-3.03343.38755-6.00415.01319-9.09383.19405Z" style="fill: #804334"/>
      </g>
    </g>
  </g>
</svg>
