<svg xmlns="http://www.w3.org/2000/svg" viewBox="0 0 244.66817 362">
  <title>tooltip_raid</title>
  <g id="Layer_2" data-name="Layer 2">
    <g id="Layer_1-2" data-name="Layer 1">
      <path d="M150.06738,53.73438h7.77735V71.41016h-9.89844V69.99609q-1.41405-2.12109-2.1211-2.12109h-9.89843v1.41406h-2.1211v31.81641a52.832,52.832,0,0,0-11.3125-1.41406,55.50089,55.50089,0,0,0-12.01953,1.41406V69.28906h-1.41406V67.875H99.16113q-.707,0-1.41406,1.41406l-.707,2.1211H87.1416V53.73438H97.04v1.41406q1.41406,1.41407,2.12109,1.41406h14.84766q2.12111-2.82811,2.12109-11.3125a2.88088,2.88088,0,0,1,.707-2.12109v-22.625h-4.94922V4.94922h2.1211a8.70556,8.70556,0,0,0,7.07031-3.53516V.707h.707V0h.707l.707.707h1.41407v.707a6.94463,6.94463,0,0,0,6.36328,3.53516h2.12109V20.50391h-4.94922v22.625a2.88071,2.88071,0,0,1,.707,2.12109q0,8.48438,2.82813,11.3125h14.14062q.70705,0,2.1211-1.41406V53.73438Zm-38.88672,224.1289a34.92039,34.92039,0,0,1,11.3125-3.53515,34.92017,34.92017,0,0,1,11.3125,3.53515v43.83594q0,29.6953-9.89843,39.59375l-1.41407.707-1.41406-.707q-9.89843-9.89846-9.89844-39.59375Zm60.09766-61.51172q2.12109,0,2.12109,7.77735,0,2.12109-.35351,14.14062t-.35352,15.55469q-.707,19.79686-6.36328,24.74609-8.48437,7.77736-15.55469,2.82813-18.38279-12.01955-28.28125-12.72656-10.60545.707-26.86718,12.01953H94.21191v-.707a1.15481,1.15481,0,0,0-1.41406-.35352q-.707.35352-.707-.35352a1.76758,1.76758,0,0,0-2.82813,0l-1.41406-1.41406a16.36391,16.36391,0,0,0,3.53516-2.12109l1.41406-1.41406a1.24987,1.24987,0,0,0-1.41406-1.41407H89.96973A27.43458,27.43458,0,0,1,93.50488,271.5a8.22493,8.22493,0,0,1,2.1211-1.41406,2.037,2.037,0,0,1,1.41406-.707l.35351-.35352,1.06055-.35351,2.12109-1.41407q1.41408-.707,1.41407-1.41406l1.41406-.707q2.82813-2.12109,3.88867-2.82813t.35352-1.41406a3.00492,3.00492,0,0,0-2.82813,0q-3.53515,2.12109-4.94922,2.1211l-.707.707a7.67416,7.67416,0,0,1-2.82812,1.41406q-.707.707-7.77735,4.24219-2.12108,1.41406-3.53515.707A6.87245,6.87245,0,0,0,81.48535,271.5q0-.707-1.41406-.707a12.40207,12.40207,0,0,1-3.53516,1.41406h-.707l-.707-1.41406a1.44035,1.44035,0,0,0,1.06055-.35352l.35351-.35351h.707l.707-.707a2.03709,2.03709,0,0,0,1.41407-.707,2.03706,2.03706,0,0,1,1.41406-.707v-.707a5.53958,5.53958,0,0,1-1.41406,1.06055l-.707.35352a3.13764,3.13764,0,0,0-1.41407.35351l-.707.35352a37.72365,37.72365,0,0,1-4.24219-15.55469q0-2.82811-.707-20.50391l1.76758-1.76758s.94272-.82486,2.82813-2.4746,2.71029-2.35678,2.47461-2.1211v4.94922q0,22.625,2.12109,24.74609.707,1.41408,3.53516,1.06055t3.53515-3.88867q0-3.53517,4.94922-8.13086a40.86536,40.86536,0,0,1,9.19141-6.7168q14.14063-4.94921,20.5039-4.94922t20.50391,4.94922a35.07783,35.07783,0,0,1,8.83789,6.7168q4.59572,4.59571,5.30273,8.13086t3.18165,3.88867a4.3243,4.3243,0,0,0,3.88867-1.06055q2.12109-2.12109,2.12109-24.74609a43.81452,43.81452,0,0,1,1.06055-10.959q1.06055-3.88868,2.47461-3.88868ZM72.29394,236.85547a2.88084,2.88084,0,0,1,2.1211-.707l1.41406-.707h.707A19.69054,19.69054,0,0,1,72.29394,236.85547Zm5.65625,2.12109v.707H76.53613ZM52.49707,205.74609l.707-.707h.707l1.41406-1.41406.707.707v-1.06055l.707-.35351a11.63174,11.63174,0,0,0-.707,3.53516q-.707,2.8281,2.47461,7.77734t3.18164,5.65625q-.707,2.12109-2.1211,2.12109a20.25659,20.25659,0,0,1-11.3125-9.1914l1.41406-1.41407q-.707-.707-.707,0l-.707.707-.707-.707q1.41407,0,.707-1.41406v-2.12109h.707q.707.707.707,0l.707-.707h.707v-.707h.707Zm-2.82813,3.53516.707-.707v.707Zm4.94922-52.32031a5.42639,5.42639,0,0,1,2.1211-.707Q55.3252,157.668,54.61816,156.96094Zm6.36328,27.57422a2.03706,2.03706,0,0,0-1.41406.707l-.707.707a4.62448,4.62448,0,0,1-2.12109,2.12109A18.3916,18.3916,0,0,1,51.79,190.89844q4.24218-3.53517,4.94922-4.24219.707,0,1.41406-1.41406l.707-.35352,1.41406-.35351.707-1.41407h.707A2.037,2.037,0,0,1,60.98144,184.53516Zm8.48438-45.25q.707,0,.707,1.41406l-1.41406-.707Zm-3.53516,56.5625a2.26482,2.26482,0,0,1,2.1211-1.41407A8.22482,8.22482,0,0,1,65.93066,195.84766ZM76.53613,181.707a.62493.62493,0,0,1,.707.707h-.707l-.707.707-.707-.707ZM74.415,180.293q0-1.41407,2.12109-1.41406Q75.12208,180.293,74.415,180.293Zm3.53515-.707q.707,0,.707,1.41406Zm-1.41406,3.53515h2.1211l-1.41407.707Zm7.07031,18.38282q0,.707-1.41406,2.12109v.707H80.77832a1.39738,1.39738,0,0,0,.707-2.12109q-.707-1.41408,0-2.1211l.707-.707a2.88087,2.88087,0,0,0-2.12109.707H77.24316a5.42683,5.42683,0,0,1,2.1211-.707,2.8808,2.8808,0,0,0,2.12109-.707h1.41406l-.707,1.41406-.707,1.41407Q82.89943,200.79688,83.60644,201.50391Zm.707-12.72657v1.41407a6.2756,6.2756,0,0,1-.707-2.82813Zm-2.1211-2.12109v-.707l1.41406-1.41406Q82.89943,186.65625,82.19238,186.65625Zm2.82813-2.12109a.8838.8838,0,0,1,0-1.41407q0-.707,1.41406,0v2.1211H85.02051Zm0-4.24219q.707-1.41407,1.41406-1.41406Q85.72755,180.293,85.02051,180.293Zm-4.24219-4.94922q-.707-.707.707-1.41406a11.57047,11.57047,0,0,1,2.82813-.707,5.42657,5.42657,0,0,0,2.12109-.707l.707-.707A62.88556,62.88556,0,0,1,80.77832,175.34375Zm0,6.36328q1.41408.707,0,2.1211Q81.48536,183.12111,80.77832,181.707Zm4.94922,14.14063H84.31348q0-.707,1.41406,0a2.03706,2.03706,0,0,1,1.41406-.707A2.03707,2.03707,0,0,1,85.72754,195.84766Zm.707,25.45312a8.22457,8.22457,0,0,0,2.12109-1.41406h.707Q89.26272,220.59375,86.43457,221.30078Zm2.12109,2.1211a.625.625,0,0,1,.707-.707ZM87.84863,181h-.707q-.707-.707,0-.707a4.07409,4.07409,0,0,0,2.82813-1.41406q.707-.707,0-2.1211,1.41407,1.41406,0,2.1211A2.2648,2.2648,0,0,1,88.55566,181Zm.707-5.65625q0-.707,1.41407-.707v.707l-1.41407,1.41406ZM90.67676,226.25v-2.12109a.62494.62494,0,0,1,.707-.707h0a5.81651,5.81651,0,0,0,.35351,1.76757,1.60144,1.60144,0,0,1-.35351,1.76758Zm7.07031-11.3125q0,.707-1.06055,1.06055a4.43758,4.43758,0,0,0-1.76758,1.06054q-.707.707-1.41406-.707l.707-1.41406A21.06529,21.06529,0,0,0,97.04,212.81641v.707a.62494.62494,0,0,0,.707.707h1.41406Zm-4.24219-38.88672h1.41406q0,.707-1.41406,1.41406A.8838.8838,0,0,1,93.50488,176.05078Zm-24.74609-.707h1.41406A.88378.88378,0,0,1,68.75879,175.34375Zm21.21094,97.57031-1.41407.707A2.037,2.037,0,0,0,89.96973,272.91406Zm-13.4336-45.957-1.41406.707a27.43381,27.43381,0,0,0-3.53516,1.41407A10.67415,10.67415,0,0,1,75.8291,225.543l1.41406-1.41406a43.34772,43.34772,0,0,0-5.65625,3.53515v-3.53515q0-7.77737,2.1211-7.77735,3.53517,0,4.94922,9.19141Q77.95021,225.543,76.53613,226.957Zm123.02344-20.5039a27.63255,27.63255,0,0,1-2.12109,5.65625,14.05968,14.05968,0,0,1-3.53516,4.5957,31.64518,31.64518,0,0,1-3.88867,2.82812q-1.76757,1.06055-3.18164,1.76758l-1.41407.707-1.41406-.707a2.03708,2.03708,0,0,1-.707-1.41406q0-.707,3.18164-5.65625t3.18164-7.77734a10.36773,10.36773,0,0,0-4.24219-7.42383q-3.53513-2.47463-11.3125,1.06054-12.0195,7.07031-12.72656,18.38282V225.543s-.11783,2.47461-.35351,7.42383-.82487,6.00976-1.76758,3.18164l-1.41406.35351h-1.76758q-1.76757,0-1.41406-1.06054t-1.76758-2.82813q-2.1211-1.76757-.707-5.65625-2.82811-17.67578-29.69532-17.67578T92.79785,226.957a18.39125,18.39125,0,0,1-.707,5.65625,5.31552,5.31552,0,0,1-1.76758,2.82813,10.53166,10.53166,0,0,0-1.41406,1.06054q-.35351.35353-1.76758,0l-1.41406-.35351q-2.12108,0-2.1211-10.60547v-2.82813l2.1211-2.12109q3.53517-1.41408,3.53515-3.53516l-3.53515,2.82813-.707.707-1.41407.707v-2.82812a17.84,17.84,0,0,0-4.24218-12.01953l-.707-.707a36.92769,36.92769,0,0,0-7.77735-5.65625l-3.53515-2.12109.707-.707-1.41407.707H64.5166l1.41406-1.41406-2.12109,1.41406a6.94461,6.94461,0,0,0-6.36328,3.53516l-.707,1.41406a2.03706,2.03706,0,0,0-1.41407-.707q-1.41405.707-1.41406,1.41406l-.707,1.41406H51.79a.62493.62493,0,0,1-.707.707h-.707l-.707.707.707.707-1.41407.707q-.707-.707-1.06054-.707h-.35352l.707-1.41407.707-.707L51.79,203.625a.62493.62493,0,0,0,.707.707V202.918l1.41406-1.41406,1.41406-.707,2.82813-2.82813q1.41405-1.41408,1.41406-2.12109l-1.41406.707q-.707,0-1.41406,1.41406l-2.82813,2.12109a9.40232,9.40232,0,0,1-5.65625,2.1211,2.88087,2.88087,0,0,1-2.12109-.707v-2.1211l.707-.707,1.41406-2.12109q0-1.41408-.707,0l-.707.707q-.707,0-.707-2.12109l2.12109-1.41407a2.03708,2.03708,0,0,0-1.41406.707L50.376,181.707Q51.79,178.17188,51.79,165.79883t.707-14.49414l9.89844-4.94922,2.82812-2.82813,2.82813-1.41406v-1.41406h-.707l-4.94922,3.53516-2.82813,1.41406-4.24219,2.82812-2.82812,1.41407a10.79638,10.79638,0,0,1,4.5957-4.59571,22.51588,22.51588,0,0,0,3.88867-2.47461l4.24219-4.24218v-.707a2.037,2.037,0,0,0,1.41406-.707H63.80957q21.211-31.10937,58.68359-31.10937a77.98867,77.98867,0,0,1,16.61524,1.76758,55.24839,55.24839,0,0,1,14.14062,4.94921,91.44326,91.44326,0,0,1,11.3125,7.07032,59.302,59.302,0,0,1,8.83789,7.77734q3.53517,3.88867,6.00977,7.07031a34.007,34.007,0,0,1,3.53516,5.30274,8.53515,8.53515,0,0,1,1.06054,2.82812q0,.707,3.88867,2.82813a8.29389,8.29389,0,0,1,4.59571,5.65625q.70706,2.82813.707,14.49414t1.41406,15.9082q0,2.12109,2.12109,7.42383a49.11987,49.11987,0,0,1,2.82813,9.19141A23.54132,23.54132,0,0,1,199.55957,206.45313Zm-27.57422-60.80469a38.54426,38.54426,0,0,0-4.5957-1.76758q-3.18165-1.06055-6.7168-2.12109t-7.07031-1.76758q-3.53514-.707-6.7168-1.06055t-4.5957-.35351q-2.82811,0-3.18164,1.41406a34.26205,34.26205,0,0,0-.35352,6.36328v5.65625q.70705,11.31251,7.07031,14.84766,2.12111,1.41405,13.78711,3.18164a129.19792,129.19792,0,0,0,15.90821,1.76757q5.65626-.707,5.65625-8.48437Q183.29785,152.71875,171.98535,145.64844Zm-36.05859,29.69531q0-6.36328-4.24219-15.55469t-9.19141-9.1914q-2.12108,0-4.5957,2.82812a37.23278,37.23278,0,0,0-4.5957,6.7168,34.28125,34.28125,0,0,0-3.18164,8.13086,30.20736,30.20736,0,0,0-1.06055,7.07031q0,7.07032,2.12109,10.60547t9.19141,0h4.24219q6.36327,4.24218,8.83789.35351T135.92676,175.34375Zm-33.23047-36.76562q-4.24218,0-15.20117,2.4746T73.001,145.64844q-11.31249,7.07031-9.19141,17.67578,0,8.48438,5.65625,8.48437l12.72656-1.41406-2.82812,2.1211a5.42648,5.42648,0,0,0-2.1211.707q-1.41405.707-1.41406,1.41406a2.88077,2.88077,0,0,0-2.12109.707l-1.41407.707h-.707l-2.12109,1.41406a.88379.88379,0,0,0-1.41406,0l-1.41407,1.41407L65.22363,181v-.707l-2.12109,2.12109h-.707a.88379.88379,0,0,0,1.41406,0L65.22363,181l2.82813-1.41406a.62493.62493,0,0,1,.707-.707h.707q.707,0,.707-1.41407l4.94922-2.12109,4.24219-2.12109.707-.707,4.24219-2.1211q12.72657-2.12109,14.84765-3.53515,6.3633-3.53515,7.07031-14.84766V141.75977l-.707-2.47461Q104.8174,136.81055,102.69629,138.57813Zm-22.625,161.20312,19.08984,3.53516V316.043l-21.21094-3.53516-2.12109-.707a11.393,11.393,0,0,1-4.94922,1.41406q-4.9492.707-7.77734-2.12109L44.01269,296.24609a10.15437,10.15437,0,0,1-3.53515-10.60546L27.751,267.96484l-.707-2.12109q-6.36327-.707-8.48437-5.65625L7.24707,238.97656q-2.82813-5.65626,1.41406-11.3125L4.41894,206.45313V202.918l-2.82812-2.82813a12.58459,12.58459,0,0,1-1.41406-8.48437l4.94922-23.332a10.70094,10.70094,0,0,1,7.07031-7.77735V159.082l8.48437-20.5039q-2.82812-6.36328.707-11.3125l14.14063-19.08985a10.7066,10.7066,0,0,1,8.48437-4.24219l4.24219.707,2.1211-1.41407,18.38281-8.48437q1.41406-7.07031,7.77734-9.19141l22.625-6.36328v4.94922L77.95019,90.5A8.87478,8.87478,0,0,0,74.415,92.62109q4.2422,0,5.65625,4.24219a5.06427,5.06427,0,0,1-.707,5.65625h2.12109l17.67578-5.65625v4.94922l-16.26172,4.94922-2.82812.707a12.55064,12.55064,0,0,1-5.65625-1.41406l-19.08985,8.48437a11.45282,11.45282,0,0,1-2.12109,7.07032L39.06348,140.69922a11.64557,11.64557,0,0,1-7.77735,4.24219l-7.07031,18.38281q3.53516,4.94922,2.82812,9.89844l-4.94921,23.332a13.628,13.628,0,0,1-5.65625,7.07031l4.24218,19.79688q4.94922,1.41406,6.36328,5.65625l11.3125,21.21093a9.01462,9.01462,0,0,1,0,8.48438l-.707,1.41406,12.01953,16.26172a13.16,13.16,0,0,1,8.48438,2.82812L76.53613,293.418A9.51913,9.51913,0,0,1,80.07129,299.78125Zm-4.24219.707a4.55488,4.55488,0,0,0-2.12109-2.82812L55.32519,282.8125l-2.82812-1.41406a5.93669,5.93669,0,0,1-2.12109,7.07031,8.71279,8.71279,0,0,1-4.94922,1.41406,11.0789,11.0789,0,0,0,2.12109,2.82813l18.38281,14.84765a7.60264,7.60264,0,0,0,4.24219,1.41407l2.82813-1.41407v-2.82812A4.52968,4.52968,0,0,1,75.8291,300.48828ZM34.11426,252.41016,23.50879,231.19922l-2.1211-2.12109q-.707,4.94921-4.94921,5.65625a8.71278,8.71278,0,0,1-4.94922-1.41407,4.5549,4.5549,0,0,0,0,3.53516l11.3125,21.21094q.707,2.82811,4.24218,3.53515a4.55492,4.55492,0,0,1,2.1211-2.82812,5.9479,5.9479,0,0,1,4.94922-.707A6.00981,6.00981,0,0,0,34.11426,252.41016ZM9.36816,198.67578a5.948,5.948,0,0,1,4.94922.707,6.86409,6.86409,0,0,0,2.82812-4.24218l4.94922-22.625a7.97842,7.97842,0,0,0-.707-5.65625,7.97843,7.97843,0,0,1-5.65625.707,4.6245,4.6245,0,0,1-2.12109-2.1211,6.32869,6.32869,0,0,0-3.53516,4.24219l-5.65625,23.332a5.70835,5.70835,0,0,0,2.82812,6.36328Zm14.84765-65.04687a5.94791,5.94791,0,0,1,4.94922-.707q4.24219,2.12109,4.2422,6.36328l2.12109-1.41407,14.14062-19.08984a4.79637,4.79637,0,0,0,1.41407-3.53516,6.32865,6.32865,0,0,1-4.24219-3.53515l-.707-2.82813h-2.1211a4.75835,4.75835,0,0,0-4.24218,2.1211L24.92285,130.09375a7.87022,7.87022,0,0,0-.707,3.53516Zm219.1797,67.168a12.62362,12.62362,0,0,1-3.53516,3.53515,4.55482,4.55482,0,0,1,0,3.53516l-4.94922,21.21094a10.90569,10.90569,0,0,1,.707,11.3125l-12.01953,21.21093a10.83422,10.83422,0,0,1-8.48437,5.65625l-.707.707-12.72657,18.38282a10.15436,10.15436,0,0,1-3.53515,10.60547l-18.38282,14.84765a7.06956,7.06956,0,0,1-6.00976,2.82813,14.861,14.861,0,0,1-6.7168-1.41407l-2.12109.707L145.11816,317.457V304.73047l16.96875-3.53516a27.66812,27.66812,0,0,1,3.53516-6.36328l18.38281-14.84765a15.54831,15.54831,0,0,1,6.36328-2.82813h2.1211l11.3125-16.26172q-1.41405-6.36328.707-10.60547l11.3125-20.5039a8.80584,8.80584,0,0,1,7.07031-4.94922l4.94922-19.79688q-4.2422-4.24218-4.94922-7.77734l-5.65625-22.625a13.60008,13.60008,0,0,1,1.41406-8.48438l1.41407-1.41406-7.77735-18.38281a11.64559,11.64559,0,0,1-7.77734-4.24219l-14.84766-19.08984a9.482,9.482,0,0,1-2.12109-7.77735l-14.84766-7.77734-3.53515,1.41406a15.66766,15.66766,0,0,1-4.94922-.707l-19.08985-7.77734V95.44922l20.50391,8.48437h2.12109a4.72575,4.72575,0,0,1-.707-6.36328q2.12109-4.24218,6.36328-3.53515a11.07857,11.07857,0,0,0-2.82812-2.1211l-21.918-9.1914h-2.82813l-.707-4.94922a15.66785,15.66785,0,0,1,4.94922.707l21.918,9.19141q6.36328,2.12109,7.07031,8.48437l17.67578,9.19141a11.55625,11.55625,0,0,1,10.60547,4.24218l14.14063,18.38282q4.24218,4.94922,1.41406,11.3125l8.48438,20.5039.707,2.1211a9.08232,9.08232,0,0,1,7.07031,7.07031l4.94922,23.332A10.72506,10.72506,0,0,1,243.39551,200.79688Zm-3.53516-7.07032-5.65625-23.332a6.32864,6.32864,0,0,0-3.53516-4.24219l-2.82812,2.1211a8.79537,8.79537,0,0,1-4.94922,0,8.713,8.713,0,0,0-1.41406,4.94922l5.65625,23.332a6.32882,6.32882,0,0,0,3.53515,4.24219,4.67527,4.67527,0,0,1,4.24219-.707l1.41406.707Q241.27444,198.67578,239.86035,193.72656ZM232.083,234.73438a5.948,5.948,0,0,1-4.94922.707q-4.94921-.707-4.94922-5.65625l-2.12109,2.12109L208.751,253.11719a5.948,5.948,0,0,0-.707,4.94922,8.71272,8.71272,0,0,1,4.94922,1.41406,4.55488,4.55488,0,0,1,2.1211,2.82812,8.8986,8.8986,0,0,0,4.94922-3.53515l11.3125-20.50391A7.8701,7.8701,0,0,0,232.083,234.73438Zm-34.64453,55.14843a7.97833,7.97833,0,0,1-5.65625-.707q-3.53514-2.12109-2.1211-7.07031l-2.82812,1.41406-17.67578,14.84766a4.15473,4.15473,0,0,0-2.1211,3.53515,6.86409,6.86409,0,0,1,2.82813,4.24219v2.82813q2.12109,1.41406,3.53515.707a4.79635,4.79635,0,0,0,3.53516-1.41406L195.31738,293.418A8.87442,8.87442,0,0,0,197.43848,289.88281Zm21.918-155.54687a4.79636,4.79636,0,0,0-1.41406-3.53516L203.09473,112.418q-.707-1.41406-3.53516-2.12109a6.53981,6.53981,0,0,1,0,4.24218,6.42379,6.42379,0,0,1-7.77734,2.82813l1.41406,2.82812,14.84765,19.08985,2.1211,1.41406q0-4.24219,4.24219-6.36328A8.79534,8.79534,0,0,1,219.35644,134.33594Z"/>
    </g>
  </g>
</svg>
