<svg xmlns="http://www.w3.org/2000/svg" viewBox="0 0 240.33808 275.91782">
  <title>tooltip_raid</title>
  <g id="Layer_2" data-name="Layer 2">
    <g id="Layer_1-2" data-name="Layer 1">
      <path d="M194.85417,171.70851q3.76789,0,3.7679,12.91851,0,2.69136-.80741,21.53085T196.469,230.91834a99.93537,99.93537,0,0,1-2.69135,22.06912q-2.69136,11.842-6.45926,16.14813-12.91851,11.3037-24.76047,3.7679l-5.921-4.037s-2.78107-1.79423-8.34321-5.38271-8.16377-4.93415-7.80493-4.037-3.13992-.44855-10.49629-4.037-11.03456-4.21645-11.03456-1.88395a31.62213,31.62213,0,0,0-5.65184.53827,36.32842,36.32842,0,0,0-5.921,1.61481q-2.96049,1.07657-5.11357,1.884T97.158,259.71585a46.711,46.711,0,0,0-4.30617,2.15308q-1.34568.80744-4.30617,2.69136t-4.037,2.42222q-1.07655.53829-4.037,2.42222T77.51105,271.827H74.8197a.86213.86213,0,0,1,.53827-.80741q.53827-.26912,0-.26913H73.20488l-1.61481-1.07654q-2.15309-2.15309-3.7679.53827l-1.07654.53827A1.272,1.272,0,0,1,65.4,269.67387a1.60561,1.60561,0,0,1,.26914-1.61482.86211.86211,0,0,1,.53827-.8074.8621.8621,0,0,0,.53827-.80741,17.03545,17.03545,0,0,1,3.7679-1.61482l2.15308-2.15308a1.77588,1.77588,0,0,0,0-1.88395,2.42221,2.42221,0,0,0-2.15308-.80741l-.80741.26914-1.34568.26914,5.38271-2.69136.53827-.53827,2.69136-1.34568,2.15308-1.34568a1.5507,1.5507,0,0,0,1.07655-.53827,1.55092,1.55092,0,0,1,1.07654-.53827,9.05624,9.05624,0,0,1,2.15308-1.34568,9.05418,9.05418,0,0,0,2.15309-1.34568l1.61481-1.07654a5.54887,5.54887,0,0,1,2.15309-1.07654q0-1.07652-.53827-.53827a17.5953,17.5953,0,0,0,1.88395-1.07654,8.81978,8.81978,0,0,0,1.34567-1.07655,8.82171,8.82171,0,0,1,1.34568-1.07654,8.81928,8.81928,0,0,0,1.34568-1.07654,2.18154,2.18154,0,0,0,1.07654-2.69136,6.46547,6.46547,0,0,0-4.30617.53827q-5.921,2.69137-7.53579,3.22963a6.26235,6.26235,0,0,0-1.61482,1.07654,11.6847,11.6847,0,0,1-4.30617,2.15309,1.55068,1.55068,0,0,1-1.07654.53827q-1.61481,1.07655-10.22715,5.921a14.33194,14.33194,0,0,1-6.45926,1.61482,8.12735,8.12735,0,0,0-4.84444,2.15308,1.50452,1.50452,0,0,0-2.15308-1.07654q-4.30617,1.61484-5.38271,2.15308H46.29132l-1.07654-2.15308a8.43374,8.43374,0,0,0,2.15308-1.61482q0-.53826.26914-.53827h.80741l1.07654-.53827a2.61577,2.61577,0,0,0,1.34568-.53827,6.79346,6.79346,0,0,1,1.61481-.80741,3.37787,3.37787,0,0,0,1.34568-.8074l.53827-1.07654q-1.07653.53828-2.42222,1.07654l-1.34568.53827a3.69951,3.69951,0,0,1-1.88395.80741,3.69977,3.69977,0,0,0-1.88395.8074q-4.84443-9.68886-5.38271-23.68393,0-4.30615-1.61481-32.83454l3.22963-2.15309q1.07653-1.07652,3.76789-3.49876t3.7679-3.49876a36.90293,36.90293,0,0,1,.53827,6.99752q-.53826,35.52592,2.69136,38.75553,1.61481,2.1531,5.921,1.88395t4.84444-5.65185q1.07654-5.921,8.34321-13.18764t14.80245-9.958q1.61482-.53826,4.57531-1.88395a36.7553,36.7553,0,0,1,4.84444-1.88395q1.88394-.53826,4.5753-1.34568t5.11358-1.34568a42.6791,42.6791,0,0,1,5.65185-.8074q3.22962-.26912,6.45925-.26914a63.821,63.821,0,0,1,9.958.80741,69.75554,69.75554,0,0,1,6.99753,1.34568q1.884.53829,7.80493,2.69135t6.99752,2.69136q6.99752,2.69136,14.26419,9.958t8.3432,13.18764q1.07655,4.30618,4.84444,5.11358t5.921-1.34568q3.76788-3.2296,3.22962-38.75553a46.14491,46.14491,0,0,1,.26914-11.30369,31.81331,31.81331,0,0,1,1.88395-7.26666,12.421,12.421,0,0,1,2.42222-3.7679q1.34566-1.34566,1.88395-1.34568ZM40.90861,204.54305q0-.53826,2.69136-2.69135.53826,0,.26913.26913t.26914.80741l2.69135-1.61482v.53828Q41.98516,204.54306,40.90861,204.54305Zm9.15061,3.22963-1.61481.53827q-1.07655.53829-1.07655.26914t.53828-.80741q1.07653,0,1.34567-.53827T50.05922,207.77268Zm19.916,29.06664.53828-.53827ZM10.76542,154.48383h0l1.61482.53827q0-.53826.8074-1.07654t.80741-1.07654q.53827-.53826.53827,0a.67285.67285,0,0,0,1.07654,0l.53828-1.61482a14.39893,14.39893,0,0,0-1.07655,5.38272q0,3.76788,4.57531,11.57283t4.5753,9.41974a3.28978,3.28978,0,0,1-.8074,2.42222,2.582,2.582,0,0,1-1.88395.80741h-.53827a40.84672,40.84672,0,0,1-17.76295-13.995q1.07654-1.61481,1.61481-1.07654Q5.921,164.711,5.38271,164.711q-1.07654-1.07655-1.07654,0l-.53827.26914-.53827.80741L2.15308,164.711a.47578.47578,0,0,0,.53828-.53827q1.61481,0,1.07654-1.61481l.53827-1.61481q-1.07653,0-1.07654-1.61482A.47577.47577,0,0,1,3.7679,158.79h.53827q1.61481,1.07655,1.61481-.53827l.53827-.53827q.53828,1.07655,1.07655,0l1.07654-1.61482a1.06385,1.06385,0,0,0,1.61481-.53827ZM5.921,161.48136a.95154.95154,0,0,1,1.07655-1.07655v1.07655Zm8.07407-81.279a8.26239,8.26239,0,0,1,3.22963-1.07654A8.26256,8.26256,0,0,1,13.99505,80.2024Zm8.61234,41.98515a2.32794,2.32794,0,0,1-1.07654,1.88395l-1.07654.80741a35.13693,35.13693,0,0,1-3.7679,3.22962q-3.76791,2.69136-8.07407,5.38272a1.55086,1.55086,0,0,1-1.07654.53827l.53827-1.07654.53827-.53828q6.99753-5.921,8.61234-6.99752.53826,0,2.15308-1.61481l2.15309-1.61482h.53827q1.07655-1.07655,1.07654-1.34568t1.61481-.8074a3.46769,3.46769,0,0,1-1.61481,2.15308ZM36.87158,52.2123q.8074-.53827,1.34567.53827a1.55082,1.55082,0,0,1-.53827,1.07654q-1.61481.53828-1.61481-.53827Q36.06417,52.75056,36.87158,52.2123Zm-5.65185,88.27648a3.45729,3.45729,0,0,1,2.69135-2.69136A4.90407,4.90407,0,0,1,31.21973,140.48878Zm13.99505-21.53086v-1.61481q1.07655-.53827,1.61481,0-.53826.53826-.26913.80741a1.0966,1.0966,0,0,0,.8074.26913,8.85552,8.85552,0,0,1,2.69136-.53827q-.53828,1.07654-1.07654,1.07654a1.81132,1.81132,0,0,0-1.61482.80741q-.53826.8074-1.61481.26914Q45.21478,120.03447,45.21478,118.95792Zm-1.07654-2.69135q.53826-2.15309,3.22962-2.15309A22.88645,22.88645,0,0,0,44.13824,116.26657Zm5.921-1.61482q1.07655.53827.53827,2.15309L49.521,115.7283q-.53827,0,0-1.07655Zm-2.15308,6.99753q-.53828.53826-1.61482,0,0-.53827,1.61482-1.07654l1.07654-.53827a2.19316,2.19316,0,0,1,1.61481-.53827q.53827,0,0,1.61481H48.44441Zm10.76542,27.45184a32.57276,32.57276,0,0,0-2.15309,2.69136,4.13125,4.13125,0,0,0-.53827,1.61481q0,.53826-.8074.80741l-.80741.26913q-.53827,0-.53827-1.07654l.53827-.53827a1.71542,1.71542,0,0,0,.53827-2.69136q-1.07654-1.61481.53827-3.22963a3.52067,3.52067,0,0,0,1.61482-1.61481,16.68807,16.68807,0,0,0-3.7679,1.07654,14.00179,14.00179,0,0,1-4.30617.53827,5.78792,5.78792,0,0,1,3.22963-1.07654,5.78792,5.78792,0,0,0,3.22962-1.07654,2.19325,2.19325,0,0,0,1.61482-.53827q1.07653,0,1.34567.53827a.87917.87917,0,0,1-.26913,1.07654q-1.61481,1.07655-1.61482,1.61482a1.72422,1.72422,0,0,0-1.07654,1.61481,5.23211,5.23211,0,0,1,2.69136-1.07654h.53827Zm0-21.53086.26914.53827.26913,1.07655a1.75835,1.75835,0,0,1,.53827,2.15308,11.96279,11.96279,0,0,0-1.61481-3.7679Zm-2.69136-2.15308,1.07655-.53827a16.0357,16.0357,0,0,1,1.61481-2.15309Q57.595,125.41718,55.9802,125.41718Zm4.30617-1.07654a4.13124,4.13124,0,0,1,.53827-1.61482l-.53827-.26913-.53827-.80741a1.55082,1.55082,0,0,0,.53827-1.07654q0-1.07655,1.07655-.53827,1.07653,0,1.07654.53827v.53827l.53827,1.07654-.53827,1.07654A5.54833,5.54833,0,0,1,60.28637,124.34064Zm.53827-8.61234a1.96165,1.96165,0,0,1,2.69136-1.61482A7.87369,7.87369,0,0,1,60.82464,115.7283Zm-6.99752-6.99753a1.50451,1.50451,0,0,1,1.07654-2.15308,21.20089,21.20089,0,0,0,4.30617-2.15309,12.34134,12.34134,0,0,0,3.7679-1.07654q.53827-.53827,1.61481,0Q60.82465,105.50113,53.82712,108.73077Zm0,9.68888q2.15308.53827,1.07654,2.15309a.47577.47577,0,0,1-.53827.53827A2.68136,2.68136,0,0,0,53.82712,118.41965Zm8.07407,21.53086H60.28637l-1.07654.53827q.53828-1.61481,2.69136-.53827a8.80913,8.80913,0,0,1,2.15308-.53827A4.7775,4.7775,0,0,1,61.90119,139.95051Zm3.22962,1.07654a4.13114,4.13114,0,0,1,.53828-1.61481A4.13131,4.13131,0,0,1,65.13081,141.02705Zm-4.84444,43.6-.53827-1.07654,1.07654.53827Zm1.61482,12.38024.53827-.53828ZM63.516,180.32085l2.15309-2.15309q.53828-.53826,1.61481,0A20.99661,20.99661,0,0,1,63.516,180.32085Zm2.69136,2.69135a1.72422,1.72422,0,0,1,1.61481-1.07654,1.09657,1.09657,0,0,0-.80741.26914Zm.53827-65.66909H63.516a2.3886,2.3886,0,0,1,.26914-1.07654.8621.8621,0,0,1,.8074-.53827q1.61482,0,3.7679-2.15309a2.43843,2.43843,0,0,0,.53827-2.69135q1.07654,1.61481,0,2.69135A4.65584,4.65584,0,0,1,66.74563,117.34311Zm0-9.15061q-.53827-1.07655,1.07654-.53827h.53827q.53828-1.07655,1.07654-.26914t-1.07654,1.34568q0-.53827-2.15308,1.61482a2.38878,2.38878,0,0,1,.26913-1.07655A2.38879,2.38879,0,0,0,66.74563,108.1925Zm3.7679,80.20242H69.437v-4.30617l1.07655-1.07655a7.90213,7.90213,0,0,0,.53827,2.9605A2.087,2.087,0,0,1,70.51353,188.39492ZM80.74068,170.0937a16.03746,16.03746,0,0,1-2.15309,1.61481,16.03785,16.03785,0,0,0-2.15308,1.61481q-1.61481,1.07655-3.22963-.53827l.53827-1.07654Q75.358,170.632,75.358,170.0937q3.22962-2.69137,4.30617-3.7679.53827.53826,0,1.34568t.53827.8074q0,.53826.8074.26914a4.42766,4.42766,0,0,1,1.34568-.26914Q82.35549,169.01714,80.74068,170.0937Zm-6.45926-60.28639q1.07655-.53827,1.61482,0l-.53827,1.61482-1.07655.53827-.53827-.53827A1.06386,1.06386,0,0,1,74.28142,109.80731Zm-38.21725-1.07654,1.07654-1.07654,2.69136-.53827L37.679,108.1925A1.06385,1.06385,0,0,1,36.06417,108.73077ZM68.36044,260.52326a20.88292,20.88292,0,0,1-2.69135,1.07654A20.88581,20.88581,0,0,1,68.36044,260.52326Zm-23.14566-71.0518a18.8607,18.8607,0,0,0-5.38271,2.69135v-1.07654a51.2537,51.2537,0,0,1,6.45925-5.38271,8.43413,8.43413,0,0,0,2.15309-1.61481q-8.07406,4.84446-8.61234,5.38271a32.38294,32.38294,0,0,1-.53827-4.84444q0-12.91851,4.30617-12.91851,5.38271.53826,6.99752,14.53332a26.91581,26.91581,0,0,1-3.7679,2.69136A1.06384,1.06384,0,0,1,45.21478,189.47146Zm193.23936-32.29627A25.48521,25.48521,0,0,1,232.264,170.0937a38.22674,38.22674,0,0,1-9.958,8.61233l-4.84444,2.15309-2.69136-.53827-.53827-2.69136q0-1.61481,4.57531-9.41974t4.5753-11.57283a24.71049,24.71049,0,0,0-1.88395-6.19012,16.33634,16.33634,0,0,0-4.037-5.38271q-2.69136-2.42223-7.5358-2.15309t-10.76542,4.037q-18.8395,11.3037-19.37776,28.52838a22.82225,22.82225,0,0,0-.26914,6.19012q.26914,3.49877.26914,7.26666t-.26914,6.99752a20.33,20.33,0,0,1-1.07654,5.38271q-.80741,2.15311-1.88395,2.15309-.53826,0-2.69136.26913t-2.69135-.26913a16.03678,16.03678,0,0,0-2.15309-1.61481q-1.61481-1.07654-2.42222-4.30617t-1.88395-8.61234q-1.61481-13.45677-14.26418-20.99258t-31.48887-7.5358q-18.83949,0-31.21973,7.5358T73.20488,188.93319a41.03484,41.03484,0,0,1-1.61481,8.61234,9.33666,9.33666,0,0,1-2.42222,4.30617q-1.34568,1.07655-2.15309,1.61481a4.004,4.004,0,0,1-2.69135.26913,23.0418,23.0418,0,0,0-2.42222-.26913q-3.22964,0-3.22963-17.76295v-3.7679l3.7679-3.22963q4.30616-2.69136,5.38271-5.38271a10.87457,10.87457,0,0,0-3.49876,2.15309q-1.884,1.61481-2.42222,1.61481L60.28637,178.706l-1.61481,1.07655v-4.30617q-.53827-11.3037-6.99753-18.83949-.53828-1.07655-1.07654-1.07655A103.08958,103.08958,0,0,0,39.2938,146.948l-6.45926-3.22962,3.7679-3.22963,2.15309-2.15308q-.53827,0-2.69136,2.15308l-2.15309,1.61481-1.07654,1.07655H28.52837l2.15309-2.15309-3.22963,2.15309a10.41021,10.41021,0,0,0-9.68888,5.921H16.68641l-.53827,2.15308-.53828-.53827q0-1.07655-1.07654,0-2.15309,0-2.15308,1.61482,0,.53826-1.61482,2.15308-1.07654-.53826-1.07654,0-.53827,1.07655-1.07654.53827a1.06385,1.06385,0,0,1-1.61481.53827,1.09657,1.09657,0,0,0-.80741.26914,1.09662,1.09662,0,0,0-.26914.80741l.53827,1.07654H5.921A1.72422,1.72422,0,0,1,4.30617,158.79h0v-1.07654l-1.07654.53827a.86214.86214,0,0,0-.53827-.80741l-.53828-.26913a.86212.86212,0,0,0,.80741-.53827l.26914-.53828,1.07654-1.61481,1.61481-.53827,2.69136-1.61481q.53828,1.07655,1.07654.53827V151.2542l3.22963-2.15308,2.15308-1.61481,2.15309-2.15309q0-1.07655,1.61481-2.15308,2.15308-2.15308,2.15309-3.22963l-1.07655.53827-.53827,1.07654q-1.07653-.53826-2.69135,1.07655-1.07655,2.15307-4.84444,4.30616-4.30617,3.22964-8.07407,3.22963-2.69136,0-3.22963-1.07654-.53828-.53826,0-1.61481V146.948L0,145.87149l1.61481-1.61481q0-.53826,1.07655-1.34568t1.07654-1.34568l.53827-1.61481a2.16984,2.16984,0,0,0-2.15309,1.07654q-.53826,1.07655-1.07654,1.07654L0,142.64187l.53827-3.22963,3.22963-2.15309-.53827-1.07654L1.07654,138.3357A58.00094,58.00094,0,0,1,4.037,128.64681a52.40539,52.40539,0,0,0,2.9605-10.22715q1.61481-6.45925,1.61481-25.02961T9.68888,70.51353L12.38024,69.437l6.99752-3.22962a13.3937,13.3937,0,0,0,5.921-3.22963l5.38271-4.30617a14.36839,14.36839,0,0,0,3.7679-2.69136q.53826-.53826,0-1.61481,0-.53827-1.07655,0L25.837,59.7481l-1.61482.53827-3.76789,2.15309-5.921,4.30617-3.7679,2.15308A15.88834,15.88834,0,0,1,15.07159,63.516a37.26915,37.26915,0,0,1,5.11358-3.49876A7.2275,7.2275,0,0,0,23.14566,57.595l.53827-1.07655,4.84444-4.30616.26914-.53828.80741-.53827V50.05922a3.163,3.163,0,0,0,2.69135-1.61481l-1.07654-.53827-1.07654.53827-2.15309.53827a97.2958,97.2958,0,0,1,11.842-14.80246A154.82559,154.82559,0,0,1,57.86415,18.57036q11.03457-8.34321,27.1827-13.45678A111.65853,111.65853,0,0,1,118.95793,0a110.00243,110.00243,0,0,1,35.5259,5.65185q16.6864,5.65185,27.1827,13.72591a128.72457,128.72457,0,0,1,18.30122,16.95555,134.90283,134.90283,0,0,1,11.30369,14.26418,43.85994,43.85994,0,0,1,4.037,6.99753q0,1.07654,5.65184,4.30617a14.72625,14.72625,0,0,1,7.26666,8.61234q1.61482,4.30615,1.34568,22.60739t1.34568,25.29874l3.7679,11.3037s1.256,4.75472,3.7679,14.26418S240.96606,157.89289,238.45414,157.17519ZM196.469,62.43945q-5.921-3.76791-22.87652-7.5358t-23.4148-3.7679a14.34665,14.34665,0,0,0-3.22963.26914,2.61278,2.61278,0,0,0-1.61481,1.07654,6.79333,6.79333,0,0,0-.80741,1.61482,10.83179,10.83179,0,0,0-.26913,2.96049v3.7679s.0897,1.70452.26913,5.11357.26914,5.47242.26914,6.19012q.53826,17.763,10.22715,22.60739,4.30618,2.69136,21.8,5.65185t24.49133,2.42222a7.73391,7.73391,0,0,0,6.72839-3.49876,11.89741,11.89741,0,0,0,2.42222-6.72839l.53828-3.22963Q213.69367,73.74314,196.469,62.43945Zm-56.51847,45.753q0-10.22715-6.72839-24.49134T119.22707,69.437q-7.26666,0-13.995,14.26418T97.96536,108.1925a67.48222,67.48222,0,0,0,.53827,8.88148,19.02582,19.02582,0,0,0,2.69135,7.53579q2.1531,3.49876,5.65185,3.49876t8.88148-3.76789h6.45925q6.99751,6.45925,11.03456,3.76789a14.186,14.186,0,0,0,5.65185-8.07406A31.77477,31.77477,0,0,0,139.95051,108.1925Zm-51.674-57.05675A86.5966,86.5966,0,0,0,74.8197,52.75057q-9.15062,1.61481-19.10863,4.30617T41.98515,62.43945Q24.22221,73.74315,27.45183,89.353q0,12.91851,9.15061,13.45678,5.38271,0,19.37776-1.61481L51.674,103.88633a4.7774,4.7774,0,0,0-2.15308.53827,17.59333,17.59333,0,0,0-1.88395,1.07654,17.595,17.595,0,0,1-1.88395,1.07655,4.06357,4.06357,0,0,0-2.42222,1.07654,4.06363,4.06363,0,0,1-2.42222,1.07654l-1.07654,1.07654a8.47358,8.47358,0,0,0-3.22963,2.15309q-1.07655-1.61481-1.61481-1.07654l-.53827,1.61481-1.07655.53827q-.53826,0-1.07654,1.07654l-2.15308,2.69136q-.53828,0,0-.53827l-1.07655,1.61481-.53827-.53827q-.53826,0-1.61481,1.61481H25.837l-.53827.53828q1.61481.53826,2.15308-.53828h.53827l2.15309-1.61481q1.07654,0,4.30617-2.15308.53826-1.61482,1.07654-1.61482a4.13137,4.13137,0,0,0,1.61481-.53827q.53828.53826,1.07654-1.07654l6.99753-4.30617L51.674,104.4246l1.61482-.53827,6.45925-3.22963q19.37777-3.22962,23.68393-5.921Q93.12092,89.353,93.65919,72.12833V67.28389l.26913-4.30617a23.31119,23.31119,0,0,1,.26914-3.49876V56.51847l-.26914-2.15309q-.26913-2.15309-.53827-1.61481T92.31351,51.674q-.80741-1.61483-1.88395-.53828Z" style="fill: #fff"/>
    </g>
  </g>
</svg>
