<svg xmlns="http://www.w3.org/2000/svg" viewBox="0 0 275.59484 275.59484">
  <title>tooltip_reckoning</title>
  <g id="Layer_2" data-name="Layer 2">
    <g id="Layer_1-2" data-name="Layer 1">
      <path d="M275.32868,129.58475A136.33449,136.33449,0,0,0,257.795,70.11951l.35391.67661,15.96674-22.06239H242.82274a137.53961,137.53961,0,0,0-209.887-.197l-.1631.197H1.90118L17.633,70.47181A134.81713,134.81713,0,0,0,.28475,129.20311l-.01857.38136L0,129.32556V146.2698l.26618-.25891C4.71526,218.49421,64.588,275.59484,137.79742,275.59484a137.78247,137.78247,0,0,0,137.51214-129.1945l.0191-.38945.26618.25891V129.32555Zm-42.046-80.851H185.64435l-42.61224-41.477a130.11377,130.11377,0,0,1,90.17872,41.399Zm-57.8951,0H100.20779L137.7977,12.14582Zm-42.824-41.477-42.61251,41.477H42.31163A130.0321,130.0321,0,0,1,132.30438,7.26505l.25918-.00834ZM22.26048,76.86621,38.291,99.01715,7.44349,129.04272a129.2787,129.2787,0,0,1,15.15664-52.866Zm-14.817,69.68673L132.56356,268.33815A130.91337,130.91337,0,0,1,7.46691,146.96849l-.02341-.41555ZM134.28172,260.02752,8.70412,137.798l33.82551-32.9239,91.895,126.97951ZM47.71021,99.83154h0L21.66892,63.84812l116.33924,105.155L254.34821,63.847,138.00735,224.60309Zm93.86831,132.03793,91.73379-126.75533L266.891,137.79771,141.43641,259.90829Zm1.4536,36.46868L268.15138,146.55294c-4.68753,66.43935-58.33945,118.9356-124.85066,121.77632l-.2686.00915Zm94.5188-169.08067,15.96432-22.05889A127.54393,127.54393,0,0,1,268.12958,128.643l.0218.39966Z" style="fill: #fff"/>
    </g>
  </g>
</svg>
