<svg xmlns="http://www.w3.org/2000/svg" viewBox="0 0 261.64044 275.59484">
  <title>tooltip_seasonal-arena</title>
  <g id="Layer_2" data-name="Layer 2">
    <g id="Layer_1-2" data-name="Layer 1">
      <g>
        <path d="M130.82035,11.60433H20.39294c1.45683,4.79034,1.24825,9.53466,1.24745,14.26284-.01023,48.08323.162,96.1678-.126,144.24941-.11061,18.4444,7.2602,32.85984,21.02676,44.51611a122.46,122.46,0,0,0,25.82356,16.78759l.73313.31973.74712.31947c12.12537,5.70837,24.42593,11.048,36.6864,16.46545,8.24848,3.64463,16.54108,7.18458,24.21629,12.03923.02395-.01425.04844-.02772.0724-.042.024.01426.04844.02773.0724.042,7.6752-4.85467,15.96809-8.3946,24.21628-12.03925,12.26075-5.41744,24.561-10.75708,36.68668-16.46545a124.16526,124.16526,0,0,0,27.66418-17.7242l-.36011.29739c13.76655-11.65626,21.1371-26.0717,21.02676-44.5161-.288-48.08161-.11573-96.16618-.126-144.24942-.00108-4.72817-.20939-9.47276,1.24745-14.26284Z" style="fill: #2a8084"/>
        <path d="M261.64044,0H0C.74335.875,1.27436,1.56207,1.86834,2.18969a29.67814,29.67814,0,0,1,8.33378,21.45738c-.14183,48.88525.09878,97.77238-.19781,146.65629-.12972,21.38389,8.21482,38.42475,24.06234,52.23384a133.08966,133.08966,0,0,0,28.9859,19.12907l.79206.34773.8066.34691c12.40931,5.90753,25.06272,11.30209,37.595,16.95231,5.23872,2.36193,10.48041,4.72441,15.64593,7.24028a42.43644,42.43644,0,0,1,12.9282,9.04134,42.44108,42.44108,0,0,1,12.92819-9.04134c5.16552-2.51589,10.40721-4.87835,15.64592-7.24028,12.5323-5.65024,25.18572-11.04479,37.595-16.95231a134.76694,134.76694,0,0,0,30.91776-20.10658l-.33347.28287c15.84725-13.80935,24.1918-30.85021,24.06234-52.23384-.29658-48.88391-.056-97.771-.19781-146.6563a29.67813,29.67813,0,0,1,8.33379-21.45737c.594-.62763,1.125-1.31446,1.86835-2.18969ZM240.00032,25.86717c.01023,48.08323-.162,96.1678.126,144.24941.11062,18.4444-7.26021,32.85984-21.02676,44.51611A122.452,122.452,0,0,1,193.276,231.42l-.73313.32-.74712.31946c-12.12536,5.70838-24.42594,11.048-36.68668,16.46546-8.24847,3.64463-16.54108,7.18457-24.21628,12.03925-.024-.01426-.04844-.02773-.0724-.042-.02395.01426-.04844.02773-.0724.042-7.67521-4.85468-15.96808-8.39461-24.21628-12.03925-12.26074-5.41744-24.56105-10.75708-36.68642-16.46546A124.16536,124.16536,0,0,1,42.18107,214.3353l.36011.29739C28.77462,202.97642,21.40407,188.561,21.51442,170.11658c.288-48.0816.11573-96.16618.126-144.24941.00107-4.72818.20938-9.47277-1.24745-14.26284H241.24775c-1.45684,4.79034-1.24825,9.53466-1.24745,14.26284Z" style="fill: #fff"/>
        <path d="M214.88621,103.32251a82.62658,82.62658,0,0,0-29.93542-49.152,76.58128,76.58128,0,0,0-14.61541-9.2919l-.45673-.201a80.79274,80.79274,0,0,0-38.277-8.175,80.78623,80.78623,0,0,0-38.277,8.175,77.24883,77.24883,0,0,0-15.21666,9.606l.14452-.11331a82.62664,82.62664,0,0,0-29.93541,49.152A87.37083,87.37083,0,0,0,47.183,129.08954a79.85284,79.85284,0,0,0,18.89413,45.428,83.99921,83.99921,0,0,0,25.13592,20.341,81.135,81.135,0,0,0,22.16977,7.84666l.5302.088a87.19223,87.19223,0,0,0,17.68839,1.498,87.19539,87.19539,0,0,0,17.6884-1.498,83.00566,83.00566,0,0,0,23.15051-8.15292l-.45054.21827a84.00366,84.00366,0,0,0,25.13593-20.341,79.851,79.851,0,0,0,18.89412-45.42793,87.3708,87.3708,0,0,0-1.13413-25.76731Zm-10.51945,54.81915c-9.19045,17.55786-23.091,29.90285-41.40894,37.43273a80.98977,80.98977,0,0,1-31.3559,5.76434,80.99989,80.99989,0,0,1-31.35591-5.76434c-18.31791-7.52988-32.21849-19.87485-41.40893-37.43273a74.883,74.883,0,0,1-8.741-32.099c4.68781,5.06459,8.98779,9.65012,13.22129,14.29566,10.39778,11.41028,21.25687,22.33719,34.11885,30.999,8.35343,5.62574,17.14744,10.2102,27.49947,11.34568a59.03636,59.03636,0,0,0,6.66649.36548,61.58858,61.58858,0,0,0,6.94557-.39132l-.27909.02584c10.352-1.13574,19.146-5.72021,27.49947-11.34568,12.862-8.66187,23.72108-19.58876,34.11885-30.999,4.2335-4.64581,8.53349-9.23108,13.22129-14.29567a74.88763,74.88763,0,0,1-8.741,32.099ZM84.29165,135.90486a78.48683,78.48683,0,0,0,24.93918,16.50555,61.64643,61.64643,0,0,0,16.20358,4.128l.29713.02825c1.42615.14265,3.08214.22392,4.75724.22392q.587,0,1.171-.01319l-.05786.00108c.3313.0078.72182.01211,1.11314.01211q2.51265,0,4.96448-.24034l-.20751.01641a63.52138,63.52138,0,0,0,16.92514-4.30993l-.42443.15367a78.47936,78.47936,0,0,0,24.93918-16.50555c4.55942-4.32743,8.82307-8.96679,13.48692-13.73991H209.7737c-.67175.75977-1.07763,1.28485-1.54914,1.74238-6.86376,6.65869-13.5351,13.53376-20.65939,19.90178-8.44737,7.55114-17.58989,14.2292-27.92739,19.06314-5.28313,2.4704-10.66369,4.73678-16.4902,5.60447a73.40889,73.40889,0,0,1-11.54592,1.08031,73.37672,73.37672,0,0,1-11.54591-1.08031c-5.82652-.868-11.20735-3.13409-16.49021-5.60447-10.3375-4.83394-19.47976-11.512-27.92739-19.06314-7.124-6.368-13.79535-13.24309-20.65912-19.90177-.47152-.45753-.87738-.98261-1.54914-1.74238H70.80474c4.66385,4.77312,8.92722,9.41247,13.48692,13.73991Zm-9.42244-16.46113c1.69555-2.04678,3.78432-4.63721,5.53531-6.50905a107.04337,107.04337,0,0,1,12.73711-11.52546l.25164-.18571a75.28666,75.28666,0,0,1,24.07741-12.54764,38.49846,38.49846,0,0,1,8.23743-1.60781c1.69879-.20374,5.89354-.20374,5.89354-.20374s4.557,0,6.06874.20374a39.56816,39.56816,0,0,1,8.06223,1.60781A75.281,75.281,0,0,1,169.81,101.22351a107.18576,107.18576,0,0,1,12.939,11.65761l.04979.05356c1.751,1.87184,3.83977,4.46227,5.53532,6.50905a1.48415,1.48415,0,0,1-.16713,2.21444c-17.68947,18.21591-28.33486,26.13657-41.72408,29.96421-3.53321,1.01007-9.23109,2.42761-13.51787,2.12536h-2.64722c-4.28652.30223-9.98439-1.11529-13.51787-2.12536-13.38922-3.82738-24.03462-11.7483-41.72409-29.96421a1.48414,1.48414,0,0,1-.16713-2.21444Zm117.2823-.9592c-2.12833-2.342-4.19663-4.7061-6.35887-6.98057A117.43167,117.43167,0,0,0,167.9538,95.82035,72.09986,72.09986,0,0,0,142.69839,84.602l-.4909-.095a30.05637,30.05637,0,0,0-5.71133-.6365l-.02826-.00027c-1.67887-.05087-3.18576-.00377-4.86624-.00027-1.68048-.0035-3.18737-.0506-4.86624.00027a31.19362,31.19362,0,0,0-5.94251.67284l.20293-.03607A72.92376,72.92376,0,0,0,95.01726,95.9751l.23226-.15476A117.43174,117.43174,0,0,0,77.41068,111.504c-2.16223,2.27473-4.23054,4.63854-6.35887,6.98057H53.2022c6.9647-6.99807,13.22748-13.73991,20.21344-19.77743,6.71385-5.80256,13.52326-11.4606,21.14491-16.03617,9.87189-5.92636,20.13915-10.58079,31.955-11.31607q2.55867-.15933,5.08613-.16363,2.528.00054,5.08613.16363c11.81585.735,22.0831,5.38944,31.955,11.31607,7.62164,4.57558,14.43105,10.23361,21.1449,16.03617,6.986,6.03753,13.24874,12.77937,20.21343,19.77743Zm15.19486-10.092C196.66492,96.3153,185.58218,84.6383,173.00683,74.49082a84.40314,84.40314,0,0,0-24.7209-14.31209,47.048,47.048,0,0,0-15.8031-2.67736q-.46467,0-.92691.00888l.04629-.00081c-.26213-.00511-.5711-.00807-.88061-.00807a47.9,47.9,0,0,0-16.13818,2.78151l.33507-.10442A84.39938,84.39938,0,0,0,90.19758,74.49055C77.62222,84.63777,66.53922,96.315,55.858,108.39221c-1.75557,1.98515-3.60534,3.88713-5.83217,6.27921.2546-2.87276.3889-5.06352.65965-7.23733a46.50145,46.50145,0,0,1,1.01815-5.82759l-.06514.31812C57.74386,77.45131,71.70285,59.08307,94.353,47.70429a75.11279,75.11279,0,0,1,27.36382-7.88486c3.30848-.29121,6.60405-.46561,9.88562-.48795,3.28156.02234,6.57713.19647,9.88562.48795a75.10231,75.10231,0,0,1,27.36382,7.88486c22.65018,11.37878,36.60916,29.747,42.71451,54.22033a42.74209,42.74209,0,0,1,.93283,5.29443l.02019.21531c.27074,2.1738.405,4.36457.65964,7.23732-2.22682-2.39235-4.07658-4.29406-5.83216-6.2792Z" style="fill: #fff"/>
        <path d="M131.60193,86.63906a33.688,33.688,0,1,0,33.688,33.688h0a33.688,33.688,0,0,0-33.688-33.688Zm25.08666,37.76268h-8.50845c.54016,1.09431.68064,1.90387,1.15728,2.24729,1.55507,1.11987,3.23258,2.781,5.26483,4.04645a17.148,17.148,0,0,1-2.50241-.09985c-1.48859-.03768-3.44252-1.35052-5.70755-1.2278a17.19391,17.19391,0,0,0,1.98891,2.52422c.94924,1.20681,1.28109,1.392,2.286,2.55491.34423.12111.36522.81548.6236,1.0359q-.14964.14937-.299.299c-.22041-.25837-.44058-.04252-.661-.30063.06164-.06163-.58779-.36064-.52588-.42227-.97885-.06916-3.51411-2.09925-5.85129-2.88486,0,1.10695,2.66606,5.92232,2.6884,7.68463-1.748-1.74858-3.65-3.65136-5.66664-5.6688-2.45748,3.5612.94439,6.22617-.37465,9.28141-1.34863-2.2941-2.62057-4.45714-3.93988-6.7012-.4072.48983.14614,1.67591-.4944,2.44617,0,1.93482-.94817,3.5456-.94817,5.86743l-.44542.12381c-.47044-1.19953-.96889-2.38912-1.40381-3.6013-.47206-1.31634-.88519-2.65395-1.49451-4.49887-2.69808,2.57752-1.19012,6.347-4.06853,8.467v-8.78916c-3.29691,1.39547-3.15319,4.93783-5.93255,7.11326.74389-2.86926,1.34218-5.17682,2.01664-7.77829-.664-.10362-1.36613-.21342-2.02148-.3157-1.58655,1.32281-3.1069,2.59016-4.62725,3.85752a2.745,2.745,0,0,1-.56249.8615l.00081-.00081q-.14964-.14937-.299-.299c.25837-.22042,3.29046-4.85144,3.41641-7.59232.09958.04119-5.39,2.159-7.5218,3.4296-.32888-.29523-.23362-.619-.31247-.745-.04952-.07912.18408-.50167.24087-.559,1.83308-1.84976,3.20191-3.21563,5.5119-5.52562a28.27528,28.27528,0,0,0-5.24734.07347c-1.24395.26295-2.2925.8171-3.88659.46884a35.86166,35.86166,0,0,0,7.63672-4.76451c-3.58649-.92528-6.52761-.23038-9.38825-1.15459,2.54871-.84132,5.33453-2.15686,8.143-3.08376a10.836,10.836,0,0,0-3.857-1.97115,21.52157,21.52157,0,0,1-4.39553-1.43773l.13592.05517c2.78124-.862,5.69033-.18355,9.0739-.7778-2.29976-2.35924-7.10329-4.70288-7.93438-5.24223a13.28231,13.28231,0,0,1,1.99-.14533q.32539,0,.64755.01507l-.03042-.00108a64.78132,64.78132,0,0,0,6.89768.91991,29.67483,29.67483,0,0,0-3.217-3.44628c-.90188-.94036-1.83874-1.84681-3.231-3.23905a12.16118,12.16118,0,0,1,5.80311,1.76822,7.99546,7.99546,0,0,0,3.11228.94817c-.77026-2.33636-2.99063-5.812-2.964-6.24745-.34422-.12111-.36521-.57836-.62358-.79879l.299-.299q.33049.38728.661.77484c-.06163.06163.11358.12353.05194.18516,1.50527,1.09188,3.39864,2.28308,4.94456,3.58057.52025,0,.317.23712,1.339.23712-.657-2.49678-1.03591-5.07563-1.652-7.41738l.47287-.26537c1.48644,2.25186,2.97261,4.50372,5.04252,7.63942V96.3q.34854-.1316.69733-.26348a12.91153,12.91153,0,0,1,1.30019,2.35708c.5477,1.76042.91964,3.57574,1.51416,5.97616,2.53069-2.73765,2.63484-5.74874,4.12935-8.29342v7.68086c3.66348-.64539,3.90812-3.74932,5.89272-6.68479-.47825,3.66186-.83566,6.3987-1.322,10.12353,2.61223-2.61223,4.51582-4.51555,6.89229-6.89229-.03794,2.35574-1.15163,3.53348-1.97518,4.86328a18.24782,18.24782,0,0,0-1.15808,2.81058c3.4923,1.35268,5.00941-2.06185,8.62983-2.73953-2.49409,2.49355-4.26768,4.26768-6.72381,6.72328,2.5619.098,4.03677.49978,5.24706.09985,1.12527-.37168,2.07881-1.08193,3.42637-.73851-1.58521,2.15658-4.84094,2.23329-5.82166,5.43735H156.286c-2.25,2.82834-5.92825,1.33222-8.1018,3.8664,2.21364,2.46421,5.672,1.62423,8.50442,3.7757Z" style="fill: #fff"/>
      </g>
    </g>
  </g>
</svg>
