<svg xmlns="http://www.w3.org/2000/svg" viewBox="0 0 261.64044 275.59484">
  <title>shadowkeep</title>
  <g id="Layer_2" data-name="Layer 2">
    <g id="Layer_1-2" data-name="Layer 1">
      <g>
        <path d="M130.82035,11.60433H20.39294c1.45683,4.79034,1.24825,9.53466,1.24745,14.26284-.01023,48.08323.162,96.1678-.126,144.24941-.11061,18.4444,7.2602,32.85984,21.02676,44.51611a122.46,122.46,0,0,0,25.82356,16.78759l.73313.31973.74712.31947c12.12537,5.70837,24.42593,11.048,36.6864,16.46545,8.24848,3.64463,16.54108,7.18458,24.21629,12.03923.02395-.01425.04844-.02772.0724-.042.024.01426.04844.02773.0724.042,7.6752-4.85467,15.96809-8.3946,24.21628-12.03925,12.26075-5.41744,24.561-10.75708,36.68668-16.46545a124.16526,124.16526,0,0,0,27.66418-17.7242l-.36011.29739c13.76655-11.65626,21.1371-26.0717,21.02676-44.5161-.288-48.08161-.11573-96.16618-.126-144.24942-.00108-4.72817-.20939-9.47276,1.24745-14.26284Z" style="fill: #400707"/>
        <path d="M261.64044,0H0C.74335.875,1.27436,1.56207,1.86834,2.18969a29.67814,29.67814,0,0,1,8.33378,21.45738c-.14183,48.88525.09878,97.77238-.19781,146.65629-.12972,21.38389,8.21482,38.42475,24.06234,52.23384a133.08966,133.08966,0,0,0,28.9859,19.12907l.79206.34773.8066.34691c12.40931,5.90753,25.06272,11.30209,37.595,16.95231,5.23872,2.36193,10.48041,4.72441,15.64593,7.24028a42.43644,42.43644,0,0,1,12.9282,9.04134,42.44108,42.44108,0,0,1,12.92819-9.04134c5.16552-2.51589,10.40721-4.87835,15.64592-7.24028,12.5323-5.65024,25.18572-11.04479,37.595-16.95231a134.76694,134.76694,0,0,0,30.91776-20.10658l-.33347.28287c15.84725-13.80935,24.1918-30.85021,24.06234-52.23384-.29658-48.88391-.056-97.771-.19781-146.6563a29.67813,29.67813,0,0,1,8.33379-21.45737c.594-.62763,1.125-1.31446,1.86835-2.18969ZM240.00032,25.86717c.01023,48.08323-.162,96.1678.126,144.24941.11062,18.4444-7.26021,32.85984-21.02676,44.51611A122.452,122.452,0,0,1,193.276,231.42l-.73313.32-.74712.31946c-12.12536,5.70838-24.42594,11.048-36.68668,16.46546-8.24847,3.64463-16.54108,7.18457-24.21628,12.03925-.024-.01426-.04844-.02773-.0724-.042-.02395.01426-.04844.02773-.0724.042-7.67521-4.85468-15.96808-8.39461-24.21628-12.03925-12.26074-5.41744-24.56105-10.75708-36.68642-16.46546A124.16536,124.16536,0,0,1,42.18107,214.3353l.36011.29739C28.77462,202.97642,21.40407,188.561,21.51442,170.11658c.288-48.0816.11573-96.16618.126-144.24941.00107-4.72818.20938-9.47277-1.24745-14.26284H241.24775c-1.45684,4.79034-1.24825,9.53466-1.24745,14.26284Z" style="fill: #fff"/>
        <g>
          <path d="M150.75483,120.68232a18.93795,18.93795,0,1,1-18.93794-18.93795,18.93795,18.93795,0,0,1,18.93794,18.938Z" style="fill: #fff"/>
          <path d="M215.09385,57.88893a44.1813,44.1813,0,0,1,1.22255,10.45268,45.29086,45.29086,0,0,1-1.9641,13.23519l.08423-.32087a21.683,21.683,0,0,1-8.71875,12.32468l-.07463.048q-19.39059,12.7827-38.83882,25.47784a17.29458,17.29458,0,0,1-1.89.90641l-.12422.045c0-7.80558-.22-15.27487.08817-22.72242.16657-4.02568,2.35157-7.45338,5.43022-10.08332a74.955,74.955,0,0,1,7.54817-5.80857l.2686-.17035c11.54234-7.49227,23.159-14.87024,34.75756-22.27575.63151-.40322,1.34473-.67874,2.21113-1.10841Z" style="fill: #fff"/>
          <path d="M164.78243,120.80261c1.83374,1.14036,3.01379,1.85437,4.1743,2.59892,11.69366,7.503,23.28528,15.17111,35.10882,22.46327,8.4286,5.19832,11.9095,12.89242,12.3875,22.29117.24308,4.77794.04251,9.57839.04251,15.01823-1.58908-.79005-2.43061-1.12509-3.18681-1.597q-17.08407-10.65846-34.14322-21.35675c-1.454-.91223-2.81855-1.96568-4.261-2.89744-7.172-4.63309-10.62792-11.08308-10.17354-19.731.27789-5.28884.05133-10.60431.05133-16.78963Z" style="fill: #fff"/>
          <path d="M69.01106,41.674a44.18136,44.18136,0,0,1,10.45268-1.22255,45.29042,45.29042,0,0,1,13.23518,1.96411l-.32087-.08423a21.68311,21.68311,0,0,1,12.32469,8.71875l.048.07463Q117.53345,70.51527,130.2286,89.9635a17.28426,17.28426,0,0,1,.9064,1.89011l.045.12422c-7.80558,0-15.27486.21995-22.72241-.08816-4.02568-.16658-7.45338-2.35158-10.08332-5.43023a74.93507,74.93507,0,0,1-5.80857-7.54832l-.17035-.2686C84.90311,67.10017,77.52514,55.48352,70.11963,43.885c-.40322-.63151-.67874-1.34473-1.1084-2.21114Z" style="fill: #fff"/>
          <path d="M131.81674,91.98523c1.14036-1.83374,1.85437-3.01378,2.59892-4.1743,7.503-11.69365,15.17111-23.28528,22.46326-35.10882,5.19831-8.42858,12.89243-11.9095,22.29134-12.3875,4.77794-.2431,9.57824-.04251,15.01823-.04251-.79005,1.58907-1.12509,2.43061-1.59695,3.18681Q181.93307,60.543,171.23479,77.60213c-.91223,1.454-1.96568,2.81856-2.89743,4.261-4.6331,7.172-11.08309,10.62792-19.731,10.17354-5.28884-.27789-10.6043-.05133-16.78963-.05133Z" style="fill: #fff"/>
          <path d="M194.29933,199.90511a44.18078,44.18078,0,0,1-10.45268,1.22255,45.29041,45.29041,0,0,1-13.23518-1.9641l.32087.08423a21.68315,21.68315,0,0,1-12.32469-8.71876l-.048-.07463q-12.78269-19.39059-25.47784-38.83882a17.28224,17.28224,0,0,1-.90641-1.89l-.045-.12422c7.80559,0,15.27487-.21994,22.72242.08817,4.02568.16657,7.45338,2.35157,10.08332,5.43023a74.95666,74.95666,0,0,1,5.80857,7.54816l.17035.2686c7.49226,11.54234,14.87023,23.159,22.27575,34.75756.40321.6315.67873,1.34472,1.1084,2.21113Z" style="fill: #fff"/>
          <path d="M131.58859,149.62565c-1.14036,1.83375-1.85437,3.01395-2.59892,4.17431-7.503,11.69365-15.17111,23.28527-22.46326,35.10881-5.19832,8.42859-12.89243,11.90951-22.29118,12.38751-4.778.2431-9.5784.04251-15.01823.04251.79005-1.58908,1.12509-2.43061,1.597-3.18682q10.65846-17.08406,21.35675-34.14321c.91223-1.454,1.96568-2.81855,2.89744-4.26106,4.63309-7.172,11.08308-10.62791,19.731-10.17353,5.28885.27789,10.6043.05132,16.78963.05132Z" style="fill: #fff"/>
          <path d="M48.33793,183.3348a44.18093,44.18093,0,0,1-1.22255-10.45269,45.29052,45.29052,0,0,1,1.96411-13.23518l-.08423.32088A21.683,21.683,0,0,1,57.714,147.64312l.07463-.048q19.39059-12.78269,38.83882-25.47784a17.2824,17.2824,0,0,1,1.89011-.90641l.12422-.045c0,7.80559.21995,15.27486-.08817,22.72242-.16657,4.02568-2.35158,7.45338-5.43023,10.08332a74.93051,74.93051,0,0,1-7.54816,5.80856l-.26859.17035c-11.54235,7.49227-23.159,14.87023-34.75757,22.27575-.63166.40321-1.34472.67874-2.21129,1.1084Z" style="fill: #fff"/>
          <path d="M98.62683,120.50677c-1.83374-1.14037-3.01378-1.85437-4.1743-2.59892-11.69365-7.503-23.28528-15.17111-35.10882-22.46326-8.42858-5.19832-11.90951-12.89243-12.3875-22.29118-.2431-4.77794-.04251-9.5784-.04251-15.01823,1.58907.79005,2.43061,1.12509,3.18681,1.59695Q67.18456,70.39059,84.24373,81.08888c1.454.91223,2.81856,1.96568,4.261,2.89744,7.172,4.63309,10.62792,11.08308,10.17354,19.731-.27789,5.28885-.05133,10.6043-.05133,16.78963Z" style="fill: #fff"/>
        </g>
      </g>
    </g>
  </g>
</svg>
