<svg xmlns="http://www.w3.org/2000/svg" viewBox="0 0 260.18684 275.59485">
  <title>tooltip_story</title>
  <g id="Layer_2" data-name="Layer 2">
    <g id="Layer_1-2" data-name="Layer 1">
      <g>
        <path d="M234.01609,252.64028V13.78783H26.00119V252.64028l104.00745-53.17043Z" style="fill: #303da1"/>
        <path d="M11.86888,275.59485v-4.30617q0-122.45668.18839-244.84611c0-9.67542-2.66713-17.53687-9.77231-23.95307C1.561,1.814.95005,1.03348,0,0H260.18684c-1.28648,1.34568-2.29035,2.468-3.38035,3.49876-6.08245,5.8241-8.74421,12.81893-8.73075,21.34515q.23415,123.361.12111,246.66007v4.09087L130.04632,216.53573Zm14.13231-261.807V252.64026l104.00745-53.17042,104.00745,53.17042V13.78781Z" style="fill: #fff"/>
        <path d="M183.4509,133.73886H76.60407c-1.16-4.06933-2.363-8.179-3.49877-12.31026-2.34686-8.42933-4.70449-16.81559-6.84411-25.32566a13.40165,13.40165,0,0,1-.35526-3.105v-.08855a14.20386,14.20386,0,0,1,.34341-3.11255l-.01776.09447-.01884.0942c.88276-4.32232,2.15308-8.56928,3.49876-13.72592l9.6216,15.83863c-.78588,1.28647-1.54215,2.45991-2.23652,3.6764-2.258,3.924-.85854,8.20594,3.37227,9.87458,7.07019,2.79363,14.42836,2.33341,21.77038,1.52331a47.85475,47.85475,0,0,0,8.63683-1.84385l-.33937.09177-.33912.08881c7.71343-2.25,11.31985-8.70653,8.88148-16.41727-1.10614-3.49876-3.0224-6.72839-4.75832-10.51513l15.7229-28.348,15.46723,27.94166c-1.849,4.90365-4.06394,8.9676-4.84444,13.30337-1.29454,6.99752,2.15309,11.99268,8.96221,13.96813a55.13739,55.13739,0,0,0,16.00631,2.32022q.09608,0,.19216-.00027h.00028a58.49059,58.49059,0,0,0,10.81736-1.00388l-.36117.05652-.35257.05383c7.26666-1.26494,10.83-6.93024,5.75682-13.21456a12.80857,12.80857,0,0,1-.8319-1.38255l-.03473-.07348-.035-.07805c3.02239-4.99515,6.04747-10.04952,9.06988-15.11734h.78587c.8074,7.20207,5.44191,13.5752,2.75055,21.63582-3.53644,10.66584-6.12552,21.65464-9.1237,32.50081-.253.86662-.53827,1.7117-.82355,2.59985Z" style="fill: #fff"/>
        <path d="M183.46974,139.21847V146.948H76.72788v-7.72956Z" style="fill: #fff"/>
        <path d="M43.25278,146.948v-7.75379H60.5905V146.948Z" style="fill: #fff"/>
        <path d="M216.74028,147.04223H199.4887v-7.80494h17.25158Z" style="fill: #fff"/>
      </g>
    </g>
  </g>
</svg>
