<svg xmlns="http://www.w3.org/2000/svg" viewBox="0 0 196.65199 275.59432">
  <title>tooltip_strike</title>
  <g id="Layer_2" data-name="Layer 2">
    <g id="Layer_1-2" data-name="Layer 1">
      <g>
        <path d="M0,0H196.59682c.03525.55819.05517,1.21057.05517,1.86753s-.01991,1.30935-.05948,1.95662l.00431-.08909v196.666c.00026.04038.00026.08828.00026.13565a26.16453,26.16453,0,0,1-4.35005,14.48864l.06083-.098a64.9127,64.9127,0,0,1-13.01889,14.1533l-.12433.09689A238.75705,238.75705,0,0,1,140.253,255.31925l-1.27948.62924C125.83,262.86609,112.41012,269.7834,98.506,275.59432l-6.91759-2.97448c-14.80353-6.9176-29.3304-13.83493-43.442-22.13614A222.46272,222.46272,0,0,1,20.81063,232.264l.49575.37221A73.62152,73.62152,0,0,1,4.5866,215.37817l-.15906-.24357a26.72042,26.72042,0,0,1-4.427-14.51153V3.942ZM5.25756,5.18813V199.66362a22.1752,22.1752,0,0,0,4.4682,13.38465l-.04118-.05705a67.09551,67.09551,0,0,0,12.809,13.73615l.12676.099a221.05686,221.05686,0,0,0,30.45593,20.16928l1.15755.5835c10.23792,5.74147,20.75251,11.06794,31.1982,16.118l13.351,6.08758,29.39956-14.45769A306.46585,306.46585,0,0,0,161.894,235.80048l-1.12957.71106a120.21379,120.21379,0,0,0,23.38735-19.37022l.06324-.06837a26.95011,26.95011,0,0,0,7.54253-18.7383c0-.12433-.0008-.249-.00241-.373l.00026.01884V7.40178a10.13115,10.13115,0,0,0,.05168-1.03751,10.57163,10.57163,0,0,0-.05544-1.0822l.00376.04468Z"/>
        <path d="M16.04882,193.6915l82.38807-44.13393,82.24972,44.13393a21.103,21.103,0,0,1,.30627,3.63388,21.63914,21.63914,0,0,1-5.37732,14.30724l.02153-.025a75.01578,75.01578,0,0,1-14.511,13.68286l-.22339.15233a243.52533,243.52533,0,0,1-30.38324,18.854l-1.36828.65345c-9.26958,4.98062-18.74665,9.47708-28.29288,13.83493a5.26369,5.26369,0,0,1-4.80272-.014l.02934.01373a343.80195,343.80195,0,0,1-58.05928-31.76015l1.19684.76946a95.50677,95.50677,0,0,1-14.65766-12.09791l-.00781-.0078a67.00946,67.00946,0,0,1-5.39213-6.705l-.14183-.21262a19.81421,19.81421,0,0,1-3.37227-11.11153,20.0783,20.0783,0,0,1,.42039-4.0984l-.02261.12972Z"/>
        <path d="M180.82494,15.21881v73.6721C153.15484,74.64072,125.8303,60.46,98.43689,46.2095L16.60244,88.614h-.48417V15.21907Z"/>
        <path d="M180.82494,156.06016v8.716l-82.388-42.68141-82.4575,42.68141v-8.716l82.4575-44.13394Z"/>
        <path d="M15.91049,126.86809v-8.647l82.5264-44.2031,82.388,44.13393v8.716l-82.388-42.68141Z"/>
      </g>
    </g>
  </g>
</svg>
