<svg xmlns="http://www.w3.org/2000/svg" viewBox="0 0 294.13647 197.15836">
  <title>tooltip_trials-of-osiris</title>
  <g id="Layer_2" data-name="Layer 2">
    <g id="Layer_1-2" data-name="Layer 1">
      <g>
        <path d="M292.95953,95.38765c-.16382-.27023-4.94712-7.82991-6.01726-9.467-.60886-.93145-1.17052-1.89908-1.84307-2.78217a31.92362,31.92362,0,0,0-2.496-2.87618c-.88459-.91177-1.71467-1.877-2.556-2.83-.83967-.95106-1.70809-1.874-2.51893-2.85438-1.0291-1.24429-1.97647-2.54476-2.93109-3.84164a14.24352,14.24352,0,0,0-1.045-1.57564l.11615-.21872a3.97071,3.97071,0,0,1-1.21768-1.33647,41.30883,41.30883,0,0,0-3.69083-4.45646c-1.06091-1.07488-2.14625-2.12607-3.19191-3.21547-1.0962-1.142-2.15893-2.31763-3.24556-3.46736a44.08592,44.08592,0,0,0-3.23136-3.36507,25.0868,25.0868,0,0,1-1.96534-1.97037,17.9358,17.9358,0,0,0-2.32466-2.155,8.495,8.495,0,0,1-1.07173-1.06231,19.36032,19.36032,0,0,0-3.08655-2.61491c-1.08461-.76373-2.02973-1.697-3.06668-2.51927-.9963-.79006-1.96975-1.609-2.94927-2.42-.12024-.09957-1.194-.99357-1.52241-1.24819-2.06946-1.60424-4.12479-3.22682-6.25666-4.74887a1.00576,1.00576,0,0,1-.15563-.17908l-.14852-.10323a.26767.26767,0,0,1-.17276-.22068.3.3,0,0,1-.30855-.16961.40679.40679,0,0,1-.31636-.16356l-.17168-.13786a.18671.18671,0,0,1-.15755-.13721,5.39376,5.39376,0,0,1-.96761-.65278,1.39874,1.39874,0,0,1-.61855-.45943l-.29242-.217c-1.02268-.56236-1.92894-1.29786-2.89484-1.94466-2.68151-1.79563-5.38966-3.54905-8.1452-5.23045-.90431-.5518-1.80989-1.1014-2.72629-1.632-.55948-.32395-2.65888-1.55877-2.83386-1.65872-1.03443-.59093-2.04638-1.22543-3.10589-1.76705a23.75286,23.75286,0,0,0-3.10526-1.67544,21.19482,21.19482,0,0,1-2.5529-1.28253c-1.725-.86366-3.43975-1.75016-5.187-2.56676-2.153-1.00624-4.32558-1.9721-6.50655-2.91647-2.47529-1.07178-4.94944-2.14786-7.49277-3.05569a18.50978,18.50978,0,0,1-3.318-1.49635,13.79762,13.79762,0,0,0-3.34067-1.19309,5.70569,5.70569,0,0,1-1.11692-.37771,31.94461,31.94461,0,0,0-3.708-1.30153,2.09817,2.09817,0,0,0-.44248.98381c-.00755.38464.37186.64387.32012,1.04967a1.44232,1.44232,0,0,0,.74657,1.38994c3.00806,2.1203,6.04394,4.20167,9.03123,6.35066,2.14679,1.54432,4.2426,3.16042,6.34139,4.77026,1.32265,1.01451,2.62128,2.06146,3.90833,3.121q2.45132,2.01786,4.86462,4.08174c1.08887.927,2.14184,1.89761,3.22582,2.82793,1.00683.86409,1.96941,1.77749,2.95157,2.66456,1.295,1.16955,2.54191,2.39808,3.80357,3.60737,1.09181,1.04646,2.14025,2.1383,3.20273,3.21513.19615.19876.4412.38441.37017.72486l.00874.00978c.25625-.10721.31434.12505.41285.25712a11.29255,11.29255,0,0,0,.83669,1.15547c1.1988,1.23822,2.40378,2.4727,3.654,3.65842a86.95828,86.95828,0,0,1,6.71891,7.31715c1.66662,1.98794,3.31324,3.99213,4.90275,6.04474,1.27824,1.65064,2.568,3.293,3.82575,4.95927,1.27555,1.68987,2.50619,3.41266,3.71313,5.15349,1.11538,1.60878,2.22634,3.22022,3.29649,4.85879,1.02816,1.57422,2.03324,3.16492,3.0687,4.73313a42.00618,42.00618,0,0,1,4.744,10.00419c.40192,1.33617.835,2.66275,1.14129,4.027.20821.92725.36436,1.85965.49952,2.80049.15481,1.07737.1934,2.16218.271,3.24163a34.36464,34.36464,0,0,1-.06731,4.28741,31,31,0,0,1-1.47032,7.26731,63.03119,63.03119,0,0,1-3.06356,7.8298c-.00414.14549.26129.13715.26423.3409-.05735.23-.26246.00115-.3806.08619a1.70336,1.70336,0,0,0-.49189.88652c.04786.20968.29894.08009.28361.35811-.82465.32148-1.0579,1.186-1.5222,1.86944a6.41132,6.41132,0,0,1-.81477,1.28036q-.50367.777-1.0073,1.554a.18559.18559,0,0,1-.11858.17912.31494.31494,0,0,1-.17156.29875l-.00951.01071a1.27467,1.27467,0,0,1-.45721.65625l-.16706.29625-.20212.3357-.11107.14713c-.20815.3732-.3301.81811-.80583.96878l-.57707.023c-.04369.09024-.15979.14082-.13913.28123.09392.24013.41168-.018.53362.22523a5.98866,5.98866,0,0,1-.7542,1.07836l-.19723.28359a.21508.21508,0,0,1-.12365.18925l-.10553.18226-.12479.154a.06683.06683,0,0,1-.04252.07593l-.47512.74664-.3566.49144a.06279.06279,0,0,1-.03892.08324c-.07233.12532-.14664.247-.32518.17588l-.23661.15054a1.08484,1.08484,0,0,1,.07744.13053,1.48723,1.48723,0,0,1-.60349,1.00456.90846.90846,0,0,1-.29827.47559c-.81724,1.26763-1.74081,2.45917-2.64608,3.66273a30.97536,30.97536,0,0,1-2.32394,3.00413c-.27051.35492-.53828.712-.81243,1.06408a1.008,1.008,0,0,0-.28316.8664.36087.36087,0,0,1-.04052.425l-.73177.0468-.15943.1743-.21043.28574-.15226.204a16.26093,16.26093,0,0,1-1.81461,2.21109l-.11116.13168a24.11646,24.11646,0,0,1-2.573,2.90912l-.12462.12094a.19716.19716,0,0,1-.172.16039l-.30919.3302a.29619.29619,0,0,1-.17992.21495.1587.1587,0,0,1-.056.09645,6.36232,6.36232,0,0,1-1.02776,1.118l-.163.15632a3.65908,3.65908,0,0,1-.83575.83712l-.4346.44324a21.64053,21.64053,0,0,1-2.35158,2.46026l-.64272.62017a13.66893,13.66893,0,0,1-1.75624,1.71782l-.01578.01636a19.97222,19.97222,0,0,1-1.791,1.7987,11.24505,11.24505,0,0,0-1.577,1.777c-.20463.30716-.47849.568-.68483.87426-.3505.52017-.88976.89312-1.10092,1.53251-.08163.24717-.381.43273-.60289.62082-.30234.25629-.62539.48815-.93954.7305-1.04669.81711-1.90848,1.82835-2.87214,2.73189-1.87271,1.75581-3.72357,3.53559-5.66825,5.21409q-1.26044,1.0879-2.45246,2.25449a39.2354,39.2354,0,0,1-3.31256,2.69829,30.58011,30.58011,0,0,0-3.42679,2.93965c-.45335.47858-1.06185.75867-1.47756,1.27026.07873.09593.25231.1289.19232.31366-.10042.15891-.26322.14615-.41772.11808a.81695.81695,0,0,0-.65712.22186q-2.01039,1.53208-4.0134,3.07378c.16209.05847.39046-.00916.46174.28053-.26184.26559-.46415.25987-.60273-.13864a3.75888,3.75888,0,0,0-1.10742.72614q-4.19124,2.936-8.38169,5.87309c-.08649.06065-.15975.1399-.245.20258a1.43184,1.43184,0,0,0-.65347,1.85461c-.41754.50218-1.17924.65421-1.50357,1.29027a.353.353,0,0,0,.39786.07489c.49379-.17926.993-.3435,1.48956-.51512.07462-.02579.14873-.09242.21861-.08656,1.12761.09468,2.085-.51,3.128-.75282.16512.00769.074.252.23775.25822.25332-.02488.02541-.2184.21675-.40573a10.46849,10.46849,0,0,1,2.07735-.77606c1.82357-.60613,3.61772-1.28771,5.393-2.01846.90562-.37278,1.85693-.5778,2.78618-.86335A26.21773,26.21773,0,0,0,195.35,186.263a8.92728,8.92728,0,0,1,1.09695-.45123,7.9036,7.9036,0,0,0,1.595-.68208,20.977,20.977,0,0,1,2.956-1.29877,22.20847,22.20847,0,0,0,3.63544-1.54717c1.17251-.71673,2.37539-1.37667,3.5999-1.99336a54.1017,54.1017,0,0,0,4.94257-2.6799c1.6468-1.057,3.382-1.95577,5.04526-2.97968.08686-.05348,2.18561-1.265,2.4997-1.45927,1.644-1.01679,3.31162-1.99691,4.93317-3.04822,2.3103-1.4978,4.58759-3.0465,6.87931-4.573.10956-.073.22216-.1414.2228-.14179.2587-.1238.32656.12057.436.04688.247-.13648.098-.37046.249-.58129,1.89815-1.26762,3.77988-2.6831,5.6732-4.08129,1.42634-1.05334,2.8005-2.17736,4.198-3.26982.12241-.09571.22927-.22532.41123-.19313a20.72491,20.72491,0,0,1,2.37985-2.0407c1.089-.925,2.16382-1.86885,3.26684-2.77429,1.7826-1.46332,3.47844-3.02268,5.17681-4.576,2.19113-2.00407,4.35273-4.04368,6.41827-6.181.82923-.85807,1.69563-1.68029,2.5211-2.54185q2.08933-2.18064,4.127-4.41033c1.16516-1.26968,2.3047-2.562,3.45145-3.847,1.10956-1.24332,2.1481-2.55065,3.20335-3.84171,1.28947-1.57756,2.592-3.14571,3.83737-4.75774,1.44028-1.86438,2.88659-3.72555,4.23463-5.6598.75509-1.08348,1.53-2.15316,2.28573-3.23617,1.31639-1.88634,2.6157-3.78434,3.85244-5.72433.35461-.55626,4.88351-7.94633,5.658-9.26367A24.729,24.729,0,0,0,292.95953,95.38765Zm-80.44087-65.535a1.27123,1.27123,0,0,0-.18017-.59007c-.1261-.19174-.26552-.40992-.08462-.65428.32821.16536.32821.16536.66078,1.73582C212.59608,30.302,212.54243,30.05294,212.51866,29.8526Zm.44306-5.1818c.49769-.249.74739.13652,1.06475.20823C213.60258,25.19292,213.37658,24.80491,212.96172,24.6708Zm2.56263,1.2391c.28242-.11095.43948-.05176.46421.31207C215.72322,26.24662,215.55425,26.20668,215.52435,25.9099Zm1.81913,1.16393a1.86894,1.86894,0,0,1-.83508-.34471l.45333-.524-.2383-.64968c.63513-.149,1.05576.06579,1.50339.75793A4.20191,4.20191,0,0,0,217.34348,27.07383Zm1.30756.66332c-.23484.03551-.3673-.13035-.561-.32827.10378-.18006.13454-.37014.33164-.52356l.41758.47965A.53765.53765,0,0,1,218.651,27.73715Zm22.93,41.32647c-.12038-.14709-.04863-.28275-.00039-.44876C241.75107,68.82026,241.75107,68.82026,241.581,69.06362Zm4.75776-21.9789c-.14479-.01322-.24178-.0772-.2496-.23588C246.34834,46.83323,246.34834,46.83323,246.33877,47.08472Zm.74813.48006c.43413-.08312.53928.11113.6756.4222A.62481.62481,0,0,1,247.0869,47.56478Zm1.28645,30.50216a.13551.13551,0,0,1-.11345-.05587c-.012-.02894.02686-.079.04338-.11973l.12049.06175C248.446,78.01019,248.43046,78.0617,248.37335,78.06694ZM190.72206,182.20763l-.89126-.48934a5.196,5.196,0,0,1,1.428.006A.63284.63284,0,0,1,190.72206,182.20763Zm7.40649-1.60593c.0073-.27283.0848-.35708.30378-.28351C198.493,180.51813,198.39364,180.58505,198.12855,180.6017Zm.46419-1.14154c-.55492.31623-.59921.30685-1.06745-.21379a7.00921,7.00921,0,0,1-2.01051-.0129c-.21727-.067-.506.09779-.78319.16139l-.4326-.241c-.03461-.08563-.00829-.15125.05229-.14086a10.317,10.317,0,0,0,2.246-.29409c.504-.02109.96518.33529,1.42318.11588.31469-.04357.36276-.43936.75344-.39112A1.56192,1.56192,0,0,0,198.59274,179.46016Zm.2924-2.113c.32008-.09641.48843-.04486.56567.31619C199.04823,177.83994,198.94039,177.687,198.88514,177.34713Zm1.24311.007c-.178-.19724-.10359-.31719.1335-.44233C200.42874,177.18225,200.33972,177.29072,200.12825,177.35414ZM219.272,155.49667c-.09233-.18428-.0729-.2925.05968-.37938.13889-.03128.25571.02459.26495.169C219.60947,155.487,219.46536,155.52505,219.272,155.49667Zm4.28338-3.70534c-.06278.00607-.13189-.05355-.219-.09324.07069-.28063.20231-.33085.43281-.16266C223.75411,151.73943,223.65156,151.782,223.55542,151.79133Zm.609,14.23153a.62842.62842,0,0,1-.01989-.667.83165.83165,0,0,1,.73294-.01013C224.89462,165.99082,224.89462,165.99082,224.1644,166.02286Zm4.10641-20.17575c-.05627.33906-.11064.54478-.46049.488C227.77706,146.0195,227.94957,145.92852,228.27081,145.84711Zm-1.67691,2.1438c.236-.11968.35193-.04439.41031.236C226.76027,148.30208,226.63446,148.24563,226.5939,147.99091Zm.451,17.681a3.2346,3.2346,0,0,0-.27607-1.107,5.588,5.588,0,0,1,1.05087-1.07614c.22211.21974-.04784.39774-.001.609.01754.11919.23548.10417.20789.3648A3.51745,3.51745,0,0,1,227.0449,165.67191Zm1.0132-3.09658a1.05749,1.05749,0,0,1-.49705-.57378c.1609-.24077.27059-.452.56326-.55354a3.21081,3.21081,0,0,1,.8.77565A1.39069,1.39069,0,0,0,228.0581,162.57533Zm11.10708-24.91c-.2855-.00731-.41653-.20843-.55815-.33542v-.66224a3.048,3.048,0,0,0,.89851.16535A.698.698,0,0,1,239.16518,137.66535Zm7.308,11.364c-.263-.02834-.14691-.34932-.362-.39762-.39472-.07034-.55577.47851-.943.40122-.27558-.18733-.20383-.44394-.194-.66886.01124-.25553-.36436-.33856-.19669-.76765.592.56832,1.5363.16887,2.03625.87465C246.79143,148.73966,246.72459,148.95376,246.47317,149.02939Zm.11326-4.50816a.38261.38261,0,0,1,.42723-.38362c.19593-.00564.33329.11092.39217.39791C247.09878,144.89978,246.841,144.764,246.58643,144.52123Zm1.39068-24.28863c-.39033-.0961-.5108-.27069-.37622-.64145C247.94392,119.697,248.01489,119.899,247.97711,120.2326Zm4.94714,7.99766c.15922-.37534.39554-.263.75192-.176C253.40089,128.33434,253.20291,128.36622,252.92425,128.23026Zm-.78834-.8209a2.788,2.788,0,0,1-1.12382.65084c-.07946-.51167.26509-.88843.28458-1.28436.48672-.43719,1.03475-.31174,1.56832-.389a2.496,2.496,0,0,0,1.00748.64151A2.97253,2.97253,0,0,1,252.13591,127.40936Zm3.38754-37.2146c.38863.27247.42222.49366.101.78579C255.34843,90.75987,255.33868,90.539,255.52345,90.19476Zm1.32056,35.84476c-.64871-.12784-1.19266.25752-1.79765.37541l.00222.02128-.02778-.00234a.46339.46339,0,0,1-.70523.155.76652.76652,0,0,1,.70523-.155l.01194-.016.01362-.00291c-.04941-.28367.186-.4603.2782-.73366.64121.01813,1.19371-.482,1.89414-.35C257.19814,125.63066,256.9919,125.80048,256.844,126.03952Zm3.99151-68.208a2.296,2.296,0,0,1-1.082-1.13571.556.556,0,0,1-.33948-.49717.57145.57145,0,0,1,.43.39778l1.10007,1.13011c.33562.1369.479.44687.66156.726C261.25314,58.35865,261.079,58.05261,260.83552,57.83154Zm9.45383,41.5938c-.06313.06087-.10956-.00778-.146-.06044a.57894.57894,0,0,1-.40791-.47435c.34-.06532.3955.19524.5081.37424C270.29369,99.3094,270.34574,99.37095,270.28935,99.42534Zm17.88454-9.64586a2.31675,2.31675,0,0,1-1.05175-.91806,1.96262,1.96262,0,0,0-.61116-.61729,8.02426,8.02426,0,0,1-2.47211-2.74224,27.01872,27.01872,0,0,0-3.72915-4.90877,7.2953,7.2953,0,0,1-1.23237-1.64092,14.096,14.096,0,0,0-1.57657-2.17256,1.19064,1.19064,0,0,1-.29747-.95166,1.45445,1.45445,0,0,1-.93665-.68607c-.31916-.42053-.62033-.85492-.92341-1.28741a11.93158,11.93158,0,0,0-2.63342-2.9317,4.95508,4.95508,0,0,1-.90618-.98814c-.40715-.5141-.89147-.96759-1.3485-1.44151-.27579-.286-.55047-.5748-.846-.8396a12.4221,12.4221,0,0,1-2.421-3.11583c-.25248-.43773-.7098-.71824-.86656-1.21581-.09314-.00885-.13031-.07019-.144-.15356a.19833.19833,0,0,1-.16006-.15587.58742.58742,0,0,1-.329-.3073,3.50226,3.50226,0,0,1-.58771-.635c-.182-.20742-.171-.41207-.00794-.69957.25941.25577.59883.37858.482.82286-.04511.17155.1764.249.21519.40271a.76528.76528,0,0,1,.28429.35546l.1565.16764a.35621.35621,0,0,1,.23713.20764c1.24058,1.30166,2.53782,2.54708,3.65386,3.96873.668.85093,1.4646,1.60045,2.19592,2.40237.49821.5463,1.00465,1.08731,1.46876,1.66188.484.59916,1.0115,1.15454,1.54644,1.70551a59.37973,59.37973,0,0,1,4.42014,5.29374c1.02968,1.34158,2.13277,2.62755,3.14361,3.98273,1.78717,2.396,3.52921,4.82559,5.28743,7.24309.0277.03807.02113.10105.03056.15242.02712.02986.0817.08071.07733.08645C288.21137,89.92915,288.20159,89.82879,288.17389,89.77948Z"/>
        <path d="M81.35866,35.47934c.96218-.94934,1.96693-1.85573,2.92208-2.81186.2055-.20576.4999-.22011.67393-.48165a8.63194,8.63194,0,0,1,1.9646-2.06022,44.58226,44.58226,0,0,0,4.44412-3.9604c.8629-.86256,1.70837-1.74858,2.63021-2.5447,1.42244-1.22844,2.91224-2.37849,4.35806-3.58036,2.66919-2.21885,5.47378-4.26231,8.26875-6.31353,2.92651-2.14775,5.9385-4.17914,8.91731-6.2554a2.15464,2.15464,0,0,0,1.07521-1.3796c.99895-.61014,1.9348-1.247,2.85652-1.93119l-.4298-.84739c-.10037-.01127-.16115-.03783-.20293-.02-1.8708.79974-3.87466,1.2-5.7707,1.93161-.95577.36878-1.978.59237-2.92862.96177-1.23227.47884-2.47567.93771-3.69615,1.45179a15.3279,15.3279,0,0,1-2.57932.744,4.79507,4.79507,0,0,0-1.83921.4184,2.53842,2.53842,0,0,1-1.77248.51157c-.01319.09408-.00265.17888-.03039.19414-1.0361.57017-2.168.90987-3.16539,1.33942-.2804.02774-.27192-.35389-.53368-.19523l.11882.401a1.82108,1.82108,0,0,1-.5606.2482,5.8601,5.8601,0,0,0-2.31923.97538A16.0385,16.0385,0,0,1,90.894,13.63987a30.88664,30.88664,0,0,0-5.84054,2.66445c-1.13714.62377-2.26515,1.26494-3.41447,1.86533-.4007.20933-.779.44422-1.15683.68774a4.45942,4.45942,0,0,1-1.026.68106c.00529-.02332-2.2234,1.38886-2.3158,1.52127-1.6811,1.23179-3.073,2.10966-3.34666,2.28814-.732.47742-1.4912.91291-2.22874,1.38215a4.68471,4.68471,0,0,0-1.21632.807l.00245-.0004-.007.01408.24067-.08433c.05369-.04991.12006-.08174.17726-.02488.05921.05889.01533.12245-.0284.17622a4.34827,4.34827,0,0,1-1.14089.94164c-.19141.18726-.34494.4252-.6379.47644a.72232.72232,0,0,1-.67385.32529c.02046-.34468.27467-.40407.49936-.49162a1.34751,1.34751,0,0,1,.64626-.47043c.19765-.39875.734-.43447.91749-.84833l-.012.0042.0165-.01788c-.45489.03568-.73859.38861-1.09131.60628-.85567.52805-1.69265,1.08652-2.53407,1.63749a3.03016,3.03016,0,0,0-1.37319,1.44246c-.20605-.09186-.09949-.27015-.23383-.40968-1.4601,1.00543-2.93348,2.00933-4.39561,3.02937-2.08528,1.45475-4.14715,2.94244-6.16859,4.48479-1.24161.94733-2.46431,1.91943-3.6983,2.8768-.269.20872-.517.47715-.93837.35156a1.49652,1.49652,0,0,1-.52282.786c-1.53652,1.25675-3.0821,2.50363-4.5559,3.8354a.9606.9606,0,0,1-.61164.33878l-.17423.2368c-.00389.21151-.243.25811-.3065.42826-.01735.25073-.2837.33662-.50165.28706l-.14077.07528a5.94872,5.94872,0,0,1-.898.89c-.28989.26375-.239.622-.24339.95433a1.03934,1.03934,0,0,1-.75968-.04689c-2.518,2.04851-4.57687,4.60159-7.11561,6.61563.00323.66652-.41042.905-.95725,1.02641a1.62759,1.62759,0,0,1-.89032.94036c-.20333.0672-.3465.31621-.51726.48237-1.71078,1.6648-3.30137,3.445-4.95842,5.16139-.175.18125-.2995.45561-.6216.36317-.17189.13814.05077.31308-.063.44705-.0856.10078-.16543.20772-.2597.29972-1.159,1.13064-2.16454,2.39984-3.23022,3.61318-1.32619,1.51-2.58931,3.076-3.861,4.633q-1.93192,2.36544-3.82268,4.7644c-.15528.1958-.3849.37463-.3563.67657l.01358.01788c2.19757-2.10826,4.274-4.3342,6.36736-6.544a5.39052,5.39052,0,0,1,1.43571-1.24032,30.54218,30.54218,0,0,1,4.25687-4.4799c.06147.23077-.80224,1.183-.90235,1.30767-.47951.59706-.955,1.19711-1.44368,1.78687-.75984.91689-1.62293,1.7332-2.3974,2.63518A38.146,38.146,0,0,1,18.784,73.0461a26.07562,26.07562,0,0,0-2.62553,3.05625c-.19551.24527-.32211.62717-.6858.56637a7.73806,7.73806,0,0,1-1.72416,2.60216l.02494-.02457a9.02092,9.02092,0,0,1-.95231,1.44966,32.04134,32.04134,0,0,0-2.11964,3.33184,1.58742,1.58742,0,0,1-.23592.31433c-.94507,1.03412-1.80015,2.14481-2.71448,3.20553C6.92485,88.50622,6.239,89.5859,5.49237,90.613,5.386,90.75939.8741,96.87468,0,98.108l.39381.567c-.21364.37944-.0465.69753.17718,1.05465.69937,1.11664,4.462,7.255,4.5296,7.3628,1.57336,2.51063,3.2485,4.95325,4.93574,7.38779.165.23809,2.20286,3.24292,6.11685,8.24492q2.937,3.75336,6.02725,7.3813c2.0633,2.40754,4.16279,4.78685,6.36153,7.07263,2.18644,2.273,4.34153,4.57553,6.635,6.74694,2.31145,2.18837,4.60893,4.393,6.99146,6.50179q3.56673,3.15693,7.28936,6.13681c2.4777,1.97711,4.97772,3.92187,7.53938,5.80788l.5846-1.08749a1.69922,1.69922,0,0,0-.465-.46175c-1.47333-1.12643-2.8941-2.31639-4.31507-3.50813-.88791-.74466-1.74089-1.52887-2.68312-2.22a24.25005,24.25005,0,0,1-4.67693-4.73353,1.01806,1.01806,0,0,1-.44637-.68817,1.9975,1.9975,0,0,1,.59059.515,1.81212,1.81212,0,0,1,.25958.18151,22.11823,22.11823,0,0,0,3.37577,2.62729c.72485.48316,1.44042.98032,2.16142,1.46929,1.3816.93692,2.48166,2.19911,3.75848,3.25868a14.12766,14.12766,0,0,0,2.03685,1.64008,2.006,2.006,0,0,1,.65421.58277l.311-.25039a.80624.80624,0,0,1,.4189.33906,3.86564,3.86564,0,0,0,1.57157,1.47188.79111.79111,0,0,1,.46858.61358c.21157,1.19045,1.16314,1.88685,1.89,2.68355.61363.67259,1.22621,1.35621,1.8524,2.02247a.36751.36751,0,0,1,.2658.32154c-.2153.05535-.283-.09539-.37626-.2026-.71311-.6304-1.39322-1.30419-2.14858-1.87911a14.06488,14.06488,0,0,0-2.31927-1.869.96335.96335,0,0,1-.457.88079c1.7254,1.18257,3.37121,2.3317,5.03841,3.44894q5.53863,3.71164,11.30844,7.05432c.2104.1215,5.09113,2.84907,6.57684,3.65195,2.25826,1.22041,4.55,2.37524,6.85311,3.50766,5.364,2.63742,10.861,4.96632,16.43695,7.11633q4.21546,1.62541,8.49561,3.065c.24935.0844.49679.1762.75015.24652a1.36919,1.36919,0,0,0,1.60721-.69248,1.32135,1.32135,0,0,0-.4347-1.75451c-.51515-.36873-1.04264-.72017-1.56157-1.08373q-3.41145-2.39035-6.81911-4.78617c-.92639-.655-1.83057-1.34134-2.74953-2.01685l-.0933-.36286c-.13982-.14286-.24682-.00667-.41333.03169-2.22415-1.74264-4.51034-3.46153-6.70274-5.29268-.724-.6047-1.48438-1.15493-2.20734-1.75358a41.59915,41.59915,0,0,1-3.95585-3.56155,51.92,51.92,0,0,0-5.60636-5.15595,89.84761,89.84761,0,0,1-7.81051-7.23537c-1.94111-1.96185-3.801-3.99868-5.67838-6.02061-1.8957-2.04164-3.7218-4.14264-5.52786-6.25985q-2.26608-2.65654-4.42218-5.40976c-1.25238-1.60324-2.521-3.19426-3.74023-4.82277q-2.90208-3.87624-5.65663-7.85959c-1.89815-2.73994-3.67211-5.55855-5.48027-8.35609a39.92591,39.92591,0,0,1-4.8-10.14246,34.80912,34.80912,0,0,1-1.07968-4.53756c-.26048-1.61855-.41606-3.23868-.52286-4.87534a42.6703,42.6703,0,0,1,.08046-5.0844,19.7051,19.7051,0,0,1,.55332-3.8324.37763.37763,0,0,0-.04537-.372,4.85352,4.85352,0,0,0-.6067,1.91274,6.65313,6.65313,0,0,1-.39209,1.92629,5.65207,5.65207,0,0,0-.47512,2.39,2.7492,2.7492,0,0,1-.16364,1.00643,6.7861,6.7861,0,0,0-.52022,2.94273.67784.67784,0,0,1-.2579.74039,5.53993,5.53993,0,0,1-.20372-2.40988c.0123-.342.03-.678.01564-1.023a21.68266,21.68266,0,0,1,.23947-3.61978c.169-1.33658.3137-2.6762.47929-4.10326.96829-.57743,1.32125-1.70845,1.97662-2.71024.33432.5.024,1.04094.26592,1.52387.40307-1.428.81462-2.8189,1.30476-4.1853a37.44935,37.44935,0,0,1,3.52115-7.17454c.43357-.69531.85582-1.39772,1.2932-2.0906a1.33028,1.33028,0,0,1,.4459-.54l.01864-.01559c.044-.48194.4231-.761.67941-1.11333.06731-.09252.13688.01254.20364.03635-.04692-.0577-.154-.08975-.084-.19726a.30908.30908,0,0,1,.17438-.33047l-.0279-.0306.02541-.03271a4.20993,4.20993,0,0,1,.63849-.96046l.00268-.00448a12.77058,12.77058,0,0,1,.8152-1.26125c1.3947-2.21557,2.90072-4.3565,4.43078-6.47818,1.62316-2.25077,3.31336-4.45325,4.97869-6.67354a9.66424,9.66424,0,0,1,1.2839-1.60457,8.81716,8.81716,0,0,0,1.1559-1.17935c.36369-.454.74567-.89356,1.12812-1.33206.71264-.817,1.42155-1.63761,2.15135-2.43907a3.98168,3.98168,0,0,1,1.42357-1.24972.50824.50824,0,0,1,.12244-.43765c2.08673-2.173,4.09409-4.4238,6.255-6.46605.30269.06039.06357.39054.31794.42788a.33979.33979,0,0,0,.25946-.28993c.02992-.25032-.28109-.301-.23441-.41881.33977-.36888.60313-.66482.87722-.9505a30.65164,30.65164,0,0,0,2.4847-2.56221,27.73411,27.73411,0,0,1,2.02657-2.53539c.10626-.11075.22068-.21519.18-.38744l-.02229-.00175.00066-.01522-.25954.07944c.02661-.20779.12886-.24464.266-.2291l.00027-.00618.00623-.00148c-.00821-.06471-.0056-.12141.09049-.10939.03755.09584-.03486.09542-.09049.10939l.001.00823-.00747-.00057-.00642.14966.01716-.00524.00447.02221c.31966.04691.42532-.2086.5741-.41l-.22515-.15527A7.55491,7.55491,0,0,1,81.35866,35.47934ZM7.46646,110.29713a.60424.60424,0,0,1,.25-.78685.79852.79852,0,0,1,.62012.39906C8.06021,110.17565,7.60193,109.606,7.46646,110.29713Zm1.36432-.72849c-.15161.11461-.18593-.0405-.25394-.11727-.16169-.1791-.40664-.31-.38081-.68723a1.00774,1.00774,0,0,1,.519.55958A.22091.22091,0,0,1,8.83078,109.56864Zm2.1391,3.35763a.11452.11452,0,0,1-.16578.08106.17872.17872,0,0,1-.03179-.30481C10.93486,112.69252,10.98657,112.79307,10.96988,112.92627Zm.20161-1.99261c-.4005-.39591-.15469-.61363-.041-.9055C11.49052,110.32462,11.31692,110.566,11.17149,110.93366Zm1.83866-17.77881a6.62879,6.62879,0,0,1-.61117-1.42232,4.69847,4.69847,0,0,0,.39567-1.82057.6789.6789,0,0,1,.61355-.77908c-.13769.66962-.25149,1.2915-.39583,1.90623C12.86157,91.68142,13.15827,92.3305,13.01015,93.15485ZM22.08382,128.24c.00545.02078.0044.01689,0,0l-.00136-.0051-.03007-.051-.17041-.16671-.01393-.02934a2.68559,2.68559,0,0,1-.94355-1.23593.18464.18464,0,0,1-.15481-.16191c-.18009-.12288-.38626-.22746-.38812-.57664a.72576.72576,0,0,1,.42971.53015l.18158.14666a2.81229,2.81229,0,0,1,.87519,1.29767c.00965.0051.01747.01163.02735.01658l.17022.16626.01684.06425c.01191.02016.01661.02817,0,0Zm7.40772-4.61959a.30143.30143,0,0,1,.02867-.43248c.268-.05956.40035.06639.4445.32066A.32615.32615,0,0,1,29.49154,123.62038Zm2.3167,2.98172a.8497.8497,0,0,1-.21153.05157c-.39435-.25979.038-.75791-.37031-1.04142-.28475-.13169-.6921.21924-1.03875-.164a5.98973,5.98973,0,0,0,.30763-1.71743,11.173,11.173,0,0,1,1.48041,2.72665A.87343.87343,0,0,1,31.80824,126.6021Zm.55075.74391a.14242.14242,0,0,1-.07349-.18825.14081.14081,0,0,1,.11551-.063.12538.12538,0,0,1,.12349.15485C32.49886,127.332,32.43969,127.37668,32.359,127.346Zm36.28875,40.77881c.173.11158.17122.221.00416.33718C68.53926,168.352,68.51335,168.24317,68.64774,168.12482Zm-5.66691-10.77727c.13392.00118.15854.09615.16932.19947-.03711.0724-.08559.12477-.17251.09822-.07474-.02284-.13341-.0599-.12337-.15672C62.86271,157.40661,62.88742,157.34673,62.98083,157.34755Zm-.44664,4.20195a.633.633,0,0,1,.25379.80915C62.409,162.14416,62.49431,161.86888,62.53419,161.5495Zm-.20581,1.13425a.59893.59893,0,0,1,.467.24831,2.78225,2.78225,0,0,1-.33152.88755C62.09078,163.49649,62.07864,163.40553,62.32838,162.68375ZM58.4743,150.944a1.91953,1.91953,0,0,1-.22378,1.5354c-.13287-.63912.09652-1.11893-.08552-1.54593C58.31919,150.81586,58.44688,150.84656,58.4743,150.944Zm-6.513,2.3934c-.29814.355-.29814.355-.54367.07036C51.54825,153.26754,51.6899,153.33888,51.96131,153.33738Zm-4.49879-27.57709a2.3237,2.3237,0,0,1-.38007.849c-.02677-.45578-.04836-.82352-.074-1.26153A.83339.83339,0,0,1,47.46252,125.76029Zm-.94078,13.72855c.16515-.16241.26471-.07.34085.09863-.07672.17072-.18216.25635-.346.10407A.13912.13912,0,0,1,46.52174,139.48884Zm-.96238,5.32095a.14437.14437,0,0,1-.23873-.08081c-.05778-.177.08217-.20188.20017-.23518C45.64359,144.59542,45.69463,144.70416,45.55936,144.80979Zm-.12559-2.09447c.32167.05667.40213.27024.37276.62732a.85808.85808,0,0,1-.68506-.23993C45.15388,142.8988,45.29534,142.818,45.43377,142.71532Zm-.78019-2.68064a.28.28,0,0,1-.335.226C44.31709,140.00085,44.31709,140.00085,44.65358,140.03468Zm-1.60316,8.98852c-.14.18026-.24308.23445-.3784.12629C42.76769,148.90806,42.76769,148.90806,43.05042,149.0232Zm-1.99191-41.7401c-.56017-.45781-.23079-1.14919-.5036-1.66989a7.876,7.876,0,0,1-.46575-1.68506C40.82822,104.91341,41.75788,105.84159,41.05851,107.2831ZM35.5,142.09444c.06162-.25264.17791-.311.37933-.12782C35.81778,142.21015,35.705,142.27907,35.5,142.09444Zm1.08182-2.58926c.33066-.08606.33066-.08606.36918.27737C36.72834,139.74216,36.60376,139.68166,36.58186,139.50518Zm1.74785-44.66527a10.69857,10.69857,0,0,0-.16577,2.3992c-.36459-.23495-.28694-.57577-.45279-.79341C37.96668,95.90984,37.90112,95.29431,38.32971,94.83991ZM37.90984,140.797c.25927-.01784.51-.1038.57118.31571C38.19432,141.1492,38.00835,141.10418,37.90984,140.797Zm1.13516.70035c-.255-.10629-.29942-.2518-.25293-.43851.063-.01735.12384-.05336.14547-.03712C39.13305,141.1685,39.131,141.17118,39.045,141.49733Zm.38618-1.89484c-.064.33906-.203.39534-.45286.29954C38.96563,139.61124,39.12363,139.57307,39.43118,139.60249Zm2.4984-56.54636c-.18889-.258.00478-.38472.1769-.58645C42.37194,82.85307,42.23055,82.97876,41.92958,83.05613Zm2.83823-37.94142c-.07719-.1475.02-.22856.12333-.29274.06494-.04032.14147-.02571.21508.07311C45.06019,45.0462,45.00677,45.19086,44.76781,45.11471Zm.55076.67533-.01167.00793a.27259.27259,0,0,1-.13777.29383l.00128.02685-.03875.008c-.04093.04577-.08271.094-.18.037l.18-.037.02121-.02269.01626-.01211a.301.301,0,0,1,.13777-.29383c-.00133-.008,0-.0149-.00187-.0232l.06625-.025Zm.39155-.23552c-.01918-.0159-.05731-.04013-.05455-.04635a1.03821,1.03821,0,0,1,.07065-.1212l.05782.04809Q45.74728,45.49491,45.71012,45.55452Zm2.18232-1.97766-.16675.153a3.54111,3.54111,0,0,1-1.28807,1.10459.20074.20074,0,0,1-.12749.1893.37219.37219,0,0,1-.29071.2242c-.10189-.20159.06015-.25645.184-.33178a.21363.21363,0,0,1,.22281-.094,2.92115,2.92115,0,0,1,1.19741-1.18954l.1752-.15376c.046-.04469.10364-.11306.16037-.052C48.01865,43.49085,47.95029,43.54139,47.89244,43.57686Zm.4564-.50312.00028.00707-.006-.00066a.17152.17152,0,0,1-.20752.15332c-.01595-.17241.09248-.16724.20752-.15332l.00156-.00461.00416-.0018c-.009-.13486.01845-.24728.18687-.28159C48.64605,43.00469,48.46478,43.01807,48.34884,43.07374Zm.80369-.62268a1.085,1.085,0,0,1-.09381.09731c-.11111-.08514-.01505-.11164.04615-.148a.25373.25373,0,0,1,.26448-.25911C49.4293,42.33915,49.29819,42.39958,49.15253,42.45106Zm1.435-1.27566a.16411.16411,0,0,1-.16142.14061l-.00331.0156-.01755.00424a.18019.18019,0,0,1-.13881.14065l-.00277.01383a.15676.15676,0,0,0-.01832-.00035l-.06676.071c-.00631-.05207.01727-.0727.06676-.071l.0086-.00918.01249-.0043a.1496.1496,0,0,1,.13881-.14065l.0051-.01673.01576-.00311a.17751.17751,0,0,1,.14691-.15587c.01677-.07043.04155-.12821.13251-.08348C50.72157,41.17582,50.64866,41.16867,50.5875,41.1754Zm.2993-.22446c.0442-.16236.11851-.21865.23371-.22363C51.21957,40.92493,51.12475,40.97329,50.8868,40.95094Zm.81633-.59535-.00447.017-.01455.00271c.00517.09894-.04887.14646-.14785.155-.01031.06664-.02548.12728-.11784.09381-.01771-.09615.05909-.0845.11275-.0989a.15388.15388,0,0,1,.15294-.14993c-.00032-.00582.00136-.00992.00066-.01611l.01836-.0036c.04093-.18337.16858-.28258.38848-.34628A.41968.41968,0,0,1,51.70313,40.35559Zm2.56111,6.50454a.44967.44967,0,0,1-.13-.56785.51572.51572,0,0,1,.4238.24324C54.56249,46.73364,54.42251,46.78638,54.26424,46.86013Zm.43933-1.06272c-.25639-.12862-.51352-.2455-.36222-.67092.35144.18538.66475.35061.99214.52328C55.17643,46.04058,54.946,45.919,54.70357,45.79741Zm5.75522-13.075-.00794.00093a.19963.19963,0,0,1-.084.22212.627.627,0,0,1-.43874.3583c-1.44556,1.19465-2.68616,2.6148-4.20987,3.73069-.99911.73167-1.88773,1.6141-2.82707,2.42756-.09778.08467-.17034.20811-.32417.22006-.15819-.11313-.06688-.21165.02774-.3072.35323-.35668.68175-.74317,1.06571-1.06307,1.58644-1.32179,3.09529-2.73009,4.63839-4.10025a7.08717,7.08717,0,0,1,1.47084-1.06725.986.986,0,0,1,.48473-.30992.227.227,0,0,1,.1964-.111l-.00226-.01182.0528-.02528Zm2.2048,13.09747c.15072-.32173.55842-.36237.61546-.65964a.41165.41165,0,0,1,.39618.12284C63.21365,45.865,63.21365,45.865,62.66359,45.81984Zm5.16673-17.99646c-.1368.15492-.26231.3381-.51807.21934.01377-.24045.1925-.29958.35964-.37024a.60268.60268,0,0,1,.53224-.2879C68.28357,27.71084,68.01329,27.73271,67.83032,27.82338Z"/>
        <path d="M137.34447,194.358c.9284-.11728,1.707-.68161,2.58026-.7304.12479-.4639-.12884-.6123-.3-.85774a7.80217,7.80217,0,0,1-2.53529-.18852c-.4879.217-1.02.41686-1.44458-.13407-.31831-.0557-.369.32877-.65682.31333-.35707-.12152-.3469-.65207-.64816-.71474a.85553.85553,0,0,0-.755.10654.18876.18876,0,0,0,.0223.23416,4.097,4.097,0,0,0,1.35512.806,2.49528,2.49528,0,0,1,1.0038.57126,1.12142,1.12142,0,0,1-.66131.08984c-.237-.00263-.47356-.04479-.73025-.07184-.45111-.31281-.61441-.91916-1.12814-1.1909-.205-.11726-.28673.22686-.55329.10754-.3934-.96736-1.28743-1.0492-2.24108-1.09922-.1154.69.562.41361.75994.6815.11752.14205.10169.28411-.00881.48187l-2.65639-.69782-.65438.36671a31.925,31.925,0,0,1-3.58788-1.59452c-.2659-.06327-.27337.15434-.41676.1613l-.04544-.41021a61.2223,61.2223,0,0,1-5.59628-3.11139c-1.63131-.98283-3.19189-2.06375-4.72021-3.1939-1.01741-.75232-2.011-1.53685-3.01527-2.307l.13366-.12653c.24137-.005.46767.28342.79484.00279a2.97038,2.97038,0,0,0-1.84655-.756c-.69273-.5966-1.42008-1.16936-2.08523-1.807-1.3962-1.33843-2.773-2.695-4.07617-4.12945a64.4253,64.4253,0,0,1-5.69947-7.33572c-.78443-1.163-1.53218-2.35-2.21811-3.5743a1.70741,1.70741,0,0,1,.20809-1.98666,1.732,1.732,0,0,1,2.05571-.25709c.50821.28353.98863.61765,1.50111.89258,1.35427.72653,2.71889,1.43377,4.08069,2.1462a1.0202,1.0202,0,0,0,.29464.111,9.338,9.338,0,0,1,2.46013,1.16855c.81317.39468,1.69961.57954,2.52951.924.03767.26444-.2622.22015-.32387.39476a.59057.59057,0,0,0,.57492.22011c.22073-.1756-.06906-.308.03-.445a.19121.19121,0,0,1,.2248-.0226c1.83932.64477,3.67628,1.29635,5.51587,1.94034a59.79866,59.79866,0,0,0,6.771,1.88181c1.02742.229,2.04517.50515,3.07782.70591,1.93629.37641,3.83889.92085,5.80047,1.16728a2.1177,2.1177,0,0,1,.75354.22526,2.49848,2.49848,0,0,0,1.13782.29888,3.11235,3.11235,0,0,1,1.306.31747,5.55307,5.55307,0,0,0,2.54764.39792c1.11188.00465,2.2237.05956,3.33524.1008a20.32924,20.32924,0,0,1,3.607.42989.66636.66636,0,0,0,.15849.01074c1.88365-.0484,3.756.23949,5.64153.18117.63868-.01977,1.26553-.12123,1.89151-.20332a8.247,8.247,0,0,1,1.80164-.01516,19.41316,19.41316,0,0,0,3.79675-.25316c.47393-.0519.94884-.09515,1.42359-.13917a1.0973,1.0973,0,0,0,1.00041-.52889.42631.42631,0,0,1,.34364-.17657c.02537.1869-.07688.34615-.20947.59108.629-.15473.75246-.86523,1.332-.878.19683.11173-.13921.28619.11345.43559.48952-.11748.898-.52679,1.41507-.6959.18623-.01427.22.22012.37019.23972,2.0443-.56114,4.1749-.674,6.1722-1.38538l.10919-.38739c.17488.03836.0794.2057.1605.31228a1.06531,1.06531,0,0,0,.75027-.00483,95.355,95.355,0,0,0,12.44319-3.57811c1.32337-.52486,2.67886-.94629,4.02771-1.3905a19.70392,19.70392,0,0,0,1.863-.65872c.27425-.12183.53578-.33068.88194-.11942.08513.052.30147-.0671.32411-.268-.03908-.154-.15323-.24468-.289-.183a2.50738,2.50738,0,0,1-.80991.15047,1.63934,1.63934,0,0,1,1.01545-.42468,9.227,9.227,0,0,0,2.87-1.10176c1.45266-.75357,2.87716-1.56224,4.3006-2.37043a1.10039,1.10039,0,0,1,.74254-.20154,1.82363,1.82363,0,0,0,1.06171-.16622,3.96416,3.96416,0,0,1,1.14067,1.33969.7246.7246,0,0,1,.12008.81378l-.52768.93483c-.24317.13026-.395-.23732-.61-.03912-.0592.32253.30882.208.41.406a1.93232,1.93232,0,0,1-.646.94112,8.44336,8.44336,0,0,0-1.64963,1.91028c-1.83337,2.40057-3.64885,4.8172-5.656,7.07439-1.10762,1.2456-2.29478,2.42418-3.49822,3.5851a65.8403,65.8403,0,0,1-9.75657,7.76271c-1.17407.7663-2.32873,1.56418-3.53,2.19537-.22844.25834.055.56961-.17753.7825-.35089.036-.21025-.2973-.33692-.45016a1.07221,1.07221,0,0,0-.20979.0753c-1.4061.85172-2.89079,1.55171-4.36784,2.26636-.5713.27643-1.13968.56038-1.72125.8136-.27061.11785-.53128.21755-.57744.57669a.60849.60849,0,0,0-.75892-.04937c-.75962.31126-1.51714.62885-2.2648.96761-.39247.17782-.76912.36727-1.11684.17516a.82987.82987,0,0,0-.53986.63761,2.92507,2.92507,0,0,1-1.70681.18743,1.76743,1.76743,0,0,0-.67788.07684c-.26563.12041-.2078.33472-.33239.43427a.654.654,0,0,1-.14612.06662c-1.14352.20278-2.22235.63789-3.34135.92772a6.02933,6.02933,0,0,1-1.93651.28094,3.249,3.249,0,0,0-1.10289.1068,1.04969,1.04969,0,0,1-1.27117-.32193c-.23891.43619-.7955.46829-.84893,1.02827-.08474-.2099-.15977-.3943-.40937-.38757a7.14968,7.14968,0,0,1-.79616-.00274,6.30368,6.30368,0,0,1-1.237-.0248c-.3792-.103-.78444.15827-1.20194.12961-.22361-.01537-.48541-.05935-.65618.15689-.56092-.5604-1.32222-.06478-1.96894-.35895a3.34756,3.34756,0,0,0,.49715-1.3856.68806.68806,0,0,0-.69013-.4189c-.45559.38031-.936.77542-1.55454.41849-.28825.24883-.0991.54574-.2101.77807l.0177-.01685a1.46242,1.46242,0,0,0-.91513.198.74708.74708,0,0,1-.6846.05412c-.15212-.24018.21368-.181.1992-.3405-.34769-.57994-.34769-.57994-1.41563.09382l-.78516-.2162c.01524-.25233.20432-.24622.34623-.22548a2.13316,2.13316,0,0,0,1.361-.32195,1.77986,1.77986,0,0,1,.57977-.25384,1.72476,1.72476,0,0,0,1.08588-.67615,14.15023,14.15023,0,0,0,2.7199.2196c.898-.11679,1.65368-.60446,2.55378-.79531a.63947.63947,0,0,0-.50871-.12328,5.36117,5.36117,0,0,1-1.41381-.15113,2.42274,2.42274,0,0,0-1.02669-.04291c-.8291.12129-1.67184.16321-2.49868.23785a7.239,7.239,0,0,0-2.66929,1.07657,1.84167,1.84167,0,0,1-.88916.26614,1.252,1.252,0,0,0-.43443.66027c-1.0345-.16327-1.97836-.56972-2.97825-.78693l.034-.45917a1.446,1.446,0,0,1-.84365-.29637c-.22145.08665-.08583.27705-.22434.38774l-1.63671-.56186a.7941.7941,0,0,1,1.03354-.26456,4.846,4.846,0,0,0,1.89134.42477,1.11123,1.11123,0,0,1,.67371.19566c.11509.2981.46422.37471.59594.70348a.87325.87325,0,0,0,.8663.42206c.37978-.00528.58164-.18617.55609-.54913-.34342-.46181-.934.39549-1.2321-.31315A.82015.82015,0,0,0,137.34447,194.358Zm18.45776-1.55007a.81677.81677,0,0,0,1.08721.49393.61847.61847,0,0,1,.30113-.05132,5.19582,5.19582,0,0,0,2.46976-.27088,11.84255,11.84255,0,0,1,2.0018-.4445c.14955-.01634.33142.0183.37449-.2341a1.82817,1.82817,0,0,0-1.075-.048,4.96587,4.96587,0,0,1-2.62478-.24593c-.42868-.11627-.799-.36289-1.20883-.47082C156.60716,191.86631,155.96019,192.01145,155.80223,192.80792Zm-10.28786,3.23366a1.11279,1.11279,0,0,0,1.85641.16825c.28107-.35847.55742-.62629,1.08019-.47666-.08722-.75377-.80211-.54885-1.0379-.86064A2.25215,2.25215,0,0,0,145.51437,196.04158Zm-23.67872-8.0864c.14039-.88507.95816-.72921,1.52812-1.188-.52879-.09334-.87663-.35665-1.23335-.25894-.25769.12226-.12126.341-.25873.45244l-.5052.09283a1.97425,1.97425,0,0,0-1.51329-.53833Zm3.43073-.0751c-.67874-.10441-.98936-.65542-1.61365-.63318-.30443.351-.95844.37315-1.04836,1.001a.995.995,0,0,0,.54979.25941c.39166-.01051.49414-.346.86587-.38928C124.30881,188.01981,124.74869,188.23459,125.26638,187.88008Zm16.46616-7.81931a8.25152,8.25152,0,0,1,2.02322,1.18275c.08292-.10534.17109-.16607.16937-.22412a3.04177,3.04177,0,0,0-.81464-1.27884,2.12282,2.12282,0,0,0-1.16084-.12869C141.76994,179.63689,141.68832,179.7753,141.73254,180.06077Zm4.78312-.7374c.05874.30082.24143.35614.42984.31745a15.31582,15.31582,0,0,1,1.5755-.17484,1.0112,1.0112,0,0,0,.8088-.56681A7.8672,7.8672,0,0,0,146.51566,179.32337ZM126.0475,188.6731c-.54214-.59974-.72864-.60322-1.37958-.06258C125.0943,189.24459,125.4393,189.27058,126.0475,188.6731Zm4.98118-.05976a3.86935,3.86935,0,0,0-1.14783-.03885c-.18112.16924-.3722.31148-.30761.6273.45995.14288.87658-.15576,1.32131-.16862C130.99724,189.03022,131.0779,188.86208,131.02868,188.61334Zm22.02731,3.72881c-.69613.067-.97374.5287-1.33368.94239.30669.27489.62627.43769.871.12424A1.52115,1.52115,0,0,0,153.056,192.34215Zm-38.08064-21.01291c-.29843-.52514-.29843-.52514-1.1932-.3521C114.02168,171.63784,114.33053,171.729,114.97535,171.32924Zm2.46363,13.32935c.38972.37675.42266.89694.8772,1.07615.33955-.102.411-.33621.29249-.56794C118.398,184.75493,118.01037,184.64054,117.439,184.65859Zm2.91852,1.2507a1.09276,1.09276,0,0,0,1.37172.43968C121.24758,186.0824,120.92306,185.70575,120.3575,185.90929ZM111.12267,169.913a1.01461,1.01461,0,0,0,.70605.7292c.13705-.09017.22559-.1482.20644-.32946A2.1076,2.1076,0,0,0,111.12267,169.913Zm85.11822-5.94763c-.44964-.44672-.60571-.50449-.77962-.30664a.41255.41255,0,0,0,.067.44836A.69866.69866,0,0,0,196.24089,163.96535Zm-80.4036,20.33823c-.2261-.43779-.59555-.53224-1.12628-.48141A1.39089,1.39089,0,0,0,115.83729,184.30358Zm34.46514-3.22353c-.10682-.23365-.23591-.33216-.43446-.29848a.23459.23459,0,0,0-.13693.32758A.39917.39917,0,0,0,150.30243,181.08005Zm46.25414-17.7277c-.078-.39714-.29648-.49456-.63212-.5954C196.01552,163.1429,196.2347,163.23952,196.55657,163.35235Zm-37.74182,27.349c-.38546-.13481-.55508.0142-.65629.38881C158.54637,191.20178,158.716,191.05267,158.81475,190.70137Zm40.09085-27.04293a.83157.83157,0,0,0-.77152.35169C198.52028,163.953,198.77042,163.94889,198.9056,163.65844Zm-71.1572,24.88234c.3045.15163.43951.042.44387-.27958a.15764.15764,0,0,0-.13608-.16148C127.82614,188.25163,127.82614,188.25163,127.7484,188.54078Zm14.96228-6.19216c-.28352-.231-.46695-.24547-.67063.01109C142.27515,182.57821,142.45366,182.62188,142.71068,182.34862Zm8.87085,12.40587c-.32989.08755-.50654.17813-.38829.49576C151.5026,195.25279,151.65344,195.15607,151.58153,194.75449Zm46.27639-31.12861c-.02963-.387-.26143-.426-.54282-.5406C197.35646,163.48937,197.53547,163.592,197.85792,163.62588Zm-2.75441-.72216c-.214.15473-.37387.20058-.37037.42989C195.04812,163.46708,195.1293,163.33048,195.10351,162.90372ZM116.86332,184.484c.111.26135.24155.35916.473.183C117.28851,184.43273,117.165,184.356,116.86332,184.484Zm2.26484,2.73811c-.02756-.25362-.11-.38336-.39349-.29582C118.76544,187.13345,118.78351,187.305,119.12816,187.22215Zm8.57818,4.34254c-.03475-.06939-.06545-.13685-.16755-.12214a.15217.15217,0,0,0-.12966.22359c.01567.0448.13165.08392.19494.07492A.1377.1377,0,0,0,127.70634,191.56469Zm4.99143-2.50043c.02838.26929.13694.32228.33937.24754C132.985,189.1609,132.93076,189.04821,132.69777,189.06426Zm.3342.36352c.049.07034.07741.15628.12976.17486.0627.02224.14122-.02167.11585-.11975C133.25758,189.40552,133.20623,189.369,133.032,189.42778Z"/>
        <path d="M175.866,26.14119c-.53128-.15512-1.04147-.38545-1.57583-.52612a1.767,1.767,0,0,1-1.03188-.51847.76512.76512,0,0,0-.427-.19c-1.38136-.34308-2.75609-.71341-4.14087-1.04152-.34148-.0809-.5248-.34391-.74451-.47137-.35966-.16459-.60934.09-.8625.10179-3.13025-.66086-6.25873-1.13393-9.33575-1.56541-.24779-.11527.057-.41181-.25-.45968-.21237.03188-.07205.26669-.22173.394-.45417.14765-.985-.253-1.46689.07a3.49867,3.49867,0,0,0-1.49042-.26307,8.79054,8.79054,0,0,1-1.57227-.16283c-.4914-.14436-1.0826.11075-1.50868-.40559a1.951,1.951,0,0,1-1.41939.32711c-2.5448-.09112-5.09449-.09563-7.63421.02678a60.72766,60.72766,0,0,0-6.80322.625c-1.43116.232-2.879.36159-4.30943.59734-1.5081.24856-3.01325.52957-4.50405.86575-3.11126.70161-6.19,1.52956-9.22222,2.524-2.35932.77376-4.68279,1.64191-6.98,2.58516a98.96713,98.96713,0,0,0-11.93692,5.94358c-.229.13241-.469.2457-.70507.36573a1.49112,1.49112,0,0,1-1.69956-.25,1.61331,1.61331,0,0,1-.43077-1.816,18.4101,18.4101,0,0,1,1.62967-2.729,1.37355,1.37355,0,0,1,.64273-.451,2.74,2.74,0,0,0,.819-.43925c-.08035-.304-.44-.22629-.54329-.50864a14.4895,14.4895,0,0,1,1.4584-2.12065,62.00676,62.00676,0,0,1,7.5346-8.58653,71.00252,71.00252,0,0,1,8.45806-6.84556A69.72,69.72,0,0,1,135.8766,1.58459,43.56875,43.56875,0,0,1,142.3882.24081a44.16809,44.16809,0,0,1,7.46611-.15915c.68449.0304,1.36354.17,2.04714.23922a1.57171,1.57171,0,0,0,1.14956-.09c.21025.06128.25439.29188.50626.32616a35.31862,35.31862,0,0,1,5.08347,1.18272,60.17494,60.17494,0,0,1,6.866,2.43885,72.44332,72.44332,0,0,1,6.78665,3.2786c1.78488.99334,3.54647,2.02122,5.23812,3.1642a77.67086,77.67086,0,0,1,6.21357,4.68058,72.76289,72.76289,0,0,1,5.88258,5.58336,56.29826,56.29826,0,0,1,4.08613,4.86014,72.34723,72.34723,0,0,1,4.13844,6.11222,4.88752,4.88752,0,0,1,.71984,1.6342l-.18329.7558c-.08549.09043-.188.21231-.30409.3195a1.51964,1.51964,0,0,1-2.088.28213c-.67494-.36459-1.3309-.7642-1.99689-1.14547-2.78482-1.59423-5.69865-2.93008-8.58708-4.31909-1.0468-.5034-2.152-.83066-3.21807-1.27033-1.04949-.43284-2.11855-.818-3.17242-1.2406a19.52656,19.52656,0,0,0-2.09932-.38151C176.67888,26.42345,176.199,26.23843,175.866,26.14119Zm-27.865-21.9303c-.34564-.14252-.61632-.28023-.91205-.13559a.72445.72445,0,0,1-.61082-.07686,2.77945,2.77945,0,0,0-1.09387-.143,11.85714,11.85714,0,0,0-2.43984.20332,2.07727,2.07727,0,0,1-1.24122-.09806,1.49122,1.49122,0,0,0-.93615-.08508,6.74573,6.74573,0,0,1-1.89139.14889,3.41838,3.41838,0,0,0-.859.10981,2.25488,2.25488,0,0,1-1.16351.15146,4.94,4.94,0,0,0-1.38681-.08254c-.32133.42442-.91212.33031-1.48385.58659A1.22464,1.22464,0,0,0,135,4.81485a3.42879,3.42879,0,0,1,.69138-.13839,13.98859,13.98859,0,0,0,2.66979-.08384,18.693,18.693,0,0,0,2.33582-.20934,1.41606,1.41606,0,0,1,.61931.06148,4.51691,4.51691,0,0,0,1.90586.04477c1.5879-.13043,2.89017.11755,4.33264.123a2.0665,2.0665,0,0,0,2.24677-.54778C149.18886,3.97978,148.57249,3.54772,148.00094,4.21089Zm3.34754,15.993a14.625,14.625,0,0,0,2.27713-.585.86411.86411,0,0,0-.74974-.71656l-.43973.4162c-.25336-.045-.46425-.24318-.70051-.08-.24145.16682-.5141-.04748-.74964.06068C150.76479,19.82569,150.76479,19.82569,151.34848,20.20386Zm-16.83764,1.02821c.68917-.30615,1.26327-.06459,1.77093-.2646.063-.29565-.25224-.36642-.2507-.59342l.38327-1.02514a2.79209,2.79209,0,0,1-1.58275.31893c-.18649.12853-.32634.24356-.30706.42473.06312.25224.34521.29343.39269.56118Zm7.15726-2.02122a2.22644,2.22644,0,0,0-1.65849.73508c.07547.64266.13558.71646.59851.765.60306.06322.8346-.02346.94525-.37946-.03238-.20508-.2333-.39054-.18708-.677Zm-7.36435,1.85941c-.24009-.3636-.58138-.40643-.80833-.56159-.15595-.156-.00693-.41251-.26863-.50837a1.703,1.703,0,0,0-.912.679c-.25069.29306-.64547.40675-.9504.80545Zm50.12685-4.17363a12.747,12.747,0,0,0-1.78153-1.53611c-.19636.09156-.48107-.10866-.7384.21594A3.44721,3.44721,0,0,0,184.4306,16.89663Zm-28.0483.626a.77362.77362,0,0,0,1.09443.22513,1.53547,1.53547,0,0,1,1.43861-.06721c.13384.06289.1428.04381.53486-.06545C158.4694,16.98048,157.4828,17.40783,156.3823,17.52267Zm4.81064,2.26642c-.26908.0815-.44828.1739-.49385.427a.71681.71681,0,0,0,.30753.47588c.38476-.03806.79131.11732,1.23723.084A13.81748,13.81748,0,0,1,161.19294,19.78909Zm-3.27257-3.84683c.6951.28085,1.43058.44984,2.09183.7956a.19921.19921,0,0,0,.241-.03942c-.5048-.69939-1.39284-.57909-2.04282-.95222C158.11979,15.6942,158.01033,15.76946,157.92037,15.94226ZM165.16842,4.5157c-.36356-.16554-.66848-.52556-1.15915-.08843.30637.19982.50166.45862.83069.47032A.48264.48264,0,0,0,165.16842,4.5157Zm-10.0359,15.5507c.56484.43885.56484.43885.90245-.02093C155.5842,19.70886,155.5842,19.70886,155.13252,20.0664Zm6.484-2.85557-.64584-.71752c-.04766.17277-.33689.09505-.29952.3536Zm21.66438,1.68861c-.32631-.64617-.4932-.84279-.84036-.98613C182.76649,18.14632,182.90529,18.528,183.28093,18.89944Zm-46.342.88354c.25351.27475.42785.22669.64751.04225C137.37558,19.47459,137.19612,19.40093,136.93891,19.783Zm22.70092,1.90312c.294.08825.49088.15692.43577-.19028C159.91458,21.47177,159.81985,21.563,159.63983,21.6861Zm13.25432-.8154c-.20824-.21814-.21877-.489-.48212-.23094C172.45893,20.784,172.56055,20.84,172.89415,20.8707Zm23.78394,10.58761c-.07051.29044.0187.37483.25568.4076C196.95709,31.6841,196.9034,31.58412,196.67809,31.45831Zm-47.183-13.35557c.00667-.08542-.03188-.14315-.11668-.14394a.14029.14029,0,0,0-.11112.06323.12587.12587,0,0,0,.07066.17366C149.4158,18.22283,149.47035,18.18,149.49513,18.10274Z"/>
        <path d="M166.93645,87.34869l.215.12609a8.89008,8.89008,0,0,1,5.70285-3.05007,9.75051,9.75051,0,0,1,4.75351.50979,12.90666,12.90666,0,0,0,2.98442.71279,11.20255,11.20255,0,0,0,4.45712-.50669,23.76454,23.76454,0,0,0,3.79192-1.59932,8.2184,8.2184,0,0,0,2.2941-1.8172,1.3,1.3,0,0,1,.52829-.422A1.959,1.959,0,0,1,191.79,82.691a8.57774,8.57774,0,0,1-.38522,1.7743,8.36936,8.36936,0,0,1-5.46168,5.53342,13.33793,13.33793,0,0,1-4.35765.70826,10.74468,10.74468,0,0,1-3.73681-.58559,6.20519,6.20519,0,0,0-1.22171-.31575,1.77309,1.77309,0,0,0-.85216.01922c-.16345.18155.08635.28985.03871.52254a2.28163,2.28163,0,0,0-.73426,2.48955c.08406.0359.15781.09743.22663.09235a12.9973,12.9973,0,0,1,3.81714.59424c1.75077.39322,3.4972.80336,5.28358,1.02712,1.2795.16027,2.55758.33278,3.837.49428a15.8919,15.8919,0,0,1,1.9448.36188,21.26639,21.26639,0,0,0,2.6745.34425c.91668.11533,1.818.26589,2.72237.46921a17.47636,17.47636,0,0,0,5.13109.72606c.19943-.01472.42625-.07147.60308.0946.05694.14768.01922.25988-.16148.3691-.47483-.32132-.98442-.02542-1.49288.02842a11.55116,11.55116,0,0,0-2.87318.47253,15.105,15.105,0,0,1-2.95567.53548c-1.54317.24635-3.10994.237-4.66241.3803-1.26133.11644-2.51127.35429-3.77213.47893a49.28146,49.28146,0,0,0-5.14846.86508c-1.16125.24068-2.31982.50165-3.46587.8053a7.71058,7.71058,0,0,1-1.73679.11631,1.29685,1.29685,0,0,0-1.41567,1.01336,1.48977,1.48977,0,0,0,.74184,1.53429,3.537,3.537,0,0,0,3.11244.3239,12.46373,12.46373,0,0,1,4.91579-.687c.94845.0718,1.8946.20283,2.83368.35678a7.88013,7.88013,0,0,0,1.41566.12076c.19762.1522.38631.29349.57075.44019a15.73149,15.73149,0,0,1,2.99987,2.89893,8.29778,8.29778,0,0,1,1.425,3.47872,5.04118,5.04118,0,0,1,.12958,1.85456c-.17737.30839-.4795.34188-.7895.51576a2.38715,2.38715,0,0,0-1.22836-1.85929c-.77171-.55264-1.49293-1.17527-2.31822-1.65371a7.91806,7.91806,0,0,0-4.3809-1.176c-.47285.02017-.95044-.09145-1.4249-.0838a12.67212,12.67212,0,0,0-2.883.48771c-.15228.03835-.30548.073-.44451.10616-.34013-.109-.22832-.669-.79864-.56414-.25361.17369-.00348.49127.01258.80574a4.58449,4.58449,0,0,1-1.94645.5355,12.49279,12.49279,0,0,1-2.70121.00072,8.6745,8.6745,0,0,1-4.15937-1.60417,5.16967,5.16967,0,0,1-1.39163-1.27924,3.61514,3.61514,0,0,1,.63394-4.61682,3.18833,3.18833,0,0,1,1.22663-.85468.91223.91223,0,0,0,.68657-1.05457,5.25617,5.25617,0,0,1-1.3641-3.09312,3.8984,3.8984,0,0,1,1.36222-2.99561l-.10106-.77478a1.68822,1.68822,0,0,0-.73083-.55034,4.1972,4.1972,0,0,1-2.2941-3.14743,3.496,3.496,0,0,1,.2709-1.70619c-.00073-.16386-.21264-.23887-.18459-.41827A.84562.84562,0,0,0,166.93645,87.34869Zm8.85072,21.4078c-.36626-.08144-.59925-.08018-.78065.21958A.85415.85415,0,0,0,175.78717,108.75649Z"/>
        <path d="M116.71768,101.23949l-.02416.29028a7.30213,7.30213,0,0,0-1.7961-.28349c-.22576-.24683.08334-.38267.0192-.5292a.5609.5609,0,0,0-.48348-.398c-.80268-.14992-1.60045-.32579-2.40141-.48518a1.43683,1.43683,0,0,1-.62488-.30446l-.67709.11518c-.23028-.292-.02189-.47739-.02437-.67438-.15554-.09908-.637.159-.94535.493-.63805-.09674-1.25972-.22023-1.88745-.27933a24.4089,24.4089,0,0,1-2.83442-.34132c-.69483-.14864-1.38526-.32035-2.07156-.50454a1.63514,1.63514,0,0,0-.544-.08583,18.96942,18.96942,0,0,1-3.71563-.20362c-.82071-.1013-1.63593-.09629-2.45277-.15149a5.53649,5.53649,0,0,1-.83961-.18471,4.31225,4.31225,0,0,0-1.12634-.43919s1.05456-.24212,1.07147-.36542a2.66567,2.66567,0,0,1,1.18175-.39793,17.32311,17.32311,0,0,1,2.571-.42819,10.81647,10.81647,0,0,0,1.94744-.277c1.02969-.22441,2.09229-.295,3.13867-.44659a17.63425,17.63425,0,0,0,2.10263-.36407,15.993,15.993,0,0,1,1.95664-.26491c1.90647-.27626,3.80394-.58238,5.67654-1.03725.9997-.24282,1.994-.5202,3.00563-.69693a13.3699,13.3699,0,0,1,1.826-.054,1.37,1.37,0,0,0,1.38-.98391,4.62951,4.62951,0,0,0,.00928-.86863,3.18156,3.18156,0,0,0-3.35858-1.20936,13.25654,13.25654,0,0,1-2.45343.61c-.141.00625-.27621.14319-.4251.22582a1.732,1.732,0,0,0-.76625-.10667,9.95928,9.95928,0,0,1-2.2122.014,10.38789,10.38789,0,0,1-5.53509-1.91683,8.82764,8.82764,0,0,1-3.33725-5.41947,1.62783,1.62783,0,0,1-.01576-.31749c-.00164-.39574-.00065-.79148-.00065-1.13389.14825-.22817.35039-.22547.54829-.34706,4.03063,4.6291,8.96691,5.14426,14.564,3.19436a1.08865,1.08865,0,0,0,.99958-.04094,4.31225,4.31225,0,0,1,2.41175-.25408,12.70553,12.70553,0,0,1,3.26053.90023,6.47882,6.47882,0,0,1,2.17444,1.42389,3.41758,3.41758,0,0,1-.01345,5.04466,3.86406,3.86406,0,0,1-1.39724,1.01731.94285.94285,0,0,0-.35754,1.65528,4.29747,4.29747,0,0,1,.9021,1.48114,3.41156,3.41156,0,0,1-.35386,2.90377,3.31511,3.31511,0,0,0-.25973.75348l-.55356.4213a.79782.79782,0,0,0-.06.5233c.35865.16558.55606.57806.93241.77672a7.45016,7.45016,0,0,1,2.46775,1.83091,3.12055,3.12055,0,0,1-.12222,2.71548,8.64088,8.64088,0,0,1-5.67764,3.5716,10.06458,10.06458,0,0,1-5.52406-.44039,14.24543,14.24543,0,0,0-3.15106-.77574,5.60233,5.60233,0,0,0-1.031.02208c-.31789.01234-.63653.05494-.95315.04228a10.56572,10.56572,0,0,0-6.1957,1.77428,6.18672,6.18672,0,0,0-2.11142,2.2217c-.09609.173-.17152.33692-.46385.24278a6.1922,6.1922,0,0,1,.2339-2.78089,8.54247,8.54247,0,0,1,6.18793-5.93336,13.40934,13.40934,0,0,1,3.673-.5248,11.61334,11.61334,0,0,1,3.6691.56758,3.92844,3.92844,0,0,0,3.4867-.13505c.09261-.05448.24507-.0072.403-.0072.04207-.38988.42227-.64958.43616-1.0179l-.81253-.855a13.94884,13.94884,0,0,1-2.66432-.55046.14766.14766,0,0,0-.05752-.1839C116.54147,101.18452,116.60448,101.223,116.71768,101.23949Zm4.99946,1.40794c-.00872.24505-.1595.49666.0972.82514C121.87791,103.11826,122.18525,102.8763,121.71714,102.64743Zm-2.06334,4.521c-.05619.152.00371.26269.15173.27911a.14761.14761,0,0,0,.15366-.20428A.17784.17784,0,0,0,119.6538,107.1684Zm2.43973-10.08192c.11473-.16707.1957-.28976-.12867-.29262A.21524.21524,0,0,0,122.09353,97.08648Zm-2.30239-.85289c.20054-.00107.28855-.05352.24623-.22222C119.8579,95.93815,119.73125,95.93225,119.79114,96.23359Zm2.36436,3.07957c-.18341.01-.20986.09248-.11256.23613A.19519.19519,0,0,0,122.1555,99.31316Zm-2.29756,2.40168c-.01181-.19656-.04585-.30277-.22-.256C119.56892,101.62411,119.6352,101.69862,119.85794,101.71484Zm5.47357,5.64453c-.0142-.02132-.02364-.05239-.04352-.06208-.05762-.02813-.09588-.00137-.09784.06862-.00058.02065.01774.05607.03392.06042C125.288,107.44351,125.325,107.41677,125.33151,107.35937Zm-7.11232-1.26878c-.09209.13673-.10645.22952.0182.30559A.217.217,0,0,0,118.21919,106.09059Z"/>
        <path d="M157.04,134.71853a4.10332,4.10332,0,0,0-.8663-1.58363,10.02607,10.02607,0,0,0-2.80363-2.77877c-.60336-.42032-1.21306-.83152-1.84987-1.26735a15.74552,15.74552,0,0,0-.86848,2.60731,53.0653,53.0653,0,0,0-1.69876,7.07325c-.2248,1.40385-.424,2.8153-.5659,4.23487-.12317,1.23232-.39469,2.45158-.63555,3.66971-.15777.79787-.37774,1.58344-.57567,2.3984.52754.6011.21471,1.31324.24234,1.98775-.21661.04171-.31392-.09088-.24526-.21034.25809-.449-.03089-.85024-.05582-1.28056-.31624.94772-.15626,2.04883-.94861,2.93992a1.34255,1.34255,0,0,1-.07608-.96759,14.31705,14.31705,0,0,0-.06626-4.33372,1.75561,1.75561,0,0,0-.2444-.74493,3.16761,3.16761,0,0,1-.38673-1.34551c-.11924-.5932-.18786-1.19636-.29319-1.79259a7.63827,7.63827,0,0,0-1.09638-2.6979,2.3817,2.3817,0,0,1-.26417-2.11432,4.05617,4.05617,0,0,0-.17259-1.946c-.15331-.97018-.64185-1.843-.80759-2.80964a5.12788,5.12788,0,0,1-.20214-1.091c.063-1.1182-.31291-2.20228-.21588-3.31817a.192.192,0,0,0-.13538-.21436c-1.245,1.0048-2.75382,1.70814-3.81,2.99326-.3015.36685-.57155.76058-.84205,1.15163a28.51838,28.51838,0,0,0-1.38417,2.5888,2.25528,2.25528,0,0,0-.31958,1.29381,3.65709,3.65709,0,0,1-.17478.9324,35.82056,35.82056,0,0,0-.32858,4.34508,1.87081,1.87081,0,0,1-.08824.894,5.62075,5.62075,0,0,1-1.36643-1.084,8.31165,8.31165,0,0,1-2.36747-4.57456,9.30808,9.30808,0,0,1,1.52558-6.87548,13.42076,13.42076,0,0,1,3.9909-3.92522c.02246-.01416.046-.0267.06771-.04189a2.08835,2.08835,0,0,0,1.13465-2.02936c.17891-.33948.615-.4185.781-.77108l-.01641.01369a6.413,6.413,0,0,0,1.38206-1.71048,6.69263,6.69263,0,0,1,5.40238-3.65813,8.85794,8.85794,0,0,1,3.45087.22714,6.71666,6.71666,0,0,1,4.08973,3.28784c.39474.689.69484,1.42994,1.133,2.09721a10.25424,10.25424,0,0,0,2.7526,2.9148,12.50942,12.50942,0,0,1,4.607,5.64673,8.35223,8.35223,0,0,1,.49615,4.57187,9.2533,9.2533,0,0,1-2.73508,5.15429,5.6737,5.6737,0,0,1-.92783.70744,3.10345,3.10345,0,0,1,.01046-1.34957,6.91051,6.91051,0,0,0-.10288-2.67459c-.15662-.88077-.37027-1.75129-.53158-2.63132a3.7512,3.7512,0,0,0-1.013-1.927Zm-11.91678,6.40988a52.82668,52.82668,0,0,0-1.55919-8.018.51113.51113,0,0,0-.62723.04157,13.35923,13.35923,0,0,1,1.4266,6.40275Z"/>
        <path d="M131.72926,55.66751a.86036.86036,0,0,0,.79528-.03744,6.86519,6.86519,0,0,1,1.97172-.57947c.36884-.25816.41634-.79891.93709-1.04373.092.55074.16658,1.05129.26038,1.5482a16.42168,16.42168,0,0,0,1.27721,4.06738,9.81171,9.81171,0,0,0,3.79732,4.16517c.513.31758.99276.68892,1.5055,1.04808a49.57513,49.57513,0,0,0,2.02937-7.21506c.29808-1.44743.60461-2.89316.86088-4.34828.10509-.59673.1051-1.21139.197-1.81113.168-1.09651.13511-2.21777.40648-3.29926a2.70641,2.70641,0,0,0,.09013-.78657,13.3215,13.3215,0,0,1,.26532-2.36271c.083-.62677.17357-1.25257.251-1.88.03912-.31693.06476-.63066.51093-.71251a11.5119,11.5119,0,0,1,.44355,2.17269c.29054,1.60714.52635,3.22446.7655,4.84068.14208.96026.322,1.92587.46851,2.88717.16273,1.0674.33681,2.13347.49884,3.20126.24215,1.59583.66,3.14793,1.04859,4.71025.323,1.29849.85839,2.53184,1.11762,3.84888a1.23153,1.23153,0,0,0,.40729.798A7.811,7.811,0,0,1,153.66,63.39267c.68709-.47046,1.11686-1.24352,1.92934-1.57657a1.481,1.481,0,0,1,.37532-.75059,12.98536,12.98536,0,0,0,2.42134-5.55073c-.08528-1.50263.22776-3.02592-.23357-4.50882a.376.376,0,0,1,.00833-.33728c.27033-.26394.53739-.04867.74369.11819a8.90311,8.90311,0,0,1,3.21525,4.71146,8.20111,8.20111,0,0,1,.21646,3.77c-.16921.81823-.14991,1.68729-.38091,2.49812a5.132,5.132,0,0,1-1.93282,2.626,2.78178,2.78178,0,0,0-.43053.34732,11.84491,11.84491,0,0,1-2.57086,2.18571A9.50262,9.50262,0,0,0,155.728,68.0917c-.16422.1557-.3037.459-.6607.3119a.52038.52038,0,0,1-.08517.59427,9.742,9.742,0,0,0-1.355,2.23955,7.339,7.339,0,0,1-2.26054,2.82121,6.2786,6.2786,0,0,1-2.12373,1.02054,8.40873,8.40873,0,0,0-1.77007.71045c-.32759.046-.66842-.07478-1.01455.001a.93032.93032,0,0,1-.68976-.13441,1.99533,1.99533,0,0,0-2.04092-.114c-.3039-.3849-.81761-.54477-.88564-1.10042-.01938-.15825-.20819-.22477-.33158-.32453a7.86294,7.86294,0,0,1-2.50439-3.228A12.25867,12.25867,0,0,0,138.6662,68.737a1.364,1.364,0,0,0-.42627-.345c-.53453-.35442-1.13661-.63642-1.35834-1.33419-.05355-.16849-.30328-.28477-.47768-.4031a12.60732,12.60732,0,0,1-3.55916-3.79651,9.21347,9.21347,0,0,1-1.47723-4.7965A5.57388,5.57388,0,0,1,131.72926,55.66751Z"/>
        <path d="M122.72019,55.78664c.1837.06417.24316.1571.254.26228a17.02019,17.02019,0,0,0,1.08416,4.35663,7.94244,7.94244,0,0,0,3.932,4.76655c.45312.21214.85.54195,1.2968.77059a13.6846,13.6846,0,0,0,2.494.99249,9.84058,9.84058,0,0,1,6.85638,6.98685,3.31716,3.31716,0,0,1-.6763,3.054c-.492.5943-1.17188.98135-1.63485,1.63546-.45081-.06866-.92.18687-1.34909-.205-.12559-.11468-.40491-.07738-.6143-.08123a2.97536,2.97536,0,0,1-2.59182-2.76008,5.21427,5.21427,0,0,0-.4448-2.26147,3.168,3.168,0,0,1-1.78741-.53956,2.9058,2.9058,0,0,0-.96255-.33078,6.56132,6.56132,0,0,1-3.16379-1.69606c-.49928-.43283-.93463-.93893-1.40536-1.40539a1.87759,1.87759,0,0,1-.4506-.64574,1.19039,1.19039,0,0,0-.29163-.46858A8.895,8.895,0,0,1,121.5801,65.672a10.0355,10.0355,0,0,1-1.1201-3.67487,7.41233,7.41233,0,0,1,.39629-3.73071,6.18512,6.18512,0,0,1,1.45995-2.24426A.58818.58818,0,0,1,122.72019,55.78664Zm6.2953,15.36318c-.1148.554-.00475.8668.41272.92876a4.72638,4.72638,0,0,1,1.07478.45051c.1274.05078.26515.20529.4148-.00943A3.37932,3.37932,0,0,0,129.01549,71.14982Z"/>
        <path d="M169.07245,124.47187a3.27318,3.27318,0,0,0,.98919.99468,8.98945,8.98945,0,0,1,2.41241,3.31191,10.19613,10.19613,0,0,1,.9666,4.85334,6.9431,6.9431,0,0,1-.65372,2.43693.8007.8007,0,0,1-.59919.48306c.05911.88516-.60725,1.21548-1.10449,1.79106a3.95111,3.95111,0,0,1-.50527-1.56355,1.74407,1.74407,0,0,0-.04155-.55186c-.69158-1.62335-1.05687-3.38807-2.09445-4.86142-.09112-.12939-.19823-.24752-.27744-.34552-.31674-.19272-.669.01294-.9837-.19731a4.84147,4.84147,0,0,0-2.35711-2.62535,10.2099,10.2099,0,0,0-2.53206-1.10929,9.91859,9.91859,0,0,1-5.40441-3.568,8.95059,8.95059,0,0,1-1.7285-3.62879,3.44845,3.44845,0,0,1,2.44107-4.1,3.97948,3.97948,0,0,1,4.69384,1.72032,3.0496,3.0496,0,0,1,.26174,2.4612,1.524,1.524,0,0,0,.18994,1.27189,3.36024,3.36024,0,0,0,2.00629,1.58705,12.492,12.492,0,0,1,3.95369,1.54712A1.39829,1.39829,0,0,0,169.07245,124.47187Z"/>
        <path d="M109.63889,67.282a.46532.46532,0,0,1,.19914.39045,2.84921,2.84921,0,0,0,.76744,1.70494.88934.88934,0,0,1,.20151.24427c.35322.98228,1.22595,1.509,1.92878,2.17463a7.02076,7.02076,0,0,0,1.74.9235,19.93605,19.93605,0,0,0,2.96588,1.30393,10.27042,10.27042,0,0,0,4.53071.4248,8.53792,8.53792,0,0,1,3.61489.36683,10.10784,10.10784,0,0,1,3.731,2.03335,13.80826,13.80826,0,0,1,1.627,1.84085,3.44989,3.44989,0,0,1,.59162,1.94371c.04494.48264-.04331.58669-.60956,1.01289-.36345.02654-.67073-.3451-1.08768-.15063-.14094.539.53555.5043.6517.8779.06533.69755-.51107,1.17333-.61743,1.88437-.66755-.42794-1.26563-.047-1.88676-.00412.08383.25548.42142.23991.54136.58-1.23089-.12548-2.35865-.52492-3.592-.66573a1.40772,1.40772,0,0,0-1.02532-.55167,1.224,1.224,0,0,1-1.10173-.95519c.52894-.39706,1.28162-.51652,1.71249-1.15245a4.38687,4.38687,0,0,0-3.1799-2.14943,2.50938,2.50938,0,0,0-.71366.02716,10.14354,10.14354,0,0,1-9.62026-3.2474,8.87017,8.87017,0,0,1-2.42953-5.16317,6.08128,6.08128,0,0,1,.59885-3.296C109.27488,67.47562,109.37174,67.30524,109.63889,67.282Zm18.88078,15.76387c.33.25744.495.09246.65513-.08965-.04613-.204-.083-.35749-.25242-.44236A1.14839,1.14839,0,0,0,128.51967,83.04584Z"/>
        <path d="M165.47494,117.84476c-.11271.206-.06237.40466-.291.47479-.33679-.19591-.11843-.57224-.2523-.87148a9.92731,9.92731,0,0,1-1.95507-2.02509,3.66462,3.66462,0,0,1-.18521-3.69108,4.27288,4.27288,0,0,1,2.356-1.89568,9.06148,9.06148,0,0,1,2.17835-.64259c.20564.07566.21508.28251.276.485l.38262-.35753a1.87472,1.87472,0,0,1,1.45883,1.46651,5.27105,5.27105,0,0,0,1.599,3.02182c.13346.11471.13893.27879.20558.419a4.09012,4.09012,0,0,0,2.474.25389,10.16952,10.16952,0,0,1,10.11595,4.76743,8.25493,8.25493,0,0,1,1.31981,3.19954,6.92592,6.92592,0,0,1-.45932,3.80356.82617.82617,0,0,1-.47038.47379,8.66609,8.66609,0,0,0-2.24659-3.62757,8.29755,8.29755,0,0,0-3.38113-2.29766c-.868-.31148-1.69864-.7101-2.587-.98086a10.08841,10.08841,0,0,0-3.04837-.3948c-.84912.00541-1.69813.02744-2.54726.03355a8.93808,8.93808,0,0,1-4.50435-1.32417C165.77747,118.05842,165.65241,117.96313,165.47494,117.84476Zm2.0826-5.57673-.77257.929a.86943.86943,0,0,0,.615.61787c.19955-.08757.38833-.17774.41943-.47117A1.94749,1.94749,0,0,1,167.55754,112.268Zm-.4053,2.31852c-.39439.17749-.43559.44311-.23647.9072.18653-.292.36832-.4557.41229-.70433Z"/>
        <path d="M122.077,137.3621a.35815.35815,0,0,1-.40267-.18065,6.22144,6.22144,0,0,1-1.152-2.74855,10.00621,10.00621,0,0,1,3.99041-9.5978,10.28216,10.28216,0,0,1,4.287-1.93748,3.37016,3.37016,0,0,0,2.50454-2.3,9.82049,9.82049,0,0,0,.51173-3.40069,1.799,1.799,0,0,1,.51333-1.33556,4.49466,4.49466,0,0,0,1.98341-.22726,7.70588,7.70588,0,0,1,1.61793-.02159,10.05612,10.05612,0,0,1,1.21345.653,3.48179,3.48179,0,0,1,1.27266,4.49522,9.55537,9.55537,0,0,1-6.44921,6.17747,13.20456,13.20456,0,0,0-2.99452,1.24813,4.17952,4.17952,0,0,0-1.65888,1.65721,10.48633,10.48633,0,0,1-1.92182,2.41838c-.02311.02333-.09554-.00223-.14647-.00508-.193-.19668.13441-.3148.04937-.56338a9.63931,9.63931,0,0,0-1.8333,3.84579c-.21341.32825-.43863.24575-.58834.32028-.09243.31675.26871.20963.32892.45618a14.98806,14.98806,0,0,0-.41968,2.029c-.26422-.362-.6624-.43951-.62272-.8773.18157.08159.36262.26392.57061-.02873C122.535,137.21,122.33521,137.11644,122.077,137.3621Z"/>
        <path d="M173.36309,75.03028c.07053-.37613.20252-.541.49564-.54588a10.19451,10.19451,0,0,0,3.078-.65262,17.32261,17.32261,0,0,0,3.63742-1.50075,7.114,7.114,0,0,0,3.579-4.62822.85993.85993,0,0,1,.09717-.21727,1.43282,1.43282,0,0,1,.11495-.153c.33276.131.40285.45076.49819.73643a7.1546,7.1546,0,0,1-.7149,6.158,10.50871,10.50871,0,0,1-4.17871,4.12737,9.82867,9.82867,0,0,1-4.31559,1.21291,1.47531,1.47531,0,0,0-.95425.30756c-.22035-.01443-.20941-.29889-.48777-.36817-.525.15862-1.10026-.1599-1.63617-.13493-.66578.1371-.41638.87027-.87835,1.12444-.43109.16293-.92732-.24567-1.48494.19679a1.3946,1.3946,0,0,0-.08579.475,3.73778,3.73778,0,0,1-.99553,2.01691,2.51714,2.51714,0,0,1-1.4552.90511,12.39719,12.39719,0,0,1-2.425.29745,1.07479,1.07479,0,0,1-.79267-.2982c-.41138-.41062-.83868-.80729-1.2255-1.24a3.36817,3.36817,0,0,1-.62742-3.62011,3.76951,3.76951,0,0,1,.96687-1.43862,14.81128,14.81128,0,0,1,1.95307-1.73654,9.67667,9.67667,0,0,1,3.03239-1.31677,8.22108,8.22108,0,0,1,1.60019-.33668c.95256-.04893,1.87983.13775,2.82164.13079C173.18963,74.52973,173.26532,74.73613,173.36309,75.03028Z"/>
        <path d="M109.80774,126.68411c-.36307.10472-.47961-.0631-.54933-.22805a6.68593,6.68593,0,0,1-.59154-3.84736,9.86562,9.86562,0,0,1,2.85106-5.279,10.661,10.661,0,0,1,5.32674-2.80831,9.37456,9.37456,0,0,1,3.78843.01,3.89373,3.89373,0,0,0,1.49116-.1171,1.45181,1.45181,0,0,0,1.1466-1.18827,26.82141,26.82141,0,0,1,1.20435-2.84046.99528.99528,0,0,1,.54507-.54887c.25845-.13043.49583-.30257.76809-.47248a2.85457,2.85457,0,0,1,1.89359.27517,2.63266,2.63266,0,0,0,.83817.19668,3.72111,3.72111,0,0,1,2.97568,3.55107,3.01882,3.01882,0,0,1-.62131,1.99586,9.76868,9.76868,0,0,1-6.577,4.03478,11.82206,11.82206,0,0,1-3.33218-.01987,8.73607,8.73607,0,0,0-4.22072.25909,13.15628,13.15628,0,0,0-3.34943,1.58651,3.39021,3.39021,0,0,0-.534.46521,16.77139,16.77139,0,0,0-2.79028,3.9235A2.42579,2.42579,0,0,0,109.80774,126.68411Z"/>
        <path d="M170.10146,68.56984a12.88291,12.88291,0,0,1-3.08411,1.91587,15.21141,15.21141,0,0,1-1.73943.51257,3.15773,3.15773,0,0,0-2.12231,1.29672l.34506.10425c0,.06354.02.14049-.00292.15662a1.63189,1.63189,0,0,0-.6883,1.656c.04453.39351.00188.79606.01807,1.19374a2.6388,2.6388,0,0,1-1.75517,2.72791c-.26483.11459-.52471.24518-.79777.33542a2.74882,2.74882,0,0,1-2.228-.087,5.746,5.746,0,0,0-1.0108-.30578,9.95931,9.95931,0,0,1-.17825-2.077,1.49519,1.49519,0,0,1-1.01343-.79c-.2.1528-.23944.49558-.64469.457a3.94358,3.94358,0,0,1,.29746-2.74824c.142-.0545.24684-.06257.32618.02928a.53825.53825,0,0,1,.08466.59532c-.06221.14007-.21736.23921-.278.37954-.11571.26762-.22595.558.19243.777a5.60213,5.60213,0,0,1,.34191-1.2618,4.6617,4.6617,0,0,0,.50165-2.28779,1.5455,1.5455,0,0,1,.39412-.93273,9.28239,9.28239,0,0,1,4.488-3.13816,15.10808,15.10808,0,0,0,3.07879-1.20592c.11149-.06969.24706-.10435.35066-.18272.90762-.68654,1.8167-1.3714,2.71172-2.07416a4.21258,4.21258,0,0,0,.87085-1.025,16.04163,16.04163,0,0,0,2.19866-4.64021,3.99042,3.99042,0,0,0,.15331-2.20257,1.64752,1.64752,0,0,1,1.07766.83332,6.70065,6.70065,0,0,1,1.39657,5.25906l-.31788.28114a4.06255,4.06255,0,0,1-.51671,2.90193,8.89176,8.89176,0,0,1-2.11863,3.12893,3.142,3.142,0,0,0-.34658.432Z"/>
        <path d="M135.34671,53.04129a10.1904,10.1904,0,0,0-2.46283,1.5522.77632.77632,0,0,1-.77809.27657.24632.24632,0,0,1-.09956-.28231,8.33775,8.33775,0,0,1,2.95644-3.81341c.20534-.13964.42363-.361.72988-.06864C135.44894,51.44,135.56167,52.243,135.34671,53.04129Z"/>
      </g>
    </g>
  </g>
</svg>
