<svg xmlns="http://www.w3.org/2000/svg" viewBox="0 0 261.64044 275.59484">
  <title>tooltip_trials-of-osiris_1</title>
  <g id="Layer_2" data-name="Layer 2">
    <g id="Layer_1-2" data-name="Layer 1">
      <g>
        <path d="M130.82035,11.60433H20.39294c1.45683,4.79034,1.24825,9.53466,1.24745,14.26284-.01023,48.08323.162,96.1678-.126,144.24941-.11061,18.4444,7.2602,32.85984,21.02676,44.51611a122.46,122.46,0,0,0,25.82356,16.78759l.73313.31973.74712.31947c12.12537,5.70837,24.42593,11.048,36.6864,16.46545,8.24848,3.64463,16.54108,7.18458,24.21629,12.03923.02395-.01425.04844-.02772.0724-.042.024.01426.04844.02773.0724.042,7.6752-4.85467,15.96809-8.3946,24.21628-12.03925,12.26075-5.41744,24.561-10.75708,36.68668-16.46545a124.16526,124.16526,0,0,0,27.66418-17.7242l-.36011.29739c13.76655-11.65626,21.1371-26.0717,21.02676-44.5161-.288-48.08161-.11573-96.16618-.126-144.24942-.00108-4.72817-.20939-9.47276,1.24745-14.26284Z" style="fill: #8f6e41"/>
        <path d="M261.64044,0H0C.74335.875,1.27436,1.56207,1.86834,2.18969a29.67814,29.67814,0,0,1,8.33378,21.45738c-.14183,48.88525.09878,97.77238-.19781,146.65629-.12972,21.38389,8.21482,38.42475,24.06234,52.23384a133.08966,133.08966,0,0,0,28.9859,19.12907l.79206.34773.8066.34691c12.40931,5.90753,25.06272,11.30209,37.595,16.95231,5.23872,2.36193,10.48041,4.72441,15.64593,7.24028a42.43644,42.43644,0,0,1,12.9282,9.04134,42.44108,42.44108,0,0,1,12.92819-9.04134c5.16552-2.51589,10.40721-4.87835,15.64592-7.24028,12.5323-5.65024,25.18572-11.04479,37.595-16.95231a134.76694,134.76694,0,0,0,30.91776-20.10658l-.33347.28287c15.84725-13.80935,24.1918-30.85021,24.06234-52.23384-.29658-48.88391-.056-97.771-.19781-146.6563a29.67813,29.67813,0,0,1,8.33379-21.45737c.594-.62763,1.125-1.31446,1.86835-2.18969ZM240.00032,25.86717c.01023,48.08323-.162,96.1678.126,144.24941.11062,18.4444-7.26021,32.85984-21.02676,44.51611A122.452,122.452,0,0,1,193.276,231.42l-.73313.32-.74712.31946c-12.12536,5.70838-24.42594,11.048-36.68668,16.46546-8.24847,3.64463-16.54108,7.18457-24.21628,12.03925-.024-.01426-.04844-.02773-.0724-.042-.02395.01426-.04844.02773-.0724.042-7.67521-4.85468-15.96808-8.39461-24.21628-12.03925-12.26074-5.41744-24.56105-10.75708-36.68642-16.46546A124.16536,124.16536,0,0,1,42.18107,214.3353l.36011.29739C28.77462,202.97642,21.40407,188.561,21.51442,170.11658c.288-48.0816.11573-96.16618.126-144.24941.00107-4.72818.20938-9.47277-1.24745-14.26284H241.24775c-1.45684,4.79034-1.24825,9.53466-1.24745,14.26284Z" style="fill: #fff"/>
        <g>
          <path d="M224.3131,118.86943c-.104-.17148-3.14029-4.97028-3.81959-6.00938-.3865-.59131-.743-1.20555-1.16994-1.7661a20.27444,20.27444,0,0,0-1.58439-1.82576c-.56151-.57875-1.08842-1.19144-1.62251-1.79639-.533-.6037-1.08424-1.18958-1.599-1.81189-.65326-.7899-1.25464-1.61538-1.86059-2.4386a9.03647,9.03647,0,0,0-.66333-1.00014l.07373-.13885a2.52072,2.52072,0,0,1-.773-.84841,26.21928,26.21928,0,0,0-2.34283-2.82884c-.67345-.68235-1.36239-1.3496-2.02618-2.04109-.69584-.725-1.37045-1.47126-2.0602-2.201a27.96653,27.96653,0,0,0-2.05121-2.136,15.933,15.933,0,0,1-1.24755-1.2508,11.38835,11.38835,0,0,0-1.47563-1.368,5.3908,5.3908,0,0,1-.6803-.6743,12.29638,12.29638,0,0,0-1.95927-1.65993c-.68848-.48476-1.28842-1.07716-1.94664-1.59911-.63245-.50158-1.25038-1.02136-1.87214-1.53619-.07632-.06323-.7579-.63075-.96642-.79239-1.31365-1.01834-2.6183-2.0483-3.97158-3.01441a.63709.63709,0,0,1-.09876-.11368l-.0943-.06555a.16989.16989,0,0,1-.10965-.14.19056.19056,0,0,1-.19589-.10771.25825.25825,0,0,1-.2008-.10383l-.109-.08756a.11836.11836,0,0,1-.1-.0871,3.41657,3.41657,0,0,1-.6142-.41433.8875.8875,0,0,1-.39267-.29158l-.18562-.13777c-.64915-.357-1.22442-.82385-1.83758-1.23446-1.70213-1.13984-3.42122-2.25287-5.17039-3.32018-.574-.35032-1.14886-.69917-1.73056-1.03593-.35517-.20565-1.6878-.98951-1.79887-1.0529-.65663-.37519-1.299-.7779-1.97156-1.12171a15.08983,15.08983,0,0,0-1.97116-1.06359,13.43212,13.43212,0,0,1-1.6205-.81408c-1.095-.54823-2.18348-1.11094-3.29259-1.62933-1.36665-.63873-2.74577-1.25181-4.1302-1.85125-1.57125-.68034-3.14181-1.36347-4.75626-1.93967a11.75363,11.75363,0,0,1-2.10619-.94992,8.75771,8.75771,0,0,0-2.12059-.75728,3.62689,3.62689,0,0,1-.709-.23983,5.50026,5.50026,0,0,0-2.35376-.82617c-.259-.02657-.26992.3948-.28089.62447a3.32763,3.32763,0,0,0,.67713,1.54867c1.90944,1.34588,3.83652,2.66711,5.73279,4.0312,1.36273.98038,2.69312,2.00615,4.0254,3.02806.83957.644,1.66392,1.30861,2.48091,1.98112q1.55605,1.281,3.08795,2.591c.69119.58836,1.35956,1.20454,2.04765,1.79507.63912.54853,1.25014,1.1283,1.87361,1.6914.822.7424,1.61356,1.52224,2.41443,2.28991.693.6643,1.35855,1.35734,2.033,2.04086.12452.12623.28008.244.235.46012l.00554.00628c.16269-.06811.19953.07934.26206.16319a7.16971,7.16971,0,0,0,.53114.73349c.761.786,1.52584,1.56959,2.31947,2.32222a55.202,55.202,0,0,1,4.265,4.64476c1.05793,1.26188,2.1032,2.53407,3.11217,3.8371.81141,1.04778,1.6301,2.0903,2.42849,3.148.80971,1.07274,1.5909,2.16624,2.357,3.27137.708,1.02113,1.41325,2.04412,2.09254,3.08416.65264.99927,1.29064,2.00909,1.94792,3.00449a26.6673,26.6673,0,0,1,3.0114,6.35041c.25513.84818.53,1.69031.72447,2.55631.13215.5886.23126,1.18045.31708,1.77772.09825.68383.12274,1.37246.172,2.0576a21.81162,21.81162,0,0,1-.0427,2.72159,19.67943,19.67943,0,0,1-.93333,4.61314,40.00728,40.00728,0,0,1-1.94471,4.97013c-.00259.09236.00113.21719-.07384.2712a1.081,1.081,0,0,0-.31224.56272,6.11023,6.11023,0,0,1-.78623,1.414,4.06853,4.06853,0,0,1-.51722.81268q-.3197.49329-.63939.9865a.11777.11777,0,0,1-.07528.11367.2.2,0,0,1-.10891.18969l-.006.00682a.80959.80959,0,0,1-.29019.41657l-.10608.188-.12828.21309-.07052.09345c-.13211.23688-.70482.79657-.62741.951a3.80431,3.80431,0,0,1-.47876.68453l-.12518.18a.1365.1365,0,0,1-.0785.1201l-.067.11577-.07924.09771a.0424.0424,0,0,1-.027.0482l-.30162.474-.22634.312a6.28851,6.28851,0,0,1-.71525.98053.57665.57665,0,0,1-.18934.30189c-.51878.80463-1.105,1.56106-1.67966,2.325a19.6568,19.6568,0,0,1-1.4752,1.907c-.17172.22526-.34168.452-.51572.67546-.12665.16264-.51386.8395-.67.84942l-.1012.11065-.13358.1814-.09663.12948a10.32442,10.32442,0,0,1-1.15189,1.40353l-.07055.08361a15.31125,15.31125,0,0,1-1.63332,1.84668l-.07908.07671a.12513.12513,0,0,1-.10918.10182l-.19624.2096a.18819.18819,0,0,1-.11421.13646.10078.10078,0,0,1-.03557.06121,4.037,4.037,0,0,1-.6524.70963l-.10353.09926a2.32149,2.32149,0,0,1-.53048.53134l-.27589.28143a13.73405,13.73405,0,0,1-1.49272,1.56168q-.204.19691-.408.39364a8.672,8.672,0,0,1-1.11481,1.09048l-.01.01038a12.67426,12.67426,0,0,1-1.13689,1.14178,7.13687,7.13687,0,0,0-1.00106,1.128c-.12987.195-.30372.36054-.43471.555-.22247.33017-.5648.567-.69882.97278-.05184.15691-.24188.27469-.38271.3941-.19194.16265-.397.30987-.59642.46376-.66442.51863-1.21144,1.16053-1.82316,1.73409-1.18874,1.11451-2.36364,2.24427-3.59806,3.3098q-.80013.69054-1.55676,1.43112a24.92071,24.92071,0,0,1-2.10274,1.71278,19.40454,19.40454,0,0,0-2.17526,1.86605c-.28779.30376-.674.48151-.93791.80634.05.0609-.44009.32328-.5602.41487-.85077.64833-3.1105,2.34136-3.34009,2.50214q-2.66047,1.86378-5.32053,3.72816c-.0549.03843-.10139.0888-.15551.12855a.909.909,0,0,0-.41483,1.17727c-.26505.31878.33808.48088.38244.4846a6.3376,6.3376,0,0,0,1.98557-.47778.28946.28946,0,0,0,.28853-.09369,6.64422,6.64422,0,0,1,1.31864-.49258c1.15759-.38481,2.29646-.8175,3.42336-1.28134.57488-.23664,1.17874-.36674,1.76861-.548a16.64327,16.64327,0,0,0,2.12389-.90288,5.66057,5.66057,0,0,1,.69634-.2864,5.01363,5.01363,0,0,0,1.01249-.433,13.315,13.315,0,0,1,1.87644-.82438,14.1003,14.1003,0,0,0,2.30769-.98216c.74427-.45493,1.50783-.8739,2.28515-1.26529a34.3586,34.3586,0,0,0,3.13743-1.70116c1.04534-.671,2.14679-1.24143,3.20259-1.89139.05513-.03394,1.38738-.80308,1.58675-.92636,1.04356-.6454,2.10216-1.26762,3.13146-1.93494,1.46653-.95077,2.9121-1.93386,4.36685-2.90284a3.15423,3.15423,0,0,0,.57627-.4292c1.20489-.80471,2.39936-1.70318,3.60119-2.59072.9054-.66864,1.77772-1.38214,2.6648-2.07565.07768-.06075.14552-.143.261-.12259a13.15479,13.15479,0,0,1,1.5107-1.29536c.69126-.58712,1.37354-1.18625,2.07372-1.761,1.13155-.92892,2.208-1.91875,3.28612-2.90478,1.39087-1.27211,2.763-2.56677,4.07418-3.92357.52637-.54466,1.07634-1.06654,1.60031-1.61345q1.32626-1.38431,2.61969-2.79962c.73962-.80595,1.463-1.62631,2.19092-2.44194.70433-.78929,1.36355-1.61918,2.03343-2.43868.8185-1.00138,1.64533-1.99686,2.43586-3.02008.91427-1.18346,1.83234-2.36492,2.688-3.5927.47933-.68778.97119-1.36681,1.451-2.05427.83558-1.19742,1.66036-2.40219,2.44543-3.63362.2251-.35319,3.1-5.0442,3.59158-5.88037A15.69916,15.69916,0,0,0,224.3131,118.86943Z" style="fill: #fff"/>
          <path d="M89.99371,80.841c.61075-.60254,1.24855-1.178,1.85485-1.78485.13045-.13064.31732-.13978.42781-.30576a5.47936,5.47936,0,0,1,1.24709-1.30783,28.29438,28.29438,0,0,0,2.821-2.51393c.54776-.54753,1.08444-1.11,1.66959-1.6153.903-.77976,1.84865-1.50985,2.76642-2.27279,1.69434-1.40841,3.47461-2.70555,5.2488-4.00765,1.85769-1.36331,3.76965-2.65286,5.6605-3.97077.32444-.22611,2.32856-1.39242,2.49579-2.10161a.49734.49734,0,0,0-.27283-.53792A23.72566,23.72566,0,0,0,110.1208,61.636c-.60668.23417-1.25556.376-1.859.61053-.78219.304-1.57148.59526-2.3462.92156a9.72324,9.72324,0,0,1-1.63731.4722,3.04454,3.04454,0,0,0-1.16746.26563,5.25177,5.25177,0,0,1-1.14446.448c-.65767.36187-1.37621.57752-2.00928.8502a17.43429,17.43429,0,0,0-2.09143.90737,10.18881,10.18881,0,0,1-1.81913.86631A19.60724,19.60724,0,0,0,92.339,68.66911c-.72183.396-1.43786.803-2.1674,1.18416-.25435.13281-.49449.2819-.73435.43656a2.83229,2.83229,0,0,1-.65124.43223c.00337-.01472-1.41136.88165-1.47.96572-1.06712.78193-1.95067,1.33914-2.12439,1.45243-.46466.303-.94659.57953-1.41477.87739a3.00289,3.00289,0,0,0-.78107.47887l-.001-.00666c.00325-.00411-.02662.03363-.02329.02968-.28875.02262-.43559.257-.65949.39526-.54315.33521-1.07444.68964-1.60856,1.03942a1.92348,1.92348,0,0,0-.87166.91559c-.1308-.05827-.06315-.1714-.14843-.26-.92686.63826-1.8621,1.27552-2.79024,1.923-1.32368.92341-2.63252,1.86783-3.91568,2.84681-.78816.60138-1.56431,1.21841-2.3476,1.82615-.17074.1325-.32819.30289-.59564.22316a.95051.95051,0,0,1-.33188.49894c-.97537.79773-1.95644,1.58927-2.892,2.43466a.60966.60966,0,0,1-.38825.215l-.11061.15025c-.00248.13437-.15424.16389-.19457.27191-.011.15916-.18008.21363-.31844.18217l-.08934.04781a3.77815,3.77815,0,0,1-.57.565c-.184.16737-.15172.3948-.15451.6058a.66024.66024,0,0,1-.4822-.02976c-1.59838,1.30032-2.90532,2.921-4.51682,4.19943.002.42309-.26056.57442-.60766.65152a1.03285,1.03285,0,0,1-.56516.59688c-.129.0427-.21994.20077-.32835.30624-1.08595,1.05677-2.09565,2.18685-3.1475,3.27632-.111.11507-.19012.28918-.39457.2306-.1091.08764.03224.19868-.04.28376-.05432.06393-.105.13189-.16485.19023-.73567.71769-1.374,1.52333-2.05044,2.29355-.84186.95852-1.64366,1.95253-2.45093,2.941q-1.2263,1.50149-2.42652,3.02434c-.09856.12429-1.11756,1.75966-1.52673,2.27441,0,0-3.97344,6.54777-4.44739,7.19983-.0675.09283-2.93155,3.97471-3.48644,4.75757a2.58348,2.58348,0,0,0,.36245,1.0295c.444.70878,2.83244,4.60531,2.87529,4.67373.99874,1.59361,2.0621,3.14413,3.13309,4.68954.10476.1511,1.39834,2.05854,3.88286,5.23366q1.86435,2.38263,3.82594,4.68551c1.30977,1.52829,2.64248,3.0386,4.03818,4.48963,1.38788,1.44281,2.75588,2.90438,4.21175,4.28273,1.46723,1.38919,2.92562,2.78862,4.438,4.12721q2.26407,2.00394,4.62713,3.89553c1.57276,1.255,8.39344,6.2506,9.45176,6.95977q3.51576,2.356,7.17832,4.47792c.13355.0771,3.23173,1.80848,4.17483,2.31819,1.43348.77472,2.88827,1.50775,4.35019,2.22653,3.40495,1.67419,6.89433,3.1525,10.43384,4.51736q2.67588,1.03167,5.39282,1.94556c.15826.05362.31533.11189.47616.15652a.869.869,0,0,0,1.0202-.43959.8387.8387,0,0,0-.27594-1.11372c-.327-.234-.66182-.45718-.99122-.68794q-2.16549-1.51728-4.32864-3.03812c-.588-.4158-1.96121-1.51488-2.06694-1.49048-1.41182-1.10621-2.863-2.19731-4.25472-3.35962-.45958-.38387-.94225-.73319-1.40116-1.11318a26.40543,26.40543,0,0,1-2.5111-2.26078,32.953,32.953,0,0,0-3.55881-3.27291,57.031,57.031,0,0,1-4.95792-4.59284c-1.23216-1.24538-2.41276-2.53826-3.60452-3.82176-1.20334-1.296-2.36248-2.62969-3.50894-3.97363q-1.43848-1.68628-2.8071-3.43394c-.795-1.01772-1.60027-2.02769-2.37422-3.06137q-1.84214-2.46061-3.59069-4.98911c-1.20489-1.73928-2.331-3.52847-3.47876-5.30433a25.34287,25.34287,0,0,1-3.04688-6.43812,22.09892,22.09892,0,0,1-.68538-2.88036c-.16536-1.02741-.26412-2.05582-.33188-3.0947a27.08436,27.08436,0,0,1,.05107-3.2275,12.509,12.509,0,0,1,.35121-2.43272c.01674-.06525.71529-2.92926,1.0264-3.79666a23.77379,23.77379,0,0,1,2.23516-4.55424c.2752-.44137.54327-.88724.8209-1.327a.84427.84427,0,0,1,.283-.34281l.01185-.00992c.0279-.30592.26857-.48305.43126-.70668.04273-.05874.0869.008.12929.02309-.0298-.03665-.09779-.057-.05335-.12522a.19627.19627,0,0,1,.11069-.20984l-.01771-.01937.01612-.02077a2.67359,2.67359,0,0,1,.4053-.60967l.0017-.00279a8.0962,8.0962,0,0,1,.51746-.80067c.88534-1.4064,1.8413-2.76545,2.81257-4.11219,1.03035-1.42871,2.10324-2.82682,3.16036-4.23624a6.13064,6.13064,0,0,1,.815-1.01849,5.59507,5.59507,0,0,0,.73373-.74868c.23088-.2881.47337-.56721.71614-.84555.45237-.51854.90234-1.03949,1.3656-1.5482a2.52636,2.52636,0,0,1,.90366-.79331.32285.32285,0,0,1,.07772-.27787c1.32461-1.37936,2.59885-2.80815,3.97054-4.10451.19213.03835.18806-.10353.2177-.17823.21568-.23416.38286-.422.55682-.60339a19.46689,19.46689,0,0,0,1.57726-1.62638,17.5874,17.5874,0,0,1,1.28641-1.60942c.06745-.07036.38426-.37837.47871-.5063l-.14292-.09857A4.79728,4.79728,0,0,1,89.99371,80.841Z" style="fill: #fff"/>
          <g>
            <polygon points="128.523 182.765 128.514 182.765 128.512 182.776 128.523 182.765" style="fill: #fff"/>
            <path d="M164.698,161.78292a2.51671,2.51671,0,0,0-.72408-.85043,1.15756,1.15756,0,0,1-.67395.10554.69871.69871,0,0,0-.47135.12793c-.90355.513-1.80783,1.02632-2.72993,1.50473-.57712.29941-2.3603,1.15813-2.53438,1.23546a12.47261,12.47261,0,0,1-1.18257.41812c-.85624.28206-1.71666.54954-2.5567.88274a60.54208,60.54208,0,0,1-7.89865,2.27131c-.14889.03673-.62342-.03456-.64744.05068-1.26785.4516-2.62032.52319-3.918.87948-.09535-.01247-2.51253.619-2.77095.643-.30139.0279-.60286.05533-.90366.08834a12.32534,12.32534,0,0,1-2.41009.16071,5.22784,5.22784,0,0,0-1.14364.00961c-.3974.05207-.79529.11654-1.20071.12909-1.19691.037-2.38541-.14575-3.58112-.115a.428.428,0,0,1-.10062-.00682,12.88856,12.88856,0,0,0-2.28964-.27291c-.70556-.02619-1.41131-.06106-2.11711-.064a3.52528,3.52528,0,0,1-1.6172-.2526,1.97374,1.97374,0,0,0-.829-.20147,1.58716,1.58716,0,0,1-.72226-.18977,1.34265,1.34265,0,0,0-.47833-.143c-1.24515-.15645-2.45287-.502-3.682-.74094-.65547-.12754-1.30152-.30282-1.95373-.44819a37.94068,37.94068,0,0,1-4.29808-1.19454c-1.16773-.40875-4.91193-1.66118-5.42811-1.91162-.51816-.25152-1.68988-.78154-1.74866-.8123-.86445-.45222-1.73068-.90118-2.59033-1.36231-.32529-.1745-.63028-.38666-.95286-.56658a1.09926,1.09926,0,0,0-1.30493.16318,1.08375,1.08375,0,0,0-.13207,1.261c.4354.7772.91,1.53069,1.408,2.26892a40.90064,40.90064,0,0,0,3.61789,4.65653c.82722.91055,1.7012,1.77167,2.58746,2.62132.42223.40472,1.93471,1.67869,1.90643,1.7055.63749.48879,1.26819.9868,1.914,1.46436.97015.71738,1.96079,1.40353,2.99629,2.02738a38.86382,38.86382,0,0,0,3.55241,1.97508c.01112.1005.1246.11785.29337.158a20.25516,20.25516,0,0,0,2.27751,1.01214c.14765-.08275,3.19752,1.23236,3.52661,1.34534.08791-.0702.66414.12824.65632.23355a33.64769,33.64769,0,0,1,3.66523.87561c.15261.06571,3.77132.355,3.91324.36481.265.01821.52226-.14769.763-.08229a3.99978,3.99978,0,0,0,.78521.0158,4.56277,4.56277,0,0,0,.50538.00171,13.56025,13.56025,0,0,0,1.60565-.2024,2.06316,2.06316,0,0,1,.7001-.06772,3.82691,3.82691,0,0,0,1.22926-.17838c.71033-.18395,1.39513-.46012,2.121-.5889.03154-.00558,2.62-.88878,2.86913-1.00161.47457-.215.95542-.41665,1.43762-.61424.142-.05819.67651-.25989.8483-.33467.36915-.16078.73-.341,1.09261-.51653.9376-.45361,1.88-.89792,2.77262-1.43863a1.266,1.266,0,0,0,.45973-.25873c.76255-.40069,1.49551-.90715,2.24078-1.39361a41.787,41.787,0,0,0,6.19326-4.92759c.76391-.7369,1.51748-1.485,2.22056-2.27573,1.27409-1.43282,2.42652-2.96676,3.59031-4.49063a5.35821,5.35821,0,0,1,1.04712-1.2126c.19775-.14234.38267-.74767.537-.83028.104-.18442.21948-.38891.33494-.59339A.46008.46008,0,0,0,164.698,161.78292Z" style="fill: #fff"/>
          </g>
          <path d="M148.05844,74.12967c-.87685-.21777-1.7495-.45285-2.62853-.66113a8.14859,8.14859,0,0,0-1.02009-.2346c-1.987-.4195-3.9729-.7198-5.92612-.99369-.15729-.07317-4.70777-.30577-5.03337-.31743-1.61538-.05784-3.23387-.06071-4.846.017a38.54667,38.54667,0,0,0-4.31852.39676c-.90847.14724-1.82753.22952-2.73553.37917-.95731.15778-1.91275.33616-2.85907.54956-1.975.44536-3.92928.97093-5.85406,1.60218-1.49764.49116-2.97252,1.04224-4.43076,1.641a62.82131,62.82131,0,0,0-7.57729,3.77285c-.14534.08405-.29774.156-.44756.23215a.94654.94654,0,0,1-1.07884-.15867,1.0241,1.0241,0,0,1-.27344-1.15274,11.68634,11.68634,0,0,1,1.03447-1.73229c.0977-.14323,1.18482-1.79076,1.50879-2.23414a39.3609,39.3609,0,0,1,4.78279-5.45053,45.071,45.071,0,0,1,5.369-4.34541,44.25644,44.25644,0,0,1,12.87617-6.11431,27.65564,27.65564,0,0,1,4.13341-.853,28.03644,28.03644,0,0,1,4.73932-.101c.4345.0193.86555.10794,1.29948.15186.24681.025.89119.12817,1.05108.14993a22.41938,22.41938,0,0,1,3.22687.75076,38.1984,38.1984,0,0,1,4.35838,1.54813,45.9841,45.9841,0,0,1,4.308,2.08118c1.133.63055,2.25121,1.283,3.325,2.00856a49.30466,49.30466,0,0,1,3.94423,2.97113,46.19056,46.19056,0,0,1,3.73413,3.54418,35.73806,35.73806,0,0,1,2.59378,3.08512,45.9234,45.9234,0,0,1,2.627,3.87989,3.10268,3.10268,0,0,1,.45694,1.03736l-.11635.47976c-.05427.0574-.11935.13477-.193.20281a.96463.96463,0,0,1-1.32538.17909c-.42844-.23143-.84483-.4851-1.26759-.72712-1.76774-1.012-3.61737-1.85994-5.45088-2.74166-.66449-.31955-1.36606-.52728-2.04276-.80637-.66619-.27476-1.34481-.51927-2.01378-.78751C151.559,75.20632,148.15979,74.15484,148.05844,74.12967Z" style="fill: #fff"/>
          <path d="M166.14207,119.91885c-.11224-.10539-.25625-.06936-.38283-.06a11.09366,11.09366,0,0,1-3.25711-.4609c-.57406-.12909-1.14619-.22471-1.72808-.29786a13.5041,13.5041,0,0,1-1.69772-.21851,10.07585,10.07585,0,0,0-1.23453-.22967c-.81214-.1026-1.62344-.21209-2.43562-.31383-1.13395-.142-2.24257-.40239-3.35393-.652a8.25129,8.25129,0,0,0-2.423-.37721c-.04371.00326-.09051-.0358-.1439-.05858a1.44839,1.44839,0,0,1,.46613-1.58035c.03022-.1477-.12836-.21643-.0246-.33173a1.12644,1.12644,0,0,1,.54094-.01216,3.942,3.942,0,0,1,.77553.20046,6.8182,6.8182,0,0,0,2.372.37163,8.46283,8.46283,0,0,0,2.76614-.44959,5.31252,5.31252,0,0,0,3.46695-3.51243,5.442,5.442,0,0,0,.24455-1.12628,1.2438,1.2438,0,0,0-.0802-.88165.82585.82585,0,0,0-.33537.26788,5.21789,5.21789,0,0,1-1.45622,1.15355,15.09072,15.09072,0,0,1-2.407,1.01524,7.1123,7.1123,0,0,1-2.82926.32158,8.19144,8.19144,0,0,1-1.89445-.45245,6.1896,6.1896,0,0,0-3.01744-.32359,5.64335,5.64335,0,0,0-3.62,1.9361,3.08293,3.08293,0,0,0-.25827,1.33046,2.66427,2.66427,0,0,0,1.45622,1.99794,1.07164,1.07164,0,0,1,.46392.34931l.06416.49181a2.475,2.475,0,0,0-.86472,1.90155,3.33672,3.33672,0,0,0,.86592,1.96345.579.579,0,0,1-.43583.66941,2.02387,2.02387,0,0,0-.77863.54257,2.2947,2.2947,0,0,0-.40239,2.93058,3.28129,3.28129,0,0,0,.88336.81207A5.5068,5.5068,0,0,0,148.087,127.854a7.93842,7.93842,0,0,0,1.71469-.00047c.42308-.03859,1.51859-.56248,1.73451-.49328.08826-.02108.18551-.04309.28217-.06742a8.04808,8.04808,0,0,1,1.8301-.30964c.30116-.0048.60433.066.90448.05324a5.02651,5.02651,0,0,1,2.7809.74651c.5239.30367.98169.69894,1.47157,1.04972a1.51528,1.51528,0,0,1,.77972,1.18029c.19677-.11042.38856-.13165.50115-.32746a3.19966,3.19966,0,0,0-.08226-1.17719,5.26678,5.26678,0,0,0-.90455-2.20824,9.98437,9.98437,0,0,0-1.90425-1.84017c-.117-.09314-.23684-.18279-.36229-.27942a5.00117,5.00117,0,0,1-.89863-.07663c-.59611-.09772-1.19667-.18094-1.79875-.2265a7.91022,7.91022,0,0,0-3.12042.4361,2.24532,2.24532,0,0,1-1.9757-.20565.94564.94564,0,0,1-.47093-.97387.82323.82323,0,0,1,.89866-.6433,4.89563,4.89563,0,0,0,1.10245-.07384c.7275-.19271,1.46293-.35838,2.20007-.51119a31.265,31.265,0,0,1,3.26811-.54907c.80037-.07919,1.5938-.23014,2.39448-.30406.98548-.091,1.98-.08508,2.95959-.24145a9.588,9.588,0,0,0,1.87621-.33986,7.33276,7.33276,0,0,1,1.82382-.3c.32273-.03417.64624-.222.94763-.01805C166.15427,120.08389,166.17821,120.01261,166.14207,119.91885Z" style="fill: #fff"/>
          <path d="M119.16669,123.777a4.72914,4.72914,0,0,0-1.56649-1.16232c-.23889-.12607-.36419-.3879-.59185-.493a.50636.50636,0,0,1,.03809-.33219c.11732-.08934.23672-.18016.35137-.26741a2.10212,2.10212,0,0,1,.16489-.47833,2.16547,2.16547,0,0,0,.2246-1.84319,2.72679,2.72679,0,0,0-.57264-.94024.59851.59851,0,0,1,.227-1.05073,2.45275,2.45275,0,0,0,.887-.64578,2.16941,2.16941,0,0,0,.00852-3.20224,4.11383,4.11383,0,0,0-1.38028-.90382,8.06724,8.06724,0,0,0-2.06969-.57147,2.73815,2.73815,0,0,0-1.531.16125.691.691,0,0,1-.63451.026c-3.55288,1.23778-6.68631.91071-9.24487-2.02769-.12561.07718-.25393.07547-.348.22022,0,.21743-.00062.46864.00039.71986a1.03131,1.03131,0,0,0,.01.20146,5.60326,5.60326,0,0,0,2.1184,3.44014,6.59454,6.59454,0,0,0,3.51355,1.21686,6.32084,6.32084,0,0,0,1.40426-.00891,1.09923,1.09923,0,0,1,.48639.06772c.0945-.05246.18036-.1394.26985-.14335a8.41789,8.41789,0,0,0,1.55738-.3872,2.01973,2.01973,0,0,1,2.132.76774,2.9402,2.9402,0,0,1-.00589.55133.86974.86974,0,0,1-.876.62462,8.47254,8.47254,0,0,0-1.15909.03425c-.64218.11213-1.27336.28825-1.90794.4423-1.18866.2888-2.39312.48306-3.60332.65849a10.13843,10.13843,0,0,0-1.24205.16815,11.20361,11.20361,0,0,1-1.33468.23106c-.66422.09624-1.33875.141-1.99236.28353a6.867,6.867,0,0,1-1.23619.17582,10.9936,10.9936,0,0,0-1.632.27182,1.6925,1.6925,0,0,0-.75015.25261c-.01073.07827-.68015.23192-.68015.23192a2.73649,2.73649,0,0,1,.715.2788,3.51269,3.51269,0,0,0,.533.11724c.51851.035,1.036.03193,1.557.09624a12.05074,12.05074,0,0,0,2.35861.12925,1.03743,1.03743,0,0,1,.34532.0544c.43567.117.87394.22595,1.315.32033a15.50428,15.50428,0,0,0,1.79922.21666c.39848.0375.79308.11592,1.19811.17729.19569-.212.46938-.07021.61556.11514l.42978-.07315a.911.911,0,0,0,.39666.19326c.50844.1012,1.01486.21286,1.52438.30809a.35576.35576,0,0,1,.30688.25261,3.94628,3.94628,0,0,0,1.14213.34559,9.17909,9.17909,0,0,0,1.68078.34567l.5158.54273c-.00884.23377-.25017.39867-.27687.64616-.10027,0-.197-.03006-.25582.00458a2.49383,2.49383,0,0,1-2.21331.0857,7.37091,7.37091,0,0,0-2.329-.36024,8.51129,8.51129,0,0,0-2.33152.333,5.42261,5.42261,0,0,0-3.928,3.76643,3.93083,3.93083,0,0,0-.1485,1.76524c.18558.05975.23346-.04432.29445-.15412a3.92661,3.92661,0,0,1,1.3403-1.41027,6.7071,6.7071,0,0,1,3.93287-1.12628c.201.00806.40325-.01906.605-.02681a3.55709,3.55709,0,0,1,.65445-.01411,9.03831,9.03831,0,0,1,2.00023.49252,6.38915,6.38915,0,0,0,3.50654.27949,5.4847,5.4847,0,0,0,3.60406-2.2672A1.98072,1.98072,0,0,0,119.16669,123.777Z" style="fill: #fff"/>
          <path d="M126.353,105.24357a6.24669,6.24669,0,0,0-4.35227-4.43515,8.68909,8.68909,0,0,1-1.58311-.63c-.28364-.14513-.53556-.35443-.82319-.4891a5.042,5.042,0,0,1-2.49595-3.02573,10.804,10.804,0,0,1-.6882-2.76553c-.00686-.06679-.0446-.12568-.16122-.16644a.37343.37343,0,0,0-.2564.14947,3.9257,3.9257,0,0,0-.92675,1.42461,4.70489,4.70489,0,0,0-.25156,2.36817,6.36946,6.36946,0,0,0,.711,2.33268,5.645,5.645,0,0,0,1.06952,1.61593.75564.75564,0,0,1,.18512.29747,1.19169,1.19169,0,0,0,.286.40991c.2988.29608.57515.61734.89208.89211a4.16474,4.16474,0,0,0,2.00828,1.07661,1.84539,1.84539,0,0,1,.611.21,2.01071,2.01071,0,0,0,1.13461.3425,3.30972,3.30972,0,0,1,.28232,1.43553,1.88864,1.88864,0,0,0,1.64525,1.752c.1329.00248.31023-.02123.39.05161.27237.24873.57019.08648.85635.1301.29387-.41525.72548-.66089,1.03775-1.03818A2.10563,2.10563,0,0,0,126.353,105.24357Z" style="fill: #fff"/>
          <path d="M145.67241,137.33145a2.07787,2.07787,0,0,0,.62791.6314,5.70613,5.70613,0,0,1,1.53135,2.10232,6.47221,6.47221,0,0,1,.61357,3.08079,4.40729,4.40729,0,0,1-.415,1.54691.50826.50826,0,0,1-.38036.30663c.03753.56188-.38546.77156-.7011,1.13693a2.50794,2.50794,0,0,1-.32073-.99251,1.107,1.107,0,0,0-.02638-.3503,15.766,15.766,0,0,0-1.32951-3.08592c-.05784-.08213-.12583-.15712-.17611-.21933-.20106-.12234-1.44808-1.3877-2.12067-1.79176a6.48131,6.48131,0,0,0-1.6073-.70416,6.296,6.296,0,0,1-3.43059-2.26487,5.68146,5.68146,0,0,1-1.09721-2.30347,2.189,2.189,0,0,1,1.54953-2.60258,2.5261,2.5261,0,0,1,2.97955,1.092,1.93581,1.93581,0,0,1,.16614,1.56231.96746.96746,0,0,0,.12057.80737,2.133,2.133,0,0,0,1.27355,1.00742,7.9297,7.9297,0,0,1,2.50971.98208A.88755.88755,0,0,0,145.67241,137.33145Z" style="fill: #fff"/>
          <path d="M121.84566,109.50368a2.18971,2.18971,0,0,0-.37554-1.23383,8.765,8.765,0,0,0-1.03279-1.16852,6.41711,6.41711,0,0,0-2.36833-1.29078,5.41805,5.41805,0,0,0-2.29463-.23277,6.52,6.52,0,0,1-2.876-.26966,12.65523,12.65523,0,0,1-1.88267-.82772,4.4554,4.4554,0,0,1-1.10455-.58627c-.44613-.42246-1.00013-.75682-1.22434-1.38036a.56432.56432,0,0,0-.12793-.155,1.80861,1.80861,0,0,1-.48713-1.08227.29531.29531,0,0,0-.12642-.24781c-.16958.01473-.23106.1229-.29294.25246a3.86015,3.86015,0,0,0-.38011,2.09224,5.63076,5.63076,0,0,0,1.54219,3.27748,6.43876,6.43876,0,0,0,6.10675,2.06132,1.593,1.593,0,0,1,.453-.0172,2.78478,2.78478,0,0,1,2.01855,1.3644c-.27353.40371-.75132.47949-1.08707.73156a.77693.77693,0,0,0,.69936.60634.8936.8936,0,0,1,.65086.35017c.78289.08934,1.49876.343,2.2801.42253-.07613-.21588.56529.16211.51206,0,.39429-.02727.14575-.16187.342-.3655.06753-.45137.43339-.75341.39193-1.19618a.32787.32787,0,0,1,.27675-.46167C121.81819,109.87608,121.87418,109.81006,121.84566,109.50368Z" style="fill: #fff"/>
          <path d="M155.8828,136.04755a5.23933,5.23933,0,0,0-.83775-2.03095,6.45553,6.45553,0,0,0-6.42139-3.02635,2.596,2.596,0,0,1-1.5704-.16109c-.0423-.089-.04579-.19318-.13052-.266a3.346,3.346,0,0,1-1.015-1.91812,1.19,1.19,0,0,0-.926-.93094c-.0816.07625-.28752-.03285-.41805-.08089a5.75263,5.75263,0,0,0-1.38276.40789,2.71254,2.71254,0,0,0-1.49555,1.20338,2.32609,2.32609,0,0,0,.11759,2.34291,6.29806,6.29806,0,0,0,1.241,1.28552c.085.19.53687.38744.623.4361a5.6732,5.6732,0,0,0,2.85925.84058c.539-.00387,1.07792-.01782,1.61693-.02123a6.40168,6.40168,0,0,1,1.935.25059c.56392.17187,1.09122.42487,1.64219.62254a5.26834,5.26834,0,0,1,2.14625,1.45855,5.50143,5.50143,0,0,1,1.42608,2.30269.52435.52435,0,0,0,.2986-.30073A4.39634,4.39634,0,0,0,155.8828,136.04755Z" style="fill: #fff"/>
          <path d="M150.66449,105.18627a10.99589,10.99589,0,0,0,2.309-.95264,4.51578,4.51578,0,0,0,2.27185-2.93789.54577.54577,0,0,1,.06168-.13792.91045.91045,0,0,1,.073-.09709c.21123.08317.25572.28614.31624.46747a4.54156,4.54156,0,0,1-.4538,3.909,6.67064,6.67064,0,0,1-2.65255,2.62,6.23906,6.23906,0,0,1-2.73944.76993,5.0543,5.0543,0,0,1-.91536-.03847c-.33327.10068-.69842-.1015-1.03861-.08565-.42262.087-.2643.55243-.55755.71377-.27365.10342-.58865-.156-.94261.12491a.8857.8857,0,0,0-.05446.30154,2.37264,2.37264,0,0,1-.63194,1.28029,1.59775,1.59775,0,0,1-.92373.57453,7.868,7.868,0,0,1-1.53932.18882.68225.68225,0,0,1-.50317-.18929c-.26113-.26065-.53237-.51245-.77792-.78715a2.138,2.138,0,0,1-.39827-2.298,2.39289,2.39289,0,0,1,.61375-.9132,9.40142,9.40142,0,0,1,1.23976-1.10232,6.14266,6.14266,0,0,1,1.9249-.83585,5.21838,5.21838,0,0,1,1.01576-.21372A34.6292,34.6292,0,0,0,150.66449,105.18627Z" style="fill: #fff"/>
          <path d="M115.58518,145.3992a3.94921,3.94921,0,0,1-.73127-1.74472,6.35171,6.35171,0,0,1,2.533-6.09246,6.52689,6.52689,0,0,1,2.72127-1.22987,2.13931,2.13931,0,0,0,1.58983-1.46,6.23367,6.23367,0,0,0,.32483-2.15868,1.142,1.142,0,0,1,.32586-.84778,2.853,2.853,0,0,0,1.259-.14426,4.89159,4.89159,0,0,1,1.027-.01371,6.3842,6.3842,0,0,1,.77026.41454,2.21016,2.21016,0,0,1,.80786,2.85347,6.06552,6.06552,0,0,1-4.09382,3.92131,8.38223,8.38223,0,0,0-1.90084.79228,2.65323,2.65323,0,0,0-1.053,1.052,6.65654,6.65654,0,0,1-1.21992,1.53514c-.01467.0148-.06065-.00142-.093-.00322-.12252-.12485.08532-.19984.03134-.35762a6.11871,6.11871,0,0,0-1.16374,2.44121c-.13546.20837-.20289.33638-.16467.49288a9.51309,9.51309,0,0,0-.2664,1.288C116.12111,145.90791,115.64752,145.48946,115.58518,145.3992Z" style="fill: #fff"/>
          <path d="M108.05252,138.73573c-.23047.06647-.30444-.04006-.3487-.14476a4.24407,4.24407,0,0,1-.3755-2.44222,6.26247,6.26247,0,0,1,1.80979-3.351,6.7674,6.7674,0,0,1,3.38129-1.78265,5.95091,5.95091,0,0,1,2.40481.00635,2.47167,2.47167,0,0,0,.94656-.07433.92159.92159,0,0,0,.72784-.75429,17.02447,17.02447,0,0,1,.76449-1.80306.63179.63179,0,0,1,.346-.34841c.164-.08279.31474-.19206.48756-.29991a1.812,1.812,0,0,1,1.202.17466,1.67092,1.67092,0,0,0,.532.12485,2.3621,2.3621,0,0,1,1.8889,2.25414,1.91637,1.91637,0,0,1-.3944,1.26693,6.201,6.201,0,0,1-4.17492,2.56118,7.50436,7.50436,0,0,1-2.11519-.01261,5.54532,5.54532,0,0,0-2.67921.16447,8.35086,8.35086,0,0,0-2.12615,1.00708,2.15209,2.15209,0,0,0-.339.2953,10.64581,10.64581,0,0,0-1.77121,2.49055A1.5399,1.5399,0,0,0,108.05252,138.73573Z" style="fill: #fff"/>
          <path d="M146.3256,101.84611a8.17769,8.17769,0,0,1-1.95772,1.21615,9.65517,9.65517,0,0,1-1.10415.32537,2.00444,2.00444,0,0,0-1.34719.82313c.08245.02491-.26938.77794-.21974,1.21677.02826.24978.0012.50531.01147.75775a1.67505,1.67505,0,0,1-1.11414,1.73162c-.16811.07274-.33307.15563-.50641.21291a1.74488,1.74488,0,0,1-1.41426-.05521,3.64791,3.64791,0,0,0-.64164-.19411c-.01764-.44177-.50418-.22295-.43053-.68364-.27443-.09041-.20228-.21724-.32591-.5015-.127.097-.152-.32019-.40924-.34466a2.50326,2.50326,0,0,1,.18882-1.74451,1.80231,1.80231,0,0,0,.74194-1.1226.98093.98093,0,0,1,.25017-.59207,5.89236,5.89236,0,0,1,2.84891-1.992,9.59,9.59,0,0,0,1.95435-.76549c.07077-.04424.15683-.06623.22259-.116.57614-.43579,1.1532-.87053,1.72134-1.31662a2.674,2.674,0,0,0,.5528-.65066,10.18318,10.18318,0,0,0,1.39566-2.9455,2.533,2.533,0,0,0,.09731-1.39814,1.04579,1.04579,0,0,1,.68408.529,4.25344,4.25344,0,0,1,.88651,3.33833l-.20179.17846a2.5788,2.5788,0,0,1-.328,1.84208,5.64411,5.64411,0,0,1-1.34486,1.98617,1.99489,1.99489,0,0,0-.22.27421Z" style="fill: #fff"/>
          <path d="M141.259,93.54862a5.651,5.651,0,0,0-2.041-2.9907c-.13095-.106-.30049-.24262-.47209-.075a.23847.23847,0,0,0-.00527.214,11.50035,11.50035,0,0,1,.14827,2.86208,8.24238,8.24238,0,0,1-1.537,3.52351.94034.94034,0,0,0-.23823.47647c-.51576.21146-.78855.70211-1.22469,1.00075a4.958,4.958,0,0,0-1.28556.94356.78156.78156,0,0,1-.25853-.50653c-.16459-.83609-.50441-1.61895-.70944-2.44318-.24668-.99169-.51192-1.977-.66566-2.98993-.10282-.67786-.21332-1.35456-.31661-2.03211-.09306-.61022-.20724-1.22314-.29744-1.83274-.15179-1.02593-.30146-2.05256-.48592-3.07276a7.302,7.302,0,0,0-.28155-1.37912c-.28322.05191-.29949.25106-.32432.45221-.04917.39829-.10667.79557-.15932,1.19347a8.4505,8.4505,0,0,0-.16842,1.49977,1.718,1.718,0,0,1-.05722.49925c-.17226.68654-.15137,1.39834-.258,2.09433-.05834.38069-.05834.77084-.12506,1.1496-.16265.92373-.35722,1.84141-.54644,2.76026a31.47,31.47,0,0,1-1.28819,4.58c-.32549-.228-.63-.46368-.95569-.6653a6.22828,6.22828,0,0,1-2.41044-2.644,10.42428,10.42428,0,0,1-.81076-2.58188c-.04149-.21991-.078-.44525-.11549-.6774l.00008-.00054a8.08762,8.08762,0,0,1,.11468-2.40033c-.19442-.1855-.333-.045-.4633.04363a5.29242,5.29242,0,0,0-1.87671,2.42063c-.02169.0516-.21987.6877-.27953.99029a4.05915,4.05915,0,0,0-.12588,1.21492,5.84845,5.84845,0,0,0,.93771,3.04472,8.002,8.002,0,0,0,2.25927,2.40993c.11069.07509.26923.14894.3032.25595.14076.44291.523.62191.86225.84686a.86668.86668,0,0,1,.27058.219,7.78438,7.78438,0,0,1,.85047,1.36618,4.99047,4.99047,0,0,0,1.58973,2.04908c.0783.06338.19817.10553.21046.206.04319.35273.3693.45416.56221.69855a1.26647,1.26647,0,0,1,1.29551.0723.59023.59023,0,0,0,.43784.08531c.21972-.048.43606.0286.644-.00062a5.33933,5.33933,0,0,1,1.12357-.451,3.98424,3.98424,0,0,0,1.34808-.6478,4.65886,4.65886,0,0,0,1.435-1.79089,6.18534,6.18534,0,0,1,.86011-1.42158c.11487-.1353.36922-.4764.47348-.57519a6.02735,6.02735,0,0,1,.82079-.74024,7.52021,7.52021,0,0,0,1.63192-1.38749,1.76553,1.76553,0,0,1,.2733-.22045,3.25755,3.25755,0,0,0,1.2269-1.667c.14665-.51467.1344-1.06631.2418-1.5857A5.20577,5.20577,0,0,0,141.259,93.54862Z" style="fill: #fff"/>
          <path d="M121.9588,146.66362a5.651,5.651,0,0,0,2.04094,2.99071c.131.106.3005.24261.4721.075a.23843.23843,0,0,0,.00526-.214,11.50133,11.50133,0,0,1-.14827-2.86208,8.24251,8.24251,0,0,1,1.537-3.52351.94032.94032,0,0,0,.23824-.47647c.51576-.21146.78855-.70211,1.22469-1.00075a4.958,4.958,0,0,0,1.28555-.94356.78153.78153,0,0,1,.25854.50653c.16458.83609.50441,1.61895.70944,2.44318.24668.99168.51192,1.977.66565,2.98993.10283.67786.21333,1.35456.31662,2.03211.09306.61021.20724,1.22314.29743,1.83273.1518,1.02594.30147,2.05257.48593,3.07277a7.30123,7.30123,0,0,0,.28155,1.37912c.28321-.05192.29949-.25106.32432-.45222.04917-.39828.10666-.79556.15931-1.19346a8.44957,8.44957,0,0,0,.16842-1.49977,1.718,1.718,0,0,1,.05723-.49925c.17225-.68654.15137-1.39834.258-2.09433.05835-.3807.05835-.77085.12507-1.1496.16264-.92373.35721-1.84142.54644-2.76026a31.46917,31.46917,0,0,1,1.28819-4.58c.32548.228.63.46369.95569.66531a6.22817,6.22817,0,0,1,2.41044,2.644,10.424,10.424,0,0,1,.81075,2.58188c.0415.21991.078.44524.1155.67739l-.00008.00055a8.088,8.088,0,0,1-.11468,2.40033c.19441.1855.333.045.4633-.04363a5.29238,5.29238,0,0,0,1.8767-2.42063c.0217-.05161.21987-.6877.27954-.99029a4.05922,4.05922,0,0,0,.12588-1.21493,5.84842,5.84842,0,0,0-.93772-3.04471,8.00207,8.00207,0,0,0-2.25926-2.40994c-.11069-.07508-.26923-.14893-.30321-.25594-.14075-.44292-.523-.62191-.86224-.84686a.867.867,0,0,1-.27059-.219,7.78374,7.78374,0,0,1-.85046-1.36618,4.99047,4.99047,0,0,0-1.58973-2.04908c-.0783-.06338-.19818-.10554-.21046-.206-.0432-.35272-.3693-.45415-.56221-.69855a1.26645,1.26645,0,0,1-1.29551-.07229.59024.59024,0,0,0-.43784-.08532c-.21972.04805-.43607-.02859-.644.00062a5.33883,5.33883,0,0,1-1.12357.451,3.984,3.984,0,0,0-1.34809.6478,4.65893,4.65893,0,0,0-1.43495,1.79089,6.1859,6.1859,0,0,1-.86011,1.42158c-.11487.13529-.36923.47639-.47349.57519a6.02733,6.02733,0,0,1-.82078.74024,7.51994,7.51994,0,0,0-1.63193,1.38749,1.76517,1.76517,0,0,1-.2733.22045,3.25748,3.25748,0,0,0-1.22689,1.667c-.14665.51467-.13441,1.0663-.2418,1.5857A5.20545,5.20545,0,0,0,121.9588,146.66362Z" style="fill: #fff"/>
        </g>
      </g>
    </g>
  </g>
</svg>
