<svg xmlns="http://www.w3.org/2000/svg" viewBox="0 0 261.64044 275.59484">
  <title>tooltip_trials-of-osiris</title>
  <g id="Layer_2" data-name="Layer 2">
    <g id="Layer_1-2" data-name="Layer 1">
      <g>
        <path d="M130.82035,11.60433H20.39294c1.45683,4.79034,1.24825,9.53466,1.24745,14.26284-.01023,48.08323.162,96.1678-.126,144.24941-.11061,18.4444,7.2602,32.85984,21.02676,44.51611a122.46,122.46,0,0,0,25.82356,16.78759l.73313.31973.74712.31947c12.12537,5.70837,24.42593,11.048,36.6864,16.46545,8.24848,3.64463,16.54108,7.18458,24.21629,12.03923.02395-.01425.04844-.02772.0724-.042.024.01426.04844.02773.0724.042,7.6752-4.85467,15.96809-8.3946,24.21628-12.03925,12.26075-5.41744,24.561-10.75708,36.68668-16.46545a124.16526,124.16526,0,0,0,27.66418-17.7242l-.36011.29739c13.76655-11.65626,21.1371-26.0717,21.02676-44.5161-.288-48.08161-.11573-96.16618-.126-144.24942-.00108-4.72817-.20939-9.47276,1.24745-14.26284Z" style="fill: #8f6e41"/>
        <path d="M261.64044,0H0C.74335.875,1.27436,1.56207,1.86834,2.18969a29.67814,29.67814,0,0,1,8.33378,21.45738c-.14183,48.88525.09878,97.77238-.19781,146.65629-.12972,21.38389,8.21482,38.42475,24.06234,52.23384a133.08966,133.08966,0,0,0,28.9859,19.12907l.79206.34773.8066.34691c12.40931,5.90753,25.06272,11.30209,37.595,16.95231,5.23872,2.36193,10.48041,4.72441,15.64593,7.24028a42.43644,42.43644,0,0,1,12.9282,9.04134,42.44108,42.44108,0,0,1,12.92819-9.04134c5.16552-2.51589,10.40721-4.87835,15.64592-7.24028,12.5323-5.65024,25.18572-11.04479,37.595-16.95231a134.76694,134.76694,0,0,0,30.91776-20.10658l-.33347.28287c15.84725-13.80935,24.1918-30.85021,24.06234-52.23384-.29658-48.88391-.056-97.771-.19781-146.6563a29.67813,29.67813,0,0,1,8.33379-21.45737c.594-.62763,1.125-1.31446,1.86835-2.18969ZM240.00032,25.86717c.01023,48.08323-.162,96.1678.126,144.24941.11062,18.4444-7.26021,32.85984-21.02676,44.51611A122.452,122.452,0,0,1,193.276,231.42l-.73313.32-.74712.31946c-12.12536,5.70838-24.42594,11.048-36.68668,16.46546-8.24847,3.64463-16.54108,7.18457-24.21628,12.03925-.024-.01426-.04844-.02773-.0724-.042-.02395.01426-.04844.02773-.0724.042-7.67521-4.85468-15.96808-8.39461-24.21628-12.03925-12.26074-5.41744-24.56105-10.75708-36.68642-16.46546A124.16536,124.16536,0,0,1,42.18107,214.3353l.36011.29739C28.77462,202.97642,21.40407,188.561,21.51442,170.11658c.288-48.0816.11573-96.16618.126-144.24941.00107-4.72818.20938-9.47277-1.24745-14.26284H241.24775c-1.45684,4.79034-1.24825,9.53466-1.24745,14.26284Z" style="fill: #fff"/>
        <g>
          <path d="M110.95234,177.36988a106.14044,106.14044,0,0,1-11.77375-8.91467l-1.25689-1.10047c-2.32666-2.035-4.73249-4.13928-6.9961-6.32385-1.74536-1.68445-3.42779-3.48316-5.05493-5.22266q-1.09276-1.1684-2.193-2.329c-.37537-.39331-.75989-.77917-1.14435-1.165a35.21466,35.21466,0,0,1-2.47241-2.65905c-2.18378-2.69971-4.74988-5.91577-7.22492-9.29969a52.91731,52.91731,0,0,1-6.40765-10.81164,22.59733,22.59733,0,0,1-1.7019-12.36475A25.56618,25.56618,0,0,1,68.855,106.70557c2.37091-3.52026,4.52777-6.6886,6.91552-9.8147,2.7099-3.54809,5.55725-6.89794,7.98511-9.70678,1.37115-1.58631,2.87866-3.08887,4.33655-4.542q.52139-.51966,1.04083-1.04029c1.42676-1.434,2.73-2.6781,3.98419-3.80371q.74918-.67236,1.49365-1.35168c1.76935-1.60755,3.59888-3.2699,5.52363-4.75879,3.3421-2.58521,6.83953-5.07691,10.22186-7.48645l1.17749-.83924a4.7,4.7,0,0,0,1.73822-2.19128,11.25312,11.25312,0,0,0-1.569.44946q-1.63129.64984-3.26978,1.28455c-3.137,1.22388-6.38086,2.48938-9.4768,3.92016-4.62989,2.13978-9.111,4.43787-13.319,6.83057a91.84926,91.84926,0,0,0-12.91785,8.73084q-1.1673.95562-2.34393,1.90246c-2.70813,2.18872-5.50855,4.45191-8.06464,6.87219-3.08234,2.91858-5.95825,6.1742-8.73944,9.32264l-.38794.43908c-2.67285,3.02466-5.17468,6.14759-7.26947,8.80347-1.54034,1.95325-2.966,4.037-4.29419,6.00378-.69482,1.02893-1.34576,2.12134-1.97522,3.17774-.26385.44287-.52777.88574-.79572,1.32593v.57373l.7486,1.1698c.59619.93322,1.19238,1.86633,1.79779,2.79358a124.204,124.204,0,0,0,11.30292,15.06872l1.22174,1.374c1.78668,2.0127,3.63422,4.094,5.54486,6.03992,1.80023,1.83362,3.76856,3.575,5.67206,5.259l.63611.56311.835.74317a59.20043,59.20043,0,0,0,4.77966,3.97241c4.81549,3.45545,8.84369,6.31506,13.17993,9.03955,3.68512,2.31531,7.60828,4.33216,11.40235,6.28259a88.02876,88.02876,0,0,0,14.9934,5.96473c.80555.24084,1.61512.46826,2.48847.71362l.09668.02722A9.53466,9.53466,0,0,0,110.95234,177.36988Z" style="fill: #fff"/>
          <path d="M223.01435,117.64625l-1.01288-1.48072c-1.599-2.34057-3.25244-4.76074-4.97205-7.06482-1.03711-1.38964-2.20575-2.72961-3.33587-4.02539-.4466-.51208-.89319-1.02405-1.33356-1.54065-.69843-.81921-1.38593-1.64941-2.07343-2.47961-1.6123-1.94714-3.27948-3.96045-5.06378-5.78467-2.76324-2.82507-5.76965-5.51636-8.67706-8.11914l-.86-.77014c-1.815-1.62683-3.70483-3.15942-5.61694-4.55518-2.17523-1.58777-5.05487-3.64758-8.04016-5.49719-3.58136-2.21912-7.27338-4.36658-10.97345-6.38293a142.55,142.55,0,0,0-15.06946-6.75171q-1.14751-.46161-2.29394-.925a27.24324,27.24324,0,0,0-2.952-.93909q-.31008-.08606-.62359-.17407a4.19325,4.19325,0,0,0,1.49182,2.04285q2.11643,1.56975,4.25213,3.11462c2.65406,1.932,5.39838,3.92969,8.03479,5.98169,2.721,2.11792,5.27265,4.4331,7.86432,6.817,1.25928,1.15844,2.44379,2.42627,3.5893,3.65246.40252.43079.805.8617,1.21106,1.28833q.70349.73938,1.41314,1.47351c1.38782,1.44153,2.82294,2.932,4.15833,4.47254,2.01471,2.32422,4.14221,4.81482,6.05969,7.46191,2.5423,3.50977,4.90765,7.02405,7.03034,10.44531a22.98314,22.98314,0,0,1,3.50659,15.19507,25.94172,25.94172,0,0,1-2.22412,7.53784,58.65424,58.65424,0,0,1-6.93641,11.09156l-.695.93017c-1.93756,2.595-3.9411,5.27832-6.12671,7.7406-2.69116,3.03186-5.72229,6.17859-9.53913,9.90259-2.71612,2.6499-5.61425,5.19434-8.417,7.65515l-.56616.49707c-1.98187,1.74072-3.957,3.35608-5.87067,4.80127-1.06445.804-2.17724,1.57215-3.25329,2.31507-1.12928.77966-2.29706,1.58581-3.40045,2.4281a12.872,12.872,0,0,0-1.76294,1.75891l-.00733.0083c.1145-.03223.22937-.06336.34467-.09253a86.53832,86.53832,0,0,0,15.20886-5.59583c2.49988-1.1571,5.09131-2.483,7.70221-3.941,3.00561-1.67846,5.87079-3.3872,8.516-5.07849a106.93534,106.93534,0,0,0,13.7262-10.11853l.72442-.64868c2.79328-2.50024,5.68164-5.08557,8.35437-7.78406,2.69019-2.71606,5.43158-5.74573,8.14808-9.00476,2.5357-3.04223,4.87158-6.24646,6.82208-8.97973,1.25506-1.75867,2.44519-3.61585,3.59619-5.41187.494-.77075.988-1.54163,1.48859-2.30774v-.57483c-.1471-.25024-.2912-.50268-.43525-.755C223.775,118.8617,223.41315,118.22767,223.01435,117.64625Z" style="fill: #fff"/>
          <path d="M164.04926,161.762a.40126.40126,0,0,0-.37756-.19043.77316.77316,0,0,0-.10175.007,5.37033,5.37033,0,0,0-1.90448.68664,55.082,55.082,0,0,1-10.73724,4.69654,68.997,68.997,0,0,1-8.79688,2.1444,79.67335,79.67335,0,0,1-8.62225,1.01246c-.50568.03662-1.04358.05529-1.59888.05529-1.38177,0-2.74719-.1145-3.78241-.21423-3.07776-.29651-5.74908-.63208-8.16662-1.02576a56.95819,56.95819,0,0,1-15.71839-5.277c-1.15326-.55591-2.2558-1.15125-3.42309-1.78162q-.57385-.31-1.158-.62293a1.532,1.532,0,0,0-.03546,1.61866,42.3513,42.3513,0,0,0,9.50482,10.88684,45.89,45.89,0,0,0,13.19061,7.3789,24.7393,24.7393,0,0,0,8.55817,1.65467c.46209,0,.92834-.01612,1.38568-.048.37781-.02624.75708-.04675,1.1366-.06738a23.64569,23.64569,0,0,0,3.3637-.34265,33.904,33.904,0,0,0,9.02771-3.23914,65.09,65.09,0,0,0,6.9878-4.27,43.4297,43.4297,0,0,0,4.53808-3.84082l.25867-.23986a19.5,19.5,0,0,0,2.40948-2.74024c1.341-1.81323,2.682-3.7362,3.986-5.71557A.5231.5231,0,0,0,164.04926,161.762Z" style="fill: #fff"/>
          <path d="M154.78675,68.65674a43.78785,43.78785,0,0,0-8.33045-5.52356,36.13731,36.13731,0,0,0-10.46643-3.67041,27.40029,27.40029,0,0,0-8.44525-.085,31.87159,31.87159,0,0,0-7.81341,2.4148,44.37874,44.37874,0,0,0-12.4253,7.89111,37.16655,37.16655,0,0,0-7.47686,9.11267c-.47687.83728-.53357,1.234-.1427,1.89319.11651-.05566.233-.11194.34857-.16992.83008-.41589,1.65478-.844,2.47955-1.2721,1.822-.9458,3.70612-1.9237,5.62634-2.75256a56.9868,56.9868,0,0,1,11.08368-3.42407,64.94369,64.94369,0,0,1,10.65424-1.29566c.57538-.02258,1.16644-.03418,1.75677-.03418a61.14687,61.14687,0,0,1,9.61829.844,61.93358,61.93358,0,0,1,10.1167,2.4967,63.51307,63.51307,0,0,1,11.45013,5.166.75331.75331,0,0,0,.37049.06909,2.15615,2.15615,0,0,0,.69-.12329,1.47007,1.47007,0,0,0-.0199-.6886A39.31114,39.31114,0,0,0,154.78675,68.65674Z" style="fill: #fff"/>
          <g>
            <path d="M147.77475,123.25794c.82786,1.34195,1.68886,1.4288,3.43657,1.07112a8.04954,8.04954,0,0,1,4.84059.08272c2.11169.88487,3.04515,2.71551,3.609,4.79239.08543.31458.11.64566.20181,1.209-.778-.58907-1.39741-1.045-2.00284-1.51873a7.10249,7.10249,0,0,0-6.77175-1.18175,8.01636,8.01636,0,0,1-5.06153.08905,5.491,5.491,0,0,1-2.07725-1.377c-.82178-.89379-.6172-2.14039.5283-3.22526a1.9386,1.9386,0,0,0,.52209-2.07836,15.16028,15.16028,0,0,1,.07867-2.67971,3.15537,3.15537,0,0,0-.24115-1.03275c-.052-.14656-.22718-.25158-.35173-.3699-1.75214-1.66451-1.00214-3.18672.6098-4.17939a6.05646,6.05646,0,0,1,5.29028-.46388c2.87711.972,5.35895.21666,7.75186-1.34076.51164-.333,1.046-.63109,1.58937-.957a6.15584,6.15584,0,0,1-4.72984,5.88007,14.54328,14.54328,0,0,1-5.58115-.36575l-.76782,1.80445,17.13443,2.78056C159.83893,121.39607,153.68077,121.39314,147.77475,123.25794Z" style="fill: #fff"/>
            <path d="M116.82115,117.8571v4.7409l1.8712,1.43725v1.81312c-.63028.47984-1.28149,1.0102-1.96756,1.4908a5.655,5.655,0,0,1-4.713.59715,30.33715,30.33715,0,0,0-3.31213-.60154,7.02207,7.02207,0,0,0-5.54393,2.03168,3.9016,3.9016,0,0,1-.38439.34038c-.203.13792-.42316.25053-.7785.45656.62511-2.416,1.3594-4.55352,3.76546-5.58022a8.02789,8.02789,0,0,1,4.7226-.28656c1.1941.21285,2.48922.41276,3.55386-.62672-5.27105-2.15387-10.85058-2.48535-16.35428-3.19076l-.013-.28167c1.134-.2633,2.258-.58637,3.404-.77857,3.27241-.54887,6.557-1.02541,9.82944-1.57384a21.13086,21.13086,0,0,0,2.59174-.69209,2.36308,2.36308,0,0,0,.59557-.41251c-.74271-1.05383-1.50935-1.19355-3.09813-.89552a8.41273,8.41273,0,0,1-5.4642-.35645,5.42405,5.42405,0,0,1-2.80827-3.21561c-.239-.65026-.41321-1.32437-.61681-1.98767l.18262-.13681c.68722.44635,1.40551.8519,2.05582,1.34678a7.23894,7.23894,0,0,0,6.26776,1.13923c1.65429-.35571,3.33269-.936,5.028-.27173a7.74492,7.74492,0,0,1,2.10091,1.20116,2.152,2.152,0,0,1-.04328,3.16767c-.42343.28613-.79827.64419-1.19518.96957Z" style="fill: #fff"/>
            <path d="M127.87485,140.77022c-3.57247,2.05047-4.22687,5.42845-4.34985,9.31019-.36131-.428-.57552-.65066-.75431-.89886a7.75826,7.75826,0,0,1-1.679-3.4376,5.30978,5.30978,0,0,1,1.11247-4.24483c1.01178-1.26175,2.17826-2.39817,3.23572-3.62505.66178-.7678,1.2033-1.6405,1.87671-2.39673a4.54455,4.54455,0,0,1,4.299-1.68819,4.2906,4.2906,0,0,1,3.281,2.09362,31.50142,31.50142,0,0,0,4.40253,5.07278,5.7653,5.7653,0,0,1,1.63192,3.77955c.11021,1.75035-.9799,3.57046-2.42,5.1716-.06675-3.8904-.96442-7.26788-4.59562-9.241-1.72826,4.85362-1.97523,10.04962-3.103,14.8435Z" style="fill: #fff"/>
            <path d="M123.50727,90.22345c.19681,3.7956.67291,7.3326,4.54559,9.30669,1.65-4.624,1.89477-9.56309,2.80694-14.39518,1.14056,4.77666,1.34344,9.74656,3.05783,14.38454,3.36027-2.39587,4.08062-2.87042,4.47554-9.3925a8.69214,8.69214,0,0,1,2.5162,4.71242c.305,2.51487-.957,4.15948-2.79581,5.70522a21.04528,21.04528,0,0,0-3.36882,4.01275c-1.67053,2.34746-5.492,3.1544-7.46739.10151a26.74953,26.74953,0,0,0-4.325-5.01665,6.20073,6.20073,0,0,1-1.97931-4.1707,5.82665,5.82665,0,0,1,1.51382-4.00772C122.81256,91.03927,123.16633,90.63628,123.50727,90.22345Z" style="fill: #fff"/>
            <path d="M115.35354,93.4604c.57166,1.5034,1.061,2.80847,1.564,4.10826a5.318,5.318,0,0,0,3.05,2.74121,27.02378,27.02378,0,0,1,3.72439,1.92185,4.1567,4.1567,0,0,1,2.07559,4.043,2.22754,2.22754,0,0,1-1.84071,2.1147c-1.51064.085-2.32838-.43157-2.609-1.80258a1.93155,1.93155,0,0,0-1.3-1.63477,9.29048,9.29048,0,0,1-5.63857-5.71124C113.62781,97.15705,114.36879,95.40719,115.35354,93.4604Z" style="fill: #fff"/>
            <path d="M155.36387,139.02821c-1.16676-1.08583-2.261-2.23428-3.49142-3.21131a6.77991,6.77991,0,0,0-4.02538-1.29505c-1.92358-.0939-3.95493-.00215-5.54437-1.37a5.28613,5.28613,0,0,1-1.48684-1.99,1.99376,1.99376,0,0,1,1.11751-2.6104,29.16608,29.16608,0,0,1,2.84516-.871l1.6575,3.28135c1.50836.16712,2.98287.23817,4.419.51126a5.5605,5.5605,0,0,1,4.34107,4.799c.03821.73358.11468,1.4651.16547,2.19813C155.37662,138.68772,155.36387,138.90727,155.36387,139.02821Z" style="fill: #fff"/>
            <path d="M141.53757,104.19323c-.16781.87863-.29042,1.62615-.45594,2.364a2.12634,2.12634,0,0,1-2.15149,1.98487,2.69335,2.69335,0,0,1-2.49-1.33746c-.71007-1.02386-.27012-2.5399.57785-3.76609a8.96128,8.96128,0,0,1,4.35568-2.9027,7.42482,7.42482,0,0,0,4.353-4.42664c.31307-.80818.60154-1.62588.90547-2.45079a6.88361,6.88361,0,0,1,.50518,6.68377C145.86619,102.6659,143.54929,103.27129,141.53757,104.19323Z" style="fill: #fff"/>
            <path d="M115.43523,111.40783l1.42713-1.689c-1.09955-.226-2.10692-.44657-3.11984-.63773a24.61367,24.61367,0,0,1-3.46871-.64507,5.25721,5.25721,0,0,1-3.5868-4.591,8.16,8.16,0,0,1,.174-2.70792c.279.35482.55352.71326.8377,1.06388a8.17571,8.17571,0,0,0,6.39683,3.47341,15.79994,15.79994,0,0,1,4.22117.681,3.98825,3.98825,0,0,1,2.82814,2.78145,2.37963,2.37963,0,0,1-1.64917,2.8581A6.98813,6.98813,0,0,1,115.43523,111.40783Z" style="fill: #fff"/>
            <path d="M141.13062,135.56216c1.20741.64571,2.38866,1.29714,3.5874,1.91461a6.06023,6.06023,0,0,1,2.40936,8.16992c-.17963.34483-.34029.69954-.59054,1.21662-.42173-1.1273-.79251-2.0903-1.14272-3.06071a6.72885,6.72885,0,0,0-3.40044-3.812c-1.32354-.68188-2.651-1.36882-3.91-2.15988a4.31157,4.31157,0,0,1-1.97493-3.71222,2.3796,2.3796,0,0,1,2.45628-2.29653,2.2196,2.2196,0,0,1,2.35814,2.24237A11.07917,11.07917,0,0,0,141.13062,135.56216Z" style="fill: #fff"/>
            <path d="M115.31082,146.57757c-2.15841-3.27919-1.47069-7.21657,2.0521-9.19762a11.18541,11.18541,0,0,1,1.84443-.8235,3.083,3.083,0,0,0,2.07622-2.53388c.136-.658.26556-1.31735.41309-2.051a21.72891,21.72891,0,0,1,2.21275.01295c1.52011.15613,2.26758,1.60377,1.75027,3.27753a6.123,6.123,0,0,1-4.04589,3.90986,9.36687,9.36687,0,0,0-5.3225,5.19576C115.95979,145.09767,115.64062,145.83328,115.31082,146.57757Z" style="fill: #fff"/>
            <path d="M155.22263,101.10667c.74777,4.01157-1.50091,7.42312-5.31962,7.80258-1.17984.11724-2.35849.24643-3.57425.374a4.89447,4.89447,0,0,1-2.92448,2.931c-.76835.22674-1.3848.25461-1.75783-.59036a2.29749,2.29749,0,0,0-.22824-.35106c-1.34875-1.96681-.64959-2.95048.74427-4.16071a6.41233,6.41233,0,0,1,3.84956-1.30889c1.26747-.09447,2.54165-.189,3.79181-.40531a7.23429,7.23429,0,0,0,4.69852-3.33835C154.71742,101.75181,154.9548,101.4597,155.22263,101.10667Z" style="fill: #fff"/>
            <path d="M115.396,130.92139l2.07518-3.2339a11.92086,11.92086,0,0,1,2.7653.96814,2.22675,2.22675,0,0,1,.42233,3.4717,5.43484,5.43484,0,0,1-4.44426,2.25579c-1.22079.01366-2.4402.12225-3.66111.15874a5.22988,5.22988,0,0,0-3.98574,2.41232c-.58154.73657-1.11494,1.51114-1.72651,2.34567-.93061-4.384,1.38581-7.753,5.59868-8.02738C113.44447,131.20706,114.44227,131.03738,115.396,130.92139Z" style="fill: #fff"/>
          </g>
        </g>
      </g>
    </g>
  </g>
</svg>
