<svg xmlns="http://www.w3.org/2000/svg" viewBox="0 0 191.61055 275.59485">
  <title>tooltip_vendor</title>
  <g id="Layer_2" data-name="Layer 2">
    <g id="Layer_1-2" data-name="Layer 1">
      <g>
        <path d="M191.25609,32.24567V21.3263H0V201.902c0,10.851,5.05006,18.28965,12.45479,24.9093,23.0668,20.67823,50.19406,34.73679,78.10611,47.56676a11.651,11.651,0,0,0,11.1624-.43411l-.05275.02934-.05383.0296c27.29788-12.45478,53.84514-26.58118,76.77524-46.50878a36.05916,36.05916,0,0,0,13.21859-27.92093v-.018q0-.97587-.05114-1.93939l.00376.08962c-.47772-55.14184-.20481-110.31787-.30708-165.45945ZM174.02442,218.00818c-21.53111,19.96152-47.12323,33.33756-73.39732,45.6898a11.5854,11.5854,0,0,1-4.93379,1.08489h-.05922a11.83111,11.83111,0,0,1-6.333-1.82581l.049.02879.0506.02934c-24.568-11.73808-48.86345-24.36351-69.405-42.75542-5.05006-4.50426-9.75913-9.00824-9.75913-16.99294.23873-56.77953,0-113.59352,0-171.46494H180.84861V203.35914a19.09278,19.09278,0,0,1-6.76849,14.60222l-.02773.02288-.02825.02315Z" style="fill: #fff"/>
        <path d="M180.84889,31.80214H10.23683V203.26707c0,7.98445,4.57234,12.48871,9.62267,17.06132,20.47341,18.39191,44.66628,31.01733,69.3366,42.75542a11.9699,11.9699,0,0,0,11.3726.62063l-.07267.031-.07347.03068c26.27409-12.35224,51.86592-25.72829,73.39731-45.6898a19.14285,19.14285,0,0,0,7.13155-14.6835v-.02315c-.10227-56.84789-.10227-113.6277-.10227-171.56748Z" style="fill: #45643a"/>
        <path d="M.17063,0H191.29V10.47556H.17062V0Z" style="fill: #fff"/>
        <path d="M96.25177,207.31864C76.90227,195.59994,57.816,184.04085,38.467,172.32241c.23334-4.08709.02368-8.21455.79072-12.15174A14.96545,14.96545,0,0,1,54.11079,147.9223q41.86916-.13482,83.73912.01292a15.58037,15.58037,0,0,1,15.26833,15.27209c.09743,2.97557.01561,5.957.01561,9.25665Z" style="fill: #fff"/>
        <path d="M95.85345,137.37192a35.54073,35.54073,0,0,1,.13377-71.07655c19.44127.021,35.13914,16.03832,35.06056,35.7735a35.26675,35.26675,0,0,1-35.19406,35.303Z" style="fill: #fff"/>
      </g>
    </g>
  </g>
</svg>
